<?xml version="1.0"?>
<svg xmlns="http://www.w3.org/2000/svg" xmlns:xlink="http://www.w3.org/1999/xlink" width="770.0000000000001" height="299">
<rect width="100%" height="100%" fill="white"/>
<path d="M 10 14 C 5.5 14, 5.5 23, 10 23" fill="#009CA2" opacity="0.9" />
<rect x="10" y="14" height="9" width="248.34437086092714" fill="#009CA2" stroke="#009CA2" stroke-width="0" opacity="0.9" />
<rect x="10" y="15.62" height="3" width="248.34437086092714" fill="#F4EDF2" opacity="0.25" />
<rect x="258.34437086092714" y="14" height="9" width="69.5364238410596" fill="#D1D1D1" stroke="#D1D1D1" stroke-width="0" opacity="0.9" />
<rect x="258.34437086092714" y="15.62" height="3" width="69.5364238410596" fill="#F4EDF2" opacity="0.25" />
<line x1="327.88079470198676" y1="18.5" x2="511.65562913907286" y2="18.5" stroke="#BABABA" stroke-width="1.5" />
<rect x="511.65562913907286" y="14" height="9" width="248.34437086092714" fill="#009CA2" stroke="#009CA2" stroke-width="0" opacity="0.9" />
<rect x="511.65562913907286" y="15.62" height="3" width="248.34437086092714" fill="#F4EDF2" opacity="0.25" />
<path d="M 760 14 C 764.5 14, 764.5 23, 760 23" fill="#009CA2" opacity="0.9" />
<path d="M 10 25 C 5.5 25, 5.5 34, 10 34" fill="#009CA2" opacity="0.9" />
<rect x="10" y="25" height="9" width="248.34437086092714" fill="#009CA2" stroke="#009CA2" stroke-width="0" opacity="0.9" />
<rect x="10" y="26.62" height="3" width="248.34437086092714" fill="#F4EDF2" opacity="0.25" />
<rect x="258.34437086092714" y="25" height="9" width="69.5364238410596" fill="#D1D1D1" stroke="#D1D1D1" stroke-width="0" opacity="0.9" />
<rect x="258.34437086092714" y="26.62" height="3" width="69.5364238410596" fill="#F4EDF2" opacity="0.25" />
<line x1="327.88079470198676" y1="29.5" x2="511.65562913907286" y2="29.5" stroke="#BABABA" stroke-width="1.5" />
<rect x="511.65562913907286" y="25" height="9" width="248.34437086092714" fill="#009CA2" stroke="#009CA2" stroke-width="0" opacity="0.9" />
<rect x="511.65562913907286" y="26.62" height="3" width="248.34437086092714" fill="#F4EDF2" opacity="0.25" />
<path d="M 760 25 C 764.5 25, 764.5 34, 760 34" fill="#009CA2" opacity="0.9" />
<path d="M 10 36 C 5.5 36, 5.5 45, 10 45" fill="#009CA2" opacity="0.9" />
<rect x="10" y="36" height="9" width="248.34437086092714" fill="#009CA2" stroke="#009CA2" stroke-width="0" opacity="0.9" />
<rect x="10" y="37.62" height="3" width="248.34437086092714" fill="#F4EDF2" opacity="0.25" />
<rect x="258.34437086092714" y="36" height="9" width="69.5364238410596" fill="#D1D1D1" stroke="#D1D1D1" stroke-width="0" opacity="0.9" />
<rect x="258.34437086092714" y="37.62" height="3" width="69.5364238410596" fill="#F4EDF2" opacity="0.25" />
<line x1="327.88079470198676" y1="40.5" x2="511.65562913907286" y2="40.5" stroke="#BABABA" stroke-width="1.5" />
<rect x="511.65562913907286" y="36" height="9" width="248.34437086092714" fill="#009CA2" stroke="#009CA2" stroke-width="0" opacity="0.9" />
<rect x="511.65562913907286" y="37.62" height="3" width="248.34437086092714" fill="#F4EDF2" opacity="0.25" />
<path d="M 760 36 C 764.5 36, 764.5 45, 760 45" fill="#009CA2" opacity="0.9" />
<path d="M 10 47 C 5.5 47, 5.5 56, 10 56" fill="#009CA2" opacity="0.9" />
<rect x="10" y="47" height="9" width="248.34437086092714" fill="#009CA2" stroke="#009CA2" stroke-width="0" opacity="0.9" />
<rect x="10" y="48.62" height="3" width="248.34437086092714" fill="#F4EDF2" opacity="0.25" />
<rect x="258.34437086092714" y="47" height="9" width="69.5364238410596" fill="#D1D1D1" stroke="#D1D1D1" stroke-width="0" opacity="0.9" />
<rect x="258.34437086092714" y="48.62" height="3" width="69.5364238410596" fill="#F4EDF2" opacity="0.25" />
<line x1="327.88079470198676" y1="51.5" x2="511.65562913907286" y2="51.5" stroke="#BABABA" stroke-width="1.5" />
<rect x="511.65562913907286" y="47" height="9" width="248.34437086092714" fill="#009CA2" stroke="#009CA2" stroke-width="0" opacity="0.9" />
<rect x="511.65562913907286" y="48.62" height="3" width="248.34437086092714" fill="#F4EDF2" opacity="0.25" />
<path d="M 760 47 C 764.5 47, 764.5 56, 760 56" fill="#009CA2" opacity="0.9" />
<path d="M 10 58 C 5.5 58, 5.5 67, 10 67" fill="#009CA2" opacity="0.9" />
<rect x="10" y="58" height="9" width="248.34437086092714" fill="#009CA2" stroke="#009CA2" stroke-width="0" opacity="0.9" />
<rect x="10" y="59.62" height="3" width="248.34437086092714" fill="#F4EDF2" opacity="0.25" />
<rect x="258.34437086092714" y="58" height="9" width="69.5364238410596" fill="#D1D1D1" stroke="#D1D1D1" stroke-width="0" opacity="0.9" />
<rect x="258.34437086092714" y="59.62" height="3" width="69.5364238410596" fill="#F4EDF2" opacity="0.25" />
<line x1="327.88079470198676" y1="62.5" x2="511.65562913907286" y2="62.5" stroke="#BABABA" stroke-width="1.5" />
<rect x="511.65562913907286" y="58" height="9" width="248.34437086092714" fill="#009CA2" stroke="#009CA2" stroke-width="0" opacity="0.9" />
<rect x="511.65562913907286" y="59.62" height="3" width="248.34437086092714" fill="#F4EDF2" opacity="0.25" />
<path d="M 760 58 C 764.5 58, 764.5 67, 760 67" fill="#009CA2" opacity="0.9" />
<path d="M 10 69 C 5.5 69, 5.5 78, 10 78" fill="#009CA2" opacity="0.9" />
<rect x="10" y="69" height="9" width="248.34437086092714" fill="#009CA2" stroke="#009CA2" stroke-width="0" opacity="0.9" />
<rect x="10" y="70.62" height="3" width="248.34437086092714" fill="#F4EDF2" opacity="0.25" />
<rect x="258.34437086092714" y="69" height="9" width="69.5364238410596" fill="#D1D1D1" stroke="#D1D1D1" stroke-width="0" opacity="0.9" />
<rect x="258.34437086092714" y="70.62" height="3" width="69.5364238410596" fill="#F4EDF2" opacity="0.25" />
<line x1="327.88079470198676" y1="73.5" x2="511.65562913907286" y2="73.5" stroke="#BABABA" stroke-width="1.5" />
<rect x="511.65562913907286" y="69" height="9" width="248.34437086092714" fill="#009CA2" stroke="#009CA2" stroke-width="0" opacity="0.9" />
<rect x="511.65562913907286" y="70.62" height="3" width="248.34437086092714" fill="#F4EDF2" opacity="0.25" />
<path d="M 760 69 C 764.5 69, 764.5 78, 760 78" fill="#009CA2" opacity="0.9" />
<path d="M 10 80 C 5.5 80, 5.5 89, 10 89" fill="#009CA2" opacity="0.9" />
<rect x="10" y="80" height="9" width="94.37086092715232" fill="#009CA2" stroke="#009CA2" stroke-width="0" opacity="0.9" />
<rect x="10" y="81.62" height="3" width="94.37086092715232" fill="#F4EDF2" opacity="0.25" />
<line x1="104.37086092715232" y1="84.5" x2="109.33774834437087" y2="84.5" stroke="#009CA2" stroke-width="1.5" />
<rect x="109.33774834437087" y="80" height="9" width="149.0066225165563" fill="#009CA2" stroke="#009CA2" stroke-width="0" opacity="0.9" />
<rect x="109.33774834437087" y="81.62" height="3" width="149.0066225165563" fill="#F4EDF2" opacity="0.25" />
<rect x="258.34437086092714" y="80" height="9" width="79.47019867549669" fill="#D1D1D1" stroke="#D1D1D1" stroke-width="0" opacity="0.9" />
<rect x="258.34437086092714" y="81.62" height="3" width="79.47019867549669" fill="#F4EDF2" opacity="0.25" />
<line x1="337.81456953642385" y1="84.5" x2="511.65562913907286" y2="84.5" stroke="#BABABA" stroke-width="1.5" />
<rect x="511.65562913907286" y="80" height="9" width="248.34437086092714" fill="#009CA2" stroke="#009CA2" stroke-width="0" opacity="0.9" />
<rect x="511.65562913907286" y="81.62" height="3" width="248.34437086092714" fill="#F4EDF2" opacity="0.25" />
<path d="M 760 80 C 764.5 80, 764.5 89, 760 89" fill="#009CA2" opacity="0.9" />
<line x1="10" y1="80" x2="10" y2="89" stroke="#000000" stroke-width="2" />
<path d="M 10 91 C 5.5 91, 5.5 100, 10 100" fill="#009CA2" opacity="0.9" />
<rect x="10" y="91" height="9" width="248.34437086092714" fill="#009CA2" stroke="#009CA2" stroke-width="0" opacity="0.9" />
<rect x="10" y="92.62" height="3" width="248.34437086092714" fill="#F4EDF2" opacity="0.25" />
<rect x="258.34437086092714" y="91" height="9" width="238.41059602649005" fill="#D1D1D1" stroke="#D1D1D1" stroke-width="0" opacity="0.9" />
<rect x="258.34437086092714" y="92.62" height="3" width="238.41059602649005" fill="#F4EDF2" opacity="0.25" />
<line x1="496.7549668874172" y1="95.5" x2="511.6556291390728" y2="95.5" stroke="#BABABA" stroke-width="1.5" />
<rect x="511.6556291390728" y="91" height="9" width="4.966887417218543" fill="#009CA2" stroke="#009CA2" stroke-width="0" opacity="0.9" />
<rect x="511.6556291390728" y="92.62" height="3" width="4.966887417218543" fill="#F4EDF2" opacity="0.25" />
<rect x="516.6225165562913" y="91" height="9" width="4.966887417218543" fill="#BABABA" stroke="#BABABA" stroke-width="0" opacity="0.9" />
<rect x="516.6225165562913" y="92.62" height="3" width="4.966887417218543" fill="#F4EDF2" opacity="0.25" />
<rect x="521.5894039735099" y="91" height="9" width="238.41059602649005" fill="#009CA2" stroke="#009CA2" stroke-width="0" opacity="0.9" />
<rect x="521.5894039735099" y="92.62" height="3" width="238.41059602649005" fill="#F4EDF2" opacity="0.25" />
<path d="M 760 91 C 764.5 91, 764.5 100, 760 100" fill="#009CA2" opacity="0.9" />
<path d="M 10 102 C 5.5 102, 5.5 111, 10 111" fill="#009CA2" opacity="0.9" />
<rect x="10" y="102" height="9" width="248.34437086092714" fill="#009CA2" stroke="#009CA2" stroke-width="0" opacity="0.9" />
<rect x="10" y="103.62" height="3" width="248.34437086092714" fill="#F4EDF2" opacity="0.25" />
<rect x="258.34437086092714" y="102" height="9" width="238.41059602649005" fill="#D1D1D1" stroke="#D1D1D1" stroke-width="0" opacity="0.9" />
<rect x="258.34437086092714" y="103.62" height="3" width="238.41059602649005" fill="#F4EDF2" opacity="0.25" />
<line x1="496.7549668874172" y1="106.5" x2="511.6556291390728" y2="106.5" stroke="#BABABA" stroke-width="1.5" />
<rect x="511.6556291390728" y="102" height="9" width="4.966887417218543" fill="#009CA2" stroke="#009CA2" stroke-width="0" opacity="0.9" />
<rect x="511.6556291390728" y="103.62" height="3" width="4.966887417218543" fill="#F4EDF2" opacity="0.25" />
<rect x="516.6225165562913" y="102" height="9" width="4.966887417218543" fill="#BABABA" stroke="#BABABA" stroke-width="0" opacity="0.9" />
<rect x="516.6225165562913" y="103.62" height="3" width="4.966887417218543" fill="#F4EDF2" opacity="0.25" />
<rect x="521.5894039735099" y="102" height="9" width="238.41059602649005" fill="#009CA2" stroke="#009CA2" stroke-width="0" opacity="0.9" />
<rect x="521.5894039735099" y="103.62" height="3" width="238.41059602649005" fill="#F4EDF2" opacity="0.25" />
<path d="M 760 102 C 764.5 102, 764.5 111, 760 111" fill="#009CA2" opacity="0.9" />
<path d="M 10 113 C 5.5 113, 5.5 122, 10 122" fill="#009CA2" opacity="0.9" />
<rect x="10" y="113" height="9" width="248.34437086092714" fill="#009CA2" stroke="#009CA2" stroke-width="0" opacity="0.9" />
<rect x="10" y="114.62" height="3" width="248.34437086092714" fill="#F4EDF2" opacity="0.25" />
<rect x="258.34437086092714" y="113" height="9" width="238.41059602649005" fill="#D1D1D1" stroke="#D1D1D1" stroke-width="0" opacity="0.9" />
<rect x="258.34437086092714" y="114.62" height="3" width="238.41059602649005" fill="#F4EDF2" opacity="0.25" />
<line x1="496.7549668874172" y1="117.5" x2="511.6556291390728" y2="117.5" stroke="#BABABA" stroke-width="1.5" />
<rect x="511.6556291390728" y="113" height="9" width="4.966887417218543" fill="#009CA2" stroke="#009CA2" stroke-width="0" opacity="0.9" />
<rect x="511.6556291390728" y="114.62" height="3" width="4.966887417218543" fill="#F4EDF2" opacity="0.25" />
<rect x="516.6225165562913" y="113" height="9" width="4.966887417218543" fill="#BABABA" stroke="#BABABA" stroke-width="0" opacity="0.9" />
<rect x="516.6225165562913" y="114.62" height="3" width="4.966887417218543" fill="#F4EDF2" opacity="0.25" />
<rect x="521.5894039735099" y="113" height="9" width="238.41059602649005" fill="#009CA2" stroke="#009CA2" stroke-width="0" opacity="0.9" />
<rect x="521.5894039735099" y="114.62" height="3" width="238.41059602649005" fill="#F4EDF2" opacity="0.25" />
<path d="M 760 113 C 764.5 113, 764.5 122, 760 122" fill="#009CA2" opacity="0.9" />
<path d="M 10 124 C 5.5 124, 5.5 133, 10 133" fill="#009CA2" opacity="0.9" />
<rect x="10" y="124" height="9" width="248.34437086092714" fill="#009CA2" stroke="#009CA2" stroke-width="0" opacity="0.9" />
<rect x="10" y="125.62" height="3" width="248.34437086092714" fill="#F4EDF2" opacity="0.25" />
<rect x="258.34437086092714" y="124" height="9" width="238.41059602649005" fill="#D1D1D1" stroke="#D1D1D1" stroke-width="0" opacity="0.9" />
<rect x="258.34437086092714" y="125.62" height="3" width="238.41059602649005" fill="#F4EDF2" opacity="0.25" />
<line x1="496.7549668874172" y1="128.5" x2="511.6556291390728" y2="128.5" stroke="#BABABA" stroke-width="1.5" />
<rect x="511.6556291390728" y="124" height="9" width="4.966887417218543" fill="#009CA2" stroke="#009CA2" stroke-width="0" opacity="0.9" />
<rect x="511.6556291390728" y="125.62" height="3" width="4.966887417218543" fill="#F4EDF2" opacity="0.25" />
<rect x="516.6225165562913" y="124" height="9" width="4.966887417218543" fill="#BABABA" stroke="#BABABA" stroke-width="0" opacity="0.9" />
<rect x="516.6225165562913" y="125.62" height="3" width="4.966887417218543" fill="#F4EDF2" opacity="0.25" />
<rect x="521.5894039735099" y="124" height="9" width="188.74172185430464" fill="#009CA2" stroke="#009CA2" stroke-width="0" opacity="0.9" />
<rect x="521.5894039735099" y="125.62" height="3" width="188.74172185430464" fill="#F4EDF2" opacity="0.25" />
<line x1="710.3311258278145" y1="128.5" x2="715.2980132450331" y2="128.5" stroke="#009CA2" stroke-width="1.5" />
<rect x="715.2980132450331" y="124" height="9" width="44.70198675496689" fill="#009CA2" stroke="#009CA2" stroke-width="0" opacity="0.9" />
<rect x="715.2980132450331" y="125.62" height="3" width="44.70198675496689" fill="#F4EDF2" opacity="0.25" />
<path d="M 760 124 C 764.5 124, 764.5 133, 760 133" fill="#009CA2" opacity="0.9" />
<line x1="760" y1="124" x2="760" y2="133" stroke="#000000" stroke-width="2" />
<path d="M 10 135 C 5.5 135, 5.5 144, 10 144" fill="#009CA2" opacity="0.9" />
<rect x="10" y="135" height="9" width="248.34437086092714" fill="#009CA2" stroke="#009CA2" stroke-width="0" opacity="0.9" />
<rect x="10" y="136.62" height="3" width="248.34437086092714" fill="#F4EDF2" opacity="0.25" />
<rect x="258.34437086092714" y="135" height="9" width="238.41059602649005" fill="#D1D1D1" stroke="#D1D1D1" stroke-width="0" opacity="0.9" />
<rect x="258.34437086092714" y="136.62" height="3" width="238.41059602649005" fill="#F4EDF2" opacity="0.25" />
<line x1="496.7549668874172" y1="139.5" x2="511.6556291390728" y2="139.5" stroke="#BABABA" stroke-width="1.5" />
<rect x="511.6556291390728" y="135" height="9" width="4.966887417218543" fill="#009CA2" stroke="#009CA2" stroke-width="0" opacity="0.9" />
<rect x="511.6556291390728" y="136.62" height="3" width="4.966887417218543" fill="#F4EDF2" opacity="0.25" />
<rect x="516.6225165562913" y="135" height="9" width="4.966887417218543" fill="#BABABA" stroke="#BABABA" stroke-width="0" opacity="0.9" />
<rect x="516.6225165562913" y="136.62" height="3" width="4.966887417218543" fill="#F4EDF2" opacity="0.25" />
<rect x="521.5894039735099" y="135" height="9" width="238.41059602649005" fill="#009CA2" stroke="#009CA2" stroke-width="0" opacity="0.9" />
<rect x="521.5894039735099" y="136.62" height="3" width="238.41059602649005" fill="#F4EDF2" opacity="0.25" />
<path d="M 760 135 C 764.5 135, 764.5 144, 760 144" fill="#009CA2" opacity="0.9" />
<path d="M 10 146 C 5.5 146, 5.5 155, 10 155" fill="#009CA2" opacity="0.9" />
<rect x="10" y="146" height="9" width="248.34437086092714" fill="#009CA2" stroke="#009CA2" stroke-width="0" opacity="0.9" />
<rect x="10" y="147.62" height="3" width="248.34437086092714" fill="#F4EDF2" opacity="0.25" />
<rect x="258.34437086092714" y="146" height="9" width="238.41059602649005" fill="#D1D1D1" stroke="#D1D1D1" stroke-width="0" opacity="0.9" />
<rect x="258.34437086092714" y="147.62" height="3" width="238.41059602649005" fill="#F4EDF2" opacity="0.25" />
<line x1="496.7549668874172" y1="150.5" x2="511.6556291390728" y2="150.5" stroke="#BABABA" stroke-width="1.5" />
<rect x="511.6556291390728" y="146" height="9" width="4.966887417218543" fill="#009CA2" stroke="#009CA2" stroke-width="0" opacity="0.9" />
<rect x="511.6556291390728" y="147.62" height="3" width="4.966887417218543" fill="#F4EDF2" opacity="0.25" />
<rect x="516.6225165562913" y="146" height="9" width="4.966887417218543" fill="#BABABA" stroke="#BABABA" stroke-width="0" opacity="0.9" />
<rect x="516.6225165562913" y="147.62" height="3" width="4.966887417218543" fill="#F4EDF2" opacity="0.25" />
<rect x="521.5894039735099" y="146" height="9" width="238.41059602649005" fill="#009CA2" stroke="#009CA2" stroke-width="0" opacity="0.9" />
<rect x="521.5894039735099" y="147.62" height="3" width="238.41059602649005" fill="#F4EDF2" opacity="0.25" />
<path d="M 760 146 C 764.5 146, 764.5 155, 760 155" fill="#009CA2" opacity="0.9" />
<path d="M 10 157 C 5.5 157, 5.5 166, 10 166" fill="#009CA2" opacity="0.9" />
<rect x="10" y="157" height="9" width="248.34437086092714" fill="#009CA2" stroke="#009CA2" stroke-width="0" opacity="0.9" />
<rect x="10" y="158.62" height="3" width="248.34437086092714" fill="#F4EDF2" opacity="0.25" />
<rect x="258.34437086092714" y="157" height="9" width="238.41059602649005" fill="#D1D1D1" stroke="#D1D1D1" stroke-width="0" opacity="0.9" />
<rect x="258.34437086092714" y="158.62" height="3" width="238.41059602649005" fill="#F4EDF2" opacity="0.25" />
<line x1="496.7549668874172" y1="161.5" x2="511.6556291390728" y2="161.5" stroke="#BABABA" stroke-width="1.5" />
<rect x="511.6556291390728" y="157" height="9" width="4.966887417218543" fill="#009CA2" stroke="#009CA2" stroke-width="0" opacity="0.9" />
<rect x="511.6556291390728" y="158.62" height="3" width="4.966887417218543" fill="#F4EDF2" opacity="0.25" />
<rect x="516.6225165562913" y="157" height="9" width="4.966887417218543" fill="#BABABA" stroke="#BABABA" stroke-width="0" opacity="0.9" />
<rect x="516.6225165562913" y="158.62" height="3" width="4.966887417218543" fill="#F4EDF2" opacity="0.25" />
<rect x="521.5894039735099" y="157" height="9" width="238.41059602649005" fill="#009CA2" stroke="#009CA2" stroke-width="0" opacity="0.9" />
<rect x="521.5894039735099" y="158.62" height="3" width="238.41059602649005" fill="#F4EDF2" opacity="0.25" />
<path d="M 760 157 C 764.5 157, 764.5 166, 760 166" fill="#009CA2" opacity="0.9" />
<path d="M 10 168 C 5.5 168, 5.5 177, 10 177" fill="#009CA2" opacity="0.9" />
<rect x="10" y="168" height="9" width="248.34437086092714" fill="#009CA2" stroke="#009CA2" stroke-width="0" opacity="0.9" />
<rect x="10" y="169.62" height="3" width="248.34437086092714" fill="#F4EDF2" opacity="0.25" />
<rect x="258.34437086092714" y="168" height="9" width="238.41059602649005" fill="#D1D1D1" stroke="#D1D1D1" stroke-width="0" opacity="0.9" />
<rect x="258.34437086092714" y="169.62" height="3" width="238.41059602649005" fill="#F4EDF2" opacity="0.25" />
<line x1="496.7549668874172" y1="172.5" x2="511.6556291390728" y2="172.5" stroke="#BABABA" stroke-width="1.5" />
<rect x="511.6556291390728" y="168" height="9" width="4.966887417218543" fill="#009CA2" stroke="#009CA2" stroke-width="0" opacity="0.9" />
<rect x="511.6556291390728" y="169.62" height="3" width="4.966887417218543" fill="#F4EDF2" opacity="0.25" />
<rect x="516.6225165562913" y="168" height="9" width="4.966887417218543" fill="#BABABA" stroke="#BABABA" stroke-width="0" opacity="0.9" />
<rect x="516.6225165562913" y="169.62" height="3" width="4.966887417218543" fill="#F4EDF2" opacity="0.25" />
<rect x="521.5894039735099" y="168" height="9" width="238.41059602649005" fill="#009CA2" stroke="#009CA2" stroke-width="0" opacity="0.9" />
<rect x="521.5894039735099" y="169.62" height="3" width="238.41059602649005" fill="#F4EDF2" opacity="0.25" />
<path d="M 760 168 C 764.5 168, 764.5 177, 760 177" fill="#009CA2" opacity="0.9" />
<path d="M 10 179 C 5.5 179, 5.5 188, 10 188" fill="#009CA2" opacity="0.9" />
<rect x="10" y="179" height="9" width="74.50331125827815" fill="#009CA2" stroke="#009CA2" stroke-width="0" opacity="0.9" />
<rect x="10" y="180.62" height="3" width="74.50331125827815" fill="#F4EDF2" opacity="0.25" />
<rect x="84.50331125827815" y="179" height="9" width="9.933774834437086" fill="#BABABA" stroke="#BABABA" stroke-width="0" opacity="0.9" />
<rect x="84.50331125827815" y="180.62" height="3" width="9.933774834437086" fill="#F4EDF2" opacity="0.25" />
<rect x="94.43708609271523" y="179" height="9" width="163.90728476821192" fill="#009CA2" stroke="#009CA2" stroke-width="0" opacity="0.9" />
<rect x="94.43708609271523" y="180.62" height="3" width="163.90728476821192" fill="#F4EDF2" opacity="0.25" />
<rect x="258.34437086092714" y="179" height="9" width="238.41059602649005" fill="#D1D1D1" stroke="#D1D1D1" stroke-width="0" opacity="0.9" />
<rect x="258.34437086092714" y="180.62" height="3" width="238.41059602649005" fill="#F4EDF2" opacity="0.25" />
<line x1="496.7549668874172" y1="183.5" x2="511.6556291390728" y2="183.5" stroke="#BABABA" stroke-width="1.5" />
<rect x="511.6556291390728" y="179" height="9" width="4.966887417218543" fill="#009CA2" stroke="#009CA2" stroke-width="0" opacity="0.9" />
<rect x="511.6556291390728" y="180.62" height="3" width="4.966887417218543" fill="#F4EDF2" opacity="0.25" />
<rect x="516.6225165562913" y="179" height="9" width="4.966887417218543" fill="#BABABA" stroke="#BABABA" stroke-width="0" opacity="0.9" />
<rect x="516.6225165562913" y="180.62" height="3" width="4.966887417218543" fill="#F4EDF2" opacity="0.25" />
<rect x="521.5894039735099" y="179" height="9" width="238.41059602649005" fill="#009CA2" stroke="#009CA2" stroke-width="0" opacity="0.9" />
<rect x="521.5894039735099" y="180.62" height="3" width="238.41059602649005" fill="#F4EDF2" opacity="0.25" />
<path d="M 760 179 C 764.5 179, 764.5 188, 760 188" fill="#009CA2" opacity="0.9" />
<path d="M 10 190 C 5.5 190, 5.5 199, 10 199" fill="#009CA2" opacity="0.9" />
<rect x="10" y="190" height="9" width="248.34437086092714" fill="#009CA2" stroke="#009CA2" stroke-width="0" opacity="0.9" />
<rect x="10" y="191.62" height="3" width="248.34437086092714" fill="#F4EDF2" opacity="0.25" />
<rect x="258.34437086092714" y="190" height="9" width="238.41059602649005" fill="#D1D1D1" stroke="#D1D1D1" stroke-width="0" opacity="0.9" />
<rect x="258.34437086092714" y="191.62" height="3" width="238.41059602649005" fill="#F4EDF2" opacity="0.25" />
<line x1="496.7549668874172" y1="194.5" x2="511.6556291390728" y2="194.5" stroke="#BABABA" stroke-width="1.5" />
<rect x="511.6556291390728" y="190" height="9" width="4.966887417218543" fill="#009CA2" stroke="#009CA2" stroke-width="0" opacity="0.9" />
<rect x="511.6556291390728" y="191.62" height="3" width="4.966887417218543" fill="#F4EDF2" opacity="0.25" />
<rect x="516.6225165562913" y="190" height="9" width="4.966887417218543" fill="#BABABA" stroke="#BABABA" stroke-width="0" opacity="0.9" />
<rect x="516.6225165562913" y="191.62" height="3" width="4.966887417218543" fill="#F4EDF2" opacity="0.25" />
<rect x="521.5894039735099" y="190" height="9" width="238.41059602649005" fill="#009CA2" stroke="#009CA2" stroke-width="0" opacity="0.9" />
<rect x="521.5894039735099" y="191.62" height="3" width="238.41059602649005" fill="#F4EDF2" opacity="0.25" />
<path d="M 760 190 C 764.5 190, 764.5 199, 760 199" fill="#009CA2" opacity="0.9" />
<path d="M 10 201 C 5.5 201, 5.5 210, 10 210" fill="#009CA2" opacity="0.9" />
<rect x="10" y="201" height="9" width="248.34437086092714" fill="#009CA2" stroke="#009CA2" stroke-width="0" opacity="0.9" />
<rect x="10" y="202.62" height="3" width="248.34437086092714" fill="#F4EDF2" opacity="0.25" />
<rect x="258.34437086092714" y="201" height="9" width="238.41059602649005" fill="#D1D1D1" stroke="#D1D1D1" stroke-width="0" opacity="0.9" />
<rect x="258.34437086092714" y="202.62" height="3" width="238.41059602649005" fill="#F4EDF2" opacity="0.25" />
<line x1="496.7549668874172" y1="205.5" x2="511.6556291390728" y2="205.5" stroke="#BABABA" stroke-width="1.5" />
<rect x="511.6556291390728" y="201" height="9" width="4.966887417218543" fill="#009CA2" stroke="#009CA2" stroke-width="0" opacity="0.9" />
<rect x="511.6556291390728" y="202.62" height="3" width="4.966887417218543" fill="#F4EDF2" opacity="0.25" />
<rect x="516.6225165562913" y="201" height="9" width="4.966887417218543" fill="#BABABA" stroke="#BABABA" stroke-width="0" opacity="0.9" />
<rect x="516.6225165562913" y="202.62" height="3" width="4.966887417218543" fill="#F4EDF2" opacity="0.25" />
<rect x="521.5894039735099" y="201" height="9" width="238.41059602649005" fill="#009CA2" stroke="#009CA2" stroke-width="0" opacity="0.9" />
<rect x="521.5894039735099" y="202.62" height="3" width="238.41059602649005" fill="#F4EDF2" opacity="0.25" />
<path d="M 760 201 C 764.5 201, 764.5 210, 760 210" fill="#009CA2" opacity="0.9" />
<path d="M 10 212 C 5.5 212, 5.5 221, 10 221" fill="#009CA2" opacity="0.9" />
<rect x="10" y="212" height="9" width="248.34437086092714" fill="#009CA2" stroke="#009CA2" stroke-width="0" opacity="0.9" />
<rect x="10" y="213.62" height="3" width="248.34437086092714" fill="#F4EDF2" opacity="0.25" />
<rect x="258.34437086092714" y="212" height="9" width="238.41059602649005" fill="#D1D1D1" stroke="#D1D1D1" stroke-width="0" opacity="0.9" />
<rect x="258.34437086092714" y="213.62" height="3" width="238.41059602649005" fill="#F4EDF2" opacity="0.25" />
<line x1="496.7549668874172" y1="216.5" x2="511.6556291390728" y2="216.5" stroke="#BABABA" stroke-width="1.5" />
<rect x="511.6556291390728" y="212" height="9" width="4.966887417218543" fill="#009CA2" stroke="#009CA2" stroke-width="0" opacity="0.9" />
<rect x="511.6556291390728" y="213.62" height="3" width="4.966887417218543" fill="#F4EDF2" opacity="0.25" />
<rect x="516.6225165562913" y="212" height="9" width="4.966887417218543" fill="#BABABA" stroke="#BABABA" stroke-width="0" opacity="0.9" />
<rect x="516.6225165562913" y="213.62" height="3" width="4.966887417218543" fill="#F4EDF2" opacity="0.25" />
<rect x="521.5894039735099" y="212" height="9" width="238.41059602649005" fill="#009CA2" stroke="#009CA2" stroke-width="0" opacity="0.9" />
<rect x="521.5894039735099" y="213.62" height="3" width="238.41059602649005" fill="#F4EDF2" opacity="0.25" />
<path d="M 760 212 C 764.5 212, 764.5 221, 760 221" fill="#009CA2" opacity="0.9" />
<path d="M 10 223 C 5.5 223, 5.5 232, 10 232" fill="#009CA2" opacity="0.9" />
<rect x="10" y="223" height="9" width="248.34437086092714" fill="#009CA2" stroke="#009CA2" stroke-width="0" opacity="0.9" />
<rect x="10" y="224.62" height="3" width="248.34437086092714" fill="#F4EDF2" opacity="0.25" />
<rect x="258.34437086092714" y="223" height="9" width="238.41059602649005" fill="#D1D1D1" stroke="#D1D1D1" stroke-width="0" opacity="0.9" />
<rect x="258.34437086092714" y="224.62" height="3" width="238.41059602649005" fill="#F4EDF2" opacity="0.25" />
<line x1="496.7549668874172" y1="227.5" x2="511.6556291390728" y2="227.5" stroke="#BABABA" stroke-width="1.5" />
<rect x="511.6556291390728" y="223" height="9" width="4.966887417218543" fill="#009CA2" stroke="#009CA2" stroke-width="0" opacity="0.9" />
<rect x="511.6556291390728" y="224.62" height="3" width="4.966887417218543" fill="#F4EDF2" opacity="0.25" />
<rect x="516.6225165562913" y="223" height="9" width="4.966887417218543" fill="#BABABA" stroke="#BABABA" stroke-width="0" opacity="0.9" />
<rect x="516.6225165562913" y="224.62" height="3" width="4.966887417218543" fill="#F4EDF2" opacity="0.25" />
<rect x="521.5894039735099" y="223" height="9" width="238.41059602649005" fill="#009CA2" stroke="#009CA2" stroke-width="0" opacity="0.9" />
<rect x="521.5894039735099" y="224.62" height="3" width="238.41059602649005" fill="#F4EDF2" opacity="0.25" />
<path d="M 760 223 C 764.5 223, 764.5 232, 760 232" fill="#009CA2" opacity="0.9" />
<path d="M 10 234 C 5.5 234, 5.5 243, 10 243" fill="#009CA2" opacity="0.9" />
<rect x="10" y="234" height="9" width="248.34437086092714" fill="#009CA2" stroke="#009CA2" stroke-width="0" opacity="0.9" />
<rect x="10" y="235.62" height="3" width="248.34437086092714" fill="#F4EDF2" opacity="0.25" />
<rect x="258.34437086092714" y="234" height="9" width="238.41059602649005" fill="#D1D1D1" stroke="#D1D1D1" stroke-width="0" opacity="0.9" />
<rect x="258.34437086092714" y="235.62" height="3" width="238.41059602649005" fill="#F4EDF2" opacity="0.25" />
<line x1="496.7549668874172" y1="238.5" x2="511.6556291390728" y2="238.5" stroke="#BABABA" stroke-width="1.5" />
<rect x="511.6556291390728" y="234" height="9" width="4.966887417218543" fill="#009CA2" stroke="#009CA2" stroke-width="0" opacity="0.9" />
<rect x="511.6556291390728" y="235.62" height="3" width="4.966887417218543" fill="#F4EDF2" opacity="0.25" />
<rect x="516.6225165562913" y="234" height="9" width="4.966887417218543" fill="#BABABA" stroke="#BABABA" stroke-width="0" opacity="0.9" />
<rect x="516.6225165562913" y="235.62" height="3" width="4.966887417218543" fill="#F4EDF2" opacity="0.25" />
<rect x="521.5894039735099" y="234" height="9" width="238.41059602649005" fill="#009CA2" stroke="#009CA2" stroke-width="0" opacity="0.9" />
<rect x="521.5894039735099" y="235.62" height="3" width="238.41059602649005" fill="#F4EDF2" opacity="0.25" />
<path d="M 760 234 C 764.5 234, 764.5 243, 760 243" fill="#009CA2" opacity="0.9" />
<path d="M 10 245 C 5.5 245, 5.5 254, 10 254" fill="#009CA2" opacity="0.9" />
<rect x="10" y="245" height="9" width="248.34437086092714" fill="#009CA2" stroke="#009CA2" stroke-width="0" opacity="0.9" />
<rect x="10" y="246.62" height="3" width="248.34437086092714" fill="#F4EDF2" opacity="0.25" />
<rect x="258.34437086092714" y="245" height="9" width="238.41059602649005" fill="#D1D1D1" stroke="#D1D1D1" stroke-width="0" opacity="0.9" />
<rect x="258.34437086092714" y="246.62" height="3" width="238.41059602649005" fill="#F4EDF2" opacity="0.25" />
<line x1="496.7549668874172" y1="249.5" x2="511.6556291390728" y2="249.5" stroke="#BABABA" stroke-width="1.5" />
<rect x="511.6556291390728" y="245" height="9" width="4.966887417218543" fill="#009CA2" stroke="#009CA2" stroke-width="0" opacity="0.9" />
<rect x="511.6556291390728" y="246.62" height="3" width="4.966887417218543" fill="#F4EDF2" opacity="0.25" />
<rect x="516.6225165562913" y="245" height="9" width="4.966887417218543" fill="#BABABA" stroke="#BABABA" stroke-width="0" opacity="0.9" />
<rect x="516.6225165562913" y="246.62" height="3" width="4.966887417218543" fill="#F4EDF2" opacity="0.25" />
<rect x="521.5894039735099" y="245" height="9" width="238.41059602649005" fill="#009CA2" stroke="#009CA2" stroke-width="0" opacity="0.9" />
<rect x="521.5894039735099" y="246.62" height="3" width="238.41059602649005" fill="#F4EDF2" opacity="0.25" />
<path d="M 760 245 C 764.5 245, 764.5 254, 760 254" fill="#009CA2" opacity="0.9" />
<path d="M 10 256 C 5.5 256, 5.5 265, 10 265" fill="#009CA2" opacity="0.9" />
<rect x="10" y="256" height="9" width="248.34437086092714" fill="#009CA2" stroke="#009CA2" stroke-width="0" opacity="0.9" />
<rect x="10" y="257.62" height="3" width="248.34437086092714" fill="#F4EDF2" opacity="0.25" />
<rect x="258.34437086092714" y="256" height="9" width="248.34437086092714" fill="#D1D1D1" stroke="#D1D1D1" stroke-width="0" opacity="0.9" />
<rect x="258.34437086092714" y="257.62" height="3" width="248.34437086092714" fill="#F4EDF2" opacity="0.25" />
<line x1="506.6887417218543" y1="260.5" x2="511.6556291390728" y2="260.5" stroke="#BABABA" stroke-width="1.5" />
<rect x="511.6556291390728" y="256" height="9" width="4.966887417218543" fill="#009CA2" stroke="#009CA2" stroke-width="0" opacity="0.9" />
<rect x="511.6556291390728" y="257.62" height="3" width="4.966887417218543" fill="#F4EDF2" opacity="0.25" />
<rect x="516.6225165562913" y="256" height="9" width="4.966887417218543" fill="#BABABA" stroke="#BABABA" stroke-width="0" opacity="0.9" />
<rect x="516.6225165562913" y="257.62" height="3" width="4.966887417218543" fill="#F4EDF2" opacity="0.25" />
<rect x="521.5894039735099" y="256" height="9" width="238.41059602649005" fill="#009CA2" stroke="#009CA2" stroke-width="0" opacity="0.9" />
<rect x="521.5894039735099" y="257.62" height="3" width="238.41059602649005" fill="#F4EDF2" opacity="0.25" />
<path d="M 760 256 C 764.5 256, 764.5 265, 760 265" fill="#009CA2" opacity="0.9" />
<path d="M 10 267 C 5.5 267, 5.5 276, 10 276" fill="#009CA2" opacity="0.9" />
<rect x="10" y="267" height="9" width="248.34437086092714" fill="#009CA2" stroke="#009CA2" stroke-width="0" opacity="0.9" />
<rect x="10" y="268.62" height="3" width="248.34437086092714" fill="#F4EDF2" opacity="0.25" />
<rect x="258.34437086092714" y="267" height="9" width="253.3112582781457" fill="#D1D1D1" stroke="#D1D1D1" stroke-width="0" opacity="0.9" />
<rect x="258.34437086092714" y="268.62" height="3" width="253.3112582781457" fill="#F4EDF2" opacity="0.25" />
<rect x="511.65562913907286" y="267" height="9" width="4.966887417218543" fill="#009CA2" stroke="#009CA2" stroke-width="0" opacity="0.9" />
<rect x="511.65562913907286" y="268.62" height="3" width="4.966887417218543" fill="#F4EDF2" opacity="0.25" />
<rect x="516.6225165562914" y="267" height="9" width="4.966887417218543" fill="#BABABA" stroke="#BABABA" stroke-width="0" opacity="0.9" />
<rect x="516.6225165562914" y="268.62" height="3" width="4.966887417218543" fill="#F4EDF2" opacity="0.25" />
<rect x="521.58940397351" y="267" height="9" width="238.41059602649005" fill="#009CA2" stroke="#009CA2" stroke-width="0" opacity="0.9" />
<rect x="521.58940397351" y="268.62" height="3" width="238.41059602649005" fill="#F4EDF2" opacity="0.25" />
<path d="M 760 267 C 764.5 267, 764.5 276, 760 276" fill="#009CA2" opacity="0.9" />
<rect x="10" y="282" height="12" width="12" fill="#1383C6" stroke="#1383C6" stroke-width="0" opacity="0.9" />
<text x="24" y="293" font-family="monospace" font-weight="bold" font-size="14px" >TG</text>
</svg>
