<?xml version="1.0"?>
<svg xmlns="http://www.w3.org/2000/svg" xmlns:xlink="http://www.w3.org/1999/xlink" width="770" height="276">
<rect width="100%" height="100%" fill="white"/>
<path d="M 10 14 C 5.5 14, 5.5 23, 10 23" fill="#009CA2" opacity="0.9" />
<rect x="10" y="14" height="9" width="234.375" fill="#009CA2" stroke="#009CA2" stroke-width="0" opacity="0.9" />
<rect x="10" y="15.62" height="3" width="234.375" fill="#F4EDF2" opacity="0.25" />
<rect x="244.375" y="14" height="9" width="168.75" fill="#1383C6" stroke="#1383C6" stroke-width="0" opacity="0.9" />
<rect x="244.375" y="15.62" height="3" width="168.75" fill="#F4EDF2" opacity="0.25" />
<rect x="413.125" y="14" height="9" width="234.375" fill="#009CA2" stroke="#009CA2" stroke-width="0" opacity="0.9" />
<rect x="413.125" y="15.62" height="3" width="234.375" fill="#F4EDF2" opacity="0.25" />
<path d="M 647.5 14 C 652 14, 652 23, 647.5 23" fill="#009CA2" opacity="0.9" />
<line x1="244.375" y1="14" x2="244.375" y2="23" stroke="#000000" stroke-width="1.5" />
<line x1="413.125" y1="14" x2="413.125" y2="23" stroke="#000000" stroke-width="1.5" />
<line x1="10" y1="14" x2="647.5" y2="14" stroke="#000000" stroke-width="1.5" />
<line x1="10" y1="23" x2="647.5" y2="23" stroke="#000000" stroke-width="1.5" />
<path d="M 10 14 C 5.5 14, 5.5 23, 10 23" stroke="#000000" stroke-width="1.5" fill="none" opacity="0.9" />
<path d="M 647.5 14 C 652 14, 652 23, 647.5 23" stroke="#000000" stroke-width="1.5" fill="none" opacity="0.9" />
<line x1="244.375" y1="11.75" x2="244.375" y2="16.25" stroke="#000000" stroke-width="1.5" />
<text x="244.375" y="9.75" font-family="monospace" font-weight="bold" text-anchor="middle" font-size="10px" >0</text>
<line x1="272.5" y1="11.75" x2="272.5" y2="16.25" stroke="#000000" stroke-width="1.5" />
<line x1="300.625" y1="11.75" x2="300.625" y2="16.25" stroke="#000000" stroke-width="1.5" />
<line x1="328.75" y1="11.75" x2="328.75" y2="16.25" stroke="#000000" stroke-width="1.5" />
<line x1="356.875" y1="11.75" x2="356.875" y2="16.25" stroke="#000000" stroke-width="1.5" />
<line x1="385" y1="11.75" x2="385" y2="16.25" stroke="#000000" stroke-width="1.5" />
<text x="385" y="9.75" font-family="monospace" font-weight="bold" text-anchor="middle" font-size="10px" >5</text>
<path d="M 10 26 C 5.5 26, 5.5 35, 10 35" fill="#009CA2" opacity="0.9" />
<rect x="10" y="26" height="9" width="4.6875" fill="#BABABA" stroke="#BABABA" stroke-width="0" opacity="0.9" />
<rect x="10" y="27.62" height="3" width="4.6875" fill="#F4EDF2" opacity="0.25" />
<rect x="14.6875" y="26" height="9" width="4.6875" fill="#009CA2" stroke="#009CA2" stroke-width="0" opacity="0.9" />
<rect x="14.6875" y="27.62" height="3" width="4.6875" fill="#F4EDF2" opacity="0.25" />
<rect x="19.375" y="26" height="9" width="23.4375" fill="#BABABA" stroke="#BABABA" stroke-width="0" opacity="0.9" />
<rect x="19.375" y="27.62" height="3" width="23.4375" fill="#F4EDF2" opacity="0.25" />
<rect x="42.8125" y="26" height="9" width="201.5625" fill="#009CA2" stroke="#009CA2" stroke-width="0" opacity="0.9" />
<rect x="42.8125" y="27.62" height="3" width="201.5625" fill="#F4EDF2" opacity="0.25" />
<rect x="244.375" y="26" height="9" width="168.75" fill="#1383C6" stroke="#1383C6" stroke-width="0" opacity="0.9" />
<rect x="244.375" y="27.62" height="3" width="168.75" fill="#F4EDF2" opacity="0.25" />
<rect x="413.125" y="26" height="9" width="234.375" fill="#009CA2" stroke="#009CA2" stroke-width="0" opacity="0.9" />
<rect x="413.125" y="27.62" height="3" width="234.375" fill="#F4EDF2" opacity="0.25" />
<path d="M 647.5 26 C 652 26, 652 35, 647.5 35" fill="#009CA2" opacity="0.9" />
<path d="M 10 37 C 5.5 37, 5.5 46, 10 46" fill="#009CA2" opacity="0.9" />
<line x1="10" y1="41.5" x2="19.375" y2="41.5" stroke="#009CA2" stroke-width="1.5" />
<rect x="19.375" y="37" height="9" width="79.6875" fill="#009CA2" stroke="#009CA2" stroke-width="0" opacity="0.9" />
<rect x="19.375" y="38.62" height="3" width="79.6875" fill="#F4EDF2" opacity="0.25" />
<rect x="99.0625" y="37" height="9" width="145.3125" fill="#009CA2" stroke="#009CA2" stroke-width="0" opacity="0.9" />
<rect x="99.0625" y="38.62" height="3" width="145.3125" fill="#F4EDF2" opacity="0.25" />
<rect x="244.375" y="37" height="9" width="56.25" fill="#1383C6" stroke="#1383C6" stroke-width="0" opacity="0.9" />
<rect x="244.375" y="38.62" height="3" width="56.25" fill="#F4EDF2" opacity="0.25" />
<rect x="300.625" y="37" height="9" width="56.25" fill="#1383C6" stroke="#1383C6" stroke-width="0" opacity="0.9" />
<rect x="300.625" y="38.62" height="3" width="56.25" fill="#F4EDF2" opacity="0.25" />
<rect x="356.875" y="37" height="9" width="56.25" fill="#1383C6" stroke="#1383C6" stroke-width="0" opacity="0.9" />
<rect x="356.875" y="38.62" height="3" width="56.25" fill="#F4EDF2" opacity="0.25" />
<rect x="413.125" y="37" height="9" width="234.375" fill="#009CA2" stroke="#009CA2" stroke-width="0" opacity="0.9" />
<rect x="413.125" y="38.62" height="3" width="234.375" fill="#F4EDF2" opacity="0.25" />
<path d="M 647.5 37 C 652 37, 652 46, 647.5 46" fill="#009CA2" opacity="0.9" />
<line x1="99.0625" y1="37" x2="99.0625" y2="46" stroke="#000000" stroke-width="2" />
<line x1="300.625" y1="37" x2="300.625" y2="46" stroke="#000000" stroke-width="2" />
<line x1="356.875" y1="37" x2="356.875" y2="46" stroke="#000000" stroke-width="2" />
<path d="M 10 48 C 5.5 48, 5.5 57, 10 57" fill="#009CA2" opacity="0.9" />
<rect x="10" y="48" height="9" width="234.375" fill="#009CA2" stroke="#009CA2" stroke-width="0" opacity="0.9" />
<rect x="10" y="49.62" height="3" width="234.375" fill="#F4EDF2" opacity="0.25" />
<rect x="244.375" y="48" height="9" width="168.75" fill="#1383C6" stroke="#1383C6" stroke-width="0" opacity="0.9" />
<rect x="244.375" y="49.62" height="3" width="168.75" fill="#F4EDF2" opacity="0.25" />
<rect x="413.125" y="48" height="9" width="234.375" fill="#009CA2" stroke="#009CA2" stroke-width="0" opacity="0.9" />
<rect x="413.125" y="49.62" height="3" width="234.375" fill="#F4EDF2" opacity="0.25" />
<path d="M 647.5 48 C 652 48, 652 57, 647.5 57" fill="#009CA2" opacity="0.9" />
<path d="M 10 59 C 5.5 59, 5.5 68, 10 68" fill="#009CA2" opacity="0.9" />
<rect x="10" y="59" height="9" width="234.375" fill="#009CA2" stroke="#009CA2" stroke-width="0" opacity="0.9" />
<rect x="10" y="60.62" height="3" width="234.375" fill="#F4EDF2" opacity="0.25" />
<rect x="244.375" y="59" height="9" width="93.75" fill="#1383C6" stroke="#1383C6" stroke-width="0" opacity="0.9" />
<rect x="244.375" y="60.62" height="3" width="93.75" fill="#F4EDF2" opacity="0.25" />
<line x1="338.125" y1="63.5" x2="342.8125" y2="63.5" stroke="#1383C6" stroke-width="1.5" />
<rect x="342.8125" y="59" height="9" width="70.3125" fill="#1383C6" stroke="#1383C6" stroke-width="0" opacity="0.9" />
<rect x="342.8125" y="60.62" height="3" width="70.3125" fill="#F4EDF2" opacity="0.25" />
<rect x="413.125" y="59" height="9" width="234.375" fill="#009CA2" stroke="#009CA2" stroke-width="0" opacity="0.9" />
<rect x="413.125" y="60.62" height="3" width="234.375" fill="#F4EDF2" opacity="0.25" />
<path d="M 647.5 59 C 652 59, 652 68, 647.5 68" fill="#009CA2" opacity="0.9" />
<path d="M 10 70 C 5.5 70, 5.5 79, 10 79" fill="#009CA2" opacity="0.9" />
<rect x="10" y="70" height="9" width="234.375" fill="#009CA2" stroke="#009CA2" stroke-width="0" opacity="0.9" />
<rect x="10" y="71.62" height="3" width="234.375" fill="#F4EDF2" opacity="0.25" />
<rect x="244.375" y="70" height="9" width="168.75" fill="#1383C6" stroke="#1383C6" stroke-width="0" opacity="0.9" />
<rect x="244.375" y="71.62" height="3" width="168.75" fill="#F4EDF2" opacity="0.25" />
<rect x="413.125" y="70" height="9" width="234.375" fill="#009CA2" stroke="#009CA2" stroke-width="0" opacity="0.9" />
<rect x="413.125" y="71.62" height="3" width="234.375" fill="#F4EDF2" opacity="0.25" />
<path d="M 647.5 70 C 652 70, 652 79, 647.5 79" fill="#009CA2" opacity="0.9" />
<path d="M 10 81 C 5.5 81, 5.5 90, 10 90" fill="#009CA2" opacity="0.9" />
<rect x="10" y="81" height="9" width="234.375" fill="#009CA2" stroke="#009CA2" stroke-width="0" opacity="0.9" />
<rect x="10" y="82.62" height="3" width="234.375" fill="#F4EDF2" opacity="0.25" />
<rect x="244.375" y="81" height="9" width="168.75" fill="#1383C6" stroke="#1383C6" stroke-width="0" opacity="0.9" />
<rect x="244.375" y="82.62" height="3" width="168.75" fill="#F4EDF2" opacity="0.25" />
<rect x="413.125" y="81" height="9" width="234.375" fill="#009CA2" stroke="#009CA2" stroke-width="0" opacity="0.9" />
<rect x="413.125" y="82.62" height="3" width="234.375" fill="#F4EDF2" opacity="0.25" />
<path d="M 647.5 81 C 652 81, 652 90, 647.5 90" fill="#009CA2" opacity="0.9" />
<path d="M 10 92 C 5.5 92, 5.5 101, 10 101" fill="#009CA2" opacity="0.9" />
<rect x="10" y="92" height="9" width="234.375" fill="#009CA2" stroke="#009CA2" stroke-width="0" opacity="0.9" />
<rect x="10" y="93.62" height="3" width="234.375" fill="#F4EDF2" opacity="0.25" />
<rect x="244.375" y="92" height="9" width="168.75" fill="#1383C6" stroke="#1383C6" stroke-width="0" opacity="0.9" />
<rect x="244.375" y="93.62" height="3" width="168.75" fill="#F4EDF2" opacity="0.25" />
<rect x="413.125" y="92" height="9" width="234.375" fill="#009CA2" stroke="#009CA2" stroke-width="0" opacity="0.9" />
<rect x="413.125" y="93.62" height="3" width="234.375" fill="#F4EDF2" opacity="0.25" />
<path d="M 647.5 92 C 652 92, 652 101, 647.5 101" fill="#009CA2" opacity="0.9" />
<path d="M 10 103 C 5.5 103, 5.5 112, 10 112" fill="#009CA2" opacity="0.9" />
<rect x="10" y="103" height="9" width="234.375" fill="#009CA2" stroke="#009CA2" stroke-width="0" opacity="0.9" />
<rect x="10" y="104.62" height="3" width="234.375" fill="#F4EDF2" opacity="0.25" />
<rect x="244.375" y="103" height="9" width="168.75" fill="#1383C6" stroke="#1383C6" stroke-width="0" opacity="0.9" />
<rect x="244.375" y="104.62" height="3" width="168.75" fill="#F4EDF2" opacity="0.25" />
<rect x="413.125" y="103" height="9" width="234.375" fill="#009CA2" stroke="#009CA2" stroke-width="0" opacity="0.9" />
<rect x="413.125" y="104.62" height="3" width="234.375" fill="#F4EDF2" opacity="0.25" />
<path d="M 647.5 103 C 652 103, 652 112, 647.5 112" fill="#009CA2" opacity="0.9" />
<path d="M 10 134 C 5.5 134, 5.5 143, 10 143" fill="#009CA2" opacity="0.9" />
<rect x="10" y="134" height="9" width="234.375" fill="#009CA2" stroke="#009CA2" stroke-width="0" opacity="0.9" />
<rect x="10" y="135.62" height="3" width="234.375" fill="#F4EDF2" opacity="0.25" />
<rect x="244.375" y="134" height="9" width="281.25" fill="#1383C6" stroke="#1383C6" stroke-width="0" opacity="0.9" />
<rect x="244.375" y="135.62" height="3" width="281.25" fill="#F4EDF2" opacity="0.25" />
<rect x="525.625" y="134" height="9" width="234.375" fill="#009CA2" stroke="#009CA2" stroke-width="0" opacity="0.9" />
<rect x="525.625" y="135.62" height="3" width="234.375" fill="#F4EDF2" opacity="0.25" />
<path d="M 760 134 C 764.5 134, 764.5 143, 760 143" fill="#009CA2" opacity="0.9" />
<line x1="244.375" y1="134" x2="244.375" y2="143" stroke="#000000" stroke-width="1.5" />
<line x1="525.625" y1="134" x2="525.625" y2="143" stroke="#000000" stroke-width="1.5" />
<line x1="10" y1="134" x2="760" y2="134" stroke="#000000" stroke-width="1.5" />
<line x1="10" y1="143" x2="760" y2="143" stroke="#000000" stroke-width="1.5" />
<path d="M 10 134 C 5.5 134, 5.5 143, 10 143" stroke="#000000" stroke-width="1.5" fill="none" opacity="0.9" />
<path d="M 760 134 C 764.5 134, 764.5 143, 760 143" stroke="#000000" stroke-width="1.5" fill="none" opacity="0.9" />
<line x1="244.375" y1="131.75" x2="244.375" y2="136.25" stroke="#000000" stroke-width="1.5" />
<text x="244.375" y="129.75" font-family="monospace" font-weight="bold" text-anchor="middle" font-size="10px" >0</text>
<line x1="272.5" y1="131.75" x2="272.5" y2="136.25" stroke="#000000" stroke-width="1.5" />
<line x1="300.625" y1="131.75" x2="300.625" y2="136.25" stroke="#000000" stroke-width="1.5" />
<line x1="328.75" y1="131.75" x2="328.75" y2="136.25" stroke="#000000" stroke-width="1.5" />
<line x1="356.875" y1="131.75" x2="356.875" y2="136.25" stroke="#000000" stroke-width="1.5" />
<line x1="385" y1="131.75" x2="385" y2="136.25" stroke="#000000" stroke-width="1.5" />
<text x="385" y="129.75" font-family="monospace" font-weight="bold" text-anchor="middle" font-size="10px" >5</text>
<line x1="413.125" y1="131.75" x2="413.125" y2="136.25" stroke="#000000" stroke-width="1.5" />
<line x1="441.25" y1="131.75" x2="441.25" y2="136.25" stroke="#000000" stroke-width="1.5" />
<line x1="469.375" y1="131.75" x2="469.375" y2="136.25" stroke="#000000" stroke-width="1.5" />
<line x1="497.5" y1="131.75" x2="497.5" y2="136.25" stroke="#000000" stroke-width="1.5" />
<path d="M 10 146 C 5.5 146, 5.5 155, 10 155" fill="#009CA2" opacity="0.9" />
<rect x="10" y="146" height="9" width="234.375" fill="#009CA2" stroke="#009CA2" stroke-width="0" opacity="0.9" />
<rect x="10" y="147.62" height="3" width="234.375" fill="#F4EDF2" opacity="0.25" />
<rect x="244.375" y="146" height="9" width="281.25" fill="#1383C6" stroke="#1383C6" stroke-width="0" opacity="0.9" />
<rect x="244.375" y="147.62" height="3" width="281.25" fill="#F4EDF2" opacity="0.25" />
<rect x="525.625" y="146" height="9" width="234.375" fill="#009CA2" stroke="#009CA2" stroke-width="0" opacity="0.9" />
<rect x="525.625" y="147.62" height="3" width="234.375" fill="#F4EDF2" opacity="0.25" />
<path d="M 760 146 C 764.5 146, 764.5 155, 760 155" fill="#009CA2" opacity="0.9" />
<path d="M 10 157 C 5.5 157, 5.5 166, 10 166" fill="#009CA2" opacity="0.9" />
<rect x="10" y="157" height="9" width="234.375" fill="#009CA2" stroke="#009CA2" stroke-width="0" opacity="0.9" />
<rect x="10" y="158.62" height="3" width="234.375" fill="#F4EDF2" opacity="0.25" />
<rect x="244.375" y="157" height="9" width="281.25" fill="#1383C6" stroke="#1383C6" stroke-width="0" opacity="0.9" />
<rect x="244.375" y="158.62" height="3" width="281.25" fill="#F4EDF2" opacity="0.25" />
<rect x="525.625" y="157" height="9" width="234.375" fill="#009CA2" stroke="#009CA2" stroke-width="0" opacity="0.9" />
<rect x="525.625" y="158.62" height="3" width="234.375" fill="#F4EDF2" opacity="0.25" />
<path d="M 760 157 C 764.5 157, 764.5 166, 760 166" fill="#009CA2" opacity="0.9" />
<path d="M 10 168 C 5.5 168, 5.5 177, 10 177" fill="#009CA2" opacity="0.9" />
<rect x="10" y="168" height="9" width="234.375" fill="#009CA2" stroke="#009CA2" stroke-width="0" opacity="0.9" />
<rect x="10" y="169.62" height="3" width="234.375" fill="#F4EDF2" opacity="0.25" />
<rect x="244.375" y="168" height="9" width="9.375" fill="#1383C6" stroke="#1383C6" stroke-width="0" opacity="0.9" />
<rect x="244.375" y="169.62" height="3" width="9.375" fill="#F4EDF2" opacity="0.25" />
<line x1="253.75" y1="172.5" x2="258.4375" y2="172.5" stroke="#1383C6" stroke-width="1.5" />
<rect x="258.4375" y="168" height="9" width="98.4375" fill="#1383C6" stroke="#1383C6" stroke-width="0" opacity="0.9" />
<rect x="258.4375" y="169.62" height="3" width="98.4375" fill="#F4EDF2" opacity="0.25" />
<line x1="356.875" y1="172.5" x2="361.5625" y2="172.5" stroke="#1383C6" stroke-width="1.5" />
<rect x="361.5625" y="168" height="9" width="164.0625" fill="#1383C6" stroke="#1383C6" stroke-width="0" opacity="0.9" />
<rect x="361.5625" y="169.62" height="3" width="164.0625" fill="#F4EDF2" opacity="0.25" />
<rect x="525.625" y="168" height="9" width="56.25" fill="#009CA2" stroke="#009CA2" stroke-width="0" opacity="0.9" />
<rect x="525.625" y="169.62" height="3" width="56.25" fill="#F4EDF2" opacity="0.25" />
<line x1="581.875" y1="172.5" x2="586.5625" y2="172.5" stroke="#009CA2" stroke-width="1.5" />
<rect x="586.5625" y="168" height="9" width="168.75" fill="#009CA2" stroke="#009CA2" stroke-width="0" opacity="0.9" />
<rect x="586.5625" y="169.62" height="3" width="168.75" fill="#F4EDF2" opacity="0.25" />
<rect x="755.3125" y="168" height="9" width="4.6875" fill="#009CA2" stroke="#009CA2" stroke-width="0" opacity="0.9" />
<rect x="755.3125" y="169.62" height="3" width="4.6875" fill="#F4EDF2" opacity="0.25" />
<path d="M 760 168 C 764.5 168, 764.5 177, 760 177" fill="#009CA2" opacity="0.9" />
<line x1="755.3125" y1="168" x2="755.3125" y2="177" stroke="#000000" stroke-width="2" />
<path d="M 10 179 C 5.5 179, 5.5 188, 10 188" fill="#009CA2" opacity="0.9" />
<rect x="10" y="179" height="9" width="234.375" fill="#009CA2" stroke="#009CA2" stroke-width="0" opacity="0.9" />
<rect x="10" y="180.62" height="3" width="234.375" fill="#F4EDF2" opacity="0.25" />
<rect x="244.375" y="179" height="9" width="37.5" fill="#1383C6" stroke="#1383C6" stroke-width="0" opacity="0.9" />
<rect x="244.375" y="180.62" height="3" width="37.5" fill="#F4EDF2" opacity="0.25" />
<rect x="281.875" y="179" height="9" width="225" fill="#1383C6" stroke="#1383C6" stroke-width="0" opacity="0.9" />
<rect x="281.875" y="180.62" height="3" width="225" fill="#F4EDF2" opacity="0.25" />
<rect x="506.875" y="179" height="9" width="18.75" fill="#1383C6" stroke="#1383C6" stroke-width="0" opacity="0.9" />
<rect x="506.875" y="180.62" height="3" width="18.75" fill="#F4EDF2" opacity="0.25" />
<rect x="525.625" y="179" height="9" width="234.375" fill="#009CA2" stroke="#009CA2" stroke-width="0" opacity="0.9" />
<rect x="525.625" y="180.62" height="3" width="234.375" fill="#F4EDF2" opacity="0.25" />
<path d="M 760 179 C 764.5 179, 764.5 188, 760 188" fill="#009CA2" opacity="0.9" />
<line x1="281.875" y1="179" x2="281.875" y2="188" stroke="#000000" stroke-width="2" />
<line x1="506.875" y1="179" x2="506.875" y2="188" stroke="#000000" stroke-width="2" />
<path d="M 10 190 C 5.5 190, 5.5 199, 10 199" fill="#009CA2" opacity="0.9" />
<rect x="10" y="190" height="9" width="234.375" fill="#009CA2" stroke="#009CA2" stroke-width="0" opacity="0.9" />
<rect x="10" y="191.62" height="3" width="234.375" fill="#F4EDF2" opacity="0.25" />
<rect x="244.375" y="190" height="9" width="281.25" fill="#1383C6" stroke="#1383C6" stroke-width="0" opacity="0.9" />
<rect x="244.375" y="191.62" height="3" width="281.25" fill="#F4EDF2" opacity="0.25" />
<rect x="525.625" y="190" height="9" width="234.375" fill="#009CA2" stroke="#009CA2" stroke-width="0" opacity="0.9" />
<rect x="525.625" y="191.62" height="3" width="234.375" fill="#F4EDF2" opacity="0.25" />
<path d="M 760 190 C 764.5 190, 764.5 199, 760 199" fill="#009CA2" opacity="0.9" />
<path d="M 10 201 C 5.5 201, 5.5 210, 10 210" fill="#009CA2" opacity="0.9" />
<rect x="10" y="201" height="9" width="234.375" fill="#009CA2" stroke="#009CA2" stroke-width="0" opacity="0.9" />
<rect x="10" y="202.62" height="3" width="234.375" fill="#F4EDF2" opacity="0.25" />
<rect x="244.375" y="201" height="9" width="121.875" fill="#1383C6" stroke="#1383C6" stroke-width="0" opacity="0.9" />
<rect x="244.375" y="202.62" height="3" width="121.875" fill="#F4EDF2" opacity="0.25" />
<rect x="366.25" y="201" height="9" width="159.375" fill="#1383C6" stroke="#1383C6" stroke-width="0" opacity="0.9" />
<rect x="366.25" y="202.62" height="3" width="159.375" fill="#F4EDF2" opacity="0.25" />
<rect x="525.625" y="201" height="9" width="234.375" fill="#009CA2" stroke="#009CA2" stroke-width="0" opacity="0.9" />
<rect x="525.625" y="202.62" height="3" width="234.375" fill="#F4EDF2" opacity="0.25" />
<path d="M 760 201 C 764.5 201, 764.5 210, 760 210" fill="#009CA2" opacity="0.9" />
<line x1="366.25" y1="201" x2="366.25" y2="210" stroke="#000000" stroke-width="2" />
<path d="M 10 212 C 5.5 212, 5.5 221, 10 221" fill="#009CA2" opacity="0.9" />
<rect x="10" y="212" height="9" width="234.375" fill="#009CA2" stroke="#009CA2" stroke-width="0" opacity="0.9" />
<rect x="10" y="213.62" height="3" width="234.375" fill="#F4EDF2" opacity="0.25" />
<rect x="244.375" y="212" height="9" width="121.875" fill="#1383C6" stroke="#1383C6" stroke-width="0" opacity="0.9" />
<rect x="244.375" y="213.62" height="3" width="121.875" fill="#F4EDF2" opacity="0.25" />
<line x1="366.25" y1="216.5" x2="370.9375" y2="216.5" stroke="#1383C6" stroke-width="1.5" />
<rect x="370.9375" y="212" height="9" width="154.6875" fill="#1383C6" stroke="#1383C6" stroke-width="0" opacity="0.9" />
<rect x="370.9375" y="213.62" height="3" width="154.6875" fill="#F4EDF2" opacity="0.25" />
<rect x="525.625" y="212" height="9" width="234.375" fill="#009CA2" stroke="#009CA2" stroke-width="0" opacity="0.9" />
<rect x="525.625" y="213.62" height="3" width="234.375" fill="#F4EDF2" opacity="0.25" />
<path d="M 760 212 C 764.5 212, 764.5 221, 760 221" fill="#009CA2" opacity="0.9" />
<path d="M 10 223 C 5.5 223, 5.5 232, 10 232" fill="#009CA2" opacity="0.9" />
<rect x="10" y="223" height="9" width="107.8125" fill="#009CA2" stroke="#009CA2" stroke-width="0" opacity="0.9" />
<rect x="10" y="224.62" height="3" width="107.8125" fill="#F4EDF2" opacity="0.25" />
<line x1="117.8125" y1="227.5" x2="122.5" y2="227.5" stroke="#009CA2" stroke-width="1.5" />
<rect x="122.5" y="223" height="9" width="121.875" fill="#009CA2" stroke="#009CA2" stroke-width="0" opacity="0.9" />
<rect x="122.5" y="224.62" height="3" width="121.875" fill="#F4EDF2" opacity="0.25" />
<rect x="244.375" y="223" height="9" width="281.25" fill="#1383C6" stroke="#1383C6" stroke-width="0" opacity="0.9" />
<rect x="244.375" y="224.62" height="3" width="281.25" fill="#F4EDF2" opacity="0.25" />
<rect x="525.625" y="223" height="9" width="234.375" fill="#009CA2" stroke="#009CA2" stroke-width="0" opacity="0.9" />
<rect x="525.625" y="224.62" height="3" width="234.375" fill="#F4EDF2" opacity="0.25" />
<path d="M 760 223 C 764.5 223, 764.5 232, 760 232" fill="#009CA2" opacity="0.9" />
<line x1="10" y1="223" x2="10" y2="232" stroke="#000000" stroke-width="2" />
<path d="M 10 234 C 5.5 234, 5.5 243, 10 243" fill="#009CA2" opacity="0.9" />
<rect x="10" y="234" height="9" width="234.375" fill="#009CA2" stroke="#009CA2" stroke-width="0" opacity="0.9" />
<rect x="10" y="235.62" height="3" width="234.375" fill="#F4EDF2" opacity="0.25" />
<rect x="244.375" y="234" height="9" width="281.25" fill="#1383C6" stroke="#1383C6" stroke-width="0" opacity="0.9" />
<rect x="244.375" y="235.62" height="3" width="281.25" fill="#F4EDF2" opacity="0.25" />
<rect x="525.625" y="234" height="9" width="234.375" fill="#009CA2" stroke="#009CA2" stroke-width="0" opacity="0.9" />
<rect x="525.625" y="235.62" height="3" width="234.375" fill="#F4EDF2" opacity="0.25" />
<path d="M 760 234 C 764.5 234, 764.5 243, 760 243" fill="#009CA2" opacity="0.9" />
<path d="M 10 245 C 5.5 245, 5.5 254, 10 254" fill="#009CA2" opacity="0.9" />
<rect x="10" y="245" height="9" width="4.6875" fill="#009CA2" stroke="#009CA2" stroke-width="0" opacity="0.9" />
<rect x="10" y="246.62" height="3" width="4.6875" fill="#F4EDF2" opacity="0.25" />
<rect x="14.6875" y="245" height="9" width="4.6875" fill="#BABABA" stroke="#BABABA" stroke-width="0" opacity="0.9" />
<rect x="14.6875" y="246.62" height="3" width="4.6875" fill="#F4EDF2" opacity="0.25" />
<rect x="19.375" y="245" height="9" width="4.6875" fill="#009CA2" stroke="#009CA2" stroke-width="0" opacity="0.9" />
<rect x="19.375" y="246.62" height="3" width="4.6875" fill="#F4EDF2" opacity="0.25" />
<line x1="24.0625" y1="249.5" x2="42.8125" y2="249.5" stroke="#009CA2" stroke-width="1.5" />
<rect x="42.8125" y="245" height="9" width="14.0625" fill="#009CA2" stroke="#009CA2" stroke-width="0" opacity="0.9" />
<rect x="42.8125" y="246.62" height="3" width="14.0625" fill="#F4EDF2" opacity="0.25" />
<rect x="56.875" y="245" height="9" width="9.375" fill="#BABABA" stroke="#BABABA" stroke-width="0" opacity="0.9" />
<rect x="56.875" y="246.62" height="3" width="9.375" fill="#F4EDF2" opacity="0.25" />
<rect x="66.25" y="245" height="9" width="79.6875" fill="#009CA2" stroke="#009CA2" stroke-width="0" opacity="0.9" />
<rect x="66.25" y="246.62" height="3" width="79.6875" fill="#F4EDF2" opacity="0.25" />
<rect x="145.9375" y="245" height="9" width="4.6875" fill="#BABABA" stroke="#BABABA" stroke-width="0" opacity="0.9" />
<rect x="145.9375" y="246.62" height="3" width="4.6875" fill="#F4EDF2" opacity="0.25" />
<rect x="150.625" y="245" height="9" width="4.6875" fill="#009CA2" stroke="#009CA2" stroke-width="0" opacity="0.9" />
<rect x="150.625" y="246.62" height="3" width="4.6875" fill="#F4EDF2" opacity="0.25" />
<rect x="155.3125" y="245" height="9" width="4.6875" fill="#009CA2" stroke="#009CA2" stroke-width="0" opacity="0.9" />
<rect x="155.3125" y="246.62" height="3" width="4.6875" fill="#F4EDF2" opacity="0.25" />
<rect x="160" y="245" height="9" width="4.6875" fill="#BABABA" stroke="#BABABA" stroke-width="0" opacity="0.9" />
<rect x="160" y="246.62" height="3" width="4.6875" fill="#F4EDF2" opacity="0.25" />
<rect x="164.6875" y="245" height="9" width="4.6875" fill="#009CA2" stroke="#009CA2" stroke-width="0" opacity="0.9" />
<rect x="164.6875" y="246.62" height="3" width="4.6875" fill="#F4EDF2" opacity="0.25" />
<rect x="169.375" y="245" height="9" width="4.6875" fill="#BABABA" stroke="#BABABA" stroke-width="0" opacity="0.9" />
<rect x="169.375" y="246.62" height="3" width="4.6875" fill="#F4EDF2" opacity="0.25" />
<rect x="174.0625" y="245" height="9" width="70.3125" fill="#009CA2" stroke="#009CA2" stroke-width="0" opacity="0.9" />
<rect x="174.0625" y="246.62" height="3" width="70.3125" fill="#F4EDF2" opacity="0.25" />
<rect x="244.375" y="245" height="9" width="42.1875" fill="#1383C6" stroke="#1383C6" stroke-width="0" opacity="0.9" />
<rect x="244.375" y="246.62" height="3" width="42.1875" fill="#F4EDF2" opacity="0.25" />
<rect x="286.5625" y="245" height="9" width="145.3125" fill="#1383C6" stroke="#1383C6" stroke-width="0" opacity="0.9" />
<rect x="286.5625" y="246.62" height="3" width="145.3125" fill="#F4EDF2" opacity="0.25" />
<rect x="431.875" y="245" height="9" width="89.0625" fill="#1383C6" stroke="#1383C6" stroke-width="0" opacity="0.9" />
<rect x="431.875" y="246.62" height="3" width="89.0625" fill="#F4EDF2" opacity="0.25" />
<rect x="520.9375" y="245" height="9" width="4.6875" fill="#1383C6" stroke="#1383C6" stroke-width="0" opacity="0.9" />
<rect x="520.9375" y="246.62" height="3" width="4.6875" fill="#F4EDF2" opacity="0.25" />
<rect x="525.625" y="245" height="9" width="18.75" fill="#009CA2" stroke="#009CA2" stroke-width="0" opacity="0.9" />
<rect x="525.625" y="246.62" height="3" width="18.75" fill="#F4EDF2" opacity="0.25" />
<rect x="544.375" y="245" height="9" width="210.9375" fill="#009CA2" stroke="#009CA2" stroke-width="0" opacity="0.9" />
<rect x="544.375" y="246.62" height="3" width="210.9375" fill="#F4EDF2" opacity="0.25" />
<line x1="755.3125" y1="249.5" x2="760" y2="249.5" stroke="#009CA2" stroke-width="1.5" />
<path d="M 760 245 C 764.5 245, 764.5 254, 760 254" fill="#009CA2" opacity="0.9" />
<line x1="155.3125" y1="245" x2="155.3125" y2="254" stroke="#000000" stroke-width="2" />
<line x1="286.5625" y1="245" x2="286.5625" y2="254" stroke="#000000" stroke-width="2" />
<line x1="431.875" y1="245" x2="431.875" y2="254" stroke="#000000" stroke-width="2" />
<line x1="520.9375" y1="245" x2="520.9375" y2="254" stroke="#000000" stroke-width="2" />
<line x1="544.375" y1="245" x2="544.375" y2="254" stroke="#000000" stroke-width="2" />
<rect x="10" y="260" height="12" width="12" fill="#1383C6" stroke="#1383C6" stroke-width="0" opacity="0.9" />
<text x="24" y="271" font-family="monospace" font-weight="bold" font-size="14px" >GGCCCC</text>
</svg>
