<?xml version="1.0"?>
<svg xmlns="http://www.w3.org/2000/svg" xmlns:xlink="http://www.w3.org/1999/xlink" width="770.0000000000001" height="233">
<rect width="100%" height="100%" fill="white"/>
<path d="M 10 14 C 5.5 14, 5.5 23, 10 23" fill="#009CA2" opacity="0.9" />
<rect x="10" y="14" height="9" width="224.55089820359282" fill="#009CA2" stroke="#009CA2" stroke-width="0" opacity="0.9" />
<rect x="10" y="15.62" height="3" width="224.55089820359282" fill="#F4EDF2" opacity="0.25" />
<rect x="234.55089820359282" y="14" height="9" width="80.83832335329342" fill="#1383C6" stroke="#1383C6" stroke-width="0" opacity="0.9" />
<rect x="234.55089820359282" y="15.62" height="3" width="80.83832335329342" fill="#F4EDF2" opacity="0.25" />
<rect x="315.38922155688624" y="14" height="9" width="22.455089820359284" fill="#D1D1D1" stroke="#D1D1D1" stroke-width="0" opacity="0.9" />
<rect x="315.38922155688624" y="15.62" height="3" width="22.455089820359284" fill="#F4EDF2" opacity="0.25" />
<rect x="337.8443113772455" y="14" height="9" width="53.89221556886228" fill="#1383C6" stroke="#1383C6" stroke-width="0" opacity="0.9" />
<rect x="337.8443113772455" y="15.62" height="3" width="53.89221556886228" fill="#F4EDF2" opacity="0.25" />
<line x1="391.7365269461078" y1="18.5" x2="535.4491017964071" y2="18.5" stroke="#BABABA" stroke-width="1.5" />
<rect x="535.4491017964071" y="14" height="9" width="224.55089820359282" fill="#009CA2" stroke="#009CA2" stroke-width="0" opacity="0.9" />
<rect x="535.4491017964071" y="15.62" height="3" width="224.55089820359282" fill="#F4EDF2" opacity="0.25" />
<path d="M 760 14 C 764.5 14, 764.5 23, 760 23" fill="#009CA2" opacity="0.9" />
<path d="M 10 25 C 5.5 25, 5.5 34, 10 34" fill="#009CA2" opacity="0.9" />
<rect x="10" y="25" height="9" width="4.491017964071856" fill="#BABABA" stroke="#BABABA" stroke-width="0" opacity="0.9" />
<rect x="10" y="26.62" height="3" width="4.491017964071856" fill="#F4EDF2" opacity="0.25" />
<rect x="14.491017964071856" y="25" height="9" width="4.491017964071856" fill="#009CA2" stroke="#009CA2" stroke-width="0" opacity="0.9" />
<rect x="14.491017964071856" y="26.62" height="3" width="4.491017964071856" fill="#F4EDF2" opacity="0.25" />
<rect x="18.982035928143713" y="25" height="9" width="22.455089820359284" fill="#BABABA" stroke="#BABABA" stroke-width="0" opacity="0.9" />
<rect x="18.982035928143713" y="26.62" height="3" width="22.455089820359284" fill="#F4EDF2" opacity="0.25" />
<rect x="41.43712574850299" y="25" height="9" width="193.11377245508982" fill="#009CA2" stroke="#009CA2" stroke-width="0" opacity="0.9" />
<rect x="41.43712574850299" y="26.62" height="3" width="193.11377245508982" fill="#F4EDF2" opacity="0.25" />
<rect x="234.5508982035928" y="25" height="9" width="161.67664670658684" fill="#1383C6" stroke="#1383C6" stroke-width="0" opacity="0.9" />
<rect x="234.5508982035928" y="26.62" height="3" width="161.67664670658684" fill="#F4EDF2" opacity="0.25" />
<line x1="396.22754491017963" y1="29.5" x2="535.4491017964071" y2="29.5" stroke="#BABABA" stroke-width="1.5" />
<rect x="535.4491017964071" y="25" height="9" width="224.55089820359282" fill="#009CA2" stroke="#009CA2" stroke-width="0" opacity="0.9" />
<rect x="535.4491017964071" y="26.62" height="3" width="224.55089820359282" fill="#F4EDF2" opacity="0.25" />
<path d="M 760 25 C 764.5 25, 764.5 34, 760 34" fill="#009CA2" opacity="0.9" />
<path d="M 10 36 C 5.5 36, 5.5 45, 10 45" fill="#009CA2" opacity="0.9" />
<rect x="10" y="36" height="9" width="224.55089820359282" fill="#009CA2" stroke="#009CA2" stroke-width="0" opacity="0.9" />
<rect x="10" y="37.62" height="3" width="224.55089820359282" fill="#F4EDF2" opacity="0.25" />
<rect x="234.55089820359282" y="36" height="9" width="161.67664670658684" fill="#1383C6" stroke="#1383C6" stroke-width="0" opacity="0.9" />
<rect x="234.55089820359282" y="37.62" height="3" width="161.67664670658684" fill="#F4EDF2" opacity="0.25" />
<line x1="396.22754491017963" y1="40.5" x2="535.4491017964071" y2="40.5" stroke="#BABABA" stroke-width="1.5" />
<rect x="535.4491017964071" y="36" height="9" width="224.55089820359282" fill="#009CA2" stroke="#009CA2" stroke-width="0" opacity="0.9" />
<rect x="535.4491017964071" y="37.62" height="3" width="224.55089820359282" fill="#F4EDF2" opacity="0.25" />
<path d="M 760 36 C 764.5 36, 764.5 45, 760 45" fill="#009CA2" opacity="0.9" />
<path d="M 10 47 C 5.5 47, 5.5 56, 10 56" fill="#009CA2" opacity="0.9" />
<rect x="10" y="47" height="9" width="224.55089820359282" fill="#009CA2" stroke="#009CA2" stroke-width="0" opacity="0.9" />
<rect x="10" y="48.62" height="3" width="224.55089820359282" fill="#F4EDF2" opacity="0.25" />
<rect x="234.55089820359282" y="47" height="9" width="161.67664670658684" fill="#1383C6" stroke="#1383C6" stroke-width="0" opacity="0.9" />
<rect x="234.55089820359282" y="48.62" height="3" width="161.67664670658684" fill="#F4EDF2" opacity="0.25" />
<line x1="396.22754491017963" y1="51.5" x2="535.4491017964071" y2="51.5" stroke="#BABABA" stroke-width="1.5" />
<rect x="535.4491017964071" y="47" height="9" width="224.55089820359282" fill="#009CA2" stroke="#009CA2" stroke-width="0" opacity="0.9" />
<rect x="535.4491017964071" y="48.62" height="3" width="224.55089820359282" fill="#F4EDF2" opacity="0.25" />
<path d="M 760 47 C 764.5 47, 764.5 56, 760 56" fill="#009CA2" opacity="0.9" />
<path d="M 10 58 C 5.5 58, 5.5 67, 10 67" fill="#009CA2" opacity="0.9" />
<rect x="10" y="58" height="9" width="224.55089820359282" fill="#009CA2" stroke="#009CA2" stroke-width="0" opacity="0.9" />
<rect x="10" y="59.62" height="3" width="224.55089820359282" fill="#F4EDF2" opacity="0.25" />
<rect x="234.55089820359282" y="58" height="9" width="161.67664670658684" fill="#1383C6" stroke="#1383C6" stroke-width="0" opacity="0.9" />
<rect x="234.55089820359282" y="59.62" height="3" width="161.67664670658684" fill="#F4EDF2" opacity="0.25" />
<line x1="396.22754491017963" y1="62.5" x2="535.4491017964071" y2="62.5" stroke="#BABABA" stroke-width="1.5" />
<rect x="535.4491017964071" y="58" height="9" width="224.55089820359282" fill="#009CA2" stroke="#009CA2" stroke-width="0" opacity="0.9" />
<rect x="535.4491017964071" y="59.62" height="3" width="224.55089820359282" fill="#F4EDF2" opacity="0.25" />
<path d="M 760 58 C 764.5 58, 764.5 67, 760 67" fill="#009CA2" opacity="0.9" />
<path d="M 10 69 C 5.5 69, 5.5 78, 10 78" fill="#009CA2" opacity="0.9" />
<rect x="10" y="69" height="9" width="224.55089820359282" fill="#009CA2" stroke="#009CA2" stroke-width="0" opacity="0.9" />
<rect x="10" y="70.62" height="3" width="224.55089820359282" fill="#F4EDF2" opacity="0.25" />
<rect x="234.55089820359282" y="69" height="9" width="161.67664670658684" fill="#1383C6" stroke="#1383C6" stroke-width="0" opacity="0.9" />
<rect x="234.55089820359282" y="70.62" height="3" width="161.67664670658684" fill="#F4EDF2" opacity="0.25" />
<line x1="396.22754491017963" y1="73.5" x2="535.4491017964071" y2="73.5" stroke="#BABABA" stroke-width="1.5" />
<rect x="535.4491017964071" y="69" height="9" width="224.55089820359282" fill="#009CA2" stroke="#009CA2" stroke-width="0" opacity="0.9" />
<rect x="535.4491017964071" y="70.62" height="3" width="224.55089820359282" fill="#F4EDF2" opacity="0.25" />
<path d="M 760 69 C 764.5 69, 764.5 78, 760 78" fill="#009CA2" opacity="0.9" />
<path d="M 10 80 C 5.5 80, 5.5 89, 10 89" fill="#009CA2" opacity="0.9" />
<rect x="10" y="80" height="9" width="224.55089820359282" fill="#009CA2" stroke="#009CA2" stroke-width="0" opacity="0.9" />
<rect x="10" y="81.62" height="3" width="224.55089820359282" fill="#F4EDF2" opacity="0.25" />
<rect x="234.55089820359282" y="80" height="9" width="161.67664670658684" fill="#1383C6" stroke="#1383C6" stroke-width="0" opacity="0.9" />
<rect x="234.55089820359282" y="81.62" height="3" width="161.67664670658684" fill="#F4EDF2" opacity="0.25" />
<line x1="396.22754491017963" y1="84.5" x2="535.4491017964071" y2="84.5" stroke="#BABABA" stroke-width="1.5" />
<rect x="535.4491017964071" y="80" height="9" width="224.55089820359282" fill="#009CA2" stroke="#009CA2" stroke-width="0" opacity="0.9" />
<rect x="535.4491017964071" y="81.62" height="3" width="224.55089820359282" fill="#F4EDF2" opacity="0.25" />
<path d="M 760 80 C 764.5 80, 764.5 89, 760 89" fill="#009CA2" opacity="0.9" />
<path d="M 10 91 C 5.5 91, 5.5 100, 10 100" fill="#009CA2" opacity="0.9" />
<line x1="10" y1="95.5" x2="18.982035928143713" y2="95.5" stroke="#009CA2" stroke-width="1.5" />
<rect x="18.982035928143713" y="91" height="9" width="76.34730538922156" fill="#009CA2" stroke="#009CA2" stroke-width="0" opacity="0.9" />
<rect x="18.982035928143713" y="92.62" height="3" width="76.34730538922156" fill="#F4EDF2" opacity="0.25" />
<rect x="95.32934131736528" y="91" height="9" width="139.22155688622755" fill="#009CA2" stroke="#009CA2" stroke-width="0" opacity="0.9" />
<rect x="95.32934131736528" y="92.62" height="3" width="139.22155688622755" fill="#F4EDF2" opacity="0.25" />
<rect x="234.55089820359282" y="91" height="9" width="53.89221556886228" fill="#1383C6" stroke="#1383C6" stroke-width="0" opacity="0.9" />
<rect x="234.55089820359282" y="92.62" height="3" width="53.89221556886228" fill="#F4EDF2" opacity="0.25" />
<rect x="288.4431137724551" y="91" height="9" width="4.491017964071856" fill="#D1D1D1" stroke="#D1D1D1" stroke-width="0" opacity="0.9" />
<rect x="288.4431137724551" y="92.62" height="3" width="4.491017964071856" fill="#F4EDF2" opacity="0.25" />
<rect x="292.9341317365269" y="91" height="9" width="53.89221556886228" fill="#1383C6" stroke="#1383C6" stroke-width="0" opacity="0.9" />
<rect x="292.9341317365269" y="92.62" height="3" width="53.89221556886228" fill="#F4EDF2" opacity="0.25" />
<rect x="346.8263473053892" y="91" height="9" width="4.491017964071856" fill="#D1D1D1" stroke="#D1D1D1" stroke-width="0" opacity="0.9" />
<rect x="346.8263473053892" y="92.62" height="3" width="4.491017964071856" fill="#F4EDF2" opacity="0.25" />
<rect x="351.31736526946105" y="91" height="9" width="53.89221556886228" fill="#1383C6" stroke="#1383C6" stroke-width="0" opacity="0.9" />
<rect x="351.31736526946105" y="92.62" height="3" width="53.89221556886228" fill="#F4EDF2" opacity="0.25" />
<line x1="405.20958083832335" y1="95.5" x2="535.4491017964071" y2="95.5" stroke="#BABABA" stroke-width="1.5" />
<rect x="535.4491017964071" y="91" height="9" width="224.55089820359282" fill="#009CA2" stroke="#009CA2" stroke-width="0" opacity="0.9" />
<rect x="535.4491017964071" y="92.62" height="3" width="224.55089820359282" fill="#F4EDF2" opacity="0.25" />
<path d="M 760 91 C 764.5 91, 764.5 100, 760 100" fill="#009CA2" opacity="0.9" />
<line x1="95.32934131736528" y1="91" x2="95.32934131736528" y2="100" stroke="#000000" stroke-width="2" />
<path d="M 10 102 C 5.5 102, 5.5 111, 10 111" fill="#009CA2" opacity="0.9" />
<rect x="10" y="102" height="9" width="224.55089820359282" fill="#009CA2" stroke="#009CA2" stroke-width="0" opacity="0.9" />
<rect x="10" y="103.62" height="3" width="224.55089820359282" fill="#F4EDF2" opacity="0.25" />
<rect x="234.55089820359282" y="102" height="9" width="22.455089820359284" fill="#D1D1D1" stroke="#D1D1D1" stroke-width="0" opacity="0.9" />
<rect x="234.55089820359282" y="103.62" height="3" width="22.455089820359284" fill="#F4EDF2" opacity="0.25" />
<rect x="257.0059880239521" y="102" height="9" width="80.83832335329342" fill="#1383C6" stroke="#1383C6" stroke-width="0" opacity="0.9" />
<rect x="257.0059880239521" y="103.62" height="3" width="80.83832335329342" fill="#F4EDF2" opacity="0.25" />
<rect x="337.8443113772455" y="102" height="9" width="22.455089820359284" fill="#D1D1D1" stroke="#D1D1D1" stroke-width="0" opacity="0.9" />
<rect x="337.8443113772455" y="103.62" height="3" width="22.455089820359284" fill="#F4EDF2" opacity="0.25" />
<rect x="360.29940119760477" y="102" height="9" width="134.7305389221557" fill="#1383C6" stroke="#1383C6" stroke-width="0" opacity="0.9" />
<rect x="360.29940119760477" y="103.62" height="3" width="134.7305389221557" fill="#F4EDF2" opacity="0.25" />
<line x1="495.02994011976045" y1="106.5" x2="535.4491017964071" y2="106.5" stroke="#BABABA" stroke-width="1.5" />
<rect x="535.4491017964071" y="102" height="9" width="53.89221556886228" fill="#009CA2" stroke="#009CA2" stroke-width="0" opacity="0.9" />
<rect x="535.4491017964071" y="103.62" height="3" width="53.89221556886228" fill="#F4EDF2" opacity="0.25" />
<line x1="589.3413173652694" y1="106.5" x2="593.8323353293413" y2="106.5" stroke="#009CA2" stroke-width="1.5" />
<rect x="593.8323353293413" y="102" height="9" width="161.67664670658684" fill="#009CA2" stroke="#009CA2" stroke-width="0" opacity="0.9" />
<rect x="593.8323353293413" y="103.62" height="3" width="161.67664670658684" fill="#F4EDF2" opacity="0.25" />
<rect x="755.508982035928" y="102" height="9" width="4.491017964071856" fill="#009CA2" stroke="#009CA2" stroke-width="0" opacity="0.9" />
<rect x="755.508982035928" y="103.62" height="3" width="4.491017964071856" fill="#F4EDF2" opacity="0.25" />
<path d="M 759.9999999999999 102 C 764.4999999999999 102, 764.4999999999999 111, 759.9999999999999 111" fill="#009CA2" opacity="0.9" />
<line x1="755.508982035928" y1="102" x2="755.508982035928" y2="111" stroke="#000000" stroke-width="2" />
<path d="M 10 113 C 5.5 113, 5.5 122, 10 122" fill="#009CA2" opacity="0.9" />
<rect x="10" y="113" height="9" width="224.55089820359282" fill="#009CA2" stroke="#009CA2" stroke-width="0" opacity="0.9" />
<rect x="10" y="114.62" height="3" width="224.55089820359282" fill="#F4EDF2" opacity="0.25" />
<rect x="234.55089820359282" y="113" height="9" width="107.78443113772455" fill="#1383C6" stroke="#1383C6" stroke-width="0" opacity="0.9" />
<rect x="234.55089820359282" y="114.62" height="3" width="107.78443113772455" fill="#F4EDF2" opacity="0.25" />
<rect x="342.3353293413174" y="113" height="9" width="22.455089820359284" fill="#D1D1D1" stroke="#D1D1D1" stroke-width="0" opacity="0.9" />
<rect x="342.3353293413174" y="114.62" height="3" width="22.455089820359284" fill="#F4EDF2" opacity="0.25" />
<rect x="364.79041916167665" y="113" height="9" width="134.7305389221557" fill="#1383C6" stroke="#1383C6" stroke-width="0" opacity="0.9" />
<rect x="364.79041916167665" y="114.62" height="3" width="134.7305389221557" fill="#F4EDF2" opacity="0.25" />
<line x1="499.52095808383234" y1="117.5" x2="535.4491017964071" y2="117.5" stroke="#BABABA" stroke-width="1.5" />
<rect x="535.4491017964071" y="113" height="9" width="224.55089820359282" fill="#009CA2" stroke="#009CA2" stroke-width="0" opacity="0.9" />
<rect x="535.4491017964071" y="114.62" height="3" width="224.55089820359282" fill="#F4EDF2" opacity="0.25" />
<path d="M 760 113 C 764.5 113, 764.5 122, 760 122" fill="#009CA2" opacity="0.9" />
<path d="M 10 124 C 5.5 124, 5.5 133, 10 133" fill="#009CA2" opacity="0.9" />
<rect x="10" y="124" height="9" width="224.55089820359282" fill="#009CA2" stroke="#009CA2" stroke-width="0" opacity="0.9" />
<rect x="10" y="125.62" height="3" width="224.55089820359282" fill="#F4EDF2" opacity="0.25" />
<rect x="234.55089820359282" y="124" height="9" width="269.4610778443114" fill="#1383C6" stroke="#1383C6" stroke-width="0" opacity="0.9" />
<rect x="234.55089820359282" y="125.62" height="3" width="269.4610778443114" fill="#F4EDF2" opacity="0.25" />
<line x1="504.0119760479042" y1="128.5" x2="535.4491017964073" y2="128.5" stroke="#BABABA" stroke-width="1.5" />
<rect x="535.4491017964073" y="124" height="9" width="224.55089820359282" fill="#009CA2" stroke="#009CA2" stroke-width="0" opacity="0.9" />
<rect x="535.4491017964073" y="125.62" height="3" width="224.55089820359282" fill="#F4EDF2" opacity="0.25" />
<path d="M 760.0000000000001 124 C 764.5000000000001 124, 764.5000000000001 133, 760.0000000000001 133" fill="#009CA2" opacity="0.9" />
<path d="M 10 135 C 5.5 135, 5.5 144, 10 144" fill="#009CA2" opacity="0.9" />
<rect x="10" y="135" height="9" width="224.55089820359282" fill="#009CA2" stroke="#009CA2" stroke-width="0" opacity="0.9" />
<rect x="10" y="136.62" height="3" width="224.55089820359282" fill="#F4EDF2" opacity="0.25" />
<rect x="234.55089820359282" y="135" height="9" width="269.4610778443114" fill="#1383C6" stroke="#1383C6" stroke-width="0" opacity="0.9" />
<rect x="234.55089820359282" y="136.62" height="3" width="269.4610778443114" fill="#F4EDF2" opacity="0.25" />
<line x1="504.0119760479042" y1="139.5" x2="535.4491017964073" y2="139.5" stroke="#BABABA" stroke-width="1.5" />
<rect x="535.4491017964073" y="135" height="9" width="224.55089820359282" fill="#009CA2" stroke="#009CA2" stroke-width="0" opacity="0.9" />
<rect x="535.4491017964073" y="136.62" height="3" width="224.55089820359282" fill="#F4EDF2" opacity="0.25" />
<path d="M 760.0000000000001 135 C 764.5000000000001 135, 764.5000000000001 144, 760.0000000000001 144" fill="#009CA2" opacity="0.9" />
<path d="M 10 146 C 5.5 146, 5.5 155, 10 155" fill="#009CA2" opacity="0.9" />
<rect x="10" y="146" height="9" width="224.55089820359282" fill="#009CA2" stroke="#009CA2" stroke-width="0" opacity="0.9" />
<rect x="10" y="147.62" height="3" width="224.55089820359282" fill="#F4EDF2" opacity="0.25" />
<rect x="234.55089820359282" y="146" height="9" width="269.4610778443114" fill="#1383C6" stroke="#1383C6" stroke-width="0" opacity="0.9" />
<rect x="234.55089820359282" y="147.62" height="3" width="269.4610778443114" fill="#F4EDF2" opacity="0.25" />
<line x1="504.0119760479042" y1="150.5" x2="535.4491017964073" y2="150.5" stroke="#BABABA" stroke-width="1.5" />
<rect x="535.4491017964073" y="146" height="9" width="224.55089820359282" fill="#009CA2" stroke="#009CA2" stroke-width="0" opacity="0.9" />
<rect x="535.4491017964073" y="147.62" height="3" width="224.55089820359282" fill="#F4EDF2" opacity="0.25" />
<path d="M 760.0000000000001 146 C 764.5000000000001 146, 764.5000000000001 155, 760.0000000000001 155" fill="#009CA2" opacity="0.9" />
<path d="M 10 157 C 5.5 157, 5.5 166, 10 166" fill="#009CA2" opacity="0.9" />
<rect x="10" y="157" height="9" width="103.2934131736527" fill="#009CA2" stroke="#009CA2" stroke-width="0" opacity="0.9" />
<rect x="10" y="158.62" height="3" width="103.2934131736527" fill="#F4EDF2" opacity="0.25" />
<line x1="113.2934131736527" y1="161.5" x2="117.78443113772455" y2="161.5" stroke="#009CA2" stroke-width="1.5" />
<rect x="117.78443113772455" y="157" height="9" width="116.76646706586827" fill="#009CA2" stroke="#009CA2" stroke-width="0" opacity="0.9" />
<rect x="117.78443113772455" y="158.62" height="3" width="116.76646706586827" fill="#F4EDF2" opacity="0.25" />
<rect x="234.55089820359282" y="157" height="9" width="269.4610778443114" fill="#1383C6" stroke="#1383C6" stroke-width="0" opacity="0.9" />
<rect x="234.55089820359282" y="158.62" height="3" width="269.4610778443114" fill="#F4EDF2" opacity="0.25" />
<line x1="504.0119760479042" y1="161.5" x2="535.4491017964073" y2="161.5" stroke="#BABABA" stroke-width="1.5" />
<rect x="535.4491017964073" y="157" height="9" width="224.55089820359282" fill="#009CA2" stroke="#009CA2" stroke-width="0" opacity="0.9" />
<rect x="535.4491017964073" y="158.62" height="3" width="224.55089820359282" fill="#F4EDF2" opacity="0.25" />
<path d="M 760.0000000000001 157 C 764.5000000000001 157, 764.5000000000001 166, 760.0000000000001 166" fill="#009CA2" opacity="0.9" />
<line x1="10" y1="157" x2="10" y2="166" stroke="#000000" stroke-width="2" />
<path d="M 10 168 C 5.5 168, 5.5 177, 10 177" fill="#009CA2" opacity="0.9" />
<rect x="10" y="168" height="9" width="224.55089820359282" fill="#009CA2" stroke="#009CA2" stroke-width="0" opacity="0.9" />
<rect x="10" y="169.62" height="3" width="224.55089820359282" fill="#F4EDF2" opacity="0.25" />
<rect x="234.55089820359282" y="168" height="9" width="269.4610778443114" fill="#1383C6" stroke="#1383C6" stroke-width="0" opacity="0.9" />
<rect x="234.55089820359282" y="169.62" height="3" width="269.4610778443114" fill="#F4EDF2" opacity="0.25" />
<line x1="504.0119760479042" y1="172.5" x2="535.4491017964073" y2="172.5" stroke="#BABABA" stroke-width="1.5" />
<rect x="535.4491017964073" y="168" height="9" width="224.55089820359282" fill="#009CA2" stroke="#009CA2" stroke-width="0" opacity="0.9" />
<rect x="535.4491017964073" y="169.62" height="3" width="224.55089820359282" fill="#F4EDF2" opacity="0.25" />
<path d="M 760.0000000000001 168 C 764.5000000000001 168, 764.5000000000001 177, 760.0000000000001 177" fill="#009CA2" opacity="0.9" />
<path d="M 10 179 C 5.5 179, 5.5 188, 10 188" fill="#009CA2" opacity="0.9" />
<rect x="10" y="179" height="9" width="224.55089820359282" fill="#009CA2" stroke="#009CA2" stroke-width="0" opacity="0.9" />
<rect x="10" y="180.62" height="3" width="224.55089820359282" fill="#F4EDF2" opacity="0.25" />
<rect x="234.55089820359282" y="179" height="9" width="134.7305389221557" fill="#1383C6" stroke="#1383C6" stroke-width="0" opacity="0.9" />
<rect x="234.55089820359282" y="180.62" height="3" width="134.7305389221557" fill="#F4EDF2" opacity="0.25" />
<rect x="369.28143712574854" y="179" height="9" width="4.491017964071856" fill="#D1D1D1" stroke="#D1D1D1" stroke-width="0" opacity="0.9" />
<rect x="369.28143712574854" y="180.62" height="3" width="4.491017964071856" fill="#F4EDF2" opacity="0.25" />
<rect x="373.77245508982037" y="179" height="9" width="134.7305389221557" fill="#1383C6" stroke="#1383C6" stroke-width="0" opacity="0.9" />
<rect x="373.77245508982037" y="180.62" height="3" width="134.7305389221557" fill="#F4EDF2" opacity="0.25" />
<line x1="508.50299401197606" y1="183.5" x2="535.4491017964071" y2="183.5" stroke="#BABABA" stroke-width="1.5" />
<rect x="535.4491017964071" y="179" height="9" width="224.55089820359282" fill="#009CA2" stroke="#009CA2" stroke-width="0" opacity="0.9" />
<rect x="535.4491017964071" y="180.62" height="3" width="224.55089820359282" fill="#F4EDF2" opacity="0.25" />
<path d="M 760 179 C 764.5 179, 764.5 188, 760 188" fill="#009CA2" opacity="0.9" />
<path d="M 10 190 C 5.5 190, 5.5 199, 10 199" fill="#009CA2" opacity="0.9" />
<rect x="10" y="190" height="9" width="224.55089820359282" fill="#009CA2" stroke="#009CA2" stroke-width="0" opacity="0.9" />
<rect x="10" y="191.62" height="3" width="224.55089820359282" fill="#F4EDF2" opacity="0.25" />
<rect x="234.55089820359282" y="190" height="9" width="53.89221556886228" fill="#1383C6" stroke="#1383C6" stroke-width="0" opacity="0.9" />
<rect x="234.55089820359282" y="191.62" height="3" width="53.89221556886228" fill="#F4EDF2" opacity="0.25" />
<rect x="288.4431137724551" y="190" height="9" width="4.491017964071856" fill="#D1D1D1" stroke="#D1D1D1" stroke-width="0" opacity="0.9" />
<rect x="288.4431137724551" y="191.62" height="3" width="4.491017964071856" fill="#F4EDF2" opacity="0.25" />
<rect x="292.9341317365269" y="190" height="9" width="215.5688622754491" fill="#1383C6" stroke="#1383C6" stroke-width="0" opacity="0.9" />
<rect x="292.9341317365269" y="191.62" height="3" width="215.5688622754491" fill="#F4EDF2" opacity="0.25" />
<rect x="508.50299401197606" y="190" height="9" width="4.491017964071856" fill="#D1D1D1" stroke="#D1D1D1" stroke-width="0" opacity="0.9" />
<rect x="508.50299401197606" y="191.62" height="3" width="4.491017964071856" fill="#F4EDF2" opacity="0.25" />
<line x1="512.9940119760479" y1="194.5" x2="535.4491017964071" y2="194.5" stroke="#BABABA" stroke-width="1.5" />
<rect x="535.4491017964071" y="190" height="9" width="224.55089820359282" fill="#009CA2" stroke="#009CA2" stroke-width="0" opacity="0.9" />
<rect x="535.4491017964071" y="191.62" height="3" width="224.55089820359282" fill="#F4EDF2" opacity="0.25" />
<path d="M 760 190 C 764.5 190, 764.5 199, 760 199" fill="#009CA2" opacity="0.9" />
<path d="M 10 201 C 5.5 201, 5.5 210, 10 210" fill="#009CA2" opacity="0.9" />
<rect x="10" y="201" height="9" width="4.491017964071856" fill="#009CA2" stroke="#009CA2" stroke-width="0" opacity="0.9" />
<rect x="10" y="202.62" height="3" width="4.491017964071856" fill="#F4EDF2" opacity="0.25" />
<rect x="14.491017964071856" y="201" height="9" width="4.491017964071856" fill="#BABABA" stroke="#BABABA" stroke-width="0" opacity="0.9" />
<rect x="14.491017964071856" y="202.62" height="3" width="4.491017964071856" fill="#F4EDF2" opacity="0.25" />
<rect x="18.982035928143713" y="201" height="9" width="4.491017964071856" fill="#009CA2" stroke="#009CA2" stroke-width="0" opacity="0.9" />
<rect x="18.982035928143713" y="202.62" height="3" width="4.491017964071856" fill="#F4EDF2" opacity="0.25" />
<line x1="23.473053892215567" y1="205.5" x2="41.43712574850299" y2="205.5" stroke="#009CA2" stroke-width="1.5" />
<rect x="41.43712574850299" y="201" height="9" width="13.47305389221557" fill="#009CA2" stroke="#009CA2" stroke-width="0" opacity="0.9" />
<rect x="41.43712574850299" y="202.62" height="3" width="13.47305389221557" fill="#F4EDF2" opacity="0.25" />
<rect x="54.91017964071856" y="201" height="9" width="8.982035928143713" fill="#BABABA" stroke="#BABABA" stroke-width="0" opacity="0.9" />
<rect x="54.91017964071856" y="202.62" height="3" width="8.982035928143713" fill="#F4EDF2" opacity="0.25" />
<rect x="63.89221556886227" y="201" height="9" width="76.34730538922156" fill="#009CA2" stroke="#009CA2" stroke-width="0" opacity="0.9" />
<rect x="63.89221556886227" y="202.62" height="3" width="76.34730538922156" fill="#F4EDF2" opacity="0.25" />
<rect x="140.23952095808383" y="201" height="9" width="4.491017964071856" fill="#BABABA" stroke="#BABABA" stroke-width="0" opacity="0.9" />
<rect x="140.23952095808383" y="202.62" height="3" width="4.491017964071856" fill="#F4EDF2" opacity="0.25" />
<rect x="144.7305389221557" y="201" height="9" width="4.491017964071856" fill="#009CA2" stroke="#009CA2" stroke-width="0" opacity="0.9" />
<rect x="144.7305389221557" y="202.62" height="3" width="4.491017964071856" fill="#F4EDF2" opacity="0.25" />
<rect x="149.22155688622755" y="201" height="9" width="4.491017964071856" fill="#009CA2" stroke="#009CA2" stroke-width="0" opacity="0.9" />
<rect x="149.22155688622755" y="202.62" height="3" width="4.491017964071856" fill="#F4EDF2" opacity="0.25" />
<rect x="153.7125748502994" y="201" height="9" width="4.491017964071856" fill="#BABABA" stroke="#BABABA" stroke-width="0" opacity="0.9" />
<rect x="153.7125748502994" y="202.62" height="3" width="4.491017964071856" fill="#F4EDF2" opacity="0.25" />
<rect x="158.20359281437126" y="201" height="9" width="4.491017964071856" fill="#009CA2" stroke="#009CA2" stroke-width="0" opacity="0.9" />
<rect x="158.20359281437126" y="202.62" height="3" width="4.491017964071856" fill="#F4EDF2" opacity="0.25" />
<rect x="162.69461077844312" y="201" height="9" width="4.491017964071856" fill="#BABABA" stroke="#BABABA" stroke-width="0" opacity="0.9" />
<rect x="162.69461077844312" y="202.62" height="3" width="4.491017964071856" fill="#F4EDF2" opacity="0.25" />
<rect x="167.18562874251498" y="201" height="9" width="67.36526946107784" fill="#009CA2" stroke="#009CA2" stroke-width="0" opacity="0.9" />
<rect x="167.18562874251498" y="202.62" height="3" width="67.36526946107784" fill="#F4EDF2" opacity="0.25" />
<rect x="234.55089820359282" y="201" height="9" width="53.89221556886228" fill="#1383C6" stroke="#1383C6" stroke-width="0" opacity="0.9" />
<rect x="234.55089820359282" y="202.62" height="3" width="53.89221556886228" fill="#F4EDF2" opacity="0.25" />
<rect x="288.4431137724551" y="201" height="9" width="17.964071856287426" fill="#D1D1D1" stroke="#D1D1D1" stroke-width="0" opacity="0.9" />
<rect x="288.4431137724551" y="202.62" height="3" width="17.964071856287426" fill="#F4EDF2" opacity="0.25" />
<rect x="306.4071856287425" y="201" height="9" width="107.78443113772455" fill="#1383C6" stroke="#1383C6" stroke-width="0" opacity="0.9" />
<rect x="306.4071856287425" y="202.62" height="3" width="107.78443113772455" fill="#F4EDF2" opacity="0.25" />
<rect x="414.19161676646706" y="201" height="9" width="35.92814371257485" fill="#D1D1D1" stroke="#D1D1D1" stroke-width="0" opacity="0.9" />
<rect x="414.19161676646706" y="202.62" height="3" width="35.92814371257485" fill="#F4EDF2" opacity="0.25" />
<rect x="450.11976047904193" y="201" height="9" width="53.89221556886228" fill="#1383C6" stroke="#1383C6" stroke-width="0" opacity="0.9" />
<rect x="450.11976047904193" y="202.62" height="3" width="53.89221556886228" fill="#F4EDF2" opacity="0.25" />
<rect x="504.0119760479042" y="201" height="9" width="31.437125748502993" fill="#D1D1D1" stroke="#D1D1D1" stroke-width="0" opacity="0.9" />
<rect x="504.0119760479042" y="202.62" height="3" width="31.437125748502993" fill="#F4EDF2" opacity="0.25" />
<rect x="535.4491017964073" y="201" height="9" width="17.964071856287426" fill="#009CA2" stroke="#009CA2" stroke-width="0" opacity="0.9" />
<rect x="535.4491017964073" y="202.62" height="3" width="17.964071856287426" fill="#F4EDF2" opacity="0.25" />
<rect x="553.4131736526947" y="201" height="9" width="202.09580838323353" fill="#009CA2" stroke="#009CA2" stroke-width="0" opacity="0.9" />
<rect x="553.4131736526947" y="202.62" height="3" width="202.09580838323353" fill="#F4EDF2" opacity="0.25" />
<line x1="755.5089820359283" y1="205.5" x2="760.0000000000001" y2="205.5" stroke="#009CA2" stroke-width="1.5" />
<path d="M 760.0000000000001 201 C 764.5000000000001 201, 764.5000000000001 210, 760.0000000000001 210" fill="#009CA2" opacity="0.9" />
<line x1="149.22155688622755" y1="201" x2="149.22155688622755" y2="210" stroke="#000000" stroke-width="2" />
<line x1="553.4131736526947" y1="201" x2="553.4131736526947" y2="210" stroke="#000000" stroke-width="2" />
<rect x="10" y="216" height="12" width="12" fill="#1383C6" stroke="#1383C6" stroke-width="0" opacity="0.9" />
<text x="24" y="227" font-family="monospace" font-weight="bold" font-size="14px" >GGCCCC</text>
</svg>
