<?xml version="1.0"?>
<svg xmlns="http://www.w3.org/2000/svg" xmlns:xlink="http://www.w3.org/1999/xlink" width="770.0000000000001" height="244">
<rect width="100%" height="100%" fill="white"/>
<path d="M 10 14 C 5.5 14, 5.5 23, 10 23" fill="#009CA2" opacity="0.9" />
<rect x="10" y="14" height="9" width="116.45962732919256" fill="#009CA2" stroke="#009CA2" stroke-width="0" opacity="0.9" />
<rect x="10" y="15.62" height="3" width="116.45962732919256" fill="#F4EDF2" opacity="0.25" />
<rect x="126.45962732919256" y="14" height="9" width="102.48447204968944" fill="#D1D1D1" stroke="#D1D1D1" stroke-width="0" opacity="0.9" />
<rect x="126.45962732919256" y="15.62" height="3" width="102.48447204968944" fill="#F4EDF2" opacity="0.25" />
<line x1="228.94409937888202" y1="18.5" x2="643.5403726708075" y2="18.5" stroke="#BABABA" stroke-width="1.5" />
<rect x="643.5403726708075" y="14" height="9" width="116.45962732919256" fill="#009CA2" stroke="#009CA2" stroke-width="0" opacity="0.9" />
<rect x="643.5403726708075" y="15.62" height="3" width="116.45962732919256" fill="#F4EDF2" opacity="0.25" />
<path d="M 760.0000000000001 14 C 764.5000000000001 14, 764.5000000000001 23, 760.0000000000001 23" fill="#009CA2" opacity="0.9" />
<rect x="19.316770186335404" y="14" height="9" width="2.329192546583851" fill="#F70208" stroke="#F70208" stroke-width="0" opacity="0.9" />
<rect x="708.7577639751553" y="14" height="9" width="2.329192546583851" fill="#DA0B25" stroke="#DA0B25" stroke-width="0" opacity="0.9" />
<path d="M 10 25 C 5.5 25, 5.5 34, 10 34" fill="#009CA2" opacity="0.9" />
<rect x="10" y="25" height="9" width="53.57142857142857" fill="#009CA2" stroke="#009CA2" stroke-width="0" opacity="0.9" />
<rect x="10" y="26.62" height="3" width="53.57142857142857" fill="#F4EDF2" opacity="0.25" />
<line x1="63.57142857142857" y1="29.5" x2="65.90062111801242" y2="29.5" stroke="#009CA2" stroke-width="1.5" />
<rect x="65.90062111801242" y="25" height="9" width="60.559006211180126" fill="#009CA2" stroke="#009CA2" stroke-width="0" opacity="0.9" />
<rect x="65.90062111801242" y="26.62" height="3" width="60.559006211180126" fill="#F4EDF2" opacity="0.25" />
<rect x="126.45962732919256" y="25" height="9" width="104.8136645962733" fill="#D1D1D1" stroke="#D1D1D1" stroke-width="0" opacity="0.9" />
<rect x="126.45962732919256" y="26.62" height="3" width="104.8136645962733" fill="#F4EDF2" opacity="0.25" />
<line x1="231.27329192546586" y1="29.5" x2="643.5403726708075" y2="29.5" stroke="#BABABA" stroke-width="1.5" />
<rect x="643.5403726708075" y="25" height="9" width="116.45962732919256" fill="#009CA2" stroke="#009CA2" stroke-width="0" opacity="0.9" />
<rect x="643.5403726708075" y="26.62" height="3" width="116.45962732919256" fill="#F4EDF2" opacity="0.25" />
<path d="M 760.0000000000001 25 C 764.5000000000001 25, 764.5000000000001 34, 760.0000000000001 34" fill="#009CA2" opacity="0.9" />
<line x1="10" y1="25" x2="10" y2="34" stroke="#000000" stroke-width="2" />
<rect x="19.316770186335404" y="25" height="9" width="2.329192546583851" fill="#F5030A" stroke="#F5030A" stroke-width="0" opacity="0.9" />
<rect x="708.7577639751553" y="25" height="9" width="2.329192546583851" fill="#E4081B" stroke="#E4081B" stroke-width="0" opacity="0.9" />
<path d="M 10 36 C 5.5 36, 5.5 45, 10 45" fill="#009CA2" opacity="0.9" />
<rect x="10" y="36" height="9" width="116.45962732919256" fill="#009CA2" stroke="#009CA2" stroke-width="0" opacity="0.9" />
<rect x="10" y="37.62" height="3" width="116.45962732919256" fill="#F4EDF2" opacity="0.25" />
<rect x="126.45962732919256" y="36" height="9" width="104.8136645962733" fill="#D1D1D1" stroke="#D1D1D1" stroke-width="0" opacity="0.9" />
<rect x="126.45962732919256" y="37.62" height="3" width="104.8136645962733" fill="#F4EDF2" opacity="0.25" />
<line x1="231.27329192546586" y1="40.5" x2="643.5403726708075" y2="40.5" stroke="#BABABA" stroke-width="1.5" />
<rect x="643.5403726708075" y="36" height="9" width="116.45962732919256" fill="#009CA2" stroke="#009CA2" stroke-width="0" opacity="0.9" />
<rect x="643.5403726708075" y="37.62" height="3" width="116.45962732919256" fill="#F4EDF2" opacity="0.25" />
<path d="M 760.0000000000001 36 C 764.5000000000001 36, 764.5000000000001 45, 760.0000000000001 45" fill="#009CA2" opacity="0.9" />
<rect x="19.316770186335404" y="36" height="9" width="2.329192546583851" fill="#F60309" stroke="#F60309" stroke-width="0" opacity="0.9" />
<rect x="708.7577639751553" y="36" height="9" width="2.329192546583851" fill="#1F40E0" stroke="#1F40E0" stroke-width="0" opacity="0.9" />
<path d="M 10 47 C 5.5 47, 5.5 56, 10 56" fill="#009CA2" opacity="0.9" />
<rect x="10" y="47" height="9" width="116.45962732919256" fill="#009CA2" stroke="#009CA2" stroke-width="0" opacity="0.9" />
<rect x="10" y="48.62" height="3" width="116.45962732919256" fill="#F4EDF2" opacity="0.25" />
<rect x="126.45962732919256" y="47" height="9" width="104.8136645962733" fill="#D1D1D1" stroke="#D1D1D1" stroke-width="0" opacity="0.9" />
<rect x="126.45962732919256" y="48.62" height="3" width="104.8136645962733" fill="#F4EDF2" opacity="0.25" />
<line x1="231.27329192546586" y1="51.5" x2="643.5403726708075" y2="51.5" stroke="#BABABA" stroke-width="1.5" />
<rect x="643.5403726708075" y="47" height="9" width="116.45962732919256" fill="#009CA2" stroke="#009CA2" stroke-width="0" opacity="0.9" />
<rect x="643.5403726708075" y="48.62" height="3" width="116.45962732919256" fill="#F4EDF2" opacity="0.25" />
<path d="M 760.0000000000001 47 C 764.5000000000001 47, 764.5000000000001 56, 760.0000000000001 56" fill="#009CA2" opacity="0.9" />
<path d="M 10 58 C 5.5 58, 5.5 67, 10 67" fill="#009CA2" opacity="0.9" />
<rect x="10" y="58" height="9" width="116.45962732919256" fill="#009CA2" stroke="#009CA2" stroke-width="0" opacity="0.9" />
<rect x="10" y="59.62" height="3" width="116.45962732919256" fill="#F4EDF2" opacity="0.25" />
<rect x="126.45962732919256" y="58" height="9" width="104.8136645962733" fill="#D1D1D1" stroke="#D1D1D1" stroke-width="0" opacity="0.9" />
<rect x="126.45962732919256" y="59.62" height="3" width="104.8136645962733" fill="#F4EDF2" opacity="0.25" />
<line x1="231.27329192546586" y1="62.5" x2="643.5403726708075" y2="62.5" stroke="#BABABA" stroke-width="1.5" />
<rect x="643.5403726708075" y="58" height="9" width="116.45962732919256" fill="#009CA2" stroke="#009CA2" stroke-width="0" opacity="0.9" />
<rect x="643.5403726708075" y="59.62" height="3" width="116.45962732919256" fill="#F4EDF2" opacity="0.25" />
<path d="M 760.0000000000001 58 C 764.5000000000001 58, 764.5000000000001 67, 760.0000000000001 67" fill="#009CA2" opacity="0.9" />
<rect x="19.316770186335404" y="58" height="9" width="2.329192546583851" fill="#F2040D" stroke="#F2040D" stroke-width="0" opacity="0.9" />
<rect x="708.7577639751553" y="58" height="9" width="2.329192546583851" fill="#FC0103" stroke="#FC0103" stroke-width="0" opacity="0.9" />
<path d="M 10 69 C 5.5 69, 5.5 78, 10 78" fill="#009CA2" opacity="0.9" />
<rect x="10" y="69" height="9" width="116.45962732919256" fill="#009CA2" stroke="#009CA2" stroke-width="0" opacity="0.9" />
<rect x="10" y="70.62" height="3" width="116.45962732919256" fill="#F4EDF2" opacity="0.25" />
<rect x="126.45962732919256" y="69" height="9" width="104.8136645962733" fill="#D1D1D1" stroke="#D1D1D1" stroke-width="0" opacity="0.9" />
<rect x="126.45962732919256" y="70.62" height="3" width="104.8136645962733" fill="#F4EDF2" opacity="0.25" />
<line x1="231.27329192546586" y1="73.5" x2="643.5403726708075" y2="73.5" stroke="#BABABA" stroke-width="1.5" />
<rect x="643.5403726708075" y="69" height="9" width="116.45962732919256" fill="#009CA2" stroke="#009CA2" stroke-width="0" opacity="0.9" />
<rect x="643.5403726708075" y="70.62" height="3" width="116.45962732919256" fill="#F4EDF2" opacity="0.25" />
<path d="M 760.0000000000001 69 C 764.5000000000001 69, 764.5000000000001 78, 760.0000000000001 78" fill="#009CA2" opacity="0.9" />
<rect x="19.316770186335404" y="69" height="9" width="2.329192546583851" fill="#8C2173" stroke="#8C2173" stroke-width="0" opacity="0.9" />
<rect x="708.7577639751553" y="69" height="9" width="2.329192546583851" fill="#B61549" stroke="#B61549" stroke-width="0" opacity="0.9" />
<path d="M 10 80 C 5.5 80, 5.5 89, 10 89" fill="#009CA2" opacity="0.9" />
<rect x="10" y="80" height="9" width="116.45962732919256" fill="#009CA2" stroke="#009CA2" stroke-width="0" opacity="0.9" />
<rect x="10" y="81.62" height="3" width="116.45962732919256" fill="#F4EDF2" opacity="0.25" />
<rect x="126.45962732919256" y="80" height="9" width="104.8136645962733" fill="#D1D1D1" stroke="#D1D1D1" stroke-width="0" opacity="0.9" />
<rect x="126.45962732919256" y="81.62" height="3" width="104.8136645962733" fill="#F4EDF2" opacity="0.25" />
<line x1="231.27329192546586" y1="84.5" x2="643.5403726708075" y2="84.5" stroke="#BABABA" stroke-width="1.5" />
<rect x="643.5403726708075" y="80" height="9" width="116.45962732919256" fill="#009CA2" stroke="#009CA2" stroke-width="0" opacity="0.9" />
<rect x="643.5403726708075" y="81.62" height="3" width="116.45962732919256" fill="#F4EDF2" opacity="0.25" />
<path d="M 760.0000000000001 80 C 764.5000000000001 80, 764.5000000000001 89, 760.0000000000001 89" fill="#009CA2" opacity="0.9" />
<rect x="19.316770186335404" y="80" height="9" width="2.329192546583851" fill="#E3081C" stroke="#E3081C" stroke-width="0" opacity="0.9" />
<rect x="708.7577639751553" y="80" height="9" width="2.329192546583851" fill="#D00D2F" stroke="#D00D2F" stroke-width="0" opacity="0.9" />
<path d="M 10 91 C 5.5 91, 5.5 100, 10 100" fill="#009CA2" opacity="0.9" />
<rect x="10" y="91" height="9" width="116.45962732919256" fill="#009CA2" stroke="#009CA2" stroke-width="0" opacity="0.9" />
<rect x="10" y="92.62" height="3" width="116.45962732919256" fill="#F4EDF2" opacity="0.25" />
<rect x="126.45962732919256" y="91" height="9" width="104.8136645962733" fill="#D1D1D1" stroke="#D1D1D1" stroke-width="0" opacity="0.9" />
<rect x="126.45962732919256" y="92.62" height="3" width="104.8136645962733" fill="#F4EDF2" opacity="0.25" />
<line x1="231.27329192546586" y1="95.5" x2="643.5403726708075" y2="95.5" stroke="#BABABA" stroke-width="1.5" />
<rect x="643.5403726708075" y="91" height="9" width="116.45962732919256" fill="#009CA2" stroke="#009CA2" stroke-width="0" opacity="0.9" />
<rect x="643.5403726708075" y="92.62" height="3" width="116.45962732919256" fill="#F4EDF2" opacity="0.25" />
<path d="M 760.0000000000001 91 C 764.5000000000001 91, 764.5000000000001 100, 760.0000000000001 100" fill="#009CA2" opacity="0.9" />
<rect x="19.316770186335404" y="91" height="9" width="2.329192546583851" fill="#F4030B" stroke="#F4030B" stroke-width="0" opacity="0.9" />
<rect x="708.7577639751553" y="91" height="9" width="2.329192546583851" fill="#EC0513" stroke="#EC0513" stroke-width="0" opacity="0.9" />
<path d="M 10 102 C 5.5 102, 5.5 111, 10 111" fill="#009CA2" opacity="0.9" />
<rect x="10" y="102" height="9" width="116.45962732919256" fill="#009CA2" stroke="#009CA2" stroke-width="0" opacity="0.9" />
<rect x="10" y="103.62" height="3" width="116.45962732919256" fill="#F4EDF2" opacity="0.25" />
<rect x="126.45962732919256" y="102" height="9" width="104.8136645962733" fill="#D1D1D1" stroke="#D1D1D1" stroke-width="0" opacity="0.9" />
<rect x="126.45962732919256" y="103.62" height="3" width="104.8136645962733" fill="#F4EDF2" opacity="0.25" />
<line x1="231.27329192546586" y1="106.5" x2="643.5403726708075" y2="106.5" stroke="#BABABA" stroke-width="1.5" />
<rect x="643.5403726708075" y="102" height="9" width="116.45962732919256" fill="#009CA2" stroke="#009CA2" stroke-width="0" opacity="0.9" />
<rect x="643.5403726708075" y="103.62" height="3" width="116.45962732919256" fill="#F4EDF2" opacity="0.25" />
<path d="M 760.0000000000001 102 C 764.5000000000001 102, 764.5000000000001 111, 760.0000000000001 111" fill="#009CA2" opacity="0.9" />
<rect x="19.316770186335404" y="102" height="9" width="2.329192546583851" fill="#1D41E2" stroke="#1D41E2" stroke-width="0" opacity="0.9" />
<rect x="708.7577639751553" y="102" height="9" width="2.329192546583851" fill="#F4030B" stroke="#F4030B" stroke-width="0" opacity="0.9" />
<path d="M 10 113 C 5.5 113, 5.5 122, 10 122" fill="#009CA2" opacity="0.9" />
<rect x="10" y="113" height="9" width="116.45962732919256" fill="#009CA2" stroke="#009CA2" stroke-width="0" opacity="0.9" />
<rect x="10" y="114.62" height="3" width="116.45962732919256" fill="#F4EDF2" opacity="0.25" />
<rect x="126.45962732919256" y="113" height="9" width="104.8136645962733" fill="#D1D1D1" stroke="#D1D1D1" stroke-width="0" opacity="0.9" />
<rect x="126.45962732919256" y="114.62" height="3" width="104.8136645962733" fill="#F4EDF2" opacity="0.25" />
<line x1="231.27329192546586" y1="117.5" x2="643.5403726708075" y2="117.5" stroke="#BABABA" stroke-width="1.5" />
<rect x="643.5403726708075" y="113" height="9" width="116.45962732919256" fill="#009CA2" stroke="#009CA2" stroke-width="0" opacity="0.9" />
<rect x="643.5403726708075" y="114.62" height="3" width="116.45962732919256" fill="#F4EDF2" opacity="0.25" />
<path d="M 760.0000000000001 113 C 764.5000000000001 113, 764.5000000000001 122, 760.0000000000001 122" fill="#009CA2" opacity="0.9" />
<rect x="19.316770186335404" y="113" height="9" width="2.329192546583851" fill="#FF0000" stroke="#FF0000" stroke-width="0" opacity="0.9" />
<rect x="708.7577639751553" y="113" height="9" width="2.329192546583851" fill="#FE0001" stroke="#FE0001" stroke-width="0" opacity="0.9" />
<path d="M 10 124 C 5.5 124, 5.5 133, 10 133" fill="#009CA2" opacity="0.9" />
<rect x="10" y="124" height="9" width="116.45962732919256" fill="#009CA2" stroke="#009CA2" stroke-width="0" opacity="0.9" />
<rect x="10" y="125.62" height="3" width="116.45962732919256" fill="#F4EDF2" opacity="0.25" />
<rect x="126.45962732919256" y="124" height="9" width="496.11801242236027" fill="#D1D1D1" stroke="#D1D1D1" stroke-width="0" opacity="0.9" />
<rect x="126.45962732919256" y="125.62" height="3" width="496.11801242236027" fill="#F4EDF2" opacity="0.25" />
<line x1="622.5776397515529" y1="128.5" x2="643.5403726708075" y2="128.5" stroke="#BABABA" stroke-width="1.5" />
<rect x="643.5403726708075" y="124" height="9" width="46.58385093167702" fill="#009CA2" stroke="#009CA2" stroke-width="0" opacity="0.9" />
<rect x="643.5403726708075" y="125.62" height="3" width="46.58385093167702" fill="#F4EDF2" opacity="0.25" />
<rect x="690.1242236024846" y="124" height="9" width="2.329192546583851" fill="#BABABA" stroke="#BABABA" stroke-width="0" opacity="0.9" />
<rect x="690.1242236024846" y="125.62" height="3" width="2.329192546583851" fill="#F4EDF2" opacity="0.25" />
<rect x="692.4534161490684" y="124" height="9" width="67.54658385093168" fill="#009CA2" stroke="#009CA2" stroke-width="0" opacity="0.9" />
<rect x="692.4534161490684" y="125.62" height="3" width="67.54658385093168" fill="#F4EDF2" opacity="0.25" />
<path d="M 760.0000000000001 124 C 764.5000000000001 124, 764.5000000000001 133, 760.0000000000001 133" fill="#009CA2" opacity="0.9" />
<path d="M 10 135 C 5.5 135, 5.5 144, 10 144" fill="#009CA2" opacity="0.9" />
<rect x="10" y="135" height="9" width="116.45962732919256" fill="#009CA2" stroke="#009CA2" stroke-width="0" opacity="0.9" />
<rect x="10" y="136.62" height="3" width="116.45962732919256" fill="#F4EDF2" opacity="0.25" />
<rect x="126.45962732919256" y="135" height="9" width="496.11801242236027" fill="#D1D1D1" stroke="#D1D1D1" stroke-width="0" opacity="0.9" />
<rect x="126.45962732919256" y="136.62" height="3" width="496.11801242236027" fill="#F4EDF2" opacity="0.25" />
<line x1="622.5776397515529" y1="139.5" x2="643.5403726708075" y2="139.5" stroke="#BABABA" stroke-width="1.5" />
<rect x="643.5403726708075" y="135" height="9" width="116.45962732919256" fill="#009CA2" stroke="#009CA2" stroke-width="0" opacity="0.9" />
<rect x="643.5403726708075" y="136.62" height="3" width="116.45962732919256" fill="#F4EDF2" opacity="0.25" />
<path d="M 760.0000000000001 135 C 764.5000000000001 135, 764.5000000000001 144, 760.0000000000001 144" fill="#009CA2" opacity="0.9" />
<path d="M 10 146 C 5.5 146, 5.5 155, 10 155" fill="#009CA2" opacity="0.9" />
<rect x="10" y="146" height="9" width="116.45962732919256" fill="#009CA2" stroke="#009CA2" stroke-width="0" opacity="0.9" />
<rect x="10" y="147.62" height="3" width="116.45962732919256" fill="#F4EDF2" opacity="0.25" />
<rect x="126.45962732919256" y="146" height="9" width="498.4472049689441" fill="#D1D1D1" stroke="#D1D1D1" stroke-width="0" opacity="0.9" />
<rect x="126.45962732919256" y="147.62" height="3" width="498.4472049689441" fill="#F4EDF2" opacity="0.25" />
<line x1="624.9068322981367" y1="150.5" x2="643.5403726708075" y2="150.5" stroke="#BABABA" stroke-width="1.5" />
<rect x="643.5403726708075" y="146" height="9" width="116.45962732919256" fill="#009CA2" stroke="#009CA2" stroke-width="0" opacity="0.9" />
<rect x="643.5403726708075" y="147.62" height="3" width="116.45962732919256" fill="#F4EDF2" opacity="0.25" />
<path d="M 760.0000000000001 146 C 764.5000000000001 146, 764.5000000000001 155, 760.0000000000001 155" fill="#009CA2" opacity="0.9" />
<rect x="19.316770186335404" y="146" height="9" width="2.329192546583851" fill="#BD1342" stroke="#BD1342" stroke-width="0" opacity="0.9" />
<rect x="200.9937888198758" y="146" height="9" width="2.329192546583851" fill="#F60309" stroke="#F60309" stroke-width="0" opacity="0.9" />
<rect x="235.93167701863354" y="146" height="9" width="2.329192546583851" fill="#AF1750" stroke="#AF1750" stroke-width="0" opacity="0.9" />
<rect x="259.22360248447205" y="146" height="9" width="2.329192546583851" fill="#C0123F" stroke="#C0123F" stroke-width="0" opacity="0.9" />
<rect x="294.16149068322983" y="146" height="9" width="2.329192546583851" fill="#F80207" stroke="#F80207" stroke-width="0" opacity="0.9" />
<rect x="305.8074534161491" y="146" height="9" width="2.329192546583851" fill="#EA0615" stroke="#EA0615" stroke-width="0" opacity="0.9" />
<rect x="317.45341614906835" y="146" height="9" width="2.329192546583851" fill="#FD0102" stroke="#FD0102" stroke-width="0" opacity="0.9" />
<rect x="340.74534161490686" y="146" height="9" width="2.329192546583851" fill="#FE0001" stroke="#FE0001" stroke-width="0" opacity="0.9" />
<rect x="352.3913043478261" y="146" height="9" width="2.329192546583851" fill="#F60309" stroke="#F60309" stroke-width="0" opacity="0.9" />
<rect x="364.0372670807453" y="146" height="9" width="2.329192546583851" fill="#FD0102" stroke="#FD0102" stroke-width="0" opacity="0.9" />
<rect x="375.6832298136646" y="146" height="9" width="2.329192546583851" fill="#762789" stroke="#762789" stroke-width="0" opacity="0.9" />
<rect x="387.32919254658384" y="146" height="9" width="2.329192546583851" fill="#FE0001" stroke="#FE0001" stroke-width="0" opacity="0.9" />
<rect x="398.9751552795031" y="146" height="9" width="2.329192546583851" fill="#FF0000" stroke="#FF0000" stroke-width="0" opacity="0.9" />
<rect x="410.62111801242236" y="146" height="9" width="2.329192546583851" fill="#FB0104" stroke="#FB0104" stroke-width="0" opacity="0.9" />
<rect x="422.2670807453416" y="146" height="9" width="2.329192546583851" fill="#E1091E" stroke="#E1091E" stroke-width="0" opacity="0.9" />
<rect x="433.9130434782609" y="146" height="9" width="2.329192546583851" fill="#FF0000" stroke="#FF0000" stroke-width="0" opacity="0.9" />
<rect x="445.55900621118013" y="146" height="9" width="2.329192546583851" fill="#FF0000" stroke="#FF0000" stroke-width="0" opacity="0.9" />
<rect x="457.2049689440994" y="146" height="9" width="2.329192546583851" fill="#FB0104" stroke="#FB0104" stroke-width="0" opacity="0.9" />
<rect x="468.85093167701865" y="146" height="9" width="2.329192546583851" fill="#EE0511" stroke="#EE0511" stroke-width="0" opacity="0.9" />
<rect x="480.4968944099379" y="146" height="9" width="2.329192546583851" fill="#D50C2A" stroke="#D50C2A" stroke-width="0" opacity="0.9" />
<rect x="492.14285714285717" y="146" height="9" width="2.329192546583851" fill="#FF0000" stroke="#FF0000" stroke-width="0" opacity="0.9" />
<rect x="515.4347826086957" y="146" height="9" width="2.329192546583851" fill="#FC0103" stroke="#FC0103" stroke-width="0" opacity="0.9" />
<rect x="708.7577639751553" y="146" height="9" width="2.329192546583851" fill="#F80207" stroke="#F80207" stroke-width="0" opacity="0.9" />
<path d="M 10 157 C 5.5 157, 5.5 166, 10 166" fill="#009CA2" opacity="0.9" />
<rect x="10" y="157" height="9" width="116.45962732919256" fill="#009CA2" stroke="#009CA2" stroke-width="0" opacity="0.9" />
<rect x="10" y="158.62" height="3" width="116.45962732919256" fill="#F4EDF2" opacity="0.25" />
<rect x="126.45962732919256" y="157" height="9" width="498.4472049689441" fill="#D1D1D1" stroke="#D1D1D1" stroke-width="0" opacity="0.9" />
<rect x="126.45962732919256" y="158.62" height="3" width="498.4472049689441" fill="#F4EDF2" opacity="0.25" />
<line x1="624.9068322981367" y1="161.5" x2="643.5403726708075" y2="161.5" stroke="#BABABA" stroke-width="1.5" />
<rect x="643.5403726708075" y="157" height="9" width="116.45962732919256" fill="#009CA2" stroke="#009CA2" stroke-width="0" opacity="0.9" />
<rect x="643.5403726708075" y="158.62" height="3" width="116.45962732919256" fill="#F4EDF2" opacity="0.25" />
<path d="M 760.0000000000001 157 C 764.5000000000001 157, 764.5000000000001 166, 760.0000000000001 166" fill="#009CA2" opacity="0.9" />
<rect x="19.316770186335404" y="157" height="9" width="2.329192546583851" fill="#D30D2C" stroke="#D30D2C" stroke-width="0" opacity="0.9" />
<rect x="200.9937888198758" y="157" height="9" width="2.329192546583851" fill="#FE0001" stroke="#FE0001" stroke-width="0" opacity="0.9" />
<rect x="235.93167701863354" y="157" height="9" width="2.329192546583851" fill="#FC0103" stroke="#FC0103" stroke-width="0" opacity="0.9" />
<rect x="259.22360248447205" y="157" height="9" width="2.329192546583851" fill="#FF0000" stroke="#FF0000" stroke-width="0" opacity="0.9" />
<rect x="294.16149068322983" y="157" height="9" width="2.329192546583851" fill="#FE0001" stroke="#FE0001" stroke-width="0" opacity="0.9" />
<rect x="305.8074534161491" y="157" height="9" width="2.329192546583851" fill="#CC0F33" stroke="#CC0F33" stroke-width="0" opacity="0.9" />
<rect x="317.45341614906835" y="157" height="9" width="2.329192546583851" fill="#CF0E30" stroke="#CF0E30" stroke-width="0" opacity="0.9" />
<rect x="340.74534161490686" y="157" height="9" width="2.329192546583851" fill="#D80B27" stroke="#D80B27" stroke-width="0" opacity="0.9" />
<rect x="352.3913043478261" y="157" height="9" width="2.329192546583851" fill="#F2040D" stroke="#F2040D" stroke-width="0" opacity="0.9" />
<rect x="364.0372670807453" y="157" height="9" width="2.329192546583851" fill="#4C33B3" stroke="#4C33B3" stroke-width="0" opacity="0.9" />
<rect x="375.6832298136646" y="157" height="9" width="2.329192546583851" fill="#FA0105" stroke="#FA0105" stroke-width="0" opacity="0.9" />
<rect x="387.32919254658384" y="157" height="9" width="2.329192546583851" fill="#FF0000" stroke="#FF0000" stroke-width="0" opacity="0.9" />
<rect x="398.9751552795031" y="157" height="9" width="2.329192546583851" fill="#FE0001" stroke="#FE0001" stroke-width="0" opacity="0.9" />
<rect x="410.62111801242236" y="157" height="9" width="2.329192546583851" fill="#FF0000" stroke="#FF0000" stroke-width="0" opacity="0.9" />
<rect x="422.2670807453416" y="157" height="9" width="2.329192546583851" fill="#F1040E" stroke="#F1040E" stroke-width="0" opacity="0.9" />
<rect x="433.9130434782609" y="157" height="9" width="2.329192546583851" fill="#F60309" stroke="#F60309" stroke-width="0" opacity="0.9" />
<rect x="445.55900621118013" y="157" height="9" width="2.329192546583851" fill="#F60309" stroke="#F60309" stroke-width="0" opacity="0.9" />
<rect x="457.2049689440994" y="157" height="9" width="2.329192546583851" fill="#F3030C" stroke="#F3030C" stroke-width="0" opacity="0.9" />
<rect x="468.85093167701865" y="157" height="9" width="2.329192546583851" fill="#FF0000" stroke="#FF0000" stroke-width="0" opacity="0.9" />
<rect x="480.4968944099379" y="157" height="9" width="2.329192546583851" fill="#FA0105" stroke="#FA0105" stroke-width="0" opacity="0.9" />
<rect x="492.14285714285717" y="157" height="9" width="2.329192546583851" fill="#CA0F35" stroke="#CA0F35" stroke-width="0" opacity="0.9" />
<rect x="515.4347826086957" y="157" height="9" width="2.329192546583851" fill="#F70208" stroke="#F70208" stroke-width="0" opacity="0.9" />
<rect x="708.7577639751553" y="157" height="9" width="2.329192546583851" fill="#F3030C" stroke="#F3030C" stroke-width="0" opacity="0.9" />
<path d="M 10 168 C 5.5 168, 5.5 177, 10 177" fill="#009CA2" opacity="0.9" />
<rect x="10" y="168" height="9" width="116.45962732919256" fill="#009CA2" stroke="#009CA2" stroke-width="0" opacity="0.9" />
<rect x="10" y="169.62" height="3" width="116.45962732919256" fill="#F4EDF2" opacity="0.25" />
<rect x="126.45962732919256" y="168" height="9" width="498.4472049689441" fill="#D1D1D1" stroke="#D1D1D1" stroke-width="0" opacity="0.9" />
<rect x="126.45962732919256" y="169.62" height="3" width="498.4472049689441" fill="#F4EDF2" opacity="0.25" />
<line x1="624.9068322981367" y1="172.5" x2="643.5403726708075" y2="172.5" stroke="#BABABA" stroke-width="1.5" />
<rect x="643.5403726708075" y="168" height="9" width="116.45962732919256" fill="#009CA2" stroke="#009CA2" stroke-width="0" opacity="0.9" />
<rect x="643.5403726708075" y="169.62" height="3" width="116.45962732919256" fill="#F4EDF2" opacity="0.25" />
<path d="M 760.0000000000001 168 C 764.5000000000001 168, 764.5000000000001 177, 760.0000000000001 177" fill="#009CA2" opacity="0.9" />
<rect x="19.316770186335404" y="168" height="9" width="2.329192546583851" fill="#DC0A23" stroke="#DC0A23" stroke-width="0" opacity="0.9" />
<rect x="200.9937888198758" y="168" height="9" width="2.329192546583851" fill="#F80207" stroke="#F80207" stroke-width="0" opacity="0.9" />
<rect x="235.93167701863354" y="168" height="9" width="2.329192546583851" fill="#672C98" stroke="#672C98" stroke-width="0" opacity="0.9" />
<rect x="259.22360248447205" y="168" height="9" width="2.329192546583851" fill="#9F1B60" stroke="#9F1B60" stroke-width="0" opacity="0.9" />
<rect x="294.16149068322983" y="168" height="9" width="2.329192546583851" fill="#FE0001" stroke="#FE0001" stroke-width="0" opacity="0.9" />
<rect x="305.8074534161491" y="168" height="9" width="2.329192546583851" fill="#991D66" stroke="#991D66" stroke-width="0" opacity="0.9" />
<rect x="317.45341614906835" y="168" height="9" width="2.329192546583851" fill="#FE0001" stroke="#FE0001" stroke-width="0" opacity="0.9" />
<rect x="340.74534161490686" y="168" height="9" width="2.329192546583851" fill="#FF0000" stroke="#FF0000" stroke-width="0" opacity="0.9" />
<rect x="352.3913043478261" y="168" height="9" width="2.329192546583851" fill="#F70208" stroke="#F70208" stroke-width="0" opacity="0.9" />
<rect x="364.0372670807453" y="168" height="9" width="2.329192546583851" fill="#FE0001" stroke="#FE0001" stroke-width="0" opacity="0.9" />
<rect x="375.6832298136646" y="168" height="9" width="2.329192546583851" fill="#FF0000" stroke="#FF0000" stroke-width="0" opacity="0.9" />
<rect x="387.32919254658384" y="168" height="9" width="2.329192546583851" fill="#F60309" stroke="#F60309" stroke-width="0" opacity="0.9" />
<rect x="398.9751552795031" y="168" height="9" width="2.329192546583851" fill="#F1040E" stroke="#F1040E" stroke-width="0" opacity="0.9" />
<rect x="410.62111801242236" y="168" height="9" width="2.329192546583851" fill="#F60309" stroke="#F60309" stroke-width="0" opacity="0.9" />
<rect x="422.2670807453416" y="168" height="9" width="2.329192546583851" fill="#B71548" stroke="#B71548" stroke-width="0" opacity="0.9" />
<rect x="433.9130434782609" y="168" height="9" width="2.329192546583851" fill="#FB0104" stroke="#FB0104" stroke-width="0" opacity="0.9" />
<rect x="445.55900621118013" y="168" height="9" width="2.329192546583851" fill="#0548FA" stroke="#0548FA" stroke-width="0" opacity="0.9" />
<rect x="457.2049689440994" y="168" height="9" width="2.329192546583851" fill="#DC0A23" stroke="#DC0A23" stroke-width="0" opacity="0.9" />
<rect x="468.85093167701865" y="168" height="9" width="2.329192546583851" fill="#C90F36" stroke="#C90F36" stroke-width="0" opacity="0.9" />
<rect x="480.4968944099379" y="168" height="9" width="2.329192546583851" fill="#AE1751" stroke="#AE1751" stroke-width="0" opacity="0.9" />
<rect x="492.14285714285717" y="168" height="9" width="2.329192546583851" fill="#C0123F" stroke="#C0123F" stroke-width="0" opacity="0.9" />
<rect x="515.4347826086957" y="168" height="9" width="2.329192546583851" fill="#F4030B" stroke="#F4030B" stroke-width="0" opacity="0.9" />
<rect x="708.7577639751553" y="168" height="9" width="2.329192546583851" fill="#F60309" stroke="#F60309" stroke-width="0" opacity="0.9" />
<path d="M 10 179 C 5.5 179, 5.5 188, 10 188" fill="#009CA2" opacity="0.9" />
<rect x="10" y="179" height="9" width="116.45962732919256" fill="#009CA2" stroke="#009CA2" stroke-width="0" opacity="0.9" />
<rect x="10" y="180.62" height="3" width="116.45962732919256" fill="#F4EDF2" opacity="0.25" />
<rect x="126.45962732919256" y="179" height="9" width="498.4472049689441" fill="#D1D1D1" stroke="#D1D1D1" stroke-width="0" opacity="0.9" />
<rect x="126.45962732919256" y="180.62" height="3" width="498.4472049689441" fill="#F4EDF2" opacity="0.25" />
<line x1="624.9068322981367" y1="183.5" x2="643.5403726708075" y2="183.5" stroke="#BABABA" stroke-width="1.5" />
<rect x="643.5403726708075" y="179" height="9" width="116.45962732919256" fill="#009CA2" stroke="#009CA2" stroke-width="0" opacity="0.9" />
<rect x="643.5403726708075" y="180.62" height="3" width="116.45962732919256" fill="#F4EDF2" opacity="0.25" />
<path d="M 760.0000000000001 179 C 764.5000000000001 179, 764.5000000000001 188, 760.0000000000001 188" fill="#009CA2" opacity="0.9" />
<rect x="19.316770186335404" y="179" height="9" width="2.329192546583851" fill="#5A2FA5" stroke="#5A2FA5" stroke-width="0" opacity="0.9" />
<rect x="200.9937888198758" y="179" height="9" width="2.329192546583851" fill="#EC0513" stroke="#EC0513" stroke-width="0" opacity="0.9" />
<rect x="235.93167701863354" y="179" height="9" width="2.329192546583851" fill="#FE0001" stroke="#FE0001" stroke-width="0" opacity="0.9" />
<rect x="259.22360248447205" y="179" height="9" width="2.329192546583851" fill="#F70208" stroke="#F70208" stroke-width="0" opacity="0.9" />
<rect x="294.16149068322983" y="179" height="9" width="2.329192546583851" fill="#EA0615" stroke="#EA0615" stroke-width="0" opacity="0.9" />
<rect x="305.8074534161491" y="179" height="9" width="2.329192546583851" fill="#9D1C62" stroke="#9D1C62" stroke-width="0" opacity="0.9" />
<rect x="317.45341614906835" y="179" height="9" width="2.329192546583851" fill="#F80207" stroke="#F80207" stroke-width="0" opacity="0.9" />
<rect x="340.74534161490686" y="179" height="9" width="2.329192546583851" fill="#E60719" stroke="#E60719" stroke-width="0" opacity="0.9" />
<rect x="352.3913043478261" y="179" height="9" width="2.329192546583851" fill="#D50C2A" stroke="#D50C2A" stroke-width="0" opacity="0.9" />
<rect x="364.0372670807453" y="179" height="9" width="2.329192546583851" fill="#FA0105" stroke="#FA0105" stroke-width="0" opacity="0.9" />
<rect x="375.6832298136646" y="179" height="9" width="2.329192546583851" fill="#FF0000" stroke="#FF0000" stroke-width="0" opacity="0.9" />
<rect x="387.32919254658384" y="179" height="9" width="2.329192546583851" fill="#FA0105" stroke="#FA0105" stroke-width="0" opacity="0.9" />
<rect x="398.9751552795031" y="179" height="9" width="2.329192546583851" fill="#981D67" stroke="#981D67" stroke-width="0" opacity="0.9" />
<rect x="410.62111801242236" y="179" height="9" width="2.329192546583851" fill="#FF0000" stroke="#FF0000" stroke-width="0" opacity="0.9" />
<rect x="422.2670807453416" y="179" height="9" width="2.329192546583851" fill="#FE0001" stroke="#FE0001" stroke-width="0" opacity="0.9" />
<rect x="433.9130434782609" y="179" height="9" width="2.329192546583851" fill="#F80207" stroke="#F80207" stroke-width="0" opacity="0.9" />
<rect x="445.55900621118013" y="179" height="9" width="2.329192546583851" fill="#FE0001" stroke="#FE0001" stroke-width="0" opacity="0.9" />
<rect x="457.2049689440994" y="179" height="9" width="2.329192546583851" fill="#C5113A" stroke="#C5113A" stroke-width="0" opacity="0.9" />
<rect x="468.85093167701865" y="179" height="9" width="2.329192546583851" fill="#EE0511" stroke="#EE0511" stroke-width="0" opacity="0.9" />
<rect x="480.4968944099379" y="179" height="9" width="2.329192546583851" fill="#FF0000" stroke="#FF0000" stroke-width="0" opacity="0.9" />
<rect x="492.14285714285717" y="179" height="9" width="2.329192546583851" fill="#FF0000" stroke="#FF0000" stroke-width="0" opacity="0.9" />
<rect x="515.4347826086957" y="179" height="9" width="2.329192546583851" fill="#FA0105" stroke="#FA0105" stroke-width="0" opacity="0.9" />
<rect x="708.7577639751553" y="179" height="9" width="2.329192546583851" fill="#FF0000" stroke="#FF0000" stroke-width="0" opacity="0.9" />
<path d="M 10 190 C 5.5 190, 5.5 199, 10 199" fill="#009CA2" opacity="0.9" />
<rect x="10" y="190" height="9" width="116.45962732919256" fill="#009CA2" stroke="#009CA2" stroke-width="0" opacity="0.9" />
<rect x="10" y="191.62" height="3" width="116.45962732919256" fill="#F4EDF2" opacity="0.25" />
<rect x="126.45962732919256" y="190" height="9" width="498.4472049689441" fill="#D1D1D1" stroke="#D1D1D1" stroke-width="0" opacity="0.9" />
<rect x="126.45962732919256" y="191.62" height="3" width="498.4472049689441" fill="#F4EDF2" opacity="0.25" />
<line x1="624.9068322981367" y1="194.5" x2="643.5403726708075" y2="194.5" stroke="#BABABA" stroke-width="1.5" />
<rect x="643.5403726708075" y="190" height="9" width="116.45962732919256" fill="#009CA2" stroke="#009CA2" stroke-width="0" opacity="0.9" />
<rect x="643.5403726708075" y="191.62" height="3" width="116.45962732919256" fill="#F4EDF2" opacity="0.25" />
<path d="M 760.0000000000001 190 C 764.5000000000001 190, 764.5000000000001 199, 760.0000000000001 199" fill="#009CA2" opacity="0.9" />
<path d="M 10 201 C 5.5 201, 5.5 210, 10 210" fill="#009CA2" opacity="0.9" />
<rect x="10" y="201" height="9" width="116.45962732919256" fill="#009CA2" stroke="#009CA2" stroke-width="0" opacity="0.9" />
<rect x="10" y="202.62" height="3" width="116.45962732919256" fill="#F4EDF2" opacity="0.25" />
<rect x="126.45962732919256" y="201" height="9" width="505.4347826086957" fill="#D1D1D1" stroke="#D1D1D1" stroke-width="0" opacity="0.9" />
<rect x="126.45962732919256" y="202.62" height="3" width="505.4347826086957" fill="#F4EDF2" opacity="0.25" />
<line x1="631.8944099378882" y1="205.5" x2="643.5403726708074" y2="205.5" stroke="#BABABA" stroke-width="1.5" />
<rect x="643.5403726708074" y="201" height="9" width="60.559006211180126" fill="#009CA2" stroke="#009CA2" stroke-width="0" opacity="0.9" />
<rect x="643.5403726708074" y="202.62" height="3" width="60.559006211180126" fill="#F4EDF2" opacity="0.25" />
<line x1="704.0993788819875" y1="205.5" x2="706.4285714285713" y2="205.5" stroke="#009CA2" stroke-width="1.5" />
<rect x="706.4285714285713" y="201" height="9" width="53.57142857142857" fill="#009CA2" stroke="#009CA2" stroke-width="0" opacity="0.9" />
<rect x="706.4285714285713" y="202.62" height="3" width="53.57142857142857" fill="#F4EDF2" opacity="0.25" />
<path d="M 759.9999999999999 201 C 764.4999999999999 201, 764.4999999999999 210, 759.9999999999999 210" fill="#009CA2" opacity="0.9" />
<line x1="759.9999999999999" y1="201" x2="759.9999999999999" y2="210" stroke="#000000" stroke-width="2" />
<path d="M 10 212 C 5.5 212, 5.5 221, 10 221" fill="#009CA2" opacity="0.9" />
<rect x="10" y="212" height="9" width="116.45962732919256" fill="#009CA2" stroke="#009CA2" stroke-width="0" opacity="0.9" />
<rect x="10" y="213.62" height="3" width="116.45962732919256" fill="#F4EDF2" opacity="0.25" />
<rect x="126.45962732919256" y="212" height="9" width="517.0807453416149" fill="#D1D1D1" stroke="#D1D1D1" stroke-width="0" opacity="0.9" />
<rect x="126.45962732919256" y="213.62" height="3" width="517.0807453416149" fill="#F4EDF2" opacity="0.25" />
<rect x="643.5403726708075" y="212" height="9" width="116.45962732919256" fill="#009CA2" stroke="#009CA2" stroke-width="0" opacity="0.9" />
<rect x="643.5403726708075" y="213.62" height="3" width="116.45962732919256" fill="#F4EDF2" opacity="0.25" />
<path d="M 760.0000000000001 212 C 764.5000000000001 212, 764.5000000000001 221, 760.0000000000001 221" fill="#009CA2" opacity="0.9" />
<rect x="19.316770186335404" y="212" height="9" width="2.329192546583851" fill="#FD0102" stroke="#FD0102" stroke-width="0" opacity="0.9" />
<rect x="200.9937888198758" y="212" height="9" width="2.329192546583851" fill="#FD0102" stroke="#FD0102" stroke-width="0" opacity="0.9" />
<rect x="235.93167701863354" y="212" height="9" width="2.329192546583851" fill="#FF0000" stroke="#FF0000" stroke-width="0" opacity="0.9" />
<rect x="259.22360248447205" y="212" height="9" width="2.329192546583851" fill="#FF0000" stroke="#FF0000" stroke-width="0" opacity="0.9" />
<rect x="294.16149068322983" y="212" height="9" width="2.329192546583851" fill="#CD0E32" stroke="#CD0E32" stroke-width="0" opacity="0.9" />
<rect x="305.8074534161491" y="212" height="9" width="2.329192546583851" fill="#F70208" stroke="#F70208" stroke-width="0" opacity="0.9" />
<rect x="317.45341614906835" y="212" height="9" width="2.329192546583851" fill="#F70208" stroke="#F70208" stroke-width="0" opacity="0.9" />
<rect x="340.74534161490686" y="212" height="9" width="2.329192546583851" fill="#FB0104" stroke="#FB0104" stroke-width="0" opacity="0.9" />
<rect x="350.0621118012422" y="212" height="9" width="2.329192546583851" fill="#FE0001" stroke="#FE0001" stroke-width="0" opacity="0.9" />
<rect x="361.7080745341615" y="212" height="9" width="2.329192546583851" fill="#F3030C" stroke="#F3030C" stroke-width="0" opacity="0.9" />
<rect x="373.35403726708074" y="212" height="9" width="2.329192546583851" fill="#4635B9" stroke="#4635B9" stroke-width="0" opacity="0.9" />
<rect x="385" y="212" height="9" width="2.329192546583851" fill="#FE0001" stroke="#FE0001" stroke-width="0" opacity="0.9" />
<rect x="396.64596273291926" y="212" height="9" width="2.329192546583851" fill="#FF0000" stroke="#FF0000" stroke-width="0" opacity="0.9" />
<rect x="408.2919254658385" y="212" height="9" width="2.329192546583851" fill="#FB0104" stroke="#FB0104" stroke-width="0" opacity="0.9" />
<rect x="419.9378881987578" y="212" height="9" width="2.329192546583851" fill="#FC0103" stroke="#FC0103" stroke-width="0" opacity="0.9" />
<rect x="431.58385093167703" y="212" height="9" width="2.329192546583851" fill="#FF0000" stroke="#FF0000" stroke-width="0" opacity="0.9" />
<rect x="440.90062111801245" y="212" height="9" width="2.329192546583851" fill="#FF0000" stroke="#FF0000" stroke-width="0" opacity="0.9" />
<rect x="452.5465838509317" y="212" height="9" width="2.329192546583851" fill="#FF0000" stroke="#FF0000" stroke-width="0" opacity="0.9" />
<rect x="464.19254658385097" y="212" height="9" width="2.329192546583851" fill="#F90206" stroke="#F90206" stroke-width="0" opacity="0.9" />
<rect x="475.8385093167702" y="212" height="9" width="2.329192546583851" fill="#FC0103" stroke="#FC0103" stroke-width="0" opacity="0.9" />
<rect x="487.48447204968943" y="212" height="9" width="2.329192546583851" fill="#FE0001" stroke="#FE0001" stroke-width="0" opacity="0.9" />
<rect x="499.1304347826087" y="212" height="9" width="2.329192546583851" fill="#882277" stroke="#882277" stroke-width="0" opacity="0.9" />
<rect x="522.4223602484473" y="212" height="9" width="2.329192546583851" fill="#1643E9" stroke="#1643E9" stroke-width="0" opacity="0.9" />
<rect x="708.7577639751553" y="212" height="9" width="2.329192546583851" fill="#FC0103" stroke="#FC0103" stroke-width="0" opacity="0.9" />
<rect x="10" y="227" height="12" width="12" fill="#1383C6" stroke="#1383C6" stroke-width="0" opacity="0.9" />
<text x="24" y="238" font-family="monospace" font-weight="bold" font-size="14px" >AAAAG</text>
<rect x="79" y="227" height="12" width="12" fill="#814ED1" stroke="#814ED1" stroke-width="0" opacity="0.9" />
<text x="93" y="238" font-family="monospace" font-weight="bold" font-size="14px" >AAAGG</text>
<rect x="148" y="227" height="12" width="12" fill="#E16A2C" stroke="#E16A2C" stroke-width="0" opacity="0.9" />
<text x="162" y="238" font-family="monospace" font-weight="bold" font-size="14px" >AAGGG</text>
<rect x="217" y="227" height="12" width="12" fill="#ED3981" stroke="#ED3981" stroke-width="0" opacity="0.9" />
<text x="231" y="238" font-family="monospace" font-weight="bold" font-size="14px" >AAGAG</text>
<rect x="286" y="227" height="12" width="12" fill="#EFCD17" stroke="#EFCD17" stroke-width="0" opacity="0.9" />
<text x="300" y="238" font-family="monospace" font-weight="bold" font-size="14px" >AGAGG</text>
<rect x="355" y="227" height="12" width="12" fill="#009D4E" stroke="#009D4E" stroke-width="0" opacity="0.9" />
<text x="369" y="238" font-family="monospace" font-weight="bold" font-size="14px" >AACGG</text>
<rect x="424" y="227" height="12" width="12" fill="#E3371E" stroke="#E3371E" stroke-width="0" opacity="0.9" />
<text x="438" y="238" font-family="monospace" font-weight="bold" font-size="14px" >GGGAC</text>
<rect x="493" y="227" height="12" width="12" fill="#F0E68C" stroke="#F0E68C" stroke-width="0" opacity="0.9" />
<text x="507" y="238" font-family="monospace" font-weight="bold" font-size="14px" >AAAGGG</text>
</svg>
