<?xml version="1.0"?>
<svg xmlns="http://www.w3.org/2000/svg" xmlns:xlink="http://www.w3.org/1999/xlink" width="770" height="277">
<rect width="100%" height="100%" fill="white"/>
<path d="M 10 14 C 5.5 14, 5.5 23, 10 23" fill="#009CA2" opacity="0.9" />
<rect x="10" y="14" height="9" width="126.26262626262626" fill="#009CA2" stroke="#009CA2" stroke-width="0" opacity="0.9" />
<rect x="10" y="15.62" height="3" width="126.26262626262626" fill="#F4EDF2" opacity="0.25" />
<rect x="136.26262626262627" y="14" height="9" width="103.53535353535352" fill="#D1D1D1" stroke="#D1D1D1" stroke-width="0" opacity="0.9" />
<rect x="136.26262626262627" y="15.62" height="3" width="103.53535353535352" fill="#F4EDF2" opacity="0.25" />
<line x1="239.7979797979798" y1="18.5" x2="633.7373737373737" y2="18.5" stroke="#BABABA" stroke-width="1.5" />
<rect x="633.7373737373737" y="14" height="9" width="126.26262626262626" fill="#009CA2" stroke="#009CA2" stroke-width="0" opacity="0.9" />
<rect x="633.7373737373737" y="15.62" height="3" width="126.26262626262626" fill="#F4EDF2" opacity="0.25" />
<path d="M 759.9999999999999 14 C 764.4999999999999 14, 764.4999999999999 23, 759.9999999999999 23" fill="#009CA2" opacity="0.9" />
<path d="M 10 25 C 5.5 25, 5.5 34, 10 34" fill="#009CA2" opacity="0.9" />
<rect x="10" y="25" height="9" width="126.26262626262626" fill="#009CA2" stroke="#009CA2" stroke-width="0" opacity="0.9" />
<rect x="10" y="26.62" height="3" width="126.26262626262626" fill="#F4EDF2" opacity="0.25" />
<rect x="136.26262626262627" y="25" height="9" width="103.53535353535352" fill="#D1D1D1" stroke="#D1D1D1" stroke-width="0" opacity="0.9" />
<rect x="136.26262626262627" y="26.62" height="3" width="103.53535353535352" fill="#F4EDF2" opacity="0.25" />
<line x1="239.7979797979798" y1="29.5" x2="633.7373737373737" y2="29.5" stroke="#BABABA" stroke-width="1.5" />
<rect x="633.7373737373737" y="25" height="9" width="126.26262626262626" fill="#009CA2" stroke="#009CA2" stroke-width="0" opacity="0.9" />
<rect x="633.7373737373737" y="26.62" height="3" width="126.26262626262626" fill="#F4EDF2" opacity="0.25" />
<path d="M 759.9999999999999 25 C 764.4999999999999 25, 764.4999999999999 34, 759.9999999999999 34" fill="#009CA2" opacity="0.9" />
<path d="M 10 36 C 5.5 36, 5.5 45, 10 45" fill="#009CA2" opacity="0.9" />
<rect x="10" y="36" height="9" width="126.26262626262626" fill="#009CA2" stroke="#009CA2" stroke-width="0" opacity="0.9" />
<rect x="10" y="37.62" height="3" width="126.26262626262626" fill="#F4EDF2" opacity="0.25" />
<rect x="136.26262626262627" y="36" height="9" width="103.53535353535352" fill="#D1D1D1" stroke="#D1D1D1" stroke-width="0" opacity="0.9" />
<rect x="136.26262626262627" y="37.62" height="3" width="103.53535353535352" fill="#F4EDF2" opacity="0.25" />
<line x1="239.7979797979798" y1="40.5" x2="633.7373737373737" y2="40.5" stroke="#BABABA" stroke-width="1.5" />
<rect x="633.7373737373737" y="36" height="9" width="126.26262626262626" fill="#009CA2" stroke="#009CA2" stroke-width="0" opacity="0.9" />
<rect x="633.7373737373737" y="37.62" height="3" width="126.26262626262626" fill="#F4EDF2" opacity="0.25" />
<path d="M 759.9999999999999 36 C 764.4999999999999 36, 764.4999999999999 45, 759.9999999999999 45" fill="#009CA2" opacity="0.9" />
<path d="M 10 47 C 5.5 47, 5.5 56, 10 56" fill="#009CA2" opacity="0.9" />
<rect x="10" y="47" height="9" width="126.26262626262626" fill="#009CA2" stroke="#009CA2" stroke-width="0" opacity="0.9" />
<rect x="10" y="48.62" height="3" width="126.26262626262626" fill="#F4EDF2" opacity="0.25" />
<rect x="136.26262626262627" y="47" height="9" width="103.53535353535352" fill="#D1D1D1" stroke="#D1D1D1" stroke-width="0" opacity="0.9" />
<rect x="136.26262626262627" y="48.62" height="3" width="103.53535353535352" fill="#F4EDF2" opacity="0.25" />
<line x1="239.7979797979798" y1="51.5" x2="633.7373737373737" y2="51.5" stroke="#BABABA" stroke-width="1.5" />
<rect x="633.7373737373737" y="47" height="9" width="126.26262626262626" fill="#009CA2" stroke="#009CA2" stroke-width="0" opacity="0.9" />
<rect x="633.7373737373737" y="48.62" height="3" width="126.26262626262626" fill="#F4EDF2" opacity="0.25" />
<path d="M 759.9999999999999 47 C 764.4999999999999 47, 764.4999999999999 56, 759.9999999999999 56" fill="#009CA2" opacity="0.9" />
<path d="M 10 58 C 5.5 58, 5.5 67, 10 67" fill="#009CA2" opacity="0.9" />
<rect x="10" y="58" height="9" width="65.65656565656565" fill="#009CA2" stroke="#009CA2" stroke-width="0" opacity="0.9" />
<rect x="10" y="59.62" height="3" width="65.65656565656565" fill="#F4EDF2" opacity="0.25" />
<line x1="75.65656565656565" y1="62.5" x2="78.18181818181817" y2="62.5" stroke="#009CA2" stroke-width="1.5" />
<rect x="78.18181818181817" y="58" height="9" width="58.080808080808076" fill="#009CA2" stroke="#009CA2" stroke-width="0" opacity="0.9" />
<rect x="78.18181818181817" y="59.62" height="3" width="58.080808080808076" fill="#F4EDF2" opacity="0.25" />
<rect x="136.26262626262624" y="58" height="9" width="103.53535353535352" fill="#D1D1D1" stroke="#D1D1D1" stroke-width="0" opacity="0.9" />
<rect x="136.26262626262624" y="59.62" height="3" width="103.53535353535352" fill="#F4EDF2" opacity="0.25" />
<line x1="239.79797979797976" y1="62.5" x2="633.7373737373737" y2="62.5" stroke="#BABABA" stroke-width="1.5" />
<rect x="633.7373737373737" y="58" height="9" width="116.16161616161615" fill="#009CA2" stroke="#009CA2" stroke-width="0" opacity="0.9" />
<rect x="633.7373737373737" y="59.62" height="3" width="116.16161616161615" fill="#F4EDF2" opacity="0.25" />
<rect x="749.8989898989898" y="58" height="9" width="10.1010101010101" fill="#BABABA" stroke="#BABABA" stroke-width="0" opacity="0.9" />
<rect x="749.8989898989898" y="59.62" height="3" width="10.1010101010101" fill="#F4EDF2" opacity="0.25" />
<path d="M 759.9999999999999 58 C 764.4999999999999 58, 764.4999999999999 67, 759.9999999999999 67" fill="#009CA2" opacity="0.9" />
<line x1="10" y1="58" x2="10" y2="67" stroke="#000000" stroke-width="2" />
<path d="M 10 69 C 5.5 69, 5.5 78, 10 78" fill="#009CA2" opacity="0.9" />
<rect x="10" y="69" height="9" width="126.26262626262626" fill="#009CA2" stroke="#009CA2" stroke-width="0" opacity="0.9" />
<rect x="10" y="70.62" height="3" width="126.26262626262626" fill="#F4EDF2" opacity="0.25" />
<rect x="136.26262626262627" y="69" height="9" width="103.53535353535352" fill="#D1D1D1" stroke="#D1D1D1" stroke-width="0" opacity="0.9" />
<rect x="136.26262626262627" y="70.62" height="3" width="103.53535353535352" fill="#F4EDF2" opacity="0.25" />
<line x1="239.7979797979798" y1="73.5" x2="633.7373737373737" y2="73.5" stroke="#BABABA" stroke-width="1.5" />
<rect x="633.7373737373737" y="69" height="9" width="126.26262626262626" fill="#009CA2" stroke="#009CA2" stroke-width="0" opacity="0.9" />
<rect x="633.7373737373737" y="70.62" height="3" width="126.26262626262626" fill="#F4EDF2" opacity="0.25" />
<path d="M 759.9999999999999 69 C 764.4999999999999 69, 764.4999999999999 78, 759.9999999999999 78" fill="#009CA2" opacity="0.9" />
<path d="M 10 80 C 5.5 80, 5.5 89, 10 89" fill="#009CA2" opacity="0.9" />
<rect x="10" y="80" height="9" width="126.26262626262626" fill="#009CA2" stroke="#009CA2" stroke-width="0" opacity="0.9" />
<rect x="10" y="81.62" height="3" width="126.26262626262626" fill="#F4EDF2" opacity="0.25" />
<rect x="136.26262626262627" y="80" height="9" width="103.53535353535352" fill="#D1D1D1" stroke="#D1D1D1" stroke-width="0" opacity="0.9" />
<rect x="136.26262626262627" y="81.62" height="3" width="103.53535353535352" fill="#F4EDF2" opacity="0.25" />
<line x1="239.7979797979798" y1="84.5" x2="633.7373737373737" y2="84.5" stroke="#BABABA" stroke-width="1.5" />
<rect x="633.7373737373737" y="80" height="9" width="126.26262626262626" fill="#009CA2" stroke="#009CA2" stroke-width="0" opacity="0.9" />
<rect x="633.7373737373737" y="81.62" height="3" width="126.26262626262626" fill="#F4EDF2" opacity="0.25" />
<path d="M 759.9999999999999 80 C 764.4999999999999 80, 764.4999999999999 89, 759.9999999999999 89" fill="#009CA2" opacity="0.9" />
<path d="M 10 91 C 5.5 91, 5.5 100, 10 100" fill="#009CA2" opacity="0.9" />
<rect x="10" y="91" height="9" width="126.26262626262626" fill="#009CA2" stroke="#009CA2" stroke-width="0" opacity="0.9" />
<rect x="10" y="92.62" height="3" width="126.26262626262626" fill="#F4EDF2" opacity="0.25" />
<rect x="136.26262626262627" y="91" height="9" width="103.53535353535352" fill="#D1D1D1" stroke="#D1D1D1" stroke-width="0" opacity="0.9" />
<rect x="136.26262626262627" y="92.62" height="3" width="103.53535353535352" fill="#F4EDF2" opacity="0.25" />
<line x1="239.7979797979798" y1="95.5" x2="633.7373737373737" y2="95.5" stroke="#BABABA" stroke-width="1.5" />
<rect x="633.7373737373737" y="91" height="9" width="126.26262626262626" fill="#009CA2" stroke="#009CA2" stroke-width="0" opacity="0.9" />
<rect x="633.7373737373737" y="92.62" height="3" width="126.26262626262626" fill="#F4EDF2" opacity="0.25" />
<path d="M 759.9999999999999 91 C 764.4999999999999 91, 764.4999999999999 100, 759.9999999999999 100" fill="#009CA2" opacity="0.9" />
<path d="M 10 102 C 5.5 102, 5.5 111, 10 111" fill="#009CA2" opacity="0.9" />
<rect x="10" y="102" height="9" width="65.65656565656565" fill="#009CA2" stroke="#009CA2" stroke-width="0" opacity="0.9" />
<rect x="10" y="103.62" height="3" width="65.65656565656565" fill="#F4EDF2" opacity="0.25" />
<line x1="75.65656565656565" y1="106.5" x2="78.18181818181817" y2="106.5" stroke="#009CA2" stroke-width="1.5" />
<rect x="78.18181818181817" y="102" height="9" width="58.080808080808076" fill="#009CA2" stroke="#009CA2" stroke-width="0" opacity="0.9" />
<rect x="78.18181818181817" y="103.62" height="3" width="58.080808080808076" fill="#F4EDF2" opacity="0.25" />
<rect x="136.26262626262624" y="102" height="9" width="103.53535353535352" fill="#D1D1D1" stroke="#D1D1D1" stroke-width="0" opacity="0.9" />
<rect x="136.26262626262624" y="103.62" height="3" width="103.53535353535352" fill="#F4EDF2" opacity="0.25" />
<line x1="239.79797979797976" y1="106.5" x2="633.7373737373737" y2="106.5" stroke="#BABABA" stroke-width="1.5" />
<rect x="633.7373737373737" y="102" height="9" width="126.26262626262626" fill="#009CA2" stroke="#009CA2" stroke-width="0" opacity="0.9" />
<rect x="633.7373737373737" y="103.62" height="3" width="126.26262626262626" fill="#F4EDF2" opacity="0.25" />
<path d="M 759.9999999999999 102 C 764.4999999999999 102, 764.4999999999999 111, 759.9999999999999 111" fill="#009CA2" opacity="0.9" />
<line x1="10" y1="102" x2="10" y2="111" stroke="#000000" stroke-width="2" />
<path d="M 10 113 C 5.5 113, 5.5 122, 10 122" fill="#009CA2" opacity="0.9" />
<rect x="10" y="113" height="9" width="126.26262626262626" fill="#009CA2" stroke="#009CA2" stroke-width="0" opacity="0.9" />
<rect x="10" y="114.62" height="3" width="126.26262626262626" fill="#F4EDF2" opacity="0.25" />
<rect x="136.26262626262627" y="113" height="9" width="103.53535353535352" fill="#D1D1D1" stroke="#D1D1D1" stroke-width="0" opacity="0.9" />
<rect x="136.26262626262627" y="114.62" height="3" width="103.53535353535352" fill="#F4EDF2" opacity="0.25" />
<line x1="239.7979797979798" y1="117.5" x2="633.7373737373737" y2="117.5" stroke="#BABABA" stroke-width="1.5" />
<rect x="633.7373737373737" y="113" height="9" width="126.26262626262626" fill="#009CA2" stroke="#009CA2" stroke-width="0" opacity="0.9" />
<rect x="633.7373737373737" y="114.62" height="3" width="126.26262626262626" fill="#F4EDF2" opacity="0.25" />
<path d="M 759.9999999999999 113 C 764.4999999999999 113, 764.4999999999999 122, 759.9999999999999 122" fill="#009CA2" opacity="0.9" />
<path d="M 10 124 C 5.5 124, 5.5 133, 10 133" fill="#009CA2" opacity="0.9" />
<rect x="10" y="124" height="9" width="126.26262626262626" fill="#009CA2" stroke="#009CA2" stroke-width="0" opacity="0.9" />
<rect x="10" y="125.62" height="3" width="126.26262626262626" fill="#F4EDF2" opacity="0.25" />
<rect x="136.26262626262627" y="124" height="9" width="103.53535353535352" fill="#D1D1D1" stroke="#D1D1D1" stroke-width="0" opacity="0.9" />
<rect x="136.26262626262627" y="125.62" height="3" width="103.53535353535352" fill="#F4EDF2" opacity="0.25" />
<line x1="239.7979797979798" y1="128.5" x2="633.7373737373737" y2="128.5" stroke="#BABABA" stroke-width="1.5" />
<rect x="633.7373737373737" y="124" height="9" width="126.26262626262626" fill="#009CA2" stroke="#009CA2" stroke-width="0" opacity="0.9" />
<rect x="633.7373737373737" y="125.62" height="3" width="126.26262626262626" fill="#F4EDF2" opacity="0.25" />
<path d="M 759.9999999999999 124 C 764.4999999999999 124, 764.4999999999999 133, 759.9999999999999 133" fill="#009CA2" opacity="0.9" />
<path d="M 10 135 C 5.5 135, 5.5 144, 10 144" fill="#009CA2" opacity="0.9" />
<rect x="10" y="135" height="9" width="126.26262626262626" fill="#009CA2" stroke="#009CA2" stroke-width="0" opacity="0.9" />
<rect x="10" y="136.62" height="3" width="126.26262626262626" fill="#F4EDF2" opacity="0.25" />
<rect x="136.26262626262627" y="135" height="9" width="462.12121212121207" fill="#D1D1D1" stroke="#D1D1D1" stroke-width="0" opacity="0.9" />
<rect x="136.26262626262627" y="136.62" height="3" width="462.12121212121207" fill="#F4EDF2" opacity="0.25" />
<line x1="598.3838383838383" y1="139.5" x2="633.7373737373737" y2="139.5" stroke="#BABABA" stroke-width="1.5" />
<rect x="633.7373737373737" y="135" height="9" width="126.26262626262626" fill="#009CA2" stroke="#009CA2" stroke-width="0" opacity="0.9" />
<rect x="633.7373737373737" y="136.62" height="3" width="126.26262626262626" fill="#F4EDF2" opacity="0.25" />
<path d="M 759.9999999999999 135 C 764.4999999999999 135, 764.4999999999999 144, 759.9999999999999 144" fill="#009CA2" opacity="0.9" />
<path d="M 10 146 C 5.5 146, 5.5 155, 10 155" fill="#009CA2" opacity="0.9" />
<rect x="10" y="146" height="9" width="126.26262626262626" fill="#009CA2" stroke="#009CA2" stroke-width="0" opacity="0.9" />
<rect x="10" y="147.62" height="3" width="126.26262626262626" fill="#F4EDF2" opacity="0.25" />
<rect x="136.26262626262627" y="146" height="9" width="472.2222222222222" fill="#D1D1D1" stroke="#D1D1D1" stroke-width="0" opacity="0.9" />
<rect x="136.26262626262627" y="147.62" height="3" width="472.2222222222222" fill="#F4EDF2" opacity="0.25" />
<line x1="608.4848484848485" y1="150.5" x2="633.7373737373738" y2="150.5" stroke="#BABABA" stroke-width="1.5" />
<rect x="633.7373737373738" y="146" height="9" width="126.26262626262626" fill="#009CA2" stroke="#009CA2" stroke-width="0" opacity="0.9" />
<rect x="633.7373737373738" y="147.62" height="3" width="126.26262626262626" fill="#F4EDF2" opacity="0.25" />
<path d="M 760 146 C 764.5 146, 764.5 155, 760 155" fill="#009CA2" opacity="0.9" />
<path d="M 10 157 C 5.5 157, 5.5 166, 10 166" fill="#009CA2" opacity="0.9" />
<rect x="10" y="157" height="9" width="126.26262626262626" fill="#009CA2" stroke="#009CA2" stroke-width="0" opacity="0.9" />
<rect x="10" y="158.62" height="3" width="126.26262626262626" fill="#F4EDF2" opacity="0.25" />
<rect x="136.26262626262627" y="157" height="9" width="474.7474747474747" fill="#D1D1D1" stroke="#D1D1D1" stroke-width="0" opacity="0.9" />
<rect x="136.26262626262627" y="158.62" height="3" width="474.7474747474747" fill="#F4EDF2" opacity="0.25" />
<line x1="611.0101010101009" y1="161.5" x2="633.7373737373737" y2="161.5" stroke="#BABABA" stroke-width="1.5" />
<rect x="633.7373737373737" y="157" height="9" width="126.26262626262626" fill="#009CA2" stroke="#009CA2" stroke-width="0" opacity="0.9" />
<rect x="633.7373737373737" y="158.62" height="3" width="126.26262626262626" fill="#F4EDF2" opacity="0.25" />
<path d="M 759.9999999999999 157 C 764.4999999999999 157, 764.4999999999999 166, 759.9999999999999 166" fill="#009CA2" opacity="0.9" />
<path d="M 10 168 C 5.5 168, 5.5 177, 10 177" fill="#009CA2" opacity="0.9" />
<rect x="10" y="168" height="9" width="126.26262626262626" fill="#009CA2" stroke="#009CA2" stroke-width="0" opacity="0.9" />
<rect x="10" y="169.62" height="3" width="126.26262626262626" fill="#F4EDF2" opacity="0.25" />
<rect x="136.26262626262627" y="168" height="9" width="474.7474747474747" fill="#D1D1D1" stroke="#D1D1D1" stroke-width="0" opacity="0.9" />
<rect x="136.26262626262627" y="169.62" height="3" width="474.7474747474747" fill="#F4EDF2" opacity="0.25" />
<line x1="611.0101010101009" y1="172.5" x2="633.7373737373737" y2="172.5" stroke="#BABABA" stroke-width="1.5" />
<rect x="633.7373737373737" y="168" height="9" width="126.26262626262626" fill="#009CA2" stroke="#009CA2" stroke-width="0" opacity="0.9" />
<rect x="633.7373737373737" y="169.62" height="3" width="126.26262626262626" fill="#F4EDF2" opacity="0.25" />
<path d="M 759.9999999999999 168 C 764.4999999999999 168, 764.4999999999999 177, 759.9999999999999 177" fill="#009CA2" opacity="0.9" />
<path d="M 10 179 C 5.5 179, 5.5 188, 10 188" fill="#009CA2" opacity="0.9" />
<rect x="10" y="179" height="9" width="126.26262626262626" fill="#009CA2" stroke="#009CA2" stroke-width="0" opacity="0.9" />
<rect x="10" y="180.62" height="3" width="126.26262626262626" fill="#F4EDF2" opacity="0.25" />
<rect x="136.26262626262627" y="179" height="9" width="474.7474747474747" fill="#D1D1D1" stroke="#D1D1D1" stroke-width="0" opacity="0.9" />
<rect x="136.26262626262627" y="180.62" height="3" width="474.7474747474747" fill="#F4EDF2" opacity="0.25" />
<line x1="611.0101010101009" y1="183.5" x2="633.7373737373737" y2="183.5" stroke="#BABABA" stroke-width="1.5" />
<rect x="633.7373737373737" y="179" height="9" width="126.26262626262626" fill="#009CA2" stroke="#009CA2" stroke-width="0" opacity="0.9" />
<rect x="633.7373737373737" y="180.62" height="3" width="126.26262626262626" fill="#F4EDF2" opacity="0.25" />
<path d="M 759.9999999999999 179 C 764.4999999999999 179, 764.4999999999999 188, 759.9999999999999 188" fill="#009CA2" opacity="0.9" />
<path d="M 10 190 C 5.5 190, 5.5 199, 10 199" fill="#009CA2" opacity="0.9" />
<rect x="10" y="190" height="9" width="126.26262626262626" fill="#009CA2" stroke="#009CA2" stroke-width="0" opacity="0.9" />
<rect x="10" y="191.62" height="3" width="126.26262626262626" fill="#F4EDF2" opacity="0.25" />
<rect x="136.26262626262627" y="190" height="9" width="477.27272727272725" fill="#D1D1D1" stroke="#D1D1D1" stroke-width="0" opacity="0.9" />
<rect x="136.26262626262627" y="191.62" height="3" width="477.27272727272725" fill="#F4EDF2" opacity="0.25" />
<line x1="613.5353535353536" y1="194.5" x2="633.7373737373738" y2="194.5" stroke="#BABABA" stroke-width="1.5" />
<rect x="633.7373737373738" y="190" height="9" width="126.26262626262626" fill="#009CA2" stroke="#009CA2" stroke-width="0" opacity="0.9" />
<rect x="633.7373737373738" y="191.62" height="3" width="126.26262626262626" fill="#F4EDF2" opacity="0.25" />
<path d="M 760 190 C 764.5 190, 764.5 199, 760 199" fill="#009CA2" opacity="0.9" />
<path d="M 10 201 C 5.5 201, 5.5 210, 10 210" fill="#009CA2" opacity="0.9" />
<rect x="10" y="201" height="9" width="126.26262626262626" fill="#009CA2" stroke="#009CA2" stroke-width="0" opacity="0.9" />
<rect x="10" y="202.62" height="3" width="126.26262626262626" fill="#F4EDF2" opacity="0.25" />
<rect x="136.26262626262627" y="201" height="9" width="477.27272727272725" fill="#D1D1D1" stroke="#D1D1D1" stroke-width="0" opacity="0.9" />
<rect x="136.26262626262627" y="202.62" height="3" width="477.27272727272725" fill="#F4EDF2" opacity="0.25" />
<line x1="613.5353535353536" y1="205.5" x2="633.7373737373738" y2="205.5" stroke="#BABABA" stroke-width="1.5" />
<rect x="633.7373737373738" y="201" height="9" width="126.26262626262626" fill="#009CA2" stroke="#009CA2" stroke-width="0" opacity="0.9" />
<rect x="633.7373737373738" y="202.62" height="3" width="126.26262626262626" fill="#F4EDF2" opacity="0.25" />
<path d="M 760 201 C 764.5 201, 764.5 210, 760 210" fill="#009CA2" opacity="0.9" />
<path d="M 10 212 C 5.5 212, 5.5 221, 10 221" fill="#009CA2" opacity="0.9" />
<rect x="10" y="212" height="9" width="126.26262626262626" fill="#009CA2" stroke="#009CA2" stroke-width="0" opacity="0.9" />
<rect x="10" y="213.62" height="3" width="126.26262626262626" fill="#F4EDF2" opacity="0.25" />
<rect x="136.26262626262627" y="212" height="9" width="477.27272727272725" fill="#D1D1D1" stroke="#D1D1D1" stroke-width="0" opacity="0.9" />
<rect x="136.26262626262627" y="213.62" height="3" width="477.27272727272725" fill="#F4EDF2" opacity="0.25" />
<line x1="613.5353535353536" y1="216.5" x2="633.7373737373738" y2="216.5" stroke="#BABABA" stroke-width="1.5" />
<rect x="633.7373737373738" y="212" height="9" width="126.26262626262626" fill="#009CA2" stroke="#009CA2" stroke-width="0" opacity="0.9" />
<rect x="633.7373737373738" y="213.62" height="3" width="126.26262626262626" fill="#F4EDF2" opacity="0.25" />
<path d="M 760 212 C 764.5 212, 764.5 221, 760 221" fill="#009CA2" opacity="0.9" />
<path d="M 10 223 C 5.5 223, 5.5 232, 10 232" fill="#009CA2" opacity="0.9" />
<rect x="10" y="223" height="9" width="126.26262626262626" fill="#009CA2" stroke="#009CA2" stroke-width="0" opacity="0.9" />
<rect x="10" y="224.62" height="3" width="126.26262626262626" fill="#F4EDF2" opacity="0.25" />
<rect x="136.26262626262627" y="223" height="9" width="479.7979797979798" fill="#D1D1D1" stroke="#D1D1D1" stroke-width="0" opacity="0.9" />
<rect x="136.26262626262627" y="224.62" height="3" width="479.7979797979798" fill="#F4EDF2" opacity="0.25" />
<line x1="616.060606060606" y1="227.5" x2="633.7373737373737" y2="227.5" stroke="#BABABA" stroke-width="1.5" />
<rect x="633.7373737373737" y="223" height="9" width="126.26262626262626" fill="#009CA2" stroke="#009CA2" stroke-width="0" opacity="0.9" />
<rect x="633.7373737373737" y="224.62" height="3" width="126.26262626262626" fill="#F4EDF2" opacity="0.25" />
<path d="M 759.9999999999999 223 C 764.4999999999999 223, 764.4999999999999 232, 759.9999999999999 232" fill="#009CA2" opacity="0.9" />
<path d="M 10 234 C 5.5 234, 5.5 243, 10 243" fill="#009CA2" opacity="0.9" />
<rect x="10" y="234" height="9" width="126.26262626262626" fill="#009CA2" stroke="#009CA2" stroke-width="0" opacity="0.9" />
<rect x="10" y="235.62" height="3" width="126.26262626262626" fill="#F4EDF2" opacity="0.25" />
<rect x="136.26262626262627" y="234" height="9" width="489.89898989898984" fill="#D1D1D1" stroke="#D1D1D1" stroke-width="0" opacity="0.9" />
<rect x="136.26262626262627" y="235.62" height="3" width="489.89898989898984" fill="#F4EDF2" opacity="0.25" />
<line x1="626.1616161616162" y1="238.5" x2="633.7373737373738" y2="238.5" stroke="#BABABA" stroke-width="1.5" />
<rect x="633.7373737373738" y="234" height="9" width="126.26262626262626" fill="#009CA2" stroke="#009CA2" stroke-width="0" opacity="0.9" />
<rect x="633.7373737373738" y="235.62" height="3" width="126.26262626262626" fill="#F4EDF2" opacity="0.25" />
<path d="M 760 234 C 764.5 234, 764.5 243, 760 243" fill="#009CA2" opacity="0.9" />
<path d="M 10 245 C 5.5 245, 5.5 254, 10 254" fill="#009CA2" opacity="0.9" />
<rect x="10" y="245" height="9" width="2.525252525252525" fill="#BABABA" stroke="#BABABA" stroke-width="0" opacity="0.9" />
<rect x="10" y="246.62" height="3" width="2.525252525252525" fill="#F4EDF2" opacity="0.25" />
<rect x="12.525252525252526" y="245" height="9" width="2.525252525252525" fill="#009CA2" stroke="#009CA2" stroke-width="0" opacity="0.9" />
<rect x="12.525252525252526" y="246.62" height="3" width="2.525252525252525" fill="#F4EDF2" opacity="0.25" />
<rect x="15.050505050505052" y="245" height="9" width="5.05050505050505" fill="#BABABA" stroke="#BABABA" stroke-width="0" opacity="0.9" />
<rect x="15.050505050505052" y="246.62" height="3" width="5.05050505050505" fill="#F4EDF2" opacity="0.25" />
<rect x="20.101010101010104" y="245" height="9" width="116.16161616161615" fill="#009CA2" stroke="#009CA2" stroke-width="0" opacity="0.9" />
<rect x="20.101010101010104" y="246.62" height="3" width="116.16161616161615" fill="#F4EDF2" opacity="0.25" />
<rect x="136.26262626262627" y="245" height="9" width="497.47474747474746" fill="#D1D1D1" stroke="#D1D1D1" stroke-width="0" opacity="0.9" />
<rect x="136.26262626262627" y="246.62" height="3" width="497.47474747474746" fill="#F4EDF2" opacity="0.25" />
<rect x="633.7373737373737" y="245" height="9" width="126.26262626262626" fill="#009CA2" stroke="#009CA2" stroke-width="0" opacity="0.9" />
<rect x="633.7373737373737" y="246.62" height="3" width="126.26262626262626" fill="#F4EDF2" opacity="0.25" />
<path d="M 759.9999999999999 245 C 764.4999999999999 245, 764.4999999999999 254, 759.9999999999999 254" fill="#009CA2" opacity="0.9" />
<rect x="10" y="260" height="12" width="12" fill="#1383C6" stroke="#1383C6" stroke-width="0" opacity="0.9" />
<text x="24" y="271" font-family="monospace" font-weight="bold" font-size="14px" >TTTTA</text>
<rect x="79" y="260" height="12" width="12" fill="#814ED1" stroke="#814ED1" stroke-width="0" opacity="0.9" />
<text x="93" y="271" font-family="monospace" font-weight="bold" font-size="14px" >TTTCA</text>
</svg>
