<?xml version="1.0"?>
<svg xmlns="http://www.w3.org/2000/svg" xmlns:xlink="http://www.w3.org/1999/xlink" width="770.0000000000002" height="276">
<rect width="100%" height="100%" fill="white"/>
<path d="M 10 14 C 5.5 14, 5.5 23, 10 23" fill="#009CA2" opacity="0.9" />
<rect x="10" y="14" height="9" width="191.32653061224488" fill="#009CA2" stroke="#009CA2" stroke-width="0" opacity="0.9" />
<rect x="10" y="15.62" height="3" width="191.32653061224488" fill="#F4EDF2" opacity="0.25" />
<rect x="201.32653061224488" y="14" height="9" width="133.92857142857142" fill="#1383C6" stroke="#1383C6" stroke-width="0" opacity="0.9" />
<rect x="201.32653061224488" y="15.62" height="3" width="133.92857142857142" fill="#F4EDF2" opacity="0.25" />
<rect x="335.25510204081627" y="14" height="9" width="191.32653061224488" fill="#009CA2" stroke="#009CA2" stroke-width="0" opacity="0.9" />
<rect x="335.25510204081627" y="15.62" height="3" width="191.32653061224488" fill="#F4EDF2" opacity="0.25" />
<path d="M 526.5816326530612 14 C 531.0816326530612 14, 531.0816326530612 23, 526.5816326530612 23" fill="#009CA2" opacity="0.9" />
<line x1="201.32653061224488" y1="14" x2="201.32653061224488" y2="23" stroke="#000000" stroke-width="1.5" />
<line x1="335.25510204081627" y1="14" x2="335.25510204081627" y2="23" stroke="#000000" stroke-width="1.5" />
<line x1="10" y1="14" x2="526.5816326530612" y2="14" stroke="#000000" stroke-width="1.5" />
<line x1="10" y1="23" x2="526.5816326530612" y2="23" stroke="#000000" stroke-width="1.5" />
<path d="M 10 14 C 5.5 14, 5.5 23, 10 23" stroke="#000000" stroke-width="1.5" fill="none" opacity="0.9" />
<path d="M 526.5816326530612 14 C 531.0816326530612 14, 531.0816326530612 23, 526.5816326530612 23" stroke="#000000" stroke-width="1.5" fill="none" opacity="0.9" />
<line x1="201.32653061224488" y1="11.75" x2="201.32653061224488" y2="16.25" stroke="#000000" stroke-width="1.5" />
<text x="201.32653061224488" y="9.75" font-family="monospace" font-weight="bold" text-anchor="middle" font-size="10px" >0</text>
<line x1="220.4591836734694" y1="11.75" x2="220.4591836734694" y2="16.25" stroke="#000000" stroke-width="1.5" />
<line x1="239.59183673469389" y1="11.75" x2="239.59183673469389" y2="16.25" stroke="#000000" stroke-width="1.5" />
<line x1="258.7244897959184" y1="11.75" x2="258.7244897959184" y2="16.25" stroke="#000000" stroke-width="1.5" />
<line x1="277.85714285714283" y1="11.75" x2="277.85714285714283" y2="16.25" stroke="#000000" stroke-width="1.5" />
<line x1="296.98979591836735" y1="11.75" x2="296.98979591836735" y2="16.25" stroke="#000000" stroke-width="1.5" />
<text x="296.98979591836735" y="9.75" font-family="monospace" font-weight="bold" text-anchor="middle" font-size="10px" >5</text>
<line x1="316.1224489795918" y1="11.75" x2="316.1224489795918" y2="16.25" stroke="#000000" stroke-width="1.5" />
<path d="M 10 26 C 5.5 26, 5.5 35, 10 35" fill="#009CA2" opacity="0.9" />
<rect x="10" y="26" height="9" width="191.32653061224488" fill="#009CA2" stroke="#009CA2" stroke-width="0" opacity="0.9" />
<rect x="10" y="27.62" height="3" width="191.32653061224488" fill="#F4EDF2" opacity="0.25" />
<rect x="201.32653061224488" y="26" height="9" width="133.92857142857142" fill="#1383C6" stroke="#1383C6" stroke-width="0" opacity="0.9" />
<rect x="201.32653061224488" y="27.62" height="3" width="133.92857142857142" fill="#F4EDF2" opacity="0.25" />
<rect x="335.25510204081627" y="26" height="9" width="191.32653061224488" fill="#009CA2" stroke="#009CA2" stroke-width="0" opacity="0.9" />
<rect x="335.25510204081627" y="27.62" height="3" width="191.32653061224488" fill="#F4EDF2" opacity="0.25" />
<path d="M 526.5816326530612 26 C 531.0816326530612 26, 531.0816326530612 35, 526.5816326530612 35" fill="#009CA2" opacity="0.9" />
<path d="M 10 37 C 5.5 37, 5.5 46, 10 46" fill="#009CA2" opacity="0.9" />
<rect x="10" y="37" height="9" width="191.32653061224488" fill="#009CA2" stroke="#009CA2" stroke-width="0" opacity="0.9" />
<rect x="10" y="38.62" height="3" width="191.32653061224488" fill="#F4EDF2" opacity="0.25" />
<rect x="201.32653061224488" y="37" height="9" width="133.92857142857142" fill="#1383C6" stroke="#1383C6" stroke-width="0" opacity="0.9" />
<rect x="201.32653061224488" y="38.62" height="3" width="133.92857142857142" fill="#F4EDF2" opacity="0.25" />
<rect x="335.25510204081627" y="37" height="9" width="191.32653061224488" fill="#009CA2" stroke="#009CA2" stroke-width="0" opacity="0.9" />
<rect x="335.25510204081627" y="38.62" height="3" width="191.32653061224488" fill="#F4EDF2" opacity="0.25" />
<path d="M 526.5816326530612 37 C 531.0816326530612 37, 531.0816326530612 46, 526.5816326530612 46" fill="#009CA2" opacity="0.9" />
<path d="M 10 48 C 5.5 48, 5.5 57, 10 57" fill="#009CA2" opacity="0.9" />
<rect x="10" y="48" height="9" width="191.32653061224488" fill="#009CA2" stroke="#009CA2" stroke-width="0" opacity="0.9" />
<rect x="10" y="49.62" height="3" width="191.32653061224488" fill="#F4EDF2" opacity="0.25" />
<rect x="201.32653061224488" y="48" height="9" width="133.92857142857142" fill="#1383C6" stroke="#1383C6" stroke-width="0" opacity="0.9" />
<rect x="201.32653061224488" y="49.62" height="3" width="133.92857142857142" fill="#F4EDF2" opacity="0.25" />
<rect x="335.25510204081627" y="48" height="9" width="191.32653061224488" fill="#009CA2" stroke="#009CA2" stroke-width="0" opacity="0.9" />
<rect x="335.25510204081627" y="49.62" height="3" width="191.32653061224488" fill="#F4EDF2" opacity="0.25" />
<path d="M 526.5816326530612 48 C 531.0816326530612 48, 531.0816326530612 57, 526.5816326530612 57" fill="#009CA2" opacity="0.9" />
<path d="M 10 59 C 5.5 59, 5.5 68, 10 68" fill="#009CA2" opacity="0.9" />
<rect x="10" y="59" height="9" width="80.35714285714286" fill="#009CA2" stroke="#009CA2" stroke-width="0" opacity="0.9" />
<rect x="10" y="60.62" height="3" width="80.35714285714286" fill="#F4EDF2" opacity="0.25" />
<line x1="90.35714285714286" y1="63.5" x2="94.18367346938776" y2="63.5" stroke="#009CA2" stroke-width="1.5" />
<rect x="94.18367346938776" y="59" height="9" width="107.14285714285714" fill="#009CA2" stroke="#009CA2" stroke-width="0" opacity="0.9" />
<rect x="94.18367346938776" y="60.62" height="3" width="107.14285714285714" fill="#F4EDF2" opacity="0.25" />
<rect x="201.32653061224488" y="59" height="9" width="133.92857142857142" fill="#1383C6" stroke="#1383C6" stroke-width="0" opacity="0.9" />
<rect x="201.32653061224488" y="60.62" height="3" width="133.92857142857142" fill="#F4EDF2" opacity="0.25" />
<rect x="335.25510204081627" y="59" height="9" width="95.66326530612244" fill="#009CA2" stroke="#009CA2" stroke-width="0" opacity="0.9" />
<rect x="335.25510204081627" y="60.62" height="3" width="95.66326530612244" fill="#F4EDF2" opacity="0.25" />
<line x1="430.9183673469387" y1="63.5" x2="434.74489795918356" y2="63.5" stroke="#009CA2" stroke-width="1.5" />
<rect x="434.74489795918356" y="59" height="9" width="88.01020408163265" fill="#009CA2" stroke="#009CA2" stroke-width="0" opacity="0.9" />
<rect x="434.74489795918356" y="60.62" height="3" width="88.01020408163265" fill="#F4EDF2" opacity="0.25" />
<rect x="522.7551020408162" y="59" height="9" width="3.826530612244898" fill="#009CA2" stroke="#009CA2" stroke-width="0" opacity="0.9" />
<rect x="522.7551020408162" y="60.62" height="3" width="3.826530612244898" fill="#F4EDF2" opacity="0.25" />
<path d="M 526.5816326530611 59 C 531.0816326530611 59, 531.0816326530611 68, 526.5816326530611 68" fill="#009CA2" opacity="0.9" />
<line x1="10" y1="59" x2="10" y2="68" stroke="#000000" stroke-width="2" />
<line x1="522.7551020408162" y1="59" x2="522.7551020408162" y2="68" stroke="#000000" stroke-width="2" />
<path d="M 10 70 C 5.5 70, 5.5 79, 10 79" fill="#009CA2" opacity="0.9" />
<rect x="10" y="70" height="9" width="191.32653061224488" fill="#009CA2" stroke="#009CA2" stroke-width="0" opacity="0.9" />
<rect x="10" y="71.62" height="3" width="191.32653061224488" fill="#F4EDF2" opacity="0.25" />
<rect x="201.32653061224488" y="70" height="9" width="133.92857142857142" fill="#1383C6" stroke="#1383C6" stroke-width="0" opacity="0.9" />
<rect x="201.32653061224488" y="71.62" height="3" width="133.92857142857142" fill="#F4EDF2" opacity="0.25" />
<rect x="335.25510204081627" y="70" height="9" width="191.32653061224488" fill="#009CA2" stroke="#009CA2" stroke-width="0" opacity="0.9" />
<rect x="335.25510204081627" y="71.62" height="3" width="191.32653061224488" fill="#F4EDF2" opacity="0.25" />
<path d="M 526.5816326530612 70 C 531.0816326530612 70, 531.0816326530612 79, 526.5816326530612 79" fill="#009CA2" opacity="0.9" />
<path d="M 10 81 C 5.5 81, 5.5 90, 10 90" fill="#009CA2" opacity="0.9" />
<rect x="10" y="81" height="9" width="191.32653061224488" fill="#009CA2" stroke="#009CA2" stroke-width="0" opacity="0.9" />
<rect x="10" y="82.62" height="3" width="191.32653061224488" fill="#F4EDF2" opacity="0.25" />
<rect x="201.32653061224488" y="81" height="9" width="133.92857142857142" fill="#1383C6" stroke="#1383C6" stroke-width="0" opacity="0.9" />
<rect x="201.32653061224488" y="82.62" height="3" width="133.92857142857142" fill="#F4EDF2" opacity="0.25" />
<rect x="335.25510204081627" y="81" height="9" width="191.32653061224488" fill="#009CA2" stroke="#009CA2" stroke-width="0" opacity="0.9" />
<rect x="335.25510204081627" y="82.62" height="3" width="191.32653061224488" fill="#F4EDF2" opacity="0.25" />
<path d="M 526.5816326530612 81 C 531.0816326530612 81, 531.0816326530612 90, 526.5816326530612 90" fill="#009CA2" opacity="0.9" />
<path d="M 10 92 C 5.5 92, 5.5 101, 10 101" fill="#009CA2" opacity="0.9" />
<rect x="10" y="92" height="9" width="191.32653061224488" fill="#009CA2" stroke="#009CA2" stroke-width="0" opacity="0.9" />
<rect x="10" y="93.62" height="3" width="191.32653061224488" fill="#F4EDF2" opacity="0.25" />
<rect x="201.32653061224488" y="92" height="9" width="133.92857142857142" fill="#1383C6" stroke="#1383C6" stroke-width="0" opacity="0.9" />
<rect x="201.32653061224488" y="93.62" height="3" width="133.92857142857142" fill="#F4EDF2" opacity="0.25" />
<rect x="335.25510204081627" y="92" height="9" width="191.32653061224488" fill="#009CA2" stroke="#009CA2" stroke-width="0" opacity="0.9" />
<rect x="335.25510204081627" y="93.62" height="3" width="191.32653061224488" fill="#F4EDF2" opacity="0.25" />
<path d="M 526.5816326530612 92 C 531.0816326530612 92, 531.0816326530612 101, 526.5816326530612 101" fill="#009CA2" opacity="0.9" />
<path d="M 10 103 C 5.5 103, 5.5 112, 10 112" fill="#009CA2" opacity="0.9" />
<rect x="10" y="103" height="9" width="191.32653061224488" fill="#009CA2" stroke="#009CA2" stroke-width="0" opacity="0.9" />
<rect x="10" y="104.62" height="3" width="191.32653061224488" fill="#F4EDF2" opacity="0.25" />
<rect x="201.32653061224488" y="103" height="9" width="133.92857142857142" fill="#1383C6" stroke="#1383C6" stroke-width="0" opacity="0.9" />
<rect x="201.32653061224488" y="104.62" height="3" width="133.92857142857142" fill="#F4EDF2" opacity="0.25" />
<rect x="335.25510204081627" y="103" height="9" width="191.32653061224488" fill="#009CA2" stroke="#009CA2" stroke-width="0" opacity="0.9" />
<rect x="335.25510204081627" y="104.62" height="3" width="191.32653061224488" fill="#F4EDF2" opacity="0.25" />
<path d="M 526.5816326530612 103 C 531.0816326530612 103, 531.0816326530612 112, 526.5816326530612 112" fill="#009CA2" opacity="0.9" />
<path d="M 10 134 C 5.5 134, 5.5 143, 10 143" fill="#009CA2" opacity="0.9" />
<rect x="10" y="134" height="9" width="191.32653061224488" fill="#009CA2" stroke="#009CA2" stroke-width="0" opacity="0.9" />
<rect x="10" y="135.62" height="3" width="191.32653061224488" fill="#F4EDF2" opacity="0.25" />
<rect x="201.32653061224488" y="134" height="9" width="221.93877551020407" fill="#1383C6" stroke="#1383C6" stroke-width="0" opacity="0.9" />
<rect x="201.32653061224488" y="135.62" height="3" width="221.93877551020407" fill="#F4EDF2" opacity="0.25" />
<rect x="423.2653061224489" y="134" height="9" width="137.75510204081633" fill="#1383C6" stroke="#1383C6" stroke-width="0" opacity="0.9" />
<rect x="423.2653061224489" y="135.62" height="3" width="137.75510204081633" fill="#F4EDF2" opacity="0.25" />
<line x1="561.0204081632653" y1="138.5" x2="568.6734693877551" y2="138.5" stroke="#1383C6" stroke-width="1.5" />
<rect x="568.6734693877551" y="134" height="9" width="191.32653061224488" fill="#009CA2" stroke="#009CA2" stroke-width="0" opacity="0.9" />
<rect x="568.6734693877551" y="135.62" height="3" width="191.32653061224488" fill="#F4EDF2" opacity="0.25" />
<path d="M 760 134 C 764.5 134, 764.5 143, 760 143" fill="#009CA2" opacity="0.9" />
<line x1="423.2653061224489" y1="134" x2="423.2653061224489" y2="143" stroke="#000000" stroke-width="2" />
<line x1="201.32653061224488" y1="134" x2="201.32653061224488" y2="143" stroke="#000000" stroke-width="1.5" />
<line x1="568.6734693877551" y1="134" x2="568.6734693877551" y2="143" stroke="#000000" stroke-width="1.5" />
<line x1="10" y1="134" x2="760" y2="134" stroke="#000000" stroke-width="1.5" />
<line x1="10" y1="143" x2="760" y2="143" stroke="#000000" stroke-width="1.5" />
<path d="M 10 134 C 5.5 134, 5.5 143, 10 143" stroke="#000000" stroke-width="1.5" fill="none" opacity="0.9" />
<path d="M 760 134 C 764.5 134, 764.5 143, 760 143" stroke="#000000" stroke-width="1.5" fill="none" opacity="0.9" />
<line x1="201.32653061224488" y1="131.75" x2="201.32653061224488" y2="136.25" stroke="#000000" stroke-width="1.5" />
<text x="201.32653061224488" y="129.75" font-family="monospace" font-weight="bold" text-anchor="middle" font-size="10px" >0</text>
<line x1="220.4591836734694" y1="131.75" x2="220.4591836734694" y2="136.25" stroke="#000000" stroke-width="1.5" />
<line x1="239.59183673469389" y1="131.75" x2="239.59183673469389" y2="136.25" stroke="#000000" stroke-width="1.5" />
<line x1="258.7244897959184" y1="131.75" x2="258.7244897959184" y2="136.25" stroke="#000000" stroke-width="1.5" />
<line x1="277.85714285714283" y1="131.75" x2="277.85714285714283" y2="136.25" stroke="#000000" stroke-width="1.5" />
<line x1="296.98979591836735" y1="131.75" x2="296.98979591836735" y2="136.25" stroke="#000000" stroke-width="1.5" />
<text x="296.98979591836735" y="129.75" font-family="monospace" font-weight="bold" text-anchor="middle" font-size="10px" >5</text>
<line x1="316.1224489795918" y1="131.75" x2="316.1224489795918" y2="136.25" stroke="#000000" stroke-width="1.5" />
<line x1="335.2551020408163" y1="131.75" x2="335.2551020408163" y2="136.25" stroke="#000000" stroke-width="1.5" />
<line x1="354.3877551020408" y1="131.75" x2="354.3877551020408" y2="136.25" stroke="#000000" stroke-width="1.5" />
<line x1="373.5204081632653" y1="131.75" x2="373.5204081632653" y2="136.25" stroke="#000000" stroke-width="1.5" />
<line x1="392.65306122448976" y1="131.75" x2="392.65306122448976" y2="136.25" stroke="#000000" stroke-width="1.5" />
<text x="392.65306122448976" y="129.75" font-family="monospace" font-weight="bold" text-anchor="middle" font-size="10px" >10</text>
<line x1="411.7857142857143" y1="131.75" x2="411.7857142857143" y2="136.25" stroke="#000000" stroke-width="1.5" />
<line x1="423.265306122449" y1="131.75" x2="423.265306122449" y2="136.25" stroke="#000000" stroke-width="1.5" />
<line x1="442.39795918367344" y1="131.75" x2="442.39795918367344" y2="136.25" stroke="#000000" stroke-width="1.5" />
<line x1="461.53061224489795" y1="131.75" x2="461.53061224489795" y2="136.25" stroke="#000000" stroke-width="1.5" />
<line x1="480.6632653061224" y1="131.75" x2="480.6632653061224" y2="136.25" stroke="#000000" stroke-width="1.5" />
<text x="480.6632653061224" y="129.75" font-family="monospace" font-weight="bold" text-anchor="middle" font-size="10px" >15</text>
<line x1="499.7959183673469" y1="131.75" x2="499.7959183673469" y2="136.25" stroke="#000000" stroke-width="1.5" />
<line x1="518.9285714285714" y1="131.75" x2="518.9285714285714" y2="136.25" stroke="#000000" stroke-width="1.5" />
<line x1="538.0612244897959" y1="131.75" x2="538.0612244897959" y2="136.25" stroke="#000000" stroke-width="1.5" />
<line x1="557.1938775510204" y1="131.75" x2="557.1938775510204" y2="136.25" stroke="#000000" stroke-width="1.5" />
<path d="M 10 146 C 5.5 146, 5.5 155, 10 155" fill="#009CA2" opacity="0.9" />
<rect x="10" y="146" height="9" width="191.32653061224488" fill="#009CA2" stroke="#009CA2" stroke-width="0" opacity="0.9" />
<rect x="10" y="147.62" height="3" width="191.32653061224488" fill="#F4EDF2" opacity="0.25" />
<rect x="201.32653061224488" y="146" height="9" width="367.3469387755102" fill="#1383C6" stroke="#1383C6" stroke-width="0" opacity="0.9" />
<rect x="201.32653061224488" y="147.62" height="3" width="367.3469387755102" fill="#F4EDF2" opacity="0.25" />
<rect x="568.6734693877551" y="146" height="9" width="11.479591836734693" fill="#BABABA" stroke="#BABABA" stroke-width="0" opacity="0.9" />
<rect x="568.6734693877551" y="147.62" height="3" width="11.479591836734693" fill="#F4EDF2" opacity="0.25" />
<rect x="580.1530612244898" y="146" height="9" width="179.8469387755102" fill="#009CA2" stroke="#009CA2" stroke-width="0" opacity="0.9" />
<rect x="580.1530612244898" y="147.62" height="3" width="179.8469387755102" fill="#F4EDF2" opacity="0.25" />
<path d="M 760 146 C 764.5 146, 764.5 155, 760 155" fill="#009CA2" opacity="0.9" />
<path d="M 10 157 C 5.5 157, 5.5 166, 10 166" fill="#009CA2" opacity="0.9" />
<rect x="10" y="157" height="9" width="153.0612244897959" fill="#009CA2" stroke="#009CA2" stroke-width="0" opacity="0.9" />
<rect x="10" y="158.62" height="3" width="153.0612244897959" fill="#F4EDF2" opacity="0.25" />
<line x1="163.0612244897959" y1="161.5" x2="166.8877551020408" y2="161.5" stroke="#009CA2" stroke-width="1.5" />
<rect x="166.8877551020408" y="157" height="9" width="34.43877551020408" fill="#009CA2" stroke="#009CA2" stroke-width="0" opacity="0.9" />
<rect x="166.8877551020408" y="158.62" height="3" width="34.43877551020408" fill="#F4EDF2" opacity="0.25" />
<rect x="201.32653061224488" y="157" height="9" width="367.3469387755102" fill="#1383C6" stroke="#1383C6" stroke-width="0" opacity="0.9" />
<rect x="201.32653061224488" y="158.62" height="3" width="367.3469387755102" fill="#F4EDF2" opacity="0.25" />
<rect x="568.6734693877551" y="157" height="9" width="11.479591836734693" fill="#BABABA" stroke="#BABABA" stroke-width="0" opacity="0.9" />
<rect x="568.6734693877551" y="158.62" height="3" width="11.479591836734693" fill="#F4EDF2" opacity="0.25" />
<rect x="580.1530612244898" y="157" height="9" width="179.8469387755102" fill="#009CA2" stroke="#009CA2" stroke-width="0" opacity="0.9" />
<rect x="580.1530612244898" y="158.62" height="3" width="179.8469387755102" fill="#F4EDF2" opacity="0.25" />
<path d="M 760 157 C 764.5 157, 764.5 166, 760 166" fill="#009CA2" opacity="0.9" />
<line x1="10" y1="157" x2="10" y2="166" stroke="#000000" stroke-width="2" />
<path d="M 10 168 C 5.5 168, 5.5 177, 10 177" fill="#009CA2" opacity="0.9" />
<rect x="10" y="168" height="9" width="191.32653061224488" fill="#009CA2" stroke="#009CA2" stroke-width="0" opacity="0.9" />
<rect x="10" y="169.62" height="3" width="191.32653061224488" fill="#F4EDF2" opacity="0.25" />
<rect x="201.32653061224488" y="168" height="9" width="367.3469387755102" fill="#1383C6" stroke="#1383C6" stroke-width="0" opacity="0.9" />
<rect x="201.32653061224488" y="169.62" height="3" width="367.3469387755102" fill="#F4EDF2" opacity="0.25" />
<rect x="568.6734693877551" y="168" height="9" width="11.479591836734693" fill="#BABABA" stroke="#BABABA" stroke-width="0" opacity="0.9" />
<rect x="568.6734693877551" y="169.62" height="3" width="11.479591836734693" fill="#F4EDF2" opacity="0.25" />
<rect x="580.1530612244898" y="168" height="9" width="179.8469387755102" fill="#009CA2" stroke="#009CA2" stroke-width="0" opacity="0.9" />
<rect x="580.1530612244898" y="169.62" height="3" width="179.8469387755102" fill="#F4EDF2" opacity="0.25" />
<path d="M 760 168 C 764.5 168, 764.5 177, 760 177" fill="#009CA2" opacity="0.9" />
<path d="M 10 179 C 5.5 179, 5.5 188, 10 188" fill="#009CA2" opacity="0.9" />
<rect x="10" y="179" height="9" width="191.32653061224488" fill="#009CA2" stroke="#009CA2" stroke-width="0" opacity="0.9" />
<rect x="10" y="180.62" height="3" width="191.32653061224488" fill="#F4EDF2" opacity="0.25" />
<rect x="201.32653061224488" y="179" height="9" width="137.75510204081633" fill="#1383C6" stroke="#1383C6" stroke-width="0" opacity="0.9" />
<rect x="201.32653061224488" y="180.62" height="3" width="137.75510204081633" fill="#F4EDF2" opacity="0.25" />
<line x1="339.0816326530612" y1="183.5" x2="342.9081632653061" y2="183.5" stroke="#1383C6" stroke-width="1.5" />
<rect x="342.9081632653061" y="179" height="9" width="225.76530612244898" fill="#1383C6" stroke="#1383C6" stroke-width="0" opacity="0.9" />
<rect x="342.9081632653061" y="180.62" height="3" width="225.76530612244898" fill="#F4EDF2" opacity="0.25" />
<rect x="568.6734693877551" y="179" height="9" width="11.479591836734693" fill="#BABABA" stroke="#BABABA" stroke-width="0" opacity="0.9" />
<rect x="568.6734693877551" y="180.62" height="3" width="11.479591836734693" fill="#F4EDF2" opacity="0.25" />
<rect x="580.1530612244898" y="179" height="9" width="179.8469387755102" fill="#009CA2" stroke="#009CA2" stroke-width="0" opacity="0.9" />
<rect x="580.1530612244898" y="180.62" height="3" width="179.8469387755102" fill="#F4EDF2" opacity="0.25" />
<path d="M 760 179 C 764.5 179, 764.5 188, 760 188" fill="#009CA2" opacity="0.9" />
<path d="M 10 190 C 5.5 190, 5.5 199, 10 199" fill="#009CA2" opacity="0.9" />
<rect x="10" y="190" height="9" width="191.32653061224488" fill="#009CA2" stroke="#009CA2" stroke-width="0" opacity="0.9" />
<rect x="10" y="191.62" height="3" width="191.32653061224488" fill="#F4EDF2" opacity="0.25" />
<rect x="201.32653061224488" y="190" height="9" width="168.3673469387755" fill="#1383C6" stroke="#1383C6" stroke-width="0" opacity="0.9" />
<rect x="201.32653061224488" y="191.62" height="3" width="168.3673469387755" fill="#F4EDF2" opacity="0.25" />
<rect x="369.69387755102036" y="190" height="9" width="11.479591836734693" fill="#BABABA" stroke="#BABABA" stroke-width="0" opacity="0.9" />
<rect x="369.69387755102036" y="191.62" height="3" width="11.479591836734693" fill="#F4EDF2" opacity="0.25" />
<rect x="381.17346938775506" y="190" height="9" width="7.653061224489796" fill="#1383C6" stroke="#1383C6" stroke-width="0" opacity="0.9" />
<rect x="381.17346938775506" y="191.62" height="3" width="7.653061224489796" fill="#F4EDF2" opacity="0.25" />
<rect x="388.8265306122449" y="190" height="9" width="11.479591836734693" fill="#BABABA" stroke="#BABABA" stroke-width="0" opacity="0.9" />
<rect x="388.8265306122449" y="191.62" height="3" width="11.479591836734693" fill="#F4EDF2" opacity="0.25" />
<rect x="400.3061224489796" y="190" height="9" width="26.785714285714285" fill="#1383C6" stroke="#1383C6" stroke-width="0" opacity="0.9" />
<rect x="400.3061224489796" y="191.62" height="3" width="26.785714285714285" fill="#F4EDF2" opacity="0.25" />
<line x1="427.09183673469386" y1="194.5" x2="430.91836734693874" y2="194.5" stroke="#1383C6" stroke-width="1.5" />
<rect x="430.91836734693874" y="190" height="9" width="137.75510204081633" fill="#1383C6" stroke="#1383C6" stroke-width="0" opacity="0.9" />
<rect x="430.91836734693874" y="191.62" height="3" width="137.75510204081633" fill="#F4EDF2" opacity="0.25" />
<rect x="568.6734693877551" y="190" height="9" width="3.826530612244898" fill="#BABABA" stroke="#BABABA" stroke-width="0" opacity="0.9" />
<rect x="568.6734693877551" y="191.62" height="3" width="3.826530612244898" fill="#F4EDF2" opacity="0.25" />
<rect x="572.5" y="190" height="9" width="3.826530612244898" fill="#009CA2" stroke="#009CA2" stroke-width="0" opacity="0.9" />
<rect x="572.5" y="191.62" height="3" width="3.826530612244898" fill="#F4EDF2" opacity="0.25" />
<rect x="576.3265306122449" y="190" height="9" width="3.826530612244898" fill="#BABABA" stroke="#BABABA" stroke-width="0" opacity="0.9" />
<rect x="576.3265306122449" y="191.62" height="3" width="3.826530612244898" fill="#F4EDF2" opacity="0.25" />
<rect x="580.1530612244899" y="190" height="9" width="179.8469387755102" fill="#009CA2" stroke="#009CA2" stroke-width="0" opacity="0.9" />
<rect x="580.1530612244899" y="191.62" height="3" width="179.8469387755102" fill="#F4EDF2" opacity="0.25" />
<path d="M 760.0000000000001 190 C 764.5000000000001 190, 764.5000000000001 199, 760.0000000000001 199" fill="#009CA2" opacity="0.9" />
<line x1="576.3265306122449" y1="190" x2="576.3265306122449" y2="199" stroke="#000000" stroke-width="2" />
<path d="M 10 201 C 5.5 201, 5.5 210, 10 210" fill="#009CA2" opacity="0.9" />
<rect x="10" y="201" height="9" width="191.32653061224488" fill="#009CA2" stroke="#009CA2" stroke-width="0" opacity="0.9" />
<rect x="10" y="202.62" height="3" width="191.32653061224488" fill="#F4EDF2" opacity="0.25" />
<rect x="201.32653061224488" y="201" height="9" width="367.3469387755102" fill="#1383C6" stroke="#1383C6" stroke-width="0" opacity="0.9" />
<rect x="201.32653061224488" y="202.62" height="3" width="367.3469387755102" fill="#F4EDF2" opacity="0.25" />
<rect x="568.6734693877551" y="201" height="9" width="11.479591836734693" fill="#BABABA" stroke="#BABABA" stroke-width="0" opacity="0.9" />
<rect x="568.6734693877551" y="202.62" height="3" width="11.479591836734693" fill="#F4EDF2" opacity="0.25" />
<rect x="580.1530612244898" y="201" height="9" width="179.8469387755102" fill="#009CA2" stroke="#009CA2" stroke-width="0" opacity="0.9" />
<rect x="580.1530612244898" y="202.62" height="3" width="179.8469387755102" fill="#F4EDF2" opacity="0.25" />
<path d="M 760 201 C 764.5 201, 764.5 210, 760 210" fill="#009CA2" opacity="0.9" />
<path d="M 10 212 C 5.5 212, 5.5 221, 10 221" fill="#009CA2" opacity="0.9" />
<rect x="10" y="212" height="9" width="191.32653061224488" fill="#009CA2" stroke="#009CA2" stroke-width="0" opacity="0.9" />
<rect x="10" y="213.62" height="3" width="191.32653061224488" fill="#F4EDF2" opacity="0.25" />
<rect x="201.32653061224488" y="212" height="9" width="244.89795918367346" fill="#1383C6" stroke="#1383C6" stroke-width="0" opacity="0.9" />
<rect x="201.32653061224488" y="213.62" height="3" width="244.89795918367346" fill="#F4EDF2" opacity="0.25" />
<rect x="446.2244897959183" y="212" height="9" width="122.44897959183673" fill="#1383C6" stroke="#1383C6" stroke-width="0" opacity="0.9" />
<rect x="446.2244897959183" y="213.62" height="3" width="122.44897959183673" fill="#F4EDF2" opacity="0.25" />
<rect x="568.6734693877551" y="212" height="9" width="11.479591836734693" fill="#BABABA" stroke="#BABABA" stroke-width="0" opacity="0.9" />
<rect x="568.6734693877551" y="213.62" height="3" width="11.479591836734693" fill="#F4EDF2" opacity="0.25" />
<rect x="580.1530612244898" y="212" height="9" width="179.8469387755102" fill="#009CA2" stroke="#009CA2" stroke-width="0" opacity="0.9" />
<rect x="580.1530612244898" y="213.62" height="3" width="179.8469387755102" fill="#F4EDF2" opacity="0.25" />
<path d="M 760 212 C 764.5 212, 764.5 221, 760 221" fill="#009CA2" opacity="0.9" />
<line x1="446.2244897959183" y1="212" x2="446.2244897959183" y2="221" stroke="#000000" stroke-width="2" />
<path d="M 10 223 C 5.5 223, 5.5 232, 10 232" fill="#009CA2" opacity="0.9" />
<rect x="10" y="223" height="9" width="191.32653061224488" fill="#009CA2" stroke="#009CA2" stroke-width="0" opacity="0.9" />
<rect x="10" y="224.62" height="3" width="191.32653061224488" fill="#F4EDF2" opacity="0.25" />
<rect x="201.32653061224488" y="223" height="9" width="367.3469387755102" fill="#1383C6" stroke="#1383C6" stroke-width="0" opacity="0.9" />
<rect x="201.32653061224488" y="224.62" height="3" width="367.3469387755102" fill="#F4EDF2" opacity="0.25" />
<rect x="568.6734693877551" y="223" height="9" width="11.479591836734693" fill="#BABABA" stroke="#BABABA" stroke-width="0" opacity="0.9" />
<rect x="568.6734693877551" y="224.62" height="3" width="11.479591836734693" fill="#F4EDF2" opacity="0.25" />
<rect x="580.1530612244898" y="223" height="9" width="145.40816326530611" fill="#009CA2" stroke="#009CA2" stroke-width="0" opacity="0.9" />
<rect x="580.1530612244898" y="224.62" height="3" width="145.40816326530611" fill="#F4EDF2" opacity="0.25" />
<rect x="725.5612244897959" y="223" height="9" width="3.826530612244898" fill="#BABABA" stroke="#BABABA" stroke-width="0" opacity="0.9" />
<rect x="725.5612244897959" y="224.62" height="3" width="3.826530612244898" fill="#F4EDF2" opacity="0.25" />
<rect x="729.3877551020408" y="223" height="9" width="7.653061224489796" fill="#009CA2" stroke="#009CA2" stroke-width="0" opacity="0.9" />
<rect x="729.3877551020408" y="224.62" height="3" width="7.653061224489796" fill="#F4EDF2" opacity="0.25" />
<rect x="737.0408163265306" y="223" height="9" width="11.479591836734693" fill="#BABABA" stroke="#BABABA" stroke-width="0" opacity="0.9" />
<rect x="737.0408163265306" y="224.62" height="3" width="11.479591836734693" fill="#F4EDF2" opacity="0.25" />
<rect x="748.5204081632653" y="223" height="9" width="3.826530612244898" fill="#009CA2" stroke="#009CA2" stroke-width="0" opacity="0.9" />
<rect x="748.5204081632653" y="224.62" height="3" width="3.826530612244898" fill="#F4EDF2" opacity="0.25" />
<rect x="752.3469387755102" y="223" height="9" width="7.653061224489796" fill="#BABABA" stroke="#BABABA" stroke-width="0" opacity="0.9" />
<rect x="752.3469387755102" y="224.62" height="3" width="7.653061224489796" fill="#F4EDF2" opacity="0.25" />
<path d="M 760 223 C 764.5 223, 764.5 232, 760 232" fill="#009CA2" opacity="0.9" />
<path d="M 10 234 C 5.5 234, 5.5 243, 10 243" fill="#009CA2" opacity="0.9" />
<rect x="10" y="234" height="9" width="191.32653061224488" fill="#009CA2" stroke="#009CA2" stroke-width="0" opacity="0.9" />
<rect x="10" y="235.62" height="3" width="191.32653061224488" fill="#F4EDF2" opacity="0.25" />
<rect x="201.32653061224488" y="234" height="9" width="367.3469387755102" fill="#1383C6" stroke="#1383C6" stroke-width="0" opacity="0.9" />
<rect x="201.32653061224488" y="235.62" height="3" width="367.3469387755102" fill="#F4EDF2" opacity="0.25" />
<rect x="568.6734693877551" y="234" height="9" width="11.479591836734693" fill="#BABABA" stroke="#BABABA" stroke-width="0" opacity="0.9" />
<rect x="568.6734693877551" y="235.62" height="3" width="11.479591836734693" fill="#F4EDF2" opacity="0.25" />
<rect x="580.1530612244898" y="234" height="9" width="179.8469387755102" fill="#009CA2" stroke="#009CA2" stroke-width="0" opacity="0.9" />
<rect x="580.1530612244898" y="235.62" height="3" width="179.8469387755102" fill="#F4EDF2" opacity="0.25" />
<path d="M 760 234 C 764.5 234, 764.5 243, 760 243" fill="#009CA2" opacity="0.9" />
<path d="M 10 245 C 5.5 245, 5.5 254, 10 254" fill="#009CA2" opacity="0.9" />
<rect x="10" y="245" height="9" width="38.265306122448976" fill="#009CA2" stroke="#009CA2" stroke-width="0" opacity="0.9" />
<rect x="10" y="246.62" height="3" width="38.265306122448976" fill="#F4EDF2" opacity="0.25" />
<line x1="48.265306122448976" y1="249.5" x2="52.09183673469387" y2="249.5" stroke="#009CA2" stroke-width="1.5" />
<rect x="52.09183673469387" y="245" height="9" width="84.18367346938776" fill="#009CA2" stroke="#009CA2" stroke-width="0" opacity="0.9" />
<rect x="52.09183673469387" y="246.62" height="3" width="84.18367346938776" fill="#F4EDF2" opacity="0.25" />
<line x1="136.27551020408163" y1="249.5" x2="140.10204081632654" y2="249.5" stroke="#009CA2" stroke-width="1.5" />
<rect x="140.10204081632654" y="245" height="9" width="22.959183673469386" fill="#009CA2" stroke="#009CA2" stroke-width="0" opacity="0.9" />
<rect x="140.10204081632654" y="246.62" height="3" width="22.959183673469386" fill="#F4EDF2" opacity="0.25" />
<line x1="163.06122448979593" y1="249.5" x2="166.88775510204084" y2="249.5" stroke="#009CA2" stroke-width="1.5" />
<rect x="166.88775510204084" y="245" height="9" width="34.43877551020408" fill="#009CA2" stroke="#009CA2" stroke-width="0" opacity="0.9" />
<rect x="166.88775510204084" y="246.62" height="3" width="34.43877551020408" fill="#F4EDF2" opacity="0.25" />
<rect x="201.32653061224494" y="245" height="9" width="122.44897959183673" fill="#1383C6" stroke="#1383C6" stroke-width="0" opacity="0.9" />
<rect x="201.32653061224494" y="246.62" height="3" width="122.44897959183673" fill="#F4EDF2" opacity="0.25" />
<line x1="323.7755102040817" y1="249.5" x2="339.08163265306126" y2="249.5" stroke="#1383C6" stroke-width="1.5" />
<rect x="339.08163265306126" y="245" height="9" width="3.826530612244898" fill="#BABABA" stroke="#BABABA" stroke-width="0" opacity="0.9" />
<rect x="339.08163265306126" y="246.62" height="3" width="3.826530612244898" fill="#F4EDF2" opacity="0.25" />
<rect x="342.90816326530614" y="245" height="9" width="84.18367346938776" fill="#1383C6" stroke="#1383C6" stroke-width="0" opacity="0.9" />
<rect x="342.90816326530614" y="246.62" height="3" width="84.18367346938776" fill="#F4EDF2" opacity="0.25" />
<line x1="427.0918367346939" y1="249.5" x2="430.9183673469388" y2="249.5" stroke="#1383C6" stroke-width="1.5" />
<rect x="430.9183673469388" y="245" height="9" width="137.75510204081633" fill="#1383C6" stroke="#1383C6" stroke-width="0" opacity="0.9" />
<rect x="430.9183673469388" y="246.62" height="3" width="137.75510204081633" fill="#F4EDF2" opacity="0.25" />
<rect x="568.6734693877552" y="245" height="9" width="3.826530612244898" fill="#009CA2" stroke="#009CA2" stroke-width="0" opacity="0.9" />
<rect x="568.6734693877552" y="246.62" height="3" width="3.826530612244898" fill="#F4EDF2" opacity="0.25" />
<rect x="572.5000000000001" y="245" height="9" width="3.826530612244898" fill="#BABABA" stroke="#BABABA" stroke-width="0" opacity="0.9" />
<rect x="572.5000000000001" y="246.62" height="3" width="3.826530612244898" fill="#F4EDF2" opacity="0.25" />
<rect x="576.326530612245" y="245" height="9" width="3.826530612244898" fill="#009CA2" stroke="#009CA2" stroke-width="0" opacity="0.9" />
<rect x="576.326530612245" y="246.62" height="3" width="3.826530612244898" fill="#F4EDF2" opacity="0.25" />
<rect x="580.15306122449" y="245" height="9" width="7.653061224489796" fill="#BABABA" stroke="#BABABA" stroke-width="0" opacity="0.9" />
<rect x="580.15306122449" y="246.62" height="3" width="7.653061224489796" fill="#F4EDF2" opacity="0.25" />
<rect x="587.8061224489797" y="245" height="9" width="53.57142857142857" fill="#009CA2" stroke="#009CA2" stroke-width="0" opacity="0.9" />
<rect x="587.8061224489797" y="246.62" height="3" width="53.57142857142857" fill="#F4EDF2" opacity="0.25" />
<line x1="641.3775510204083" y1="249.5" x2="645.2040816326532" y2="249.5" stroke="#009CA2" stroke-width="1.5" />
<rect x="645.2040816326532" y="245" height="9" width="68.87755102040816" fill="#009CA2" stroke="#009CA2" stroke-width="0" opacity="0.9" />
<rect x="645.2040816326532" y="246.62" height="3" width="68.87755102040816" fill="#F4EDF2" opacity="0.25" />
<line x1="714.0816326530614" y1="249.5" x2="717.9081632653064" y2="249.5" stroke="#009CA2" stroke-width="1.5" />
<rect x="717.9081632653064" y="245" height="9" width="42.09183673469388" fill="#009CA2" stroke="#009CA2" stroke-width="0" opacity="0.9" />
<rect x="717.9081632653064" y="246.62" height="3" width="42.09183673469388" fill="#F4EDF2" opacity="0.25" />
<path d="M 760.0000000000002 245 C 764.5000000000002 245, 764.5000000000002 254, 760.0000000000002 254" fill="#009CA2" opacity="0.9" />
<line x1="10" y1="245" x2="10" y2="254" stroke="#000000" stroke-width="2" />
<line x1="568.6734693877552" y1="245" x2="568.6734693877552" y2="254" stroke="#000000" stroke-width="2" />
<line x1="760.0000000000002" y1="245" x2="760.0000000000002" y2="254" stroke="#000000" stroke-width="2" />
<rect x="10" y="260" height="12" width="12" fill="#1383C6" stroke="#1383C6" stroke-width="0" opacity="0.9" />
<text x="24" y="271" font-family="monospace" font-weight="bold" font-size="14px" >ATTTC</text>
</svg>
