<?xml version="1.0"?>
<svg xmlns="http://www.w3.org/2000/svg" xmlns:xlink="http://www.w3.org/1999/xlink" width="770" height="222">
<rect width="100%" height="100%" fill="white"/>
<path d="M 10 14 C 5.5 14, 5.5 23, 10 23" fill="#009CA2" opacity="0.9" />
<rect x="10" y="14" height="9" width="264.0845070422535" fill="#009CA2" stroke="#009CA2" stroke-width="0" opacity="0.9" />
<rect x="10" y="15.62" height="3" width="264.0845070422535" fill="#F4EDF2" opacity="0.25" />
<rect x="274.0845070422535" y="14" height="9" width="10.56338028169014" fill="#D1D1D1" stroke="#D1D1D1" stroke-width="0" opacity="0.9" />
<rect x="274.0845070422535" y="15.62" height="3" width="10.56338028169014" fill="#F4EDF2" opacity="0.25" />
<rect x="284.6478873239436" y="14" height="9" width="79.22535211267605" fill="#1383C6" stroke="#1383C6" stroke-width="0" opacity="0.9" />
<rect x="284.6478873239436" y="15.62" height="3" width="79.22535211267605" fill="#F4EDF2" opacity="0.25" />
<rect x="363.87323943661966" y="14" height="9" width="5.28169014084507" fill="#D1D1D1" stroke="#D1D1D1" stroke-width="0" opacity="0.9" />
<rect x="363.87323943661966" y="15.62" height="3" width="5.28169014084507" fill="#F4EDF2" opacity="0.25" />
<rect x="369.1549295774647" y="14" height="9" width="31.69014084507042" fill="#1383C6" stroke="#1383C6" stroke-width="0" opacity="0.9" />
<rect x="369.1549295774647" y="15.62" height="3" width="31.69014084507042" fill="#F4EDF2" opacity="0.25" />
<rect x="400.8450704225351" y="14" height="9" width="10.56338028169014" fill="#D1D1D1" stroke="#D1D1D1" stroke-width="0" opacity="0.9" />
<rect x="400.8450704225351" y="15.62" height="3" width="10.56338028169014" fill="#F4EDF2" opacity="0.25" />
<rect x="411.40845070422523" y="14" height="9" width="79.22535211267605" fill="#1383C6" stroke="#1383C6" stroke-width="0" opacity="0.9" />
<rect x="411.40845070422523" y="15.62" height="3" width="79.22535211267605" fill="#F4EDF2" opacity="0.25" />
<line x1="490.63380281690127" y1="18.5" x2="495.9154929577463" y2="18.5" stroke="#BABABA" stroke-width="1.5" />
<rect x="495.9154929577463" y="14" height="9" width="264.0845070422535" fill="#009CA2" stroke="#009CA2" stroke-width="0" opacity="0.9" />
<rect x="495.9154929577463" y="15.62" height="3" width="264.0845070422535" fill="#F4EDF2" opacity="0.25" />
<path d="M 759.9999999999998 14 C 764.4999999999998 14, 764.4999999999998 23, 759.9999999999998 23" fill="#009CA2" opacity="0.9" />
<path d="M 10 25 C 5.5 25, 5.5 34, 10 34" fill="#009CA2" opacity="0.9" />
<rect x="10" y="25" height="9" width="264.0845070422535" fill="#009CA2" stroke="#009CA2" stroke-width="0" opacity="0.9" />
<rect x="10" y="26.62" height="3" width="264.0845070422535" fill="#F4EDF2" opacity="0.25" />
<rect x="274.0845070422535" y="25" height="9" width="126.76056338028168" fill="#1383C6" stroke="#1383C6" stroke-width="0" opacity="0.9" />
<rect x="274.0845070422535" y="26.62" height="3" width="126.76056338028168" fill="#F4EDF2" opacity="0.25" />
<rect x="400.8450704225352" y="25" height="9" width="15.84507042253521" fill="#D1D1D1" stroke="#D1D1D1" stroke-width="0" opacity="0.9" />
<rect x="400.8450704225352" y="26.62" height="3" width="15.84507042253521" fill="#F4EDF2" opacity="0.25" />
<rect x="416.6901408450704" y="25" height="9" width="79.22535211267605" fill="#1383C6" stroke="#1383C6" stroke-width="0" opacity="0.9" />
<rect x="416.6901408450704" y="26.62" height="3" width="79.22535211267605" fill="#F4EDF2" opacity="0.25" />
<rect x="495.91549295774644" y="25" height="9" width="264.0845070422535" fill="#009CA2" stroke="#009CA2" stroke-width="0" opacity="0.9" />
<rect x="495.91549295774644" y="26.62" height="3" width="264.0845070422535" fill="#F4EDF2" opacity="0.25" />
<path d="M 760 25 C 764.5 25, 764.5 34, 760 34" fill="#009CA2" opacity="0.9" />
<path d="M 10 36 C 5.5 36, 5.5 45, 10 45" fill="#009CA2" opacity="0.9" />
<rect x="10" y="36" height="9" width="264.0845070422535" fill="#009CA2" stroke="#009CA2" stroke-width="0" opacity="0.9" />
<rect x="10" y="37.62" height="3" width="264.0845070422535" fill="#F4EDF2" opacity="0.25" />
<rect x="274.0845070422535" y="36" height="9" width="126.76056338028168" fill="#1383C6" stroke="#1383C6" stroke-width="0" opacity="0.9" />
<rect x="274.0845070422535" y="37.62" height="3" width="126.76056338028168" fill="#F4EDF2" opacity="0.25" />
<rect x="400.8450704225352" y="36" height="9" width="15.84507042253521" fill="#D1D1D1" stroke="#D1D1D1" stroke-width="0" opacity="0.9" />
<rect x="400.8450704225352" y="37.62" height="3" width="15.84507042253521" fill="#F4EDF2" opacity="0.25" />
<rect x="416.6901408450704" y="36" height="9" width="79.22535211267605" fill="#1383C6" stroke="#1383C6" stroke-width="0" opacity="0.9" />
<rect x="416.6901408450704" y="37.62" height="3" width="79.22535211267605" fill="#F4EDF2" opacity="0.25" />
<rect x="495.91549295774644" y="36" height="9" width="264.0845070422535" fill="#009CA2" stroke="#009CA2" stroke-width="0" opacity="0.9" />
<rect x="495.91549295774644" y="37.62" height="3" width="264.0845070422535" fill="#F4EDF2" opacity="0.25" />
<path d="M 760 36 C 764.5 36, 764.5 45, 760 45" fill="#009CA2" opacity="0.9" />
<path d="M 10 47 C 5.5 47, 5.5 56, 10 56" fill="#009CA2" opacity="0.9" />
<rect x="10" y="47" height="9" width="264.0845070422535" fill="#009CA2" stroke="#009CA2" stroke-width="0" opacity="0.9" />
<rect x="10" y="48.62" height="3" width="264.0845070422535" fill="#F4EDF2" opacity="0.25" />
<rect x="274.0845070422535" y="47" height="9" width="126.76056338028168" fill="#1383C6" stroke="#1383C6" stroke-width="0" opacity="0.9" />
<rect x="274.0845070422535" y="48.62" height="3" width="126.76056338028168" fill="#F4EDF2" opacity="0.25" />
<rect x="400.8450704225352" y="47" height="9" width="15.84507042253521" fill="#D1D1D1" stroke="#D1D1D1" stroke-width="0" opacity="0.9" />
<rect x="400.8450704225352" y="48.62" height="3" width="15.84507042253521" fill="#F4EDF2" opacity="0.25" />
<rect x="416.6901408450704" y="47" height="9" width="79.22535211267605" fill="#1383C6" stroke="#1383C6" stroke-width="0" opacity="0.9" />
<rect x="416.6901408450704" y="48.62" height="3" width="79.22535211267605" fill="#F4EDF2" opacity="0.25" />
<rect x="495.91549295774644" y="47" height="9" width="264.0845070422535" fill="#009CA2" stroke="#009CA2" stroke-width="0" opacity="0.9" />
<rect x="495.91549295774644" y="48.62" height="3" width="264.0845070422535" fill="#F4EDF2" opacity="0.25" />
<path d="M 760 47 C 764.5 47, 764.5 56, 760 56" fill="#009CA2" opacity="0.9" />
<path d="M 10 58 C 5.5 58, 5.5 67, 10 67" fill="#009CA2" opacity="0.9" />
<rect x="10" y="58" height="9" width="264.0845070422535" fill="#009CA2" stroke="#009CA2" stroke-width="0" opacity="0.9" />
<rect x="10" y="59.62" height="3" width="264.0845070422535" fill="#F4EDF2" opacity="0.25" />
<rect x="274.0845070422535" y="58" height="9" width="126.76056338028168" fill="#1383C6" stroke="#1383C6" stroke-width="0" opacity="0.9" />
<rect x="274.0845070422535" y="59.62" height="3" width="126.76056338028168" fill="#F4EDF2" opacity="0.25" />
<rect x="400.8450704225352" y="58" height="9" width="15.84507042253521" fill="#D1D1D1" stroke="#D1D1D1" stroke-width="0" opacity="0.9" />
<rect x="400.8450704225352" y="59.62" height="3" width="15.84507042253521" fill="#F4EDF2" opacity="0.25" />
<rect x="416.6901408450704" y="58" height="9" width="79.22535211267605" fill="#1383C6" stroke="#1383C6" stroke-width="0" opacity="0.9" />
<rect x="416.6901408450704" y="59.62" height="3" width="79.22535211267605" fill="#F4EDF2" opacity="0.25" />
<rect x="495.91549295774644" y="58" height="9" width="264.0845070422535" fill="#009CA2" stroke="#009CA2" stroke-width="0" opacity="0.9" />
<rect x="495.91549295774644" y="59.62" height="3" width="264.0845070422535" fill="#F4EDF2" opacity="0.25" />
<path d="M 760 58 C 764.5 58, 764.5 67, 760 67" fill="#009CA2" opacity="0.9" />
<path d="M 10 69 C 5.5 69, 5.5 78, 10 78" fill="#009CA2" opacity="0.9" />
<rect x="10" y="69" height="9" width="264.0845070422535" fill="#009CA2" stroke="#009CA2" stroke-width="0" opacity="0.9" />
<rect x="10" y="70.62" height="3" width="264.0845070422535" fill="#F4EDF2" opacity="0.25" />
<rect x="274.0845070422535" y="69" height="9" width="126.76056338028168" fill="#1383C6" stroke="#1383C6" stroke-width="0" opacity="0.9" />
<rect x="274.0845070422535" y="70.62" height="3" width="126.76056338028168" fill="#F4EDF2" opacity="0.25" />
<rect x="400.8450704225352" y="69" height="9" width="15.84507042253521" fill="#D1D1D1" stroke="#D1D1D1" stroke-width="0" opacity="0.9" />
<rect x="400.8450704225352" y="70.62" height="3" width="15.84507042253521" fill="#F4EDF2" opacity="0.25" />
<rect x="416.6901408450704" y="69" height="9" width="79.22535211267605" fill="#1383C6" stroke="#1383C6" stroke-width="0" opacity="0.9" />
<rect x="416.6901408450704" y="70.62" height="3" width="79.22535211267605" fill="#F4EDF2" opacity="0.25" />
<rect x="495.91549295774644" y="69" height="9" width="264.0845070422535" fill="#009CA2" stroke="#009CA2" stroke-width="0" opacity="0.9" />
<rect x="495.91549295774644" y="70.62" height="3" width="264.0845070422535" fill="#F4EDF2" opacity="0.25" />
<path d="M 760 69 C 764.5 69, 764.5 78, 760 78" fill="#009CA2" opacity="0.9" />
<path d="M 10 80 C 5.5 80, 5.5 89, 10 89" fill="#009CA2" opacity="0.9" />
<rect x="10" y="80" height="9" width="264.0845070422535" fill="#009CA2" stroke="#009CA2" stroke-width="0" opacity="0.9" />
<rect x="10" y="81.62" height="3" width="264.0845070422535" fill="#F4EDF2" opacity="0.25" />
<rect x="274.0845070422535" y="80" height="9" width="126.76056338028168" fill="#1383C6" stroke="#1383C6" stroke-width="0" opacity="0.9" />
<rect x="274.0845070422535" y="81.62" height="3" width="126.76056338028168" fill="#F4EDF2" opacity="0.25" />
<rect x="400.8450704225352" y="80" height="9" width="15.84507042253521" fill="#D1D1D1" stroke="#D1D1D1" stroke-width="0" opacity="0.9" />
<rect x="400.8450704225352" y="81.62" height="3" width="15.84507042253521" fill="#F4EDF2" opacity="0.25" />
<rect x="416.6901408450704" y="80" height="9" width="79.22535211267605" fill="#1383C6" stroke="#1383C6" stroke-width="0" opacity="0.9" />
<rect x="416.6901408450704" y="81.62" height="3" width="79.22535211267605" fill="#F4EDF2" opacity="0.25" />
<rect x="495.91549295774644" y="80" height="9" width="264.0845070422535" fill="#009CA2" stroke="#009CA2" stroke-width="0" opacity="0.9" />
<rect x="495.91549295774644" y="81.62" height="3" width="264.0845070422535" fill="#F4EDF2" opacity="0.25" />
<path d="M 760 80 C 764.5 80, 764.5 89, 760 89" fill="#009CA2" opacity="0.9" />
<path d="M 10 91 C 5.5 91, 5.5 100, 10 100" fill="#009CA2" opacity="0.9" />
<rect x="10" y="91" height="9" width="264.0845070422535" fill="#009CA2" stroke="#009CA2" stroke-width="0" opacity="0.9" />
<rect x="10" y="92.62" height="3" width="264.0845070422535" fill="#F4EDF2" opacity="0.25" />
<rect x="274.0845070422535" y="91" height="9" width="126.76056338028168" fill="#1383C6" stroke="#1383C6" stroke-width="0" opacity="0.9" />
<rect x="274.0845070422535" y="92.62" height="3" width="126.76056338028168" fill="#F4EDF2" opacity="0.25" />
<rect x="400.8450704225352" y="91" height="9" width="15.84507042253521" fill="#D1D1D1" stroke="#D1D1D1" stroke-width="0" opacity="0.9" />
<rect x="400.8450704225352" y="92.62" height="3" width="15.84507042253521" fill="#F4EDF2" opacity="0.25" />
<rect x="416.6901408450704" y="91" height="9" width="79.22535211267605" fill="#1383C6" stroke="#1383C6" stroke-width="0" opacity="0.9" />
<rect x="416.6901408450704" y="92.62" height="3" width="79.22535211267605" fill="#F4EDF2" opacity="0.25" />
<rect x="495.91549295774644" y="91" height="9" width="264.0845070422535" fill="#009CA2" stroke="#009CA2" stroke-width="0" opacity="0.9" />
<rect x="495.91549295774644" y="92.62" height="3" width="264.0845070422535" fill="#F4EDF2" opacity="0.25" />
<path d="M 760 91 C 764.5 91, 764.5 100, 760 100" fill="#009CA2" opacity="0.9" />
<path d="M 10 102 C 5.5 102, 5.5 111, 10 111" fill="#009CA2" opacity="0.9" />
<rect x="10" y="102" height="9" width="264.0845070422535" fill="#009CA2" stroke="#009CA2" stroke-width="0" opacity="0.9" />
<rect x="10" y="103.62" height="3" width="264.0845070422535" fill="#F4EDF2" opacity="0.25" />
<rect x="274.0845070422535" y="102" height="9" width="126.76056338028168" fill="#1383C6" stroke="#1383C6" stroke-width="0" opacity="0.9" />
<rect x="274.0845070422535" y="103.62" height="3" width="126.76056338028168" fill="#F4EDF2" opacity="0.25" />
<rect x="400.8450704225352" y="102" height="9" width="15.84507042253521" fill="#D1D1D1" stroke="#D1D1D1" stroke-width="0" opacity="0.9" />
<rect x="400.8450704225352" y="103.62" height="3" width="15.84507042253521" fill="#F4EDF2" opacity="0.25" />
<rect x="416.6901408450704" y="102" height="9" width="79.22535211267605" fill="#1383C6" stroke="#1383C6" stroke-width="0" opacity="0.9" />
<rect x="416.6901408450704" y="103.62" height="3" width="79.22535211267605" fill="#F4EDF2" opacity="0.25" />
<rect x="495.91549295774644" y="102" height="9" width="264.0845070422535" fill="#009CA2" stroke="#009CA2" stroke-width="0" opacity="0.9" />
<rect x="495.91549295774644" y="103.62" height="3" width="264.0845070422535" fill="#F4EDF2" opacity="0.25" />
<path d="M 760 102 C 764.5 102, 764.5 111, 760 111" fill="#009CA2" opacity="0.9" />
<path d="M 10 113 C 5.5 113, 5.5 122, 10 122" fill="#009CA2" opacity="0.9" />
<line x1="10" y1="117.5" x2="15.28169014084507" y2="117.5" stroke="#009CA2" stroke-width="1.5" />
<rect x="15.28169014084507" y="113" height="9" width="132.04225352112675" fill="#009CA2" stroke="#009CA2" stroke-width="0" opacity="0.9" />
<rect x="15.28169014084507" y="114.62" height="3" width="132.04225352112675" fill="#F4EDF2" opacity="0.25" />
<rect x="147.3239436619718" y="113" height="9" width="126.76056338028168" fill="#009CA2" stroke="#009CA2" stroke-width="0" opacity="0.9" />
<rect x="147.3239436619718" y="114.62" height="3" width="126.76056338028168" fill="#F4EDF2" opacity="0.25" />
<rect x="274.0845070422535" y="113" height="9" width="126.76056338028168" fill="#1383C6" stroke="#1383C6" stroke-width="0" opacity="0.9" />
<rect x="274.0845070422535" y="114.62" height="3" width="126.76056338028168" fill="#F4EDF2" opacity="0.25" />
<rect x="400.8450704225352" y="113" height="9" width="15.84507042253521" fill="#D1D1D1" stroke="#D1D1D1" stroke-width="0" opacity="0.9" />
<rect x="400.8450704225352" y="114.62" height="3" width="15.84507042253521" fill="#F4EDF2" opacity="0.25" />
<rect x="416.6901408450704" y="113" height="9" width="79.22535211267605" fill="#1383C6" stroke="#1383C6" stroke-width="0" opacity="0.9" />
<rect x="416.6901408450704" y="114.62" height="3" width="79.22535211267605" fill="#F4EDF2" opacity="0.25" />
<rect x="495.91549295774644" y="113" height="9" width="264.0845070422535" fill="#009CA2" stroke="#009CA2" stroke-width="0" opacity="0.9" />
<rect x="495.91549295774644" y="114.62" height="3" width="264.0845070422535" fill="#F4EDF2" opacity="0.25" />
<path d="M 760 113 C 764.5 113, 764.5 122, 760 122" fill="#009CA2" opacity="0.9" />
<line x1="147.3239436619718" y1="113" x2="147.3239436619718" y2="122" stroke="#000000" stroke-width="2" />
<path d="M 10 124 C 5.5 124, 5.5 133, 10 133" fill="#009CA2" opacity="0.9" />
<rect x="10" y="124" height="9" width="264.0845070422535" fill="#009CA2" stroke="#009CA2" stroke-width="0" opacity="0.9" />
<rect x="10" y="125.62" height="3" width="264.0845070422535" fill="#F4EDF2" opacity="0.25" />
<rect x="274.0845070422535" y="124" height="9" width="126.76056338028168" fill="#1383C6" stroke="#1383C6" stroke-width="0" opacity="0.9" />
<rect x="274.0845070422535" y="125.62" height="3" width="126.76056338028168" fill="#F4EDF2" opacity="0.25" />
<rect x="400.8450704225352" y="124" height="9" width="15.84507042253521" fill="#D1D1D1" stroke="#D1D1D1" stroke-width="0" opacity="0.9" />
<rect x="400.8450704225352" y="125.62" height="3" width="15.84507042253521" fill="#F4EDF2" opacity="0.25" />
<rect x="416.6901408450704" y="124" height="9" width="79.22535211267605" fill="#1383C6" stroke="#1383C6" stroke-width="0" opacity="0.9" />
<rect x="416.6901408450704" y="125.62" height="3" width="79.22535211267605" fill="#F4EDF2" opacity="0.25" />
<rect x="495.91549295774644" y="124" height="9" width="36.97183098591549" fill="#009CA2" stroke="#009CA2" stroke-width="0" opacity="0.9" />
<rect x="495.91549295774644" y="125.62" height="3" width="36.97183098591549" fill="#F4EDF2" opacity="0.25" />
<rect x="532.887323943662" y="124" height="9" width="216.54929577464787" fill="#009CA2" stroke="#009CA2" stroke-width="0" opacity="0.9" />
<rect x="532.887323943662" y="125.62" height="3" width="216.54929577464787" fill="#F4EDF2" opacity="0.25" />
<line x1="749.4366197183099" y1="128.5" x2="760" y2="128.5" stroke="#009CA2" stroke-width="1.5" />
<path d="M 760 124 C 764.5 124, 764.5 133, 760 133" fill="#009CA2" opacity="0.9" />
<line x1="532.887323943662" y1="124" x2="532.887323943662" y2="133" stroke="#000000" stroke-width="2" />
<path d="M 10 135 C 5.5 135, 5.5 144, 10 144" fill="#009CA2" opacity="0.9" />
<rect x="10" y="135" height="9" width="264.0845070422535" fill="#009CA2" stroke="#009CA2" stroke-width="0" opacity="0.9" />
<rect x="10" y="136.62" height="3" width="264.0845070422535" fill="#F4EDF2" opacity="0.25" />
<rect x="274.0845070422535" y="135" height="9" width="126.76056338028168" fill="#1383C6" stroke="#1383C6" stroke-width="0" opacity="0.9" />
<rect x="274.0845070422535" y="136.62" height="3" width="126.76056338028168" fill="#F4EDF2" opacity="0.25" />
<rect x="400.8450704225352" y="135" height="9" width="15.84507042253521" fill="#D1D1D1" stroke="#D1D1D1" stroke-width="0" opacity="0.9" />
<rect x="400.8450704225352" y="136.62" height="3" width="15.84507042253521" fill="#F4EDF2" opacity="0.25" />
<rect x="416.6901408450704" y="135" height="9" width="79.22535211267605" fill="#1383C6" stroke="#1383C6" stroke-width="0" opacity="0.9" />
<rect x="416.6901408450704" y="136.62" height="3" width="79.22535211267605" fill="#F4EDF2" opacity="0.25" />
<rect x="495.91549295774644" y="135" height="9" width="264.0845070422535" fill="#009CA2" stroke="#009CA2" stroke-width="0" opacity="0.9" />
<rect x="495.91549295774644" y="136.62" height="3" width="264.0845070422535" fill="#F4EDF2" opacity="0.25" />
<path d="M 760 135 C 764.5 135, 764.5 144, 760 144" fill="#009CA2" opacity="0.9" />
<path d="M 10 146 C 5.5 146, 5.5 155, 10 155" fill="#009CA2" opacity="0.9" />
<rect x="10" y="146" height="9" width="264.0845070422535" fill="#009CA2" stroke="#009CA2" stroke-width="0" opacity="0.9" />
<rect x="10" y="147.62" height="3" width="264.0845070422535" fill="#F4EDF2" opacity="0.25" />
<rect x="274.0845070422535" y="146" height="9" width="126.76056338028168" fill="#1383C6" stroke="#1383C6" stroke-width="0" opacity="0.9" />
<rect x="274.0845070422535" y="147.62" height="3" width="126.76056338028168" fill="#F4EDF2" opacity="0.25" />
<rect x="400.8450704225352" y="146" height="9" width="15.84507042253521" fill="#D1D1D1" stroke="#D1D1D1" stroke-width="0" opacity="0.9" />
<rect x="400.8450704225352" y="147.62" height="3" width="15.84507042253521" fill="#F4EDF2" opacity="0.25" />
<rect x="416.6901408450704" y="146" height="9" width="79.22535211267605" fill="#1383C6" stroke="#1383C6" stroke-width="0" opacity="0.9" />
<rect x="416.6901408450704" y="147.62" height="3" width="79.22535211267605" fill="#F4EDF2" opacity="0.25" />
<rect x="495.91549295774644" y="146" height="9" width="264.0845070422535" fill="#009CA2" stroke="#009CA2" stroke-width="0" opacity="0.9" />
<rect x="495.91549295774644" y="147.62" height="3" width="264.0845070422535" fill="#F4EDF2" opacity="0.25" />
<path d="M 760 146 C 764.5 146, 764.5 155, 760 155" fill="#009CA2" opacity="0.9" />
<path d="M 10 157 C 5.5 157, 5.5 166, 10 166" fill="#009CA2" opacity="0.9" />
<line x1="10" y1="161.5" x2="15.28169014084507" y2="161.5" stroke="#009CA2" stroke-width="1.5" />
<rect x="15.28169014084507" y="157" height="9" width="190.14084507042253" fill="#009CA2" stroke="#009CA2" stroke-width="0" opacity="0.9" />
<rect x="15.28169014084507" y="158.62" height="3" width="190.14084507042253" fill="#F4EDF2" opacity="0.25" />
<rect x="205.4225352112676" y="157" height="9" width="68.6619718309859" fill="#009CA2" stroke="#009CA2" stroke-width="0" opacity="0.9" />
<rect x="205.4225352112676" y="158.62" height="3" width="68.6619718309859" fill="#F4EDF2" opacity="0.25" />
<rect x="274.0845070422535" y="157" height="9" width="126.76056338028168" fill="#1383C6" stroke="#1383C6" stroke-width="0" opacity="0.9" />
<rect x="274.0845070422535" y="158.62" height="3" width="126.76056338028168" fill="#F4EDF2" opacity="0.25" />
<rect x="400.8450704225352" y="157" height="9" width="15.84507042253521" fill="#D1D1D1" stroke="#D1D1D1" stroke-width="0" opacity="0.9" />
<rect x="400.8450704225352" y="158.62" height="3" width="15.84507042253521" fill="#F4EDF2" opacity="0.25" />
<rect x="416.6901408450704" y="157" height="9" width="79.22535211267605" fill="#1383C6" stroke="#1383C6" stroke-width="0" opacity="0.9" />
<rect x="416.6901408450704" y="158.62" height="3" width="79.22535211267605" fill="#F4EDF2" opacity="0.25" />
<rect x="495.91549295774644" y="157" height="9" width="36.97183098591549" fill="#009CA2" stroke="#009CA2" stroke-width="0" opacity="0.9" />
<rect x="495.91549295774644" y="158.62" height="3" width="36.97183098591549" fill="#F4EDF2" opacity="0.25" />
<rect x="532.887323943662" y="157" height="9" width="221.83098591549293" fill="#009CA2" stroke="#009CA2" stroke-width="0" opacity="0.9" />
<rect x="532.887323943662" y="158.62" height="3" width="221.83098591549293" fill="#F4EDF2" opacity="0.25" />
<line x1="754.7183098591549" y1="161.5" x2="760" y2="161.5" stroke="#009CA2" stroke-width="1.5" />
<path d="M 760 157 C 764.5 157, 764.5 166, 760 166" fill="#009CA2" opacity="0.9" />
<line x1="205.4225352112676" y1="157" x2="205.4225352112676" y2="166" stroke="#000000" stroke-width="2" />
<line x1="532.887323943662" y1="157" x2="532.887323943662" y2="166" stroke="#000000" stroke-width="2" />
<path d="M 10 168 C 5.5 168, 5.5 177, 10 177" fill="#009CA2" opacity="0.9" />
<rect x="10" y="168" height="9" width="264.0845070422535" fill="#009CA2" stroke="#009CA2" stroke-width="0" opacity="0.9" />
<rect x="10" y="169.62" height="3" width="264.0845070422535" fill="#F4EDF2" opacity="0.25" />
<rect x="274.0845070422535" y="168" height="9" width="126.76056338028168" fill="#1383C6" stroke="#1383C6" stroke-width="0" opacity="0.9" />
<rect x="274.0845070422535" y="169.62" height="3" width="126.76056338028168" fill="#F4EDF2" opacity="0.25" />
<rect x="400.8450704225352" y="168" height="9" width="15.84507042253521" fill="#D1D1D1" stroke="#D1D1D1" stroke-width="0" opacity="0.9" />
<rect x="400.8450704225352" y="169.62" height="3" width="15.84507042253521" fill="#F4EDF2" opacity="0.25" />
<rect x="416.6901408450704" y="168" height="9" width="79.22535211267605" fill="#1383C6" stroke="#1383C6" stroke-width="0" opacity="0.9" />
<rect x="416.6901408450704" y="169.62" height="3" width="79.22535211267605" fill="#F4EDF2" opacity="0.25" />
<rect x="495.91549295774644" y="168" height="9" width="264.0845070422535" fill="#009CA2" stroke="#009CA2" stroke-width="0" opacity="0.9" />
<rect x="495.91549295774644" y="169.62" height="3" width="264.0845070422535" fill="#F4EDF2" opacity="0.25" />
<path d="M 760 168 C 764.5 168, 764.5 177, 760 177" fill="#009CA2" opacity="0.9" />
<path d="M 10 179 C 5.5 179, 5.5 188, 10 188" fill="#009CA2" opacity="0.9" />
<rect x="10" y="179" height="9" width="264.0845070422535" fill="#009CA2" stroke="#009CA2" stroke-width="0" opacity="0.9" />
<rect x="10" y="180.62" height="3" width="264.0845070422535" fill="#F4EDF2" opacity="0.25" />
<rect x="274.0845070422535" y="179" height="9" width="126.76056338028168" fill="#1383C6" stroke="#1383C6" stroke-width="0" opacity="0.9" />
<rect x="274.0845070422535" y="180.62" height="3" width="126.76056338028168" fill="#F4EDF2" opacity="0.25" />
<rect x="400.8450704225352" y="179" height="9" width="15.84507042253521" fill="#D1D1D1" stroke="#D1D1D1" stroke-width="0" opacity="0.9" />
<rect x="400.8450704225352" y="180.62" height="3" width="15.84507042253521" fill="#F4EDF2" opacity="0.25" />
<rect x="416.6901408450704" y="179" height="9" width="79.22535211267605" fill="#1383C6" stroke="#1383C6" stroke-width="0" opacity="0.9" />
<rect x="416.6901408450704" y="180.62" height="3" width="79.22535211267605" fill="#F4EDF2" opacity="0.25" />
<rect x="495.91549295774644" y="179" height="9" width="264.0845070422535" fill="#009CA2" stroke="#009CA2" stroke-width="0" opacity="0.9" />
<rect x="495.91549295774644" y="180.62" height="3" width="264.0845070422535" fill="#F4EDF2" opacity="0.25" />
<path d="M 760 179 C 764.5 179, 764.5 188, 760 188" fill="#009CA2" opacity="0.9" />
<path d="M 10 190 C 5.5 190, 5.5 199, 10 199" fill="#009CA2" opacity="0.9" />
<rect x="10" y="190" height="9" width="264.0845070422535" fill="#009CA2" stroke="#009CA2" stroke-width="0" opacity="0.9" />
<rect x="10" y="191.62" height="3" width="264.0845070422535" fill="#F4EDF2" opacity="0.25" />
<rect x="274.0845070422535" y="190" height="9" width="126.76056338028168" fill="#1383C6" stroke="#1383C6" stroke-width="0" opacity="0.9" />
<rect x="274.0845070422535" y="191.62" height="3" width="126.76056338028168" fill="#F4EDF2" opacity="0.25" />
<rect x="400.8450704225352" y="190" height="9" width="15.84507042253521" fill="#D1D1D1" stroke="#D1D1D1" stroke-width="0" opacity="0.9" />
<rect x="400.8450704225352" y="191.62" height="3" width="15.84507042253521" fill="#F4EDF2" opacity="0.25" />
<rect x="416.6901408450704" y="190" height="9" width="79.22535211267605" fill="#1383C6" stroke="#1383C6" stroke-width="0" opacity="0.9" />
<rect x="416.6901408450704" y="191.62" height="3" width="79.22535211267605" fill="#F4EDF2" opacity="0.25" />
<rect x="495.91549295774644" y="190" height="9" width="264.0845070422535" fill="#009CA2" stroke="#009CA2" stroke-width="0" opacity="0.9" />
<rect x="495.91549295774644" y="191.62" height="3" width="264.0845070422535" fill="#F4EDF2" opacity="0.25" />
<path d="M 760 190 C 764.5 190, 764.5 199, 760 199" fill="#009CA2" opacity="0.9" />
<rect x="10" y="205" height="12" width="12" fill="#1383C6" stroke="#1383C6" stroke-width="0" opacity="0.9" />
<text x="24" y="216" font-family="monospace" font-weight="bold" font-size="14px" >GCC</text>
</svg>
