<?xml version="1.0"?>
<svg xmlns="http://www.w3.org/2000/svg" xmlns:xlink="http://www.w3.org/1999/xlink" width="770" height="265">
<rect width="100%" height="100%" fill="white"/>
<path d="M 10 14 C 5.5 14, 5.5 23, 10 23" fill="#009CA2" opacity="0.9" />
<rect x="10" y="14" height="9" width="264.0845070422535" fill="#009CA2" stroke="#009CA2" stroke-width="0" opacity="0.9" />
<rect x="10" y="15.62" height="3" width="264.0845070422535" fill="#F4EDF2" opacity="0.25" />
<rect x="274.0845070422535" y="14" height="9" width="126.76056338028168" fill="#1383C6" stroke="#1383C6" stroke-width="0" opacity="0.9" />
<rect x="274.0845070422535" y="15.62" height="3" width="126.76056338028168" fill="#F4EDF2" opacity="0.25" />
<rect x="400.8450704225352" y="14" height="9" width="5.28169014084507" fill="#BABABA" stroke="#BABABA" stroke-width="0" opacity="0.9" />
<rect x="400.8450704225352" y="15.62" height="3" width="5.28169014084507" fill="#F4EDF2" opacity="0.25" />
<rect x="406.12676056338023" y="14" height="9" width="89.78873239436619" fill="#1383C6" stroke="#1383C6" stroke-width="0" opacity="0.9" />
<rect x="406.12676056338023" y="15.62" height="3" width="89.78873239436619" fill="#F4EDF2" opacity="0.25" />
<rect x="495.91549295774644" y="14" height="9" width="264.0845070422535" fill="#009CA2" stroke="#009CA2" stroke-width="0" opacity="0.9" />
<rect x="495.91549295774644" y="15.62" height="3" width="264.0845070422535" fill="#F4EDF2" opacity="0.25" />
<path d="M 760 14 C 764.5 14, 764.5 23, 760 23" fill="#009CA2" opacity="0.9" />
<line x1="274.0845070422535" y1="14" x2="274.0845070422535" y2="23" stroke="#000000" stroke-width="1.5" />
<line x1="495.91549295774644" y1="14" x2="495.91549295774644" y2="23" stroke="#000000" stroke-width="1.5" />
<line x1="10" y1="14" x2="760" y2="14" stroke="#000000" stroke-width="1.5" />
<line x1="10" y1="23" x2="760" y2="23" stroke="#000000" stroke-width="1.5" />
<path d="M 10 14 C 5.5 14, 5.5 23, 10 23" stroke="#000000" stroke-width="1.5" fill="none" opacity="0.9" />
<path d="M 760 14 C 764.5 14, 764.5 23, 760 23" stroke="#000000" stroke-width="1.5" fill="none" opacity="0.9" />
<line x1="274.0845070422535" y1="11.75" x2="274.0845070422535" y2="16.25" stroke="#000000" stroke-width="1.5" />
<text x="274.0845070422535" y="9.75" font-family="monospace" font-weight="bold" text-anchor="middle" font-size="10px" >0</text>
<line x1="289.92957746478874" y1="11.75" x2="289.92957746478874" y2="16.25" stroke="#000000" stroke-width="1.5" />
<line x1="305.7746478873239" y1="11.75" x2="305.7746478873239" y2="16.25" stroke="#000000" stroke-width="1.5" />
<line x1="321.61971830985914" y1="11.75" x2="321.61971830985914" y2="16.25" stroke="#000000" stroke-width="1.5" />
<line x1="337.46478873239437" y1="11.75" x2="337.46478873239437" y2="16.25" stroke="#000000" stroke-width="1.5" />
<line x1="353.30985915492954" y1="11.75" x2="353.30985915492954" y2="16.25" stroke="#000000" stroke-width="1.5" />
<text x="353.30985915492954" y="9.75" font-family="monospace" font-weight="bold" text-anchor="middle" font-size="10px" >5</text>
<line x1="369.15492957746477" y1="11.75" x2="369.15492957746477" y2="16.25" stroke="#000000" stroke-width="1.5" />
<line x1="385" y1="11.75" x2="385" y2="16.25" stroke="#000000" stroke-width="1.5" />
<line x1="400.8450704225352" y1="11.75" x2="400.8450704225352" y2="16.25" stroke="#000000" stroke-width="1.5" />
<line x1="416.6901408450704" y1="11.75" x2="416.6901408450704" y2="16.25" stroke="#000000" stroke-width="1.5" />
<line x1="432.53521126760563" y1="11.75" x2="432.53521126760563" y2="16.25" stroke="#000000" stroke-width="1.5" />
<text x="432.53521126760563" y="9.75" font-family="monospace" font-weight="bold" text-anchor="middle" font-size="10px" >10</text>
<line x1="448.3802816901408" y1="11.75" x2="448.3802816901408" y2="16.25" stroke="#000000" stroke-width="1.5" />
<line x1="464.22535211267603" y1="11.75" x2="464.22535211267603" y2="16.25" stroke="#000000" stroke-width="1.5" />
<line x1="480.0704225352112" y1="11.75" x2="480.0704225352112" y2="16.25" stroke="#000000" stroke-width="1.5" />
<path d="M 10 26 C 5.5 26, 5.5 35, 10 35" fill="#009CA2" opacity="0.9" />
<rect x="10" y="26" height="9" width="264.0845070422535" fill="#009CA2" stroke="#009CA2" stroke-width="0" opacity="0.9" />
<rect x="10" y="27.62" height="3" width="264.0845070422535" fill="#F4EDF2" opacity="0.25" />
<rect x="274.0845070422535" y="26" height="9" width="221.83098591549293" fill="#1383C6" stroke="#1383C6" stroke-width="0" opacity="0.9" />
<rect x="274.0845070422535" y="27.62" height="3" width="221.83098591549293" fill="#F4EDF2" opacity="0.25" />
<rect x="495.91549295774644" y="26" height="9" width="264.0845070422535" fill="#009CA2" stroke="#009CA2" stroke-width="0" opacity="0.9" />
<rect x="495.91549295774644" y="27.62" height="3" width="264.0845070422535" fill="#F4EDF2" opacity="0.25" />
<path d="M 760 26 C 764.5 26, 764.5 35, 760 35" fill="#009CA2" opacity="0.9" />
<path d="M 10 37 C 5.5 37, 5.5 46, 10 46" fill="#009CA2" opacity="0.9" />
<rect x="10" y="37" height="9" width="264.0845070422535" fill="#009CA2" stroke="#009CA2" stroke-width="0" opacity="0.9" />
<rect x="10" y="38.62" height="3" width="264.0845070422535" fill="#F4EDF2" opacity="0.25" />
<rect x="274.0845070422535" y="37" height="9" width="221.83098591549293" fill="#1383C6" stroke="#1383C6" stroke-width="0" opacity="0.9" />
<rect x="274.0845070422535" y="38.62" height="3" width="221.83098591549293" fill="#F4EDF2" opacity="0.25" />
<rect x="495.91549295774644" y="37" height="9" width="264.0845070422535" fill="#009CA2" stroke="#009CA2" stroke-width="0" opacity="0.9" />
<rect x="495.91549295774644" y="38.62" height="3" width="264.0845070422535" fill="#F4EDF2" opacity="0.25" />
<path d="M 760 37 C 764.5 37, 764.5 46, 760 46" fill="#009CA2" opacity="0.9" />
<path d="M 10 48 C 5.5 48, 5.5 57, 10 57" fill="#009CA2" opacity="0.9" />
<rect x="10" y="48" height="9" width="264.0845070422535" fill="#009CA2" stroke="#009CA2" stroke-width="0" opacity="0.9" />
<rect x="10" y="49.62" height="3" width="264.0845070422535" fill="#F4EDF2" opacity="0.25" />
<rect x="274.0845070422535" y="48" height="9" width="221.83098591549293" fill="#1383C6" stroke="#1383C6" stroke-width="0" opacity="0.9" />
<rect x="274.0845070422535" y="49.62" height="3" width="221.83098591549293" fill="#F4EDF2" opacity="0.25" />
<rect x="495.91549295774644" y="48" height="9" width="264.0845070422535" fill="#009CA2" stroke="#009CA2" stroke-width="0" opacity="0.9" />
<rect x="495.91549295774644" y="49.62" height="3" width="264.0845070422535" fill="#F4EDF2" opacity="0.25" />
<path d="M 760 48 C 764.5 48, 764.5 57, 760 57" fill="#009CA2" opacity="0.9" />
<path d="M 10 59 C 5.5 59, 5.5 68, 10 68" fill="#009CA2" opacity="0.9" />
<line x1="10" y1="63.5" x2="15.28169014084507" y2="63.5" stroke="#009CA2" stroke-width="1.5" />
<rect x="15.28169014084507" y="59" height="9" width="190.14084507042253" fill="#009CA2" stroke="#009CA2" stroke-width="0" opacity="0.9" />
<rect x="15.28169014084507" y="60.62" height="3" width="190.14084507042253" fill="#F4EDF2" opacity="0.25" />
<rect x="205.4225352112676" y="59" height="9" width="68.6619718309859" fill="#009CA2" stroke="#009CA2" stroke-width="0" opacity="0.9" />
<rect x="205.4225352112676" y="60.62" height="3" width="68.6619718309859" fill="#F4EDF2" opacity="0.25" />
<rect x="274.0845070422535" y="59" height="9" width="221.83098591549293" fill="#1383C6" stroke="#1383C6" stroke-width="0" opacity="0.9" />
<rect x="274.0845070422535" y="60.62" height="3" width="221.83098591549293" fill="#F4EDF2" opacity="0.25" />
<rect x="495.91549295774644" y="59" height="9" width="36.97183098591549" fill="#009CA2" stroke="#009CA2" stroke-width="0" opacity="0.9" />
<rect x="495.91549295774644" y="60.62" height="3" width="36.97183098591549" fill="#F4EDF2" opacity="0.25" />
<rect x="532.887323943662" y="59" height="9" width="221.83098591549293" fill="#009CA2" stroke="#009CA2" stroke-width="0" opacity="0.9" />
<rect x="532.887323943662" y="60.62" height="3" width="221.83098591549293" fill="#F4EDF2" opacity="0.25" />
<line x1="754.7183098591549" y1="63.5" x2="760" y2="63.5" stroke="#009CA2" stroke-width="1.5" />
<path d="M 760 59 C 764.5 59, 764.5 68, 760 68" fill="#009CA2" opacity="0.9" />
<line x1="205.4225352112676" y1="59" x2="205.4225352112676" y2="68" stroke="#000000" stroke-width="2" />
<line x1="532.887323943662" y1="59" x2="532.887323943662" y2="68" stroke="#000000" stroke-width="2" />
<path d="M 10 70 C 5.5 70, 5.5 79, 10 79" fill="#009CA2" opacity="0.9" />
<rect x="10" y="70" height="9" width="264.0845070422535" fill="#009CA2" stroke="#009CA2" stroke-width="0" opacity="0.9" />
<rect x="10" y="71.62" height="3" width="264.0845070422535" fill="#F4EDF2" opacity="0.25" />
<rect x="274.0845070422535" y="70" height="9" width="221.83098591549293" fill="#1383C6" stroke="#1383C6" stroke-width="0" opacity="0.9" />
<rect x="274.0845070422535" y="71.62" height="3" width="221.83098591549293" fill="#F4EDF2" opacity="0.25" />
<rect x="495.91549295774644" y="70" height="9" width="264.0845070422535" fill="#009CA2" stroke="#009CA2" stroke-width="0" opacity="0.9" />
<rect x="495.91549295774644" y="71.62" height="3" width="264.0845070422535" fill="#F4EDF2" opacity="0.25" />
<path d="M 760 70 C 764.5 70, 764.5 79, 760 79" fill="#009CA2" opacity="0.9" />
<path d="M 10 81 C 5.5 81, 5.5 90, 10 90" fill="#009CA2" opacity="0.9" />
<rect x="10" y="81" height="9" width="264.0845070422535" fill="#009CA2" stroke="#009CA2" stroke-width="0" opacity="0.9" />
<rect x="10" y="82.62" height="3" width="264.0845070422535" fill="#F4EDF2" opacity="0.25" />
<rect x="274.0845070422535" y="81" height="9" width="221.83098591549293" fill="#1383C6" stroke="#1383C6" stroke-width="0" opacity="0.9" />
<rect x="274.0845070422535" y="82.62" height="3" width="221.83098591549293" fill="#F4EDF2" opacity="0.25" />
<rect x="495.91549295774644" y="81" height="9" width="264.0845070422535" fill="#009CA2" stroke="#009CA2" stroke-width="0" opacity="0.9" />
<rect x="495.91549295774644" y="82.62" height="3" width="264.0845070422535" fill="#F4EDF2" opacity="0.25" />
<path d="M 760 81 C 764.5 81, 764.5 90, 760 90" fill="#009CA2" opacity="0.9" />
<path d="M 10 112 C 5.5 112, 5.5 121, 10 121" fill="#009CA2" opacity="0.9" />
<rect x="10" y="112" height="9" width="264.0845070422535" fill="#009CA2" stroke="#009CA2" stroke-width="0" opacity="0.9" />
<rect x="10" y="113.62" height="3" width="264.0845070422535" fill="#F4EDF2" opacity="0.25" />
<rect x="274.0845070422535" y="112" height="9" width="126.76056338028168" fill="#1383C6" stroke="#1383C6" stroke-width="0" opacity="0.9" />
<rect x="274.0845070422535" y="113.62" height="3" width="126.76056338028168" fill="#F4EDF2" opacity="0.25" />
<rect x="400.8450704225352" y="112" height="9" width="5.28169014084507" fill="#BABABA" stroke="#BABABA" stroke-width="0" opacity="0.9" />
<rect x="400.8450704225352" y="113.62" height="3" width="5.28169014084507" fill="#F4EDF2" opacity="0.25" />
<rect x="406.12676056338023" y="112" height="9" width="89.78873239436619" fill="#1383C6" stroke="#1383C6" stroke-width="0" opacity="0.9" />
<rect x="406.12676056338023" y="113.62" height="3" width="89.78873239436619" fill="#F4EDF2" opacity="0.25" />
<rect x="495.91549295774644" y="112" height="9" width="264.0845070422535" fill="#009CA2" stroke="#009CA2" stroke-width="0" opacity="0.9" />
<rect x="495.91549295774644" y="113.62" height="3" width="264.0845070422535" fill="#F4EDF2" opacity="0.25" />
<path d="M 760 112 C 764.5 112, 764.5 121, 760 121" fill="#009CA2" opacity="0.9" />
<line x1="274.0845070422535" y1="112" x2="274.0845070422535" y2="121" stroke="#000000" stroke-width="1.5" />
<line x1="495.91549295774644" y1="112" x2="495.91549295774644" y2="121" stroke="#000000" stroke-width="1.5" />
<line x1="10" y1="112" x2="760" y2="112" stroke="#000000" stroke-width="1.5" />
<line x1="10" y1="121" x2="760" y2="121" stroke="#000000" stroke-width="1.5" />
<path d="M 10 112 C 5.5 112, 5.5 121, 10 121" stroke="#000000" stroke-width="1.5" fill="none" opacity="0.9" />
<path d="M 760 112 C 764.5 112, 764.5 121, 760 121" stroke="#000000" stroke-width="1.5" fill="none" opacity="0.9" />
<line x1="274.0845070422535" y1="109.75" x2="274.0845070422535" y2="114.25" stroke="#000000" stroke-width="1.5" />
<text x="274.0845070422535" y="107.75" font-family="monospace" font-weight="bold" text-anchor="middle" font-size="10px" >0</text>
<line x1="289.92957746478874" y1="109.75" x2="289.92957746478874" y2="114.25" stroke="#000000" stroke-width="1.5" />
<line x1="305.7746478873239" y1="109.75" x2="305.7746478873239" y2="114.25" stroke="#000000" stroke-width="1.5" />
<line x1="321.61971830985914" y1="109.75" x2="321.61971830985914" y2="114.25" stroke="#000000" stroke-width="1.5" />
<line x1="337.46478873239437" y1="109.75" x2="337.46478873239437" y2="114.25" stroke="#000000" stroke-width="1.5" />
<line x1="353.30985915492954" y1="109.75" x2="353.30985915492954" y2="114.25" stroke="#000000" stroke-width="1.5" />
<text x="353.30985915492954" y="107.75" font-family="monospace" font-weight="bold" text-anchor="middle" font-size="10px" >5</text>
<line x1="369.15492957746477" y1="109.75" x2="369.15492957746477" y2="114.25" stroke="#000000" stroke-width="1.5" />
<line x1="385" y1="109.75" x2="385" y2="114.25" stroke="#000000" stroke-width="1.5" />
<line x1="400.8450704225352" y1="109.75" x2="400.8450704225352" y2="114.25" stroke="#000000" stroke-width="1.5" />
<line x1="416.6901408450704" y1="109.75" x2="416.6901408450704" y2="114.25" stroke="#000000" stroke-width="1.5" />
<line x1="432.53521126760563" y1="109.75" x2="432.53521126760563" y2="114.25" stroke="#000000" stroke-width="1.5" />
<text x="432.53521126760563" y="107.75" font-family="monospace" font-weight="bold" text-anchor="middle" font-size="10px" >10</text>
<line x1="448.3802816901408" y1="109.75" x2="448.3802816901408" y2="114.25" stroke="#000000" stroke-width="1.5" />
<line x1="464.22535211267603" y1="109.75" x2="464.22535211267603" y2="114.25" stroke="#000000" stroke-width="1.5" />
<line x1="480.0704225352112" y1="109.75" x2="480.0704225352112" y2="114.25" stroke="#000000" stroke-width="1.5" />
<path d="M 10 124 C 5.5 124, 5.5 133, 10 133" fill="#009CA2" opacity="0.9" />
<rect x="10" y="124" height="9" width="264.0845070422535" fill="#009CA2" stroke="#009CA2" stroke-width="0" opacity="0.9" />
<rect x="10" y="125.62" height="3" width="264.0845070422535" fill="#F4EDF2" opacity="0.25" />
<rect x="274.0845070422535" y="124" height="9" width="221.83098591549293" fill="#1383C6" stroke="#1383C6" stroke-width="0" opacity="0.9" />
<rect x="274.0845070422535" y="125.62" height="3" width="221.83098591549293" fill="#F4EDF2" opacity="0.25" />
<rect x="495.91549295774644" y="124" height="9" width="264.0845070422535" fill="#009CA2" stroke="#009CA2" stroke-width="0" opacity="0.9" />
<rect x="495.91549295774644" y="125.62" height="3" width="264.0845070422535" fill="#F4EDF2" opacity="0.25" />
<path d="M 760 124 C 764.5 124, 764.5 133, 760 133" fill="#009CA2" opacity="0.9" />
<path d="M 10 135 C 5.5 135, 5.5 144, 10 144" fill="#009CA2" opacity="0.9" />
<rect x="10" y="135" height="9" width="264.0845070422535" fill="#009CA2" stroke="#009CA2" stroke-width="0" opacity="0.9" />
<rect x="10" y="136.62" height="3" width="264.0845070422535" fill="#F4EDF2" opacity="0.25" />
<rect x="274.0845070422535" y="135" height="9" width="221.83098591549293" fill="#1383C6" stroke="#1383C6" stroke-width="0" opacity="0.9" />
<rect x="274.0845070422535" y="136.62" height="3" width="221.83098591549293" fill="#F4EDF2" opacity="0.25" />
<rect x="495.91549295774644" y="135" height="9" width="264.0845070422535" fill="#009CA2" stroke="#009CA2" stroke-width="0" opacity="0.9" />
<rect x="495.91549295774644" y="136.62" height="3" width="264.0845070422535" fill="#F4EDF2" opacity="0.25" />
<path d="M 760 135 C 764.5 135, 764.5 144, 760 144" fill="#009CA2" opacity="0.9" />
<path d="M 10 146 C 5.5 146, 5.5 155, 10 155" fill="#009CA2" opacity="0.9" />
<rect x="10" y="146" height="9" width="264.0845070422535" fill="#009CA2" stroke="#009CA2" stroke-width="0" opacity="0.9" />
<rect x="10" y="147.62" height="3" width="264.0845070422535" fill="#F4EDF2" opacity="0.25" />
<rect x="274.0845070422535" y="146" height="9" width="221.83098591549293" fill="#1383C6" stroke="#1383C6" stroke-width="0" opacity="0.9" />
<rect x="274.0845070422535" y="147.62" height="3" width="221.83098591549293" fill="#F4EDF2" opacity="0.25" />
<rect x="495.91549295774644" y="146" height="9" width="264.0845070422535" fill="#009CA2" stroke="#009CA2" stroke-width="0" opacity="0.9" />
<rect x="495.91549295774644" y="147.62" height="3" width="264.0845070422535" fill="#F4EDF2" opacity="0.25" />
<path d="M 760 146 C 764.5 146, 764.5 155, 760 155" fill="#009CA2" opacity="0.9" />
<path d="M 10 157 C 5.5 157, 5.5 166, 10 166" fill="#009CA2" opacity="0.9" />
<rect x="10" y="157" height="9" width="264.0845070422535" fill="#009CA2" stroke="#009CA2" stroke-width="0" opacity="0.9" />
<rect x="10" y="158.62" height="3" width="264.0845070422535" fill="#F4EDF2" opacity="0.25" />
<rect x="274.0845070422535" y="157" height="9" width="221.83098591549293" fill="#1383C6" stroke="#1383C6" stroke-width="0" opacity="0.9" />
<rect x="274.0845070422535" y="158.62" height="3" width="221.83098591549293" fill="#F4EDF2" opacity="0.25" />
<rect x="495.91549295774644" y="157" height="9" width="264.0845070422535" fill="#009CA2" stroke="#009CA2" stroke-width="0" opacity="0.9" />
<rect x="495.91549295774644" y="158.62" height="3" width="264.0845070422535" fill="#F4EDF2" opacity="0.25" />
<path d="M 760 157 C 764.5 157, 764.5 166, 760 166" fill="#009CA2" opacity="0.9" />
<path d="M 10 168 C 5.5 168, 5.5 177, 10 177" fill="#009CA2" opacity="0.9" />
<rect x="10" y="168" height="9" width="264.0845070422535" fill="#009CA2" stroke="#009CA2" stroke-width="0" opacity="0.9" />
<rect x="10" y="169.62" height="3" width="264.0845070422535" fill="#F4EDF2" opacity="0.25" />
<rect x="274.0845070422535" y="168" height="9" width="221.83098591549293" fill="#1383C6" stroke="#1383C6" stroke-width="0" opacity="0.9" />
<rect x="274.0845070422535" y="169.62" height="3" width="221.83098591549293" fill="#F4EDF2" opacity="0.25" />
<rect x="495.91549295774644" y="168" height="9" width="264.0845070422535" fill="#009CA2" stroke="#009CA2" stroke-width="0" opacity="0.9" />
<rect x="495.91549295774644" y="169.62" height="3" width="264.0845070422535" fill="#F4EDF2" opacity="0.25" />
<path d="M 760 168 C 764.5 168, 764.5 177, 760 177" fill="#009CA2" opacity="0.9" />
<path d="M 10 179 C 5.5 179, 5.5 188, 10 188" fill="#009CA2" opacity="0.9" />
<rect x="10" y="179" height="9" width="264.0845070422535" fill="#009CA2" stroke="#009CA2" stroke-width="0" opacity="0.9" />
<rect x="10" y="180.62" height="3" width="264.0845070422535" fill="#F4EDF2" opacity="0.25" />
<rect x="274.0845070422535" y="179" height="9" width="221.83098591549293" fill="#1383C6" stroke="#1383C6" stroke-width="0" opacity="0.9" />
<rect x="274.0845070422535" y="180.62" height="3" width="221.83098591549293" fill="#F4EDF2" opacity="0.25" />
<rect x="495.91549295774644" y="179" height="9" width="264.0845070422535" fill="#009CA2" stroke="#009CA2" stroke-width="0" opacity="0.9" />
<rect x="495.91549295774644" y="180.62" height="3" width="264.0845070422535" fill="#F4EDF2" opacity="0.25" />
<path d="M 760 179 C 764.5 179, 764.5 188, 760 188" fill="#009CA2" opacity="0.9" />
<path d="M 10 190 C 5.5 190, 5.5 199, 10 199" fill="#009CA2" opacity="0.9" />
<line x1="10" y1="194.5" x2="15.28169014084507" y2="194.5" stroke="#009CA2" stroke-width="1.5" />
<rect x="15.28169014084507" y="190" height="9" width="132.04225352112675" fill="#009CA2" stroke="#009CA2" stroke-width="0" opacity="0.9" />
<rect x="15.28169014084507" y="191.62" height="3" width="132.04225352112675" fill="#F4EDF2" opacity="0.25" />
<rect x="147.3239436619718" y="190" height="9" width="126.76056338028168" fill="#009CA2" stroke="#009CA2" stroke-width="0" opacity="0.9" />
<rect x="147.3239436619718" y="191.62" height="3" width="126.76056338028168" fill="#F4EDF2" opacity="0.25" />
<rect x="274.0845070422535" y="190" height="9" width="221.83098591549293" fill="#1383C6" stroke="#1383C6" stroke-width="0" opacity="0.9" />
<rect x="274.0845070422535" y="191.62" height="3" width="221.83098591549293" fill="#F4EDF2" opacity="0.25" />
<rect x="495.91549295774644" y="190" height="9" width="264.0845070422535" fill="#009CA2" stroke="#009CA2" stroke-width="0" opacity="0.9" />
<rect x="495.91549295774644" y="191.62" height="3" width="264.0845070422535" fill="#F4EDF2" opacity="0.25" />
<path d="M 760 190 C 764.5 190, 764.5 199, 760 199" fill="#009CA2" opacity="0.9" />
<line x1="147.3239436619718" y1="190" x2="147.3239436619718" y2="199" stroke="#000000" stroke-width="2" />
<path d="M 10 201 C 5.5 201, 5.5 210, 10 210" fill="#009CA2" opacity="0.9" />
<rect x="10" y="201" height="9" width="264.0845070422535" fill="#009CA2" stroke="#009CA2" stroke-width="0" opacity="0.9" />
<rect x="10" y="202.62" height="3" width="264.0845070422535" fill="#F4EDF2" opacity="0.25" />
<rect x="274.0845070422535" y="201" height="9" width="221.83098591549293" fill="#1383C6" stroke="#1383C6" stroke-width="0" opacity="0.9" />
<rect x="274.0845070422535" y="202.62" height="3" width="221.83098591549293" fill="#F4EDF2" opacity="0.25" />
<rect x="495.91549295774644" y="201" height="9" width="36.97183098591549" fill="#009CA2" stroke="#009CA2" stroke-width="0" opacity="0.9" />
<rect x="495.91549295774644" y="202.62" height="3" width="36.97183098591549" fill="#F4EDF2" opacity="0.25" />
<rect x="532.887323943662" y="201" height="9" width="216.54929577464787" fill="#009CA2" stroke="#009CA2" stroke-width="0" opacity="0.9" />
<rect x="532.887323943662" y="202.62" height="3" width="216.54929577464787" fill="#F4EDF2" opacity="0.25" />
<line x1="749.4366197183099" y1="205.5" x2="760" y2="205.5" stroke="#009CA2" stroke-width="1.5" />
<path d="M 760 201 C 764.5 201, 764.5 210, 760 210" fill="#009CA2" opacity="0.9" />
<line x1="532.887323943662" y1="201" x2="532.887323943662" y2="210" stroke="#000000" stroke-width="2" />
<path d="M 10 212 C 5.5 212, 5.5 221, 10 221" fill="#009CA2" opacity="0.9" />
<rect x="10" y="212" height="9" width="264.0845070422535" fill="#009CA2" stroke="#009CA2" stroke-width="0" opacity="0.9" />
<rect x="10" y="213.62" height="3" width="264.0845070422535" fill="#F4EDF2" opacity="0.25" />
<rect x="274.0845070422535" y="212" height="9" width="221.83098591549293" fill="#1383C6" stroke="#1383C6" stroke-width="0" opacity="0.9" />
<rect x="274.0845070422535" y="213.62" height="3" width="221.83098591549293" fill="#F4EDF2" opacity="0.25" />
<rect x="495.91549295774644" y="212" height="9" width="264.0845070422535" fill="#009CA2" stroke="#009CA2" stroke-width="0" opacity="0.9" />
<rect x="495.91549295774644" y="213.62" height="3" width="264.0845070422535" fill="#F4EDF2" opacity="0.25" />
<path d="M 760 212 C 764.5 212, 764.5 221, 760 221" fill="#009CA2" opacity="0.9" />
<path d="M 10 223 C 5.5 223, 5.5 232, 10 232" fill="#009CA2" opacity="0.9" />
<rect x="10" y="223" height="9" width="264.0845070422535" fill="#009CA2" stroke="#009CA2" stroke-width="0" opacity="0.9" />
<rect x="10" y="224.62" height="3" width="264.0845070422535" fill="#F4EDF2" opacity="0.25" />
<rect x="274.0845070422535" y="223" height="9" width="5.28169014084507" fill="#1383C6" stroke="#1383C6" stroke-width="0" opacity="0.9" />
<rect x="274.0845070422535" y="224.62" height="3" width="5.28169014084507" fill="#F4EDF2" opacity="0.25" />
<line x1="279.36619718309856" y1="227.5" x2="284.6478873239436" y2="227.5" stroke="#1383C6" stroke-width="1.5" />
<rect x="284.6478873239436" y="223" height="9" width="84.50704225352112" fill="#1383C6" stroke="#1383C6" stroke-width="0" opacity="0.9" />
<rect x="284.6478873239436" y="224.62" height="3" width="84.50704225352112" fill="#F4EDF2" opacity="0.25" />
<rect x="369.1549295774647" y="223" height="9" width="10.56338028169014" fill="#BABABA" stroke="#BABABA" stroke-width="0" opacity="0.9" />
<rect x="369.1549295774647" y="224.62" height="3" width="10.56338028169014" fill="#F4EDF2" opacity="0.25" />
<rect x="379.71830985915483" y="223" height="9" width="5.28169014084507" fill="#1383C6" stroke="#1383C6" stroke-width="0" opacity="0.9" />
<rect x="379.71830985915483" y="224.62" height="3" width="5.28169014084507" fill="#F4EDF2" opacity="0.25" />
<rect x="384.9999999999999" y="223" height="9" width="10.56338028169014" fill="#BABABA" stroke="#BABABA" stroke-width="0" opacity="0.9" />
<rect x="384.9999999999999" y="224.62" height="3" width="10.56338028169014" fill="#F4EDF2" opacity="0.25" />
<rect x="395.56338028169" y="223" height="9" width="5.28169014084507" fill="#1383C6" stroke="#1383C6" stroke-width="0" opacity="0.9" />
<rect x="395.56338028169" y="224.62" height="3" width="5.28169014084507" fill="#F4EDF2" opacity="0.25" />
<rect x="400.84507042253506" y="223" height="9" width="10.56338028169014" fill="#BABABA" stroke="#BABABA" stroke-width="0" opacity="0.9" />
<rect x="400.84507042253506" y="224.62" height="3" width="10.56338028169014" fill="#F4EDF2" opacity="0.25" />
<rect x="411.4084507042252" y="223" height="9" width="84.50704225352112" fill="#1383C6" stroke="#1383C6" stroke-width="0" opacity="0.9" />
<rect x="411.4084507042252" y="224.62" height="3" width="84.50704225352112" fill="#F4EDF2" opacity="0.25" />
<rect x="495.9154929577463" y="223" height="9" width="264.0845070422535" fill="#009CA2" stroke="#009CA2" stroke-width="0" opacity="0.9" />
<rect x="495.9154929577463" y="224.62" height="3" width="264.0845070422535" fill="#F4EDF2" opacity="0.25" />
<path d="M 759.9999999999998 223 C 764.4999999999998 223, 764.4999999999998 232, 759.9999999999998 232" fill="#009CA2" opacity="0.9" />
<path d="M 10 234 C 5.5 234, 5.5 243, 10 243" fill="#009CA2" opacity="0.9" />
<rect x="10" y="234" height="9" width="264.0845070422535" fill="#009CA2" stroke="#009CA2" stroke-width="0" opacity="0.9" />
<rect x="10" y="235.62" height="3" width="264.0845070422535" fill="#F4EDF2" opacity="0.25" />
<rect x="274.0845070422535" y="234" height="9" width="221.83098591549293" fill="#1383C6" stroke="#1383C6" stroke-width="0" opacity="0.9" />
<rect x="274.0845070422535" y="235.62" height="3" width="221.83098591549293" fill="#F4EDF2" opacity="0.25" />
<rect x="495.91549295774644" y="234" height="9" width="264.0845070422535" fill="#009CA2" stroke="#009CA2" stroke-width="0" opacity="0.9" />
<rect x="495.91549295774644" y="235.62" height="3" width="264.0845070422535" fill="#F4EDF2" opacity="0.25" />
<path d="M 760 234 C 764.5 234, 764.5 243, 760 243" fill="#009CA2" opacity="0.9" />
<rect x="10" y="249" height="12" width="12" fill="#1383C6" stroke="#1383C6" stroke-width="0" opacity="0.9" />
<text x="24" y="260" font-family="monospace" font-weight="bold" font-size="14px" >GCC</text>
</svg>
