<?xml version="1.0"?>
<svg xmlns="http://www.w3.org/2000/svg" xmlns:xlink="http://www.w3.org/1999/xlink" width="770" height="145">
<rect width="100%" height="100%" fill="white"/>
<path d="M 10 14 C 5.5 14, 5.5 23, 10 23" fill="#009CA2" opacity="0.9" />
<rect x="10" y="14" height="9" width="135.37906137184115" fill="#009CA2" stroke="#009CA2" stroke-width="0" opacity="0.9" />
<rect x="10" y="15.62" height="3" width="135.37906137184115" fill="#F4EDF2" opacity="0.25" />
<rect x="145.37906137184115" y="14" height="9" width="64.98194945848375" fill="#1383C6" stroke="#1383C6" stroke-width="0" opacity="0.9" />
<rect x="145.37906137184115" y="15.62" height="3" width="64.98194945848375" fill="#F4EDF2" opacity="0.25" />
<rect x="210.36101083032491" y="14" height="9" width="8.12274368231047" fill="#D1D1D1" stroke="#D1D1D1" stroke-width="0" opacity="0.9" />
<rect x="210.36101083032491" y="15.62" height="3" width="8.12274368231047" fill="#F4EDF2" opacity="0.25" />
<rect x="218.4837545126354" y="14" height="9" width="40.61371841155234" fill="#1383C6" stroke="#1383C6" stroke-width="0" opacity="0.9" />
<rect x="218.4837545126354" y="15.62" height="3" width="40.61371841155234" fill="#F4EDF2" opacity="0.25" />
<rect x="259.09747292418774" y="14" height="9" width="8.12274368231047" fill="#D1D1D1" stroke="#D1D1D1" stroke-width="0" opacity="0.9" />
<rect x="259.09747292418774" y="15.62" height="3" width="8.12274368231047" fill="#F4EDF2" opacity="0.25" />
<rect x="267.2202166064982" y="14" height="9" width="8.12274368231047" fill="#1383C6" stroke="#1383C6" stroke-width="0" opacity="0.9" />
<rect x="267.2202166064982" y="15.62" height="3" width="8.12274368231047" fill="#F4EDF2" opacity="0.25" />
<rect x="275.3429602888086" y="14" height="9" width="8.12274368231047" fill="#D1D1D1" stroke="#D1D1D1" stroke-width="0" opacity="0.9" />
<rect x="275.3429602888086" y="15.62" height="3" width="8.12274368231047" fill="#F4EDF2" opacity="0.25" />
<rect x="283.46570397111907" y="14" height="9" width="24.368231046931406" fill="#1383C6" stroke="#1383C6" stroke-width="0" opacity="0.9" />
<rect x="283.46570397111907" y="15.62" height="3" width="24.368231046931406" fill="#F4EDF2" opacity="0.25" />
<rect x="307.83393501805045" y="14" height="9" width="5.415162454873646" fill="#D1D1D1" stroke="#D1D1D1" stroke-width="0" opacity="0.9" />
<rect x="307.83393501805045" y="15.62" height="3" width="5.415162454873646" fill="#F4EDF2" opacity="0.25" />
<line x1="313.2490974729241" y1="18.5" x2="624.6209386281587" y2="18.5" stroke="#BABABA" stroke-width="1.5" />
<rect x="624.6209386281587" y="14" height="9" width="135.37906137184115" fill="#009CA2" stroke="#009CA2" stroke-width="0" opacity="0.9" />
<rect x="624.6209386281587" y="15.62" height="3" width="135.37906137184115" fill="#F4EDF2" opacity="0.25" />
<path d="M 759.9999999999998 14 C 764.4999999999998 14, 764.4999999999998 23, 759.9999999999998 23" fill="#009CA2" opacity="0.9" />
<path d="M 10 25 C 5.5 25, 5.5 34, 10 34" fill="#009CA2" opacity="0.9" />
<rect x="10" y="25" height="9" width="135.37906137184115" fill="#009CA2" stroke="#009CA2" stroke-width="0" opacity="0.9" />
<rect x="10" y="26.62" height="3" width="135.37906137184115" fill="#F4EDF2" opacity="0.25" />
<rect x="145.37906137184115" y="25" height="9" width="64.98194945848375" fill="#1383C6" stroke="#1383C6" stroke-width="0" opacity="0.9" />
<rect x="145.37906137184115" y="26.62" height="3" width="64.98194945848375" fill="#F4EDF2" opacity="0.25" />
<rect x="210.36101083032491" y="25" height="9" width="8.12274368231047" fill="#D1D1D1" stroke="#D1D1D1" stroke-width="0" opacity="0.9" />
<rect x="210.36101083032491" y="26.62" height="3" width="8.12274368231047" fill="#F4EDF2" opacity="0.25" />
<rect x="218.4837545126354" y="25" height="9" width="40.61371841155234" fill="#1383C6" stroke="#1383C6" stroke-width="0" opacity="0.9" />
<rect x="218.4837545126354" y="26.62" height="3" width="40.61371841155234" fill="#F4EDF2" opacity="0.25" />
<rect x="259.09747292418774" y="25" height="9" width="8.12274368231047" fill="#D1D1D1" stroke="#D1D1D1" stroke-width="0" opacity="0.9" />
<rect x="259.09747292418774" y="26.62" height="3" width="8.12274368231047" fill="#F4EDF2" opacity="0.25" />
<rect x="267.2202166064982" y="25" height="9" width="8.12274368231047" fill="#1383C6" stroke="#1383C6" stroke-width="0" opacity="0.9" />
<rect x="267.2202166064982" y="26.62" height="3" width="8.12274368231047" fill="#F4EDF2" opacity="0.25" />
<rect x="275.3429602888086" y="25" height="9" width="8.12274368231047" fill="#D1D1D1" stroke="#D1D1D1" stroke-width="0" opacity="0.9" />
<rect x="275.3429602888086" y="26.62" height="3" width="8.12274368231047" fill="#F4EDF2" opacity="0.25" />
<rect x="283.46570397111907" y="25" height="9" width="24.368231046931406" fill="#1383C6" stroke="#1383C6" stroke-width="0" opacity="0.9" />
<rect x="283.46570397111907" y="26.62" height="3" width="24.368231046931406" fill="#F4EDF2" opacity="0.25" />
<rect x="307.83393501805045" y="25" height="9" width="5.415162454873646" fill="#D1D1D1" stroke="#D1D1D1" stroke-width="0" opacity="0.9" />
<rect x="307.83393501805045" y="26.62" height="3" width="5.415162454873646" fill="#F4EDF2" opacity="0.25" />
<line x1="313.2490974729241" y1="29.5" x2="624.6209386281587" y2="29.5" stroke="#BABABA" stroke-width="1.5" />
<rect x="624.6209386281587" y="25" height="9" width="135.37906137184115" fill="#009CA2" stroke="#009CA2" stroke-width="0" opacity="0.9" />
<rect x="624.6209386281587" y="26.62" height="3" width="135.37906137184115" fill="#F4EDF2" opacity="0.25" />
<path d="M 759.9999999999998 25 C 764.4999999999998 25, 764.4999999999998 34, 759.9999999999998 34" fill="#009CA2" opacity="0.9" />
<path d="M 10 36 C 5.5 36, 5.5 45, 10 45" fill="#009CA2" opacity="0.9" />
<rect x="10" y="36" height="9" width="135.37906137184115" fill="#009CA2" stroke="#009CA2" stroke-width="0" opacity="0.9" />
<rect x="10" y="37.62" height="3" width="135.37906137184115" fill="#F4EDF2" opacity="0.25" />
<rect x="145.37906137184115" y="36" height="9" width="64.98194945848375" fill="#1383C6" stroke="#1383C6" stroke-width="0" opacity="0.9" />
<rect x="145.37906137184115" y="37.62" height="3" width="64.98194945848375" fill="#F4EDF2" opacity="0.25" />
<rect x="210.36101083032491" y="36" height="9" width="8.12274368231047" fill="#D1D1D1" stroke="#D1D1D1" stroke-width="0" opacity="0.9" />
<rect x="210.36101083032491" y="37.62" height="3" width="8.12274368231047" fill="#F4EDF2" opacity="0.25" />
<rect x="218.4837545126354" y="36" height="9" width="40.61371841155234" fill="#1383C6" stroke="#1383C6" stroke-width="0" opacity="0.9" />
<rect x="218.4837545126354" y="37.62" height="3" width="40.61371841155234" fill="#F4EDF2" opacity="0.25" />
<rect x="259.09747292418774" y="36" height="9" width="8.12274368231047" fill="#D1D1D1" stroke="#D1D1D1" stroke-width="0" opacity="0.9" />
<rect x="259.09747292418774" y="37.62" height="3" width="8.12274368231047" fill="#F4EDF2" opacity="0.25" />
<rect x="267.2202166064982" y="36" height="9" width="8.12274368231047" fill="#1383C6" stroke="#1383C6" stroke-width="0" opacity="0.9" />
<rect x="267.2202166064982" y="37.62" height="3" width="8.12274368231047" fill="#F4EDF2" opacity="0.25" />
<rect x="275.3429602888086" y="36" height="9" width="8.12274368231047" fill="#D1D1D1" stroke="#D1D1D1" stroke-width="0" opacity="0.9" />
<rect x="275.3429602888086" y="37.62" height="3" width="8.12274368231047" fill="#F4EDF2" opacity="0.25" />
<rect x="283.46570397111907" y="36" height="9" width="24.368231046931406" fill="#1383C6" stroke="#1383C6" stroke-width="0" opacity="0.9" />
<rect x="283.46570397111907" y="37.62" height="3" width="24.368231046931406" fill="#F4EDF2" opacity="0.25" />
<rect x="307.83393501805045" y="36" height="9" width="5.415162454873646" fill="#D1D1D1" stroke="#D1D1D1" stroke-width="0" opacity="0.9" />
<rect x="307.83393501805045" y="37.62" height="3" width="5.415162454873646" fill="#F4EDF2" opacity="0.25" />
<line x1="313.2490974729241" y1="40.5" x2="624.6209386281587" y2="40.5" stroke="#BABABA" stroke-width="1.5" />
<rect x="624.6209386281587" y="36" height="9" width="135.37906137184115" fill="#009CA2" stroke="#009CA2" stroke-width="0" opacity="0.9" />
<rect x="624.6209386281587" y="37.62" height="3" width="135.37906137184115" fill="#F4EDF2" opacity="0.25" />
<path d="M 759.9999999999998 36 C 764.4999999999998 36, 764.4999999999998 45, 759.9999999999998 45" fill="#009CA2" opacity="0.9" />
<path d="M 10 47 C 5.5 47, 5.5 56, 10 56" fill="#009CA2" opacity="0.9" />
<rect x="10" y="47" height="9" width="135.37906137184115" fill="#009CA2" stroke="#009CA2" stroke-width="0" opacity="0.9" />
<rect x="10" y="48.62" height="3" width="135.37906137184115" fill="#F4EDF2" opacity="0.25" />
<rect x="145.37906137184115" y="47" height="9" width="64.98194945848375" fill="#1383C6" stroke="#1383C6" stroke-width="0" opacity="0.9" />
<rect x="145.37906137184115" y="48.62" height="3" width="64.98194945848375" fill="#F4EDF2" opacity="0.25" />
<rect x="210.36101083032491" y="47" height="9" width="8.12274368231047" fill="#D1D1D1" stroke="#D1D1D1" stroke-width="0" opacity="0.9" />
<rect x="210.36101083032491" y="48.62" height="3" width="8.12274368231047" fill="#F4EDF2" opacity="0.25" />
<rect x="218.4837545126354" y="47" height="9" width="40.61371841155234" fill="#1383C6" stroke="#1383C6" stroke-width="0" opacity="0.9" />
<rect x="218.4837545126354" y="48.62" height="3" width="40.61371841155234" fill="#F4EDF2" opacity="0.25" />
<rect x="259.09747292418774" y="47" height="9" width="8.12274368231047" fill="#D1D1D1" stroke="#D1D1D1" stroke-width="0" opacity="0.9" />
<rect x="259.09747292418774" y="48.62" height="3" width="8.12274368231047" fill="#F4EDF2" opacity="0.25" />
<rect x="267.2202166064982" y="47" height="9" width="8.12274368231047" fill="#1383C6" stroke="#1383C6" stroke-width="0" opacity="0.9" />
<rect x="267.2202166064982" y="48.62" height="3" width="8.12274368231047" fill="#F4EDF2" opacity="0.25" />
<rect x="275.3429602888086" y="47" height="9" width="8.12274368231047" fill="#D1D1D1" stroke="#D1D1D1" stroke-width="0" opacity="0.9" />
<rect x="275.3429602888086" y="48.62" height="3" width="8.12274368231047" fill="#F4EDF2" opacity="0.25" />
<rect x="283.46570397111907" y="47" height="9" width="24.368231046931406" fill="#1383C6" stroke="#1383C6" stroke-width="0" opacity="0.9" />
<rect x="283.46570397111907" y="48.62" height="3" width="24.368231046931406" fill="#F4EDF2" opacity="0.25" />
<rect x="307.83393501805045" y="47" height="9" width="5.415162454873646" fill="#D1D1D1" stroke="#D1D1D1" stroke-width="0" opacity="0.9" />
<rect x="307.83393501805045" y="48.62" height="3" width="5.415162454873646" fill="#F4EDF2" opacity="0.25" />
<line x1="313.2490974729241" y1="51.5" x2="624.6209386281587" y2="51.5" stroke="#BABABA" stroke-width="1.5" />
<rect x="624.6209386281587" y="47" height="9" width="135.37906137184115" fill="#009CA2" stroke="#009CA2" stroke-width="0" opacity="0.9" />
<rect x="624.6209386281587" y="48.62" height="3" width="135.37906137184115" fill="#F4EDF2" opacity="0.25" />
<path d="M 759.9999999999998 47 C 764.4999999999998 47, 764.4999999999998 56, 759.9999999999998 56" fill="#009CA2" opacity="0.9" />
<path d="M 10 58 C 5.5 58, 5.5 67, 10 67" fill="#009CA2" opacity="0.9" />
<rect x="10" y="58" height="9" width="135.37906137184115" fill="#009CA2" stroke="#009CA2" stroke-width="0" opacity="0.9" />
<rect x="10" y="59.62" height="3" width="135.37906137184115" fill="#F4EDF2" opacity="0.25" />
<rect x="145.37906137184115" y="58" height="9" width="64.98194945848375" fill="#1383C6" stroke="#1383C6" stroke-width="0" opacity="0.9" />
<rect x="145.37906137184115" y="59.62" height="3" width="64.98194945848375" fill="#F4EDF2" opacity="0.25" />
<rect x="210.36101083032491" y="58" height="9" width="8.12274368231047" fill="#D1D1D1" stroke="#D1D1D1" stroke-width="0" opacity="0.9" />
<rect x="210.36101083032491" y="59.62" height="3" width="8.12274368231047" fill="#F4EDF2" opacity="0.25" />
<rect x="218.4837545126354" y="58" height="9" width="40.61371841155234" fill="#1383C6" stroke="#1383C6" stroke-width="0" opacity="0.9" />
<rect x="218.4837545126354" y="59.62" height="3" width="40.61371841155234" fill="#F4EDF2" opacity="0.25" />
<rect x="259.09747292418774" y="58" height="9" width="8.12274368231047" fill="#D1D1D1" stroke="#D1D1D1" stroke-width="0" opacity="0.9" />
<rect x="259.09747292418774" y="59.62" height="3" width="8.12274368231047" fill="#F4EDF2" opacity="0.25" />
<rect x="267.2202166064982" y="58" height="9" width="8.12274368231047" fill="#1383C6" stroke="#1383C6" stroke-width="0" opacity="0.9" />
<rect x="267.2202166064982" y="59.62" height="3" width="8.12274368231047" fill="#F4EDF2" opacity="0.25" />
<rect x="275.3429602888086" y="58" height="9" width="8.12274368231047" fill="#D1D1D1" stroke="#D1D1D1" stroke-width="0" opacity="0.9" />
<rect x="275.3429602888086" y="59.62" height="3" width="8.12274368231047" fill="#F4EDF2" opacity="0.25" />
<rect x="283.46570397111907" y="58" height="9" width="24.368231046931406" fill="#1383C6" stroke="#1383C6" stroke-width="0" opacity="0.9" />
<rect x="283.46570397111907" y="59.62" height="3" width="24.368231046931406" fill="#F4EDF2" opacity="0.25" />
<rect x="307.83393501805045" y="58" height="9" width="5.415162454873646" fill="#D1D1D1" stroke="#D1D1D1" stroke-width="0" opacity="0.9" />
<rect x="307.83393501805045" y="59.62" height="3" width="5.415162454873646" fill="#F4EDF2" opacity="0.25" />
<line x1="313.2490974729241" y1="62.5" x2="624.6209386281587" y2="62.5" stroke="#BABABA" stroke-width="1.5" />
<rect x="624.6209386281587" y="58" height="9" width="135.37906137184115" fill="#009CA2" stroke="#009CA2" stroke-width="0" opacity="0.9" />
<rect x="624.6209386281587" y="59.62" height="3" width="135.37906137184115" fill="#F4EDF2" opacity="0.25" />
<path d="M 759.9999999999998 58 C 764.4999999999998 58, 764.4999999999998 67, 759.9999999999998 67" fill="#009CA2" opacity="0.9" />
<path d="M 10 69 C 5.5 69, 5.5 78, 10 78" fill="#009CA2" opacity="0.9" />
<rect x="10" y="69" height="9" width="135.37906137184115" fill="#009CA2" stroke="#009CA2" stroke-width="0" opacity="0.9" />
<rect x="10" y="70.62" height="3" width="135.37906137184115" fill="#F4EDF2" opacity="0.25" />
<rect x="145.37906137184115" y="69" height="9" width="64.98194945848375" fill="#1383C6" stroke="#1383C6" stroke-width="0" opacity="0.9" />
<rect x="145.37906137184115" y="70.62" height="3" width="64.98194945848375" fill="#F4EDF2" opacity="0.25" />
<rect x="210.36101083032491" y="69" height="9" width="8.12274368231047" fill="#D1D1D1" stroke="#D1D1D1" stroke-width="0" opacity="0.9" />
<rect x="210.36101083032491" y="70.62" height="3" width="8.12274368231047" fill="#F4EDF2" opacity="0.25" />
<rect x="218.4837545126354" y="69" height="9" width="40.61371841155234" fill="#1383C6" stroke="#1383C6" stroke-width="0" opacity="0.9" />
<rect x="218.4837545126354" y="70.62" height="3" width="40.61371841155234" fill="#F4EDF2" opacity="0.25" />
<rect x="259.09747292418774" y="69" height="9" width="8.12274368231047" fill="#D1D1D1" stroke="#D1D1D1" stroke-width="0" opacity="0.9" />
<rect x="259.09747292418774" y="70.62" height="3" width="8.12274368231047" fill="#F4EDF2" opacity="0.25" />
<rect x="267.2202166064982" y="69" height="9" width="8.12274368231047" fill="#1383C6" stroke="#1383C6" stroke-width="0" opacity="0.9" />
<rect x="267.2202166064982" y="70.62" height="3" width="8.12274368231047" fill="#F4EDF2" opacity="0.25" />
<rect x="275.3429602888086" y="69" height="9" width="8.12274368231047" fill="#D1D1D1" stroke="#D1D1D1" stroke-width="0" opacity="0.9" />
<rect x="275.3429602888086" y="70.62" height="3" width="8.12274368231047" fill="#F4EDF2" opacity="0.25" />
<rect x="283.46570397111907" y="69" height="9" width="24.368231046931406" fill="#1383C6" stroke="#1383C6" stroke-width="0" opacity="0.9" />
<rect x="283.46570397111907" y="70.62" height="3" width="24.368231046931406" fill="#F4EDF2" opacity="0.25" />
<rect x="307.83393501805045" y="69" height="9" width="5.415162454873646" fill="#D1D1D1" stroke="#D1D1D1" stroke-width="0" opacity="0.9" />
<rect x="307.83393501805045" y="70.62" height="3" width="5.415162454873646" fill="#F4EDF2" opacity="0.25" />
<line x1="313.2490974729241" y1="73.5" x2="624.6209386281587" y2="73.5" stroke="#BABABA" stroke-width="1.5" />
<rect x="624.6209386281587" y="69" height="9" width="135.37906137184115" fill="#009CA2" stroke="#009CA2" stroke-width="0" opacity="0.9" />
<rect x="624.6209386281587" y="70.62" height="3" width="135.37906137184115" fill="#F4EDF2" opacity="0.25" />
<path d="M 759.9999999999998 69 C 764.4999999999998 69, 764.4999999999998 78, 759.9999999999998 78" fill="#009CA2" opacity="0.9" />
<path d="M 10 80 C 5.5 80, 5.5 89, 10 89" fill="#009CA2" opacity="0.9" />
<rect x="10" y="80" height="9" width="135.37906137184115" fill="#009CA2" stroke="#009CA2" stroke-width="0" opacity="0.9" />
<rect x="10" y="81.62" height="3" width="135.37906137184115" fill="#F4EDF2" opacity="0.25" />
<rect x="145.37906137184115" y="80" height="9" width="64.98194945848375" fill="#1383C6" stroke="#1383C6" stroke-width="0" opacity="0.9" />
<rect x="145.37906137184115" y="81.62" height="3" width="64.98194945848375" fill="#F4EDF2" opacity="0.25" />
<rect x="210.36101083032491" y="80" height="9" width="8.12274368231047" fill="#D1D1D1" stroke="#D1D1D1" stroke-width="0" opacity="0.9" />
<rect x="210.36101083032491" y="81.62" height="3" width="8.12274368231047" fill="#F4EDF2" opacity="0.25" />
<rect x="218.4837545126354" y="80" height="9" width="40.61371841155234" fill="#1383C6" stroke="#1383C6" stroke-width="0" opacity="0.9" />
<rect x="218.4837545126354" y="81.62" height="3" width="40.61371841155234" fill="#F4EDF2" opacity="0.25" />
<rect x="259.09747292418774" y="80" height="9" width="8.12274368231047" fill="#D1D1D1" stroke="#D1D1D1" stroke-width="0" opacity="0.9" />
<rect x="259.09747292418774" y="81.62" height="3" width="8.12274368231047" fill="#F4EDF2" opacity="0.25" />
<rect x="267.2202166064982" y="80" height="9" width="8.12274368231047" fill="#1383C6" stroke="#1383C6" stroke-width="0" opacity="0.9" />
<rect x="267.2202166064982" y="81.62" height="3" width="8.12274368231047" fill="#F4EDF2" opacity="0.25" />
<rect x="275.3429602888086" y="80" height="9" width="10.830324909747292" fill="#D1D1D1" stroke="#D1D1D1" stroke-width="0" opacity="0.9" />
<rect x="275.3429602888086" y="81.62" height="3" width="10.830324909747292" fill="#F4EDF2" opacity="0.25" />
<rect x="286.1732851985559" y="80" height="9" width="24.368231046931406" fill="#1383C6" stroke="#1383C6" stroke-width="0" opacity="0.9" />
<rect x="286.1732851985559" y="81.62" height="3" width="24.368231046931406" fill="#F4EDF2" opacity="0.25" />
<rect x="310.5415162454873" y="80" height="9" width="5.415162454873646" fill="#D1D1D1" stroke="#D1D1D1" stroke-width="0" opacity="0.9" />
<rect x="310.5415162454873" y="81.62" height="3" width="5.415162454873646" fill="#F4EDF2" opacity="0.25" />
<line x1="315.95667870036095" y1="84.5" x2="624.6209386281588" y2="84.5" stroke="#BABABA" stroke-width="1.5" />
<rect x="624.6209386281588" y="80" height="9" width="135.37906137184115" fill="#009CA2" stroke="#009CA2" stroke-width="0" opacity="0.9" />
<rect x="624.6209386281588" y="81.62" height="3" width="135.37906137184115" fill="#F4EDF2" opacity="0.25" />
<path d="M 760 80 C 764.5 80, 764.5 89, 760 89" fill="#009CA2" opacity="0.9" />
<path d="M 10 91 C 5.5 91, 5.5 100, 10 100" fill="#009CA2" opacity="0.9" />
<rect x="10" y="91" height="9" width="135.37906137184115" fill="#009CA2" stroke="#009CA2" stroke-width="0" opacity="0.9" />
<rect x="10" y="92.62" height="3" width="135.37906137184115" fill="#F4EDF2" opacity="0.25" />
<rect x="145.37906137184115" y="91" height="9" width="454.87364620938627" fill="#1383C6" stroke="#1383C6" stroke-width="0" opacity="0.9" />
<rect x="145.37906137184115" y="92.62" height="3" width="454.87364620938627" fill="#F4EDF2" opacity="0.25" />
<rect x="600.2527075812275" y="91" height="9" width="5.415162454873646" fill="#D1D1D1" stroke="#D1D1D1" stroke-width="0" opacity="0.9" />
<rect x="600.2527075812275" y="92.62" height="3" width="5.415162454873646" fill="#F4EDF2" opacity="0.25" />
<line x1="605.6678700361011" y1="95.5" x2="624.6209386281589" y2="95.5" stroke="#BABABA" stroke-width="1.5" />
<rect x="624.6209386281589" y="91" height="9" width="135.37906137184115" fill="#009CA2" stroke="#009CA2" stroke-width="0" opacity="0.9" />
<rect x="624.6209386281589" y="92.62" height="3" width="135.37906137184115" fill="#F4EDF2" opacity="0.25" />
<path d="M 760 91 C 764.5 91, 764.5 100, 760 100" fill="#009CA2" opacity="0.9" />
<path d="M 10 102 C 5.5 102, 5.5 111, 10 111" fill="#009CA2" opacity="0.9" />
<rect x="10" y="102" height="9" width="135.37906137184115" fill="#009CA2" stroke="#009CA2" stroke-width="0" opacity="0.9" />
<rect x="10" y="103.62" height="3" width="135.37906137184115" fill="#F4EDF2" opacity="0.25" />
<rect x="145.37906137184115" y="102" height="9" width="40.61371841155234" fill="#1383C6" stroke="#1383C6" stroke-width="0" opacity="0.9" />
<rect x="145.37906137184115" y="103.62" height="3" width="40.61371841155234" fill="#F4EDF2" opacity="0.25" />
<rect x="185.99277978339347" y="102" height="9" width="2.707581227436823" fill="#D1D1D1" stroke="#D1D1D1" stroke-width="0" opacity="0.9" />
<rect x="185.99277978339347" y="103.62" height="3" width="2.707581227436823" fill="#F4EDF2" opacity="0.25" />
<rect x="188.7003610108303" y="102" height="9" width="40.61371841155234" fill="#1383C6" stroke="#1383C6" stroke-width="0" opacity="0.9" />
<rect x="188.7003610108303" y="103.62" height="3" width="40.61371841155234" fill="#F4EDF2" opacity="0.25" />
<rect x="229.31407942238263" y="102" height="9" width="2.707581227436823" fill="#D1D1D1" stroke="#D1D1D1" stroke-width="0" opacity="0.9" />
<rect x="229.31407942238263" y="103.62" height="3" width="2.707581227436823" fill="#F4EDF2" opacity="0.25" />
<rect x="232.02166064981947" y="102" height="9" width="48.73646209386281" fill="#1383C6" stroke="#1383C6" stroke-width="0" opacity="0.9" />
<rect x="232.02166064981947" y="103.62" height="3" width="48.73646209386281" fill="#F4EDF2" opacity="0.25" />
<rect x="280.7581227436823" y="102" height="9" width="2.707581227436823" fill="#D1D1D1" stroke="#D1D1D1" stroke-width="0" opacity="0.9" />
<rect x="280.7581227436823" y="103.62" height="3" width="2.707581227436823" fill="#F4EDF2" opacity="0.25" />
<rect x="283.4657039711191" y="102" height="9" width="56.85920577617328" fill="#1383C6" stroke="#1383C6" stroke-width="0" opacity="0.9" />
<rect x="283.4657039711191" y="103.62" height="3" width="56.85920577617328" fill="#F4EDF2" opacity="0.25" />
<rect x="340.3249097472924" y="102" height="9" width="2.707581227436823" fill="#D1D1D1" stroke="#D1D1D1" stroke-width="0" opacity="0.9" />
<rect x="340.3249097472924" y="103.62" height="3" width="2.707581227436823" fill="#F4EDF2" opacity="0.25" />
<rect x="343.0324909747292" y="102" height="9" width="268.05054151624546" fill="#1383C6" stroke="#1383C6" stroke-width="0" opacity="0.9" />
<rect x="343.0324909747292" y="103.62" height="3" width="268.05054151624546" fill="#F4EDF2" opacity="0.25" />
<rect x="611.0830324909747" y="102" height="9" width="5.415162454873646" fill="#D1D1D1" stroke="#D1D1D1" stroke-width="0" opacity="0.9" />
<rect x="611.0830324909747" y="103.62" height="3" width="5.415162454873646" fill="#F4EDF2" opacity="0.25" />
<line x1="616.4981949458484" y1="106.5" x2="624.6209386281588" y2="106.5" stroke="#BABABA" stroke-width="1.5" />
<rect x="624.6209386281588" y="102" height="9" width="135.37906137184115" fill="#009CA2" stroke="#009CA2" stroke-width="0" opacity="0.9" />
<rect x="624.6209386281588" y="103.62" height="3" width="135.37906137184115" fill="#F4EDF2" opacity="0.25" />
<path d="M 760 102 C 764.5 102, 764.5 111, 760 111" fill="#009CA2" opacity="0.9" />
<path d="M 10 113 C 5.5 113, 5.5 122, 10 122" fill="#009CA2" opacity="0.9" />
<rect x="10" y="113" height="9" width="135.37906137184115" fill="#009CA2" stroke="#009CA2" stroke-width="0" opacity="0.9" />
<rect x="10" y="114.62" height="3" width="135.37906137184115" fill="#F4EDF2" opacity="0.25" />
<rect x="145.37906137184115" y="113" height="9" width="8.12274368231047" fill="#1383C6" stroke="#1383C6" stroke-width="0" opacity="0.9" />
<rect x="145.37906137184115" y="114.62" height="3" width="8.12274368231047" fill="#F4EDF2" opacity="0.25" />
<rect x="153.50180505415162" y="113" height="9" width="2.707581227436823" fill="#D1D1D1" stroke="#D1D1D1" stroke-width="0" opacity="0.9" />
<rect x="153.50180505415162" y="114.62" height="3" width="2.707581227436823" fill="#F4EDF2" opacity="0.25" />
<rect x="156.20938628158845" y="113" height="9" width="138.08664259927798" fill="#1383C6" stroke="#1383C6" stroke-width="0" opacity="0.9" />
<rect x="156.20938628158845" y="114.62" height="3" width="138.08664259927798" fill="#F4EDF2" opacity="0.25" />
<rect x="294.2960288808664" y="113" height="9" width="2.707581227436823" fill="#D1D1D1" stroke="#D1D1D1" stroke-width="0" opacity="0.9" />
<rect x="294.2960288808664" y="114.62" height="3" width="2.707581227436823" fill="#F4EDF2" opacity="0.25" />
<rect x="297.00361010830323" y="113" height="9" width="178.7003610108303" fill="#1383C6" stroke="#1383C6" stroke-width="0" opacity="0.9" />
<rect x="297.00361010830323" y="114.62" height="3" width="178.7003610108303" fill="#F4EDF2" opacity="0.25" />
<rect x="475.70397111913354" y="113" height="9" width="8.12274368231047" fill="#D1D1D1" stroke="#D1D1D1" stroke-width="0" opacity="0.9" />
<rect x="475.70397111913354" y="114.62" height="3" width="8.12274368231047" fill="#F4EDF2" opacity="0.25" />
<rect x="483.826714801444" y="113" height="9" width="89.35018050541515" fill="#1383C6" stroke="#1383C6" stroke-width="0" opacity="0.9" />
<rect x="483.826714801444" y="114.62" height="3" width="89.35018050541515" fill="#F4EDF2" opacity="0.25" />
<rect x="573.1768953068591" y="113" height="9" width="2.707581227436823" fill="#D1D1D1" stroke="#D1D1D1" stroke-width="0" opacity="0.9" />
<rect x="573.1768953068591" y="114.62" height="3" width="2.707581227436823" fill="#F4EDF2" opacity="0.25" />
<rect x="575.8844765342959" y="113" height="9" width="48.73646209386281" fill="#1383C6" stroke="#1383C6" stroke-width="0" opacity="0.9" />
<rect x="575.8844765342959" y="114.62" height="3" width="48.73646209386281" fill="#F4EDF2" opacity="0.25" />
<rect x="624.6209386281587" y="113" height="9" width="2.707581227436823" fill="#BABABA" stroke="#BABABA" stroke-width="0" opacity="0.9" />
<rect x="624.6209386281587" y="114.62" height="3" width="2.707581227436823" fill="#F4EDF2" opacity="0.25" />
<rect x="627.3285198555955" y="113" height="9" width="2.707581227436823" fill="#009CA2" stroke="#009CA2" stroke-width="0" opacity="0.9" />
<rect x="627.3285198555955" y="114.62" height="3" width="2.707581227436823" fill="#F4EDF2" opacity="0.25" />
<rect x="630.0361010830322" y="113" height="9" width="5.415162454873646" fill="#BABABA" stroke="#BABABA" stroke-width="0" opacity="0.9" />
<rect x="630.0361010830322" y="114.62" height="3" width="5.415162454873646" fill="#F4EDF2" opacity="0.25" />
<rect x="635.4512635379059" y="113" height="9" width="124.54873646209386" fill="#009CA2" stroke="#009CA2" stroke-width="0" opacity="0.9" />
<rect x="635.4512635379059" y="114.62" height="3" width="124.54873646209386" fill="#F4EDF2" opacity="0.25" />
<path d="M 759.9999999999998 113 C 764.4999999999998 113, 764.4999999999998 122, 759.9999999999998 122" fill="#009CA2" opacity="0.9" />
<rect x="10" y="128" height="12" width="12" fill="#1383C6" stroke="#1383C6" stroke-width="0" opacity="0.9" />
<text x="24" y="139" font-family="monospace" font-weight="bold" font-size="14px" >GCC</text>
</svg>
