<?xml version="1.0"?>
<svg xmlns="http://www.w3.org/2000/svg" xmlns:xlink="http://www.w3.org/1999/xlink" width="770.0000000000001" height="200">
<rect width="100%" height="100%" fill="white"/>
<path d="M 10 14 C 5.5 14, 5.5 23, 10 23" fill="#009CA2" opacity="0.9" />
<rect x="10" y="14" height="9" width="16.24783362218371" fill="#009CA2" stroke="#009CA2" stroke-width="0" opacity="0.9" />
<rect x="10" y="15.62" height="3" width="16.24783362218371" fill="#F4EDF2" opacity="0.25" />
<rect x="26.24783362218371" y="14" height="9" width="152.0797227036395" fill="#D1D1D1" stroke="#D1D1D1" stroke-width="0" opacity="0.9" />
<rect x="26.24783362218371" y="15.62" height="3" width="152.0797227036395" fill="#F4EDF2" opacity="0.25" />
<line x1="178.32755632582322" y1="18.5" x2="743.7521663778163" y2="18.5" stroke="#BABABA" stroke-width="1.5" />
<rect x="743.7521663778163" y="14" height="9" width="16.24783362218371" fill="#009CA2" stroke="#009CA2" stroke-width="0" opacity="0.9" />
<rect x="743.7521663778163" y="15.62" height="3" width="16.24783362218371" fill="#F4EDF2" opacity="0.25" />
<path d="M 760 14 C 764.5 14, 764.5 23, 760 23" fill="#009CA2" opacity="0.9" />
<rect x="11.299826689774697" y="14" height="9" width="0.32495667244367415" fill="#E3081C" stroke="#E3081C" stroke-width="0" opacity="0.9" />
<rect x="752.8509532062391" y="14" height="9" width="0.32495667244367415" fill="#5132AE" stroke="#5132AE" stroke-width="0" opacity="0.9" />
<path d="M 10 25 C 5.5 25, 5.5 34, 10 34" fill="#009CA2" opacity="0.9" />
<rect x="10" y="25" height="9" width="14.948006932409012" fill="#009CA2" stroke="#009CA2" stroke-width="0" opacity="0.9" />
<rect x="10" y="26.62" height="3" width="14.948006932409012" fill="#F4EDF2" opacity="0.25" />
<rect x="24.94800693240901" y="25" height="9" width="0.6499133448873483" fill="#BABABA" stroke="#BABABA" stroke-width="0" opacity="0.9" />
<rect x="24.94800693240901" y="26.62" height="3" width="0.6499133448873483" fill="#F4EDF2" opacity="0.25" />
<rect x="25.59792027729636" y="25" height="9" width="0.6499133448873483" fill="#009CA2" stroke="#009CA2" stroke-width="0" opacity="0.9" />
<rect x="25.59792027729636" y="26.62" height="3" width="0.6499133448873483" fill="#F4EDF2" opacity="0.25" />
<rect x="26.24783362218371" y="25" height="9" width="159.22876949740035" fill="#D1D1D1" stroke="#D1D1D1" stroke-width="0" opacity="0.9" />
<rect x="26.24783362218371" y="26.62" height="3" width="159.22876949740035" fill="#F4EDF2" opacity="0.25" />
<line x1="185.47660311958407" y1="29.5" x2="743.7521663778163" y2="29.5" stroke="#BABABA" stroke-width="1.5" />
<rect x="743.7521663778163" y="25" height="9" width="16.24783362218371" fill="#009CA2" stroke="#009CA2" stroke-width="0" opacity="0.9" />
<rect x="743.7521663778163" y="26.62" height="3" width="16.24783362218371" fill="#F4EDF2" opacity="0.25" />
<path d="M 760 25 C 764.5 25, 764.5 34, 760 34" fill="#009CA2" opacity="0.9" />
<path d="M 10 36 C 5.5 36, 5.5 45, 10 45" fill="#009CA2" opacity="0.9" />
<rect x="10" y="36" height="9" width="16.24783362218371" fill="#009CA2" stroke="#009CA2" stroke-width="0" opacity="0.9" />
<rect x="10" y="37.62" height="3" width="16.24783362218371" fill="#F4EDF2" opacity="0.25" />
<rect x="26.24783362218371" y="36" height="9" width="160.52859618717503" fill="#D1D1D1" stroke="#D1D1D1" stroke-width="0" opacity="0.9" />
<rect x="26.24783362218371" y="37.62" height="3" width="160.52859618717503" fill="#F4EDF2" opacity="0.25" />
<line x1="186.77642980935875" y1="40.5" x2="743.7521663778163" y2="40.5" stroke="#BABABA" stroke-width="1.5" />
<rect x="743.7521663778163" y="36" height="9" width="0.32495667244367415" fill="#BABABA" stroke="#BABABA" stroke-width="0" opacity="0.9" />
<rect x="743.7521663778163" y="37.62" height="3" width="0.32495667244367415" fill="#F4EDF2" opacity="0.25" />
<rect x="744.07712305026" y="36" height="9" width="15.922876949740033" fill="#009CA2" stroke="#009CA2" stroke-width="0" opacity="0.9" />
<rect x="744.07712305026" y="37.62" height="3" width="15.922876949740033" fill="#F4EDF2" opacity="0.25" />
<path d="M 760 36 C 764.5 36, 764.5 45, 760 45" fill="#009CA2" opacity="0.9" />
<rect x="11.299826689774697" y="36" height="9" width="0.32495667244367415" fill="#BC1343" stroke="#BC1343" stroke-width="0" opacity="0.9" />
<rect x="752.8509532062391" y="36" height="9" width="0.32495667244367415" fill="#E90616" stroke="#E90616" stroke-width="0" opacity="0.9" />
<path d="M 10 47 C 5.5 47, 5.5 56, 10 56" fill="#009CA2" opacity="0.9" />
<rect x="10" y="47" height="9" width="16.24783362218371" fill="#009CA2" stroke="#009CA2" stroke-width="0" opacity="0.9" />
<rect x="10" y="48.62" height="3" width="16.24783362218371" fill="#F4EDF2" opacity="0.25" />
<rect x="26.24783362218371" y="47" height="9" width="162.80329289428076" fill="#D1D1D1" stroke="#D1D1D1" stroke-width="0" opacity="0.9" />
<rect x="26.24783362218371" y="48.62" height="3" width="162.80329289428076" fill="#F4EDF2" opacity="0.25" />
<line x1="189.05112651646448" y1="51.5" x2="743.7521663778163" y2="51.5" stroke="#BABABA" stroke-width="1.5" />
<rect x="743.7521663778163" y="47" height="9" width="16.24783362218371" fill="#009CA2" stroke="#009CA2" stroke-width="0" opacity="0.9" />
<rect x="743.7521663778163" y="48.62" height="3" width="16.24783362218371" fill="#F4EDF2" opacity="0.25" />
<path d="M 760 47 C 764.5 47, 764.5 56, 760 56" fill="#009CA2" opacity="0.9" />
<path d="M 10 58 C 5.5 58, 5.5 67, 10 67" fill="#009CA2" opacity="0.9" />
<rect x="10" y="58" height="9" width="16.24783362218371" fill="#009CA2" stroke="#009CA2" stroke-width="0" opacity="0.9" />
<rect x="10" y="59.62" height="3" width="16.24783362218371" fill="#F4EDF2" opacity="0.25" />
<rect x="26.24783362218371" y="58" height="9" width="168.32755632582322" fill="#D1D1D1" stroke="#D1D1D1" stroke-width="0" opacity="0.9" />
<rect x="26.24783362218371" y="59.62" height="3" width="168.32755632582322" fill="#F4EDF2" opacity="0.25" />
<line x1="194.57538994800694" y1="62.5" x2="743.7521663778164" y2="62.5" stroke="#BABABA" stroke-width="1.5" />
<rect x="743.7521663778164" y="58" height="9" width="0.6499133448873483" fill="#009CA2" stroke="#009CA2" stroke-width="0" opacity="0.9" />
<rect x="743.7521663778164" y="59.62" height="3" width="0.6499133448873483" fill="#F4EDF2" opacity="0.25" />
<rect x="744.4020797227037" y="58" height="9" width="0.32495667244367415" fill="#BABABA" stroke="#BABABA" stroke-width="0" opacity="0.9" />
<rect x="744.4020797227037" y="59.62" height="3" width="0.32495667244367415" fill="#F4EDF2" opacity="0.25" />
<rect x="744.7270363951474" y="58" height="9" width="3.5745233968804158" fill="#009CA2" stroke="#009CA2" stroke-width="0" opacity="0.9" />
<rect x="744.7270363951474" y="59.62" height="3" width="3.5745233968804158" fill="#F4EDF2" opacity="0.25" />
<line x1="748.3015597920278" y1="62.5" x2="748.6265164644715" y2="62.5" stroke="#009CA2" stroke-width="1.5" />
<rect x="748.6265164644715" y="58" height="9" width="11.373483535528596" fill="#009CA2" stroke="#009CA2" stroke-width="0" opacity="0.9" />
<rect x="748.6265164644715" y="59.62" height="3" width="11.373483535528596" fill="#F4EDF2" opacity="0.25" />
<path d="M 760.0000000000001 58 C 764.5000000000001 58, 764.5000000000001 67, 760.0000000000001 67" fill="#009CA2" opacity="0.9" />
<line x1="760.0000000000001" y1="58" x2="760.0000000000001" y2="67" stroke="#000000" stroke-width="0.32495667244367415" />
<path d="M 10 69 C 5.5 69, 5.5 78, 10 78" fill="#009CA2" opacity="0.9" />
<rect x="10" y="69" height="9" width="16.24783362218371" fill="#009CA2" stroke="#009CA2" stroke-width="0" opacity="0.9" />
<rect x="10" y="70.62" height="3" width="16.24783362218371" fill="#F4EDF2" opacity="0.25" />
<rect x="26.24783362218371" y="69" height="9" width="170.60225303292893" fill="#D1D1D1" stroke="#D1D1D1" stroke-width="0" opacity="0.9" />
<rect x="26.24783362218371" y="70.62" height="3" width="170.60225303292893" fill="#F4EDF2" opacity="0.25" />
<line x1="196.85008665511265" y1="73.5" x2="743.7521663778161" y2="73.5" stroke="#BABABA" stroke-width="1.5" />
<rect x="743.7521663778161" y="69" height="9" width="16.24783362218371" fill="#009CA2" stroke="#009CA2" stroke-width="0" opacity="0.9" />
<rect x="743.7521663778161" y="70.62" height="3" width="16.24783362218371" fill="#F4EDF2" opacity="0.25" />
<path d="M 759.9999999999999 69 C 764.4999999999999 69, 764.4999999999999 78, 759.9999999999999 78" fill="#009CA2" opacity="0.9" />
<rect x="11.299826689774697" y="69" height="9" width="0.32495667244367415" fill="#343ACB" stroke="#343ACB" stroke-width="0" opacity="0.9" />
<rect x="752.8509532062391" y="69" height="9" width="0.32495667244367415" fill="#FA0105" stroke="#FA0105" stroke-width="0" opacity="0.9" />
<path d="M 10 80 C 5.5 80, 5.5 89, 10 89" fill="#009CA2" opacity="0.9" />
<rect x="10" y="80" height="9" width="16.24783362218371" fill="#009CA2" stroke="#009CA2" stroke-width="0" opacity="0.9" />
<rect x="10" y="81.62" height="3" width="16.24783362218371" fill="#F4EDF2" opacity="0.25" />
<rect x="26.24783362218371" y="80" height="9" width="184.57538994800692" fill="#D1D1D1" stroke="#D1D1D1" stroke-width="0" opacity="0.9" />
<rect x="26.24783362218371" y="81.62" height="3" width="184.57538994800692" fill="#F4EDF2" opacity="0.25" />
<line x1="210.82322357019063" y1="84.5" x2="743.7521663778163" y2="84.5" stroke="#BABABA" stroke-width="1.5" />
<rect x="743.7521663778163" y="80" height="9" width="16.24783362218371" fill="#009CA2" stroke="#009CA2" stroke-width="0" opacity="0.9" />
<rect x="743.7521663778163" y="81.62" height="3" width="16.24783362218371" fill="#F4EDF2" opacity="0.25" />
<path d="M 760 80 C 764.5 80, 764.5 89, 760 89" fill="#009CA2" opacity="0.9" />
<path d="M 10 91 C 5.5 91, 5.5 100, 10 100" fill="#009CA2" opacity="0.9" />
<rect x="10" y="91" height="9" width="16.24783362218371" fill="#009CA2" stroke="#009CA2" stroke-width="0" opacity="0.9" />
<rect x="10" y="92.62" height="3" width="16.24783362218371" fill="#F4EDF2" opacity="0.25" />
<rect x="26.24783362218371" y="91" height="9" width="668.7608318890814" fill="#D1D1D1" stroke="#D1D1D1" stroke-width="0" opacity="0.9" />
<rect x="26.24783362218371" y="92.62" height="3" width="668.7608318890814" fill="#F4EDF2" opacity="0.25" />
<line x1="695.0086655112651" y1="95.5" x2="743.7521663778163" y2="95.5" stroke="#BABABA" stroke-width="1.5" />
<rect x="743.7521663778163" y="91" height="9" width="16.24783362218371" fill="#009CA2" stroke="#009CA2" stroke-width="0" opacity="0.9" />
<rect x="743.7521663778163" y="92.62" height="3" width="16.24783362218371" fill="#F4EDF2" opacity="0.25" />
<path d="M 760 91 C 764.5 91, 764.5 100, 760 100" fill="#009CA2" opacity="0.9" />
<rect x="11.299826689774697" y="91" height="9" width="0.32495667244367415" fill="#E70718" stroke="#E70718" stroke-width="0" opacity="0.9" />
<rect x="752.8509532062391" y="91" height="9" width="0.32495667244367415" fill="#1C41E3" stroke="#1C41E3" stroke-width="0" opacity="0.9" />
<path d="M 10 102 C 5.5 102, 5.5 111, 10 111" fill="#009CA2" opacity="0.9" />
<rect x="10" y="102" height="9" width="16.24783362218371" fill="#009CA2" stroke="#009CA2" stroke-width="0" opacity="0.9" />
<rect x="10" y="103.62" height="3" width="16.24783362218371" fill="#F4EDF2" opacity="0.25" />
<rect x="26.24783362218371" y="102" height="9" width="674.9350086655112" fill="#D1D1D1" stroke="#D1D1D1" stroke-width="0" opacity="0.9" />
<rect x="26.24783362218371" y="103.62" height="3" width="674.9350086655112" fill="#F4EDF2" opacity="0.25" />
<line x1="701.1828422876949" y1="106.5" x2="743.7521663778163" y2="106.5" stroke="#BABABA" stroke-width="1.5" />
<rect x="743.7521663778163" y="102" height="9" width="16.24783362218371" fill="#009CA2" stroke="#009CA2" stroke-width="0" opacity="0.9" />
<rect x="743.7521663778163" y="103.62" height="3" width="16.24783362218371" fill="#F4EDF2" opacity="0.25" />
<path d="M 760 102 C 764.5 102, 764.5 111, 760 111" fill="#009CA2" opacity="0.9" />
<rect x="11.299826689774697" y="102" height="9" width="0.32495667244367415" fill="#D90B26" stroke="#D90B26" stroke-width="0" opacity="0.9" />
<rect x="752.8509532062391" y="102" height="9" width="0.32495667244367415" fill="#FF0000" stroke="#FF0000" stroke-width="0" opacity="0.9" />
<path d="M 10 113 C 5.5 113, 5.5 122, 10 122" fill="#009CA2" opacity="0.9" />
<rect x="10" y="113" height="9" width="16.24783362218371" fill="#009CA2" stroke="#009CA2" stroke-width="0" opacity="0.9" />
<rect x="10" y="114.62" height="3" width="16.24783362218371" fill="#F4EDF2" opacity="0.25" />
<rect x="26.24783362218371" y="113" height="9" width="681.4341421143847" fill="#D1D1D1" stroke="#D1D1D1" stroke-width="0" opacity="0.9" />
<rect x="26.24783362218371" y="114.62" height="3" width="681.4341421143847" fill="#F4EDF2" opacity="0.25" />
<line x1="707.6819757365685" y1="117.5" x2="743.7521663778163" y2="117.5" stroke="#BABABA" stroke-width="1.5" />
<rect x="743.7521663778163" y="113" height="9" width="16.24783362218371" fill="#009CA2" stroke="#009CA2" stroke-width="0" opacity="0.9" />
<rect x="743.7521663778163" y="114.62" height="3" width="16.24783362218371" fill="#F4EDF2" opacity="0.25" />
<path d="M 760 113 C 764.5 113, 764.5 122, 760 122" fill="#009CA2" opacity="0.9" />
<rect x="11.299826689774697" y="113" height="9" width="0.32495667244367415" fill="#71298E" stroke="#71298E" stroke-width="0" opacity="0.9" />
<rect x="752.8509532062391" y="113" height="9" width="0.32495667244367415" fill="#F80207" stroke="#F80207" stroke-width="0" opacity="0.9" />
<path d="M 10 124 C 5.5 124, 5.5 133, 10 133" fill="#009CA2" opacity="0.9" />
<rect x="10" y="124" height="9" width="16.24783362218371" fill="#009CA2" stroke="#009CA2" stroke-width="0" opacity="0.9" />
<rect x="10" y="125.62" height="3" width="16.24783362218371" fill="#F4EDF2" opacity="0.25" />
<rect x="26.24783362218371" y="124" height="9" width="682.7339688041594" fill="#D1D1D1" stroke="#D1D1D1" stroke-width="0" opacity="0.9" />
<rect x="26.24783362218371" y="125.62" height="3" width="682.7339688041594" fill="#F4EDF2" opacity="0.25" />
<line x1="708.9818024263432" y1="128.5" x2="743.7521663778163" y2="128.5" stroke="#BABABA" stroke-width="1.5" />
<rect x="743.7521663778163" y="124" height="9" width="16.24783362218371" fill="#009CA2" stroke="#009CA2" stroke-width="0" opacity="0.9" />
<rect x="743.7521663778163" y="125.62" height="3" width="16.24783362218371" fill="#F4EDF2" opacity="0.25" />
<path d="M 760 124 C 764.5 124, 764.5 133, 760 133" fill="#009CA2" opacity="0.9" />
<rect x="11.299826689774697" y="124" height="9" width="0.32495667244367415" fill="#951E6A" stroke="#951E6A" stroke-width="0" opacity="0.9" />
<rect x="752.8509532062391" y="124" height="9" width="0.32495667244367415" fill="#F80207" stroke="#F80207" stroke-width="0" opacity="0.9" />
<path d="M 10 135 C 5.5 135, 5.5 144, 10 144" fill="#009CA2" opacity="0.9" />
<rect x="10" y="135" height="9" width="16.24783362218371" fill="#009CA2" stroke="#009CA2" stroke-width="0" opacity="0.9" />
<rect x="10" y="136.62" height="3" width="16.24783362218371" fill="#F4EDF2" opacity="0.25" />
<rect x="26.24783362218371" y="135" height="9" width="686.6334488734835" fill="#D1D1D1" stroke="#D1D1D1" stroke-width="0" opacity="0.9" />
<rect x="26.24783362218371" y="136.62" height="3" width="686.6334488734835" fill="#F4EDF2" opacity="0.25" />
<line x1="712.8812824956673" y1="139.5" x2="743.7521663778164" y2="139.5" stroke="#BABABA" stroke-width="1.5" />
<rect x="743.7521663778164" y="135" height="9" width="16.24783362218371" fill="#009CA2" stroke="#009CA2" stroke-width="0" opacity="0.9" />
<rect x="743.7521663778164" y="136.62" height="3" width="16.24783362218371" fill="#F4EDF2" opacity="0.25" />
<path d="M 760.0000000000001 135 C 764.5000000000001 135, 764.5000000000001 144, 760.0000000000001 144" fill="#009CA2" opacity="0.9" />
<rect x="11.299826689774697" y="135" height="9" width="0.32495667244367415" fill="#FF0000" stroke="#FF0000" stroke-width="0" opacity="0.9" />
<rect x="752.8509532062391" y="135" height="9" width="0.32495667244367415" fill="#FB0104" stroke="#FB0104" stroke-width="0" opacity="0.9" />
<path d="M 10 146 C 5.5 146, 5.5 155, 10 155" fill="#009CA2" opacity="0.9" />
<rect x="10" y="146" height="9" width="16.24783362218371" fill="#009CA2" stroke="#009CA2" stroke-width="0" opacity="0.9" />
<rect x="10" y="147.62" height="3" width="16.24783362218371" fill="#F4EDF2" opacity="0.25" />
<rect x="26.24783362218371" y="146" height="9" width="691.1828422876949" fill="#D1D1D1" stroke="#D1D1D1" stroke-width="0" opacity="0.9" />
<rect x="26.24783362218371" y="147.62" height="3" width="691.1828422876949" fill="#F4EDF2" opacity="0.25" />
<line x1="717.4306759098787" y1="150.5" x2="743.7521663778163" y2="150.5" stroke="#BABABA" stroke-width="1.5" />
<rect x="743.7521663778163" y="146" height="9" width="16.24783362218371" fill="#009CA2" stroke="#009CA2" stroke-width="0" opacity="0.9" />
<rect x="743.7521663778163" y="147.62" height="3" width="16.24783362218371" fill="#F4EDF2" opacity="0.25" />
<path d="M 760 146 C 764.5 146, 764.5 155, 760 155" fill="#009CA2" opacity="0.9" />
<path d="M 10 157 C 5.5 157, 5.5 166, 10 166" fill="#009CA2" opacity="0.9" />
<line x1="10" y1="161.5" x2="10.324956672443674" y2="161.5" stroke="#009CA2" stroke-width="1.5" />
<rect x="10.324956672443674" y="157" height="9" width="2.9246100519930676" fill="#009CA2" stroke="#009CA2" stroke-width="0" opacity="0.9" />
<rect x="10.324956672443674" y="158.62" height="3" width="2.9246100519930676" fill="#F4EDF2" opacity="0.25" />
<rect x="13.249566724436741" y="157" height="9" width="12.998266897746966" fill="#009CA2" stroke="#009CA2" stroke-width="0" opacity="0.9" />
<rect x="13.249566724436741" y="158.62" height="3" width="12.998266897746966" fill="#F4EDF2" opacity="0.25" />
<rect x="26.247833622183705" y="157" height="9" width="692.8076256499133" fill="#D1D1D1" stroke="#D1D1D1" stroke-width="0" opacity="0.9" />
<rect x="26.247833622183705" y="158.62" height="3" width="692.8076256499133" fill="#F4EDF2" opacity="0.25" />
<line x1="719.0554592720971" y1="161.5" x2="743.7521663778164" y2="161.5" stroke="#BABABA" stroke-width="1.5" />
<rect x="743.7521663778164" y="157" height="9" width="16.24783362218371" fill="#009CA2" stroke="#009CA2" stroke-width="0" opacity="0.9" />
<rect x="743.7521663778164" y="158.62" height="3" width="16.24783362218371" fill="#F4EDF2" opacity="0.25" />
<path d="M 760.0000000000001 157 C 764.5000000000001 157, 764.5000000000001 166, 760.0000000000001 166" fill="#009CA2" opacity="0.9" />
<line x1="13.249566724436741" y1="157" x2="13.249566724436741" y2="166" stroke="#000000" stroke-width="0.32495667244367415" />
<rect x="11.299826689774697" y="157" height="9" width="0.32495667244367415" fill="#FF0000" stroke="#FF0000" stroke-width="0" opacity="0.9" />
<rect x="752.8509532062391" y="157" height="9" width="0.32495667244367415" fill="#F90206" stroke="#F90206" stroke-width="0" opacity="0.9" />
<path d="M 10 168 C 5.5 168, 5.5 177, 10 177" fill="#009CA2" opacity="0.9" />
<rect x="10" y="168" height="9" width="16.24783362218371" fill="#009CA2" stroke="#009CA2" stroke-width="0" opacity="0.9" />
<rect x="10" y="169.62" height="3" width="16.24783362218371" fill="#F4EDF2" opacity="0.25" />
<rect x="26.24783362218371" y="168" height="9" width="717.5043327556325" fill="#D1D1D1" stroke="#D1D1D1" stroke-width="0" opacity="0.9" />
<rect x="26.24783362218371" y="169.62" height="3" width="717.5043327556325" fill="#F4EDF2" opacity="0.25" />
<rect x="743.7521663778163" y="168" height="9" width="16.24783362218371" fill="#009CA2" stroke="#009CA2" stroke-width="0" opacity="0.9" />
<rect x="743.7521663778163" y="169.62" height="3" width="16.24783362218371" fill="#F4EDF2" opacity="0.25" />
<path d="M 760 168 C 764.5 168, 764.5 177, 760 177" fill="#009CA2" opacity="0.9" />
<rect x="11.299826689774697" y="168" height="9" width="0.32495667244367415" fill="#DC0A23" stroke="#DC0A23" stroke-width="0" opacity="0.9" />
<rect x="752.8509532062391" y="168" height="9" width="0.32495667244367415" fill="#0647F9" stroke="#0647F9" stroke-width="0" opacity="0.9" />
<rect x="10" y="183" height="12" width="12" fill="#1383C6" stroke="#1383C6" stroke-width="0" opacity="0.9" />
<text x="24" y="194" font-family="monospace" font-weight="bold" font-size="14px" >AAAAG</text>
<rect x="79" y="183" height="12" width="12" fill="#814ED1" stroke="#814ED1" stroke-width="0" opacity="0.9" />
<text x="93" y="194" font-family="monospace" font-weight="bold" font-size="14px" >AAAGG</text>
<rect x="148" y="183" height="12" width="12" fill="#E16A2C" stroke="#E16A2C" stroke-width="0" opacity="0.9" />
<text x="162" y="194" font-family="monospace" font-weight="bold" font-size="14px" >AAGGG</text>
<rect x="217" y="183" height="12" width="12" fill="#ED3981" stroke="#ED3981" stroke-width="0" opacity="0.9" />
<text x="231" y="194" font-family="monospace" font-weight="bold" font-size="14px" >AAGAG</text>
<rect x="286" y="183" height="12" width="12" fill="#EFCD17" stroke="#EFCD17" stroke-width="0" opacity="0.9" />
<text x="300" y="194" font-family="monospace" font-weight="bold" font-size="14px" >AGAGG</text>
<rect x="355" y="183" height="12" width="12" fill="#009D4E" stroke="#009D4E" stroke-width="0" opacity="0.9" />
<text x="369" y="194" font-family="monospace" font-weight="bold" font-size="14px" >AACGG</text>
<rect x="424" y="183" height="12" width="12" fill="#E3371E" stroke="#E3371E" stroke-width="0" opacity="0.9" />
<text x="438" y="194" font-family="monospace" font-weight="bold" font-size="14px" >GGGAC</text>
<rect x="493" y="183" height="12" width="12" fill="#F0E68C" stroke="#F0E68C" stroke-width="0" opacity="0.9" />
<text x="507" y="194" font-family="monospace" font-weight="bold" font-size="14px" >AAAGGG</text>
</svg>
