<?xml version="1.0"?>
<svg xmlns="http://www.w3.org/2000/svg" xmlns:xlink="http://www.w3.org/1999/xlink" width="770.0000000000001" height="387">
<rect width="100%" height="100%" fill="white"/>
<path d="M 10 14 C 5.5 14, 5.5 23, 10 23" fill="#009CA2" opacity="0.9" />
<rect x="10" y="14" height="9" width="230.06134969325154" fill="#009CA2" stroke="#009CA2" stroke-width="0" opacity="0.9" />
<rect x="10" y="15.62" height="3" width="230.06134969325154" fill="#F4EDF2" opacity="0.25" />
<rect x="240.06134969325154" y="14" height="9" width="138.03680981595093" fill="#1383C6" stroke="#1383C6" stroke-width="0" opacity="0.9" />
<rect x="240.06134969325154" y="15.62" height="3" width="138.03680981595093" fill="#F4EDF2" opacity="0.25" />
<line x1="378.09815950920245" y1="18.5" x2="529.9386503067485" y2="18.5" stroke="#BABABA" stroke-width="1.5" />
<rect x="529.9386503067485" y="14" height="9" width="230.06134969325154" fill="#009CA2" stroke="#009CA2" stroke-width="0" opacity="0.9" />
<rect x="529.9386503067485" y="15.62" height="3" width="230.06134969325154" fill="#F4EDF2" opacity="0.25" />
<path d="M 760 14 C 764.5 14, 764.5 23, 760 23" fill="#009CA2" opacity="0.9" />
<path d="M 10 25 C 5.5 25, 5.5 34, 10 34" fill="#009CA2" opacity="0.9" />
<rect x="10" y="25" height="9" width="230.06134969325154" fill="#009CA2" stroke="#009CA2" stroke-width="0" opacity="0.9" />
<rect x="10" y="26.62" height="3" width="230.06134969325154" fill="#F4EDF2" opacity="0.25" />
<rect x="240.06134969325154" y="25" height="9" width="138.03680981595093" fill="#1383C6" stroke="#1383C6" stroke-width="0" opacity="0.9" />
<rect x="240.06134969325154" y="26.62" height="3" width="138.03680981595093" fill="#F4EDF2" opacity="0.25" />
<line x1="378.09815950920245" y1="29.5" x2="529.9386503067485" y2="29.5" stroke="#BABABA" stroke-width="1.5" />
<rect x="529.9386503067485" y="25" height="9" width="230.06134969325154" fill="#009CA2" stroke="#009CA2" stroke-width="0" opacity="0.9" />
<rect x="529.9386503067485" y="26.62" height="3" width="230.06134969325154" fill="#F4EDF2" opacity="0.25" />
<path d="M 760 25 C 764.5 25, 764.5 34, 760 34" fill="#009CA2" opacity="0.9" />
<path d="M 10 36 C 5.5 36, 5.5 45, 10 45" fill="#009CA2" opacity="0.9" />
<rect x="10" y="36" height="9" width="230.06134969325154" fill="#009CA2" stroke="#009CA2" stroke-width="0" opacity="0.9" />
<rect x="10" y="37.62" height="3" width="230.06134969325154" fill="#F4EDF2" opacity="0.25" />
<rect x="240.06134969325154" y="36" height="9" width="138.03680981595093" fill="#1383C6" stroke="#1383C6" stroke-width="0" opacity="0.9" />
<rect x="240.06134969325154" y="37.62" height="3" width="138.03680981595093" fill="#F4EDF2" opacity="0.25" />
<line x1="378.09815950920245" y1="40.5" x2="529.9386503067485" y2="40.5" stroke="#BABABA" stroke-width="1.5" />
<rect x="529.9386503067485" y="36" height="9" width="230.06134969325154" fill="#009CA2" stroke="#009CA2" stroke-width="0" opacity="0.9" />
<rect x="529.9386503067485" y="37.62" height="3" width="230.06134969325154" fill="#F4EDF2" opacity="0.25" />
<path d="M 760 36 C 764.5 36, 764.5 45, 760 45" fill="#009CA2" opacity="0.9" />
<path d="M 10 47 C 5.5 47, 5.5 56, 10 56" fill="#009CA2" opacity="0.9" />
<rect x="10" y="47" height="9" width="230.06134969325154" fill="#009CA2" stroke="#009CA2" stroke-width="0" opacity="0.9" />
<rect x="10" y="48.62" height="3" width="230.06134969325154" fill="#F4EDF2" opacity="0.25" />
<rect x="240.06134969325154" y="47" height="9" width="138.03680981595093" fill="#1383C6" stroke="#1383C6" stroke-width="0" opacity="0.9" />
<rect x="240.06134969325154" y="48.62" height="3" width="138.03680981595093" fill="#F4EDF2" opacity="0.25" />
<line x1="378.09815950920245" y1="51.5" x2="529.9386503067485" y2="51.5" stroke="#BABABA" stroke-width="1.5" />
<rect x="529.9386503067485" y="47" height="9" width="230.06134969325154" fill="#009CA2" stroke="#009CA2" stroke-width="0" opacity="0.9" />
<rect x="529.9386503067485" y="48.62" height="3" width="230.06134969325154" fill="#F4EDF2" opacity="0.25" />
<path d="M 760 47 C 764.5 47, 764.5 56, 760 56" fill="#009CA2" opacity="0.9" />
<path d="M 10 58 C 5.5 58, 5.5 67, 10 67" fill="#009CA2" opacity="0.9" />
<rect x="10" y="58" height="9" width="230.06134969325154" fill="#009CA2" stroke="#009CA2" stroke-width="0" opacity="0.9" />
<rect x="10" y="59.62" height="3" width="230.06134969325154" fill="#F4EDF2" opacity="0.25" />
<rect x="240.06134969325154" y="58" height="9" width="138.03680981595093" fill="#1383C6" stroke="#1383C6" stroke-width="0" opacity="0.9" />
<rect x="240.06134969325154" y="59.62" height="3" width="138.03680981595093" fill="#F4EDF2" opacity="0.25" />
<line x1="378.09815950920245" y1="62.5" x2="529.9386503067485" y2="62.5" stroke="#BABABA" stroke-width="1.5" />
<rect x="529.9386503067485" y="58" height="9" width="230.06134969325154" fill="#009CA2" stroke="#009CA2" stroke-width="0" opacity="0.9" />
<rect x="529.9386503067485" y="59.62" height="3" width="230.06134969325154" fill="#F4EDF2" opacity="0.25" />
<path d="M 760 58 C 764.5 58, 764.5 67, 760 67" fill="#009CA2" opacity="0.9" />
<path d="M 10 69 C 5.5 69, 5.5 78, 10 78" fill="#009CA2" opacity="0.9" />
<rect x="10" y="69" height="9" width="230.06134969325154" fill="#009CA2" stroke="#009CA2" stroke-width="0" opacity="0.9" />
<rect x="10" y="70.62" height="3" width="230.06134969325154" fill="#F4EDF2" opacity="0.25" />
<rect x="240.06134969325154" y="69" height="9" width="138.03680981595093" fill="#1383C6" stroke="#1383C6" stroke-width="0" opacity="0.9" />
<rect x="240.06134969325154" y="70.62" height="3" width="138.03680981595093" fill="#F4EDF2" opacity="0.25" />
<line x1="378.09815950920245" y1="73.5" x2="529.9386503067485" y2="73.5" stroke="#BABABA" stroke-width="1.5" />
<rect x="529.9386503067485" y="69" height="9" width="230.06134969325154" fill="#009CA2" stroke="#009CA2" stroke-width="0" opacity="0.9" />
<rect x="529.9386503067485" y="70.62" height="3" width="230.06134969325154" fill="#F4EDF2" opacity="0.25" />
<path d="M 760 69 C 764.5 69, 764.5 78, 760 78" fill="#009CA2" opacity="0.9" />
<path d="M 10 80 C 5.5 80, 5.5 89, 10 89" fill="#009CA2" opacity="0.9" />
<rect x="10" y="80" height="9" width="230.06134969325154" fill="#009CA2" stroke="#009CA2" stroke-width="0" opacity="0.9" />
<rect x="10" y="81.62" height="3" width="230.06134969325154" fill="#F4EDF2" opacity="0.25" />
<rect x="240.06134969325154" y="80" height="9" width="138.03680981595093" fill="#1383C6" stroke="#1383C6" stroke-width="0" opacity="0.9" />
<rect x="240.06134969325154" y="81.62" height="3" width="138.03680981595093" fill="#F4EDF2" opacity="0.25" />
<line x1="378.09815950920245" y1="84.5" x2="529.9386503067485" y2="84.5" stroke="#BABABA" stroke-width="1.5" />
<rect x="529.9386503067485" y="80" height="9" width="230.06134969325154" fill="#009CA2" stroke="#009CA2" stroke-width="0" opacity="0.9" />
<rect x="529.9386503067485" y="81.62" height="3" width="230.06134969325154" fill="#F4EDF2" opacity="0.25" />
<path d="M 760 80 C 764.5 80, 764.5 89, 760 89" fill="#009CA2" opacity="0.9" />
<path d="M 10 91 C 5.5 91, 5.5 100, 10 100" fill="#009CA2" opacity="0.9" />
<rect x="10" y="91" height="9" width="230.06134969325154" fill="#009CA2" stroke="#009CA2" stroke-width="0" opacity="0.9" />
<rect x="10" y="92.62" height="3" width="230.06134969325154" fill="#F4EDF2" opacity="0.25" />
<rect x="240.06134969325154" y="91" height="9" width="138.03680981595093" fill="#1383C6" stroke="#1383C6" stroke-width="0" opacity="0.9" />
<rect x="240.06134969325154" y="92.62" height="3" width="138.03680981595093" fill="#F4EDF2" opacity="0.25" />
<line x1="378.09815950920245" y1="95.5" x2="529.9386503067485" y2="95.5" stroke="#BABABA" stroke-width="1.5" />
<rect x="529.9386503067485" y="91" height="9" width="230.06134969325154" fill="#009CA2" stroke="#009CA2" stroke-width="0" opacity="0.9" />
<rect x="529.9386503067485" y="92.62" height="3" width="230.06134969325154" fill="#F4EDF2" opacity="0.25" />
<path d="M 760 91 C 764.5 91, 764.5 100, 760 100" fill="#009CA2" opacity="0.9" />
<path d="M 10 102 C 5.5 102, 5.5 111, 10 111" fill="#009CA2" opacity="0.9" />
<rect x="10" y="102" height="9" width="230.06134969325154" fill="#009CA2" stroke="#009CA2" stroke-width="0" opacity="0.9" />
<rect x="10" y="103.62" height="3" width="230.06134969325154" fill="#F4EDF2" opacity="0.25" />
<rect x="240.06134969325154" y="102" height="9" width="138.03680981595093" fill="#1383C6" stroke="#1383C6" stroke-width="0" opacity="0.9" />
<rect x="240.06134969325154" y="103.62" height="3" width="138.03680981595093" fill="#F4EDF2" opacity="0.25" />
<line x1="378.09815950920245" y1="106.5" x2="529.9386503067485" y2="106.5" stroke="#BABABA" stroke-width="1.5" />
<rect x="529.9386503067485" y="102" height="9" width="230.06134969325154" fill="#009CA2" stroke="#009CA2" stroke-width="0" opacity="0.9" />
<rect x="529.9386503067485" y="103.62" height="3" width="230.06134969325154" fill="#F4EDF2" opacity="0.25" />
<path d="M 760 102 C 764.5 102, 764.5 111, 760 111" fill="#009CA2" opacity="0.9" />
<path d="M 10 113 C 5.5 113, 5.5 122, 10 122" fill="#009CA2" opacity="0.9" />
<rect x="10" y="113" height="9" width="230.06134969325154" fill="#009CA2" stroke="#009CA2" stroke-width="0" opacity="0.9" />
<rect x="10" y="114.62" height="3" width="230.06134969325154" fill="#F4EDF2" opacity="0.25" />
<rect x="240.06134969325154" y="113" height="9" width="138.03680981595093" fill="#1383C6" stroke="#1383C6" stroke-width="0" opacity="0.9" />
<rect x="240.06134969325154" y="114.62" height="3" width="138.03680981595093" fill="#F4EDF2" opacity="0.25" />
<line x1="378.09815950920245" y1="117.5" x2="529.9386503067485" y2="117.5" stroke="#BABABA" stroke-width="1.5" />
<rect x="529.9386503067485" y="113" height="9" width="230.06134969325154" fill="#009CA2" stroke="#009CA2" stroke-width="0" opacity="0.9" />
<rect x="529.9386503067485" y="114.62" height="3" width="230.06134969325154" fill="#F4EDF2" opacity="0.25" />
<path d="M 760 113 C 764.5 113, 764.5 122, 760 122" fill="#009CA2" opacity="0.9" />
<path d="M 10 124 C 5.5 124, 5.5 133, 10 133" fill="#009CA2" opacity="0.9" />
<rect x="10" y="124" height="9" width="230.06134969325154" fill="#009CA2" stroke="#009CA2" stroke-width="0" opacity="0.9" />
<rect x="10" y="125.62" height="3" width="230.06134969325154" fill="#F4EDF2" opacity="0.25" />
<rect x="240.06134969325154" y="124" height="9" width="138.03680981595093" fill="#1383C6" stroke="#1383C6" stroke-width="0" opacity="0.9" />
<rect x="240.06134969325154" y="125.62" height="3" width="138.03680981595093" fill="#F4EDF2" opacity="0.25" />
<line x1="378.09815950920245" y1="128.5" x2="529.9386503067485" y2="128.5" stroke="#BABABA" stroke-width="1.5" />
<rect x="529.9386503067485" y="124" height="9" width="230.06134969325154" fill="#009CA2" stroke="#009CA2" stroke-width="0" opacity="0.9" />
<rect x="529.9386503067485" y="125.62" height="3" width="230.06134969325154" fill="#F4EDF2" opacity="0.25" />
<path d="M 760 124 C 764.5 124, 764.5 133, 760 133" fill="#009CA2" opacity="0.9" />
<path d="M 10 135 C 5.5 135, 5.5 144, 10 144" fill="#009CA2" opacity="0.9" />
<rect x="10" y="135" height="9" width="230.06134969325154" fill="#009CA2" stroke="#009CA2" stroke-width="0" opacity="0.9" />
<rect x="10" y="136.62" height="3" width="230.06134969325154" fill="#F4EDF2" opacity="0.25" />
<rect x="240.06134969325154" y="135" height="9" width="138.03680981595093" fill="#1383C6" stroke="#1383C6" stroke-width="0" opacity="0.9" />
<rect x="240.06134969325154" y="136.62" height="3" width="138.03680981595093" fill="#F4EDF2" opacity="0.25" />
<line x1="378.09815950920245" y1="139.5" x2="529.9386503067485" y2="139.5" stroke="#BABABA" stroke-width="1.5" />
<rect x="529.9386503067485" y="135" height="9" width="230.06134969325154" fill="#009CA2" stroke="#009CA2" stroke-width="0" opacity="0.9" />
<rect x="529.9386503067485" y="136.62" height="3" width="230.06134969325154" fill="#F4EDF2" opacity="0.25" />
<path d="M 760 135 C 764.5 135, 764.5 144, 760 144" fill="#009CA2" opacity="0.9" />
<path d="M 10 146 C 5.5 146, 5.5 155, 10 155" fill="#009CA2" opacity="0.9" />
<rect x="10" y="146" height="9" width="128.83435582822085" fill="#009CA2" stroke="#009CA2" stroke-width="0" opacity="0.9" />
<rect x="10" y="147.62" height="3" width="128.83435582822085" fill="#F4EDF2" opacity="0.25" />
<line x1="138.83435582822085" y1="150.5" x2="143.43558282208588" y2="150.5" stroke="#009CA2" stroke-width="1.5" />
<rect x="143.43558282208588" y="146" height="9" width="96.62576687116565" fill="#009CA2" stroke="#009CA2" stroke-width="0" opacity="0.9" />
<rect x="143.43558282208588" y="147.62" height="3" width="96.62576687116565" fill="#F4EDF2" opacity="0.25" />
<rect x="240.06134969325154" y="146" height="9" width="55.21472392638037" fill="#1383C6" stroke="#1383C6" stroke-width="0" opacity="0.9" />
<rect x="240.06134969325154" y="147.62" height="3" width="55.21472392638037" fill="#F4EDF2" opacity="0.25" />
<rect x="295.2760736196319" y="146" height="9" width="4.601226993865031" fill="#D1D1D1" stroke="#D1D1D1" stroke-width="0" opacity="0.9" />
<rect x="295.2760736196319" y="147.62" height="3" width="4.601226993865031" fill="#F4EDF2" opacity="0.25" />
<rect x="299.87730061349697" y="146" height="9" width="82.82208588957056" fill="#1383C6" stroke="#1383C6" stroke-width="0" opacity="0.9" />
<rect x="299.87730061349697" y="147.62" height="3" width="82.82208588957056" fill="#F4EDF2" opacity="0.25" />
<line x1="382.69938650306756" y1="150.5" x2="529.9386503067485" y2="150.5" stroke="#BABABA" stroke-width="1.5" />
<rect x="529.9386503067485" y="146" height="9" width="78.22085889570552" fill="#009CA2" stroke="#009CA2" stroke-width="0" opacity="0.9" />
<rect x="529.9386503067485" y="147.62" height="3" width="78.22085889570552" fill="#F4EDF2" opacity="0.25" />
<rect x="608.159509202454" y="146" height="9" width="147.23926380368098" fill="#009CA2" stroke="#009CA2" stroke-width="0" opacity="0.9" />
<rect x="608.159509202454" y="147.62" height="3" width="147.23926380368098" fill="#F4EDF2" opacity="0.25" />
<line x1="755.398773006135" y1="150.5" x2="760" y2="150.5" stroke="#009CA2" stroke-width="1.5" />
<path d="M 760 146 C 764.5 146, 764.5 155, 760 155" fill="#009CA2" opacity="0.9" />
<line x1="10" y1="146" x2="10" y2="155" stroke="#000000" stroke-width="2" />
<line x1="608.159509202454" y1="146" x2="608.159509202454" y2="155" stroke="#000000" stroke-width="2" />
<path d="M 10 157 C 5.5 157, 5.5 166, 10 166" fill="#009CA2" opacity="0.9" />
<rect x="10" y="157" height="9" width="202.45398773006136" fill="#009CA2" stroke="#009CA2" stroke-width="0" opacity="0.9" />
<rect x="10" y="158.62" height="3" width="202.45398773006136" fill="#F4EDF2" opacity="0.25" />
<rect x="212.45398773006136" y="157" height="9" width="13.803680981595093" fill="#BABABA" stroke="#BABABA" stroke-width="0" opacity="0.9" />
<rect x="212.45398773006136" y="158.62" height="3" width="13.803680981595093" fill="#F4EDF2" opacity="0.25" />
<rect x="226.25766871165644" y="157" height="9" width="13.803680981595093" fill="#009CA2" stroke="#009CA2" stroke-width="0" opacity="0.9" />
<rect x="226.25766871165644" y="158.62" height="3" width="13.803680981595093" fill="#F4EDF2" opacity="0.25" />
<rect x="240.06134969325154" y="157" height="9" width="4.601226993865031" fill="#D1D1D1" stroke="#D1D1D1" stroke-width="0" opacity="0.9" />
<rect x="240.06134969325154" y="158.62" height="3" width="4.601226993865031" fill="#F4EDF2" opacity="0.25" />
<rect x="244.66257668711657" y="157" height="9" width="138.03680981595093" fill="#1383C6" stroke="#1383C6" stroke-width="0" opacity="0.9" />
<rect x="244.66257668711657" y="158.62" height="3" width="138.03680981595093" fill="#F4EDF2" opacity="0.25" />
<line x1="382.6993865030675" y1="161.5" x2="529.9386503067485" y2="161.5" stroke="#BABABA" stroke-width="1.5" />
<rect x="529.9386503067485" y="157" height="9" width="230.06134969325154" fill="#009CA2" stroke="#009CA2" stroke-width="0" opacity="0.9" />
<rect x="529.9386503067485" y="158.62" height="3" width="230.06134969325154" fill="#F4EDF2" opacity="0.25" />
<path d="M 760 157 C 764.5 157, 764.5 166, 760 166" fill="#009CA2" opacity="0.9" />
<path d="M 10 168 C 5.5 168, 5.5 177, 10 177" fill="#009CA2" opacity="0.9" />
<rect x="10" y="168" height="9" width="230.06134969325154" fill="#009CA2" stroke="#009CA2" stroke-width="0" opacity="0.9" />
<rect x="10" y="169.62" height="3" width="230.06134969325154" fill="#F4EDF2" opacity="0.25" />
<rect x="240.06134969325154" y="168" height="9" width="165.64417177914112" fill="#1383C6" stroke="#1383C6" stroke-width="0" opacity="0.9" />
<rect x="240.06134969325154" y="169.62" height="3" width="165.64417177914112" fill="#F4EDF2" opacity="0.25" />
<line x1="405.70552147239266" y1="172.5" x2="529.9386503067485" y2="172.5" stroke="#BABABA" stroke-width="1.5" />
<rect x="529.9386503067485" y="168" height="9" width="230.06134969325154" fill="#009CA2" stroke="#009CA2" stroke-width="0" opacity="0.9" />
<rect x="529.9386503067485" y="169.62" height="3" width="230.06134969325154" fill="#F4EDF2" opacity="0.25" />
<path d="M 760 168 C 764.5 168, 764.5 177, 760 177" fill="#009CA2" opacity="0.9" />
<path d="M 10 179 C 5.5 179, 5.5 188, 10 188" fill="#009CA2" opacity="0.9" />
<rect x="10" y="179" height="9" width="230.06134969325154" fill="#009CA2" stroke="#009CA2" stroke-width="0" opacity="0.9" />
<rect x="10" y="180.62" height="3" width="230.06134969325154" fill="#F4EDF2" opacity="0.25" />
<rect x="240.06134969325154" y="179" height="9" width="165.64417177914112" fill="#1383C6" stroke="#1383C6" stroke-width="0" opacity="0.9" />
<rect x="240.06134969325154" y="180.62" height="3" width="165.64417177914112" fill="#F4EDF2" opacity="0.25" />
<line x1="405.70552147239266" y1="183.5" x2="529.9386503067485" y2="183.5" stroke="#BABABA" stroke-width="1.5" />
<rect x="529.9386503067485" y="179" height="9" width="230.06134969325154" fill="#009CA2" stroke="#009CA2" stroke-width="0" opacity="0.9" />
<rect x="529.9386503067485" y="180.62" height="3" width="230.06134969325154" fill="#F4EDF2" opacity="0.25" />
<path d="M 760 179 C 764.5 179, 764.5 188, 760 188" fill="#009CA2" opacity="0.9" />
<path d="M 10 190 C 5.5 190, 5.5 199, 10 199" fill="#009CA2" opacity="0.9" />
<line x1="10" y1="194.5" x2="19.20245398773006" y2="194.5" stroke="#009CA2" stroke-width="1.5" />
<rect x="19.20245398773006" y="190" height="9" width="78.22085889570552" fill="#009CA2" stroke="#009CA2" stroke-width="0" opacity="0.9" />
<rect x="19.20245398773006" y="191.62" height="3" width="78.22085889570552" fill="#F4EDF2" opacity="0.25" />
<rect x="97.42331288343559" y="190" height="9" width="142.63803680981596" fill="#009CA2" stroke="#009CA2" stroke-width="0" opacity="0.9" />
<rect x="97.42331288343559" y="191.62" height="3" width="142.63803680981596" fill="#F4EDF2" opacity="0.25" />
<rect x="240.06134969325154" y="190" height="9" width="55.21472392638037" fill="#1383C6" stroke="#1383C6" stroke-width="0" opacity="0.9" />
<rect x="240.06134969325154" y="191.62" height="3" width="55.21472392638037" fill="#F4EDF2" opacity="0.25" />
<rect x="295.2760736196319" y="190" height="9" width="4.601226993865031" fill="#D1D1D1" stroke="#D1D1D1" stroke-width="0" opacity="0.9" />
<rect x="295.2760736196319" y="191.62" height="3" width="4.601226993865031" fill="#F4EDF2" opacity="0.25" />
<rect x="299.87730061349697" y="190" height="9" width="55.21472392638037" fill="#1383C6" stroke="#1383C6" stroke-width="0" opacity="0.9" />
<rect x="299.87730061349697" y="191.62" height="3" width="55.21472392638037" fill="#F4EDF2" opacity="0.25" />
<rect x="355.09202453987734" y="190" height="9" width="4.601226993865031" fill="#D1D1D1" stroke="#D1D1D1" stroke-width="0" opacity="0.9" />
<rect x="355.09202453987734" y="191.62" height="3" width="4.601226993865031" fill="#F4EDF2" opacity="0.25" />
<rect x="359.6932515337424" y="190" height="9" width="55.21472392638037" fill="#1383C6" stroke="#1383C6" stroke-width="0" opacity="0.9" />
<rect x="359.6932515337424" y="191.62" height="3" width="55.21472392638037" fill="#F4EDF2" opacity="0.25" />
<line x1="414.90797546012277" y1="194.5" x2="529.9386503067485" y2="194.5" stroke="#BABABA" stroke-width="1.5" />
<rect x="529.9386503067485" y="190" height="9" width="230.06134969325154" fill="#009CA2" stroke="#009CA2" stroke-width="0" opacity="0.9" />
<rect x="529.9386503067485" y="191.62" height="3" width="230.06134969325154" fill="#F4EDF2" opacity="0.25" />
<path d="M 760 190 C 764.5 190, 764.5 199, 760 199" fill="#009CA2" opacity="0.9" />
<line x1="97.42331288343559" y1="190" x2="97.42331288343559" y2="199" stroke="#000000" stroke-width="2" />
<path d="M 10 201 C 5.5 201, 5.5 210, 10 210" fill="#009CA2" opacity="0.9" />
<rect x="10" y="201" height="9" width="230.06134969325154" fill="#009CA2" stroke="#009CA2" stroke-width="0" opacity="0.9" />
<rect x="10" y="202.62" height="3" width="230.06134969325154" fill="#F4EDF2" opacity="0.25" />
<rect x="240.06134969325154" y="201" height="9" width="27.607361963190186" fill="#1383C6" stroke="#1383C6" stroke-width="0" opacity="0.9" />
<rect x="240.06134969325154" y="202.62" height="3" width="27.607361963190186" fill="#F4EDF2" opacity="0.25" />
<rect x="267.6687116564417" y="201" height="9" width="46.012269938650306" fill="#D1D1D1" stroke="#D1D1D1" stroke-width="0" opacity="0.9" />
<rect x="267.6687116564417" y="202.62" height="3" width="46.012269938650306" fill="#F4EDF2" opacity="0.25" />
<rect x="313.680981595092" y="201" height="9" width="110.42944785276075" fill="#1383C6" stroke="#1383C6" stroke-width="0" opacity="0.9" />
<rect x="313.680981595092" y="202.62" height="3" width="110.42944785276075" fill="#F4EDF2" opacity="0.25" />
<rect x="424.11042944785277" y="201" height="9" width="23.006134969325153" fill="#D1D1D1" stroke="#D1D1D1" stroke-width="0" opacity="0.9" />
<rect x="424.11042944785277" y="202.62" height="3" width="23.006134969325153" fill="#F4EDF2" opacity="0.25" />
<rect x="447.1165644171779" y="201" height="9" width="55.21472392638037" fill="#1383C6" stroke="#1383C6" stroke-width="0" opacity="0.9" />
<rect x="447.1165644171779" y="202.62" height="3" width="55.21472392638037" fill="#F4EDF2" opacity="0.25" />
<line x1="502.3312883435583" y1="205.5" x2="529.9386503067485" y2="205.5" stroke="#BABABA" stroke-width="1.5" />
<rect x="529.9386503067485" y="201" height="9" width="41.41104294478528" fill="#009CA2" stroke="#009CA2" stroke-width="0" opacity="0.9" />
<rect x="529.9386503067485" y="202.62" height="3" width="41.41104294478528" fill="#F4EDF2" opacity="0.25" />
<rect x="571.3496932515338" y="201" height="9" width="184.04907975460122" fill="#009CA2" stroke="#009CA2" stroke-width="0" opacity="0.9" />
<rect x="571.3496932515338" y="202.62" height="3" width="184.04907975460122" fill="#F4EDF2" opacity="0.25" />
<line x1="755.3987730061351" y1="205.5" x2="760.0000000000001" y2="205.5" stroke="#009CA2" stroke-width="1.5" />
<path d="M 760.0000000000001 201 C 764.5000000000001 201, 764.5000000000001 210, 760.0000000000001 210" fill="#009CA2" opacity="0.9" />
<line x1="571.3496932515338" y1="201" x2="571.3496932515338" y2="210" stroke="#000000" stroke-width="2" />
<path d="M 10 212 C 5.5 212, 5.5 221, 10 221" fill="#009CA2" opacity="0.9" />
<rect x="10" y="212" height="9" width="230.06134969325154" fill="#009CA2" stroke="#009CA2" stroke-width="0" opacity="0.9" />
<rect x="10" y="213.62" height="3" width="230.06134969325154" fill="#F4EDF2" opacity="0.25" />
<rect x="240.06134969325154" y="212" height="9" width="46.012269938650306" fill="#D1D1D1" stroke="#D1D1D1" stroke-width="0" opacity="0.9" />
<rect x="240.06134969325154" y="213.62" height="3" width="46.012269938650306" fill="#F4EDF2" opacity="0.25" />
<rect x="286.07361963190186" y="212" height="9" width="220.8588957055215" fill="#1383C6" stroke="#1383C6" stroke-width="0" opacity="0.9" />
<rect x="286.07361963190186" y="213.62" height="3" width="220.8588957055215" fill="#F4EDF2" opacity="0.25" />
<line x1="506.93251533742335" y1="216.5" x2="529.9386503067485" y2="216.5" stroke="#BABABA" stroke-width="1.5" />
<rect x="529.9386503067485" y="212" height="9" width="230.06134969325154" fill="#009CA2" stroke="#009CA2" stroke-width="0" opacity="0.9" />
<rect x="529.9386503067485" y="213.62" height="3" width="230.06134969325154" fill="#F4EDF2" opacity="0.25" />
<path d="M 760 212 C 764.5 212, 764.5 221, 760 221" fill="#009CA2" opacity="0.9" />
<path d="M 10 223 C 5.5 223, 5.5 232, 10 232" fill="#009CA2" opacity="0.9" />
<rect x="10" y="223" height="9" width="230.06134969325154" fill="#009CA2" stroke="#009CA2" stroke-width="0" opacity="0.9" />
<rect x="10" y="224.62" height="3" width="230.06134969325154" fill="#F4EDF2" opacity="0.25" />
<rect x="240.06134969325154" y="223" height="9" width="138.03680981595093" fill="#1383C6" stroke="#1383C6" stroke-width="0" opacity="0.9" />
<rect x="240.06134969325154" y="224.62" height="3" width="138.03680981595093" fill="#F4EDF2" opacity="0.25" />
<rect x="378.09815950920245" y="223" height="9" width="23.006134969325153" fill="#D1D1D1" stroke="#D1D1D1" stroke-width="0" opacity="0.9" />
<rect x="378.09815950920245" y="224.62" height="3" width="23.006134969325153" fill="#F4EDF2" opacity="0.25" />
<rect x="401.1042944785276" y="223" height="9" width="110.42944785276075" fill="#1383C6" stroke="#1383C6" stroke-width="0" opacity="0.9" />
<rect x="401.1042944785276" y="224.62" height="3" width="110.42944785276075" fill="#F4EDF2" opacity="0.25" />
<line x1="511.53374233128835" y1="227.5" x2="529.9386503067485" y2="227.5" stroke="#BABABA" stroke-width="1.5" />
<rect x="529.9386503067485" y="223" height="9" width="78.22085889570552" fill="#009CA2" stroke="#009CA2" stroke-width="0" opacity="0.9" />
<rect x="529.9386503067485" y="224.62" height="3" width="78.22085889570552" fill="#F4EDF2" opacity="0.25" />
<rect x="608.159509202454" y="223" height="9" width="4.601226993865031" fill="#BABABA" stroke="#BABABA" stroke-width="0" opacity="0.9" />
<rect x="608.159509202454" y="224.62" height="3" width="4.601226993865031" fill="#F4EDF2" opacity="0.25" />
<rect x="612.760736196319" y="223" height="9" width="147.23926380368098" fill="#009CA2" stroke="#009CA2" stroke-width="0" opacity="0.9" />
<rect x="612.760736196319" y="224.62" height="3" width="147.23926380368098" fill="#F4EDF2" opacity="0.25" />
<path d="M 760 223 C 764.5 223, 764.5 232, 760 232" fill="#009CA2" opacity="0.9" />
<path d="M 10 234 C 5.5 234, 5.5 243, 10 243" fill="#009CA2" opacity="0.9" />
<rect x="10" y="234" height="9" width="230.06134969325154" fill="#009CA2" stroke="#009CA2" stroke-width="0" opacity="0.9" />
<rect x="10" y="235.62" height="3" width="230.06134969325154" fill="#F4EDF2" opacity="0.25" />
<rect x="240.06134969325154" y="234" height="9" width="276.07361963190186" fill="#1383C6" stroke="#1383C6" stroke-width="0" opacity="0.9" />
<rect x="240.06134969325154" y="235.62" height="3" width="276.07361963190186" fill="#F4EDF2" opacity="0.25" />
<line x1="516.1349693251534" y1="238.5" x2="529.9386503067485" y2="238.5" stroke="#BABABA" stroke-width="1.5" />
<rect x="529.9386503067485" y="234" height="9" width="230.06134969325154" fill="#009CA2" stroke="#009CA2" stroke-width="0" opacity="0.9" />
<rect x="529.9386503067485" y="235.62" height="3" width="230.06134969325154" fill="#F4EDF2" opacity="0.25" />
<path d="M 760 234 C 764.5 234, 764.5 243, 760 243" fill="#009CA2" opacity="0.9" />
<path d="M 10 245 C 5.5 245, 5.5 254, 10 254" fill="#009CA2" opacity="0.9" />
<rect x="10" y="245" height="9" width="230.06134969325154" fill="#009CA2" stroke="#009CA2" stroke-width="0" opacity="0.9" />
<rect x="10" y="246.62" height="3" width="230.06134969325154" fill="#F4EDF2" opacity="0.25" />
<rect x="240.06134969325154" y="245" height="9" width="276.07361963190186" fill="#1383C6" stroke="#1383C6" stroke-width="0" opacity="0.9" />
<rect x="240.06134969325154" y="246.62" height="3" width="276.07361963190186" fill="#F4EDF2" opacity="0.25" />
<line x1="516.1349693251534" y1="249.5" x2="529.9386503067485" y2="249.5" stroke="#BABABA" stroke-width="1.5" />
<rect x="529.9386503067485" y="245" height="9" width="230.06134969325154" fill="#009CA2" stroke="#009CA2" stroke-width="0" opacity="0.9" />
<rect x="529.9386503067485" y="246.62" height="3" width="230.06134969325154" fill="#F4EDF2" opacity="0.25" />
<path d="M 760 245 C 764.5 245, 764.5 254, 760 254" fill="#009CA2" opacity="0.9" />
<path d="M 10 256 C 5.5 256, 5.5 265, 10 265" fill="#009CA2" opacity="0.9" />
<rect x="10" y="256" height="9" width="230.06134969325154" fill="#009CA2" stroke="#009CA2" stroke-width="0" opacity="0.9" />
<rect x="10" y="257.62" height="3" width="230.06134969325154" fill="#F4EDF2" opacity="0.25" />
<rect x="240.06134969325154" y="256" height="9" width="276.07361963190186" fill="#1383C6" stroke="#1383C6" stroke-width="0" opacity="0.9" />
<rect x="240.06134969325154" y="257.62" height="3" width="276.07361963190186" fill="#F4EDF2" opacity="0.25" />
<line x1="516.1349693251534" y1="260.5" x2="529.9386503067485" y2="260.5" stroke="#BABABA" stroke-width="1.5" />
<rect x="529.9386503067485" y="256" height="9" width="230.06134969325154" fill="#009CA2" stroke="#009CA2" stroke-width="0" opacity="0.9" />
<rect x="529.9386503067485" y="257.62" height="3" width="230.06134969325154" fill="#F4EDF2" opacity="0.25" />
<path d="M 760 256 C 764.5 256, 764.5 265, 760 265" fill="#009CA2" opacity="0.9" />
<path d="M 10 267 C 5.5 267, 5.5 276, 10 276" fill="#009CA2" opacity="0.9" />
<rect x="10" y="267" height="9" width="230.06134969325154" fill="#009CA2" stroke="#009CA2" stroke-width="0" opacity="0.9" />
<rect x="10" y="268.62" height="3" width="230.06134969325154" fill="#F4EDF2" opacity="0.25" />
<rect x="240.06134969325154" y="267" height="9" width="276.07361963190186" fill="#1383C6" stroke="#1383C6" stroke-width="0" opacity="0.9" />
<rect x="240.06134969325154" y="268.62" height="3" width="276.07361963190186" fill="#F4EDF2" opacity="0.25" />
<line x1="516.1349693251534" y1="271.5" x2="529.9386503067485" y2="271.5" stroke="#BABABA" stroke-width="1.5" />
<rect x="529.9386503067485" y="267" height="9" width="230.06134969325154" fill="#009CA2" stroke="#009CA2" stroke-width="0" opacity="0.9" />
<rect x="529.9386503067485" y="268.62" height="3" width="230.06134969325154" fill="#F4EDF2" opacity="0.25" />
<path d="M 760 267 C 764.5 267, 764.5 276, 760 276" fill="#009CA2" opacity="0.9" />
<path d="M 10 278 C 5.5 278, 5.5 287, 10 287" fill="#009CA2" opacity="0.9" />
<rect x="10" y="278" height="9" width="230.06134969325154" fill="#009CA2" stroke="#009CA2" stroke-width="0" opacity="0.9" />
<rect x="10" y="279.62" height="3" width="230.06134969325154" fill="#F4EDF2" opacity="0.25" />
<rect x="240.06134969325154" y="278" height="9" width="276.07361963190186" fill="#1383C6" stroke="#1383C6" stroke-width="0" opacity="0.9" />
<rect x="240.06134969325154" y="279.62" height="3" width="276.07361963190186" fill="#F4EDF2" opacity="0.25" />
<line x1="516.1349693251534" y1="282.5" x2="529.9386503067485" y2="282.5" stroke="#BABABA" stroke-width="1.5" />
<rect x="529.9386503067485" y="278" height="9" width="230.06134969325154" fill="#009CA2" stroke="#009CA2" stroke-width="0" opacity="0.9" />
<rect x="529.9386503067485" y="279.62" height="3" width="230.06134969325154" fill="#F4EDF2" opacity="0.25" />
<path d="M 760 278 C 764.5 278, 764.5 287, 760 287" fill="#009CA2" opacity="0.9" />
<path d="M 10 289 C 5.5 289, 5.5 298, 10 298" fill="#009CA2" opacity="0.9" />
<rect x="10" y="289" height="9" width="230.06134969325154" fill="#009CA2" stroke="#009CA2" stroke-width="0" opacity="0.9" />
<rect x="10" y="290.62" height="3" width="230.06134969325154" fill="#F4EDF2" opacity="0.25" />
<rect x="240.06134969325154" y="289" height="9" width="276.07361963190186" fill="#1383C6" stroke="#1383C6" stroke-width="0" opacity="0.9" />
<rect x="240.06134969325154" y="290.62" height="3" width="276.07361963190186" fill="#F4EDF2" opacity="0.25" />
<line x1="516.1349693251534" y1="293.5" x2="529.9386503067485" y2="293.5" stroke="#BABABA" stroke-width="1.5" />
<rect x="529.9386503067485" y="289" height="9" width="230.06134969325154" fill="#009CA2" stroke="#009CA2" stroke-width="0" opacity="0.9" />
<rect x="529.9386503067485" y="290.62" height="3" width="230.06134969325154" fill="#F4EDF2" opacity="0.25" />
<path d="M 760 289 C 764.5 289, 764.5 298, 760 298" fill="#009CA2" opacity="0.9" />
<path d="M 10 300 C 5.5 300, 5.5 309, 10 309" fill="#009CA2" opacity="0.9" />
<rect x="10" y="300" height="9" width="105.8282208588957" fill="#009CA2" stroke="#009CA2" stroke-width="0" opacity="0.9" />
<rect x="10" y="301.62" height="3" width="105.8282208588957" fill="#F4EDF2" opacity="0.25" />
<line x1="115.8282208588957" y1="304.5" x2="120.42944785276073" y2="304.5" stroke="#009CA2" stroke-width="1.5" />
<rect x="120.42944785276073" y="300" height="9" width="119.6319018404908" fill="#009CA2" stroke="#009CA2" stroke-width="0" opacity="0.9" />
<rect x="120.42944785276073" y="301.62" height="3" width="119.6319018404908" fill="#F4EDF2" opacity="0.25" />
<rect x="240.06134969325154" y="300" height="9" width="276.07361963190186" fill="#1383C6" stroke="#1383C6" stroke-width="0" opacity="0.9" />
<rect x="240.06134969325154" y="301.62" height="3" width="276.07361963190186" fill="#F4EDF2" opacity="0.25" />
<line x1="516.1349693251534" y1="304.5" x2="529.9386503067485" y2="304.5" stroke="#BABABA" stroke-width="1.5" />
<rect x="529.9386503067485" y="300" height="9" width="230.06134969325154" fill="#009CA2" stroke="#009CA2" stroke-width="0" opacity="0.9" />
<rect x="529.9386503067485" y="301.62" height="3" width="230.06134969325154" fill="#F4EDF2" opacity="0.25" />
<path d="M 760 300 C 764.5 300, 764.5 309, 760 309" fill="#009CA2" opacity="0.9" />
<line x1="10" y1="300" x2="10" y2="309" stroke="#000000" stroke-width="2" />
<path d="M 10 311 C 5.5 311, 5.5 320, 10 320" fill="#009CA2" opacity="0.9" />
<rect x="10" y="311" height="9" width="230.06134969325154" fill="#009CA2" stroke="#009CA2" stroke-width="0" opacity="0.9" />
<rect x="10" y="312.62" height="3" width="230.06134969325154" fill="#F4EDF2" opacity="0.25" />
<rect x="240.06134969325154" y="311" height="9" width="276.07361963190186" fill="#1383C6" stroke="#1383C6" stroke-width="0" opacity="0.9" />
<rect x="240.06134969325154" y="312.62" height="3" width="276.07361963190186" fill="#F4EDF2" opacity="0.25" />
<line x1="516.1349693251534" y1="315.5" x2="529.9386503067485" y2="315.5" stroke="#BABABA" stroke-width="1.5" />
<rect x="529.9386503067485" y="311" height="9" width="230.06134969325154" fill="#009CA2" stroke="#009CA2" stroke-width="0" opacity="0.9" />
<rect x="529.9386503067485" y="312.62" height="3" width="230.06134969325154" fill="#F4EDF2" opacity="0.25" />
<path d="M 760 311 C 764.5 311, 764.5 320, 760 320" fill="#009CA2" opacity="0.9" />
<path d="M 10 322 C 5.5 322, 5.5 331, 10 331" fill="#009CA2" opacity="0.9" />
<rect x="10" y="322" height="9" width="230.06134969325154" fill="#009CA2" stroke="#009CA2" stroke-width="0" opacity="0.9" />
<rect x="10" y="323.62" height="3" width="230.06134969325154" fill="#F4EDF2" opacity="0.25" />
<rect x="240.06134969325154" y="322" height="9" width="276.07361963190186" fill="#1383C6" stroke="#1383C6" stroke-width="0" opacity="0.9" />
<rect x="240.06134969325154" y="323.62" height="3" width="276.07361963190186" fill="#F4EDF2" opacity="0.25" />
<line x1="516.1349693251534" y1="326.5" x2="529.9386503067485" y2="326.5" stroke="#BABABA" stroke-width="1.5" />
<rect x="529.9386503067485" y="322" height="9" width="230.06134969325154" fill="#009CA2" stroke="#009CA2" stroke-width="0" opacity="0.9" />
<rect x="529.9386503067485" y="323.62" height="3" width="230.06134969325154" fill="#F4EDF2" opacity="0.25" />
<path d="M 760 322 C 764.5 322, 764.5 331, 760 331" fill="#009CA2" opacity="0.9" />
<path d="M 10 333 C 5.5 333, 5.5 342, 10 342" fill="#009CA2" opacity="0.9" />
<rect x="10" y="333" height="9" width="230.06134969325154" fill="#009CA2" stroke="#009CA2" stroke-width="0" opacity="0.9" />
<rect x="10" y="334.62" height="3" width="230.06134969325154" fill="#F4EDF2" opacity="0.25" />
<rect x="240.06134969325154" y="333" height="9" width="27.607361963190186" fill="#1383C6" stroke="#1383C6" stroke-width="0" opacity="0.9" />
<rect x="240.06134969325154" y="334.62" height="3" width="27.607361963190186" fill="#F4EDF2" opacity="0.25" />
<rect x="267.6687116564417" y="333" height="9" width="59.8159509202454" fill="#D1D1D1" stroke="#D1D1D1" stroke-width="0" opacity="0.9" />
<rect x="267.6687116564417" y="334.62" height="3" width="59.8159509202454" fill="#F4EDF2" opacity="0.25" />
<rect x="327.4846625766871" y="333" height="9" width="193.2515337423313" fill="#1383C6" stroke="#1383C6" stroke-width="0" opacity="0.9" />
<rect x="327.4846625766871" y="334.62" height="3" width="193.2515337423313" fill="#F4EDF2" opacity="0.25" />
<line x1="520.7361963190184" y1="337.5" x2="529.9386503067485" y2="337.5" stroke="#BABABA" stroke-width="1.5" />
<rect x="529.9386503067485" y="333" height="9" width="230.06134969325154" fill="#009CA2" stroke="#009CA2" stroke-width="0" opacity="0.9" />
<rect x="529.9386503067485" y="334.62" height="3" width="230.06134969325154" fill="#F4EDF2" opacity="0.25" />
<path d="M 760 333 C 764.5 333, 764.5 342, 760 342" fill="#009CA2" opacity="0.9" />
<path d="M 10 344 C 5.5 344, 5.5 353, 10 353" fill="#009CA2" opacity="0.9" />
<rect x="10" y="344" height="9" width="230.06134969325154" fill="#009CA2" stroke="#009CA2" stroke-width="0" opacity="0.9" />
<rect x="10" y="345.62" height="3" width="230.06134969325154" fill="#F4EDF2" opacity="0.25" />
<rect x="240.06134969325154" y="344" height="9" width="55.21472392638037" fill="#1383C6" stroke="#1383C6" stroke-width="0" opacity="0.9" />
<rect x="240.06134969325154" y="345.62" height="3" width="55.21472392638037" fill="#F4EDF2" opacity="0.25" />
<rect x="295.2760736196319" y="344" height="9" width="4.601226993865031" fill="#D1D1D1" stroke="#D1D1D1" stroke-width="0" opacity="0.9" />
<rect x="295.2760736196319" y="345.62" height="3" width="4.601226993865031" fill="#F4EDF2" opacity="0.25" />
<rect x="299.87730061349697" y="344" height="9" width="220.8588957055215" fill="#1383C6" stroke="#1383C6" stroke-width="0" opacity="0.9" />
<rect x="299.87730061349697" y="345.62" height="3" width="220.8588957055215" fill="#F4EDF2" opacity="0.25" />
<rect x="520.7361963190185" y="344" height="9" width="4.601226993865031" fill="#D1D1D1" stroke="#D1D1D1" stroke-width="0" opacity="0.9" />
<rect x="520.7361963190185" y="345.62" height="3" width="4.601226993865031" fill="#F4EDF2" opacity="0.25" />
<line x1="525.3374233128835" y1="348.5" x2="529.9386503067485" y2="348.5" stroke="#BABABA" stroke-width="1.5" />
<rect x="529.9386503067485" y="344" height="9" width="230.06134969325154" fill="#009CA2" stroke="#009CA2" stroke-width="0" opacity="0.9" />
<rect x="529.9386503067485" y="345.62" height="3" width="230.06134969325154" fill="#F4EDF2" opacity="0.25" />
<path d="M 760 344 C 764.5 344, 764.5 353, 760 353" fill="#009CA2" opacity="0.9" />
<path d="M 10 355 C 5.5 355, 5.5 364, 10 364" fill="#009CA2" opacity="0.9" />
<rect x="10" y="355" height="9" width="230.06134969325154" fill="#009CA2" stroke="#009CA2" stroke-width="0" opacity="0.9" />
<rect x="10" y="356.62" height="3" width="230.06134969325154" fill="#F4EDF2" opacity="0.25" />
<rect x="240.06134969325154" y="355" height="9" width="82.82208588957056" fill="#1383C6" stroke="#1383C6" stroke-width="0" opacity="0.9" />
<rect x="240.06134969325154" y="356.62" height="3" width="82.82208588957056" fill="#F4EDF2" opacity="0.25" />
<rect x="322.88343558282213" y="355" height="9" width="41.41104294478528" fill="#D1D1D1" stroke="#D1D1D1" stroke-width="0" opacity="0.9" />
<rect x="322.88343558282213" y="356.62" height="3" width="41.41104294478528" fill="#F4EDF2" opacity="0.25" />
<rect x="364.2944785276074" y="355" height="9" width="165.64417177914112" fill="#1383C6" stroke="#1383C6" stroke-width="0" opacity="0.9" />
<rect x="364.2944785276074" y="356.62" height="3" width="165.64417177914112" fill="#F4EDF2" opacity="0.25" />
<rect x="529.9386503067485" y="355" height="9" width="230.06134969325154" fill="#009CA2" stroke="#009CA2" stroke-width="0" opacity="0.9" />
<rect x="529.9386503067485" y="356.62" height="3" width="230.06134969325154" fill="#F4EDF2" opacity="0.25" />
<path d="M 760 355 C 764.5 355, 764.5 364, 760 364" fill="#009CA2" opacity="0.9" />
<rect x="10" y="370" height="12" width="12" fill="#1383C6" stroke="#1383C6" stroke-width="0" opacity="0.9" />
<text x="24" y="381" font-family="monospace" font-weight="bold" font-size="14px" >GGCCCC</text>
</svg>
