<?xml version="1.0"?>
<svg xmlns="http://www.w3.org/2000/svg" xmlns:xlink="http://www.w3.org/1999/xlink" width="770" height="430">
<rect width="100%" height="100%" fill="white"/>
<path d="M 10 14 C 5.5 14, 5.5 23, 10 23" fill="#009CA2" opacity="0.9" />
<rect x="10" y="14" height="9" width="234.375" fill="#009CA2" stroke="#009CA2" stroke-width="0" opacity="0.9" />
<rect x="10" y="15.62" height="3" width="234.375" fill="#F4EDF2" opacity="0.25" />
<rect x="244.375" y="14" height="9" width="140.625" fill="#1383C6" stroke="#1383C6" stroke-width="0" opacity="0.9" />
<rect x="244.375" y="15.62" height="3" width="140.625" fill="#F4EDF2" opacity="0.25" />
<rect x="385" y="14" height="9" width="234.375" fill="#009CA2" stroke="#009CA2" stroke-width="0" opacity="0.9" />
<rect x="385" y="15.62" height="3" width="234.375" fill="#F4EDF2" opacity="0.25" />
<path d="M 619.375 14 C 623.875 14, 623.875 23, 619.375 23" fill="#009CA2" opacity="0.9" />
<line x1="244.375" y1="14" x2="244.375" y2="23" stroke="#000000" stroke-width="1.5" />
<line x1="385" y1="14" x2="385" y2="23" stroke="#000000" stroke-width="1.5" />
<line x1="10" y1="14" x2="619.375" y2="14" stroke="#000000" stroke-width="1.5" />
<line x1="10" y1="23" x2="619.375" y2="23" stroke="#000000" stroke-width="1.5" />
<path d="M 10 14 C 5.5 14, 5.5 23, 10 23" stroke="#000000" stroke-width="1.5" fill="none" opacity="0.9" />
<path d="M 619.375 14 C 623.875 14, 623.875 23, 619.375 23" stroke="#000000" stroke-width="1.5" fill="none" opacity="0.9" />
<line x1="244.375" y1="11.75" x2="244.375" y2="16.25" stroke="#000000" stroke-width="1.5" />
<text x="244.375" y="9.75" font-family="monospace" font-weight="bold" text-anchor="middle" font-size="10px" >0</text>
<line x1="272.5" y1="11.75" x2="272.5" y2="16.25" stroke="#000000" stroke-width="1.5" />
<line x1="300.625" y1="11.75" x2="300.625" y2="16.25" stroke="#000000" stroke-width="1.5" />
<line x1="328.75" y1="11.75" x2="328.75" y2="16.25" stroke="#000000" stroke-width="1.5" />
<line x1="356.875" y1="11.75" x2="356.875" y2="16.25" stroke="#000000" stroke-width="1.5" />
<path d="M 10 26 C 5.5 26, 5.5 35, 10 35" fill="#009CA2" opacity="0.9" />
<line x1="10" y1="30.5" x2="19.375" y2="30.5" stroke="#009CA2" stroke-width="1.5" />
<rect x="19.375" y="26" height="9" width="79.6875" fill="#009CA2" stroke="#009CA2" stroke-width="0" opacity="0.9" />
<rect x="19.375" y="27.62" height="3" width="79.6875" fill="#F4EDF2" opacity="0.25" />
<rect x="99.0625" y="26" height="9" width="145.3125" fill="#009CA2" stroke="#009CA2" stroke-width="0" opacity="0.9" />
<rect x="99.0625" y="27.62" height="3" width="145.3125" fill="#F4EDF2" opacity="0.25" />
<rect x="244.375" y="26" height="9" width="65.625" fill="#1383C6" stroke="#1383C6" stroke-width="0" opacity="0.9" />
<rect x="244.375" y="27.62" height="3" width="65.625" fill="#F4EDF2" opacity="0.25" />
<rect x="310" y="26" height="9" width="14.0625" fill="#1383C6" stroke="#1383C6" stroke-width="0" opacity="0.9" />
<rect x="310" y="27.62" height="3" width="14.0625" fill="#F4EDF2" opacity="0.25" />
<rect x="324.0625" y="26" height="9" width="4.6875" fill="#BABABA" stroke="#BABABA" stroke-width="0" opacity="0.9" />
<rect x="324.0625" y="27.62" height="3" width="4.6875" fill="#F4EDF2" opacity="0.25" />
<rect x="328.75" y="26" height="9" width="56.25" fill="#1383C6" stroke="#1383C6" stroke-width="0" opacity="0.9" />
<rect x="328.75" y="27.62" height="3" width="56.25" fill="#F4EDF2" opacity="0.25" />
<rect x="385" y="26" height="9" width="234.375" fill="#009CA2" stroke="#009CA2" stroke-width="0" opacity="0.9" />
<rect x="385" y="27.62" height="3" width="234.375" fill="#F4EDF2" opacity="0.25" />
<path d="M 619.375 26 C 623.875 26, 623.875 35, 619.375 35" fill="#009CA2" opacity="0.9" />
<line x1="99.0625" y1="26" x2="99.0625" y2="35" stroke="#000000" stroke-width="2" />
<line x1="310" y1="26" x2="310" y2="35" stroke="#000000" stroke-width="2" />
<path d="M 10 37 C 5.5 37, 5.5 46, 10 46" fill="#009CA2" opacity="0.9" />
<rect x="10" y="37" height="9" width="234.375" fill="#009CA2" stroke="#009CA2" stroke-width="0" opacity="0.9" />
<rect x="10" y="38.62" height="3" width="234.375" fill="#F4EDF2" opacity="0.25" />
<rect x="244.375" y="37" height="9" width="140.625" fill="#1383C6" stroke="#1383C6" stroke-width="0" opacity="0.9" />
<rect x="244.375" y="38.62" height="3" width="140.625" fill="#F4EDF2" opacity="0.25" />
<rect x="385" y="37" height="9" width="234.375" fill="#009CA2" stroke="#009CA2" stroke-width="0" opacity="0.9" />
<rect x="385" y="38.62" height="3" width="234.375" fill="#F4EDF2" opacity="0.25" />
<path d="M 619.375 37 C 623.875 37, 623.875 46, 619.375 46" fill="#009CA2" opacity="0.9" />
<path d="M 10 48 C 5.5 48, 5.5 57, 10 57" fill="#009CA2" opacity="0.9" />
<rect x="10" y="48" height="9" width="234.375" fill="#009CA2" stroke="#009CA2" stroke-width="0" opacity="0.9" />
<rect x="10" y="49.62" height="3" width="234.375" fill="#F4EDF2" opacity="0.25" />
<rect x="244.375" y="48" height="9" width="140.625" fill="#1383C6" stroke="#1383C6" stroke-width="0" opacity="0.9" />
<rect x="244.375" y="49.62" height="3" width="140.625" fill="#F4EDF2" opacity="0.25" />
<rect x="385" y="48" height="9" width="234.375" fill="#009CA2" stroke="#009CA2" stroke-width="0" opacity="0.9" />
<rect x="385" y="49.62" height="3" width="234.375" fill="#F4EDF2" opacity="0.25" />
<path d="M 619.375 48 C 623.875 48, 623.875 57, 619.375 57" fill="#009CA2" opacity="0.9" />
<path d="M 10 59 C 5.5 59, 5.5 68, 10 68" fill="#009CA2" opacity="0.9" />
<rect x="10" y="59" height="9" width="234.375" fill="#009CA2" stroke="#009CA2" stroke-width="0" opacity="0.9" />
<rect x="10" y="60.62" height="3" width="234.375" fill="#F4EDF2" opacity="0.25" />
<rect x="244.375" y="59" height="9" width="140.625" fill="#1383C6" stroke="#1383C6" stroke-width="0" opacity="0.9" />
<rect x="244.375" y="60.62" height="3" width="140.625" fill="#F4EDF2" opacity="0.25" />
<rect x="385" y="59" height="9" width="234.375" fill="#009CA2" stroke="#009CA2" stroke-width="0" opacity="0.9" />
<rect x="385" y="60.62" height="3" width="234.375" fill="#F4EDF2" opacity="0.25" />
<path d="M 619.375 59 C 623.875 59, 623.875 68, 619.375 68" fill="#009CA2" opacity="0.9" />
<path d="M 10 70 C 5.5 70, 5.5 79, 10 79" fill="#009CA2" opacity="0.9" />
<rect x="10" y="70" height="9" width="234.375" fill="#009CA2" stroke="#009CA2" stroke-width="0" opacity="0.9" />
<rect x="10" y="71.62" height="3" width="234.375" fill="#F4EDF2" opacity="0.25" />
<rect x="244.375" y="70" height="9" width="140.625" fill="#1383C6" stroke="#1383C6" stroke-width="0" opacity="0.9" />
<rect x="244.375" y="71.62" height="3" width="140.625" fill="#F4EDF2" opacity="0.25" />
<rect x="385" y="70" height="9" width="234.375" fill="#009CA2" stroke="#009CA2" stroke-width="0" opacity="0.9" />
<rect x="385" y="71.62" height="3" width="234.375" fill="#F4EDF2" opacity="0.25" />
<path d="M 619.375 70 C 623.875 70, 623.875 79, 619.375 79" fill="#009CA2" opacity="0.9" />
<path d="M 10 81 C 5.5 81, 5.5 90, 10 90" fill="#009CA2" opacity="0.9" />
<rect x="10" y="81" height="9" width="234.375" fill="#009CA2" stroke="#009CA2" stroke-width="0" opacity="0.9" />
<rect x="10" y="82.62" height="3" width="234.375" fill="#F4EDF2" opacity="0.25" />
<rect x="244.375" y="81" height="9" width="140.625" fill="#1383C6" stroke="#1383C6" stroke-width="0" opacity="0.9" />
<rect x="244.375" y="82.62" height="3" width="140.625" fill="#F4EDF2" opacity="0.25" />
<rect x="385" y="81" height="9" width="234.375" fill="#009CA2" stroke="#009CA2" stroke-width="0" opacity="0.9" />
<rect x="385" y="82.62" height="3" width="234.375" fill="#F4EDF2" opacity="0.25" />
<path d="M 619.375 81 C 623.875 81, 623.875 90, 619.375 90" fill="#009CA2" opacity="0.9" />
<path d="M 10 92 C 5.5 92, 5.5 101, 10 101" fill="#009CA2" opacity="0.9" />
<rect x="10" y="92" height="9" width="234.375" fill="#009CA2" stroke="#009CA2" stroke-width="0" opacity="0.9" />
<rect x="10" y="93.62" height="3" width="234.375" fill="#F4EDF2" opacity="0.25" />
<rect x="244.375" y="92" height="9" width="140.625" fill="#1383C6" stroke="#1383C6" stroke-width="0" opacity="0.9" />
<rect x="244.375" y="93.62" height="3" width="140.625" fill="#F4EDF2" opacity="0.25" />
<rect x="385" y="92" height="9" width="234.375" fill="#009CA2" stroke="#009CA2" stroke-width="0" opacity="0.9" />
<rect x="385" y="93.62" height="3" width="234.375" fill="#F4EDF2" opacity="0.25" />
<path d="M 619.375 92 C 623.875 92, 623.875 101, 619.375 101" fill="#009CA2" opacity="0.9" />
<path d="M 10 103 C 5.5 103, 5.5 112, 10 112" fill="#009CA2" opacity="0.9" />
<rect x="10" y="103" height="9" width="131.25" fill="#009CA2" stroke="#009CA2" stroke-width="0" opacity="0.9" />
<rect x="10" y="104.62" height="3" width="131.25" fill="#F4EDF2" opacity="0.25" />
<line x1="141.25" y1="107.5" x2="145.9375" y2="107.5" stroke="#009CA2" stroke-width="1.5" />
<rect x="145.9375" y="103" height="9" width="98.4375" fill="#009CA2" stroke="#009CA2" stroke-width="0" opacity="0.9" />
<rect x="145.9375" y="104.62" height="3" width="98.4375" fill="#F4EDF2" opacity="0.25" />
<rect x="244.375" y="103" height="9" width="56.25" fill="#1383C6" stroke="#1383C6" stroke-width="0" opacity="0.9" />
<rect x="244.375" y="104.62" height="3" width="56.25" fill="#F4EDF2" opacity="0.25" />
<rect x="300.625" y="103" height="9" width="84.375" fill="#1383C6" stroke="#1383C6" stroke-width="0" opacity="0.9" />
<rect x="300.625" y="104.62" height="3" width="84.375" fill="#F4EDF2" opacity="0.25" />
<rect x="385" y="103" height="9" width="79.6875" fill="#009CA2" stroke="#009CA2" stroke-width="0" opacity="0.9" />
<rect x="385" y="104.62" height="3" width="79.6875" fill="#F4EDF2" opacity="0.25" />
<rect x="464.6875" y="103" height="9" width="150" fill="#009CA2" stroke="#009CA2" stroke-width="0" opacity="0.9" />
<rect x="464.6875" y="104.62" height="3" width="150" fill="#F4EDF2" opacity="0.25" />
<line x1="614.6875" y1="107.5" x2="619.375" y2="107.5" stroke="#009CA2" stroke-width="1.5" />
<path d="M 619.375 103 C 623.875 103, 623.875 112, 619.375 112" fill="#009CA2" opacity="0.9" />
<line x1="10" y1="103" x2="10" y2="112" stroke="#000000" stroke-width="2" />
<line x1="300.625" y1="103" x2="300.625" y2="112" stroke="#000000" stroke-width="2" />
<line x1="464.6875" y1="103" x2="464.6875" y2="112" stroke="#000000" stroke-width="2" />
<path d="M 10 114 C 5.5 114, 5.5 123, 10 123" fill="#009CA2" opacity="0.9" />
<rect x="10" y="114" height="9" width="234.375" fill="#009CA2" stroke="#009CA2" stroke-width="0" opacity="0.9" />
<rect x="10" y="115.62" height="3" width="234.375" fill="#F4EDF2" opacity="0.25" />
<rect x="244.375" y="114" height="9" width="140.625" fill="#1383C6" stroke="#1383C6" stroke-width="0" opacity="0.9" />
<rect x="244.375" y="115.62" height="3" width="140.625" fill="#F4EDF2" opacity="0.25" />
<rect x="385" y="114" height="9" width="234.375" fill="#009CA2" stroke="#009CA2" stroke-width="0" opacity="0.9" />
<rect x="385" y="115.62" height="3" width="234.375" fill="#F4EDF2" opacity="0.25" />
<path d="M 619.375 114 C 623.875 114, 623.875 123, 619.375 123" fill="#009CA2" opacity="0.9" />
<path d="M 10 125 C 5.5 125, 5.5 134, 10 134" fill="#009CA2" opacity="0.9" />
<rect x="10" y="125" height="9" width="210.9375" fill="#009CA2" stroke="#009CA2" stroke-width="0" opacity="0.9" />
<rect x="10" y="126.62" height="3" width="210.9375" fill="#F4EDF2" opacity="0.25" />
<rect x="220.9375" y="125" height="9" width="23.4375" fill="#009CA2" stroke="#009CA2" stroke-width="0" opacity="0.9" />
<rect x="220.9375" y="126.62" height="3" width="23.4375" fill="#F4EDF2" opacity="0.25" />
<rect x="244.375" y="125" height="9" width="140.625" fill="#1383C6" stroke="#1383C6" stroke-width="0" opacity="0.9" />
<rect x="244.375" y="126.62" height="3" width="140.625" fill="#F4EDF2" opacity="0.25" />
<rect x="385" y="125" height="9" width="234.375" fill="#009CA2" stroke="#009CA2" stroke-width="0" opacity="0.9" />
<rect x="385" y="126.62" height="3" width="234.375" fill="#F4EDF2" opacity="0.25" />
<path d="M 619.375 125 C 623.875 125, 623.875 134, 619.375 134" fill="#009CA2" opacity="0.9" />
<line x1="220.9375" y1="125" x2="220.9375" y2="134" stroke="#000000" stroke-width="2" />
<path d="M 10 136 C 5.5 136, 5.5 145, 10 145" fill="#009CA2" opacity="0.9" />
<rect x="10" y="136" height="9" width="234.375" fill="#009CA2" stroke="#009CA2" stroke-width="0" opacity="0.9" />
<rect x="10" y="137.62" height="3" width="234.375" fill="#F4EDF2" opacity="0.25" />
<rect x="244.375" y="136" height="9" width="140.625" fill="#1383C6" stroke="#1383C6" stroke-width="0" opacity="0.9" />
<rect x="244.375" y="137.62" height="3" width="140.625" fill="#F4EDF2" opacity="0.25" />
<rect x="385" y="136" height="9" width="234.375" fill="#009CA2" stroke="#009CA2" stroke-width="0" opacity="0.9" />
<rect x="385" y="137.62" height="3" width="234.375" fill="#F4EDF2" opacity="0.25" />
<path d="M 619.375 136 C 623.875 136, 623.875 145, 619.375 145" fill="#009CA2" opacity="0.9" />
<path d="M 10 147 C 5.5 147, 5.5 156, 10 156" fill="#009CA2" opacity="0.9" />
<rect x="10" y="147" height="9" width="234.375" fill="#009CA2" stroke="#009CA2" stroke-width="0" opacity="0.9" />
<rect x="10" y="148.62" height="3" width="234.375" fill="#F4EDF2" opacity="0.25" />
<rect x="244.375" y="147" height="9" width="140.625" fill="#1383C6" stroke="#1383C6" stroke-width="0" opacity="0.9" />
<rect x="244.375" y="148.62" height="3" width="140.625" fill="#F4EDF2" opacity="0.25" />
<rect x="385" y="147" height="9" width="234.375" fill="#009CA2" stroke="#009CA2" stroke-width="0" opacity="0.9" />
<rect x="385" y="148.62" height="3" width="234.375" fill="#F4EDF2" opacity="0.25" />
<path d="M 619.375 147 C 623.875 147, 623.875 156, 619.375 156" fill="#009CA2" opacity="0.9" />
<path d="M 10 158 C 5.5 158, 5.5 167, 10 167" fill="#009CA2" opacity="0.9" />
<rect x="10" y="158" height="9" width="234.375" fill="#009CA2" stroke="#009CA2" stroke-width="0" opacity="0.9" />
<rect x="10" y="159.62" height="3" width="234.375" fill="#F4EDF2" opacity="0.25" />
<rect x="244.375" y="158" height="9" width="140.625" fill="#1383C6" stroke="#1383C6" stroke-width="0" opacity="0.9" />
<rect x="244.375" y="159.62" height="3" width="140.625" fill="#F4EDF2" opacity="0.25" />
<rect x="385" y="158" height="9" width="234.375" fill="#009CA2" stroke="#009CA2" stroke-width="0" opacity="0.9" />
<rect x="385" y="159.62" height="3" width="234.375" fill="#F4EDF2" opacity="0.25" />
<path d="M 619.375 158 C 623.875 158, 623.875 167, 619.375 167" fill="#009CA2" opacity="0.9" />
<path d="M 10 169 C 5.5 169, 5.5 178, 10 178" fill="#009CA2" opacity="0.9" />
<rect x="10" y="169" height="9" width="234.375" fill="#009CA2" stroke="#009CA2" stroke-width="0" opacity="0.9" />
<rect x="10" y="170.62" height="3" width="234.375" fill="#F4EDF2" opacity="0.25" />
<rect x="244.375" y="169" height="9" width="140.625" fill="#1383C6" stroke="#1383C6" stroke-width="0" opacity="0.9" />
<rect x="244.375" y="170.62" height="3" width="140.625" fill="#F4EDF2" opacity="0.25" />
<rect x="385" y="169" height="9" width="234.375" fill="#009CA2" stroke="#009CA2" stroke-width="0" opacity="0.9" />
<rect x="385" y="170.62" height="3" width="234.375" fill="#F4EDF2" opacity="0.25" />
<path d="M 619.375 169 C 623.875 169, 623.875 178, 619.375 178" fill="#009CA2" opacity="0.9" />
<path d="M 10 180 C 5.5 180, 5.5 189, 10 189" fill="#009CA2" opacity="0.9" />
<rect x="10" y="180" height="9" width="234.375" fill="#009CA2" stroke="#009CA2" stroke-width="0" opacity="0.9" />
<rect x="10" y="181.62" height="3" width="234.375" fill="#F4EDF2" opacity="0.25" />
<rect x="244.375" y="180" height="9" width="140.625" fill="#1383C6" stroke="#1383C6" stroke-width="0" opacity="0.9" />
<rect x="244.375" y="181.62" height="3" width="140.625" fill="#F4EDF2" opacity="0.25" />
<rect x="385" y="180" height="9" width="234.375" fill="#009CA2" stroke="#009CA2" stroke-width="0" opacity="0.9" />
<rect x="385" y="181.62" height="3" width="234.375" fill="#F4EDF2" opacity="0.25" />
<path d="M 619.375 180 C 623.875 180, 623.875 189, 619.375 189" fill="#009CA2" opacity="0.9" />
<path d="M 10 191 C 5.5 191, 5.5 200, 10 200" fill="#009CA2" opacity="0.9" />
<rect x="10" y="191" height="9" width="210.9375" fill="#009CA2" stroke="#009CA2" stroke-width="0" opacity="0.9" />
<rect x="10" y="192.62" height="3" width="210.9375" fill="#F4EDF2" opacity="0.25" />
<rect x="220.9375" y="191" height="9" width="23.4375" fill="#009CA2" stroke="#009CA2" stroke-width="0" opacity="0.9" />
<rect x="220.9375" y="192.62" height="3" width="23.4375" fill="#F4EDF2" opacity="0.25" />
<rect x="244.375" y="191" height="9" width="140.625" fill="#1383C6" stroke="#1383C6" stroke-width="0" opacity="0.9" />
<rect x="244.375" y="192.62" height="3" width="140.625" fill="#F4EDF2" opacity="0.25" />
<rect x="385" y="191" height="9" width="234.375" fill="#009CA2" stroke="#009CA2" stroke-width="0" opacity="0.9" />
<rect x="385" y="192.62" height="3" width="234.375" fill="#F4EDF2" opacity="0.25" />
<path d="M 619.375 191 C 623.875 191, 623.875 200, 619.375 200" fill="#009CA2" opacity="0.9" />
<line x1="220.9375" y1="191" x2="220.9375" y2="200" stroke="#000000" stroke-width="2" />
<path d="M 10 202 C 5.5 202, 5.5 211, 10 211" fill="#009CA2" opacity="0.9" />
<rect x="10" y="202" height="9" width="201.5625" fill="#009CA2" stroke="#009CA2" stroke-width="0" opacity="0.9" />
<rect x="10" y="203.62" height="3" width="201.5625" fill="#F4EDF2" opacity="0.25" />
<rect x="211.5625" y="202" height="9" width="32.8125" fill="#009CA2" stroke="#009CA2" stroke-width="0" opacity="0.9" />
<rect x="211.5625" y="203.62" height="3" width="32.8125" fill="#F4EDF2" opacity="0.25" />
<rect x="244.375" y="202" height="9" width="140.625" fill="#1383C6" stroke="#1383C6" stroke-width="0" opacity="0.9" />
<rect x="244.375" y="203.62" height="3" width="140.625" fill="#F4EDF2" opacity="0.25" />
<rect x="385" y="202" height="9" width="234.375" fill="#009CA2" stroke="#009CA2" stroke-width="0" opacity="0.9" />
<rect x="385" y="203.62" height="3" width="234.375" fill="#F4EDF2" opacity="0.25" />
<path d="M 619.375 202 C 623.875 202, 623.875 211, 619.375 211" fill="#009CA2" opacity="0.9" />
<line x1="211.5625" y1="202" x2="211.5625" y2="211" stroke="#000000" stroke-width="2" />
<path d="M 10 233 C 5.5 233, 5.5 242, 10 242" fill="#009CA2" opacity="0.9" />
<rect x="10" y="233" height="9" width="234.375" fill="#009CA2" stroke="#009CA2" stroke-width="0" opacity="0.9" />
<rect x="10" y="234.62" height="3" width="234.375" fill="#F4EDF2" opacity="0.25" />
<rect x="244.375" y="233" height="9" width="281.25" fill="#1383C6" stroke="#1383C6" stroke-width="0" opacity="0.9" />
<rect x="244.375" y="234.62" height="3" width="281.25" fill="#F4EDF2" opacity="0.25" />
<rect x="525.625" y="233" height="9" width="234.375" fill="#009CA2" stroke="#009CA2" stroke-width="0" opacity="0.9" />
<rect x="525.625" y="234.62" height="3" width="234.375" fill="#F4EDF2" opacity="0.25" />
<path d="M 760 233 C 764.5 233, 764.5 242, 760 242" fill="#009CA2" opacity="0.9" />
<line x1="244.375" y1="233" x2="244.375" y2="242" stroke="#000000" stroke-width="1.5" />
<line x1="525.625" y1="233" x2="525.625" y2="242" stroke="#000000" stroke-width="1.5" />
<line x1="10" y1="233" x2="760" y2="233" stroke="#000000" stroke-width="1.5" />
<line x1="10" y1="242" x2="760" y2="242" stroke="#000000" stroke-width="1.5" />
<path d="M 10 233 C 5.5 233, 5.5 242, 10 242" stroke="#000000" stroke-width="1.5" fill="none" opacity="0.9" />
<path d="M 760 233 C 764.5 233, 764.5 242, 760 242" stroke="#000000" stroke-width="1.5" fill="none" opacity="0.9" />
<line x1="244.375" y1="230.75" x2="244.375" y2="235.25" stroke="#000000" stroke-width="1.5" />
<text x="244.375" y="228.75" font-family="monospace" font-weight="bold" text-anchor="middle" font-size="10px" >0</text>
<line x1="272.5" y1="230.75" x2="272.5" y2="235.25" stroke="#000000" stroke-width="1.5" />
<line x1="300.625" y1="230.75" x2="300.625" y2="235.25" stroke="#000000" stroke-width="1.5" />
<line x1="328.75" y1="230.75" x2="328.75" y2="235.25" stroke="#000000" stroke-width="1.5" />
<line x1="356.875" y1="230.75" x2="356.875" y2="235.25" stroke="#000000" stroke-width="1.5" />
<line x1="385" y1="230.75" x2="385" y2="235.25" stroke="#000000" stroke-width="1.5" />
<text x="385" y="228.75" font-family="monospace" font-weight="bold" text-anchor="middle" font-size="10px" >5</text>
<line x1="413.125" y1="230.75" x2="413.125" y2="235.25" stroke="#000000" stroke-width="1.5" />
<line x1="441.25" y1="230.75" x2="441.25" y2="235.25" stroke="#000000" stroke-width="1.5" />
<line x1="469.375" y1="230.75" x2="469.375" y2="235.25" stroke="#000000" stroke-width="1.5" />
<line x1="497.5" y1="230.75" x2="497.5" y2="235.25" stroke="#000000" stroke-width="1.5" />
<path d="M 10 245 C 5.5 245, 5.5 254, 10 254" fill="#009CA2" opacity="0.9" />
<rect x="10" y="245" height="9" width="234.375" fill="#009CA2" stroke="#009CA2" stroke-width="0" opacity="0.9" />
<rect x="10" y="246.62" height="3" width="234.375" fill="#F4EDF2" opacity="0.25" />
<rect x="244.375" y="245" height="9" width="51.5625" fill="#1383C6" stroke="#1383C6" stroke-width="0" opacity="0.9" />
<rect x="244.375" y="246.62" height="3" width="51.5625" fill="#F4EDF2" opacity="0.25" />
<line x1="295.9375" y1="249.5" x2="305.3125" y2="249.5" stroke="#1383C6" stroke-width="1.5" />
<rect x="305.3125" y="245" height="9" width="4.6875" fill="#1383C6" stroke="#1383C6" stroke-width="0" opacity="0.9" />
<rect x="305.3125" y="246.62" height="3" width="4.6875" fill="#F4EDF2" opacity="0.25" />
<rect x="310" y="245" height="9" width="4.6875" fill="#BABABA" stroke="#BABABA" stroke-width="0" opacity="0.9" />
<rect x="310" y="246.62" height="3" width="4.6875" fill="#F4EDF2" opacity="0.25" />
<rect x="314.6875" y="245" height="9" width="135.9375" fill="#1383C6" stroke="#1383C6" stroke-width="0" opacity="0.9" />
<rect x="314.6875" y="246.62" height="3" width="135.9375" fill="#F4EDF2" opacity="0.25" />
<line x1="450.625" y1="249.5" x2="455.3125" y2="249.5" stroke="#1383C6" stroke-width="1.5" />
<rect x="455.3125" y="245" height="9" width="70.3125" fill="#1383C6" stroke="#1383C6" stroke-width="0" opacity="0.9" />
<rect x="455.3125" y="246.62" height="3" width="70.3125" fill="#F4EDF2" opacity="0.25" />
<rect x="525.625" y="245" height="9" width="42.1875" fill="#009CA2" stroke="#009CA2" stroke-width="0" opacity="0.9" />
<rect x="525.625" y="246.62" height="3" width="42.1875" fill="#F4EDF2" opacity="0.25" />
<rect x="567.8125" y="245" height="9" width="187.5" fill="#009CA2" stroke="#009CA2" stroke-width="0" opacity="0.9" />
<rect x="567.8125" y="246.62" height="3" width="187.5" fill="#F4EDF2" opacity="0.25" />
<line x1="755.3125" y1="249.5" x2="760" y2="249.5" stroke="#009CA2" stroke-width="1.5" />
<path d="M 760 245 C 764.5 245, 764.5 254, 760 254" fill="#009CA2" opacity="0.9" />
<line x1="567.8125" y1="245" x2="567.8125" y2="254" stroke="#000000" stroke-width="2" />
<path d="M 10 256 C 5.5 256, 5.5 265, 10 265" fill="#009CA2" opacity="0.9" />
<rect x="10" y="256" height="9" width="234.375" fill="#009CA2" stroke="#009CA2" stroke-width="0" opacity="0.9" />
<rect x="10" y="257.62" height="3" width="234.375" fill="#F4EDF2" opacity="0.25" />
<rect x="244.375" y="256" height="9" width="23.4375" fill="#1383C6" stroke="#1383C6" stroke-width="0" opacity="0.9" />
<rect x="244.375" y="257.62" height="3" width="23.4375" fill="#F4EDF2" opacity="0.25" />
<line x1="267.8125" y1="260.5" x2="277.1875" y2="260.5" stroke="#1383C6" stroke-width="1.5" />
<rect x="277.1875" y="256" height="9" width="248.4375" fill="#1383C6" stroke="#1383C6" stroke-width="0" opacity="0.9" />
<rect x="277.1875" y="257.62" height="3" width="248.4375" fill="#F4EDF2" opacity="0.25" />
<rect x="525.625" y="256" height="9" width="234.375" fill="#009CA2" stroke="#009CA2" stroke-width="0" opacity="0.9" />
<rect x="525.625" y="257.62" height="3" width="234.375" fill="#F4EDF2" opacity="0.25" />
<path d="M 760 256 C 764.5 256, 764.5 265, 760 265" fill="#009CA2" opacity="0.9" />
<path d="M 10 267 C 5.5 267, 5.5 276, 10 276" fill="#009CA2" opacity="0.9" />
<rect x="10" y="267" height="9" width="234.375" fill="#009CA2" stroke="#009CA2" stroke-width="0" opacity="0.9" />
<rect x="10" y="268.62" height="3" width="234.375" fill="#F4EDF2" opacity="0.25" />
<rect x="244.375" y="267" height="9" width="51.5625" fill="#1383C6" stroke="#1383C6" stroke-width="0" opacity="0.9" />
<rect x="244.375" y="268.62" height="3" width="51.5625" fill="#F4EDF2" opacity="0.25" />
<rect x="295.9375" y="267" height="9" width="4.6875" fill="#BABABA" stroke="#BABABA" stroke-width="0" opacity="0.9" />
<rect x="295.9375" y="268.62" height="3" width="4.6875" fill="#F4EDF2" opacity="0.25" />
<rect x="300.625" y="267" height="9" width="4.6875" fill="#1383C6" stroke="#1383C6" stroke-width="0" opacity="0.9" />
<rect x="300.625" y="268.62" height="3" width="4.6875" fill="#F4EDF2" opacity="0.25" />
<rect x="305.3125" y="267" height="9" width="220.3125" fill="#1383C6" stroke="#1383C6" stroke-width="0" opacity="0.9" />
<rect x="305.3125" y="268.62" height="3" width="220.3125" fill="#F4EDF2" opacity="0.25" />
<rect x="525.625" y="267" height="9" width="234.375" fill="#009CA2" stroke="#009CA2" stroke-width="0" opacity="0.9" />
<rect x="525.625" y="268.62" height="3" width="234.375" fill="#F4EDF2" opacity="0.25" />
<path d="M 760 267 C 764.5 267, 764.5 276, 760 276" fill="#009CA2" opacity="0.9" />
<line x1="305.3125" y1="267" x2="305.3125" y2="276" stroke="#000000" stroke-width="2" />
<path d="M 10 278 C 5.5 278, 5.5 287, 10 287" fill="#009CA2" opacity="0.9" />
<rect x="10" y="278" height="9" width="234.375" fill="#009CA2" stroke="#009CA2" stroke-width="0" opacity="0.9" />
<rect x="10" y="279.62" height="3" width="234.375" fill="#F4EDF2" opacity="0.25" />
<rect x="244.375" y="278" height="9" width="281.25" fill="#1383C6" stroke="#1383C6" stroke-width="0" opacity="0.9" />
<rect x="244.375" y="279.62" height="3" width="281.25" fill="#F4EDF2" opacity="0.25" />
<rect x="525.625" y="278" height="9" width="234.375" fill="#009CA2" stroke="#009CA2" stroke-width="0" opacity="0.9" />
<rect x="525.625" y="279.62" height="3" width="234.375" fill="#F4EDF2" opacity="0.25" />
<path d="M 760 278 C 764.5 278, 764.5 287, 760 287" fill="#009CA2" opacity="0.9" />
<path d="M 10 289 C 5.5 289, 5.5 298, 10 298" fill="#009CA2" opacity="0.9" />
<rect x="10" y="289" height="9" width="234.375" fill="#009CA2" stroke="#009CA2" stroke-width="0" opacity="0.9" />
<rect x="10" y="290.62" height="3" width="234.375" fill="#F4EDF2" opacity="0.25" />
<rect x="244.375" y="289" height="9" width="281.25" fill="#1383C6" stroke="#1383C6" stroke-width="0" opacity="0.9" />
<rect x="244.375" y="290.62" height="3" width="281.25" fill="#F4EDF2" opacity="0.25" />
<rect x="525.625" y="289" height="9" width="234.375" fill="#009CA2" stroke="#009CA2" stroke-width="0" opacity="0.9" />
<rect x="525.625" y="290.62" height="3" width="234.375" fill="#F4EDF2" opacity="0.25" />
<path d="M 760 289 C 764.5 289, 764.5 298, 760 298" fill="#009CA2" opacity="0.9" />
<path d="M 10 300 C 5.5 300, 5.5 309, 10 309" fill="#009CA2" opacity="0.9" />
<rect x="10" y="300" height="9" width="234.375" fill="#009CA2" stroke="#009CA2" stroke-width="0" opacity="0.9" />
<rect x="10" y="301.62" height="3" width="234.375" fill="#F4EDF2" opacity="0.25" />
<rect x="244.375" y="300" height="9" width="150" fill="#1383C6" stroke="#1383C6" stroke-width="0" opacity="0.9" />
<rect x="244.375" y="301.62" height="3" width="150" fill="#F4EDF2" opacity="0.25" />
<line x1="394.375" y1="304.5" x2="399.0625" y2="304.5" stroke="#1383C6" stroke-width="1.5" />
<rect x="399.0625" y="300" height="9" width="126.5625" fill="#1383C6" stroke="#1383C6" stroke-width="0" opacity="0.9" />
<rect x="399.0625" y="301.62" height="3" width="126.5625" fill="#F4EDF2" opacity="0.25" />
<rect x="525.625" y="300" height="9" width="79.6875" fill="#009CA2" stroke="#009CA2" stroke-width="0" opacity="0.9" />
<rect x="525.625" y="301.62" height="3" width="79.6875" fill="#F4EDF2" opacity="0.25" />
<rect x="605.3125" y="300" height="9" width="4.6875" fill="#BABABA" stroke="#BABABA" stroke-width="0" opacity="0.9" />
<rect x="605.3125" y="301.62" height="3" width="4.6875" fill="#F4EDF2" opacity="0.25" />
<rect x="610" y="300" height="9" width="150" fill="#009CA2" stroke="#009CA2" stroke-width="0" opacity="0.9" />
<rect x="610" y="301.62" height="3" width="150" fill="#F4EDF2" opacity="0.25" />
<path d="M 760 300 C 764.5 300, 764.5 309, 760 309" fill="#009CA2" opacity="0.9" />
<path d="M 10 311 C 5.5 311, 5.5 320, 10 320" fill="#009CA2" opacity="0.9" />
<rect x="10" y="311" height="9" width="234.375" fill="#009CA2" stroke="#009CA2" stroke-width="0" opacity="0.9" />
<rect x="10" y="312.62" height="3" width="234.375" fill="#F4EDF2" opacity="0.25" />
<rect x="244.375" y="311" height="9" width="281.25" fill="#1383C6" stroke="#1383C6" stroke-width="0" opacity="0.9" />
<rect x="244.375" y="312.62" height="3" width="281.25" fill="#F4EDF2" opacity="0.25" />
<rect x="525.625" y="311" height="9" width="234.375" fill="#009CA2" stroke="#009CA2" stroke-width="0" opacity="0.9" />
<rect x="525.625" y="312.62" height="3" width="234.375" fill="#F4EDF2" opacity="0.25" />
<path d="M 760 311 C 764.5 311, 764.5 320, 760 320" fill="#009CA2" opacity="0.9" />
<path d="M 10 322 C 5.5 322, 5.5 331, 10 331" fill="#009CA2" opacity="0.9" />
<rect x="10" y="322" height="9" width="234.375" fill="#009CA2" stroke="#009CA2" stroke-width="0" opacity="0.9" />
<rect x="10" y="323.62" height="3" width="234.375" fill="#F4EDF2" opacity="0.25" />
<rect x="244.375" y="322" height="9" width="98.4375" fill="#1383C6" stroke="#1383C6" stroke-width="0" opacity="0.9" />
<rect x="244.375" y="323.62" height="3" width="98.4375" fill="#F4EDF2" opacity="0.25" />
<rect x="342.8125" y="322" height="9" width="182.8125" fill="#1383C6" stroke="#1383C6" stroke-width="0" opacity="0.9" />
<rect x="342.8125" y="323.62" height="3" width="182.8125" fill="#F4EDF2" opacity="0.25" />
<rect x="525.625" y="322" height="9" width="234.375" fill="#009CA2" stroke="#009CA2" stroke-width="0" opacity="0.9" />
<rect x="525.625" y="323.62" height="3" width="234.375" fill="#F4EDF2" opacity="0.25" />
<path d="M 760 322 C 764.5 322, 764.5 331, 760 331" fill="#009CA2" opacity="0.9" />
<line x1="342.8125" y1="322" x2="342.8125" y2="331" stroke="#000000" stroke-width="2" />
<path d="M 10 333 C 5.5 333, 5.5 342, 10 342" fill="#009CA2" opacity="0.9" />
<rect x="10" y="333" height="9" width="234.375" fill="#009CA2" stroke="#009CA2" stroke-width="0" opacity="0.9" />
<rect x="10" y="334.62" height="3" width="234.375" fill="#F4EDF2" opacity="0.25" />
<rect x="244.375" y="333" height="9" width="281.25" fill="#1383C6" stroke="#1383C6" stroke-width="0" opacity="0.9" />
<rect x="244.375" y="334.62" height="3" width="281.25" fill="#F4EDF2" opacity="0.25" />
<rect x="525.625" y="333" height="9" width="234.375" fill="#009CA2" stroke="#009CA2" stroke-width="0" opacity="0.9" />
<rect x="525.625" y="334.62" height="3" width="234.375" fill="#F4EDF2" opacity="0.25" />
<path d="M 760 333 C 764.5 333, 764.5 342, 760 342" fill="#009CA2" opacity="0.9" />
<path d="M 10 344 C 5.5 344, 5.5 353, 10 353" fill="#009CA2" opacity="0.9" />
<rect x="10" y="344" height="9" width="234.375" fill="#009CA2" stroke="#009CA2" stroke-width="0" opacity="0.9" />
<rect x="10" y="345.62" height="3" width="234.375" fill="#F4EDF2" opacity="0.25" />
<rect x="244.375" y="344" height="9" width="37.5" fill="#1383C6" stroke="#1383C6" stroke-width="0" opacity="0.9" />
<rect x="244.375" y="345.62" height="3" width="37.5" fill="#F4EDF2" opacity="0.25" />
<rect x="281.875" y="344" height="9" width="225" fill="#1383C6" stroke="#1383C6" stroke-width="0" opacity="0.9" />
<rect x="281.875" y="345.62" height="3" width="225" fill="#F4EDF2" opacity="0.25" />
<rect x="506.875" y="344" height="9" width="18.75" fill="#1383C6" stroke="#1383C6" stroke-width="0" opacity="0.9" />
<rect x="506.875" y="345.62" height="3" width="18.75" fill="#F4EDF2" opacity="0.25" />
<rect x="525.625" y="344" height="9" width="234.375" fill="#009CA2" stroke="#009CA2" stroke-width="0" opacity="0.9" />
<rect x="525.625" y="345.62" height="3" width="234.375" fill="#F4EDF2" opacity="0.25" />
<path d="M 760 344 C 764.5 344, 764.5 353, 760 353" fill="#009CA2" opacity="0.9" />
<line x1="281.875" y1="344" x2="281.875" y2="353" stroke="#000000" stroke-width="2" />
<line x1="506.875" y1="344" x2="506.875" y2="353" stroke="#000000" stroke-width="2" />
<path d="M 10 355 C 5.5 355, 5.5 364, 10 364" fill="#009CA2" opacity="0.9" />
<rect x="10" y="355" height="9" width="234.375" fill="#009CA2" stroke="#009CA2" stroke-width="0" opacity="0.9" />
<rect x="10" y="356.62" height="3" width="234.375" fill="#F4EDF2" opacity="0.25" />
<rect x="244.375" y="355" height="9" width="281.25" fill="#1383C6" stroke="#1383C6" stroke-width="0" opacity="0.9" />
<rect x="244.375" y="356.62" height="3" width="281.25" fill="#F4EDF2" opacity="0.25" />
<rect x="525.625" y="355" height="9" width="234.375" fill="#009CA2" stroke="#009CA2" stroke-width="0" opacity="0.9" />
<rect x="525.625" y="356.62" height="3" width="234.375" fill="#F4EDF2" opacity="0.25" />
<path d="M 760 355 C 764.5 355, 764.5 364, 760 364" fill="#009CA2" opacity="0.9" />
<path d="M 10 366 C 5.5 366, 5.5 375, 10 375" fill="#009CA2" opacity="0.9" />
<rect x="10" y="366" height="9" width="234.375" fill="#009CA2" stroke="#009CA2" stroke-width="0" opacity="0.9" />
<rect x="10" y="367.62" height="3" width="234.375" fill="#F4EDF2" opacity="0.25" />
<rect x="244.375" y="366" height="9" width="281.25" fill="#1383C6" stroke="#1383C6" stroke-width="0" opacity="0.9" />
<rect x="244.375" y="367.62" height="3" width="281.25" fill="#F4EDF2" opacity="0.25" />
<rect x="525.625" y="366" height="9" width="234.375" fill="#009CA2" stroke="#009CA2" stroke-width="0" opacity="0.9" />
<rect x="525.625" y="367.62" height="3" width="234.375" fill="#F4EDF2" opacity="0.25" />
<path d="M 760 366 C 764.5 366, 764.5 375, 760 375" fill="#009CA2" opacity="0.9" />
<path d="M 10 377 C 5.5 377, 5.5 386, 10 386" fill="#009CA2" opacity="0.9" />
<rect x="10" y="377" height="9" width="107.8125" fill="#009CA2" stroke="#009CA2" stroke-width="0" opacity="0.9" />
<rect x="10" y="378.62" height="3" width="107.8125" fill="#F4EDF2" opacity="0.25" />
<line x1="117.8125" y1="381.5" x2="122.5" y2="381.5" stroke="#009CA2" stroke-width="1.5" />
<rect x="122.5" y="377" height="9" width="121.875" fill="#009CA2" stroke="#009CA2" stroke-width="0" opacity="0.9" />
<rect x="122.5" y="378.62" height="3" width="121.875" fill="#F4EDF2" opacity="0.25" />
<rect x="244.375" y="377" height="9" width="281.25" fill="#1383C6" stroke="#1383C6" stroke-width="0" opacity="0.9" />
<rect x="244.375" y="378.62" height="3" width="281.25" fill="#F4EDF2" opacity="0.25" />
<rect x="525.625" y="377" height="9" width="234.375" fill="#009CA2" stroke="#009CA2" stroke-width="0" opacity="0.9" />
<rect x="525.625" y="378.62" height="3" width="234.375" fill="#F4EDF2" opacity="0.25" />
<path d="M 760 377 C 764.5 377, 764.5 386, 760 386" fill="#009CA2" opacity="0.9" />
<line x1="10" y1="377" x2="10" y2="386" stroke="#000000" stroke-width="2" />
<path d="M 10 388 C 5.5 388, 5.5 397, 10 397" fill="#009CA2" opacity="0.9" />
<rect x="10" y="388" height="9" width="234.375" fill="#009CA2" stroke="#009CA2" stroke-width="0" opacity="0.9" />
<rect x="10" y="389.62" height="3" width="234.375" fill="#F4EDF2" opacity="0.25" />
<rect x="244.375" y="388" height="9" width="281.25" fill="#1383C6" stroke="#1383C6" stroke-width="0" opacity="0.9" />
<rect x="244.375" y="389.62" height="3" width="281.25" fill="#F4EDF2" opacity="0.25" />
<rect x="525.625" y="388" height="9" width="234.375" fill="#009CA2" stroke="#009CA2" stroke-width="0" opacity="0.9" />
<rect x="525.625" y="389.62" height="3" width="234.375" fill="#F4EDF2" opacity="0.25" />
<path d="M 760 388 C 764.5 388, 764.5 397, 760 397" fill="#009CA2" opacity="0.9" />
<path d="M 10 399 C 5.5 399, 5.5 408, 10 408" fill="#009CA2" opacity="0.9" />
<rect x="10" y="399" height="9" width="234.375" fill="#009CA2" stroke="#009CA2" stroke-width="0" opacity="0.9" />
<rect x="10" y="400.62" height="3" width="234.375" fill="#F4EDF2" opacity="0.25" />
<rect x="244.375" y="399" height="9" width="281.25" fill="#1383C6" stroke="#1383C6" stroke-width="0" opacity="0.9" />
<rect x="244.375" y="400.62" height="3" width="281.25" fill="#F4EDF2" opacity="0.25" />
<rect x="525.625" y="399" height="9" width="234.375" fill="#009CA2" stroke="#009CA2" stroke-width="0" opacity="0.9" />
<rect x="525.625" y="400.62" height="3" width="234.375" fill="#F4EDF2" opacity="0.25" />
<path d="M 760 399 C 764.5 399, 764.5 408, 760 408" fill="#009CA2" opacity="0.9" />
<rect x="10" y="414" height="12" width="12" fill="#1383C6" stroke="#1383C6" stroke-width="0" opacity="0.9" />
<text x="24" y="425" font-family="monospace" font-weight="bold" font-size="14px" >GGCCCC</text>
</svg>
