<?xml version="1.0"?>
<svg xmlns="http://www.w3.org/2000/svg" xmlns:xlink="http://www.w3.org/1999/xlink" width="770.0000000000001" height="376">
<rect width="100%" height="100%" fill="white"/>
<path d="M 10 14 C 5.5 14, 5.5 23, 10 23" fill="#009CA2" opacity="0.9" />
<rect x="10" y="14" height="9" width="93.98496240601504" fill="#009CA2" stroke="#009CA2" stroke-width="0" opacity="0.9" />
<rect x="10" y="15.62" height="3" width="93.98496240601504" fill="#F4EDF2" opacity="0.25" />
<rect x="103.98496240601504" y="14" height="9" width="92.10526315789474" fill="#D1D1D1" stroke="#D1D1D1" stroke-width="0" opacity="0.9" />
<rect x="103.98496240601504" y="15.62" height="3" width="92.10526315789474" fill="#F4EDF2" opacity="0.25" />
<line x1="196.09022556390977" y1="18.5" x2="666.015037593985" y2="18.5" stroke="#BABABA" stroke-width="1.5" />
<rect x="666.015037593985" y="14" height="9" width="93.98496240601504" fill="#009CA2" stroke="#009CA2" stroke-width="0" opacity="0.9" />
<rect x="666.015037593985" y="15.62" height="3" width="93.98496240601504" fill="#F4EDF2" opacity="0.25" />
<path d="M 760 14 C 764.5 14, 764.5 23, 760 23" fill="#009CA2" opacity="0.9" />
<path d="M 10 25 C 5.5 25, 5.5 34, 10 34" fill="#009CA2" opacity="0.9" />
<rect x="10" y="25" height="9" width="93.98496240601504" fill="#009CA2" stroke="#009CA2" stroke-width="0" opacity="0.9" />
<rect x="10" y="26.62" height="3" width="93.98496240601504" fill="#F4EDF2" opacity="0.25" />
<rect x="103.98496240601504" y="25" height="9" width="93.98496240601504" fill="#D1D1D1" stroke="#D1D1D1" stroke-width="0" opacity="0.9" />
<rect x="103.98496240601504" y="26.62" height="3" width="93.98496240601504" fill="#F4EDF2" opacity="0.25" />
<line x1="197.9699248120301" y1="29.5" x2="666.015037593985" y2="29.5" stroke="#BABABA" stroke-width="1.5" />
<rect x="666.015037593985" y="25" height="9" width="93.98496240601504" fill="#009CA2" stroke="#009CA2" stroke-width="0" opacity="0.9" />
<rect x="666.015037593985" y="26.62" height="3" width="93.98496240601504" fill="#F4EDF2" opacity="0.25" />
<path d="M 760 25 C 764.5 25, 764.5 34, 760 34" fill="#009CA2" opacity="0.9" />
<rect x="17.518796992481203" y="25" height="9" width="1.8796992481203008" fill="#FF0000" stroke="#FF0000" stroke-width="0" opacity="0.9" />
<rect x="718.6466165413534" y="25" height="9" width="1.8796992481203008" fill="#0647F9" stroke="#0647F9" stroke-width="0" opacity="0.9" />
<path d="M 10 36 C 5.5 36, 5.5 45, 10 45" fill="#009CA2" opacity="0.9" />
<rect x="10" y="36" height="9" width="93.98496240601504" fill="#009CA2" stroke="#009CA2" stroke-width="0" opacity="0.9" />
<rect x="10" y="37.62" height="3" width="93.98496240601504" fill="#F4EDF2" opacity="0.25" />
<rect x="103.98496240601504" y="36" height="9" width="93.98496240601504" fill="#D1D1D1" stroke="#D1D1D1" stroke-width="0" opacity="0.9" />
<rect x="103.98496240601504" y="37.62" height="3" width="93.98496240601504" fill="#F4EDF2" opacity="0.25" />
<line x1="197.9699248120301" y1="40.5" x2="666.015037593985" y2="40.5" stroke="#BABABA" stroke-width="1.5" />
<rect x="666.015037593985" y="36" height="9" width="93.98496240601504" fill="#009CA2" stroke="#009CA2" stroke-width="0" opacity="0.9" />
<rect x="666.015037593985" y="37.62" height="3" width="93.98496240601504" fill="#F4EDF2" opacity="0.25" />
<path d="M 760 36 C 764.5 36, 764.5 45, 760 45" fill="#009CA2" opacity="0.9" />
<rect x="17.518796992481203" y="36" height="9" width="1.8796992481203008" fill="#652C9A" stroke="#652C9A" stroke-width="0" opacity="0.9" />
<rect x="718.6466165413534" y="36" height="9" width="1.8796992481203008" fill="#FB0104" stroke="#FB0104" stroke-width="0" opacity="0.9" />
<path d="M 10 47 C 5.5 47, 5.5 56, 10 56" fill="#009CA2" opacity="0.9" />
<rect x="10" y="47" height="9" width="93.98496240601504" fill="#009CA2" stroke="#009CA2" stroke-width="0" opacity="0.9" />
<rect x="10" y="48.62" height="3" width="93.98496240601504" fill="#F4EDF2" opacity="0.25" />
<rect x="103.98496240601504" y="47" height="9" width="93.98496240601504" fill="#D1D1D1" stroke="#D1D1D1" stroke-width="0" opacity="0.9" />
<rect x="103.98496240601504" y="48.62" height="3" width="93.98496240601504" fill="#F4EDF2" opacity="0.25" />
<line x1="197.9699248120301" y1="51.5" x2="666.015037593985" y2="51.5" stroke="#BABABA" stroke-width="1.5" />
<rect x="666.015037593985" y="47" height="9" width="93.98496240601504" fill="#009CA2" stroke="#009CA2" stroke-width="0" opacity="0.9" />
<rect x="666.015037593985" y="48.62" height="3" width="93.98496240601504" fill="#F4EDF2" opacity="0.25" />
<path d="M 760 47 C 764.5 47, 764.5 56, 760 56" fill="#009CA2" opacity="0.9" />
<path d="M 10 58 C 5.5 58, 5.5 67, 10 67" fill="#009CA2" opacity="0.9" />
<rect x="10" y="58" height="9" width="93.98496240601504" fill="#009CA2" stroke="#009CA2" stroke-width="0" opacity="0.9" />
<rect x="10" y="59.62" height="3" width="93.98496240601504" fill="#F4EDF2" opacity="0.25" />
<rect x="103.98496240601504" y="58" height="9" width="93.98496240601504" fill="#D1D1D1" stroke="#D1D1D1" stroke-width="0" opacity="0.9" />
<rect x="103.98496240601504" y="59.62" height="3" width="93.98496240601504" fill="#F4EDF2" opacity="0.25" />
<line x1="197.9699248120301" y1="62.5" x2="666.015037593985" y2="62.5" stroke="#BABABA" stroke-width="1.5" />
<rect x="666.015037593985" y="58" height="9" width="93.98496240601504" fill="#009CA2" stroke="#009CA2" stroke-width="0" opacity="0.9" />
<rect x="666.015037593985" y="59.62" height="3" width="93.98496240601504" fill="#F4EDF2" opacity="0.25" />
<path d="M 760 58 C 764.5 58, 764.5 67, 760 67" fill="#009CA2" opacity="0.9" />
<path d="M 10 69 C 5.5 69, 5.5 78, 10 78" fill="#009CA2" opacity="0.9" />
<rect x="10" y="69" height="9" width="93.98496240601504" fill="#009CA2" stroke="#009CA2" stroke-width="0" opacity="0.9" />
<rect x="10" y="70.62" height="3" width="93.98496240601504" fill="#F4EDF2" opacity="0.25" />
<rect x="103.98496240601504" y="69" height="9" width="93.98496240601504" fill="#D1D1D1" stroke="#D1D1D1" stroke-width="0" opacity="0.9" />
<rect x="103.98496240601504" y="70.62" height="3" width="93.98496240601504" fill="#F4EDF2" opacity="0.25" />
<line x1="197.9699248120301" y1="73.5" x2="666.015037593985" y2="73.5" stroke="#BABABA" stroke-width="1.5" />
<rect x="666.015037593985" y="69" height="9" width="93.98496240601504" fill="#009CA2" stroke="#009CA2" stroke-width="0" opacity="0.9" />
<rect x="666.015037593985" y="70.62" height="3" width="93.98496240601504" fill="#F4EDF2" opacity="0.25" />
<path d="M 760 69 C 764.5 69, 764.5 78, 760 78" fill="#009CA2" opacity="0.9" />
<rect x="17.518796992481203" y="69" height="9" width="1.8796992481203008" fill="#DA0B25" stroke="#DA0B25" stroke-width="0" opacity="0.9" />
<rect x="718.6466165413534" y="69" height="9" width="1.8796992481203008" fill="#E80717" stroke="#E80717" stroke-width="0" opacity="0.9" />
<path d="M 10 80 C 5.5 80, 5.5 89, 10 89" fill="#009CA2" opacity="0.9" />
<rect x="10" y="80" height="9" width="93.98496240601504" fill="#009CA2" stroke="#009CA2" stroke-width="0" opacity="0.9" />
<rect x="10" y="81.62" height="3" width="93.98496240601504" fill="#F4EDF2" opacity="0.25" />
<rect x="103.98496240601504" y="80" height="9" width="93.98496240601504" fill="#D1D1D1" stroke="#D1D1D1" stroke-width="0" opacity="0.9" />
<rect x="103.98496240601504" y="81.62" height="3" width="93.98496240601504" fill="#F4EDF2" opacity="0.25" />
<line x1="197.9699248120301" y1="84.5" x2="666.015037593985" y2="84.5" stroke="#BABABA" stroke-width="1.5" />
<rect x="666.015037593985" y="80" height="9" width="93.98496240601504" fill="#009CA2" stroke="#009CA2" stroke-width="0" opacity="0.9" />
<rect x="666.015037593985" y="81.62" height="3" width="93.98496240601504" fill="#F4EDF2" opacity="0.25" />
<path d="M 760 80 C 764.5 80, 764.5 89, 760 89" fill="#009CA2" opacity="0.9" />
<path d="M 10 91 C 5.5 91, 5.5 100, 10 100" fill="#009CA2" opacity="0.9" />
<rect x="10" y="91" height="9" width="93.98496240601504" fill="#009CA2" stroke="#009CA2" stroke-width="0" opacity="0.9" />
<rect x="10" y="92.62" height="3" width="93.98496240601504" fill="#F4EDF2" opacity="0.25" />
<rect x="103.98496240601504" y="91" height="9" width="93.98496240601504" fill="#D1D1D1" stroke="#D1D1D1" stroke-width="0" opacity="0.9" />
<rect x="103.98496240601504" y="92.62" height="3" width="93.98496240601504" fill="#F4EDF2" opacity="0.25" />
<line x1="197.9699248120301" y1="95.5" x2="666.015037593985" y2="95.5" stroke="#BABABA" stroke-width="1.5" />
<rect x="666.015037593985" y="91" height="9" width="93.98496240601504" fill="#009CA2" stroke="#009CA2" stroke-width="0" opacity="0.9" />
<rect x="666.015037593985" y="92.62" height="3" width="93.98496240601504" fill="#F4EDF2" opacity="0.25" />
<path d="M 760 91 C 764.5 91, 764.5 100, 760 100" fill="#009CA2" opacity="0.9" />
<path d="M 10 102 C 5.5 102, 5.5 111, 10 111" fill="#009CA2" opacity="0.9" />
<rect x="10" y="102" height="9" width="93.98496240601504" fill="#009CA2" stroke="#009CA2" stroke-width="0" opacity="0.9" />
<rect x="10" y="103.62" height="3" width="93.98496240601504" fill="#F4EDF2" opacity="0.25" />
<rect x="103.98496240601504" y="102" height="9" width="93.98496240601504" fill="#D1D1D1" stroke="#D1D1D1" stroke-width="0" opacity="0.9" />
<rect x="103.98496240601504" y="103.62" height="3" width="93.98496240601504" fill="#F4EDF2" opacity="0.25" />
<line x1="197.9699248120301" y1="106.5" x2="666.015037593985" y2="106.5" stroke="#BABABA" stroke-width="1.5" />
<rect x="666.015037593985" y="102" height="9" width="93.98496240601504" fill="#009CA2" stroke="#009CA2" stroke-width="0" opacity="0.9" />
<rect x="666.015037593985" y="103.62" height="3" width="93.98496240601504" fill="#F4EDF2" opacity="0.25" />
<path d="M 760 102 C 764.5 102, 764.5 111, 760 111" fill="#009CA2" opacity="0.9" />
<path d="M 10 113 C 5.5 113, 5.5 122, 10 122" fill="#009CA2" opacity="0.9" />
<line x1="10" y1="117.5" x2="11.8796992481203" y2="117.5" stroke="#009CA2" stroke-width="1.5" />
<rect x="11.8796992481203" y="113" height="9" width="41.35338345864662" fill="#009CA2" stroke="#009CA2" stroke-width="0" opacity="0.9" />
<rect x="11.8796992481203" y="114.62" height="3" width="41.35338345864662" fill="#F4EDF2" opacity="0.25" />
<rect x="53.23308270676692" y="113" height="9" width="50.75187969924812" fill="#009CA2" stroke="#009CA2" stroke-width="0" opacity="0.9" />
<rect x="53.23308270676692" y="114.62" height="3" width="50.75187969924812" fill="#F4EDF2" opacity="0.25" />
<rect x="103.98496240601504" y="113" height="9" width="93.98496240601504" fill="#D1D1D1" stroke="#D1D1D1" stroke-width="0" opacity="0.9" />
<rect x="103.98496240601504" y="114.62" height="3" width="93.98496240601504" fill="#F4EDF2" opacity="0.25" />
<line x1="197.9699248120301" y1="117.5" x2="666.015037593985" y2="117.5" stroke="#BABABA" stroke-width="1.5" />
<rect x="666.015037593985" y="113" height="9" width="56.390977443609025" fill="#009CA2" stroke="#009CA2" stroke-width="0" opacity="0.9" />
<rect x="666.015037593985" y="114.62" height="3" width="56.390977443609025" fill="#F4EDF2" opacity="0.25" />
<rect x="722.406015037594" y="113" height="9" width="33.83458646616541" fill="#009CA2" stroke="#009CA2" stroke-width="0" opacity="0.9" />
<rect x="722.406015037594" y="114.62" height="3" width="33.83458646616541" fill="#F4EDF2" opacity="0.25" />
<line x1="756.2406015037594" y1="117.5" x2="758.1203007518798" y2="117.5" stroke="#009CA2" stroke-width="1.5" />
<rect x="758.1203007518798" y="113" height="9" width="1.8796992481203008" fill="#009CA2" stroke="#009CA2" stroke-width="0" opacity="0.9" />
<rect x="758.1203007518798" y="114.62" height="3" width="1.8796992481203008" fill="#F4EDF2" opacity="0.25" />
<path d="M 760.0000000000001 113 C 764.5000000000001 113, 764.5000000000001 122, 760.0000000000001 122" fill="#009CA2" opacity="0.9" />
<line x1="53.23308270676692" y1="113" x2="53.23308270676692" y2="122" stroke="#000000" stroke-width="1.8796992481203008" />
<line x1="722.406015037594" y1="113" x2="722.406015037594" y2="122" stroke="#000000" stroke-width="1.8796992481203008" />
<path d="M 10 124 C 5.5 124, 5.5 133, 10 133" fill="#009CA2" opacity="0.9" />
<rect x="10" y="124" height="9" width="93.98496240601504" fill="#009CA2" stroke="#009CA2" stroke-width="0" opacity="0.9" />
<rect x="10" y="125.62" height="3" width="93.98496240601504" fill="#F4EDF2" opacity="0.25" />
<rect x="103.98496240601504" y="124" height="9" width="93.98496240601504" fill="#D1D1D1" stroke="#D1D1D1" stroke-width="0" opacity="0.9" />
<rect x="103.98496240601504" y="125.62" height="3" width="93.98496240601504" fill="#F4EDF2" opacity="0.25" />
<line x1="197.9699248120301" y1="128.5" x2="666.015037593985" y2="128.5" stroke="#BABABA" stroke-width="1.5" />
<rect x="666.015037593985" y="124" height="9" width="93.98496240601504" fill="#009CA2" stroke="#009CA2" stroke-width="0" opacity="0.9" />
<rect x="666.015037593985" y="125.62" height="3" width="93.98496240601504" fill="#F4EDF2" opacity="0.25" />
<path d="M 760 124 C 764.5 124, 764.5 133, 760 133" fill="#009CA2" opacity="0.9" />
<path d="M 10 135 C 5.5 135, 5.5 144, 10 144" fill="#009CA2" opacity="0.9" />
<rect x="10" y="135" height="9" width="93.98496240601504" fill="#009CA2" stroke="#009CA2" stroke-width="0" opacity="0.9" />
<rect x="10" y="136.62" height="3" width="93.98496240601504" fill="#F4EDF2" opacity="0.25" />
<rect x="103.98496240601504" y="135" height="9" width="93.98496240601504" fill="#D1D1D1" stroke="#D1D1D1" stroke-width="0" opacity="0.9" />
<rect x="103.98496240601504" y="136.62" height="3" width="93.98496240601504" fill="#F4EDF2" opacity="0.25" />
<line x1="197.9699248120301" y1="139.5" x2="666.015037593985" y2="139.5" stroke="#BABABA" stroke-width="1.5" />
<rect x="666.015037593985" y="135" height="9" width="93.98496240601504" fill="#009CA2" stroke="#009CA2" stroke-width="0" opacity="0.9" />
<rect x="666.015037593985" y="136.62" height="3" width="93.98496240601504" fill="#F4EDF2" opacity="0.25" />
<path d="M 760 135 C 764.5 135, 764.5 144, 760 144" fill="#009CA2" opacity="0.9" />
<rect x="17.518796992481203" y="135" height="9" width="1.8796992481203008" fill="#5D2EA2" stroke="#5D2EA2" stroke-width="0" opacity="0.9" />
<rect x="718.6466165413534" y="135" height="9" width="1.8796992481203008" fill="#B5154A" stroke="#B5154A" stroke-width="0" opacity="0.9" />
<path d="M 10 146 C 5.5 146, 5.5 155, 10 155" fill="#009CA2" opacity="0.9" />
<line x1="10" y1="150.5" x2="11.8796992481203" y2="150.5" stroke="#009CA2" stroke-width="1.5" />
<rect x="11.8796992481203" y="146" height="9" width="37.59398496240601" fill="#009CA2" stroke="#009CA2" stroke-width="0" opacity="0.9" />
<rect x="11.8796992481203" y="147.62" height="3" width="37.59398496240601" fill="#F4EDF2" opacity="0.25" />
<rect x="49.473684210526315" y="146" height="9" width="54.51127819548872" fill="#009CA2" stroke="#009CA2" stroke-width="0" opacity="0.9" />
<rect x="49.473684210526315" y="147.62" height="3" width="54.51127819548872" fill="#F4EDF2" opacity="0.25" />
<rect x="103.98496240601503" y="146" height="9" width="93.98496240601504" fill="#D1D1D1" stroke="#D1D1D1" stroke-width="0" opacity="0.9" />
<rect x="103.98496240601503" y="147.62" height="3" width="93.98496240601504" fill="#F4EDF2" opacity="0.25" />
<line x1="197.96992481203006" y1="150.5" x2="666.015037593985" y2="150.5" stroke="#BABABA" stroke-width="1.5" />
<rect x="666.015037593985" y="146" height="9" width="93.98496240601504" fill="#009CA2" stroke="#009CA2" stroke-width="0" opacity="0.9" />
<rect x="666.015037593985" y="147.62" height="3" width="93.98496240601504" fill="#F4EDF2" opacity="0.25" />
<path d="M 760 146 C 764.5 146, 764.5 155, 760 155" fill="#009CA2" opacity="0.9" />
<line x1="49.473684210526315" y1="146" x2="49.473684210526315" y2="155" stroke="#000000" stroke-width="1.8796992481203008" />
<path d="M 10 157 C 5.5 157, 5.5 166, 10 166" fill="#009CA2" opacity="0.9" />
<rect x="10" y="157" height="9" width="93.98496240601504" fill="#009CA2" stroke="#009CA2" stroke-width="0" opacity="0.9" />
<rect x="10" y="158.62" height="3" width="93.98496240601504" fill="#F4EDF2" opacity="0.25" />
<rect x="103.98496240601504" y="157" height="9" width="93.98496240601504" fill="#D1D1D1" stroke="#D1D1D1" stroke-width="0" opacity="0.9" />
<rect x="103.98496240601504" y="158.62" height="3" width="93.98496240601504" fill="#F4EDF2" opacity="0.25" />
<line x1="197.9699248120301" y1="161.5" x2="666.015037593985" y2="161.5" stroke="#BABABA" stroke-width="1.5" />
<rect x="666.015037593985" y="157" height="9" width="93.98496240601504" fill="#009CA2" stroke="#009CA2" stroke-width="0" opacity="0.9" />
<rect x="666.015037593985" y="158.62" height="3" width="93.98496240601504" fill="#F4EDF2" opacity="0.25" />
<path d="M 760 157 C 764.5 157, 764.5 166, 760 166" fill="#009CA2" opacity="0.9" />
<path d="M 10 168 C 5.5 168, 5.5 177, 10 177" fill="#009CA2" opacity="0.9" />
<rect x="10" y="168" height="9" width="93.98496240601504" fill="#009CA2" stroke="#009CA2" stroke-width="0" opacity="0.9" />
<rect x="10" y="169.62" height="3" width="93.98496240601504" fill="#F4EDF2" opacity="0.25" />
<rect x="103.98496240601504" y="168" height="9" width="93.98496240601504" fill="#D1D1D1" stroke="#D1D1D1" stroke-width="0" opacity="0.9" />
<rect x="103.98496240601504" y="169.62" height="3" width="93.98496240601504" fill="#F4EDF2" opacity="0.25" />
<line x1="197.9699248120301" y1="172.5" x2="666.015037593985" y2="172.5" stroke="#BABABA" stroke-width="1.5" />
<rect x="666.015037593985" y="168" height="9" width="93.98496240601504" fill="#009CA2" stroke="#009CA2" stroke-width="0" opacity="0.9" />
<rect x="666.015037593985" y="169.62" height="3" width="93.98496240601504" fill="#F4EDF2" opacity="0.25" />
<path d="M 760 168 C 764.5 168, 764.5 177, 760 177" fill="#009CA2" opacity="0.9" />
<path d="M 10 179 C 5.5 179, 5.5 188, 10 188" fill="#009CA2" opacity="0.9" />
<rect x="10" y="179" height="9" width="93.98496240601504" fill="#009CA2" stroke="#009CA2" stroke-width="0" opacity="0.9" />
<rect x="10" y="180.62" height="3" width="93.98496240601504" fill="#F4EDF2" opacity="0.25" />
<rect x="103.98496240601504" y="179" height="9" width="95.86466165413533" fill="#D1D1D1" stroke="#D1D1D1" stroke-width="0" opacity="0.9" />
<rect x="103.98496240601504" y="180.62" height="3" width="95.86466165413533" fill="#F4EDF2" opacity="0.25" />
<line x1="199.84962406015038" y1="183.5" x2="666.015037593985" y2="183.5" stroke="#BABABA" stroke-width="1.5" />
<rect x="666.015037593985" y="179" height="9" width="93.98496240601504" fill="#009CA2" stroke="#009CA2" stroke-width="0" opacity="0.9" />
<rect x="666.015037593985" y="180.62" height="3" width="93.98496240601504" fill="#F4EDF2" opacity="0.25" />
<path d="M 760 179 C 764.5 179, 764.5 188, 760 188" fill="#009CA2" opacity="0.9" />
<path d="M 10 190 C 5.5 190, 5.5 199, 10 199" fill="#009CA2" opacity="0.9" />
<rect x="10" y="190" height="9" width="93.98496240601504" fill="#009CA2" stroke="#009CA2" stroke-width="0" opacity="0.9" />
<rect x="10" y="191.62" height="3" width="93.98496240601504" fill="#F4EDF2" opacity="0.25" />
<rect x="103.98496240601504" y="190" height="9" width="95.86466165413533" fill="#D1D1D1" stroke="#D1D1D1" stroke-width="0" opacity="0.9" />
<rect x="103.98496240601504" y="191.62" height="3" width="95.86466165413533" fill="#F4EDF2" opacity="0.25" />
<line x1="199.84962406015038" y1="194.5" x2="666.015037593985" y2="194.5" stroke="#BABABA" stroke-width="1.5" />
<rect x="666.015037593985" y="190" height="9" width="93.98496240601504" fill="#009CA2" stroke="#009CA2" stroke-width="0" opacity="0.9" />
<rect x="666.015037593985" y="191.62" height="3" width="93.98496240601504" fill="#F4EDF2" opacity="0.25" />
<path d="M 760 190 C 764.5 190, 764.5 199, 760 199" fill="#009CA2" opacity="0.9" />
<rect x="17.518796992481203" y="190" height="9" width="1.8796992481203008" fill="#FB0104" stroke="#FB0104" stroke-width="0" opacity="0.9" />
<rect x="718.6466165413534" y="190" height="9" width="1.8796992481203008" fill="#F90206" stroke="#F90206" stroke-width="0" opacity="0.9" />
<path d="M 10 201 C 5.5 201, 5.5 210, 10 210" fill="#009CA2" opacity="0.9" />
<rect x="10" y="201" height="9" width="93.98496240601504" fill="#009CA2" stroke="#009CA2" stroke-width="0" opacity="0.9" />
<rect x="10" y="202.62" height="3" width="93.98496240601504" fill="#F4EDF2" opacity="0.25" />
<rect x="103.98496240601504" y="201" height="9" width="545.1127819548872" fill="#D1D1D1" stroke="#D1D1D1" stroke-width="0" opacity="0.9" />
<rect x="103.98496240601504" y="202.62" height="3" width="545.1127819548872" fill="#F4EDF2" opacity="0.25" />
<line x1="649.0977443609022" y1="205.5" x2="666.0150375939849" y2="205.5" stroke="#BABABA" stroke-width="1.5" />
<rect x="666.0150375939849" y="201" height="9" width="93.98496240601504" fill="#009CA2" stroke="#009CA2" stroke-width="0" opacity="0.9" />
<rect x="666.0150375939849" y="202.62" height="3" width="93.98496240601504" fill="#F4EDF2" opacity="0.25" />
<path d="M 759.9999999999999 201 C 764.4999999999999 201, 764.4999999999999 210, 759.9999999999999 210" fill="#009CA2" opacity="0.9" />
<path d="M 10 212 C 5.5 212, 5.5 221, 10 221" fill="#009CA2" opacity="0.9" />
<rect x="10" y="212" height="9" width="93.98496240601504" fill="#009CA2" stroke="#009CA2" stroke-width="0" opacity="0.9" />
<rect x="10" y="213.62" height="3" width="93.98496240601504" fill="#F4EDF2" opacity="0.25" />
<rect x="103.98496240601504" y="212" height="9" width="545.1127819548872" fill="#D1D1D1" stroke="#D1D1D1" stroke-width="0" opacity="0.9" />
<rect x="103.98496240601504" y="213.62" height="3" width="545.1127819548872" fill="#F4EDF2" opacity="0.25" />
<line x1="649.0977443609022" y1="216.5" x2="666.0150375939849" y2="216.5" stroke="#BABABA" stroke-width="1.5" />
<rect x="666.0150375939849" y="212" height="9" width="93.98496240601504" fill="#009CA2" stroke="#009CA2" stroke-width="0" opacity="0.9" />
<rect x="666.0150375939849" y="213.62" height="3" width="93.98496240601504" fill="#F4EDF2" opacity="0.25" />
<path d="M 759.9999999999999 212 C 764.4999999999999 212, 764.4999999999999 221, 759.9999999999999 221" fill="#009CA2" opacity="0.9" />
<rect x="17.518796992481203" y="212" height="9" width="1.8796992481203008" fill="#FB0104" stroke="#FB0104" stroke-width="0" opacity="0.9" />
<rect x="182.93233082706766" y="212" height="9" width="1.8796992481203008" fill="#F5030A" stroke="#F5030A" stroke-width="0" opacity="0.9" />
<rect x="718.6466165413534" y="212" height="9" width="1.8796992481203008" fill="#C61039" stroke="#C61039" stroke-width="0" opacity="0.9" />
<path d="M 10 223 C 5.5 223, 5.5 232, 10 232" fill="#009CA2" opacity="0.9" />
<rect x="10" y="223" height="9" width="93.98496240601504" fill="#009CA2" stroke="#009CA2" stroke-width="0" opacity="0.9" />
<rect x="10" y="224.62" height="3" width="93.98496240601504" fill="#F4EDF2" opacity="0.25" />
<rect x="103.98496240601504" y="223" height="9" width="546.9924812030075" fill="#D1D1D1" stroke="#D1D1D1" stroke-width="0" opacity="0.9" />
<rect x="103.98496240601504" y="224.62" height="3" width="546.9924812030075" fill="#F4EDF2" opacity="0.25" />
<line x1="650.9774436090225" y1="227.5" x2="666.015037593985" y2="227.5" stroke="#BABABA" stroke-width="1.5" />
<rect x="666.015037593985" y="223" height="9" width="93.98496240601504" fill="#009CA2" stroke="#009CA2" stroke-width="0" opacity="0.9" />
<rect x="666.015037593985" y="224.62" height="3" width="93.98496240601504" fill="#F4EDF2" opacity="0.25" />
<path d="M 760 223 C 764.5 223, 764.5 232, 760 232" fill="#009CA2" opacity="0.9" />
<rect x="17.518796992481203" y="223" height="9" width="1.8796992481203008" fill="#233FDC" stroke="#233FDC" stroke-width="0" opacity="0.9" />
<rect x="182.93233082706766" y="223" height="9" width="1.8796992481203008" fill="#EE0511" stroke="#EE0511" stroke-width="0" opacity="0.9" />
<rect x="718.6466165413534" y="223" height="9" width="1.8796992481203008" fill="#0049FF" stroke="#0049FF" stroke-width="0" opacity="0.9" />
<path d="M 10 234 C 5.5 234, 5.5 243, 10 243" fill="#009CA2" opacity="0.9" />
<rect x="10" y="234" height="9" width="93.98496240601504" fill="#009CA2" stroke="#009CA2" stroke-width="0" opacity="0.9" />
<rect x="10" y="235.62" height="3" width="93.98496240601504" fill="#F4EDF2" opacity="0.25" />
<rect x="103.98496240601504" y="234" height="9" width="546.9924812030075" fill="#D1D1D1" stroke="#D1D1D1" stroke-width="0" opacity="0.9" />
<rect x="103.98496240601504" y="235.62" height="3" width="546.9924812030075" fill="#F4EDF2" opacity="0.25" />
<line x1="650.9774436090225" y1="238.5" x2="666.015037593985" y2="238.5" stroke="#BABABA" stroke-width="1.5" />
<rect x="666.015037593985" y="234" height="9" width="93.98496240601504" fill="#009CA2" stroke="#009CA2" stroke-width="0" opacity="0.9" />
<rect x="666.015037593985" y="235.62" height="3" width="93.98496240601504" fill="#F4EDF2" opacity="0.25" />
<path d="M 760 234 C 764.5 234, 764.5 243, 760 243" fill="#009CA2" opacity="0.9" />
<rect x="17.518796992481203" y="234" height="9" width="1.8796992481203008" fill="#F90206" stroke="#F90206" stroke-width="0" opacity="0.9" />
<rect x="182.93233082706766" y="234" height="9" width="1.8796992481203008" fill="#F60309" stroke="#F60309" stroke-width="0" opacity="0.9" />
<rect x="718.6466165413534" y="234" height="9" width="1.8796992481203008" fill="#B3164C" stroke="#B3164C" stroke-width="0" opacity="0.9" />
<path d="M 10 245 C 5.5 245, 5.5 254, 10 254" fill="#009CA2" opacity="0.9" />
<rect x="10" y="245" height="9" width="93.98496240601504" fill="#009CA2" stroke="#009CA2" stroke-width="0" opacity="0.9" />
<rect x="10" y="246.62" height="3" width="93.98496240601504" fill="#F4EDF2" opacity="0.25" />
<rect x="103.98496240601504" y="245" height="9" width="546.9924812030075" fill="#D1D1D1" stroke="#D1D1D1" stroke-width="0" opacity="0.9" />
<rect x="103.98496240601504" y="246.62" height="3" width="546.9924812030075" fill="#F4EDF2" opacity="0.25" />
<line x1="650.9774436090225" y1="249.5" x2="666.015037593985" y2="249.5" stroke="#BABABA" stroke-width="1.5" />
<rect x="666.015037593985" y="245" height="9" width="93.98496240601504" fill="#009CA2" stroke="#009CA2" stroke-width="0" opacity="0.9" />
<rect x="666.015037593985" y="246.62" height="3" width="93.98496240601504" fill="#F4EDF2" opacity="0.25" />
<path d="M 760 245 C 764.5 245, 764.5 254, 760 254" fill="#009CA2" opacity="0.9" />
<rect x="17.518796992481203" y="245" height="9" width="1.8796992481203008" fill="#C0123F" stroke="#C0123F" stroke-width="0" opacity="0.9" />
<rect x="182.93233082706766" y="245" height="9" width="1.8796992481203008" fill="#FF0000" stroke="#FF0000" stroke-width="0" opacity="0.9" />
<rect x="718.6466165413534" y="245" height="9" width="1.8796992481203008" fill="#FE0001" stroke="#FE0001" stroke-width="0" opacity="0.9" />
<path d="M 10 256 C 5.5 256, 5.5 265, 10 265" fill="#009CA2" opacity="0.9" />
<rect x="10" y="256" height="9" width="93.98496240601504" fill="#009CA2" stroke="#009CA2" stroke-width="0" opacity="0.9" />
<rect x="10" y="257.62" height="3" width="93.98496240601504" fill="#F4EDF2" opacity="0.25" />
<rect x="103.98496240601504" y="256" height="9" width="546.9924812030075" fill="#D1D1D1" stroke="#D1D1D1" stroke-width="0" opacity="0.9" />
<rect x="103.98496240601504" y="257.62" height="3" width="546.9924812030075" fill="#F4EDF2" opacity="0.25" />
<line x1="650.9774436090225" y1="260.5" x2="666.015037593985" y2="260.5" stroke="#BABABA" stroke-width="1.5" />
<rect x="666.015037593985" y="256" height="9" width="93.98496240601504" fill="#009CA2" stroke="#009CA2" stroke-width="0" opacity="0.9" />
<rect x="666.015037593985" y="257.62" height="3" width="93.98496240601504" fill="#F4EDF2" opacity="0.25" />
<path d="M 760 256 C 764.5 256, 764.5 265, 760 265" fill="#009CA2" opacity="0.9" />
<rect x="17.518796992481203" y="256" height="9" width="1.8796992481203008" fill="#FE0001" stroke="#FE0001" stroke-width="0" opacity="0.9" />
<rect x="182.93233082706766" y="256" height="9" width="1.8796992481203008" fill="#FE0001" stroke="#FE0001" stroke-width="0" opacity="0.9" />
<rect x="718.6466165413534" y="256" height="9" width="1.8796992481203008" fill="#FC0103" stroke="#FC0103" stroke-width="0" opacity="0.9" />
<path d="M 10 267 C 5.5 267, 5.5 276, 10 276" fill="#009CA2" opacity="0.9" />
<rect x="10" y="267" height="9" width="93.98496240601504" fill="#009CA2" stroke="#009CA2" stroke-width="0" opacity="0.9" />
<rect x="10" y="268.62" height="3" width="93.98496240601504" fill="#F4EDF2" opacity="0.25" />
<rect x="103.98496240601504" y="267" height="9" width="546.9924812030075" fill="#D1D1D1" stroke="#D1D1D1" stroke-width="0" opacity="0.9" />
<rect x="103.98496240601504" y="268.62" height="3" width="546.9924812030075" fill="#F4EDF2" opacity="0.25" />
<line x1="650.9774436090225" y1="271.5" x2="666.015037593985" y2="271.5" stroke="#BABABA" stroke-width="1.5" />
<rect x="666.015037593985" y="267" height="9" width="93.98496240601504" fill="#009CA2" stroke="#009CA2" stroke-width="0" opacity="0.9" />
<rect x="666.015037593985" y="268.62" height="3" width="93.98496240601504" fill="#F4EDF2" opacity="0.25" />
<path d="M 760 267 C 764.5 267, 764.5 276, 760 276" fill="#009CA2" opacity="0.9" />
<rect x="17.518796992481203" y="267" height="9" width="1.8796992481203008" fill="#FF0000" stroke="#FF0000" stroke-width="0" opacity="0.9" />
<rect x="182.93233082706766" y="267" height="9" width="1.8796992481203008" fill="#F4030B" stroke="#F4030B" stroke-width="0" opacity="0.9" />
<rect x="718.6466165413534" y="267" height="9" width="1.8796992481203008" fill="#FE0001" stroke="#FE0001" stroke-width="0" opacity="0.9" />
<path d="M 10 278 C 5.5 278, 5.5 287, 10 287" fill="#009CA2" opacity="0.9" />
<rect x="10" y="278" height="9" width="93.98496240601504" fill="#009CA2" stroke="#009CA2" stroke-width="0" opacity="0.9" />
<rect x="10" y="279.62" height="3" width="93.98496240601504" fill="#F4EDF2" opacity="0.25" />
<rect x="103.98496240601504" y="278" height="9" width="546.9924812030075" fill="#D1D1D1" stroke="#D1D1D1" stroke-width="0" opacity="0.9" />
<rect x="103.98496240601504" y="279.62" height="3" width="546.9924812030075" fill="#F4EDF2" opacity="0.25" />
<line x1="650.9774436090225" y1="282.5" x2="666.015037593985" y2="282.5" stroke="#BABABA" stroke-width="1.5" />
<rect x="666.015037593985" y="278" height="9" width="93.98496240601504" fill="#009CA2" stroke="#009CA2" stroke-width="0" opacity="0.9" />
<rect x="666.015037593985" y="279.62" height="3" width="93.98496240601504" fill="#F4EDF2" opacity="0.25" />
<path d="M 760 278 C 764.5 278, 764.5 287, 760 287" fill="#009CA2" opacity="0.9" />
<rect x="17.518796992481203" y="278" height="9" width="1.8796992481203008" fill="#B71548" stroke="#B71548" stroke-width="0" opacity="0.9" />
<rect x="182.93233082706766" y="278" height="9" width="1.8796992481203008" fill="#71298E" stroke="#71298E" stroke-width="0" opacity="0.9" />
<rect x="718.6466165413534" y="278" height="9" width="1.8796992481203008" fill="#682B97" stroke="#682B97" stroke-width="0" opacity="0.9" />
<path d="M 10 289 C 5.5 289, 5.5 298, 10 298" fill="#009CA2" opacity="0.9" />
<rect x="10" y="289" height="9" width="93.98496240601504" fill="#009CA2" stroke="#009CA2" stroke-width="0" opacity="0.9" />
<rect x="10" y="290.62" height="3" width="93.98496240601504" fill="#F4EDF2" opacity="0.25" />
<rect x="103.98496240601504" y="289" height="9" width="546.9924812030075" fill="#D1D1D1" stroke="#D1D1D1" stroke-width="0" opacity="0.9" />
<rect x="103.98496240601504" y="290.62" height="3" width="546.9924812030075" fill="#F4EDF2" opacity="0.25" />
<line x1="650.9774436090225" y1="293.5" x2="666.015037593985" y2="293.5" stroke="#BABABA" stroke-width="1.5" />
<rect x="666.015037593985" y="289" height="9" width="93.98496240601504" fill="#009CA2" stroke="#009CA2" stroke-width="0" opacity="0.9" />
<rect x="666.015037593985" y="290.62" height="3" width="93.98496240601504" fill="#F4EDF2" opacity="0.25" />
<path d="M 760 289 C 764.5 289, 764.5 298, 760 298" fill="#009CA2" opacity="0.9" />
<rect x="17.518796992481203" y="289" height="9" width="1.8796992481203008" fill="#FD0102" stroke="#FD0102" stroke-width="0" opacity="0.9" />
<rect x="182.93233082706766" y="289" height="9" width="1.8796992481203008" fill="#F90206" stroke="#F90206" stroke-width="0" opacity="0.9" />
<rect x="718.6466165413534" y="289" height="9" width="1.8796992481203008" fill="#E1091E" stroke="#E1091E" stroke-width="0" opacity="0.9" />
<path d="M 10 300 C 5.5 300, 5.5 309, 10 309" fill="#009CA2" opacity="0.9" />
<rect x="10" y="300" height="9" width="93.98496240601504" fill="#009CA2" stroke="#009CA2" stroke-width="0" opacity="0.9" />
<rect x="10" y="301.62" height="3" width="93.98496240601504" fill="#F4EDF2" opacity="0.25" />
<rect x="103.98496240601504" y="300" height="9" width="548.8721804511279" fill="#D1D1D1" stroke="#D1D1D1" stroke-width="0" opacity="0.9" />
<rect x="103.98496240601504" y="301.62" height="3" width="548.8721804511279" fill="#F4EDF2" opacity="0.25" />
<line x1="652.8571428571429" y1="304.5" x2="666.015037593985" y2="304.5" stroke="#BABABA" stroke-width="1.5" />
<rect x="666.015037593985" y="300" height="9" width="93.98496240601504" fill="#009CA2" stroke="#009CA2" stroke-width="0" opacity="0.9" />
<rect x="666.015037593985" y="301.62" height="3" width="93.98496240601504" fill="#F4EDF2" opacity="0.25" />
<path d="M 760 300 C 764.5 300, 764.5 309, 760 309" fill="#009CA2" opacity="0.9" />
<rect x="17.518796992481203" y="300" height="9" width="1.8796992481203008" fill="#85237A" stroke="#85237A" stroke-width="0" opacity="0.9" />
<rect x="181.05263157894737" y="300" height="9" width="1.8796992481203008" fill="#1643E9" stroke="#1643E9" stroke-width="0" opacity="0.9" />
<rect x="718.6466165413534" y="300" height="9" width="1.8796992481203008" fill="#0C46F3" stroke="#0C46F3" stroke-width="0" opacity="0.9" />
<path d="M 10 311 C 5.5 311, 5.5 320, 10 320" fill="#009CA2" opacity="0.9" />
<rect x="10" y="311" height="9" width="93.98496240601504" fill="#009CA2" stroke="#009CA2" stroke-width="0" opacity="0.9" />
<rect x="10" y="312.62" height="3" width="93.98496240601504" fill="#F4EDF2" opacity="0.25" />
<rect x="103.98496240601504" y="311" height="9" width="548.8721804511279" fill="#D1D1D1" stroke="#D1D1D1" stroke-width="0" opacity="0.9" />
<rect x="103.98496240601504" y="312.62" height="3" width="548.8721804511279" fill="#F4EDF2" opacity="0.25" />
<line x1="652.8571428571429" y1="315.5" x2="666.015037593985" y2="315.5" stroke="#BABABA" stroke-width="1.5" />
<rect x="666.015037593985" y="311" height="9" width="93.98496240601504" fill="#009CA2" stroke="#009CA2" stroke-width="0" opacity="0.9" />
<rect x="666.015037593985" y="312.62" height="3" width="93.98496240601504" fill="#F4EDF2" opacity="0.25" />
<path d="M 760 311 C 764.5 311, 764.5 320, 760 320" fill="#009CA2" opacity="0.9" />
<rect x="17.518796992481203" y="311" height="9" width="1.8796992481203008" fill="#612D9E" stroke="#612D9E" stroke-width="0" opacity="0.9" />
<rect x="182.93233082706766" y="311" height="9" width="1.8796992481203008" fill="#5930A6" stroke="#5930A6" stroke-width="0" opacity="0.9" />
<rect x="718.6466165413534" y="311" height="9" width="1.8796992481203008" fill="#F5030A" stroke="#F5030A" stroke-width="0" opacity="0.9" />
<path d="M 10 322 C 5.5 322, 5.5 331, 10 331" fill="#009CA2" opacity="0.9" />
<rect x="10" y="322" height="9" width="93.98496240601504" fill="#009CA2" stroke="#009CA2" stroke-width="0" opacity="0.9" />
<rect x="10" y="323.62" height="3" width="93.98496240601504" fill="#F4EDF2" opacity="0.25" />
<rect x="103.98496240601504" y="322" height="9" width="556.390977443609" fill="#D1D1D1" stroke="#D1D1D1" stroke-width="0" opacity="0.9" />
<rect x="103.98496240601504" y="323.62" height="3" width="556.390977443609" fill="#F4EDF2" opacity="0.25" />
<line x1="660.375939849624" y1="326.5" x2="666.015037593985" y2="326.5" stroke="#BABABA" stroke-width="1.5" />
<rect x="666.015037593985" y="322" height="9" width="93.98496240601504" fill="#009CA2" stroke="#009CA2" stroke-width="0" opacity="0.9" />
<rect x="666.015037593985" y="323.62" height="3" width="93.98496240601504" fill="#F4EDF2" opacity="0.25" />
<path d="M 760 322 C 764.5 322, 764.5 331, 760 331" fill="#009CA2" opacity="0.9" />
<rect x="17.518796992481203" y="322" height="9" width="1.8796992481203008" fill="#C81037" stroke="#C81037" stroke-width="0" opacity="0.9" />
<rect x="181.05263157894737" y="322" height="9" width="1.8796992481203008" fill="#FA0105" stroke="#FA0105" stroke-width="0" opacity="0.9" />
<rect x="718.6466165413534" y="322" height="9" width="1.8796992481203008" fill="#D60C29" stroke="#D60C29" stroke-width="0" opacity="0.9" />
<path d="M 10 333 C 5.5 333, 5.5 342, 10 342" fill="#009CA2" opacity="0.9" />
<rect x="10" y="333" height="9" width="93.98496240601504" fill="#009CA2" stroke="#009CA2" stroke-width="0" opacity="0.9" />
<rect x="10" y="334.62" height="3" width="93.98496240601504" fill="#F4EDF2" opacity="0.25" />
<rect x="103.98496240601504" y="333" height="9" width="558.2706766917294" fill="#D1D1D1" stroke="#D1D1D1" stroke-width="0" opacity="0.9" />
<rect x="103.98496240601504" y="334.62" height="3" width="558.2706766917294" fill="#F4EDF2" opacity="0.25" />
<line x1="662.2556390977444" y1="337.5" x2="666.015037593985" y2="337.5" stroke="#BABABA" stroke-width="1.5" />
<rect x="666.015037593985" y="333" height="9" width="93.98496240601504" fill="#009CA2" stroke="#009CA2" stroke-width="0" opacity="0.9" />
<rect x="666.015037593985" y="334.62" height="3" width="93.98496240601504" fill="#F4EDF2" opacity="0.25" />
<path d="M 760 333 C 764.5 333, 764.5 342, 760 342" fill="#009CA2" opacity="0.9" />
<rect x="17.518796992481203" y="333" height="9" width="1.8796992481203008" fill="#F90206" stroke="#F90206" stroke-width="0" opacity="0.9" />
<rect x="182.93233082706766" y="333" height="9" width="1.8796992481203008" fill="#E90616" stroke="#E90616" stroke-width="0" opacity="0.9" />
<rect x="718.6466165413534" y="333" height="9" width="1.8796992481203008" fill="#DA0B25" stroke="#DA0B25" stroke-width="0" opacity="0.9" />
<path d="M 10 344 C 5.5 344, 5.5 353, 10 353" fill="#009CA2" opacity="0.9" />
<rect x="10" y="344" height="9" width="93.98496240601504" fill="#009CA2" stroke="#009CA2" stroke-width="0" opacity="0.9" />
<rect x="10" y="345.62" height="3" width="93.98496240601504" fill="#F4EDF2" opacity="0.25" />
<rect x="103.98496240601504" y="344" height="9" width="562.0300751879699" fill="#D1D1D1" stroke="#D1D1D1" stroke-width="0" opacity="0.9" />
<rect x="103.98496240601504" y="345.62" height="3" width="562.0300751879699" fill="#F4EDF2" opacity="0.25" />
<rect x="666.015037593985" y="344" height="9" width="93.98496240601504" fill="#009CA2" stroke="#009CA2" stroke-width="0" opacity="0.9" />
<rect x="666.015037593985" y="345.62" height="3" width="93.98496240601504" fill="#F4EDF2" opacity="0.25" />
<path d="M 760 344 C 764.5 344, 764.5 353, 760 353" fill="#009CA2" opacity="0.9" />
<rect x="10" y="359" height="12" width="12" fill="#1383C6" stroke="#1383C6" stroke-width="0" opacity="0.9" />
<text x="24" y="370" font-family="monospace" font-weight="bold" font-size="14px" >AAAAG</text>
<rect x="79" y="359" height="12" width="12" fill="#814ED1" stroke="#814ED1" stroke-width="0" opacity="0.9" />
<text x="93" y="370" font-family="monospace" font-weight="bold" font-size="14px" >AAAGG</text>
<rect x="148" y="359" height="12" width="12" fill="#E16A2C" stroke="#E16A2C" stroke-width="0" opacity="0.9" />
<text x="162" y="370" font-family="monospace" font-weight="bold" font-size="14px" >AAGGG</text>
<rect x="217" y="359" height="12" width="12" fill="#ED3981" stroke="#ED3981" stroke-width="0" opacity="0.9" />
<text x="231" y="370" font-family="monospace" font-weight="bold" font-size="14px" >AAGAG</text>
<rect x="286" y="359" height="12" width="12" fill="#EFCD17" stroke="#EFCD17" stroke-width="0" opacity="0.9" />
<text x="300" y="370" font-family="monospace" font-weight="bold" font-size="14px" >AGAGG</text>
<rect x="355" y="359" height="12" width="12" fill="#009D4E" stroke="#009D4E" stroke-width="0" opacity="0.9" />
<text x="369" y="370" font-family="monospace" font-weight="bold" font-size="14px" >AACGG</text>
<rect x="424" y="359" height="12" width="12" fill="#E3371E" stroke="#E3371E" stroke-width="0" opacity="0.9" />
<text x="438" y="370" font-family="monospace" font-weight="bold" font-size="14px" >GGGAC</text>
<rect x="493" y="359" height="12" width="12" fill="#F0E68C" stroke="#F0E68C" stroke-width="0" opacity="0.9" />
<text x="507" y="370" font-family="monospace" font-weight="bold" font-size="14px" >AAAGGG</text>
</svg>
