<?xml version="1.0"?>
<svg xmlns="http://www.w3.org/2000/svg" xmlns:xlink="http://www.w3.org/1999/xlink" width="770.0000000000001" height="265">
<rect width="100%" height="100%" fill="white"/>
<path d="M 10 14 C 5.5 14, 5.5 23, 10 23" fill="#009CA2" opacity="0.9" />
<rect x="10" y="14" height="9" width="231.4814814814815" fill="#009CA2" stroke="#009CA2" stroke-width="0" opacity="0.9" />
<rect x="10" y="15.62" height="3" width="231.4814814814815" fill="#F4EDF2" opacity="0.25" />
<rect x="241.4814814814815" y="14" height="9" width="111.11111111111111" fill="#1383C6" stroke="#1383C6" stroke-width="0" opacity="0.9" />
<rect x="241.4814814814815" y="15.62" height="3" width="111.11111111111111" fill="#F4EDF2" opacity="0.25" />
<rect x="352.5925925925926" y="14" height="9" width="4.62962962962963" fill="#BABABA" stroke="#BABABA" stroke-width="0" opacity="0.9" />
<rect x="352.5925925925926" y="15.62" height="3" width="4.62962962962963" fill="#F4EDF2" opacity="0.25" />
<rect x="357.22222222222223" y="14" height="9" width="78.70370370370371" fill="#1383C6" stroke="#1383C6" stroke-width="0" opacity="0.9" />
<rect x="357.22222222222223" y="15.62" height="3" width="78.70370370370371" fill="#F4EDF2" opacity="0.25" />
<rect x="435.9259259259259" y="14" height="9" width="4.62962962962963" fill="#BABABA" stroke="#BABABA" stroke-width="0" opacity="0.9" />
<rect x="435.9259259259259" y="15.62" height="3" width="4.62962962962963" fill="#F4EDF2" opacity="0.25" />
<rect x="440.55555555555554" y="14" height="9" width="4.62962962962963" fill="#1383C6" stroke="#1383C6" stroke-width="0" opacity="0.9" />
<rect x="440.55555555555554" y="15.62" height="3" width="4.62962962962963" fill="#F4EDF2" opacity="0.25" />
<rect x="445.18518518518516" y="14" height="9" width="4.62962962962963" fill="#BABABA" stroke="#BABABA" stroke-width="0" opacity="0.9" />
<rect x="445.18518518518516" y="15.62" height="3" width="4.62962962962963" fill="#F4EDF2" opacity="0.25" />
<rect x="449.8148148148148" y="14" height="9" width="13.88888888888889" fill="#1383C6" stroke="#1383C6" stroke-width="0" opacity="0.9" />
<rect x="449.8148148148148" y="15.62" height="3" width="13.88888888888889" fill="#F4EDF2" opacity="0.25" />
<rect x="463.7037037037037" y="14" height="9" width="4.62962962962963" fill="#BABABA" stroke="#BABABA" stroke-width="0" opacity="0.9" />
<rect x="463.7037037037037" y="15.62" height="3" width="4.62962962962963" fill="#F4EDF2" opacity="0.25" />
<rect x="468.3333333333333" y="14" height="9" width="60.18518518518519" fill="#1383C6" stroke="#1383C6" stroke-width="0" opacity="0.9" />
<rect x="468.3333333333333" y="15.62" height="3" width="60.18518518518519" fill="#F4EDF2" opacity="0.25" />
<rect x="528.5185185185185" y="14" height="9" width="231.4814814814815" fill="#009CA2" stroke="#009CA2" stroke-width="0" opacity="0.9" />
<rect x="528.5185185185185" y="15.62" height="3" width="231.4814814814815" fill="#F4EDF2" opacity="0.25" />
<path d="M 760 14 C 764.5 14, 764.5 23, 760 23" fill="#009CA2" opacity="0.9" />
<line x1="241.4814814814815" y1="14" x2="241.4814814814815" y2="23" stroke="#000000" stroke-width="1.5" />
<line x1="528.5185185185186" y1="14" x2="528.5185185185186" y2="23" stroke="#000000" stroke-width="1.5" />
<line x1="10" y1="14" x2="760" y2="14" stroke="#000000" stroke-width="1.5" />
<line x1="10" y1="23" x2="760" y2="23" stroke="#000000" stroke-width="1.5" />
<path d="M 10 14 C 5.5 14, 5.5 23, 10 23" stroke="#000000" stroke-width="1.5" fill="none" opacity="0.9" />
<path d="M 760 14 C 764.5 14, 764.5 23, 760 23" stroke="#000000" stroke-width="1.5" fill="none" opacity="0.9" />
<line x1="241.4814814814815" y1="11.75" x2="241.4814814814815" y2="16.25" stroke="#000000" stroke-width="1.5" />
<text x="241.4814814814815" y="9.75" font-family="monospace" font-weight="bold" text-anchor="middle" font-size="10px" >0</text>
<line x1="255.37037037037038" y1="11.75" x2="255.37037037037038" y2="16.25" stroke="#000000" stroke-width="1.5" />
<line x1="269.25925925925924" y1="11.75" x2="269.25925925925924" y2="16.25" stroke="#000000" stroke-width="1.5" />
<line x1="283.14814814814815" y1="11.75" x2="283.14814814814815" y2="16.25" stroke="#000000" stroke-width="1.5" />
<line x1="297.03703703703707" y1="11.75" x2="297.03703703703707" y2="16.25" stroke="#000000" stroke-width="1.5" />
<line x1="310.9259259259259" y1="11.75" x2="310.9259259259259" y2="16.25" stroke="#000000" stroke-width="1.5" />
<text x="310.9259259259259" y="9.75" font-family="monospace" font-weight="bold" text-anchor="middle" font-size="10px" >5</text>
<line x1="324.81481481481484" y1="11.75" x2="324.81481481481484" y2="16.25" stroke="#000000" stroke-width="1.5" />
<line x1="338.7037037037037" y1="11.75" x2="338.7037037037037" y2="16.25" stroke="#000000" stroke-width="1.5" />
<line x1="352.5925925925926" y1="11.75" x2="352.5925925925926" y2="16.25" stroke="#000000" stroke-width="1.5" />
<line x1="366.48148148148147" y1="11.75" x2="366.48148148148147" y2="16.25" stroke="#000000" stroke-width="1.5" />
<line x1="380.3703703703704" y1="11.75" x2="380.3703703703704" y2="16.25" stroke="#000000" stroke-width="1.5" />
<text x="380.3703703703704" y="9.75" font-family="monospace" font-weight="bold" text-anchor="middle" font-size="10px" >10</text>
<line x1="394.2592592592593" y1="11.75" x2="394.2592592592593" y2="16.25" stroke="#000000" stroke-width="1.5" />
<line x1="408.14814814814815" y1="11.75" x2="408.14814814814815" y2="16.25" stroke="#000000" stroke-width="1.5" />
<line x1="422.03703703703707" y1="11.75" x2="422.03703703703707" y2="16.25" stroke="#000000" stroke-width="1.5" />
<line x1="435.9259259259259" y1="11.75" x2="435.9259259259259" y2="16.25" stroke="#000000" stroke-width="1.5" />
<line x1="449.81481481481484" y1="11.75" x2="449.81481481481484" y2="16.25" stroke="#000000" stroke-width="1.5" />
<text x="449.81481481481484" y="9.75" font-family="monospace" font-weight="bold" text-anchor="middle" font-size="10px" >15</text>
<line x1="463.7037037037037" y1="11.75" x2="463.7037037037037" y2="16.25" stroke="#000000" stroke-width="1.5" />
<line x1="477.5925925925926" y1="11.75" x2="477.5925925925926" y2="16.25" stroke="#000000" stroke-width="1.5" />
<line x1="491.4814814814815" y1="11.75" x2="491.4814814814815" y2="16.25" stroke="#000000" stroke-width="1.5" />
<line x1="505.3703703703704" y1="11.75" x2="505.3703703703704" y2="16.25" stroke="#000000" stroke-width="1.5" />
<line x1="519.2592592592594" y1="11.75" x2="519.2592592592594" y2="16.25" stroke="#000000" stroke-width="1.5" />
<text x="519.2592592592594" y="9.75" font-family="monospace" font-weight="bold" text-anchor="middle" font-size="10px" >20</text>
<path d="M 10 26 C 5.5 26, 5.5 35, 10 35" fill="#009CA2" opacity="0.9" />
<rect x="10" y="26" height="9" width="231.4814814814815" fill="#009CA2" stroke="#009CA2" stroke-width="0" opacity="0.9" />
<rect x="10" y="27.62" height="3" width="231.4814814814815" fill="#F4EDF2" opacity="0.25" />
<rect x="241.4814814814815" y="26" height="9" width="287.03703703703707" fill="#1383C6" stroke="#1383C6" stroke-width="0" opacity="0.9" />
<rect x="241.4814814814815" y="27.62" height="3" width="287.03703703703707" fill="#F4EDF2" opacity="0.25" />
<rect x="528.5185185185186" y="26" height="9" width="231.4814814814815" fill="#009CA2" stroke="#009CA2" stroke-width="0" opacity="0.9" />
<rect x="528.5185185185186" y="27.62" height="3" width="231.4814814814815" fill="#F4EDF2" opacity="0.25" />
<path d="M 760.0000000000001 26 C 764.5000000000001 26, 764.5000000000001 35, 760.0000000000001 35" fill="#009CA2" opacity="0.9" />
<path d="M 10 37 C 5.5 37, 5.5 46, 10 46" fill="#009CA2" opacity="0.9" />
<rect x="10" y="37" height="9" width="231.4814814814815" fill="#009CA2" stroke="#009CA2" stroke-width="0" opacity="0.9" />
<rect x="10" y="38.62" height="3" width="231.4814814814815" fill="#F4EDF2" opacity="0.25" />
<rect x="241.4814814814815" y="37" height="9" width="287.03703703703707" fill="#1383C6" stroke="#1383C6" stroke-width="0" opacity="0.9" />
<rect x="241.4814814814815" y="38.62" height="3" width="287.03703703703707" fill="#F4EDF2" opacity="0.25" />
<rect x="528.5185185185186" y="37" height="9" width="231.4814814814815" fill="#009CA2" stroke="#009CA2" stroke-width="0" opacity="0.9" />
<rect x="528.5185185185186" y="38.62" height="3" width="231.4814814814815" fill="#F4EDF2" opacity="0.25" />
<path d="M 760.0000000000001 37 C 764.5000000000001 37, 764.5000000000001 46, 760.0000000000001 46" fill="#009CA2" opacity="0.9" />
<path d="M 10 48 C 5.5 48, 5.5 57, 10 57" fill="#009CA2" opacity="0.9" />
<rect x="10" y="48" height="9" width="231.4814814814815" fill="#009CA2" stroke="#009CA2" stroke-width="0" opacity="0.9" />
<rect x="10" y="49.62" height="3" width="231.4814814814815" fill="#F4EDF2" opacity="0.25" />
<rect x="241.4814814814815" y="48" height="9" width="287.03703703703707" fill="#1383C6" stroke="#1383C6" stroke-width="0" opacity="0.9" />
<rect x="241.4814814814815" y="49.62" height="3" width="287.03703703703707" fill="#F4EDF2" opacity="0.25" />
<rect x="528.5185185185186" y="48" height="9" width="231.4814814814815" fill="#009CA2" stroke="#009CA2" stroke-width="0" opacity="0.9" />
<rect x="528.5185185185186" y="49.62" height="3" width="231.4814814814815" fill="#F4EDF2" opacity="0.25" />
<path d="M 760.0000000000001 48 C 764.5000000000001 48, 764.5000000000001 57, 760.0000000000001 57" fill="#009CA2" opacity="0.9" />
<path d="M 10 59 C 5.5 59, 5.5 68, 10 68" fill="#009CA2" opacity="0.9" />
<rect x="10" y="59" height="9" width="231.4814814814815" fill="#009CA2" stroke="#009CA2" stroke-width="0" opacity="0.9" />
<rect x="10" y="60.62" height="3" width="231.4814814814815" fill="#F4EDF2" opacity="0.25" />
<rect x="241.4814814814815" y="59" height="9" width="287.03703703703707" fill="#1383C6" stroke="#1383C6" stroke-width="0" opacity="0.9" />
<rect x="241.4814814814815" y="60.62" height="3" width="287.03703703703707" fill="#F4EDF2" opacity="0.25" />
<rect x="528.5185185185186" y="59" height="9" width="231.4814814814815" fill="#009CA2" stroke="#009CA2" stroke-width="0" opacity="0.9" />
<rect x="528.5185185185186" y="60.62" height="3" width="231.4814814814815" fill="#F4EDF2" opacity="0.25" />
<path d="M 760.0000000000001 59 C 764.5000000000001 59, 764.5000000000001 68, 760.0000000000001 68" fill="#009CA2" opacity="0.9" />
<path d="M 10 70 C 5.5 70, 5.5 79, 10 79" fill="#009CA2" opacity="0.9" />
<rect x="10" y="70" height="9" width="231.4814814814815" fill="#009CA2" stroke="#009CA2" stroke-width="0" opacity="0.9" />
<rect x="10" y="71.62" height="3" width="231.4814814814815" fill="#F4EDF2" opacity="0.25" />
<rect x="241.4814814814815" y="70" height="9" width="287.03703703703707" fill="#1383C6" stroke="#1383C6" stroke-width="0" opacity="0.9" />
<rect x="241.4814814814815" y="71.62" height="3" width="287.03703703703707" fill="#F4EDF2" opacity="0.25" />
<rect x="528.5185185185186" y="70" height="9" width="231.4814814814815" fill="#009CA2" stroke="#009CA2" stroke-width="0" opacity="0.9" />
<rect x="528.5185185185186" y="71.62" height="3" width="231.4814814814815" fill="#F4EDF2" opacity="0.25" />
<path d="M 760.0000000000001 70 C 764.5000000000001 70, 764.5000000000001 79, 760.0000000000001 79" fill="#009CA2" opacity="0.9" />
<path d="M 10 81 C 5.5 81, 5.5 90, 10 90" fill="#009CA2" opacity="0.9" />
<line x1="10" y1="85.5" x2="14.62962962962963" y2="85.5" stroke="#009CA2" stroke-width="1.5" />
<rect x="14.62962962962963" y="81" height="9" width="115.74074074074075" fill="#009CA2" stroke="#009CA2" stroke-width="0" opacity="0.9" />
<rect x="14.62962962962963" y="82.62" height="3" width="115.74074074074075" fill="#F4EDF2" opacity="0.25" />
<rect x="130.37037037037038" y="81" height="9" width="111.11111111111111" fill="#009CA2" stroke="#009CA2" stroke-width="0" opacity="0.9" />
<rect x="130.37037037037038" y="82.62" height="3" width="111.11111111111111" fill="#F4EDF2" opacity="0.25" />
<rect x="241.4814814814815" y="81" height="9" width="287.03703703703707" fill="#1383C6" stroke="#1383C6" stroke-width="0" opacity="0.9" />
<rect x="241.4814814814815" y="82.62" height="3" width="287.03703703703707" fill="#F4EDF2" opacity="0.25" />
<rect x="528.5185185185186" y="81" height="9" width="231.4814814814815" fill="#009CA2" stroke="#009CA2" stroke-width="0" opacity="0.9" />
<rect x="528.5185185185186" y="82.62" height="3" width="231.4814814814815" fill="#F4EDF2" opacity="0.25" />
<path d="M 760.0000000000001 81 C 764.5000000000001 81, 764.5000000000001 90, 760.0000000000001 90" fill="#009CA2" opacity="0.9" />
<line x1="130.37037037037038" y1="81" x2="130.37037037037038" y2="90" stroke="#000000" stroke-width="2" />
<path d="M 10 92 C 5.5 92, 5.5 101, 10 101" fill="#009CA2" opacity="0.9" />
<rect x="10" y="92" height="9" width="231.4814814814815" fill="#009CA2" stroke="#009CA2" stroke-width="0" opacity="0.9" />
<rect x="10" y="93.62" height="3" width="231.4814814814815" fill="#F4EDF2" opacity="0.25" />
<rect x="241.4814814814815" y="92" height="9" width="287.03703703703707" fill="#1383C6" stroke="#1383C6" stroke-width="0" opacity="0.9" />
<rect x="241.4814814814815" y="93.62" height="3" width="287.03703703703707" fill="#F4EDF2" opacity="0.25" />
<rect x="528.5185185185186" y="92" height="9" width="231.4814814814815" fill="#009CA2" stroke="#009CA2" stroke-width="0" opacity="0.9" />
<rect x="528.5185185185186" y="93.62" height="3" width="231.4814814814815" fill="#F4EDF2" opacity="0.25" />
<path d="M 760.0000000000001 92 C 764.5000000000001 92, 764.5000000000001 101, 760.0000000000001 101" fill="#009CA2" opacity="0.9" />
<path d="M 10 103 C 5.5 103, 5.5 112, 10 112" fill="#009CA2" opacity="0.9" />
<rect x="10" y="103" height="9" width="231.4814814814815" fill="#009CA2" stroke="#009CA2" stroke-width="0" opacity="0.9" />
<rect x="10" y="104.62" height="3" width="231.4814814814815" fill="#F4EDF2" opacity="0.25" />
<rect x="241.4814814814815" y="103" height="9" width="4.62962962962963" fill="#1383C6" stroke="#1383C6" stroke-width="0" opacity="0.9" />
<rect x="241.4814814814815" y="104.62" height="3" width="4.62962962962963" fill="#F4EDF2" opacity="0.25" />
<line x1="246.11111111111111" y1="107.5" x2="250.74074074074073" y2="107.5" stroke="#1383C6" stroke-width="1.5" />
<rect x="250.74074074074073" y="103" height="9" width="74.07407407407408" fill="#1383C6" stroke="#1383C6" stroke-width="0" opacity="0.9" />
<rect x="250.74074074074073" y="104.62" height="3" width="74.07407407407408" fill="#F4EDF2" opacity="0.25" />
<rect x="324.8148148148148" y="103" height="9" width="9.25925925925926" fill="#BABABA" stroke="#BABABA" stroke-width="0" opacity="0.9" />
<rect x="324.8148148148148" y="104.62" height="3" width="9.25925925925926" fill="#F4EDF2" opacity="0.25" />
<rect x="334.074074074074" y="103" height="9" width="4.62962962962963" fill="#1383C6" stroke="#1383C6" stroke-width="0" opacity="0.9" />
<rect x="334.074074074074" y="104.62" height="3" width="4.62962962962963" fill="#F4EDF2" opacity="0.25" />
<rect x="338.70370370370364" y="103" height="9" width="9.25925925925926" fill="#BABABA" stroke="#BABABA" stroke-width="0" opacity="0.9" />
<rect x="338.70370370370364" y="104.62" height="3" width="9.25925925925926" fill="#F4EDF2" opacity="0.25" />
<rect x="347.9629629629629" y="103" height="9" width="4.62962962962963" fill="#1383C6" stroke="#1383C6" stroke-width="0" opacity="0.9" />
<rect x="347.9629629629629" y="104.62" height="3" width="4.62962962962963" fill="#F4EDF2" opacity="0.25" />
<rect x="352.5925925925925" y="103" height="9" width="9.25925925925926" fill="#BABABA" stroke="#BABABA" stroke-width="0" opacity="0.9" />
<rect x="352.5925925925925" y="104.62" height="3" width="9.25925925925926" fill="#F4EDF2" opacity="0.25" />
<rect x="361.85185185185173" y="103" height="9" width="166.66666666666669" fill="#1383C6" stroke="#1383C6" stroke-width="0" opacity="0.9" />
<rect x="361.85185185185173" y="104.62" height="3" width="166.66666666666669" fill="#F4EDF2" opacity="0.25" />
<rect x="528.5185185185185" y="103" height="9" width="231.4814814814815" fill="#009CA2" stroke="#009CA2" stroke-width="0" opacity="0.9" />
<rect x="528.5185185185185" y="104.62" height="3" width="231.4814814814815" fill="#F4EDF2" opacity="0.25" />
<path d="M 760 103 C 764.5 103, 764.5 112, 760 112" fill="#009CA2" opacity="0.9" />
<path d="M 10 134 C 5.5 134, 5.5 143, 10 143" fill="#009CA2" opacity="0.9" />
<rect x="10" y="134" height="9" width="231.4814814814815" fill="#009CA2" stroke="#009CA2" stroke-width="0" opacity="0.9" />
<rect x="10" y="135.62" height="3" width="231.4814814814815" fill="#F4EDF2" opacity="0.25" />
<rect x="241.4814814814815" y="134" height="9" width="111.11111111111111" fill="#1383C6" stroke="#1383C6" stroke-width="0" opacity="0.9" />
<rect x="241.4814814814815" y="135.62" height="3" width="111.11111111111111" fill="#F4EDF2" opacity="0.25" />
<rect x="352.5925925925926" y="134" height="9" width="4.62962962962963" fill="#BABABA" stroke="#BABABA" stroke-width="0" opacity="0.9" />
<rect x="352.5925925925926" y="135.62" height="3" width="4.62962962962963" fill="#F4EDF2" opacity="0.25" />
<rect x="357.22222222222223" y="134" height="9" width="78.70370370370371" fill="#1383C6" stroke="#1383C6" stroke-width="0" opacity="0.9" />
<rect x="357.22222222222223" y="135.62" height="3" width="78.70370370370371" fill="#F4EDF2" opacity="0.25" />
<rect x="435.9259259259259" y="134" height="9" width="4.62962962962963" fill="#BABABA" stroke="#BABABA" stroke-width="0" opacity="0.9" />
<rect x="435.9259259259259" y="135.62" height="3" width="4.62962962962963" fill="#F4EDF2" opacity="0.25" />
<rect x="440.55555555555554" y="134" height="9" width="4.62962962962963" fill="#1383C6" stroke="#1383C6" stroke-width="0" opacity="0.9" />
<rect x="440.55555555555554" y="135.62" height="3" width="4.62962962962963" fill="#F4EDF2" opacity="0.25" />
<rect x="445.18518518518516" y="134" height="9" width="4.62962962962963" fill="#BABABA" stroke="#BABABA" stroke-width="0" opacity="0.9" />
<rect x="445.18518518518516" y="135.62" height="3" width="4.62962962962963" fill="#F4EDF2" opacity="0.25" />
<rect x="449.8148148148148" y="134" height="9" width="13.88888888888889" fill="#1383C6" stroke="#1383C6" stroke-width="0" opacity="0.9" />
<rect x="449.8148148148148" y="135.62" height="3" width="13.88888888888889" fill="#F4EDF2" opacity="0.25" />
<rect x="463.7037037037037" y="134" height="9" width="4.62962962962963" fill="#BABABA" stroke="#BABABA" stroke-width="0" opacity="0.9" />
<rect x="463.7037037037037" y="135.62" height="3" width="4.62962962962963" fill="#F4EDF2" opacity="0.25" />
<rect x="468.3333333333333" y="134" height="9" width="60.18518518518519" fill="#1383C6" stroke="#1383C6" stroke-width="0" opacity="0.9" />
<rect x="468.3333333333333" y="135.62" height="3" width="60.18518518518519" fill="#F4EDF2" opacity="0.25" />
<rect x="528.5185185185185" y="134" height="9" width="231.4814814814815" fill="#009CA2" stroke="#009CA2" stroke-width="0" opacity="0.9" />
<rect x="528.5185185185185" y="135.62" height="3" width="231.4814814814815" fill="#F4EDF2" opacity="0.25" />
<path d="M 760 134 C 764.5 134, 764.5 143, 760 143" fill="#009CA2" opacity="0.9" />
<line x1="241.4814814814815" y1="134" x2="241.4814814814815" y2="143" stroke="#000000" stroke-width="1.5" />
<line x1="528.5185185185186" y1="134" x2="528.5185185185186" y2="143" stroke="#000000" stroke-width="1.5" />
<line x1="10" y1="134" x2="760" y2="134" stroke="#000000" stroke-width="1.5" />
<line x1="10" y1="143" x2="760" y2="143" stroke="#000000" stroke-width="1.5" />
<path d="M 10 134 C 5.5 134, 5.5 143, 10 143" stroke="#000000" stroke-width="1.5" fill="none" opacity="0.9" />
<path d="M 760 134 C 764.5 134, 764.5 143, 760 143" stroke="#000000" stroke-width="1.5" fill="none" opacity="0.9" />
<line x1="241.4814814814815" y1="131.75" x2="241.4814814814815" y2="136.25" stroke="#000000" stroke-width="1.5" />
<text x="241.4814814814815" y="129.75" font-family="monospace" font-weight="bold" text-anchor="middle" font-size="10px" >0</text>
<line x1="255.37037037037038" y1="131.75" x2="255.37037037037038" y2="136.25" stroke="#000000" stroke-width="1.5" />
<line x1="269.25925925925924" y1="131.75" x2="269.25925925925924" y2="136.25" stroke="#000000" stroke-width="1.5" />
<line x1="283.14814814814815" y1="131.75" x2="283.14814814814815" y2="136.25" stroke="#000000" stroke-width="1.5" />
<line x1="297.03703703703707" y1="131.75" x2="297.03703703703707" y2="136.25" stroke="#000000" stroke-width="1.5" />
<line x1="310.9259259259259" y1="131.75" x2="310.9259259259259" y2="136.25" stroke="#000000" stroke-width="1.5" />
<text x="310.9259259259259" y="129.75" font-family="monospace" font-weight="bold" text-anchor="middle" font-size="10px" >5</text>
<line x1="324.81481481481484" y1="131.75" x2="324.81481481481484" y2="136.25" stroke="#000000" stroke-width="1.5" />
<line x1="338.7037037037037" y1="131.75" x2="338.7037037037037" y2="136.25" stroke="#000000" stroke-width="1.5" />
<line x1="352.5925925925926" y1="131.75" x2="352.5925925925926" y2="136.25" stroke="#000000" stroke-width="1.5" />
<line x1="366.48148148148147" y1="131.75" x2="366.48148148148147" y2="136.25" stroke="#000000" stroke-width="1.5" />
<line x1="380.3703703703704" y1="131.75" x2="380.3703703703704" y2="136.25" stroke="#000000" stroke-width="1.5" />
<text x="380.3703703703704" y="129.75" font-family="monospace" font-weight="bold" text-anchor="middle" font-size="10px" >10</text>
<line x1="394.2592592592593" y1="131.75" x2="394.2592592592593" y2="136.25" stroke="#000000" stroke-width="1.5" />
<line x1="408.14814814814815" y1="131.75" x2="408.14814814814815" y2="136.25" stroke="#000000" stroke-width="1.5" />
<line x1="422.03703703703707" y1="131.75" x2="422.03703703703707" y2="136.25" stroke="#000000" stroke-width="1.5" />
<line x1="435.9259259259259" y1="131.75" x2="435.9259259259259" y2="136.25" stroke="#000000" stroke-width="1.5" />
<line x1="449.81481481481484" y1="131.75" x2="449.81481481481484" y2="136.25" stroke="#000000" stroke-width="1.5" />
<text x="449.81481481481484" y="129.75" font-family="monospace" font-weight="bold" text-anchor="middle" font-size="10px" >15</text>
<line x1="463.7037037037037" y1="131.75" x2="463.7037037037037" y2="136.25" stroke="#000000" stroke-width="1.5" />
<line x1="477.5925925925926" y1="131.75" x2="477.5925925925926" y2="136.25" stroke="#000000" stroke-width="1.5" />
<line x1="491.4814814814815" y1="131.75" x2="491.4814814814815" y2="136.25" stroke="#000000" stroke-width="1.5" />
<line x1="505.3703703703704" y1="131.75" x2="505.3703703703704" y2="136.25" stroke="#000000" stroke-width="1.5" />
<line x1="519.2592592592594" y1="131.75" x2="519.2592592592594" y2="136.25" stroke="#000000" stroke-width="1.5" />
<text x="519.2592592592594" y="129.75" font-family="monospace" font-weight="bold" text-anchor="middle" font-size="10px" >20</text>
<path d="M 10 146 C 5.5 146, 5.5 155, 10 155" fill="#009CA2" opacity="0.9" />
<rect x="10" y="146" height="9" width="231.4814814814815" fill="#009CA2" stroke="#009CA2" stroke-width="0" opacity="0.9" />
<rect x="10" y="147.62" height="3" width="231.4814814814815" fill="#F4EDF2" opacity="0.25" />
<rect x="241.4814814814815" y="146" height="9" width="287.03703703703707" fill="#1383C6" stroke="#1383C6" stroke-width="0" opacity="0.9" />
<rect x="241.4814814814815" y="147.62" height="3" width="287.03703703703707" fill="#F4EDF2" opacity="0.25" />
<rect x="528.5185185185186" y="146" height="9" width="231.4814814814815" fill="#009CA2" stroke="#009CA2" stroke-width="0" opacity="0.9" />
<rect x="528.5185185185186" y="147.62" height="3" width="231.4814814814815" fill="#F4EDF2" opacity="0.25" />
<path d="M 760.0000000000001 146 C 764.5000000000001 146, 764.5000000000001 155, 760.0000000000001 155" fill="#009CA2" opacity="0.9" />
<path d="M 10 157 C 5.5 157, 5.5 166, 10 166" fill="#009CA2" opacity="0.9" />
<rect x="10" y="157" height="9" width="231.4814814814815" fill="#009CA2" stroke="#009CA2" stroke-width="0" opacity="0.9" />
<rect x="10" y="158.62" height="3" width="231.4814814814815" fill="#F4EDF2" opacity="0.25" />
<rect x="241.4814814814815" y="157" height="9" width="287.03703703703707" fill="#1383C6" stroke="#1383C6" stroke-width="0" opacity="0.9" />
<rect x="241.4814814814815" y="158.62" height="3" width="287.03703703703707" fill="#F4EDF2" opacity="0.25" />
<rect x="528.5185185185186" y="157" height="9" width="231.4814814814815" fill="#009CA2" stroke="#009CA2" stroke-width="0" opacity="0.9" />
<rect x="528.5185185185186" y="158.62" height="3" width="231.4814814814815" fill="#F4EDF2" opacity="0.25" />
<path d="M 760.0000000000001 157 C 764.5000000000001 157, 764.5000000000001 166, 760.0000000000001 166" fill="#009CA2" opacity="0.9" />
<path d="M 10 168 C 5.5 168, 5.5 177, 10 177" fill="#009CA2" opacity="0.9" />
<rect x="10" y="168" height="9" width="231.4814814814815" fill="#009CA2" stroke="#009CA2" stroke-width="0" opacity="0.9" />
<rect x="10" y="169.62" height="3" width="231.4814814814815" fill="#F4EDF2" opacity="0.25" />
<rect x="241.4814814814815" y="168" height="9" width="287.03703703703707" fill="#1383C6" stroke="#1383C6" stroke-width="0" opacity="0.9" />
<rect x="241.4814814814815" y="169.62" height="3" width="287.03703703703707" fill="#F4EDF2" opacity="0.25" />
<rect x="528.5185185185186" y="168" height="9" width="231.4814814814815" fill="#009CA2" stroke="#009CA2" stroke-width="0" opacity="0.9" />
<rect x="528.5185185185186" y="169.62" height="3" width="231.4814814814815" fill="#F4EDF2" opacity="0.25" />
<path d="M 760.0000000000001 168 C 764.5000000000001 168, 764.5000000000001 177, 760.0000000000001 177" fill="#009CA2" opacity="0.9" />
<path d="M 10 179 C 5.5 179, 5.5 188, 10 188" fill="#009CA2" opacity="0.9" />
<rect x="10" y="179" height="9" width="231.4814814814815" fill="#009CA2" stroke="#009CA2" stroke-width="0" opacity="0.9" />
<rect x="10" y="180.62" height="3" width="231.4814814814815" fill="#F4EDF2" opacity="0.25" />
<rect x="241.4814814814815" y="179" height="9" width="226.85185185185185" fill="#1383C6" stroke="#1383C6" stroke-width="0" opacity="0.9" />
<rect x="241.4814814814815" y="180.62" height="3" width="226.85185185185185" fill="#F4EDF2" opacity="0.25" />
<rect x="468.33333333333337" y="179" height="9" width="60.18518518518519" fill="#1383C6" stroke="#1383C6" stroke-width="0" opacity="0.9" />
<rect x="468.33333333333337" y="180.62" height="3" width="60.18518518518519" fill="#F4EDF2" opacity="0.25" />
<rect x="528.5185185185186" y="179" height="9" width="231.4814814814815" fill="#009CA2" stroke="#009CA2" stroke-width="0" opacity="0.9" />
<rect x="528.5185185185186" y="180.62" height="3" width="231.4814814814815" fill="#F4EDF2" opacity="0.25" />
<path d="M 760.0000000000001 179 C 764.5000000000001 179, 764.5000000000001 188, 760.0000000000001 188" fill="#009CA2" opacity="0.9" />
<line x1="468.33333333333337" y1="179" x2="468.33333333333337" y2="188" stroke="#000000" stroke-width="2" />
<path d="M 10 190 C 5.5 190, 5.5 199, 10 199" fill="#009CA2" opacity="0.9" />
<rect x="10" y="190" height="9" width="231.4814814814815" fill="#009CA2" stroke="#009CA2" stroke-width="0" opacity="0.9" />
<rect x="10" y="191.62" height="3" width="231.4814814814815" fill="#F4EDF2" opacity="0.25" />
<rect x="241.4814814814815" y="190" height="9" width="287.03703703703707" fill="#1383C6" stroke="#1383C6" stroke-width="0" opacity="0.9" />
<rect x="241.4814814814815" y="191.62" height="3" width="287.03703703703707" fill="#F4EDF2" opacity="0.25" />
<rect x="528.5185185185186" y="190" height="9" width="231.4814814814815" fill="#009CA2" stroke="#009CA2" stroke-width="0" opacity="0.9" />
<rect x="528.5185185185186" y="191.62" height="3" width="231.4814814814815" fill="#F4EDF2" opacity="0.25" />
<path d="M 760.0000000000001 190 C 764.5000000000001 190, 764.5000000000001 199, 760.0000000000001 199" fill="#009CA2" opacity="0.9" />
<path d="M 10 201 C 5.5 201, 5.5 210, 10 210" fill="#009CA2" opacity="0.9" />
<line x1="10" y1="205.5" x2="14.62962962962963" y2="205.5" stroke="#009CA2" stroke-width="1.5" />
<rect x="14.62962962962963" y="201" height="9" width="166.66666666666669" fill="#009CA2" stroke="#009CA2" stroke-width="0" opacity="0.9" />
<rect x="14.62962962962963" y="202.62" height="3" width="166.66666666666669" fill="#F4EDF2" opacity="0.25" />
<rect x="181.2962962962963" y="201" height="9" width="60.18518518518519" fill="#009CA2" stroke="#009CA2" stroke-width="0" opacity="0.9" />
<rect x="181.2962962962963" y="202.62" height="3" width="60.18518518518519" fill="#F4EDF2" opacity="0.25" />
<rect x="241.4814814814815" y="201" height="9" width="226.85185185185185" fill="#1383C6" stroke="#1383C6" stroke-width="0" opacity="0.9" />
<rect x="241.4814814814815" y="202.62" height="3" width="226.85185185185185" fill="#F4EDF2" opacity="0.25" />
<rect x="468.33333333333337" y="201" height="9" width="60.18518518518519" fill="#1383C6" stroke="#1383C6" stroke-width="0" opacity="0.9" />
<rect x="468.33333333333337" y="202.62" height="3" width="60.18518518518519" fill="#F4EDF2" opacity="0.25" />
<rect x="528.5185185185186" y="201" height="9" width="231.4814814814815" fill="#009CA2" stroke="#009CA2" stroke-width="0" opacity="0.9" />
<rect x="528.5185185185186" y="202.62" height="3" width="231.4814814814815" fill="#F4EDF2" opacity="0.25" />
<path d="M 760.0000000000001 201 C 764.5000000000001 201, 764.5000000000001 210, 760.0000000000001 210" fill="#009CA2" opacity="0.9" />
<line x1="181.2962962962963" y1="201" x2="181.2962962962963" y2="210" stroke="#000000" stroke-width="2" />
<line x1="468.33333333333337" y1="201" x2="468.33333333333337" y2="210" stroke="#000000" stroke-width="2" />
<path d="M 10 212 C 5.5 212, 5.5 221, 10 221" fill="#009CA2" opacity="0.9" />
<rect x="10" y="212" height="9" width="231.4814814814815" fill="#009CA2" stroke="#009CA2" stroke-width="0" opacity="0.9" />
<rect x="10" y="213.62" height="3" width="231.4814814814815" fill="#F4EDF2" opacity="0.25" />
<rect x="241.4814814814815" y="212" height="9" width="287.03703703703707" fill="#1383C6" stroke="#1383C6" stroke-width="0" opacity="0.9" />
<rect x="241.4814814814815" y="213.62" height="3" width="287.03703703703707" fill="#F4EDF2" opacity="0.25" />
<rect x="528.5185185185186" y="212" height="9" width="231.4814814814815" fill="#009CA2" stroke="#009CA2" stroke-width="0" opacity="0.9" />
<rect x="528.5185185185186" y="213.62" height="3" width="231.4814814814815" fill="#F4EDF2" opacity="0.25" />
<path d="M 760.0000000000001 212 C 764.5000000000001 212, 764.5000000000001 221, 760.0000000000001 221" fill="#009CA2" opacity="0.9" />
<path d="M 10 223 C 5.5 223, 5.5 232, 10 232" fill="#009CA2" opacity="0.9" />
<rect x="10" y="223" height="9" width="231.4814814814815" fill="#009CA2" stroke="#009CA2" stroke-width="0" opacity="0.9" />
<rect x="10" y="224.62" height="3" width="231.4814814814815" fill="#F4EDF2" opacity="0.25" />
<rect x="241.4814814814815" y="223" height="9" width="287.03703703703707" fill="#1383C6" stroke="#1383C6" stroke-width="0" opacity="0.9" />
<rect x="241.4814814814815" y="224.62" height="3" width="287.03703703703707" fill="#F4EDF2" opacity="0.25" />
<rect x="528.5185185185186" y="223" height="9" width="231.4814814814815" fill="#009CA2" stroke="#009CA2" stroke-width="0" opacity="0.9" />
<rect x="528.5185185185186" y="224.62" height="3" width="231.4814814814815" fill="#F4EDF2" opacity="0.25" />
<path d="M 760.0000000000001 223 C 764.5000000000001 223, 764.5000000000001 232, 760.0000000000001 232" fill="#009CA2" opacity="0.9" />
<path d="M 10 234 C 5.5 234, 5.5 243, 10 243" fill="#009CA2" opacity="0.9" />
<rect x="10" y="234" height="9" width="231.4814814814815" fill="#009CA2" stroke="#009CA2" stroke-width="0" opacity="0.9" />
<rect x="10" y="235.62" height="3" width="231.4814814814815" fill="#F4EDF2" opacity="0.25" />
<rect x="241.4814814814815" y="234" height="9" width="287.03703703703707" fill="#1383C6" stroke="#1383C6" stroke-width="0" opacity="0.9" />
<rect x="241.4814814814815" y="235.62" height="3" width="287.03703703703707" fill="#F4EDF2" opacity="0.25" />
<rect x="528.5185185185186" y="234" height="9" width="231.4814814814815" fill="#009CA2" stroke="#009CA2" stroke-width="0" opacity="0.9" />
<rect x="528.5185185185186" y="235.62" height="3" width="231.4814814814815" fill="#F4EDF2" opacity="0.25" />
<path d="M 760.0000000000001 234 C 764.5000000000001 234, 764.5000000000001 243, 760.0000000000001 243" fill="#009CA2" opacity="0.9" />
<rect x="10" y="249" height="12" width="12" fill="#1383C6" stroke="#1383C6" stroke-width="0" opacity="0.9" />
<text x="24" y="260" font-family="monospace" font-weight="bold" font-size="14px" >GCC</text>
</svg>
