<?xml version="1.0"?>
<svg xmlns="http://www.w3.org/2000/svg" xmlns:xlink="http://www.w3.org/1999/xlink" width="770.0000000000001" height="309">
<rect width="100%" height="100%" fill="white"/>
<path d="M 10 14 C 5.5 14, 5.5 23, 10 23" fill="#009CA2" opacity="0.9" />
<rect x="10" y="14" height="9" width="253.3783783783784" fill="#009CA2" stroke="#009CA2" stroke-width="0" opacity="0.9" />
<rect x="10" y="15.62" height="3" width="253.3783783783784" fill="#F4EDF2" opacity="0.25" />
<rect x="263.3783783783784" y="14" height="9" width="70.94594594594595" fill="#1383C6" stroke="#1383C6" stroke-width="0" opacity="0.9" />
<rect x="263.3783783783784" y="15.62" height="3" width="70.94594594594595" fill="#F4EDF2" opacity="0.25" />
<rect x="334.3243243243243" y="14" height="9" width="253.3783783783784" fill="#009CA2" stroke="#009CA2" stroke-width="0" opacity="0.9" />
<rect x="334.3243243243243" y="15.62" height="3" width="253.3783783783784" fill="#F4EDF2" opacity="0.25" />
<path d="M 587.7027027027027 14 C 592.2027027027027 14, 592.2027027027027 23, 587.7027027027027 23" fill="#009CA2" opacity="0.9" />
<line x1="263.3783783783784" y1="14" x2="263.3783783783784" y2="23" stroke="#000000" stroke-width="1.5" />
<line x1="334.3243243243243" y1="14" x2="334.3243243243243" y2="23" stroke="#000000" stroke-width="1.5" />
<line x1="10" y1="14" x2="587.7027027027027" y2="14" stroke="#000000" stroke-width="1.5" />
<line x1="10" y1="23" x2="587.7027027027027" y2="23" stroke="#000000" stroke-width="1.5" />
<path d="M 10 14 C 5.5 14, 5.5 23, 10 23" stroke="#000000" stroke-width="1.5" fill="none" opacity="0.9" />
<path d="M 587.7027027027027 14 C 592.2027027027027 14, 592.2027027027027 23, 587.7027027027027 23" stroke="#000000" stroke-width="1.5" fill="none" opacity="0.9" />
<line x1="263.3783783783784" y1="11.75" x2="263.3783783783784" y2="16.25" stroke="#000000" stroke-width="1.5" />
<text x="263.3783783783784" y="9.75" font-family="monospace" font-weight="bold" text-anchor="middle" font-size="10px" >0</text>
<line x1="273.5135135135135" y1="11.75" x2="273.5135135135135" y2="16.25" stroke="#000000" stroke-width="1.5" />
<line x1="283.64864864864865" y1="11.75" x2="283.64864864864865" y2="16.25" stroke="#000000" stroke-width="1.5" />
<line x1="293.7837837837838" y1="11.75" x2="293.7837837837838" y2="16.25" stroke="#000000" stroke-width="1.5" />
<line x1="303.9189189189189" y1="11.75" x2="303.9189189189189" y2="16.25" stroke="#000000" stroke-width="1.5" />
<line x1="314.05405405405406" y1="11.75" x2="314.05405405405406" y2="16.25" stroke="#000000" stroke-width="1.5" />
<text x="314.05405405405406" y="9.75" font-family="monospace" font-weight="bold" text-anchor="middle" font-size="10px" >5</text>
<line x1="324.18918918918916" y1="11.75" x2="324.18918918918916" y2="16.25" stroke="#000000" stroke-width="1.5" />
<path d="M 10 26 C 5.5 26, 5.5 35, 10 35" fill="#009CA2" opacity="0.9" />
<rect x="10" y="26" height="9" width="253.3783783783784" fill="#009CA2" stroke="#009CA2" stroke-width="0" opacity="0.9" />
<rect x="10" y="27.62" height="3" width="253.3783783783784" fill="#F4EDF2" opacity="0.25" />
<rect x="263.3783783783784" y="26" height="9" width="70.94594594594595" fill="#D1D1D1" stroke="#D1D1D1" stroke-width="0" opacity="0.9" />
<rect x="263.3783783783784" y="27.62" height="3" width="70.94594594594595" fill="#F4EDF2" opacity="0.25" />
<rect x="334.3243243243243" y="26" height="9" width="253.3783783783784" fill="#009CA2" stroke="#009CA2" stroke-width="0" opacity="0.9" />
<rect x="334.3243243243243" y="27.62" height="3" width="253.3783783783784" fill="#F4EDF2" opacity="0.25" />
<path d="M 587.7027027027027 26 C 592.2027027027027 26, 592.2027027027027 35, 587.7027027027027 35" fill="#009CA2" opacity="0.9" />
<path d="M 10 37 C 5.5 37, 5.5 46, 10 46" fill="#009CA2" opacity="0.9" />
<rect x="10" y="37" height="9" width="253.3783783783784" fill="#009CA2" stroke="#009CA2" stroke-width="0" opacity="0.9" />
<rect x="10" y="38.62" height="3" width="253.3783783783784" fill="#F4EDF2" opacity="0.25" />
<rect x="263.3783783783784" y="37" height="9" width="70.94594594594595" fill="#D1D1D1" stroke="#D1D1D1" stroke-width="0" opacity="0.9" />
<rect x="263.3783783783784" y="38.62" height="3" width="70.94594594594595" fill="#F4EDF2" opacity="0.25" />
<rect x="334.3243243243243" y="37" height="9" width="253.3783783783784" fill="#009CA2" stroke="#009CA2" stroke-width="0" opacity="0.9" />
<rect x="334.3243243243243" y="38.62" height="3" width="253.3783783783784" fill="#F4EDF2" opacity="0.25" />
<path d="M 587.7027027027027 37 C 592.2027027027027 37, 592.2027027027027 46, 587.7027027027027 46" fill="#009CA2" opacity="0.9" />
<path d="M 10 48 C 5.5 48, 5.5 57, 10 57" fill="#009CA2" opacity="0.9" />
<rect x="10" y="48" height="9" width="253.3783783783784" fill="#009CA2" stroke="#009CA2" stroke-width="0" opacity="0.9" />
<rect x="10" y="49.62" height="3" width="253.3783783783784" fill="#F4EDF2" opacity="0.25" />
<rect x="263.3783783783784" y="48" height="9" width="70.94594594594595" fill="#D1D1D1" stroke="#D1D1D1" stroke-width="0" opacity="0.9" />
<rect x="263.3783783783784" y="49.62" height="3" width="70.94594594594595" fill="#F4EDF2" opacity="0.25" />
<rect x="334.3243243243243" y="48" height="9" width="253.3783783783784" fill="#009CA2" stroke="#009CA2" stroke-width="0" opacity="0.9" />
<rect x="334.3243243243243" y="49.62" height="3" width="253.3783783783784" fill="#F4EDF2" opacity="0.25" />
<path d="M 587.7027027027027 48 C 592.2027027027027 48, 592.2027027027027 57, 587.7027027027027 57" fill="#009CA2" opacity="0.9" />
<path d="M 10 59 C 5.5 59, 5.5 68, 10 68" fill="#009CA2" opacity="0.9" />
<rect x="10" y="59" height="9" width="253.3783783783784" fill="#009CA2" stroke="#009CA2" stroke-width="0" opacity="0.9" />
<rect x="10" y="60.62" height="3" width="253.3783783783784" fill="#F4EDF2" opacity="0.25" />
<rect x="263.3783783783784" y="59" height="9" width="70.94594594594595" fill="#D1D1D1" stroke="#D1D1D1" stroke-width="0" opacity="0.9" />
<rect x="263.3783783783784" y="60.62" height="3" width="70.94594594594595" fill="#F4EDF2" opacity="0.25" />
<rect x="334.3243243243243" y="59" height="9" width="253.3783783783784" fill="#009CA2" stroke="#009CA2" stroke-width="0" opacity="0.9" />
<rect x="334.3243243243243" y="60.62" height="3" width="253.3783783783784" fill="#F4EDF2" opacity="0.25" />
<path d="M 587.7027027027027 59 C 592.2027027027027 59, 592.2027027027027 68, 587.7027027027027 68" fill="#009CA2" opacity="0.9" />
<path d="M 10 70 C 5.5 70, 5.5 79, 10 79" fill="#009CA2" opacity="0.9" />
<rect x="10" y="70" height="9" width="253.3783783783784" fill="#009CA2" stroke="#009CA2" stroke-width="0" opacity="0.9" />
<rect x="10" y="71.62" height="3" width="253.3783783783784" fill="#F4EDF2" opacity="0.25" />
<rect x="263.3783783783784" y="70" height="9" width="70.94594594594595" fill="#D1D1D1" stroke="#D1D1D1" stroke-width="0" opacity="0.9" />
<rect x="263.3783783783784" y="71.62" height="3" width="70.94594594594595" fill="#F4EDF2" opacity="0.25" />
<rect x="334.3243243243243" y="70" height="9" width="253.3783783783784" fill="#009CA2" stroke="#009CA2" stroke-width="0" opacity="0.9" />
<rect x="334.3243243243243" y="71.62" height="3" width="253.3783783783784" fill="#F4EDF2" opacity="0.25" />
<path d="M 587.7027027027027 70 C 592.2027027027027 70, 592.2027027027027 79, 587.7027027027027 79" fill="#009CA2" opacity="0.9" />
<path d="M 10 81 C 5.5 81, 5.5 90, 10 90" fill="#009CA2" opacity="0.9" />
<rect x="10" y="81" height="9" width="253.3783783783784" fill="#009CA2" stroke="#009CA2" stroke-width="0" opacity="0.9" />
<rect x="10" y="82.62" height="3" width="253.3783783783784" fill="#F4EDF2" opacity="0.25" />
<rect x="263.3783783783784" y="81" height="9" width="70.94594594594595" fill="#D1D1D1" stroke="#D1D1D1" stroke-width="0" opacity="0.9" />
<rect x="263.3783783783784" y="82.62" height="3" width="70.94594594594595" fill="#F4EDF2" opacity="0.25" />
<rect x="334.3243243243243" y="81" height="9" width="253.3783783783784" fill="#009CA2" stroke="#009CA2" stroke-width="0" opacity="0.9" />
<rect x="334.3243243243243" y="82.62" height="3" width="253.3783783783784" fill="#F4EDF2" opacity="0.25" />
<path d="M 587.7027027027027 81 C 592.2027027027027 81, 592.2027027027027 90, 587.7027027027027 90" fill="#009CA2" opacity="0.9" />
<path d="M 10 92 C 5.5 92, 5.5 101, 10 101" fill="#009CA2" opacity="0.9" />
<rect x="10" y="92" height="9" width="253.3783783783784" fill="#009CA2" stroke="#009CA2" stroke-width="0" opacity="0.9" />
<rect x="10" y="93.62" height="3" width="253.3783783783784" fill="#F4EDF2" opacity="0.25" />
<rect x="263.3783783783784" y="92" height="9" width="70.94594594594595" fill="#D1D1D1" stroke="#D1D1D1" stroke-width="0" opacity="0.9" />
<rect x="263.3783783783784" y="93.62" height="3" width="70.94594594594595" fill="#F4EDF2" opacity="0.25" />
<rect x="334.3243243243243" y="92" height="9" width="253.3783783783784" fill="#009CA2" stroke="#009CA2" stroke-width="0" opacity="0.9" />
<rect x="334.3243243243243" y="93.62" height="3" width="253.3783783783784" fill="#F4EDF2" opacity="0.25" />
<path d="M 587.7027027027027 92 C 592.2027027027027 92, 592.2027027027027 101, 587.7027027027027 101" fill="#009CA2" opacity="0.9" />
<path d="M 10 103 C 5.5 103, 5.5 112, 10 112" fill="#009CA2" opacity="0.9" />
<rect x="10" y="103" height="9" width="253.3783783783784" fill="#009CA2" stroke="#009CA2" stroke-width="0" opacity="0.9" />
<rect x="10" y="104.62" height="3" width="253.3783783783784" fill="#F4EDF2" opacity="0.25" />
<rect x="263.3783783783784" y="103" height="9" width="70.94594594594595" fill="#D1D1D1" stroke="#D1D1D1" stroke-width="0" opacity="0.9" />
<rect x="263.3783783783784" y="104.62" height="3" width="70.94594594594595" fill="#F4EDF2" opacity="0.25" />
<rect x="334.3243243243243" y="103" height="9" width="253.3783783783784" fill="#009CA2" stroke="#009CA2" stroke-width="0" opacity="0.9" />
<rect x="334.3243243243243" y="104.62" height="3" width="253.3783783783784" fill="#F4EDF2" opacity="0.25" />
<path d="M 587.7027027027027 103 C 592.2027027027027 103, 592.2027027027027 112, 587.7027027027027 112" fill="#009CA2" opacity="0.9" />
<path d="M 10 114 C 5.5 114, 5.5 123, 10 123" fill="#009CA2" opacity="0.9" />
<rect x="10" y="114" height="9" width="253.3783783783784" fill="#009CA2" stroke="#009CA2" stroke-width="0" opacity="0.9" />
<rect x="10" y="115.62" height="3" width="253.3783783783784" fill="#F4EDF2" opacity="0.25" />
<rect x="263.3783783783784" y="114" height="9" width="70.94594594594595" fill="#D1D1D1" stroke="#D1D1D1" stroke-width="0" opacity="0.9" />
<rect x="263.3783783783784" y="115.62" height="3" width="70.94594594594595" fill="#F4EDF2" opacity="0.25" />
<rect x="334.3243243243243" y="114" height="9" width="91.21621621621621" fill="#009CA2" stroke="#009CA2" stroke-width="0" opacity="0.9" />
<rect x="334.3243243243243" y="115.62" height="3" width="91.21621621621621" fill="#F4EDF2" opacity="0.25" />
<rect x="425.5405405405405" y="114" height="9" width="157.09459459459458" fill="#009CA2" stroke="#009CA2" stroke-width="0" opacity="0.9" />
<rect x="425.5405405405405" y="115.62" height="3" width="157.09459459459458" fill="#F4EDF2" opacity="0.25" />
<line x1="582.6351351351351" y1="118.5" x2="587.7027027027027" y2="118.5" stroke="#009CA2" stroke-width="1.5" />
<path d="M 587.7027027027027 114 C 592.2027027027027 114, 592.2027027027027 123, 587.7027027027027 123" fill="#009CA2" opacity="0.9" />
<line x1="425.5405405405405" y1="114" x2="425.5405405405405" y2="123" stroke="#000000" stroke-width="2" />
<path d="M 10 125 C 5.5 125, 5.5 134, 10 134" fill="#009CA2" opacity="0.9" />
<rect x="10" y="125" height="9" width="253.3783783783784" fill="#009CA2" stroke="#009CA2" stroke-width="0" opacity="0.9" />
<rect x="10" y="126.62" height="3" width="253.3783783783784" fill="#F4EDF2" opacity="0.25" />
<rect x="263.3783783783784" y="125" height="9" width="70.94594594594595" fill="#D1D1D1" stroke="#D1D1D1" stroke-width="0" opacity="0.9" />
<rect x="263.3783783783784" y="126.62" height="3" width="70.94594594594595" fill="#F4EDF2" opacity="0.25" />
<rect x="334.3243243243243" y="125" height="9" width="253.3783783783784" fill="#009CA2" stroke="#009CA2" stroke-width="0" opacity="0.9" />
<rect x="334.3243243243243" y="126.62" height="3" width="253.3783783783784" fill="#F4EDF2" opacity="0.25" />
<path d="M 587.7027027027027 125 C 592.2027027027027 125, 592.2027027027027 134, 587.7027027027027 134" fill="#009CA2" opacity="0.9" />
<path d="M 10 136 C 5.5 136, 5.5 145, 10 145" fill="#009CA2" opacity="0.9" />
<rect x="10" y="136" height="9" width="253.3783783783784" fill="#009CA2" stroke="#009CA2" stroke-width="0" opacity="0.9" />
<rect x="10" y="137.62" height="3" width="253.3783783783784" fill="#F4EDF2" opacity="0.25" />
<rect x="263.3783783783784" y="136" height="9" width="30.405405405405403" fill="#D1D1D1" stroke="#D1D1D1" stroke-width="0" opacity="0.9" />
<rect x="263.3783783783784" y="137.62" height="3" width="30.405405405405403" fill="#F4EDF2" opacity="0.25" />
<rect x="293.7837837837838" y="136" height="9" width="40.54054054054054" fill="#D1D1D1" stroke="#D1D1D1" stroke-width="0" opacity="0.9" />
<rect x="293.7837837837838" y="137.62" height="3" width="40.54054054054054" fill="#F4EDF2" opacity="0.25" />
<rect x="334.3243243243243" y="136" height="9" width="253.3783783783784" fill="#009CA2" stroke="#009CA2" stroke-width="0" opacity="0.9" />
<rect x="334.3243243243243" y="137.62" height="3" width="253.3783783783784" fill="#F4EDF2" opacity="0.25" />
<path d="M 587.7027027027027 136 C 592.2027027027027 136, 592.2027027027027 145, 587.7027027027027 145" fill="#009CA2" opacity="0.9" />
<line x1="293.7837837837838" y1="136" x2="293.7837837837838" y2="145" stroke="#000000" stroke-width="2" />
<path d="M 10 147 C 5.5 147, 5.5 156, 10 156" fill="#009CA2" opacity="0.9" />
<rect x="10" y="147" height="9" width="253.3783783783784" fill="#009CA2" stroke="#009CA2" stroke-width="0" opacity="0.9" />
<rect x="10" y="148.62" height="3" width="253.3783783783784" fill="#F4EDF2" opacity="0.25" />
<rect x="263.3783783783784" y="147" height="9" width="70.94594594594595" fill="#D1D1D1" stroke="#D1D1D1" stroke-width="0" opacity="0.9" />
<rect x="263.3783783783784" y="148.62" height="3" width="70.94594594594595" fill="#F4EDF2" opacity="0.25" />
<rect x="334.3243243243243" y="147" height="9" width="253.3783783783784" fill="#009CA2" stroke="#009CA2" stroke-width="0" opacity="0.9" />
<rect x="334.3243243243243" y="148.62" height="3" width="253.3783783783784" fill="#F4EDF2" opacity="0.25" />
<path d="M 587.7027027027027 147 C 592.2027027027027 147, 592.2027027027027 156, 587.7027027027027 156" fill="#009CA2" opacity="0.9" />
<path d="M 10 158 C 5.5 158, 5.5 167, 10 167" fill="#009CA2" opacity="0.9" />
<rect x="10" y="158" height="9" width="253.3783783783784" fill="#009CA2" stroke="#009CA2" stroke-width="0" opacity="0.9" />
<rect x="10" y="159.62" height="3" width="253.3783783783784" fill="#F4EDF2" opacity="0.25" />
<rect x="263.3783783783784" y="158" height="9" width="70.94594594594595" fill="#D1D1D1" stroke="#D1D1D1" stroke-width="0" opacity="0.9" />
<rect x="263.3783783783784" y="159.62" height="3" width="70.94594594594595" fill="#F4EDF2" opacity="0.25" />
<rect x="334.3243243243243" y="158" height="9" width="253.3783783783784" fill="#009CA2" stroke="#009CA2" stroke-width="0" opacity="0.9" />
<rect x="334.3243243243243" y="159.62" height="3" width="253.3783783783784" fill="#F4EDF2" opacity="0.25" />
<path d="M 587.7027027027027 158 C 592.2027027027027 158, 592.2027027027027 167, 587.7027027027027 167" fill="#009CA2" opacity="0.9" />
<path d="M 10 169 C 5.5 169, 5.5 178, 10 178" fill="#009CA2" opacity="0.9" />
<rect x="10" y="169" height="9" width="253.3783783783784" fill="#009CA2" stroke="#009CA2" stroke-width="0" opacity="0.9" />
<rect x="10" y="170.62" height="3" width="253.3783783783784" fill="#F4EDF2" opacity="0.25" />
<rect x="263.3783783783784" y="169" height="9" width="70.94594594594595" fill="#D1D1D1" stroke="#D1D1D1" stroke-width="0" opacity="0.9" />
<rect x="263.3783783783784" y="170.62" height="3" width="70.94594594594595" fill="#F4EDF2" opacity="0.25" />
<rect x="334.3243243243243" y="169" height="9" width="253.3783783783784" fill="#009CA2" stroke="#009CA2" stroke-width="0" opacity="0.9" />
<rect x="334.3243243243243" y="170.62" height="3" width="253.3783783783784" fill="#F4EDF2" opacity="0.25" />
<path d="M 587.7027027027027 169 C 592.2027027027027 169, 592.2027027027027 178, 587.7027027027027 178" fill="#009CA2" opacity="0.9" />
<path d="M 10 180 C 5.5 180, 5.5 189, 10 189" fill="#009CA2" opacity="0.9" />
<rect x="10" y="180" height="9" width="253.3783783783784" fill="#009CA2" stroke="#009CA2" stroke-width="0" opacity="0.9" />
<rect x="10" y="181.62" height="3" width="253.3783783783784" fill="#F4EDF2" opacity="0.25" />
<rect x="263.3783783783784" y="180" height="9" width="70.94594594594595" fill="#D1D1D1" stroke="#D1D1D1" stroke-width="0" opacity="0.9" />
<rect x="263.3783783783784" y="181.62" height="3" width="70.94594594594595" fill="#F4EDF2" opacity="0.25" />
<rect x="334.3243243243243" y="180" height="9" width="253.3783783783784" fill="#009CA2" stroke="#009CA2" stroke-width="0" opacity="0.9" />
<rect x="334.3243243243243" y="181.62" height="3" width="253.3783783783784" fill="#F4EDF2" opacity="0.25" />
<path d="M 587.7027027027027 180 C 592.2027027027027 180, 592.2027027027027 189, 587.7027027027027 189" fill="#009CA2" opacity="0.9" />
<path d="M 10 191 C 5.5 191, 5.5 200, 10 200" fill="#009CA2" opacity="0.9" />
<rect x="10" y="191" height="9" width="253.3783783783784" fill="#009CA2" stroke="#009CA2" stroke-width="0" opacity="0.9" />
<rect x="10" y="192.62" height="3" width="253.3783783783784" fill="#F4EDF2" opacity="0.25" />
<rect x="263.3783783783784" y="191" height="9" width="70.94594594594595" fill="#D1D1D1" stroke="#D1D1D1" stroke-width="0" opacity="0.9" />
<rect x="263.3783783783784" y="192.62" height="3" width="70.94594594594595" fill="#F4EDF2" opacity="0.25" />
<rect x="334.3243243243243" y="191" height="9" width="253.3783783783784" fill="#009CA2" stroke="#009CA2" stroke-width="0" opacity="0.9" />
<rect x="334.3243243243243" y="192.62" height="3" width="253.3783783783784" fill="#F4EDF2" opacity="0.25" />
<path d="M 587.7027027027027 191 C 592.2027027027027 191, 592.2027027027027 200, 587.7027027027027 200" fill="#009CA2" opacity="0.9" />
<path d="M 10 222 C 5.5 222, 5.5 231, 10 231" fill="#009CA2" opacity="0.9" />
<rect x="10" y="222" height="9" width="253.3783783783784" fill="#009CA2" stroke="#009CA2" stroke-width="0" opacity="0.9" />
<rect x="10" y="223.62" height="3" width="253.3783783783784" fill="#F4EDF2" opacity="0.25" />
<rect x="263.3783783783784" y="222" height="9" width="65.87837837837837" fill="#1383C6" stroke="#1383C6" stroke-width="0" opacity="0.9" />
<rect x="263.3783783783784" y="223.62" height="3" width="65.87837837837837" fill="#F4EDF2" opacity="0.25" />
<rect x="329.2567567567568" y="222" height="9" width="5.0675675675675675" fill="#BABABA" stroke="#BABABA" stroke-width="0" opacity="0.9" />
<rect x="329.2567567567568" y="223.62" height="3" width="5.0675675675675675" fill="#F4EDF2" opacity="0.25" />
<rect x="334.3243243243243" y="222" height="9" width="76.01351351351352" fill="#1383C6" stroke="#1383C6" stroke-width="0" opacity="0.9" />
<rect x="334.3243243243243" y="223.62" height="3" width="76.01351351351352" fill="#F4EDF2" opacity="0.25" />
<rect x="410.3378378378378" y="222" height="9" width="5.0675675675675675" fill="#BABABA" stroke="#BABABA" stroke-width="0" opacity="0.9" />
<rect x="410.3378378378378" y="223.62" height="3" width="5.0675675675675675" fill="#F4EDF2" opacity="0.25" />
<rect x="415.40540540540536" y="222" height="9" width="76.01351351351352" fill="#1383C6" stroke="#1383C6" stroke-width="0" opacity="0.9" />
<rect x="415.40540540540536" y="223.62" height="3" width="76.01351351351352" fill="#F4EDF2" opacity="0.25" />
<rect x="491.41891891891885" y="222" height="9" width="5.0675675675675675" fill="#BABABA" stroke="#BABABA" stroke-width="0" opacity="0.9" />
<rect x="491.41891891891885" y="223.62" height="3" width="5.0675675675675675" fill="#F4EDF2" opacity="0.25" />
<rect x="496.4864864864864" y="222" height="9" width="10.135135135135135" fill="#1383C6" stroke="#1383C6" stroke-width="0" opacity="0.9" />
<rect x="496.4864864864864" y="223.62" height="3" width="10.135135135135135" fill="#F4EDF2" opacity="0.25" />
<rect x="506.62162162162156" y="222" height="9" width="253.3783783783784" fill="#009CA2" stroke="#009CA2" stroke-width="0" opacity="0.9" />
<rect x="506.62162162162156" y="223.62" height="3" width="253.3783783783784" fill="#F4EDF2" opacity="0.25" />
<path d="M 760 222 C 764.5 222, 764.5 231, 760 231" fill="#009CA2" opacity="0.9" />
<line x1="263.3783783783784" y1="222" x2="263.3783783783784" y2="231" stroke="#000000" stroke-width="1.5" />
<line x1="506.6216216216216" y1="222" x2="506.6216216216216" y2="231" stroke="#000000" stroke-width="1.5" />
<line x1="10" y1="222" x2="760" y2="222" stroke="#000000" stroke-width="1.5" />
<line x1="10" y1="231" x2="760" y2="231" stroke="#000000" stroke-width="1.5" />
<path d="M 10 222 C 5.5 222, 5.5 231, 10 231" stroke="#000000" stroke-width="1.5" fill="none" opacity="0.9" />
<path d="M 760 222 C 764.5 222, 764.5 231, 760 231" stroke="#000000" stroke-width="1.5" fill="none" opacity="0.9" />
<line x1="263.3783783783784" y1="219.75" x2="263.3783783783784" y2="224.25" stroke="#000000" stroke-width="1.5" />
<text x="263.3783783783784" y="217.75" font-family="monospace" font-weight="bold" text-anchor="middle" font-size="10px" >0</text>
<line x1="273.5135135135135" y1="219.75" x2="273.5135135135135" y2="224.25" stroke="#000000" stroke-width="1.5" />
<line x1="283.64864864864865" y1="219.75" x2="283.64864864864865" y2="224.25" stroke="#000000" stroke-width="1.5" />
<line x1="293.7837837837838" y1="219.75" x2="293.7837837837838" y2="224.25" stroke="#000000" stroke-width="1.5" />
<line x1="303.9189189189189" y1="219.75" x2="303.9189189189189" y2="224.25" stroke="#000000" stroke-width="1.5" />
<line x1="314.05405405405406" y1="219.75" x2="314.05405405405406" y2="224.25" stroke="#000000" stroke-width="1.5" />
<text x="314.05405405405406" y="217.75" font-family="monospace" font-weight="bold" text-anchor="middle" font-size="10px" >5</text>
<line x1="324.18918918918916" y1="219.75" x2="324.18918918918916" y2="224.25" stroke="#000000" stroke-width="1.5" />
<line x1="334.3243243243243" y1="219.75" x2="334.3243243243243" y2="224.25" stroke="#000000" stroke-width="1.5" />
<line x1="344.4594594594595" y1="219.75" x2="344.4594594594595" y2="224.25" stroke="#000000" stroke-width="1.5" />
<line x1="354.5945945945946" y1="219.75" x2="354.5945945945946" y2="224.25" stroke="#000000" stroke-width="1.5" />
<line x1="364.72972972972974" y1="219.75" x2="364.72972972972974" y2="224.25" stroke="#000000" stroke-width="1.5" />
<text x="364.72972972972974" y="217.75" font-family="monospace" font-weight="bold" text-anchor="middle" font-size="10px" >10</text>
<line x1="374.86486486486484" y1="219.75" x2="374.86486486486484" y2="224.25" stroke="#000000" stroke-width="1.5" />
<line x1="385" y1="219.75" x2="385" y2="224.25" stroke="#000000" stroke-width="1.5" />
<line x1="395.13513513513516" y1="219.75" x2="395.13513513513516" y2="224.25" stroke="#000000" stroke-width="1.5" />
<line x1="405.27027027027026" y1="219.75" x2="405.27027027027026" y2="224.25" stroke="#000000" stroke-width="1.5" />
<line x1="415.4054054054054" y1="219.75" x2="415.4054054054054" y2="224.25" stroke="#000000" stroke-width="1.5" />
<text x="415.4054054054054" y="217.75" font-family="monospace" font-weight="bold" text-anchor="middle" font-size="10px" >15</text>
<line x1="425.5405405405405" y1="219.75" x2="425.5405405405405" y2="224.25" stroke="#000000" stroke-width="1.5" />
<line x1="435.6756756756757" y1="219.75" x2="435.6756756756757" y2="224.25" stroke="#000000" stroke-width="1.5" />
<line x1="445.81081081081084" y1="219.75" x2="445.81081081081084" y2="224.25" stroke="#000000" stroke-width="1.5" />
<line x1="455.94594594594594" y1="219.75" x2="455.94594594594594" y2="224.25" stroke="#000000" stroke-width="1.5" />
<line x1="466.0810810810811" y1="219.75" x2="466.0810810810811" y2="224.25" stroke="#000000" stroke-width="1.5" />
<text x="466.0810810810811" y="217.75" font-family="monospace" font-weight="bold" text-anchor="middle" font-size="10px" >20</text>
<line x1="476.2162162162162" y1="219.75" x2="476.2162162162162" y2="224.25" stroke="#000000" stroke-width="1.5" />
<line x1="486.35135135135135" y1="219.75" x2="486.35135135135135" y2="224.25" stroke="#000000" stroke-width="1.5" />
<line x1="496.48648648648646" y1="219.75" x2="496.48648648648646" y2="224.25" stroke="#000000" stroke-width="1.5" />
<path d="M 10 234 C 5.5 234, 5.5 243, 10 243" fill="#009CA2" opacity="0.9" />
<rect x="10" y="234" height="9" width="253.3783783783784" fill="#009CA2" stroke="#009CA2" stroke-width="0" opacity="0.9" />
<rect x="10" y="235.62" height="3" width="253.3783783783784" fill="#F4EDF2" opacity="0.25" />
<rect x="263.3783783783784" y="234" height="9" width="243.24324324324323" fill="#D1D1D1" stroke="#D1D1D1" stroke-width="0" opacity="0.9" />
<rect x="263.3783783783784" y="235.62" height="3" width="243.24324324324323" fill="#F4EDF2" opacity="0.25" />
<rect x="506.6216216216216" y="234" height="9" width="5.0675675675675675" fill="#009CA2" stroke="#009CA2" stroke-width="0" opacity="0.9" />
<rect x="506.6216216216216" y="235.62" height="3" width="5.0675675675675675" fill="#F4EDF2" opacity="0.25" />
<rect x="511.68918918918916" y="234" height="9" width="5.0675675675675675" fill="#BABABA" stroke="#BABABA" stroke-width="0" opacity="0.9" />
<rect x="511.68918918918916" y="235.62" height="3" width="5.0675675675675675" fill="#F4EDF2" opacity="0.25" />
<rect x="516.7567567567568" y="234" height="9" width="243.24324324324323" fill="#009CA2" stroke="#009CA2" stroke-width="0" opacity="0.9" />
<rect x="516.7567567567568" y="235.62" height="3" width="243.24324324324323" fill="#F4EDF2" opacity="0.25" />
<path d="M 760 234 C 764.5 234, 764.5 243, 760 243" fill="#009CA2" opacity="0.9" />
<path d="M 10 245 C 5.5 245, 5.5 254, 10 254" fill="#009CA2" opacity="0.9" />
<rect x="10" y="245" height="9" width="253.3783783783784" fill="#009CA2" stroke="#009CA2" stroke-width="0" opacity="0.9" />
<rect x="10" y="246.62" height="3" width="253.3783783783784" fill="#F4EDF2" opacity="0.25" />
<rect x="263.3783783783784" y="245" height="9" width="243.24324324324323" fill="#D1D1D1" stroke="#D1D1D1" stroke-width="0" opacity="0.9" />
<rect x="263.3783783783784" y="246.62" height="3" width="243.24324324324323" fill="#F4EDF2" opacity="0.25" />
<rect x="506.6216216216216" y="245" height="9" width="5.0675675675675675" fill="#009CA2" stroke="#009CA2" stroke-width="0" opacity="0.9" />
<rect x="506.6216216216216" y="246.62" height="3" width="5.0675675675675675" fill="#F4EDF2" opacity="0.25" />
<rect x="511.68918918918916" y="245" height="9" width="5.0675675675675675" fill="#BABABA" stroke="#BABABA" stroke-width="0" opacity="0.9" />
<rect x="511.68918918918916" y="246.62" height="3" width="5.0675675675675675" fill="#F4EDF2" opacity="0.25" />
<rect x="516.7567567567568" y="245" height="9" width="243.24324324324323" fill="#009CA2" stroke="#009CA2" stroke-width="0" opacity="0.9" />
<rect x="516.7567567567568" y="246.62" height="3" width="243.24324324324323" fill="#F4EDF2" opacity="0.25" />
<path d="M 760 245 C 764.5 245, 764.5 254, 760 254" fill="#009CA2" opacity="0.9" />
<path d="M 10 256 C 5.5 256, 5.5 265, 10 265" fill="#009CA2" opacity="0.9" />
<rect x="10" y="256" height="9" width="253.3783783783784" fill="#009CA2" stroke="#009CA2" stroke-width="0" opacity="0.9" />
<rect x="10" y="257.62" height="3" width="253.3783783783784" fill="#F4EDF2" opacity="0.25" />
<rect x="263.3783783783784" y="256" height="9" width="243.24324324324323" fill="#D1D1D1" stroke="#D1D1D1" stroke-width="0" opacity="0.9" />
<rect x="263.3783783783784" y="257.62" height="3" width="243.24324324324323" fill="#F4EDF2" opacity="0.25" />
<rect x="506.6216216216216" y="256" height="9" width="5.0675675675675675" fill="#009CA2" stroke="#009CA2" stroke-width="0" opacity="0.9" />
<rect x="506.6216216216216" y="257.62" height="3" width="5.0675675675675675" fill="#F4EDF2" opacity="0.25" />
<rect x="511.68918918918916" y="256" height="9" width="5.0675675675675675" fill="#BABABA" stroke="#BABABA" stroke-width="0" opacity="0.9" />
<rect x="511.68918918918916" y="257.62" height="3" width="5.0675675675675675" fill="#F4EDF2" opacity="0.25" />
<rect x="516.7567567567568" y="256" height="9" width="243.24324324324323" fill="#009CA2" stroke="#009CA2" stroke-width="0" opacity="0.9" />
<rect x="516.7567567567568" y="257.62" height="3" width="243.24324324324323" fill="#F4EDF2" opacity="0.25" />
<path d="M 760 256 C 764.5 256, 764.5 265, 760 265" fill="#009CA2" opacity="0.9" />
<path d="M 10 267 C 5.5 267, 5.5 276, 10 276" fill="#009CA2" opacity="0.9" />
<rect x="10" y="267" height="9" width="253.3783783783784" fill="#009CA2" stroke="#009CA2" stroke-width="0" opacity="0.9" />
<rect x="10" y="268.62" height="3" width="253.3783783783784" fill="#F4EDF2" opacity="0.25" />
<rect x="263.3783783783784" y="267" height="9" width="243.24324324324323" fill="#D1D1D1" stroke="#D1D1D1" stroke-width="0" opacity="0.9" />
<rect x="263.3783783783784" y="268.62" height="3" width="243.24324324324323" fill="#F4EDF2" opacity="0.25" />
<rect x="506.6216216216216" y="267" height="9" width="5.0675675675675675" fill="#009CA2" stroke="#009CA2" stroke-width="0" opacity="0.9" />
<rect x="506.6216216216216" y="268.62" height="3" width="5.0675675675675675" fill="#F4EDF2" opacity="0.25" />
<rect x="511.68918918918916" y="267" height="9" width="5.0675675675675675" fill="#BABABA" stroke="#BABABA" stroke-width="0" opacity="0.9" />
<rect x="511.68918918918916" y="268.62" height="3" width="5.0675675675675675" fill="#F4EDF2" opacity="0.25" />
<rect x="516.7567567567568" y="267" height="9" width="243.24324324324323" fill="#009CA2" stroke="#009CA2" stroke-width="0" opacity="0.9" />
<rect x="516.7567567567568" y="268.62" height="3" width="243.24324324324323" fill="#F4EDF2" opacity="0.25" />
<path d="M 760 267 C 764.5 267, 764.5 276, 760 276" fill="#009CA2" opacity="0.9" />
<path d="M 10 278 C 5.5 278, 5.5 287, 10 287" fill="#009CA2" opacity="0.9" />
<rect x="10" y="278" height="9" width="253.3783783783784" fill="#009CA2" stroke="#009CA2" stroke-width="0" opacity="0.9" />
<rect x="10" y="279.62" height="3" width="253.3783783783784" fill="#F4EDF2" opacity="0.25" />
<rect x="263.3783783783784" y="278" height="9" width="243.24324324324323" fill="#D1D1D1" stroke="#D1D1D1" stroke-width="0" opacity="0.9" />
<rect x="263.3783783783784" y="279.62" height="3" width="243.24324324324323" fill="#F4EDF2" opacity="0.25" />
<rect x="506.6216216216216" y="278" height="9" width="5.0675675675675675" fill="#009CA2" stroke="#009CA2" stroke-width="0" opacity="0.9" />
<rect x="506.6216216216216" y="279.62" height="3" width="5.0675675675675675" fill="#F4EDF2" opacity="0.25" />
<rect x="511.68918918918916" y="278" height="9" width="5.0675675675675675" fill="#BABABA" stroke="#BABABA" stroke-width="0" opacity="0.9" />
<rect x="511.68918918918916" y="279.62" height="3" width="5.0675675675675675" fill="#F4EDF2" opacity="0.25" />
<rect x="516.7567567567568" y="278" height="9" width="243.24324324324323" fill="#009CA2" stroke="#009CA2" stroke-width="0" opacity="0.9" />
<rect x="516.7567567567568" y="279.62" height="3" width="243.24324324324323" fill="#F4EDF2" opacity="0.25" />
<path d="M 760 278 C 764.5 278, 764.5 287, 760 287" fill="#009CA2" opacity="0.9" />
<rect x="10" y="293" height="12" width="12" fill="#1383C6" stroke="#1383C6" stroke-width="0" opacity="0.9" />
<text x="24" y="304" font-family="monospace" font-weight="bold" font-size="14px" >TG</text>
</svg>
