<?xml version="1.0"?>
<svg xmlns="http://www.w3.org/2000/svg" xmlns:xlink="http://www.w3.org/1999/xlink" width="770.0000000000001" height="266">
<rect width="100%" height="100%" fill="white"/>
<path d="M 10 14 C 5.5 14, 5.5 23, 10 23" fill="#009CA2" opacity="0.9" />
<rect x="10" y="14" height="9" width="253.3783783783784" fill="#009CA2" stroke="#009CA2" stroke-width="0" opacity="0.9" />
<rect x="10" y="15.62" height="3" width="253.3783783783784" fill="#F4EDF2" opacity="0.25" />
<rect x="263.3783783783784" y="14" height="9" width="70.94594594594595" fill="#D1D1D1" stroke="#D1D1D1" stroke-width="0" opacity="0.9" />
<rect x="263.3783783783784" y="15.62" height="3" width="70.94594594594595" fill="#F4EDF2" opacity="0.25" />
<line x1="334.3243243243243" y1="18.5" x2="506.6216216216216" y2="18.5" stroke="#BABABA" stroke-width="1.5" />
<rect x="506.6216216216216" y="14" height="9" width="253.3783783783784" fill="#009CA2" stroke="#009CA2" stroke-width="0" opacity="0.9" />
<rect x="506.6216216216216" y="15.62" height="3" width="253.3783783783784" fill="#F4EDF2" opacity="0.25" />
<path d="M 760 14 C 764.5 14, 764.5 23, 760 23" fill="#009CA2" opacity="0.9" />
<path d="M 10 25 C 5.5 25, 5.5 34, 10 34" fill="#009CA2" opacity="0.9" />
<rect x="10" y="25" height="9" width="253.3783783783784" fill="#009CA2" stroke="#009CA2" stroke-width="0" opacity="0.9" />
<rect x="10" y="26.62" height="3" width="253.3783783783784" fill="#F4EDF2" opacity="0.25" />
<rect x="263.3783783783784" y="25" height="9" width="70.94594594594595" fill="#D1D1D1" stroke="#D1D1D1" stroke-width="0" opacity="0.9" />
<rect x="263.3783783783784" y="26.62" height="3" width="70.94594594594595" fill="#F4EDF2" opacity="0.25" />
<line x1="334.3243243243243" y1="29.5" x2="506.6216216216216" y2="29.5" stroke="#BABABA" stroke-width="1.5" />
<rect x="506.6216216216216" y="25" height="9" width="253.3783783783784" fill="#009CA2" stroke="#009CA2" stroke-width="0" opacity="0.9" />
<rect x="506.6216216216216" y="26.62" height="3" width="253.3783783783784" fill="#F4EDF2" opacity="0.25" />
<path d="M 760 25 C 764.5 25, 764.5 34, 760 34" fill="#009CA2" opacity="0.9" />
<path d="M 10 36 C 5.5 36, 5.5 45, 10 45" fill="#009CA2" opacity="0.9" />
<rect x="10" y="36" height="9" width="253.3783783783784" fill="#009CA2" stroke="#009CA2" stroke-width="0" opacity="0.9" />
<rect x="10" y="37.62" height="3" width="253.3783783783784" fill="#F4EDF2" opacity="0.25" />
<rect x="263.3783783783784" y="36" height="9" width="70.94594594594595" fill="#D1D1D1" stroke="#D1D1D1" stroke-width="0" opacity="0.9" />
<rect x="263.3783783783784" y="37.62" height="3" width="70.94594594594595" fill="#F4EDF2" opacity="0.25" />
<line x1="334.3243243243243" y1="40.5" x2="506.6216216216216" y2="40.5" stroke="#BABABA" stroke-width="1.5" />
<rect x="506.6216216216216" y="36" height="9" width="253.3783783783784" fill="#009CA2" stroke="#009CA2" stroke-width="0" opacity="0.9" />
<rect x="506.6216216216216" y="37.62" height="3" width="253.3783783783784" fill="#F4EDF2" opacity="0.25" />
<path d="M 760 36 C 764.5 36, 764.5 45, 760 45" fill="#009CA2" opacity="0.9" />
<path d="M 10 47 C 5.5 47, 5.5 56, 10 56" fill="#009CA2" opacity="0.9" />
<rect x="10" y="47" height="9" width="253.3783783783784" fill="#009CA2" stroke="#009CA2" stroke-width="0" opacity="0.9" />
<rect x="10" y="48.62" height="3" width="253.3783783783784" fill="#F4EDF2" opacity="0.25" />
<rect x="263.3783783783784" y="47" height="9" width="70.94594594594595" fill="#D1D1D1" stroke="#D1D1D1" stroke-width="0" opacity="0.9" />
<rect x="263.3783783783784" y="48.62" height="3" width="70.94594594594595" fill="#F4EDF2" opacity="0.25" />
<line x1="334.3243243243243" y1="51.5" x2="506.6216216216216" y2="51.5" stroke="#BABABA" stroke-width="1.5" />
<rect x="506.6216216216216" y="47" height="9" width="253.3783783783784" fill="#009CA2" stroke="#009CA2" stroke-width="0" opacity="0.9" />
<rect x="506.6216216216216" y="48.62" height="3" width="253.3783783783784" fill="#F4EDF2" opacity="0.25" />
<path d="M 760 47 C 764.5 47, 764.5 56, 760 56" fill="#009CA2" opacity="0.9" />
<path d="M 10 58 C 5.5 58, 5.5 67, 10 67" fill="#009CA2" opacity="0.9" />
<rect x="10" y="58" height="9" width="253.3783783783784" fill="#009CA2" stroke="#009CA2" stroke-width="0" opacity="0.9" />
<rect x="10" y="59.62" height="3" width="253.3783783783784" fill="#F4EDF2" opacity="0.25" />
<rect x="263.3783783783784" y="58" height="9" width="70.94594594594595" fill="#D1D1D1" stroke="#D1D1D1" stroke-width="0" opacity="0.9" />
<rect x="263.3783783783784" y="59.62" height="3" width="70.94594594594595" fill="#F4EDF2" opacity="0.25" />
<line x1="334.3243243243243" y1="62.5" x2="506.6216216216216" y2="62.5" stroke="#BABABA" stroke-width="1.5" />
<rect x="506.6216216216216" y="58" height="9" width="253.3783783783784" fill="#009CA2" stroke="#009CA2" stroke-width="0" opacity="0.9" />
<rect x="506.6216216216216" y="59.62" height="3" width="253.3783783783784" fill="#F4EDF2" opacity="0.25" />
<path d="M 760 58 C 764.5 58, 764.5 67, 760 67" fill="#009CA2" opacity="0.9" />
<path d="M 10 69 C 5.5 69, 5.5 78, 10 78" fill="#009CA2" opacity="0.9" />
<rect x="10" y="69" height="9" width="253.3783783783784" fill="#009CA2" stroke="#009CA2" stroke-width="0" opacity="0.9" />
<rect x="10" y="70.62" height="3" width="253.3783783783784" fill="#F4EDF2" opacity="0.25" />
<rect x="263.3783783783784" y="69" height="9" width="70.94594594594595" fill="#D1D1D1" stroke="#D1D1D1" stroke-width="0" opacity="0.9" />
<rect x="263.3783783783784" y="70.62" height="3" width="70.94594594594595" fill="#F4EDF2" opacity="0.25" />
<line x1="334.3243243243243" y1="73.5" x2="506.6216216216216" y2="73.5" stroke="#BABABA" stroke-width="1.5" />
<rect x="506.6216216216216" y="69" height="9" width="253.3783783783784" fill="#009CA2" stroke="#009CA2" stroke-width="0" opacity="0.9" />
<rect x="506.6216216216216" y="70.62" height="3" width="253.3783783783784" fill="#F4EDF2" opacity="0.25" />
<path d="M 760 69 C 764.5 69, 764.5 78, 760 78" fill="#009CA2" opacity="0.9" />
<path d="M 10 80 C 5.5 80, 5.5 89, 10 89" fill="#009CA2" opacity="0.9" />
<rect x="10" y="80" height="9" width="253.3783783783784" fill="#009CA2" stroke="#009CA2" stroke-width="0" opacity="0.9" />
<rect x="10" y="81.62" height="3" width="253.3783783783784" fill="#F4EDF2" opacity="0.25" />
<rect x="263.3783783783784" y="80" height="9" width="70.94594594594595" fill="#D1D1D1" stroke="#D1D1D1" stroke-width="0" opacity="0.9" />
<rect x="263.3783783783784" y="81.62" height="3" width="70.94594594594595" fill="#F4EDF2" opacity="0.25" />
<line x1="334.3243243243243" y1="84.5" x2="506.6216216216216" y2="84.5" stroke="#BABABA" stroke-width="1.5" />
<rect x="506.6216216216216" y="80" height="9" width="253.3783783783784" fill="#009CA2" stroke="#009CA2" stroke-width="0" opacity="0.9" />
<rect x="506.6216216216216" y="81.62" height="3" width="253.3783783783784" fill="#F4EDF2" opacity="0.25" />
<path d="M 760 80 C 764.5 80, 764.5 89, 760 89" fill="#009CA2" opacity="0.9" />
<path d="M 10 91 C 5.5 91, 5.5 100, 10 100" fill="#009CA2" opacity="0.9" />
<rect x="10" y="91" height="9" width="253.3783783783784" fill="#009CA2" stroke="#009CA2" stroke-width="0" opacity="0.9" />
<rect x="10" y="92.62" height="3" width="253.3783783783784" fill="#F4EDF2" opacity="0.25" />
<rect x="263.3783783783784" y="91" height="9" width="70.94594594594595" fill="#D1D1D1" stroke="#D1D1D1" stroke-width="0" opacity="0.9" />
<rect x="263.3783783783784" y="92.62" height="3" width="70.94594594594595" fill="#F4EDF2" opacity="0.25" />
<line x1="334.3243243243243" y1="95.5" x2="506.6216216216216" y2="95.5" stroke="#BABABA" stroke-width="1.5" />
<rect x="506.6216216216216" y="91" height="9" width="253.3783783783784" fill="#009CA2" stroke="#009CA2" stroke-width="0" opacity="0.9" />
<rect x="506.6216216216216" y="92.62" height="3" width="253.3783783783784" fill="#F4EDF2" opacity="0.25" />
<path d="M 760 91 C 764.5 91, 764.5 100, 760 100" fill="#009CA2" opacity="0.9" />
<path d="M 10 102 C 5.5 102, 5.5 111, 10 111" fill="#009CA2" opacity="0.9" />
<rect x="10" y="102" height="9" width="253.3783783783784" fill="#009CA2" stroke="#009CA2" stroke-width="0" opacity="0.9" />
<rect x="10" y="103.62" height="3" width="253.3783783783784" fill="#F4EDF2" opacity="0.25" />
<rect x="263.3783783783784" y="102" height="9" width="70.94594594594595" fill="#D1D1D1" stroke="#D1D1D1" stroke-width="0" opacity="0.9" />
<rect x="263.3783783783784" y="103.62" height="3" width="70.94594594594595" fill="#F4EDF2" opacity="0.25" />
<line x1="334.3243243243243" y1="106.5" x2="506.6216216216216" y2="106.5" stroke="#BABABA" stroke-width="1.5" />
<rect x="506.6216216216216" y="102" height="9" width="91.21621621621621" fill="#009CA2" stroke="#009CA2" stroke-width="0" opacity="0.9" />
<rect x="506.6216216216216" y="103.62" height="3" width="91.21621621621621" fill="#F4EDF2" opacity="0.25" />
<rect x="597.8378378378378" y="102" height="9" width="157.09459459459458" fill="#009CA2" stroke="#009CA2" stroke-width="0" opacity="0.9" />
<rect x="597.8378378378378" y="103.62" height="3" width="157.09459459459458" fill="#F4EDF2" opacity="0.25" />
<line x1="754.9324324324324" y1="106.5" x2="760" y2="106.5" stroke="#009CA2" stroke-width="1.5" />
<path d="M 760 102 C 764.5 102, 764.5 111, 760 111" fill="#009CA2" opacity="0.9" />
<line x1="597.8378378378378" y1="102" x2="597.8378378378378" y2="111" stroke="#000000" stroke-width="2" />
<path d="M 10 113 C 5.5 113, 5.5 122, 10 122" fill="#009CA2" opacity="0.9" />
<rect x="10" y="113" height="9" width="253.3783783783784" fill="#009CA2" stroke="#009CA2" stroke-width="0" opacity="0.9" />
<rect x="10" y="114.62" height="3" width="253.3783783783784" fill="#F4EDF2" opacity="0.25" />
<rect x="263.3783783783784" y="113" height="9" width="70.94594594594595" fill="#D1D1D1" stroke="#D1D1D1" stroke-width="0" opacity="0.9" />
<rect x="263.3783783783784" y="114.62" height="3" width="70.94594594594595" fill="#F4EDF2" opacity="0.25" />
<line x1="334.3243243243243" y1="117.5" x2="506.6216216216216" y2="117.5" stroke="#BABABA" stroke-width="1.5" />
<rect x="506.6216216216216" y="113" height="9" width="253.3783783783784" fill="#009CA2" stroke="#009CA2" stroke-width="0" opacity="0.9" />
<rect x="506.6216216216216" y="114.62" height="3" width="253.3783783783784" fill="#F4EDF2" opacity="0.25" />
<path d="M 760 113 C 764.5 113, 764.5 122, 760 122" fill="#009CA2" opacity="0.9" />
<path d="M 10 124 C 5.5 124, 5.5 133, 10 133" fill="#009CA2" opacity="0.9" />
<rect x="10" y="124" height="9" width="253.3783783783784" fill="#009CA2" stroke="#009CA2" stroke-width="0" opacity="0.9" />
<rect x="10" y="125.62" height="3" width="253.3783783783784" fill="#F4EDF2" opacity="0.25" />
<rect x="263.3783783783784" y="124" height="9" width="70.94594594594595" fill="#D1D1D1" stroke="#D1D1D1" stroke-width="0" opacity="0.9" />
<rect x="263.3783783783784" y="125.62" height="3" width="70.94594594594595" fill="#F4EDF2" opacity="0.25" />
<line x1="334.3243243243243" y1="128.5" x2="506.6216216216216" y2="128.5" stroke="#BABABA" stroke-width="1.5" />
<rect x="506.6216216216216" y="124" height="9" width="253.3783783783784" fill="#009CA2" stroke="#009CA2" stroke-width="0" opacity="0.9" />
<rect x="506.6216216216216" y="125.62" height="3" width="253.3783783783784" fill="#F4EDF2" opacity="0.25" />
<path d="M 760 124 C 764.5 124, 764.5 133, 760 133" fill="#009CA2" opacity="0.9" />
<path d="M 10 135 C 5.5 135, 5.5 144, 10 144" fill="#009CA2" opacity="0.9" />
<rect x="10" y="135" height="9" width="253.3783783783784" fill="#009CA2" stroke="#009CA2" stroke-width="0" opacity="0.9" />
<rect x="10" y="136.62" height="3" width="253.3783783783784" fill="#F4EDF2" opacity="0.25" />
<rect x="263.3783783783784" y="135" height="9" width="70.94594594594595" fill="#D1D1D1" stroke="#D1D1D1" stroke-width="0" opacity="0.9" />
<rect x="263.3783783783784" y="136.62" height="3" width="70.94594594594595" fill="#F4EDF2" opacity="0.25" />
<line x1="334.3243243243243" y1="139.5" x2="506.6216216216216" y2="139.5" stroke="#BABABA" stroke-width="1.5" />
<rect x="506.6216216216216" y="135" height="9" width="253.3783783783784" fill="#009CA2" stroke="#009CA2" stroke-width="0" opacity="0.9" />
<rect x="506.6216216216216" y="136.62" height="3" width="253.3783783783784" fill="#F4EDF2" opacity="0.25" />
<path d="M 760 135 C 764.5 135, 764.5 144, 760 144" fill="#009CA2" opacity="0.9" />
<path d="M 10 146 C 5.5 146, 5.5 155, 10 155" fill="#009CA2" opacity="0.9" />
<rect x="10" y="146" height="9" width="253.3783783783784" fill="#009CA2" stroke="#009CA2" stroke-width="0" opacity="0.9" />
<rect x="10" y="147.62" height="3" width="253.3783783783784" fill="#F4EDF2" opacity="0.25" />
<rect x="263.3783783783784" y="146" height="9" width="70.94594594594595" fill="#D1D1D1" stroke="#D1D1D1" stroke-width="0" opacity="0.9" />
<rect x="263.3783783783784" y="147.62" height="3" width="70.94594594594595" fill="#F4EDF2" opacity="0.25" />
<line x1="334.3243243243243" y1="150.5" x2="506.6216216216216" y2="150.5" stroke="#BABABA" stroke-width="1.5" />
<rect x="506.6216216216216" y="146" height="9" width="253.3783783783784" fill="#009CA2" stroke="#009CA2" stroke-width="0" opacity="0.9" />
<rect x="506.6216216216216" y="147.62" height="3" width="253.3783783783784" fill="#F4EDF2" opacity="0.25" />
<path d="M 760 146 C 764.5 146, 764.5 155, 760 155" fill="#009CA2" opacity="0.9" />
<path d="M 10 157 C 5.5 157, 5.5 166, 10 166" fill="#009CA2" opacity="0.9" />
<rect x="10" y="157" height="9" width="253.3783783783784" fill="#009CA2" stroke="#009CA2" stroke-width="0" opacity="0.9" />
<rect x="10" y="158.62" height="3" width="253.3783783783784" fill="#F4EDF2" opacity="0.25" />
<rect x="263.3783783783784" y="157" height="9" width="70.94594594594595" fill="#D1D1D1" stroke="#D1D1D1" stroke-width="0" opacity="0.9" />
<rect x="263.3783783783784" y="158.62" height="3" width="70.94594594594595" fill="#F4EDF2" opacity="0.25" />
<line x1="334.3243243243243" y1="161.5" x2="506.6216216216216" y2="161.5" stroke="#BABABA" stroke-width="1.5" />
<rect x="506.6216216216216" y="157" height="9" width="253.3783783783784" fill="#009CA2" stroke="#009CA2" stroke-width="0" opacity="0.9" />
<rect x="506.6216216216216" y="158.62" height="3" width="253.3783783783784" fill="#F4EDF2" opacity="0.25" />
<path d="M 760 157 C 764.5 157, 764.5 166, 760 166" fill="#009CA2" opacity="0.9" />
<path d="M 10 168 C 5.5 168, 5.5 177, 10 177" fill="#009CA2" opacity="0.9" />
<rect x="10" y="168" height="9" width="253.3783783783784" fill="#009CA2" stroke="#009CA2" stroke-width="0" opacity="0.9" />
<rect x="10" y="169.62" height="3" width="253.3783783783784" fill="#F4EDF2" opacity="0.25" />
<rect x="263.3783783783784" y="168" height="9" width="70.94594594594595" fill="#D1D1D1" stroke="#D1D1D1" stroke-width="0" opacity="0.9" />
<rect x="263.3783783783784" y="169.62" height="3" width="70.94594594594595" fill="#F4EDF2" opacity="0.25" />
<line x1="334.3243243243243" y1="172.5" x2="506.6216216216216" y2="172.5" stroke="#BABABA" stroke-width="1.5" />
<rect x="506.6216216216216" y="168" height="9" width="253.3783783783784" fill="#009CA2" stroke="#009CA2" stroke-width="0" opacity="0.9" />
<rect x="506.6216216216216" y="169.62" height="3" width="253.3783783783784" fill="#F4EDF2" opacity="0.25" />
<path d="M 760 168 C 764.5 168, 764.5 177, 760 177" fill="#009CA2" opacity="0.9" />
<path d="M 10 179 C 5.5 179, 5.5 188, 10 188" fill="#009CA2" opacity="0.9" />
<rect x="10" y="179" height="9" width="253.3783783783784" fill="#009CA2" stroke="#009CA2" stroke-width="0" opacity="0.9" />
<rect x="10" y="180.62" height="3" width="253.3783783783784" fill="#F4EDF2" opacity="0.25" />
<rect x="263.3783783783784" y="179" height="9" width="76.01351351351352" fill="#D1D1D1" stroke="#D1D1D1" stroke-width="0" opacity="0.9" />
<rect x="263.3783783783784" y="180.62" height="3" width="76.01351351351352" fill="#F4EDF2" opacity="0.25" />
<line x1="339.3918918918919" y1="183.5" x2="506.6216216216216" y2="183.5" stroke="#BABABA" stroke-width="1.5" />
<rect x="506.6216216216216" y="179" height="9" width="253.3783783783784" fill="#009CA2" stroke="#009CA2" stroke-width="0" opacity="0.9" />
<rect x="506.6216216216216" y="180.62" height="3" width="253.3783783783784" fill="#F4EDF2" opacity="0.25" />
<path d="M 760 179 C 764.5 179, 764.5 188, 760 188" fill="#009CA2" opacity="0.9" />
<path d="M 10 190 C 5.5 190, 5.5 199, 10 199" fill="#009CA2" opacity="0.9" />
<rect x="10" y="190" height="9" width="253.3783783783784" fill="#009CA2" stroke="#009CA2" stroke-width="0" opacity="0.9" />
<rect x="10" y="191.62" height="3" width="253.3783783783784" fill="#F4EDF2" opacity="0.25" />
<rect x="263.3783783783784" y="190" height="9" width="243.24324324324323" fill="#D1D1D1" stroke="#D1D1D1" stroke-width="0" opacity="0.9" />
<rect x="263.3783783783784" y="191.62" height="3" width="243.24324324324323" fill="#F4EDF2" opacity="0.25" />
<rect x="506.6216216216216" y="190" height="9" width="5.0675675675675675" fill="#009CA2" stroke="#009CA2" stroke-width="0" opacity="0.9" />
<rect x="506.6216216216216" y="191.62" height="3" width="5.0675675675675675" fill="#F4EDF2" opacity="0.25" />
<rect x="511.68918918918916" y="190" height="9" width="5.0675675675675675" fill="#BABABA" stroke="#BABABA" stroke-width="0" opacity="0.9" />
<rect x="511.68918918918916" y="191.62" height="3" width="5.0675675675675675" fill="#F4EDF2" opacity="0.25" />
<rect x="516.7567567567568" y="190" height="9" width="243.24324324324323" fill="#009CA2" stroke="#009CA2" stroke-width="0" opacity="0.9" />
<rect x="516.7567567567568" y="191.62" height="3" width="243.24324324324323" fill="#F4EDF2" opacity="0.25" />
<path d="M 760 190 C 764.5 190, 764.5 199, 760 199" fill="#009CA2" opacity="0.9" />
<path d="M 10 201 C 5.5 201, 5.5 210, 10 210" fill="#009CA2" opacity="0.9" />
<rect x="10" y="201" height="9" width="253.3783783783784" fill="#009CA2" stroke="#009CA2" stroke-width="0" opacity="0.9" />
<rect x="10" y="202.62" height="3" width="253.3783783783784" fill="#F4EDF2" opacity="0.25" />
<rect x="263.3783783783784" y="201" height="9" width="243.24324324324323" fill="#D1D1D1" stroke="#D1D1D1" stroke-width="0" opacity="0.9" />
<rect x="263.3783783783784" y="202.62" height="3" width="243.24324324324323" fill="#F4EDF2" opacity="0.25" />
<rect x="506.6216216216216" y="201" height="9" width="5.0675675675675675" fill="#009CA2" stroke="#009CA2" stroke-width="0" opacity="0.9" />
<rect x="506.6216216216216" y="202.62" height="3" width="5.0675675675675675" fill="#F4EDF2" opacity="0.25" />
<rect x="511.68918918918916" y="201" height="9" width="5.0675675675675675" fill="#BABABA" stroke="#BABABA" stroke-width="0" opacity="0.9" />
<rect x="511.68918918918916" y="202.62" height="3" width="5.0675675675675675" fill="#F4EDF2" opacity="0.25" />
<rect x="516.7567567567568" y="201" height="9" width="243.24324324324323" fill="#009CA2" stroke="#009CA2" stroke-width="0" opacity="0.9" />
<rect x="516.7567567567568" y="202.62" height="3" width="243.24324324324323" fill="#F4EDF2" opacity="0.25" />
<path d="M 760 201 C 764.5 201, 764.5 210, 760 210" fill="#009CA2" opacity="0.9" />
<path d="M 10 212 C 5.5 212, 5.5 221, 10 221" fill="#009CA2" opacity="0.9" />
<rect x="10" y="212" height="9" width="253.3783783783784" fill="#009CA2" stroke="#009CA2" stroke-width="0" opacity="0.9" />
<rect x="10" y="213.62" height="3" width="253.3783783783784" fill="#F4EDF2" opacity="0.25" />
<rect x="263.3783783783784" y="212" height="9" width="243.24324324324323" fill="#D1D1D1" stroke="#D1D1D1" stroke-width="0" opacity="0.9" />
<rect x="263.3783783783784" y="213.62" height="3" width="243.24324324324323" fill="#F4EDF2" opacity="0.25" />
<rect x="506.6216216216216" y="212" height="9" width="5.0675675675675675" fill="#009CA2" stroke="#009CA2" stroke-width="0" opacity="0.9" />
<rect x="506.6216216216216" y="213.62" height="3" width="5.0675675675675675" fill="#F4EDF2" opacity="0.25" />
<rect x="511.68918918918916" y="212" height="9" width="5.0675675675675675" fill="#BABABA" stroke="#BABABA" stroke-width="0" opacity="0.9" />
<rect x="511.68918918918916" y="213.62" height="3" width="5.0675675675675675" fill="#F4EDF2" opacity="0.25" />
<rect x="516.7567567567568" y="212" height="9" width="243.24324324324323" fill="#009CA2" stroke="#009CA2" stroke-width="0" opacity="0.9" />
<rect x="516.7567567567568" y="213.62" height="3" width="243.24324324324323" fill="#F4EDF2" opacity="0.25" />
<path d="M 760 212 C 764.5 212, 764.5 221, 760 221" fill="#009CA2" opacity="0.9" />
<path d="M 10 223 C 5.5 223, 5.5 232, 10 232" fill="#009CA2" opacity="0.9" />
<rect x="10" y="223" height="9" width="253.3783783783784" fill="#009CA2" stroke="#009CA2" stroke-width="0" opacity="0.9" />
<rect x="10" y="224.62" height="3" width="253.3783783783784" fill="#F4EDF2" opacity="0.25" />
<rect x="263.3783783783784" y="223" height="9" width="243.24324324324323" fill="#D1D1D1" stroke="#D1D1D1" stroke-width="0" opacity="0.9" />
<rect x="263.3783783783784" y="224.62" height="3" width="243.24324324324323" fill="#F4EDF2" opacity="0.25" />
<rect x="506.6216216216216" y="223" height="9" width="5.0675675675675675" fill="#009CA2" stroke="#009CA2" stroke-width="0" opacity="0.9" />
<rect x="506.6216216216216" y="224.62" height="3" width="5.0675675675675675" fill="#F4EDF2" opacity="0.25" />
<rect x="511.68918918918916" y="223" height="9" width="5.0675675675675675" fill="#BABABA" stroke="#BABABA" stroke-width="0" opacity="0.9" />
<rect x="511.68918918918916" y="224.62" height="3" width="5.0675675675675675" fill="#F4EDF2" opacity="0.25" />
<rect x="516.7567567567568" y="223" height="9" width="243.24324324324323" fill="#009CA2" stroke="#009CA2" stroke-width="0" opacity="0.9" />
<rect x="516.7567567567568" y="224.62" height="3" width="243.24324324324323" fill="#F4EDF2" opacity="0.25" />
<path d="M 760 223 C 764.5 223, 764.5 232, 760 232" fill="#009CA2" opacity="0.9" />
<path d="M 10 234 C 5.5 234, 5.5 243, 10 243" fill="#009CA2" opacity="0.9" />
<rect x="10" y="234" height="9" width="253.3783783783784" fill="#009CA2" stroke="#009CA2" stroke-width="0" opacity="0.9" />
<rect x="10" y="235.62" height="3" width="253.3783783783784" fill="#F4EDF2" opacity="0.25" />
<rect x="263.3783783783784" y="234" height="9" width="243.24324324324323" fill="#D1D1D1" stroke="#D1D1D1" stroke-width="0" opacity="0.9" />
<rect x="263.3783783783784" y="235.62" height="3" width="243.24324324324323" fill="#F4EDF2" opacity="0.25" />
<rect x="506.6216216216216" y="234" height="9" width="5.0675675675675675" fill="#009CA2" stroke="#009CA2" stroke-width="0" opacity="0.9" />
<rect x="506.6216216216216" y="235.62" height="3" width="5.0675675675675675" fill="#F4EDF2" opacity="0.25" />
<rect x="511.68918918918916" y="234" height="9" width="5.0675675675675675" fill="#BABABA" stroke="#BABABA" stroke-width="0" opacity="0.9" />
<rect x="511.68918918918916" y="235.62" height="3" width="5.0675675675675675" fill="#F4EDF2" opacity="0.25" />
<rect x="516.7567567567568" y="234" height="9" width="243.24324324324323" fill="#009CA2" stroke="#009CA2" stroke-width="0" opacity="0.9" />
<rect x="516.7567567567568" y="235.62" height="3" width="243.24324324324323" fill="#F4EDF2" opacity="0.25" />
<path d="M 760 234 C 764.5 234, 764.5 243, 760 243" fill="#009CA2" opacity="0.9" />
<rect x="10" y="249" height="12" width="12" fill="#1383C6" stroke="#1383C6" stroke-width="0" opacity="0.9" />
<text x="24" y="260" font-family="monospace" font-weight="bold" font-size="14px" >TG</text>
</svg>
