<?xml version="1.0"?>
<svg xmlns="http://www.w3.org/2000/svg" xmlns:xlink="http://www.w3.org/1999/xlink" width="770" height="134">
<rect width="100%" height="100%" fill="white"/>
<path d="M 10 14 C 5.5 14, 5.5 23, 10 23" fill="#009CA2" opacity="0.9" />
<rect x="10" y="14" height="9" width="46.699875466998755" fill="#009CA2" stroke="#009CA2" stroke-width="0" opacity="0.9" />
<rect x="10" y="15.62" height="3" width="46.699875466998755" fill="#F4EDF2" opacity="0.25" />
<rect x="56.699875466998755" y="14" height="9" width="42.029887920298876" fill="#1383C6" stroke="#1383C6" stroke-width="0" opacity="0.9" />
<rect x="56.699875466998755" y="15.62" height="3" width="42.029887920298876" fill="#F4EDF2" opacity="0.25" />
<rect x="98.72976338729762" y="14" height="9" width="4.6699875466998755" fill="#D1D1D1" stroke="#D1D1D1" stroke-width="0" opacity="0.9" />
<rect x="98.72976338729762" y="15.62" height="3" width="4.6699875466998755" fill="#F4EDF2" opacity="0.25" />
<line x1="103.3997509339975" y1="18.5" x2="713.3001245330013" y2="18.5" stroke="#BABABA" stroke-width="1.5" />
<rect x="713.3001245330013" y="14" height="9" width="46.699875466998755" fill="#009CA2" stroke="#009CA2" stroke-width="0" opacity="0.9" />
<rect x="713.3001245330013" y="15.62" height="3" width="46.699875466998755" fill="#F4EDF2" opacity="0.25" />
<path d="M 760 14 C 764.5 14, 764.5 23, 760 23" fill="#009CA2" opacity="0.9" />
<path d="M 10 25 C 5.5 25, 5.5 34, 10 34" fill="#009CA2" opacity="0.9" />
<rect x="10" y="25" height="9" width="46.699875466998755" fill="#009CA2" stroke="#009CA2" stroke-width="0" opacity="0.9" />
<rect x="10" y="26.62" height="3" width="46.699875466998755" fill="#F4EDF2" opacity="0.25" />
<rect x="56.699875466998755" y="25" height="9" width="42.029887920298876" fill="#1383C6" stroke="#1383C6" stroke-width="0" opacity="0.9" />
<rect x="56.699875466998755" y="26.62" height="3" width="42.029887920298876" fill="#F4EDF2" opacity="0.25" />
<rect x="98.72976338729762" y="25" height="9" width="4.6699875466998755" fill="#D1D1D1" stroke="#D1D1D1" stroke-width="0" opacity="0.9" />
<rect x="98.72976338729762" y="26.62" height="3" width="4.6699875466998755" fill="#F4EDF2" opacity="0.25" />
<line x1="103.3997509339975" y1="29.5" x2="713.3001245330013" y2="29.5" stroke="#BABABA" stroke-width="1.5" />
<rect x="713.3001245330013" y="25" height="9" width="46.699875466998755" fill="#009CA2" stroke="#009CA2" stroke-width="0" opacity="0.9" />
<rect x="713.3001245330013" y="26.62" height="3" width="46.699875466998755" fill="#F4EDF2" opacity="0.25" />
<path d="M 760 25 C 764.5 25, 764.5 34, 760 34" fill="#009CA2" opacity="0.9" />
<path d="M 10 36 C 5.5 36, 5.5 45, 10 45" fill="#009CA2" opacity="0.9" />
<rect x="10" y="36" height="9" width="46.699875466998755" fill="#009CA2" stroke="#009CA2" stroke-width="0" opacity="0.9" />
<rect x="10" y="37.62" height="3" width="46.699875466998755" fill="#F4EDF2" opacity="0.25" />
<rect x="56.699875466998755" y="36" height="9" width="42.029887920298876" fill="#1383C6" stroke="#1383C6" stroke-width="0" opacity="0.9" />
<rect x="56.699875466998755" y="37.62" height="3" width="42.029887920298876" fill="#F4EDF2" opacity="0.25" />
<rect x="98.72976338729762" y="36" height="9" width="4.6699875466998755" fill="#D1D1D1" stroke="#D1D1D1" stroke-width="0" opacity="0.9" />
<rect x="98.72976338729762" y="37.62" height="3" width="4.6699875466998755" fill="#F4EDF2" opacity="0.25" />
<line x1="103.3997509339975" y1="40.5" x2="713.3001245330013" y2="40.5" stroke="#BABABA" stroke-width="1.5" />
<rect x="713.3001245330013" y="36" height="9" width="46.699875466998755" fill="#009CA2" stroke="#009CA2" stroke-width="0" opacity="0.9" />
<rect x="713.3001245330013" y="37.62" height="3" width="46.699875466998755" fill="#F4EDF2" opacity="0.25" />
<path d="M 760 36 C 764.5 36, 764.5 45, 760 45" fill="#009CA2" opacity="0.9" />
<path d="M 10 47 C 5.5 47, 5.5 56, 10 56" fill="#009CA2" opacity="0.9" />
<rect x="10" y="47" height="9" width="46.699875466998755" fill="#009CA2" stroke="#009CA2" stroke-width="0" opacity="0.9" />
<rect x="10" y="48.62" height="3" width="46.699875466998755" fill="#F4EDF2" opacity="0.25" />
<rect x="56.699875466998755" y="47" height="9" width="42.029887920298876" fill="#1383C6" stroke="#1383C6" stroke-width="0" opacity="0.9" />
<rect x="56.699875466998755" y="48.62" height="3" width="42.029887920298876" fill="#F4EDF2" opacity="0.25" />
<rect x="98.72976338729762" y="47" height="9" width="4.6699875466998755" fill="#D1D1D1" stroke="#D1D1D1" stroke-width="0" opacity="0.9" />
<rect x="98.72976338729762" y="48.62" height="3" width="4.6699875466998755" fill="#F4EDF2" opacity="0.25" />
<line x1="103.3997509339975" y1="51.5" x2="713.3001245330013" y2="51.5" stroke="#BABABA" stroke-width="1.5" />
<rect x="713.3001245330013" y="47" height="9" width="46.699875466998755" fill="#009CA2" stroke="#009CA2" stroke-width="0" opacity="0.9" />
<rect x="713.3001245330013" y="48.62" height="3" width="46.699875466998755" fill="#F4EDF2" opacity="0.25" />
<path d="M 760 47 C 764.5 47, 764.5 56, 760 56" fill="#009CA2" opacity="0.9" />
<path d="M 10 58 C 5.5 58, 5.5 67, 10 67" fill="#009CA2" opacity="0.9" />
<rect x="10" y="58" height="9" width="46.699875466998755" fill="#009CA2" stroke="#009CA2" stroke-width="0" opacity="0.9" />
<rect x="10" y="59.62" height="3" width="46.699875466998755" fill="#F4EDF2" opacity="0.25" />
<rect x="56.699875466998755" y="58" height="9" width="42.029887920298876" fill="#1383C6" stroke="#1383C6" stroke-width="0" opacity="0.9" />
<rect x="56.699875466998755" y="59.62" height="3" width="42.029887920298876" fill="#F4EDF2" opacity="0.25" />
<rect x="98.72976338729762" y="58" height="9" width="4.6699875466998755" fill="#D1D1D1" stroke="#D1D1D1" stroke-width="0" opacity="0.9" />
<rect x="98.72976338729762" y="59.62" height="3" width="4.6699875466998755" fill="#F4EDF2" opacity="0.25" />
<line x1="103.3997509339975" y1="62.5" x2="713.3001245330013" y2="62.5" stroke="#BABABA" stroke-width="1.5" />
<rect x="713.3001245330013" y="58" height="9" width="46.699875466998755" fill="#009CA2" stroke="#009CA2" stroke-width="0" opacity="0.9" />
<rect x="713.3001245330013" y="59.62" height="3" width="46.699875466998755" fill="#F4EDF2" opacity="0.25" />
<path d="M 760 58 C 764.5 58, 764.5 67, 760 67" fill="#009CA2" opacity="0.9" />
<path d="M 10 69 C 5.5 69, 5.5 78, 10 78" fill="#009CA2" opacity="0.9" />
<rect x="10" y="69" height="9" width="46.699875466998755" fill="#009CA2" stroke="#009CA2" stroke-width="0" opacity="0.9" />
<rect x="10" y="70.62" height="3" width="46.699875466998755" fill="#F4EDF2" opacity="0.25" />
<rect x="56.699875466998755" y="69" height="9" width="28.019925280199253" fill="#1383C6" stroke="#1383C6" stroke-width="0" opacity="0.9" />
<rect x="56.699875466998755" y="70.62" height="3" width="28.019925280199253" fill="#F4EDF2" opacity="0.25" />
<rect x="84.71980074719801" y="69" height="9" width="0.933997509339975" fill="#D1D1D1" stroke="#D1D1D1" stroke-width="0" opacity="0.9" />
<rect x="84.71980074719801" y="70.62" height="3" width="0.933997509339975" fill="#F4EDF2" opacity="0.25" />
<rect x="85.65379825653798" y="69" height="9" width="14.009962640099626" fill="#1383C6" stroke="#1383C6" stroke-width="0" opacity="0.9" />
<rect x="85.65379825653798" y="70.62" height="3" width="14.009962640099626" fill="#F4EDF2" opacity="0.25" />
<rect x="99.66376089663761" y="69" height="9" width="4.6699875466998755" fill="#D1D1D1" stroke="#D1D1D1" stroke-width="0" opacity="0.9" />
<rect x="99.66376089663761" y="70.62" height="3" width="4.6699875466998755" fill="#F4EDF2" opacity="0.25" />
<line x1="104.33374844333748" y1="73.5" x2="713.3001245330013" y2="73.5" stroke="#BABABA" stroke-width="1.5" />
<rect x="713.3001245330013" y="69" height="9" width="46.699875466998755" fill="#009CA2" stroke="#009CA2" stroke-width="0" opacity="0.9" />
<rect x="713.3001245330013" y="70.62" height="3" width="46.699875466998755" fill="#F4EDF2" opacity="0.25" />
<path d="M 760 69 C 764.5 69, 764.5 78, 760 78" fill="#009CA2" opacity="0.9" />
<path d="M 10 80 C 5.5 80, 5.5 89, 10 89" fill="#009CA2" opacity="0.9" />
<rect x="10" y="80" height="9" width="46.699875466998755" fill="#009CA2" stroke="#009CA2" stroke-width="0" opacity="0.9" />
<rect x="10" y="81.62" height="3" width="46.699875466998755" fill="#F4EDF2" opacity="0.25" />
<rect x="56.699875466998755" y="80" height="9" width="4.6699875466998755" fill="#1383C6" stroke="#1383C6" stroke-width="0" opacity="0.9" />
<rect x="56.699875466998755" y="81.62" height="3" width="4.6699875466998755" fill="#F4EDF2" opacity="0.25" />
<rect x="61.369863013698634" y="80" height="9" width="3.7359900373599" fill="#D1D1D1" stroke="#D1D1D1" stroke-width="0" opacity="0.9" />
<rect x="61.369863013698634" y="81.62" height="3" width="3.7359900373599" fill="#F4EDF2" opacity="0.25" />
<rect x="65.10585305105853" y="80" height="9" width="37.359900373599004" fill="#1383C6" stroke="#1383C6" stroke-width="0" opacity="0.9" />
<rect x="65.10585305105853" y="81.62" height="3" width="37.359900373599004" fill="#F4EDF2" opacity="0.25" />
<rect x="102.46575342465754" y="80" height="9" width="3.7359900373599" fill="#D1D1D1" stroke="#D1D1D1" stroke-width="0" opacity="0.9" />
<rect x="102.46575342465754" y="81.62" height="3" width="3.7359900373599" fill="#F4EDF2" opacity="0.25" />
<line x1="106.20174346201743" y1="84.5" x2="713.3001245330013" y2="84.5" stroke="#BABABA" stroke-width="1.5" />
<rect x="713.3001245330013" y="80" height="9" width="46.699875466998755" fill="#009CA2" stroke="#009CA2" stroke-width="0" opacity="0.9" />
<rect x="713.3001245330013" y="81.62" height="3" width="46.699875466998755" fill="#F4EDF2" opacity="0.25" />
<path d="M 760 80 C 764.5 80, 764.5 89, 760 89" fill="#009CA2" opacity="0.9" />
<path d="M 10 91 C 5.5 91, 5.5 100, 10 100" fill="#009CA2" opacity="0.9" />
<rect x="10" y="91" height="9" width="46.699875466998755" fill="#009CA2" stroke="#009CA2" stroke-width="0" opacity="0.9" />
<rect x="10" y="92.62" height="3" width="46.699875466998755" fill="#F4EDF2" opacity="0.25" />
<rect x="56.699875466998755" y="91" height="9" width="14.009962640099626" fill="#1383C6" stroke="#1383C6" stroke-width="0" opacity="0.9" />
<rect x="56.699875466998755" y="92.62" height="3" width="14.009962640099626" fill="#F4EDF2" opacity="0.25" />
<rect x="70.70983810709838" y="91" height="9" width="10.273972602739725" fill="#D1D1D1" stroke="#D1D1D1" stroke-width="0" opacity="0.9" />
<rect x="70.70983810709838" y="92.62" height="3" width="10.273972602739725" fill="#F4EDF2" opacity="0.25" />
<rect x="80.98381070983811" y="91" height="9" width="23.349937733499377" fill="#1383C6" stroke="#1383C6" stroke-width="0" opacity="0.9" />
<rect x="80.98381070983811" y="92.62" height="3" width="23.349937733499377" fill="#F4EDF2" opacity="0.25" />
<rect x="104.33374844333748" y="91" height="9" width="3.7359900373599" fill="#D1D1D1" stroke="#D1D1D1" stroke-width="0" opacity="0.9" />
<rect x="104.33374844333748" y="92.62" height="3" width="3.7359900373599" fill="#F4EDF2" opacity="0.25" />
<rect x="108.06973848069738" y="91" height="9" width="9.339975093399751" fill="#1383C6" stroke="#1383C6" stroke-width="0" opacity="0.9" />
<rect x="108.06973848069738" y="92.62" height="3" width="9.339975093399751" fill="#F4EDF2" opacity="0.25" />
<rect x="117.40971357409714" y="91" height="9" width="3.7359900373599" fill="#D1D1D1" stroke="#D1D1D1" stroke-width="0" opacity="0.9" />
<rect x="117.40971357409714" y="92.62" height="3" width="3.7359900373599" fill="#F4EDF2" opacity="0.25" />
<rect x="121.14570361145704" y="91" height="9" width="4.6699875466998755" fill="#1383C6" stroke="#1383C6" stroke-width="0" opacity="0.9" />
<rect x="121.14570361145704" y="92.62" height="3" width="4.6699875466998755" fill="#F4EDF2" opacity="0.25" />
<rect x="125.81569115815691" y="91" height="9" width="3.7359900373599" fill="#D1D1D1" stroke="#D1D1D1" stroke-width="0" opacity="0.9" />
<rect x="125.81569115815691" y="92.62" height="3" width="3.7359900373599" fill="#F4EDF2" opacity="0.25" />
<rect x="129.5516811955168" y="91" height="9" width="9.339975093399751" fill="#1383C6" stroke="#1383C6" stroke-width="0" opacity="0.9" />
<rect x="129.5516811955168" y="92.62" height="3" width="9.339975093399751" fill="#F4EDF2" opacity="0.25" />
<rect x="138.89165628891655" y="91" height="9" width="7.4719800747198" fill="#D1D1D1" stroke="#D1D1D1" stroke-width="0" opacity="0.9" />
<rect x="138.89165628891655" y="92.62" height="3" width="7.4719800747198" fill="#F4EDF2" opacity="0.25" />
<rect x="146.36363636363635" y="91" height="9" width="37.359900373599004" fill="#1383C6" stroke="#1383C6" stroke-width="0" opacity="0.9" />
<rect x="146.36363636363635" y="92.62" height="3" width="37.359900373599004" fill="#F4EDF2" opacity="0.25" />
<rect x="183.72353673723535" y="91" height="9" width="3.7359900373599" fill="#D1D1D1" stroke="#D1D1D1" stroke-width="0" opacity="0.9" />
<rect x="183.72353673723535" y="92.62" height="3" width="3.7359900373599" fill="#F4EDF2" opacity="0.25" />
<rect x="187.45952677459525" y="91" height="9" width="4.6699875466998755" fill="#1383C6" stroke="#1383C6" stroke-width="0" opacity="0.9" />
<rect x="187.45952677459525" y="92.62" height="3" width="4.6699875466998755" fill="#F4EDF2" opacity="0.25" />
<rect x="192.12951432129512" y="91" height="9" width="4.6699875466998755" fill="#D1D1D1" stroke="#D1D1D1" stroke-width="0" opacity="0.9" />
<rect x="192.12951432129512" y="92.62" height="3" width="4.6699875466998755" fill="#F4EDF2" opacity="0.25" />
<rect x="196.799501867995" y="91" height="9" width="23.349937733499377" fill="#1383C6" stroke="#1383C6" stroke-width="0" opacity="0.9" />
<rect x="196.799501867995" y="92.62" height="3" width="23.349937733499377" fill="#F4EDF2" opacity="0.25" />
<rect x="220.14943960149438" y="91" height="9" width="3.7359900373599" fill="#D1D1D1" stroke="#D1D1D1" stroke-width="0" opacity="0.9" />
<rect x="220.14943960149438" y="92.62" height="3" width="3.7359900373599" fill="#F4EDF2" opacity="0.25" />
<rect x="223.88542963885428" y="91" height="9" width="37.359900373599004" fill="#1383C6" stroke="#1383C6" stroke-width="0" opacity="0.9" />
<rect x="223.88542963885428" y="92.62" height="3" width="37.359900373599004" fill="#F4EDF2" opacity="0.25" />
<rect x="261.2453300124533" y="91" height="9" width="3.7359900373599" fill="#D1D1D1" stroke="#D1D1D1" stroke-width="0" opacity="0.9" />
<rect x="261.2453300124533" y="92.62" height="3" width="3.7359900373599" fill="#F4EDF2" opacity="0.25" />
<rect x="264.9813200498132" y="91" height="9" width="9.339975093399751" fill="#1383C6" stroke="#1383C6" stroke-width="0" opacity="0.9" />
<rect x="264.9813200498132" y="92.62" height="3" width="9.339975093399751" fill="#F4EDF2" opacity="0.25" />
<rect x="274.3212951432129" y="91" height="9" width="11.2079701120797" fill="#D1D1D1" stroke="#D1D1D1" stroke-width="0" opacity="0.9" />
<rect x="274.3212951432129" y="92.62" height="3" width="11.2079701120797" fill="#F4EDF2" opacity="0.25" />
<rect x="285.5292652552926" y="91" height="9" width="14.009962640099626" fill="#1383C6" stroke="#1383C6" stroke-width="0" opacity="0.9" />
<rect x="285.5292652552926" y="92.62" height="3" width="14.009962640099626" fill="#F4EDF2" opacity="0.25" />
<rect x="299.53922789539223" y="91" height="9" width="14.009962640099626" fill="#814ED1" stroke="#814ED1" stroke-width="0" opacity="0.9" />
<rect x="299.53922789539223" y="92.62" height="3" width="14.009962640099626" fill="#F4EDF2" opacity="0.25" />
<rect x="313.54919053549185" y="91" height="9" width="2.801992528019925" fill="#D1D1D1" stroke="#D1D1D1" stroke-width="0" opacity="0.9" />
<rect x="313.54919053549185" y="92.62" height="3" width="2.801992528019925" fill="#F4EDF2" opacity="0.25" />
<rect x="316.35118306351177" y="91" height="9" width="14.009962640099626" fill="#814ED1" stroke="#814ED1" stroke-width="0" opacity="0.9" />
<rect x="316.35118306351177" y="92.62" height="3" width="14.009962640099626" fill="#F4EDF2" opacity="0.25" />
<rect x="330.3611457036114" y="91" height="9" width="3.7359900373599" fill="#D1D1D1" stroke="#D1D1D1" stroke-width="0" opacity="0.9" />
<rect x="330.3611457036114" y="92.62" height="3" width="3.7359900373599" fill="#F4EDF2" opacity="0.25" />
<rect x="334.0971357409713" y="91" height="9" width="14.009962640099626" fill="#814ED1" stroke="#814ED1" stroke-width="0" opacity="0.9" />
<rect x="334.0971357409713" y="92.62" height="3" width="14.009962640099626" fill="#F4EDF2" opacity="0.25" />
<rect x="348.1070983810709" y="91" height="9" width="3.7359900373599" fill="#D1D1D1" stroke="#D1D1D1" stroke-width="0" opacity="0.9" />
<rect x="348.1070983810709" y="92.62" height="3" width="3.7359900373599" fill="#F4EDF2" opacity="0.25" />
<rect x="351.8430884184308" y="91" height="9" width="4.6699875466998755" fill="#814ED1" stroke="#814ED1" stroke-width="0" opacity="0.9" />
<rect x="351.8430884184308" y="92.62" height="3" width="4.6699875466998755" fill="#F4EDF2" opacity="0.25" />
<rect x="356.51307596513067" y="91" height="9" width="4.6699875466998755" fill="#D1D1D1" stroke="#D1D1D1" stroke-width="0" opacity="0.9" />
<rect x="356.51307596513067" y="92.62" height="3" width="4.6699875466998755" fill="#F4EDF2" opacity="0.25" />
<rect x="361.18306351183054" y="91" height="9" width="23.349937733499377" fill="#814ED1" stroke="#814ED1" stroke-width="0" opacity="0.9" />
<rect x="361.18306351183054" y="92.62" height="3" width="23.349937733499377" fill="#F4EDF2" opacity="0.25" />
<rect x="384.5330012453299" y="91" height="9" width="0.933997509339975" fill="#D1D1D1" stroke="#D1D1D1" stroke-width="0" opacity="0.9" />
<rect x="384.5330012453299" y="92.62" height="3" width="0.933997509339975" fill="#F4EDF2" opacity="0.25" />
<rect x="385.4669987546699" y="91" height="9" width="4.6699875466998755" fill="#1383C6" stroke="#1383C6" stroke-width="0" opacity="0.9" />
<rect x="385.4669987546699" y="92.62" height="3" width="4.6699875466998755" fill="#F4EDF2" opacity="0.25" />
<rect x="390.13698630136975" y="91" height="9" width="4.6699875466998755" fill="#D1D1D1" stroke="#D1D1D1" stroke-width="0" opacity="0.9" />
<rect x="390.13698630136975" y="92.62" height="3" width="4.6699875466998755" fill="#F4EDF2" opacity="0.25" />
<rect x="394.8069738480696" y="91" height="9" width="28.019925280199253" fill="#814ED1" stroke="#814ED1" stroke-width="0" opacity="0.9" />
<rect x="394.8069738480696" y="92.62" height="3" width="28.019925280199253" fill="#F4EDF2" opacity="0.25" />
<rect x="422.82689912826885" y="91" height="9" width="4.6699875466998755" fill="#1383C6" stroke="#1383C6" stroke-width="0" opacity="0.9" />
<rect x="422.82689912826885" y="92.62" height="3" width="4.6699875466998755" fill="#F4EDF2" opacity="0.25" />
<rect x="427.4968866749687" y="91" height="9" width="0.933997509339975" fill="#D1D1D1" stroke="#D1D1D1" stroke-width="0" opacity="0.9" />
<rect x="427.4968866749687" y="92.62" height="3" width="0.933997509339975" fill="#F4EDF2" opacity="0.25" />
<rect x="428.4308841843087" y="91" height="9" width="37.359900373599004" fill="#814ED1" stroke="#814ED1" stroke-width="0" opacity="0.9" />
<rect x="428.4308841843087" y="92.62" height="3" width="37.359900373599004" fill="#F4EDF2" opacity="0.25" />
<rect x="465.7907845579077" y="91" height="9" width="5.60398505603985" fill="#F0E68C" stroke="#F0E68C" stroke-width="0" opacity="0.9" />
<rect x="465.7907845579077" y="92.62" height="3" width="5.60398505603985" fill="#F4EDF2" opacity="0.25" />
<rect x="471.3947696139476" y="91" height="9" width="18.679950186799502" fill="#814ED1" stroke="#814ED1" stroke-width="0" opacity="0.9" />
<rect x="471.3947696139476" y="92.62" height="3" width="18.679950186799502" fill="#F4EDF2" opacity="0.25" />
<rect x="490.07471980074706" y="91" height="9" width="4.6699875466998755" fill="#1383C6" stroke="#1383C6" stroke-width="0" opacity="0.9" />
<rect x="490.07471980074706" y="92.62" height="3" width="4.6699875466998755" fill="#F4EDF2" opacity="0.25" />
<rect x="494.74470734744693" y="91" height="9" width="0.933997509339975" fill="#D1D1D1" stroke="#D1D1D1" stroke-width="0" opacity="0.9" />
<rect x="494.74470734744693" y="92.62" height="3" width="0.933997509339975" fill="#F4EDF2" opacity="0.25" />
<rect x="495.6787048567869" y="91" height="9" width="37.359900373599004" fill="#814ED1" stroke="#814ED1" stroke-width="0" opacity="0.9" />
<rect x="495.6787048567869" y="92.62" height="3" width="37.359900373599004" fill="#F4EDF2" opacity="0.25" />
<rect x="533.0386052303859" y="91" height="9" width="3.7359900373599" fill="#D1D1D1" stroke="#D1D1D1" stroke-width="0" opacity="0.9" />
<rect x="533.0386052303859" y="92.62" height="3" width="3.7359900373599" fill="#F4EDF2" opacity="0.25" />
<rect x="536.7745952677458" y="91" height="9" width="4.6699875466998755" fill="#814ED1" stroke="#814ED1" stroke-width="0" opacity="0.9" />
<rect x="536.7745952677458" y="92.62" height="3" width="4.6699875466998755" fill="#F4EDF2" opacity="0.25" />
<rect x="541.4445828144457" y="91" height="9" width="5.60398505603985" fill="#F0E68C" stroke="#F0E68C" stroke-width="0" opacity="0.9" />
<rect x="541.4445828144457" y="92.62" height="3" width="5.60398505603985" fill="#F4EDF2" opacity="0.25" />
<rect x="547.0485678704855" y="91" height="9" width="42.029887920298876" fill="#814ED1" stroke="#814ED1" stroke-width="0" opacity="0.9" />
<rect x="547.0485678704855" y="92.62" height="3" width="42.029887920298876" fill="#F4EDF2" opacity="0.25" />
<rect x="589.0784557907843" y="91" height="9" width="4.6699875466998755" fill="#1383C6" stroke="#1383C6" stroke-width="0" opacity="0.9" />
<rect x="589.0784557907843" y="92.62" height="3" width="4.6699875466998755" fill="#F4EDF2" opacity="0.25" />
<rect x="593.7484433374842" y="91" height="9" width="0.933997509339975" fill="#D1D1D1" stroke="#D1D1D1" stroke-width="0" opacity="0.9" />
<rect x="593.7484433374842" y="92.62" height="3" width="0.933997509339975" fill="#F4EDF2" opacity="0.25" />
<rect x="594.6824408468242" y="91" height="9" width="51.36986301369863" fill="#814ED1" stroke="#814ED1" stroke-width="0" opacity="0.9" />
<rect x="594.6824408468242" y="92.62" height="3" width="51.36986301369863" fill="#F4EDF2" opacity="0.25" />
<rect x="646.0523038605228" y="91" height="9" width="3.7359900373599" fill="#D1D1D1" stroke="#D1D1D1" stroke-width="0" opacity="0.9" />
<rect x="646.0523038605228" y="92.62" height="3" width="3.7359900373599" fill="#F4EDF2" opacity="0.25" />
<rect x="649.7882938978827" y="91" height="9" width="9.339975093399751" fill="#814ED1" stroke="#814ED1" stroke-width="0" opacity="0.9" />
<rect x="649.7882938978827" y="92.62" height="3" width="9.339975093399751" fill="#F4EDF2" opacity="0.25" />
<rect x="659.1282689912824" y="91" height="9" width="28.019925280199253" fill="#1383C6" stroke="#1383C6" stroke-width="0" opacity="0.9" />
<rect x="659.1282689912824" y="92.62" height="3" width="28.019925280199253" fill="#F4EDF2" opacity="0.25" />
<rect x="687.1481942714817" y="91" height="9" width="3.7359900373599" fill="#D1D1D1" stroke="#D1D1D1" stroke-width="0" opacity="0.9" />
<rect x="687.1481942714817" y="92.62" height="3" width="3.7359900373599" fill="#F4EDF2" opacity="0.25" />
<rect x="690.8841843088416" y="91" height="9" width="14.009962640099626" fill="#1383C6" stroke="#1383C6" stroke-width="0" opacity="0.9" />
<rect x="690.8841843088416" y="92.62" height="3" width="14.009962640099626" fill="#F4EDF2" opacity="0.25" />
<rect x="704.8941469489412" y="91" height="9" width="3.7359900373599" fill="#D1D1D1" stroke="#D1D1D1" stroke-width="0" opacity="0.9" />
<rect x="704.8941469489412" y="92.62" height="3" width="3.7359900373599" fill="#F4EDF2" opacity="0.25" />
<line x1="708.6301369863011" y1="95.5" x2="713.3001245330009" y2="95.5" stroke="#BABABA" stroke-width="1.5" />
<rect x="713.3001245330009" y="91" height="9" width="26.1519302615193" fill="#009CA2" stroke="#009CA2" stroke-width="0" opacity="0.9" />
<rect x="713.3001245330009" y="92.62" height="3" width="26.1519302615193" fill="#F4EDF2" opacity="0.25" />
<rect x="739.4520547945202" y="91" height="9" width="18.679950186799502" fill="#009CA2" stroke="#009CA2" stroke-width="0" opacity="0.9" />
<rect x="739.4520547945202" y="92.62" height="3" width="18.679950186799502" fill="#F4EDF2" opacity="0.25" />
<line x1="758.1320049813197" y1="95.5" x2="759.9999999999997" y2="95.5" stroke="#009CA2" stroke-width="1.5" />
<path d="M 759.9999999999997 91 C 764.4999999999997 91, 764.4999999999997 100, 759.9999999999997 100" fill="#009CA2" opacity="0.9" />
<line x1="739.4520547945202" y1="91" x2="739.4520547945202" y2="100" stroke="#000000" stroke-width="0.933997509339975" />
<path d="M 10 102 C 5.5 102, 5.5 111, 10 111" fill="#009CA2" opacity="0.9" />
<rect x="10" y="102" height="9" width="46.699875466998755" fill="#009CA2" stroke="#009CA2" stroke-width="0" opacity="0.9" />
<rect x="10" y="103.62" height="3" width="46.699875466998755" fill="#F4EDF2" opacity="0.25" />
<rect x="56.699875466998755" y="102" height="9" width="3.7359900373599" fill="#D1D1D1" stroke="#D1D1D1" stroke-width="0" opacity="0.9" />
<rect x="56.699875466998755" y="103.62" height="3" width="3.7359900373599" fill="#F4EDF2" opacity="0.25" />
<rect x="60.43586550435865" y="102" height="9" width="46.699875466998755" fill="#1383C6" stroke="#1383C6" stroke-width="0" opacity="0.9" />
<rect x="60.43586550435865" y="103.62" height="3" width="46.699875466998755" fill="#F4EDF2" opacity="0.25" />
<rect x="107.13574097135741" y="102" height="9" width="2.801992528019925" fill="#D1D1D1" stroke="#D1D1D1" stroke-width="0" opacity="0.9" />
<rect x="107.13574097135741" y="103.62" height="3" width="2.801992528019925" fill="#F4EDF2" opacity="0.25" />
<rect x="109.93773349937733" y="102" height="9" width="23.349937733499377" fill="#1383C6" stroke="#1383C6" stroke-width="0" opacity="0.9" />
<rect x="109.93773349937733" y="103.62" height="3" width="23.349937733499377" fill="#F4EDF2" opacity="0.25" />
<rect x="133.2876712328767" y="102" height="9" width="10.273972602739725" fill="#D1D1D1" stroke="#D1D1D1" stroke-width="0" opacity="0.9" />
<rect x="133.2876712328767" y="103.62" height="3" width="10.273972602739725" fill="#F4EDF2" opacity="0.25" />
<rect x="143.56164383561642" y="102" height="9" width="14.009962640099626" fill="#1383C6" stroke="#1383C6" stroke-width="0" opacity="0.9" />
<rect x="143.56164383561642" y="103.62" height="3" width="14.009962640099626" fill="#F4EDF2" opacity="0.25" />
<rect x="157.57160647571604" y="102" height="9" width="3.7359900373599" fill="#D1D1D1" stroke="#D1D1D1" stroke-width="0" opacity="0.9" />
<rect x="157.57160647571604" y="103.62" height="3" width="3.7359900373599" fill="#F4EDF2" opacity="0.25" />
<rect x="161.30759651307594" y="102" height="9" width="9.339975093399751" fill="#1383C6" stroke="#1383C6" stroke-width="0" opacity="0.9" />
<rect x="161.30759651307594" y="103.62" height="3" width="9.339975093399751" fill="#F4EDF2" opacity="0.25" />
<rect x="170.64757160647568" y="102" height="9" width="0.933997509339975" fill="#D1D1D1" stroke="#D1D1D1" stroke-width="0" opacity="0.9" />
<rect x="170.64757160647568" y="103.62" height="3" width="0.933997509339975" fill="#F4EDF2" opacity="0.25" />
<rect x="171.58156911581565" y="102" height="9" width="42.029887920298876" fill="#1383C6" stroke="#1383C6" stroke-width="0" opacity="0.9" />
<rect x="171.58156911581565" y="103.62" height="3" width="42.029887920298876" fill="#F4EDF2" opacity="0.25" />
<rect x="213.61145703611453" y="102" height="9" width="6.537982565379825" fill="#D1D1D1" stroke="#D1D1D1" stroke-width="0" opacity="0.9" />
<rect x="213.61145703611453" y="103.62" height="3" width="6.537982565379825" fill="#F4EDF2" opacity="0.25" />
<rect x="220.14943960149435" y="102" height="9" width="9.339975093399751" fill="#1383C6" stroke="#1383C6" stroke-width="0" opacity="0.9" />
<rect x="220.14943960149435" y="103.62" height="3" width="9.339975093399751" fill="#F4EDF2" opacity="0.25" />
<rect x="229.4894146948941" y="102" height="9" width="3.7359900373599" fill="#D1D1D1" stroke="#D1D1D1" stroke-width="0" opacity="0.9" />
<rect x="229.4894146948941" y="103.62" height="3" width="3.7359900373599" fill="#F4EDF2" opacity="0.25" />
<rect x="233.225404732254" y="102" height="9" width="37.359900373599004" fill="#1383C6" stroke="#1383C6" stroke-width="0" opacity="0.9" />
<rect x="233.225404732254" y="103.62" height="3" width="37.359900373599004" fill="#F4EDF2" opacity="0.25" />
<rect x="270.58530510585297" y="102" height="9" width="1.86799501867995" fill="#D1D1D1" stroke="#D1D1D1" stroke-width="0" opacity="0.9" />
<rect x="270.58530510585297" y="103.62" height="3" width="1.86799501867995" fill="#F4EDF2" opacity="0.25" />
<rect x="272.4533001245329" y="102" height="9" width="18.679950186799502" fill="#1383C6" stroke="#1383C6" stroke-width="0" opacity="0.9" />
<rect x="272.4533001245329" y="103.62" height="3" width="18.679950186799502" fill="#F4EDF2" opacity="0.25" />
<rect x="291.1332503113324" y="102" height="9" width="9.339975093399751" fill="#D1D1D1" stroke="#D1D1D1" stroke-width="0" opacity="0.9" />
<rect x="291.1332503113324" y="103.62" height="3" width="9.339975093399751" fill="#F4EDF2" opacity="0.25" />
<rect x="300.47322540473215" y="102" height="9" width="4.6699875466998755" fill="#814ED1" stroke="#814ED1" stroke-width="0" opacity="0.9" />
<rect x="300.47322540473215" y="103.62" height="3" width="4.6699875466998755" fill="#F4EDF2" opacity="0.25" />
<rect x="305.143212951432" y="102" height="9" width="3.7359900373599" fill="#D1D1D1" stroke="#D1D1D1" stroke-width="0" opacity="0.9" />
<rect x="305.143212951432" y="103.62" height="3" width="3.7359900373599" fill="#F4EDF2" opacity="0.25" />
<rect x="308.8792029887919" y="102" height="9" width="4.6699875466998755" fill="#814ED1" stroke="#814ED1" stroke-width="0" opacity="0.9" />
<rect x="308.8792029887919" y="103.62" height="3" width="4.6699875466998755" fill="#F4EDF2" opacity="0.25" />
<rect x="313.5491905354918" y="102" height="9" width="13.07596513075965" fill="#D1D1D1" stroke="#D1D1D1" stroke-width="0" opacity="0.9" />
<rect x="313.5491905354918" y="103.62" height="3" width="13.07596513075965" fill="#F4EDF2" opacity="0.25" />
<rect x="326.62515566625143" y="102" height="9" width="37.359900373599004" fill="#814ED1" stroke="#814ED1" stroke-width="0" opacity="0.9" />
<rect x="326.62515566625143" y="103.62" height="3" width="37.359900373599004" fill="#F4EDF2" opacity="0.25" />
<rect x="363.9850560398504" y="102" height="9" width="4.6699875466998755" fill="#D1D1D1" stroke="#D1D1D1" stroke-width="0" opacity="0.9" />
<rect x="363.9850560398504" y="103.62" height="3" width="4.6699875466998755" fill="#F4EDF2" opacity="0.25" />
<rect x="368.6550435865503" y="102" height="9" width="79.38978829389788" fill="#814ED1" stroke="#814ED1" stroke-width="0" opacity="0.9" />
<rect x="368.6550435865503" y="103.62" height="3" width="79.38978829389788" fill="#F4EDF2" opacity="0.25" />
<rect x="448.04483188044816" y="102" height="9" width="3.7359900373599" fill="#D1D1D1" stroke="#D1D1D1" stroke-width="0" opacity="0.9" />
<rect x="448.04483188044816" y="103.62" height="3" width="3.7359900373599" fill="#F4EDF2" opacity="0.25" />
<rect x="451.78082191780805" y="102" height="9" width="18.679950186799502" fill="#814ED1" stroke="#814ED1" stroke-width="0" opacity="0.9" />
<rect x="451.78082191780805" y="103.62" height="3" width="18.679950186799502" fill="#F4EDF2" opacity="0.25" />
<rect x="470.46077210460754" y="102" height="9" width="0.933997509339975" fill="#D1D1D1" stroke="#D1D1D1" stroke-width="0" opacity="0.9" />
<rect x="470.46077210460754" y="103.62" height="3" width="0.933997509339975" fill="#F4EDF2" opacity="0.25" />
<rect x="471.3947696139475" y="102" height="9" width="4.6699875466998755" fill="#1383C6" stroke="#1383C6" stroke-width="0" opacity="0.9" />
<rect x="471.3947696139475" y="103.62" height="3" width="4.6699875466998755" fill="#F4EDF2" opacity="0.25" />
<rect x="476.0647571606474" y="102" height="9" width="0.933997509339975" fill="#D1D1D1" stroke="#D1D1D1" stroke-width="0" opacity="0.9" />
<rect x="476.0647571606474" y="103.62" height="3" width="0.933997509339975" fill="#F4EDF2" opacity="0.25" />
<rect x="476.99875466998736" y="102" height="9" width="9.339975093399751" fill="#814ED1" stroke="#814ED1" stroke-width="0" opacity="0.9" />
<rect x="476.99875466998736" y="103.62" height="3" width="9.339975093399751" fill="#F4EDF2" opacity="0.25" />
<rect x="486.3387297633871" y="102" height="9" width="3.7359900373599" fill="#D1D1D1" stroke="#D1D1D1" stroke-width="0" opacity="0.9" />
<rect x="486.3387297633871" y="103.62" height="3" width="3.7359900373599" fill="#F4EDF2" opacity="0.25" />
<rect x="490.074719800747" y="102" height="9" width="28.019925280199253" fill="#814ED1" stroke="#814ED1" stroke-width="0" opacity="0.9" />
<rect x="490.074719800747" y="103.62" height="3" width="28.019925280199253" fill="#F4EDF2" opacity="0.25" />
<rect x="518.0946450809463" y="102" height="9" width="2.801992528019925" fill="#D1D1D1" stroke="#D1D1D1" stroke-width="0" opacity="0.9" />
<rect x="518.0946450809463" y="103.62" height="3" width="2.801992528019925" fill="#F4EDF2" opacity="0.25" />
<rect x="520.8966376089662" y="102" height="9" width="23.349937733499377" fill="#814ED1" stroke="#814ED1" stroke-width="0" opacity="0.9" />
<rect x="520.8966376089662" y="103.62" height="3" width="23.349937733499377" fill="#F4EDF2" opacity="0.25" />
<rect x="544.2465753424656" y="102" height="9" width="4.6699875466998755" fill="#1383C6" stroke="#1383C6" stroke-width="0" opacity="0.9" />
<rect x="544.2465753424656" y="103.62" height="3" width="4.6699875466998755" fill="#F4EDF2" opacity="0.25" />
<rect x="548.9165628891654" y="102" height="9" width="0.933997509339975" fill="#D1D1D1" stroke="#D1D1D1" stroke-width="0" opacity="0.9" />
<rect x="548.9165628891654" y="103.62" height="3" width="0.933997509339975" fill="#F4EDF2" opacity="0.25" />
<rect x="549.8505603985054" y="102" height="9" width="23.349937733499377" fill="#814ED1" stroke="#814ED1" stroke-width="0" opacity="0.9" />
<rect x="549.8505603985054" y="103.62" height="3" width="23.349937733499377" fill="#F4EDF2" opacity="0.25" />
<rect x="573.2004981320048" y="102" height="9" width="6.537982565379825" fill="#D1D1D1" stroke="#D1D1D1" stroke-width="0" opacity="0.9" />
<rect x="573.2004981320048" y="103.62" height="3" width="6.537982565379825" fill="#F4EDF2" opacity="0.25" />
<rect x="579.7384806973846" y="102" height="9" width="4.6699875466998755" fill="#814ED1" stroke="#814ED1" stroke-width="0" opacity="0.9" />
<rect x="579.7384806973846" y="103.62" height="3" width="4.6699875466998755" fill="#F4EDF2" opacity="0.25" />
<rect x="584.4084682440845" y="102" height="9" width="6.537982565379825" fill="#D1D1D1" stroke="#D1D1D1" stroke-width="0" opacity="0.9" />
<rect x="584.4084682440845" y="103.62" height="3" width="6.537982565379825" fill="#F4EDF2" opacity="0.25" />
<rect x="590.9464508094643" y="102" height="9" width="23.349937733499377" fill="#814ED1" stroke="#814ED1" stroke-width="0" opacity="0.9" />
<rect x="590.9464508094643" y="103.62" height="3" width="23.349937733499377" fill="#F4EDF2" opacity="0.25" />
<rect x="614.2963885429637" y="102" height="9" width="4.6699875466998755" fill="#ED3981" stroke="#ED3981" stroke-width="0" opacity="0.9" />
<rect x="614.2963885429637" y="103.62" height="3" width="4.6699875466998755" fill="#F4EDF2" opacity="0.25" />
<rect x="618.9663760896635" y="102" height="9" width="0.933997509339975" fill="#D1D1D1" stroke="#D1D1D1" stroke-width="0" opacity="0.9" />
<rect x="618.9663760896635" y="103.62" height="3" width="0.933997509339975" fill="#F4EDF2" opacity="0.25" />
<rect x="619.9003735990035" y="102" height="9" width="32.689912826899125" fill="#814ED1" stroke="#814ED1" stroke-width="0" opacity="0.9" />
<rect x="619.9003735990035" y="103.62" height="3" width="32.689912826899125" fill="#F4EDF2" opacity="0.25" />
<rect x="652.5902864259026" y="102" height="9" width="4.6699875466998755" fill="#1383C6" stroke="#1383C6" stroke-width="0" opacity="0.9" />
<rect x="652.5902864259026" y="103.62" height="3" width="4.6699875466998755" fill="#F4EDF2" opacity="0.25" />
<rect x="657.2602739726025" y="102" height="9" width="4.6699875466998755" fill="#814ED1" stroke="#814ED1" stroke-width="0" opacity="0.9" />
<rect x="657.2602739726025" y="103.62" height="3" width="4.6699875466998755" fill="#F4EDF2" opacity="0.25" />
<rect x="661.9302615193023" y="102" height="9" width="3.7359900373599" fill="#D1D1D1" stroke="#D1D1D1" stroke-width="0" opacity="0.9" />
<rect x="661.9302615193023" y="103.62" height="3" width="3.7359900373599" fill="#F4EDF2" opacity="0.25" />
<rect x="665.6662515566622" y="102" height="9" width="37.359900373599004" fill="#1383C6" stroke="#1383C6" stroke-width="0" opacity="0.9" />
<rect x="665.6662515566622" y="103.62" height="3" width="37.359900373599004" fill="#F4EDF2" opacity="0.25" />
<rect x="703.0261519302612" y="102" height="9" width="0.933997509339975" fill="#D1D1D1" stroke="#D1D1D1" stroke-width="0" opacity="0.9" />
<rect x="703.0261519302612" y="103.62" height="3" width="0.933997509339975" fill="#F4EDF2" opacity="0.25" />
<rect x="703.9601494396012" y="102" height="9" width="4.6699875466998755" fill="#1383C6" stroke="#1383C6" stroke-width="0" opacity="0.9" />
<rect x="703.9601494396012" y="103.62" height="3" width="4.6699875466998755" fill="#F4EDF2" opacity="0.25" />
<rect x="708.6301369863011" y="102" height="9" width="4.6699875466998755" fill="#D1D1D1" stroke="#D1D1D1" stroke-width="0" opacity="0.9" />
<rect x="708.6301369863011" y="103.62" height="3" width="4.6699875466998755" fill="#F4EDF2" opacity="0.25" />
<rect x="713.3001245330009" y="102" height="9" width="46.699875466998755" fill="#009CA2" stroke="#009CA2" stroke-width="0" opacity="0.9" />
<rect x="713.3001245330009" y="103.62" height="3" width="46.699875466998755" fill="#F4EDF2" opacity="0.25" />
<path d="M 759.9999999999997 102 C 764.4999999999997 102, 764.4999999999997 111, 759.9999999999997 111" fill="#009CA2" opacity="0.9" />
<rect x="10" y="117" height="12" width="12" fill="#1383C6" stroke="#1383C6" stroke-width="0" opacity="0.9" />
<text x="24" y="128" font-family="monospace" font-weight="bold" font-size="14px" >AAAAG</text>
<rect x="79" y="117" height="12" width="12" fill="#814ED1" stroke="#814ED1" stroke-width="0" opacity="0.9" />
<text x="93" y="128" font-family="monospace" font-weight="bold" font-size="14px" >AAAGG</text>
<rect x="148" y="117" height="12" width="12" fill="#E16A2C" stroke="#E16A2C" stroke-width="0" opacity="0.9" />
<text x="162" y="128" font-family="monospace" font-weight="bold" font-size="14px" >AAGGG</text>
<rect x="217" y="117" height="12" width="12" fill="#ED3981" stroke="#ED3981" stroke-width="0" opacity="0.9" />
<text x="231" y="128" font-family="monospace" font-weight="bold" font-size="14px" >AAGAG</text>
<rect x="286" y="117" height="12" width="12" fill="#EFCD17" stroke="#EFCD17" stroke-width="0" opacity="0.9" />
<text x="300" y="128" font-family="monospace" font-weight="bold" font-size="14px" >AGAGG</text>
<rect x="355" y="117" height="12" width="12" fill="#009D4E" stroke="#009D4E" stroke-width="0" opacity="0.9" />
<text x="369" y="128" font-family="monospace" font-weight="bold" font-size="14px" >AACGG</text>
<rect x="424" y="117" height="12" width="12" fill="#E3371E" stroke="#E3371E" stroke-width="0" opacity="0.9" />
<text x="438" y="128" font-family="monospace" font-weight="bold" font-size="14px" >GGGAC</text>
<rect x="493" y="117" height="12" width="12" fill="#F0E68C" stroke="#F0E68C" stroke-width="0" opacity="0.9" />
<text x="507" y="128" font-family="monospace" font-weight="bold" font-size="14px" >AAAGGG</text>
</svg>
