<?xml version="1.0"?>
<svg xmlns="http://www.w3.org/2000/svg" xmlns:xlink="http://www.w3.org/1999/xlink" width="770.0000000000001" height="233">
<rect width="100%" height="100%" fill="white"/>
<path d="M 10 14 C 5.5 14, 5.5 23, 10 23" fill="#009CA2" opacity="0.9" />
<rect x="10" y="14" height="9" width="190.35532994923858" fill="#009CA2" stroke="#009CA2" stroke-width="0" opacity="0.9" />
<rect x="10" y="15.62" height="3" width="190.35532994923858" fill="#F4EDF2" opacity="0.25" />
<rect x="200.35532994923858" y="14" height="9" width="133.248730964467" fill="#D1D1D1" stroke="#D1D1D1" stroke-width="0" opacity="0.9" />
<rect x="200.35532994923858" y="15.62" height="3" width="133.248730964467" fill="#F4EDF2" opacity="0.25" />
<line x1="333.60406091370555" y1="18.5" x2="569.6446700507614" y2="18.5" stroke="#BABABA" stroke-width="1.5" />
<rect x="569.6446700507614" y="14" height="9" width="190.35532994923858" fill="#009CA2" stroke="#009CA2" stroke-width="0" opacity="0.9" />
<rect x="569.6446700507614" y="15.62" height="3" width="190.35532994923858" fill="#F4EDF2" opacity="0.25" />
<path d="M 760 14 C 764.5 14, 764.5 23, 760 23" fill="#009CA2" opacity="0.9" />
<rect x="44.263959390862944" y="14" height="9" width="3.8071065989847717" fill="#F90206" stroke="#F90206" stroke-width="0" opacity="0.9" />
<rect x="695.2791878172588" y="14" height="9" width="3.8071065989847717" fill="#B0174F" stroke="#B0174F" stroke-width="0" opacity="0.9" />
<path d="M 10 25 C 5.5 25, 5.5 34, 10 34" fill="#009CA2" opacity="0.9" />
<rect x="10" y="25" height="9" width="190.35532994923858" fill="#009CA2" stroke="#009CA2" stroke-width="0" opacity="0.9" />
<rect x="10" y="26.62" height="3" width="190.35532994923858" fill="#F4EDF2" opacity="0.25" />
<rect x="200.35532994923858" y="25" height="9" width="133.248730964467" fill="#D1D1D1" stroke="#D1D1D1" stroke-width="0" opacity="0.9" />
<rect x="200.35532994923858" y="26.62" height="3" width="133.248730964467" fill="#F4EDF2" opacity="0.25" />
<line x1="333.60406091370555" y1="29.5" x2="569.6446700507614" y2="29.5" stroke="#BABABA" stroke-width="1.5" />
<rect x="569.6446700507614" y="25" height="9" width="190.35532994923858" fill="#009CA2" stroke="#009CA2" stroke-width="0" opacity="0.9" />
<rect x="569.6446700507614" y="26.62" height="3" width="190.35532994923858" fill="#F4EDF2" opacity="0.25" />
<path d="M 760 25 C 764.5 25, 764.5 34, 760 34" fill="#009CA2" opacity="0.9" />
<path d="M 10 36 C 5.5 36, 5.5 45, 10 45" fill="#009CA2" opacity="0.9" />
<rect x="10" y="36" height="9" width="190.35532994923858" fill="#009CA2" stroke="#009CA2" stroke-width="0" opacity="0.9" />
<rect x="10" y="37.62" height="3" width="190.35532994923858" fill="#F4EDF2" opacity="0.25" />
<rect x="200.35532994923858" y="36" height="9" width="133.248730964467" fill="#D1D1D1" stroke="#D1D1D1" stroke-width="0" opacity="0.9" />
<rect x="200.35532994923858" y="37.62" height="3" width="133.248730964467" fill="#F4EDF2" opacity="0.25" />
<line x1="333.60406091370555" y1="40.5" x2="569.6446700507614" y2="40.5" stroke="#BABABA" stroke-width="1.5" />
<rect x="569.6446700507614" y="36" height="9" width="190.35532994923858" fill="#009CA2" stroke="#009CA2" stroke-width="0" opacity="0.9" />
<rect x="569.6446700507614" y="37.62" height="3" width="190.35532994923858" fill="#F4EDF2" opacity="0.25" />
<path d="M 760 36 C 764.5 36, 764.5 45, 760 45" fill="#009CA2" opacity="0.9" />
<rect x="44.263959390862944" y="36" height="9" width="3.8071065989847717" fill="#0049FF" stroke="#0049FF" stroke-width="0" opacity="0.9" />
<rect x="695.2791878172588" y="36" height="9" width="3.8071065989847717" fill="#5531AA" stroke="#5531AA" stroke-width="0" opacity="0.9" />
<path d="M 10 47 C 5.5 47, 5.5 56, 10 56" fill="#009CA2" opacity="0.9" />
<rect x="10" y="47" height="9" width="79.94923857868021" fill="#009CA2" stroke="#009CA2" stroke-width="0" opacity="0.9" />
<rect x="10" y="48.62" height="3" width="79.94923857868021" fill="#F4EDF2" opacity="0.25" />
<line x1="89.94923857868021" y1="51.5" x2="93.75634517766498" y2="51.5" stroke="#009CA2" stroke-width="1.5" />
<rect x="93.75634517766498" y="47" height="9" width="106.59898477157361" fill="#009CA2" stroke="#009CA2" stroke-width="0" opacity="0.9" />
<rect x="93.75634517766498" y="48.62" height="3" width="106.59898477157361" fill="#F4EDF2" opacity="0.25" />
<rect x="200.35532994923858" y="47" height="9" width="133.248730964467" fill="#D1D1D1" stroke="#D1D1D1" stroke-width="0" opacity="0.9" />
<rect x="200.35532994923858" y="48.62" height="3" width="133.248730964467" fill="#F4EDF2" opacity="0.25" />
<line x1="333.60406091370555" y1="51.5" x2="569.6446700507614" y2="51.5" stroke="#BABABA" stroke-width="1.5" />
<rect x="569.6446700507614" y="47" height="9" width="95.17766497461929" fill="#009CA2" stroke="#009CA2" stroke-width="0" opacity="0.9" />
<rect x="569.6446700507614" y="48.62" height="3" width="95.17766497461929" fill="#F4EDF2" opacity="0.25" />
<line x1="664.8223350253807" y1="51.5" x2="668.6294416243654" y2="51.5" stroke="#009CA2" stroke-width="1.5" />
<rect x="668.6294416243654" y="47" height="9" width="87.56345177664974" fill="#009CA2" stroke="#009CA2" stroke-width="0" opacity="0.9" />
<rect x="668.6294416243654" y="48.62" height="3" width="87.56345177664974" fill="#F4EDF2" opacity="0.25" />
<rect x="756.1928934010152" y="47" height="9" width="3.8071065989847717" fill="#009CA2" stroke="#009CA2" stroke-width="0" opacity="0.9" />
<rect x="756.1928934010152" y="48.62" height="3" width="3.8071065989847717" fill="#F4EDF2" opacity="0.25" />
<path d="M 760 47 C 764.5 47, 764.5 56, 760 56" fill="#009CA2" opacity="0.9" />
<line x1="10" y1="47" x2="10" y2="56" stroke="#000000" stroke-width="2" />
<line x1="756.1928934010152" y1="47" x2="756.1928934010152" y2="56" stroke="#000000" stroke-width="2" />
<path d="M 10 58 C 5.5 58, 5.5 67, 10 67" fill="#009CA2" opacity="0.9" />
<rect x="10" y="58" height="9" width="190.35532994923858" fill="#009CA2" stroke="#009CA2" stroke-width="0" opacity="0.9" />
<rect x="10" y="59.62" height="3" width="190.35532994923858" fill="#F4EDF2" opacity="0.25" />
<rect x="200.35532994923858" y="58" height="9" width="133.248730964467" fill="#D1D1D1" stroke="#D1D1D1" stroke-width="0" opacity="0.9" />
<rect x="200.35532994923858" y="59.62" height="3" width="133.248730964467" fill="#F4EDF2" opacity="0.25" />
<line x1="333.60406091370555" y1="62.5" x2="569.6446700507614" y2="62.5" stroke="#BABABA" stroke-width="1.5" />
<rect x="569.6446700507614" y="58" height="9" width="190.35532994923858" fill="#009CA2" stroke="#009CA2" stroke-width="0" opacity="0.9" />
<rect x="569.6446700507614" y="59.62" height="3" width="190.35532994923858" fill="#F4EDF2" opacity="0.25" />
<path d="M 760 58 C 764.5 58, 764.5 67, 760 67" fill="#009CA2" opacity="0.9" />
<path d="M 10 69 C 5.5 69, 5.5 78, 10 78" fill="#009CA2" opacity="0.9" />
<rect x="10" y="69" height="9" width="190.35532994923858" fill="#009CA2" stroke="#009CA2" stroke-width="0" opacity="0.9" />
<rect x="10" y="70.62" height="3" width="190.35532994923858" fill="#F4EDF2" opacity="0.25" />
<rect x="200.35532994923858" y="69" height="9" width="133.248730964467" fill="#D1D1D1" stroke="#D1D1D1" stroke-width="0" opacity="0.9" />
<rect x="200.35532994923858" y="70.62" height="3" width="133.248730964467" fill="#F4EDF2" opacity="0.25" />
<line x1="333.60406091370555" y1="73.5" x2="569.6446700507614" y2="73.5" stroke="#BABABA" stroke-width="1.5" />
<rect x="569.6446700507614" y="69" height="9" width="190.35532994923858" fill="#009CA2" stroke="#009CA2" stroke-width="0" opacity="0.9" />
<rect x="569.6446700507614" y="70.62" height="3" width="190.35532994923858" fill="#F4EDF2" opacity="0.25" />
<path d="M 760 69 C 764.5 69, 764.5 78, 760 78" fill="#009CA2" opacity="0.9" />
<rect x="44.263959390862944" y="69" height="9" width="3.8071065989847717" fill="#FF0000" stroke="#FF0000" stroke-width="0" opacity="0.9" />
<rect x="695.2791878172588" y="69" height="9" width="3.8071065989847717" fill="#7E2581" stroke="#7E2581" stroke-width="0" opacity="0.9" />
<path d="M 10 80 C 5.5 80, 5.5 89, 10 89" fill="#009CA2" opacity="0.9" />
<rect x="10" y="80" height="9" width="190.35532994923858" fill="#009CA2" stroke="#009CA2" stroke-width="0" opacity="0.9" />
<rect x="10" y="81.62" height="3" width="190.35532994923858" fill="#F4EDF2" opacity="0.25" />
<rect x="200.35532994923858" y="80" height="9" width="133.248730964467" fill="#D1D1D1" stroke="#D1D1D1" stroke-width="0" opacity="0.9" />
<rect x="200.35532994923858" y="81.62" height="3" width="133.248730964467" fill="#F4EDF2" opacity="0.25" />
<line x1="333.60406091370555" y1="84.5" x2="569.6446700507614" y2="84.5" stroke="#BABABA" stroke-width="1.5" />
<rect x="569.6446700507614" y="80" height="9" width="190.35532994923858" fill="#009CA2" stroke="#009CA2" stroke-width="0" opacity="0.9" />
<rect x="569.6446700507614" y="81.62" height="3" width="190.35532994923858" fill="#F4EDF2" opacity="0.25" />
<path d="M 760 80 C 764.5 80, 764.5 89, 760 89" fill="#009CA2" opacity="0.9" />
<rect x="44.263959390862944" y="80" height="9" width="3.8071065989847717" fill="#FF0000" stroke="#FF0000" stroke-width="0" opacity="0.9" />
<rect x="695.2791878172588" y="80" height="9" width="3.8071065989847717" fill="#ED0512" stroke="#ED0512" stroke-width="0" opacity="0.9" />
<path d="M 10 91 C 5.5 91, 5.5 100, 10 100" fill="#009CA2" opacity="0.9" />
<rect x="10" y="91" height="9" width="190.35532994923858" fill="#009CA2" stroke="#009CA2" stroke-width="0" opacity="0.9" />
<rect x="10" y="92.62" height="3" width="190.35532994923858" fill="#F4EDF2" opacity="0.25" />
<rect x="200.35532994923858" y="91" height="9" width="133.248730964467" fill="#D1D1D1" stroke="#D1D1D1" stroke-width="0" opacity="0.9" />
<rect x="200.35532994923858" y="92.62" height="3" width="133.248730964467" fill="#F4EDF2" opacity="0.25" />
<line x1="333.60406091370555" y1="95.5" x2="569.6446700507614" y2="95.5" stroke="#BABABA" stroke-width="1.5" />
<rect x="569.6446700507614" y="91" height="9" width="190.35532994923858" fill="#009CA2" stroke="#009CA2" stroke-width="0" opacity="0.9" />
<rect x="569.6446700507614" y="92.62" height="3" width="190.35532994923858" fill="#F4EDF2" opacity="0.25" />
<path d="M 760 91 C 764.5 91, 764.5 100, 760 100" fill="#009CA2" opacity="0.9" />
<rect x="44.263959390862944" y="91" height="9" width="3.8071065989847717" fill="#D00D2F" stroke="#D00D2F" stroke-width="0" opacity="0.9" />
<rect x="695.2791878172588" y="91" height="9" width="3.8071065989847717" fill="#F70208" stroke="#F70208" stroke-width="0" opacity="0.9" />
<path d="M 10 102 C 5.5 102, 5.5 111, 10 111" fill="#009CA2" opacity="0.9" />
<rect x="10" y="102" height="9" width="38.07106598984772" fill="#009CA2" stroke="#009CA2" stroke-width="0" opacity="0.9" />
<rect x="10" y="103.62" height="3" width="38.07106598984772" fill="#F4EDF2" opacity="0.25" />
<line x1="48.07106598984772" y1="106.5" x2="51.87817258883249" y2="106.5" stroke="#009CA2" stroke-width="1.5" />
<rect x="51.87817258883249" y="102" height="9" width="83.75634517766498" fill="#009CA2" stroke="#009CA2" stroke-width="0" opacity="0.9" />
<rect x="51.87817258883249" y="103.62" height="3" width="83.75634517766498" fill="#F4EDF2" opacity="0.25" />
<line x1="135.63451776649748" y1="106.5" x2="139.44162436548226" y2="106.5" stroke="#009CA2" stroke-width="1.5" />
<rect x="139.44162436548226" y="102" height="9" width="22.84263959390863" fill="#009CA2" stroke="#009CA2" stroke-width="0" opacity="0.9" />
<rect x="139.44162436548226" y="103.62" height="3" width="22.84263959390863" fill="#F4EDF2" opacity="0.25" />
<line x1="162.2842639593909" y1="106.5" x2="166.09137055837567" y2="106.5" stroke="#009CA2" stroke-width="1.5" />
<rect x="166.09137055837567" y="102" height="9" width="34.263959390862944" fill="#009CA2" stroke="#009CA2" stroke-width="0" opacity="0.9" />
<rect x="166.09137055837567" y="103.62" height="3" width="34.263959390862944" fill="#F4EDF2" opacity="0.25" />
<rect x="200.3553299492386" y="102" height="9" width="354.06091370558374" fill="#D1D1D1" stroke="#D1D1D1" stroke-width="0" opacity="0.9" />
<rect x="200.3553299492386" y="103.62" height="3" width="354.06091370558374" fill="#F4EDF2" opacity="0.25" />
<line x1="554.4162436548223" y1="106.5" x2="569.6446700507614" y2="106.5" stroke="#BABABA" stroke-width="1.5" />
<rect x="569.6446700507614" y="102" height="9" width="3.8071065989847717" fill="#009CA2" stroke="#009CA2" stroke-width="0" opacity="0.9" />
<rect x="569.6446700507614" y="103.62" height="3" width="3.8071065989847717" fill="#F4EDF2" opacity="0.25" />
<rect x="573.4517766497462" y="102" height="9" width="3.8071065989847717" fill="#BABABA" stroke="#BABABA" stroke-width="0" opacity="0.9" />
<rect x="573.4517766497462" y="103.62" height="3" width="3.8071065989847717" fill="#F4EDF2" opacity="0.25" />
<rect x="577.258883248731" y="102" height="9" width="3.8071065989847717" fill="#009CA2" stroke="#009CA2" stroke-width="0" opacity="0.9" />
<rect x="577.258883248731" y="103.62" height="3" width="3.8071065989847717" fill="#F4EDF2" opacity="0.25" />
<rect x="581.0659898477157" y="102" height="9" width="7.614213197969543" fill="#BABABA" stroke="#BABABA" stroke-width="0" opacity="0.9" />
<rect x="581.0659898477157" y="103.62" height="3" width="7.614213197969543" fill="#F4EDF2" opacity="0.25" />
<rect x="588.6802030456853" y="102" height="9" width="53.299492385786806" fill="#009CA2" stroke="#009CA2" stroke-width="0" opacity="0.9" />
<rect x="588.6802030456853" y="103.62" height="3" width="53.299492385786806" fill="#F4EDF2" opacity="0.25" />
<line x1="641.9796954314721" y1="106.5" x2="645.7868020304569" y2="106.5" stroke="#009CA2" stroke-width="1.5" />
<rect x="645.7868020304569" y="102" height="9" width="68.52791878172589" fill="#009CA2" stroke="#009CA2" stroke-width="0" opacity="0.9" />
<rect x="645.7868020304569" y="103.62" height="3" width="68.52791878172589" fill="#F4EDF2" opacity="0.25" />
<line x1="714.3147208121828" y1="106.5" x2="718.1218274111676" y2="106.5" stroke="#009CA2" stroke-width="1.5" />
<rect x="718.1218274111676" y="102" height="9" width="41.87817258883249" fill="#009CA2" stroke="#009CA2" stroke-width="0" opacity="0.9" />
<rect x="718.1218274111676" y="103.62" height="3" width="41.87817258883249" fill="#F4EDF2" opacity="0.25" />
<path d="M 760.0000000000001 102 C 764.5000000000001 102, 764.5000000000001 111, 760.0000000000001 111" fill="#009CA2" opacity="0.9" />
<line x1="10" y1="102" x2="10" y2="111" stroke="#000000" stroke-width="2" />
<line x1="760.0000000000001" y1="102" x2="760.0000000000001" y2="111" stroke="#000000" stroke-width="2" />
<rect x="44.263959390862944" y="102" height="9" width="3.8071065989847717" fill="#F70208" stroke="#F70208" stroke-width="0" opacity="0.9" />
<rect x="695.2791878172588" y="102" height="9" width="3.8071065989847717" fill="#DC0A23" stroke="#DC0A23" stroke-width="0" opacity="0.9" />
<path d="M 10 113 C 5.5 113, 5.5 122, 10 122" fill="#009CA2" opacity="0.9" />
<rect x="10" y="113" height="9" width="190.35532994923858" fill="#009CA2" stroke="#009CA2" stroke-width="0" opacity="0.9" />
<rect x="10" y="114.62" height="3" width="190.35532994923858" fill="#F4EDF2" opacity="0.25" />
<rect x="200.35532994923858" y="113" height="9" width="361.6751269035533" fill="#D1D1D1" stroke="#D1D1D1" stroke-width="0" opacity="0.9" />
<rect x="200.35532994923858" y="114.62" height="3" width="361.6751269035533" fill="#F4EDF2" opacity="0.25" />
<line x1="562.0304568527919" y1="117.5" x2="569.6446700507614" y2="117.5" stroke="#BABABA" stroke-width="1.5" />
<rect x="569.6446700507614" y="113" height="9" width="11.421319796954315" fill="#BABABA" stroke="#BABABA" stroke-width="0" opacity="0.9" />
<rect x="569.6446700507614" y="114.62" height="3" width="11.421319796954315" fill="#F4EDF2" opacity="0.25" />
<rect x="581.0659898477157" y="113" height="9" width="178.93401015228426" fill="#009CA2" stroke="#009CA2" stroke-width="0" opacity="0.9" />
<rect x="581.0659898477157" y="114.62" height="3" width="178.93401015228426" fill="#F4EDF2" opacity="0.25" />
<path d="M 760 113 C 764.5 113, 764.5 122, 760 122" fill="#009CA2" opacity="0.9" />
<rect x="44.263959390862944" y="113" height="9" width="3.8071065989847717" fill="#9A1D65" stroke="#9A1D65" stroke-width="0" opacity="0.9" />
<rect x="695.2791878172588" y="113" height="9" width="3.8071065989847717" fill="#E4081B" stroke="#E4081B" stroke-width="0" opacity="0.9" />
<path d="M 10 124 C 5.5 124, 5.5 133, 10 133" fill="#009CA2" opacity="0.9" />
<rect x="10" y="124" height="9" width="190.35532994923858" fill="#009CA2" stroke="#009CA2" stroke-width="0" opacity="0.9" />
<rect x="10" y="125.62" height="3" width="190.35532994923858" fill="#F4EDF2" opacity="0.25" />
<rect x="200.35532994923858" y="124" height="9" width="365.48223350253807" fill="#D1D1D1" stroke="#D1D1D1" stroke-width="0" opacity="0.9" />
<rect x="200.35532994923858" y="125.62" height="3" width="365.48223350253807" fill="#F4EDF2" opacity="0.25" />
<line x1="565.8375634517766" y1="128.5" x2="569.6446700507614" y2="128.5" stroke="#BABABA" stroke-width="1.5" />
<rect x="569.6446700507614" y="124" height="9" width="11.421319796954315" fill="#BABABA" stroke="#BABABA" stroke-width="0" opacity="0.9" />
<rect x="569.6446700507614" y="125.62" height="3" width="11.421319796954315" fill="#F4EDF2" opacity="0.25" />
<rect x="581.0659898477157" y="124" height="9" width="178.93401015228426" fill="#009CA2" stroke="#009CA2" stroke-width="0" opacity="0.9" />
<rect x="581.0659898477157" y="125.62" height="3" width="178.93401015228426" fill="#F4EDF2" opacity="0.25" />
<path d="M 760 124 C 764.5 124, 764.5 133, 760 133" fill="#009CA2" opacity="0.9" />
<path d="M 10 135 C 5.5 135, 5.5 144, 10 144" fill="#009CA2" opacity="0.9" />
<rect x="10" y="135" height="9" width="152.28426395939087" fill="#009CA2" stroke="#009CA2" stroke-width="0" opacity="0.9" />
<rect x="10" y="136.62" height="3" width="152.28426395939087" fill="#F4EDF2" opacity="0.25" />
<line x1="162.28426395939087" y1="139.5" x2="166.09137055837564" y2="139.5" stroke="#009CA2" stroke-width="1.5" />
<rect x="166.09137055837564" y="135" height="9" width="34.263959390862944" fill="#009CA2" stroke="#009CA2" stroke-width="0" opacity="0.9" />
<rect x="166.09137055837564" y="136.62" height="3" width="34.263959390862944" fill="#F4EDF2" opacity="0.25" />
<rect x="200.35532994923858" y="135" height="9" width="365.48223350253807" fill="#D1D1D1" stroke="#D1D1D1" stroke-width="0" opacity="0.9" />
<rect x="200.35532994923858" y="136.62" height="3" width="365.48223350253807" fill="#F4EDF2" opacity="0.25" />
<line x1="565.8375634517766" y1="139.5" x2="569.6446700507614" y2="139.5" stroke="#BABABA" stroke-width="1.5" />
<rect x="569.6446700507614" y="135" height="9" width="11.421319796954315" fill="#BABABA" stroke="#BABABA" stroke-width="0" opacity="0.9" />
<rect x="569.6446700507614" y="136.62" height="3" width="11.421319796954315" fill="#F4EDF2" opacity="0.25" />
<rect x="581.0659898477157" y="135" height="9" width="178.93401015228426" fill="#009CA2" stroke="#009CA2" stroke-width="0" opacity="0.9" />
<rect x="581.0659898477157" y="136.62" height="3" width="178.93401015228426" fill="#F4EDF2" opacity="0.25" />
<path d="M 760 135 C 764.5 135, 764.5 144, 760 144" fill="#009CA2" opacity="0.9" />
<line x1="10" y1="135" x2="10" y2="144" stroke="#000000" stroke-width="2" />
<path d="M 10 146 C 5.5 146, 5.5 155, 10 155" fill="#009CA2" opacity="0.9" />
<rect x="10" y="146" height="9" width="190.35532994923858" fill="#009CA2" stroke="#009CA2" stroke-width="0" opacity="0.9" />
<rect x="10" y="147.62" height="3" width="190.35532994923858" fill="#F4EDF2" opacity="0.25" />
<rect x="200.35532994923858" y="146" height="9" width="365.48223350253807" fill="#D1D1D1" stroke="#D1D1D1" stroke-width="0" opacity="0.9" />
<rect x="200.35532994923858" y="147.62" height="3" width="365.48223350253807" fill="#F4EDF2" opacity="0.25" />
<line x1="565.8375634517766" y1="150.5" x2="569.6446700507614" y2="150.5" stroke="#BABABA" stroke-width="1.5" />
<rect x="569.6446700507614" y="146" height="9" width="11.421319796954315" fill="#BABABA" stroke="#BABABA" stroke-width="0" opacity="0.9" />
<rect x="569.6446700507614" y="147.62" height="3" width="11.421319796954315" fill="#F4EDF2" opacity="0.25" />
<rect x="581.0659898477157" y="146" height="9" width="178.93401015228426" fill="#009CA2" stroke="#009CA2" stroke-width="0" opacity="0.9" />
<rect x="581.0659898477157" y="147.62" height="3" width="178.93401015228426" fill="#F4EDF2" opacity="0.25" />
<path d="M 760 146 C 764.5 146, 764.5 155, 760 155" fill="#009CA2" opacity="0.9" />
<rect x="44.263959390862944" y="146" height="9" width="3.8071065989847717" fill="#5630A9" stroke="#5630A9" stroke-width="0" opacity="0.9" />
<rect x="695.2791878172588" y="146" height="9" width="3.8071065989847717" fill="#E3081C" stroke="#E3081C" stroke-width="0" opacity="0.9" />
<path d="M 10 157 C 5.5 157, 5.5 166, 10 166" fill="#009CA2" opacity="0.9" />
<rect x="10" y="157" height="9" width="190.35532994923858" fill="#009CA2" stroke="#009CA2" stroke-width="0" opacity="0.9" />
<rect x="10" y="158.62" height="3" width="190.35532994923858" fill="#F4EDF2" opacity="0.25" />
<rect x="200.35532994923858" y="157" height="9" width="365.48223350253807" fill="#D1D1D1" stroke="#D1D1D1" stroke-width="0" opacity="0.9" />
<rect x="200.35532994923858" y="158.62" height="3" width="365.48223350253807" fill="#F4EDF2" opacity="0.25" />
<line x1="565.8375634517766" y1="161.5" x2="569.6446700507614" y2="161.5" stroke="#BABABA" stroke-width="1.5" />
<rect x="569.6446700507614" y="157" height="9" width="11.421319796954315" fill="#BABABA" stroke="#BABABA" stroke-width="0" opacity="0.9" />
<rect x="569.6446700507614" y="158.62" height="3" width="11.421319796954315" fill="#F4EDF2" opacity="0.25" />
<rect x="581.0659898477157" y="157" height="9" width="178.93401015228426" fill="#009CA2" stroke="#009CA2" stroke-width="0" opacity="0.9" />
<rect x="581.0659898477157" y="158.62" height="3" width="178.93401015228426" fill="#F4EDF2" opacity="0.25" />
<path d="M 760 157 C 764.5 157, 764.5 166, 760 166" fill="#009CA2" opacity="0.9" />
<path d="M 10 168 C 5.5 168, 5.5 177, 10 177" fill="#009CA2" opacity="0.9" />
<rect x="10" y="168" height="9" width="190.35532994923858" fill="#009CA2" stroke="#009CA2" stroke-width="0" opacity="0.9" />
<rect x="10" y="169.62" height="3" width="190.35532994923858" fill="#F4EDF2" opacity="0.25" />
<rect x="200.35532994923858" y="168" height="9" width="365.48223350253807" fill="#D1D1D1" stroke="#D1D1D1" stroke-width="0" opacity="0.9" />
<rect x="200.35532994923858" y="169.62" height="3" width="365.48223350253807" fill="#F4EDF2" opacity="0.25" />
<line x1="565.8375634517766" y1="172.5" x2="569.6446700507614" y2="172.5" stroke="#BABABA" stroke-width="1.5" />
<rect x="569.6446700507614" y="168" height="9" width="11.421319796954315" fill="#BABABA" stroke="#BABABA" stroke-width="0" opacity="0.9" />
<rect x="569.6446700507614" y="169.62" height="3" width="11.421319796954315" fill="#F4EDF2" opacity="0.25" />
<rect x="581.0659898477157" y="168" height="9" width="178.93401015228426" fill="#009CA2" stroke="#009CA2" stroke-width="0" opacity="0.9" />
<rect x="581.0659898477157" y="169.62" height="3" width="178.93401015228426" fill="#F4EDF2" opacity="0.25" />
<path d="M 760 168 C 764.5 168, 764.5 177, 760 177" fill="#009CA2" opacity="0.9" />
<path d="M 10 179 C 5.5 179, 5.5 188, 10 188" fill="#009CA2" opacity="0.9" />
<rect x="10" y="179" height="9" width="190.35532994923858" fill="#009CA2" stroke="#009CA2" stroke-width="0" opacity="0.9" />
<rect x="10" y="180.62" height="3" width="190.35532994923858" fill="#F4EDF2" opacity="0.25" />
<rect x="200.35532994923858" y="179" height="9" width="365.48223350253807" fill="#D1D1D1" stroke="#D1D1D1" stroke-width="0" opacity="0.9" />
<rect x="200.35532994923858" y="180.62" height="3" width="365.48223350253807" fill="#F4EDF2" opacity="0.25" />
<line x1="565.8375634517766" y1="183.5" x2="569.6446700507614" y2="183.5" stroke="#BABABA" stroke-width="1.5" />
<rect x="569.6446700507614" y="179" height="9" width="11.421319796954315" fill="#BABABA" stroke="#BABABA" stroke-width="0" opacity="0.9" />
<rect x="569.6446700507614" y="180.62" height="3" width="11.421319796954315" fill="#F4EDF2" opacity="0.25" />
<rect x="581.0659898477157" y="179" height="9" width="144.67005076142132" fill="#009CA2" stroke="#009CA2" stroke-width="0" opacity="0.9" />
<rect x="581.0659898477157" y="180.62" height="3" width="144.67005076142132" fill="#F4EDF2" opacity="0.25" />
<rect x="725.736040609137" y="179" height="9" width="3.8071065989847717" fill="#BABABA" stroke="#BABABA" stroke-width="0" opacity="0.9" />
<rect x="725.736040609137" y="180.62" height="3" width="3.8071065989847717" fill="#F4EDF2" opacity="0.25" />
<rect x="729.5431472081218" y="179" height="9" width="7.614213197969543" fill="#009CA2" stroke="#009CA2" stroke-width="0" opacity="0.9" />
<rect x="729.5431472081218" y="180.62" height="3" width="7.614213197969543" fill="#F4EDF2" opacity="0.25" />
<rect x="737.1573604060914" y="179" height="9" width="11.421319796954315" fill="#BABABA" stroke="#BABABA" stroke-width="0" opacity="0.9" />
<rect x="737.1573604060914" y="180.62" height="3" width="11.421319796954315" fill="#F4EDF2" opacity="0.25" />
<rect x="748.5786802030457" y="179" height="9" width="3.8071065989847717" fill="#009CA2" stroke="#009CA2" stroke-width="0" opacity="0.9" />
<rect x="748.5786802030457" y="180.62" height="3" width="3.8071065989847717" fill="#F4EDF2" opacity="0.25" />
<rect x="752.3857868020305" y="179" height="9" width="7.614213197969543" fill="#BABABA" stroke="#BABABA" stroke-width="0" opacity="0.9" />
<rect x="752.3857868020305" y="180.62" height="3" width="7.614213197969543" fill="#F4EDF2" opacity="0.25" />
<path d="M 760 179 C 764.5 179, 764.5 188, 760 188" fill="#009CA2" opacity="0.9" />
<rect x="44.263959390862944" y="179" height="9" width="3.8071065989847717" fill="#FF0000" stroke="#FF0000" stroke-width="0" opacity="0.9" />
<rect x="695.2791878172588" y="179" height="9" width="3.8071065989847717" fill="#B1164E" stroke="#B1164E" stroke-width="0" opacity="0.9" />
<path d="M 10 190 C 5.5 190, 5.5 199, 10 199" fill="#009CA2" opacity="0.9" />
<rect x="10" y="190" height="9" width="190.35532994923858" fill="#009CA2" stroke="#009CA2" stroke-width="0" opacity="0.9" />
<rect x="10" y="191.62" height="3" width="190.35532994923858" fill="#F4EDF2" opacity="0.25" />
<rect x="200.35532994923858" y="190" height="9" width="365.48223350253807" fill="#D1D1D1" stroke="#D1D1D1" stroke-width="0" opacity="0.9" />
<rect x="200.35532994923858" y="191.62" height="3" width="365.48223350253807" fill="#F4EDF2" opacity="0.25" />
<line x1="565.8375634517766" y1="194.5" x2="569.6446700507614" y2="194.5" stroke="#BABABA" stroke-width="1.5" />
<rect x="569.6446700507614" y="190" height="9" width="11.421319796954315" fill="#BABABA" stroke="#BABABA" stroke-width="0" opacity="0.9" />
<rect x="569.6446700507614" y="191.62" height="3" width="11.421319796954315" fill="#F4EDF2" opacity="0.25" />
<rect x="581.0659898477157" y="190" height="9" width="178.93401015228426" fill="#009CA2" stroke="#009CA2" stroke-width="0" opacity="0.9" />
<rect x="581.0659898477157" y="191.62" height="3" width="178.93401015228426" fill="#F4EDF2" opacity="0.25" />
<path d="M 760 190 C 764.5 190, 764.5 199, 760 199" fill="#009CA2" opacity="0.9" />
<rect x="44.263959390862944" y="190" height="9" width="3.8071065989847717" fill="#FF0000" stroke="#FF0000" stroke-width="0" opacity="0.9" />
<rect x="695.2791878172588" y="190" height="9" width="3.8071065989847717" fill="#F90206" stroke="#F90206" stroke-width="0" opacity="0.9" />
<path d="M 10 201 C 5.5 201, 5.5 210, 10 210" fill="#009CA2" opacity="0.9" />
<rect x="10" y="201" height="9" width="190.35532994923858" fill="#009CA2" stroke="#009CA2" stroke-width="0" opacity="0.9" />
<rect x="10" y="202.62" height="3" width="190.35532994923858" fill="#F4EDF2" opacity="0.25" />
<rect x="200.35532994923858" y="201" height="9" width="369.28934010152284" fill="#D1D1D1" stroke="#D1D1D1" stroke-width="0" opacity="0.9" />
<rect x="200.35532994923858" y="202.62" height="3" width="369.28934010152284" fill="#F4EDF2" opacity="0.25" />
<rect x="569.6446700507614" y="201" height="9" width="11.421319796954315" fill="#BABABA" stroke="#BABABA" stroke-width="0" opacity="0.9" />
<rect x="569.6446700507614" y="202.62" height="3" width="11.421319796954315" fill="#F4EDF2" opacity="0.25" />
<rect x="581.0659898477157" y="201" height="9" width="178.93401015228426" fill="#009CA2" stroke="#009CA2" stroke-width="0" opacity="0.9" />
<rect x="581.0659898477157" y="202.62" height="3" width="178.93401015228426" fill="#F4EDF2" opacity="0.25" />
<path d="M 760 201 C 764.5 201, 764.5 210, 760 210" fill="#009CA2" opacity="0.9" />
<rect x="44.263959390862944" y="201" height="9" width="3.8071065989847717" fill="#C0123F" stroke="#C0123F" stroke-width="0" opacity="0.9" />
<rect x="695.2791878172588" y="201" height="9" width="3.8071065989847717" fill="#FB0104" stroke="#FB0104" stroke-width="0" opacity="0.9" />
<rect x="10" y="216" height="12" width="12" fill="#1383C6" stroke="#1383C6" stroke-width="0" opacity="0.9" />
<text x="24" y="227" font-family="monospace" font-weight="bold" font-size="14px" >ATTTC</text>
</svg>
