<?xml version="1.0"?>
<svg xmlns="http://www.w3.org/2000/svg" xmlns:xlink="http://www.w3.org/1999/xlink" width="770" height="320">
<rect width="100%" height="100%" fill="white"/>
<path d="M 10 14 C 5.5 14, 5.5 23, 10 23" fill="#009CA2" opacity="0.9" />
<rect x="10" y="14" height="9" width="129.75778546712803" fill="#009CA2" stroke="#009CA2" stroke-width="0" opacity="0.9" />
<rect x="10" y="15.62" height="3" width="129.75778546712803" fill="#F4EDF2" opacity="0.25" />
<rect x="139.75778546712803" y="14" height="9" width="103.80622837370241" fill="#1383C6" stroke="#1383C6" stroke-width="0" opacity="0.9" />
<rect x="139.75778546712803" y="15.62" height="3" width="103.80622837370241" fill="#F4EDF2" opacity="0.25" />
<line x1="243.56401384083046" y1="18.5" x2="246.159169550173" y2="18.5" stroke="#009CA2" stroke-width="1.5" />
<rect x="246.159169550173" y="14" height="9" width="129.75778546712803" fill="#009CA2" stroke="#009CA2" stroke-width="0" opacity="0.9" />
<rect x="246.159169550173" y="15.62" height="3" width="129.75778546712803" fill="#F4EDF2" opacity="0.25" />
<path d="M 375.916955017301 14 C 380.416955017301 14, 380.416955017301 23, 375.916955017301 23" fill="#009CA2" opacity="0.9" />
<line x1="139.75778546712803" y1="14" x2="139.75778546712803" y2="23" stroke="#000000" stroke-width="1.5" />
<line x1="243.56401384083046" y1="14" x2="243.56401384083046" y2="23" stroke="#000000" stroke-width="1.5" />
<line x1="243.56401384083046" y1="14" x2="243.56401384083046" y2="23" stroke="#000000" stroke-width="1.5" />
<line x1="246.159169550173" y1="14" x2="246.159169550173" y2="23" stroke="#000000" stroke-width="1.5" />
<line x1="10" y1="14" x2="375.916955017301" y2="14" stroke="#000000" stroke-width="1.5" />
<line x1="10" y1="23" x2="375.916955017301" y2="23" stroke="#000000" stroke-width="1.5" />
<path d="M 10 14 C 5.5 14, 5.5 23, 10 23" stroke="#000000" stroke-width="1.5" fill="none" opacity="0.9" />
<path d="M 375.916955017301 14 C 380.416955017301 14, 380.416955017301 23, 375.916955017301 23" stroke="#000000" stroke-width="1.5" fill="none" opacity="0.9" />
<line x1="139.75778546712803" y1="11.75" x2="139.75778546712803" y2="16.25" stroke="#000000" stroke-width="1.5" />
<text x="139.75778546712803" y="9.75" font-family="monospace" font-weight="bold" text-anchor="middle" font-size="10px" >0</text>
<line x1="152.7335640138408" y1="11.75" x2="152.7335640138408" y2="16.25" stroke="#000000" stroke-width="1.5" />
<line x1="165.7093425605536" y1="11.75" x2="165.7093425605536" y2="16.25" stroke="#000000" stroke-width="1.5" />
<line x1="178.6851211072664" y1="11.75" x2="178.6851211072664" y2="16.25" stroke="#000000" stroke-width="1.5" />
<line x1="191.66089965397921" y1="11.75" x2="191.66089965397921" y2="16.25" stroke="#000000" stroke-width="1.5" />
<line x1="204.63667820069202" y1="11.75" x2="204.63667820069202" y2="16.25" stroke="#000000" stroke-width="1.5" />
<text x="204.63667820069202" y="9.75" font-family="monospace" font-weight="bold" text-anchor="middle" font-size="10px" >5</text>
<line x1="217.61245674740482" y1="11.75" x2="217.61245674740482" y2="16.25" stroke="#000000" stroke-width="1.5" />
<line x1="230.58823529411762" y1="11.75" x2="230.58823529411762" y2="16.25" stroke="#000000" stroke-width="1.5" />
<path d="M 10 26 C 5.5 26, 5.5 35, 10 35" fill="#009CA2" opacity="0.9" />
<rect x="10" y="26" height="9" width="129.75778546712803" fill="#009CA2" stroke="#009CA2" stroke-width="0" opacity="0.9" />
<rect x="10" y="27.62" height="3" width="129.75778546712803" fill="#F4EDF2" opacity="0.25" />
<rect x="139.75778546712803" y="26" height="9" width="103.80622837370241" fill="#1383C6" stroke="#1383C6" stroke-width="0" opacity="0.9" />
<rect x="139.75778546712803" y="27.62" height="3" width="103.80622837370241" fill="#F4EDF2" opacity="0.25" />
<rect x="243.56401384083046" y="26" height="9" width="2.5951557093425603" fill="#009CA2" stroke="#009CA2" stroke-width="0" opacity="0.9" />
<rect x="243.56401384083046" y="27.62" height="3" width="2.5951557093425603" fill="#F4EDF2" opacity="0.25" />
<rect x="246.159169550173" y="26" height="9" width="129.75778546712803" fill="#009CA2" stroke="#009CA2" stroke-width="0" opacity="0.9" />
<rect x="246.159169550173" y="27.62" height="3" width="129.75778546712803" fill="#F4EDF2" opacity="0.25" />
<path d="M 375.916955017301 26 C 380.416955017301 26, 380.416955017301 35, 375.916955017301 35" fill="#009CA2" opacity="0.9" />
<path d="M 10 37 C 5.5 37, 5.5 46, 10 46" fill="#009CA2" opacity="0.9" />
<rect x="10" y="37" height="9" width="129.75778546712803" fill="#009CA2" stroke="#009CA2" stroke-width="0" opacity="0.9" />
<rect x="10" y="38.62" height="3" width="129.75778546712803" fill="#F4EDF2" opacity="0.25" />
<rect x="139.75778546712803" y="37" height="9" width="103.80622837370241" fill="#1383C6" stroke="#1383C6" stroke-width="0" opacity="0.9" />
<rect x="139.75778546712803" y="38.62" height="3" width="103.80622837370241" fill="#F4EDF2" opacity="0.25" />
<rect x="243.56401384083046" y="37" height="9" width="2.5951557093425603" fill="#009CA2" stroke="#009CA2" stroke-width="0" opacity="0.9" />
<rect x="243.56401384083046" y="38.62" height="3" width="2.5951557093425603" fill="#F4EDF2" opacity="0.25" />
<rect x="246.159169550173" y="37" height="9" width="129.75778546712803" fill="#009CA2" stroke="#009CA2" stroke-width="0" opacity="0.9" />
<rect x="246.159169550173" y="38.62" height="3" width="129.75778546712803" fill="#F4EDF2" opacity="0.25" />
<path d="M 375.916955017301 37 C 380.416955017301 37, 380.416955017301 46, 375.916955017301 46" fill="#009CA2" opacity="0.9" />
<path d="M 10 48 C 5.5 48, 5.5 57, 10 57" fill="#009CA2" opacity="0.9" />
<rect x="10" y="48" height="9" width="129.75778546712803" fill="#009CA2" stroke="#009CA2" stroke-width="0" opacity="0.9" />
<rect x="10" y="49.62" height="3" width="129.75778546712803" fill="#F4EDF2" opacity="0.25" />
<rect x="139.75778546712803" y="48" height="9" width="103.80622837370241" fill="#1383C6" stroke="#1383C6" stroke-width="0" opacity="0.9" />
<rect x="139.75778546712803" y="49.62" height="3" width="103.80622837370241" fill="#F4EDF2" opacity="0.25" />
<rect x="243.56401384083046" y="48" height="9" width="2.5951557093425603" fill="#009CA2" stroke="#009CA2" stroke-width="0" opacity="0.9" />
<rect x="243.56401384083046" y="49.62" height="3" width="2.5951557093425603" fill="#F4EDF2" opacity="0.25" />
<rect x="246.159169550173" y="48" height="9" width="129.75778546712803" fill="#009CA2" stroke="#009CA2" stroke-width="0" opacity="0.9" />
<rect x="246.159169550173" y="49.62" height="3" width="129.75778546712803" fill="#F4EDF2" opacity="0.25" />
<path d="M 375.916955017301 48 C 380.416955017301 48, 380.416955017301 57, 375.916955017301 57" fill="#009CA2" opacity="0.9" />
<path d="M 10 59 C 5.5 59, 5.5 68, 10 68" fill="#009CA2" opacity="0.9" />
<rect x="10" y="59" height="9" width="129.75778546712803" fill="#009CA2" stroke="#009CA2" stroke-width="0" opacity="0.9" />
<rect x="10" y="60.62" height="3" width="129.75778546712803" fill="#F4EDF2" opacity="0.25" />
<rect x="139.75778546712803" y="59" height="9" width="103.80622837370241" fill="#1383C6" stroke="#1383C6" stroke-width="0" opacity="0.9" />
<rect x="139.75778546712803" y="60.62" height="3" width="103.80622837370241" fill="#F4EDF2" opacity="0.25" />
<rect x="243.56401384083046" y="59" height="9" width="2.5951557093425603" fill="#009CA2" stroke="#009CA2" stroke-width="0" opacity="0.9" />
<rect x="243.56401384083046" y="60.62" height="3" width="2.5951557093425603" fill="#F4EDF2" opacity="0.25" />
<rect x="246.159169550173" y="59" height="9" width="129.75778546712803" fill="#009CA2" stroke="#009CA2" stroke-width="0" opacity="0.9" />
<rect x="246.159169550173" y="60.62" height="3" width="129.75778546712803" fill="#F4EDF2" opacity="0.25" />
<path d="M 375.916955017301 59 C 380.416955017301 59, 380.416955017301 68, 375.916955017301 68" fill="#009CA2" opacity="0.9" />
<path d="M 10 70 C 5.5 70, 5.5 79, 10 79" fill="#009CA2" opacity="0.9" />
<rect x="10" y="70" height="9" width="67.47404844290656" fill="#009CA2" stroke="#009CA2" stroke-width="0" opacity="0.9" />
<rect x="10" y="71.62" height="3" width="67.47404844290656" fill="#F4EDF2" opacity="0.25" />
<line x1="77.47404844290656" y1="74.5" x2="80.06920415224913" y2="74.5" stroke="#009CA2" stroke-width="1.5" />
<rect x="80.06920415224913" y="70" height="9" width="59.68858131487889" fill="#009CA2" stroke="#009CA2" stroke-width="0" opacity="0.9" />
<rect x="80.06920415224913" y="71.62" height="3" width="59.68858131487889" fill="#F4EDF2" opacity="0.25" />
<rect x="139.75778546712803" y="70" height="9" width="103.80622837370241" fill="#1383C6" stroke="#1383C6" stroke-width="0" opacity="0.9" />
<rect x="139.75778546712803" y="71.62" height="3" width="103.80622837370241" fill="#F4EDF2" opacity="0.25" />
<rect x="243.56401384083046" y="70" height="9" width="2.5951557093425603" fill="#009CA2" stroke="#009CA2" stroke-width="0" opacity="0.9" />
<rect x="243.56401384083046" y="71.62" height="3" width="2.5951557093425603" fill="#F4EDF2" opacity="0.25" />
<rect x="246.159169550173" y="70" height="9" width="119.37716262975778" fill="#009CA2" stroke="#009CA2" stroke-width="0" opacity="0.9" />
<rect x="246.159169550173" y="71.62" height="3" width="119.37716262975778" fill="#F4EDF2" opacity="0.25" />
<rect x="365.5363321799308" y="70" height="9" width="10.380622837370241" fill="#BABABA" stroke="#BABABA" stroke-width="0" opacity="0.9" />
<rect x="365.5363321799308" y="71.62" height="3" width="10.380622837370241" fill="#F4EDF2" opacity="0.25" />
<path d="M 375.91695501730106 70 C 380.41695501730106 70, 380.41695501730106 79, 375.91695501730106 79" fill="#009CA2" opacity="0.9" />
<line x1="10" y1="70" x2="10" y2="79" stroke="#000000" stroke-width="2" />
<path d="M 10 81 C 5.5 81, 5.5 90, 10 90" fill="#009CA2" opacity="0.9" />
<rect x="10" y="81" height="9" width="129.75778546712803" fill="#009CA2" stroke="#009CA2" stroke-width="0" opacity="0.9" />
<rect x="10" y="82.62" height="3" width="129.75778546712803" fill="#F4EDF2" opacity="0.25" />
<rect x="139.75778546712803" y="81" height="9" width="103.80622837370241" fill="#1383C6" stroke="#1383C6" stroke-width="0" opacity="0.9" />
<rect x="139.75778546712803" y="82.62" height="3" width="103.80622837370241" fill="#F4EDF2" opacity="0.25" />
<rect x="243.56401384083046" y="81" height="9" width="2.5951557093425603" fill="#009CA2" stroke="#009CA2" stroke-width="0" opacity="0.9" />
<rect x="243.56401384083046" y="82.62" height="3" width="2.5951557093425603" fill="#F4EDF2" opacity="0.25" />
<rect x="246.159169550173" y="81" height="9" width="129.75778546712803" fill="#009CA2" stroke="#009CA2" stroke-width="0" opacity="0.9" />
<rect x="246.159169550173" y="82.62" height="3" width="129.75778546712803" fill="#F4EDF2" opacity="0.25" />
<path d="M 375.916955017301 81 C 380.416955017301 81, 380.416955017301 90, 375.916955017301 90" fill="#009CA2" opacity="0.9" />
<path d="M 10 92 C 5.5 92, 5.5 101, 10 101" fill="#009CA2" opacity="0.9" />
<rect x="10" y="92" height="9" width="129.75778546712803" fill="#009CA2" stroke="#009CA2" stroke-width="0" opacity="0.9" />
<rect x="10" y="93.62" height="3" width="129.75778546712803" fill="#F4EDF2" opacity="0.25" />
<rect x="139.75778546712803" y="92" height="9" width="103.80622837370241" fill="#1383C6" stroke="#1383C6" stroke-width="0" opacity="0.9" />
<rect x="139.75778546712803" y="93.62" height="3" width="103.80622837370241" fill="#F4EDF2" opacity="0.25" />
<rect x="243.56401384083046" y="92" height="9" width="2.5951557093425603" fill="#009CA2" stroke="#009CA2" stroke-width="0" opacity="0.9" />
<rect x="243.56401384083046" y="93.62" height="3" width="2.5951557093425603" fill="#F4EDF2" opacity="0.25" />
<rect x="246.159169550173" y="92" height="9" width="129.75778546712803" fill="#009CA2" stroke="#009CA2" stroke-width="0" opacity="0.9" />
<rect x="246.159169550173" y="93.62" height="3" width="129.75778546712803" fill="#F4EDF2" opacity="0.25" />
<path d="M 375.916955017301 92 C 380.416955017301 92, 380.416955017301 101, 375.916955017301 101" fill="#009CA2" opacity="0.9" />
<path d="M 10 103 C 5.5 103, 5.5 112, 10 112" fill="#009CA2" opacity="0.9" />
<rect x="10" y="103" height="9" width="129.75778546712803" fill="#009CA2" stroke="#009CA2" stroke-width="0" opacity="0.9" />
<rect x="10" y="104.62" height="3" width="129.75778546712803" fill="#F4EDF2" opacity="0.25" />
<rect x="139.75778546712803" y="103" height="9" width="103.80622837370241" fill="#1383C6" stroke="#1383C6" stroke-width="0" opacity="0.9" />
<rect x="139.75778546712803" y="104.62" height="3" width="103.80622837370241" fill="#F4EDF2" opacity="0.25" />
<rect x="243.56401384083046" y="103" height="9" width="2.5951557093425603" fill="#009CA2" stroke="#009CA2" stroke-width="0" opacity="0.9" />
<rect x="243.56401384083046" y="104.62" height="3" width="2.5951557093425603" fill="#F4EDF2" opacity="0.25" />
<rect x="246.159169550173" y="103" height="9" width="129.75778546712803" fill="#009CA2" stroke="#009CA2" stroke-width="0" opacity="0.9" />
<rect x="246.159169550173" y="104.62" height="3" width="129.75778546712803" fill="#F4EDF2" opacity="0.25" />
<path d="M 375.916955017301 103 C 380.416955017301 103, 380.416955017301 112, 375.916955017301 112" fill="#009CA2" opacity="0.9" />
<path d="M 10 114 C 5.5 114, 5.5 123, 10 123" fill="#009CA2" opacity="0.9" />
<rect x="10" y="114" height="9" width="67.47404844290656" fill="#009CA2" stroke="#009CA2" stroke-width="0" opacity="0.9" />
<rect x="10" y="115.62" height="3" width="67.47404844290656" fill="#F4EDF2" opacity="0.25" />
<line x1="77.47404844290656" y1="118.5" x2="80.06920415224913" y2="118.5" stroke="#009CA2" stroke-width="1.5" />
<rect x="80.06920415224913" y="114" height="9" width="59.68858131487889" fill="#009CA2" stroke="#009CA2" stroke-width="0" opacity="0.9" />
<rect x="80.06920415224913" y="115.62" height="3" width="59.68858131487889" fill="#F4EDF2" opacity="0.25" />
<rect x="139.75778546712803" y="114" height="9" width="103.80622837370241" fill="#1383C6" stroke="#1383C6" stroke-width="0" opacity="0.9" />
<rect x="139.75778546712803" y="115.62" height="3" width="103.80622837370241" fill="#F4EDF2" opacity="0.25" />
<rect x="243.56401384083046" y="114" height="9" width="2.5951557093425603" fill="#009CA2" stroke="#009CA2" stroke-width="0" opacity="0.9" />
<rect x="243.56401384083046" y="115.62" height="3" width="2.5951557093425603" fill="#F4EDF2" opacity="0.25" />
<rect x="246.159169550173" y="114" height="9" width="129.75778546712803" fill="#009CA2" stroke="#009CA2" stroke-width="0" opacity="0.9" />
<rect x="246.159169550173" y="115.62" height="3" width="129.75778546712803" fill="#F4EDF2" opacity="0.25" />
<path d="M 375.916955017301 114 C 380.416955017301 114, 380.416955017301 123, 375.916955017301 123" fill="#009CA2" opacity="0.9" />
<line x1="10" y1="114" x2="10" y2="123" stroke="#000000" stroke-width="2" />
<path d="M 10 125 C 5.5 125, 5.5 134, 10 134" fill="#009CA2" opacity="0.9" />
<rect x="10" y="125" height="9" width="129.75778546712803" fill="#009CA2" stroke="#009CA2" stroke-width="0" opacity="0.9" />
<rect x="10" y="126.62" height="3" width="129.75778546712803" fill="#F4EDF2" opacity="0.25" />
<rect x="139.75778546712803" y="125" height="9" width="103.80622837370241" fill="#1383C6" stroke="#1383C6" stroke-width="0" opacity="0.9" />
<rect x="139.75778546712803" y="126.62" height="3" width="103.80622837370241" fill="#F4EDF2" opacity="0.25" />
<rect x="243.56401384083046" y="125" height="9" width="2.5951557093425603" fill="#009CA2" stroke="#009CA2" stroke-width="0" opacity="0.9" />
<rect x="243.56401384083046" y="126.62" height="3" width="2.5951557093425603" fill="#F4EDF2" opacity="0.25" />
<rect x="246.159169550173" y="125" height="9" width="129.75778546712803" fill="#009CA2" stroke="#009CA2" stroke-width="0" opacity="0.9" />
<rect x="246.159169550173" y="126.62" height="3" width="129.75778546712803" fill="#F4EDF2" opacity="0.25" />
<path d="M 375.916955017301 125 C 380.416955017301 125, 380.416955017301 134, 375.916955017301 134" fill="#009CA2" opacity="0.9" />
<path d="M 10 136 C 5.5 136, 5.5 145, 10 145" fill="#009CA2" opacity="0.9" />
<rect x="10" y="136" height="9" width="129.75778546712803" fill="#009CA2" stroke="#009CA2" stroke-width="0" opacity="0.9" />
<rect x="10" y="137.62" height="3" width="129.75778546712803" fill="#F4EDF2" opacity="0.25" />
<rect x="139.75778546712803" y="136" height="9" width="103.80622837370241" fill="#1383C6" stroke="#1383C6" stroke-width="0" opacity="0.9" />
<rect x="139.75778546712803" y="137.62" height="3" width="103.80622837370241" fill="#F4EDF2" opacity="0.25" />
<rect x="243.56401384083046" y="136" height="9" width="2.5951557093425603" fill="#009CA2" stroke="#009CA2" stroke-width="0" opacity="0.9" />
<rect x="243.56401384083046" y="137.62" height="3" width="2.5951557093425603" fill="#F4EDF2" opacity="0.25" />
<rect x="246.159169550173" y="136" height="9" width="129.75778546712803" fill="#009CA2" stroke="#009CA2" stroke-width="0" opacity="0.9" />
<rect x="246.159169550173" y="137.62" height="3" width="129.75778546712803" fill="#F4EDF2" opacity="0.25" />
<path d="M 375.916955017301 136 C 380.416955017301 136, 380.416955017301 145, 375.916955017301 145" fill="#009CA2" opacity="0.9" />
<path d="M 10 167 C 5.5 167, 5.5 176, 10 176" fill="#009CA2" opacity="0.9" />
<rect x="10" y="167" height="9" width="129.75778546712803" fill="#009CA2" stroke="#009CA2" stroke-width="0" opacity="0.9" />
<rect x="10" y="168.62" height="3" width="129.75778546712803" fill="#F4EDF2" opacity="0.25" />
<rect x="139.75778546712803" y="167" height="9" width="490.4844290657439" fill="#D1D1D1" stroke="#D1D1D1" stroke-width="0" opacity="0.9" />
<rect x="139.75778546712803" y="168.62" height="3" width="490.4844290657439" fill="#F4EDF2" opacity="0.25" />
<rect x="630.2422145328719" y="167" height="9" width="129.75778546712803" fill="#009CA2" stroke="#009CA2" stroke-width="0" opacity="0.9" />
<rect x="630.2422145328719" y="168.62" height="3" width="129.75778546712803" fill="#F4EDF2" opacity="0.25" />
<path d="M 760 167 C 764.5 167, 764.5 176, 760 176" fill="#009CA2" opacity="0.9" />
<line x1="139.75778546712803" y1="167" x2="139.75778546712803" y2="176" stroke="#000000" stroke-width="1.5" />
<line x1="630.2422145328719" y1="167" x2="630.2422145328719" y2="176" stroke="#000000" stroke-width="1.5" />
<line x1="10" y1="167" x2="759.9999999999999" y2="167" stroke="#000000" stroke-width="1.5" />
<line x1="10" y1="176" x2="759.9999999999999" y2="176" stroke="#000000" stroke-width="1.5" />
<path d="M 10 167 C 5.5 167, 5.5 176, 10 176" stroke="#000000" stroke-width="1.5" fill="none" opacity="0.9" />
<path d="M 759.9999999999999 167 C 764.4999999999999 167, 764.4999999999999 176, 759.9999999999999 176" stroke="#000000" stroke-width="1.5" fill="none" opacity="0.9" />
<path d="M 10 179 C 5.5 179, 5.5 188, 10 188" fill="#009CA2" opacity="0.9" />
<rect x="10" y="179" height="9" width="129.75778546712803" fill="#009CA2" stroke="#009CA2" stroke-width="0" opacity="0.9" />
<rect x="10" y="180.62" height="3" width="129.75778546712803" fill="#F4EDF2" opacity="0.25" />
<rect x="139.75778546712803" y="179" height="9" width="264.70588235294116" fill="#D1D1D1" stroke="#D1D1D1" stroke-width="0" opacity="0.9" />
<rect x="139.75778546712803" y="180.62" height="3" width="264.70588235294116" fill="#F4EDF2" opacity="0.25" />
<rect x="404.4636678200692" y="179" height="9" width="225.77854671280275" fill="#D1D1D1" stroke="#D1D1D1" stroke-width="0" opacity="0.9" />
<rect x="404.4636678200692" y="180.62" height="3" width="225.77854671280275" fill="#F4EDF2" opacity="0.25" />
<rect x="630.2422145328719" y="179" height="9" width="129.75778546712803" fill="#009CA2" stroke="#009CA2" stroke-width="0" opacity="0.9" />
<rect x="630.2422145328719" y="180.62" height="3" width="129.75778546712803" fill="#F4EDF2" opacity="0.25" />
<path d="M 760 179 C 764.5 179, 764.5 188, 760 188" fill="#009CA2" opacity="0.9" />
<line x1="404.4636678200692" y1="179" x2="404.4636678200692" y2="188" stroke="#000000" stroke-width="2" />
<path d="M 10 190 C 5.5 190, 5.5 199, 10 199" fill="#009CA2" opacity="0.9" />
<rect x="10" y="190" height="9" width="129.75778546712803" fill="#009CA2" stroke="#009CA2" stroke-width="0" opacity="0.9" />
<rect x="10" y="191.62" height="3" width="129.75778546712803" fill="#F4EDF2" opacity="0.25" />
<rect x="139.75778546712803" y="190" height="9" width="490.4844290657439" fill="#D1D1D1" stroke="#D1D1D1" stroke-width="0" opacity="0.9" />
<rect x="139.75778546712803" y="191.62" height="3" width="490.4844290657439" fill="#F4EDF2" opacity="0.25" />
<rect x="630.2422145328719" y="190" height="9" width="129.75778546712803" fill="#009CA2" stroke="#009CA2" stroke-width="0" opacity="0.9" />
<rect x="630.2422145328719" y="191.62" height="3" width="129.75778546712803" fill="#F4EDF2" opacity="0.25" />
<path d="M 760 190 C 764.5 190, 764.5 199, 760 199" fill="#009CA2" opacity="0.9" />
<path d="M 10 201 C 5.5 201, 5.5 210, 10 210" fill="#009CA2" opacity="0.9" />
<rect x="10" y="201" height="9" width="2.5951557093425603" fill="#BABABA" stroke="#BABABA" stroke-width="0" opacity="0.9" />
<rect x="10" y="202.62" height="3" width="2.5951557093425603" fill="#F4EDF2" opacity="0.25" />
<rect x="12.59515570934256" y="201" height="9" width="2.5951557093425603" fill="#009CA2" stroke="#009CA2" stroke-width="0" opacity="0.9" />
<rect x="12.59515570934256" y="202.62" height="3" width="2.5951557093425603" fill="#F4EDF2" opacity="0.25" />
<rect x="15.19031141868512" y="201" height="9" width="5.190311418685121" fill="#BABABA" stroke="#BABABA" stroke-width="0" opacity="0.9" />
<rect x="15.19031141868512" y="202.62" height="3" width="5.190311418685121" fill="#F4EDF2" opacity="0.25" />
<rect x="20.38062283737024" y="201" height="9" width="119.37716262975778" fill="#009CA2" stroke="#009CA2" stroke-width="0" opacity="0.9" />
<rect x="20.38062283737024" y="202.62" height="3" width="119.37716262975778" fill="#F4EDF2" opacity="0.25" />
<rect x="139.75778546712803" y="201" height="9" width="51.903114186851205" fill="#D1D1D1" stroke="#D1D1D1" stroke-width="0" opacity="0.9" />
<rect x="139.75778546712803" y="202.62" height="3" width="51.903114186851205" fill="#F4EDF2" opacity="0.25" />
<line x1="191.66089965397924" y1="205.5" x2="194.2560553633218" y2="205.5" stroke="#D1D1D1" stroke-width="1.5" />
<rect x="194.2560553633218" y="201" height="9" width="23.356401384083043" fill="#D1D1D1" stroke="#D1D1D1" stroke-width="0" opacity="0.9" />
<rect x="194.2560553633218" y="202.62" height="3" width="23.356401384083043" fill="#F4EDF2" opacity="0.25" />
<line x1="217.61245674740485" y1="205.5" x2="220.2076124567474" y2="205.5" stroke="#D1D1D1" stroke-width="1.5" />
<rect x="220.2076124567474" y="201" height="9" width="205.01730103806227" fill="#D1D1D1" stroke="#D1D1D1" stroke-width="0" opacity="0.9" />
<rect x="220.2076124567474" y="202.62" height="3" width="205.01730103806227" fill="#F4EDF2" opacity="0.25" />
<rect x="425.2249134948097" y="201" height="9" width="2.5951557093425603" fill="#D1D1D1" stroke="#D1D1D1" stroke-width="0" opacity="0.9" />
<rect x="425.2249134948097" y="202.62" height="3" width="2.5951557093425603" fill="#F4EDF2" opacity="0.25" />
<rect x="427.8200692041523" y="201" height="9" width="2.5951557093425603" fill="#BABABA" stroke="#BABABA" stroke-width="0" opacity="0.9" />
<rect x="427.8200692041523" y="202.62" height="3" width="2.5951557093425603" fill="#F4EDF2" opacity="0.25" />
<rect x="430.41522491349485" y="201" height="9" width="67.47404844290656" fill="#D1D1D1" stroke="#D1D1D1" stroke-width="0" opacity="0.9" />
<rect x="430.41522491349485" y="202.62" height="3" width="67.47404844290656" fill="#F4EDF2" opacity="0.25" />
<rect x="497.8892733564014" y="201" height="9" width="132.35294117647058" fill="#D1D1D1" stroke="#D1D1D1" stroke-width="0" opacity="0.9" />
<rect x="497.8892733564014" y="202.62" height="3" width="132.35294117647058" fill="#F4EDF2" opacity="0.25" />
<rect x="630.242214532872" y="201" height="9" width="129.75778546712803" fill="#009CA2" stroke="#009CA2" stroke-width="0" opacity="0.9" />
<rect x="630.242214532872" y="202.62" height="3" width="129.75778546712803" fill="#F4EDF2" opacity="0.25" />
<path d="M 760 201 C 764.5 201, 764.5 210, 760 210" fill="#009CA2" opacity="0.9" />
<line x1="425.2249134948097" y1="201" x2="425.2249134948097" y2="210" stroke="#000000" stroke-width="2" />
<line x1="497.8892733564014" y1="201" x2="497.8892733564014" y2="210" stroke="#000000" stroke-width="2" />
<path d="M 10 212 C 5.5 212, 5.5 221, 10 221" fill="#009CA2" opacity="0.9" />
<rect x="10" y="212" height="9" width="129.75778546712803" fill="#009CA2" stroke="#009CA2" stroke-width="0" opacity="0.9" />
<rect x="10" y="213.62" height="3" width="129.75778546712803" fill="#F4EDF2" opacity="0.25" />
<rect x="139.75778546712803" y="212" height="9" width="77.8546712802768" fill="#D1D1D1" stroke="#D1D1D1" stroke-width="0" opacity="0.9" />
<rect x="139.75778546712803" y="213.62" height="3" width="77.8546712802768" fill="#F4EDF2" opacity="0.25" />
<line x1="217.61245674740485" y1="216.5" x2="220.2076124567474" y2="216.5" stroke="#D1D1D1" stroke-width="1.5" />
<rect x="220.2076124567474" y="212" height="9" width="407.43944636678197" fill="#D1D1D1" stroke="#D1D1D1" stroke-width="0" opacity="0.9" />
<rect x="220.2076124567474" y="213.62" height="3" width="407.43944636678197" fill="#F4EDF2" opacity="0.25" />
<line x1="627.6470588235294" y1="216.5" x2="630.2422145328719" y2="216.5" stroke="#D1D1D1" stroke-width="1.5" />
<rect x="630.2422145328719" y="212" height="9" width="129.75778546712803" fill="#009CA2" stroke="#009CA2" stroke-width="0" opacity="0.9" />
<rect x="630.2422145328719" y="213.62" height="3" width="129.75778546712803" fill="#F4EDF2" opacity="0.25" />
<path d="M 760 212 C 764.5 212, 764.5 221, 760 221" fill="#009CA2" opacity="0.9" />
<path d="M 10 223 C 5.5 223, 5.5 232, 10 232" fill="#009CA2" opacity="0.9" />
<rect x="10" y="223" height="9" width="129.75778546712803" fill="#009CA2" stroke="#009CA2" stroke-width="0" opacity="0.9" />
<rect x="10" y="224.62" height="3" width="129.75778546712803" fill="#F4EDF2" opacity="0.25" />
<rect x="139.75778546712803" y="223" height="9" width="487.88927335640136" fill="#D1D1D1" stroke="#D1D1D1" stroke-width="0" opacity="0.9" />
<rect x="139.75778546712803" y="224.62" height="3" width="487.88927335640136" fill="#F4EDF2" opacity="0.25" />
<line x1="627.6470588235294" y1="227.5" x2="630.2422145328719" y2="227.5" stroke="#D1D1D1" stroke-width="1.5" />
<rect x="630.2422145328719" y="223" height="9" width="129.75778546712803" fill="#009CA2" stroke="#009CA2" stroke-width="0" opacity="0.9" />
<rect x="630.2422145328719" y="224.62" height="3" width="129.75778546712803" fill="#F4EDF2" opacity="0.25" />
<path d="M 760 223 C 764.5 223, 764.5 232, 760 232" fill="#009CA2" opacity="0.9" />
<path d="M 10 234 C 5.5 234, 5.5 243, 10 243" fill="#009CA2" opacity="0.9" />
<rect x="10" y="234" height="9" width="129.75778546712803" fill="#009CA2" stroke="#009CA2" stroke-width="0" opacity="0.9" />
<rect x="10" y="235.62" height="3" width="129.75778546712803" fill="#F4EDF2" opacity="0.25" />
<rect x="139.75778546712803" y="234" height="9" width="487.88927335640136" fill="#D1D1D1" stroke="#D1D1D1" stroke-width="0" opacity="0.9" />
<rect x="139.75778546712803" y="235.62" height="3" width="487.88927335640136" fill="#F4EDF2" opacity="0.25" />
<line x1="627.6470588235294" y1="238.5" x2="630.2422145328719" y2="238.5" stroke="#D1D1D1" stroke-width="1.5" />
<rect x="630.2422145328719" y="234" height="9" width="129.75778546712803" fill="#009CA2" stroke="#009CA2" stroke-width="0" opacity="0.9" />
<rect x="630.2422145328719" y="235.62" height="3" width="129.75778546712803" fill="#F4EDF2" opacity="0.25" />
<path d="M 760 234 C 764.5 234, 764.5 243, 760 243" fill="#009CA2" opacity="0.9" />
<path d="M 10 245 C 5.5 245, 5.5 254, 10 254" fill="#009CA2" opacity="0.9" />
<rect x="10" y="245" height="9" width="129.75778546712803" fill="#009CA2" stroke="#009CA2" stroke-width="0" opacity="0.9" />
<rect x="10" y="246.62" height="3" width="129.75778546712803" fill="#F4EDF2" opacity="0.25" />
<rect x="139.75778546712803" y="245" height="9" width="85.6401384083045" fill="#D1D1D1" stroke="#D1D1D1" stroke-width="0" opacity="0.9" />
<rect x="139.75778546712803" y="246.62" height="3" width="85.6401384083045" fill="#F4EDF2" opacity="0.25" />
<line x1="225.39792387543253" y1="249.5" x2="230.58823529411765" y2="249.5" stroke="#D1D1D1" stroke-width="1.5" />
<rect x="230.58823529411765" y="245" height="9" width="38.9273356401384" fill="#D1D1D1" stroke="#D1D1D1" stroke-width="0" opacity="0.9" />
<rect x="230.58823529411765" y="246.62" height="3" width="38.9273356401384" fill="#F4EDF2" opacity="0.25" />
<line x1="269.51557093425606" y1="249.5" x2="274.70588235294116" y2="249.5" stroke="#D1D1D1" stroke-width="1.5" />
<rect x="274.70588235294116" y="245" height="9" width="2.5951557093425603" fill="#BABABA" stroke="#BABABA" stroke-width="0" opacity="0.9" />
<rect x="274.70588235294116" y="246.62" height="3" width="2.5951557093425603" fill="#F4EDF2" opacity="0.25" />
<rect x="277.30103806228374" y="245" height="9" width="2.5951557093425603" fill="#D1D1D1" stroke="#D1D1D1" stroke-width="0" opacity="0.9" />
<rect x="277.30103806228374" y="246.62" height="3" width="2.5951557093425603" fill="#F4EDF2" opacity="0.25" />
<rect x="279.8961937716263" y="245" height="9" width="2.5951557093425603" fill="#BABABA" stroke="#BABABA" stroke-width="0" opacity="0.9" />
<rect x="279.8961937716263" y="246.62" height="3" width="2.5951557093425603" fill="#F4EDF2" opacity="0.25" />
<rect x="282.4913494809689" y="245" height="9" width="5.190311418685121" fill="#D1D1D1" stroke="#D1D1D1" stroke-width="0" opacity="0.9" />
<rect x="282.4913494809689" y="246.62" height="3" width="5.190311418685121" fill="#F4EDF2" opacity="0.25" />
<rect x="287.681660899654" y="245" height="9" width="2.5951557093425603" fill="#BABABA" stroke="#BABABA" stroke-width="0" opacity="0.9" />
<rect x="287.681660899654" y="246.62" height="3" width="2.5951557093425603" fill="#F4EDF2" opacity="0.25" />
<rect x="290.27681660899657" y="245" height="9" width="140.13840830449826" fill="#D1D1D1" stroke="#D1D1D1" stroke-width="0" opacity="0.9" />
<rect x="290.27681660899657" y="246.62" height="3" width="140.13840830449826" fill="#F4EDF2" opacity="0.25" />
<rect x="430.41522491349485" y="245" height="9" width="46.712802768166085" fill="#D1D1D1" stroke="#D1D1D1" stroke-width="0" opacity="0.9" />
<rect x="430.41522491349485" y="246.62" height="3" width="46.712802768166085" fill="#F4EDF2" opacity="0.25" />
<line x1="477.1280276816609" y1="249.5" x2="484.9134948096886" y2="249.5" stroke="#D1D1D1" stroke-width="1.5" />
<rect x="484.9134948096886" y="245" height="9" width="2.5951557093425603" fill="#D1D1D1" stroke="#D1D1D1" stroke-width="0" opacity="0.9" />
<rect x="484.9134948096886" y="246.62" height="3" width="2.5951557093425603" fill="#F4EDF2" opacity="0.25" />
<rect x="487.50865051903116" y="245" height="9" width="2.5951557093425603" fill="#BABABA" stroke="#BABABA" stroke-width="0" opacity="0.9" />
<rect x="487.50865051903116" y="246.62" height="3" width="2.5951557093425603" fill="#F4EDF2" opacity="0.25" />
<rect x="490.10380622837374" y="245" height="9" width="140.13840830449826" fill="#D1D1D1" stroke="#D1D1D1" stroke-width="0" opacity="0.9" />
<rect x="490.10380622837374" y="246.62" height="3" width="140.13840830449826" fill="#F4EDF2" opacity="0.25" />
<rect x="630.242214532872" y="245" height="9" width="129.75778546712803" fill="#009CA2" stroke="#009CA2" stroke-width="0" opacity="0.9" />
<rect x="630.242214532872" y="246.62" height="3" width="129.75778546712803" fill="#F4EDF2" opacity="0.25" />
<path d="M 760 245 C 764.5 245, 764.5 254, 760 254" fill="#009CA2" opacity="0.9" />
<line x1="430.41522491349485" y1="245" x2="430.41522491349485" y2="254" stroke="#000000" stroke-width="2" />
<path d="M 10 256 C 5.5 256, 5.5 265, 10 265" fill="#009CA2" opacity="0.9" />
<rect x="10" y="256" height="9" width="129.75778546712803" fill="#009CA2" stroke="#009CA2" stroke-width="0" opacity="0.9" />
<rect x="10" y="257.62" height="3" width="129.75778546712803" fill="#F4EDF2" opacity="0.25" />
<rect x="139.75778546712803" y="256" height="9" width="490.4844290657439" fill="#D1D1D1" stroke="#D1D1D1" stroke-width="0" opacity="0.9" />
<rect x="139.75778546712803" y="257.62" height="3" width="490.4844290657439" fill="#F4EDF2" opacity="0.25" />
<rect x="630.2422145328719" y="256" height="9" width="129.75778546712803" fill="#009CA2" stroke="#009CA2" stroke-width="0" opacity="0.9" />
<rect x="630.2422145328719" y="257.62" height="3" width="129.75778546712803" fill="#F4EDF2" opacity="0.25" />
<path d="M 760 256 C 764.5 256, 764.5 265, 760 265" fill="#009CA2" opacity="0.9" />
<path d="M 10 267 C 5.5 267, 5.5 276, 10 276" fill="#009CA2" opacity="0.9" />
<rect x="10" y="267" height="9" width="129.75778546712803" fill="#009CA2" stroke="#009CA2" stroke-width="0" opacity="0.9" />
<rect x="10" y="268.62" height="3" width="129.75778546712803" fill="#F4EDF2" opacity="0.25" />
<rect x="139.75778546712803" y="267" height="9" width="25.951557093425603" fill="#D1D1D1" stroke="#D1D1D1" stroke-width="0" opacity="0.9" />
<rect x="139.75778546712803" y="268.62" height="3" width="25.951557093425603" fill="#F4EDF2" opacity="0.25" />
<line x1="165.70934256055364" y1="271.5" x2="168.3044982698962" y2="271.5" stroke="#D1D1D1" stroke-width="1.5" />
<rect x="168.3044982698962" y="267" height="9" width="280.2768166089965" fill="#D1D1D1" stroke="#D1D1D1" stroke-width="0" opacity="0.9" />
<rect x="168.3044982698962" y="268.62" height="3" width="280.2768166089965" fill="#F4EDF2" opacity="0.25" />
<rect x="448.5813148788927" y="267" height="9" width="5.190311418685121" fill="#BABABA" stroke="#BABABA" stroke-width="0" opacity="0.9" />
<rect x="448.5813148788927" y="268.62" height="3" width="5.190311418685121" fill="#F4EDF2" opacity="0.25" />
<rect x="453.7716262975778" y="267" height="9" width="176.47058823529412" fill="#D1D1D1" stroke="#D1D1D1" stroke-width="0" opacity="0.9" />
<rect x="453.7716262975778" y="268.62" height="3" width="176.47058823529412" fill="#F4EDF2" opacity="0.25" />
<rect x="630.2422145328719" y="267" height="9" width="129.75778546712803" fill="#009CA2" stroke="#009CA2" stroke-width="0" opacity="0.9" />
<rect x="630.2422145328719" y="268.62" height="3" width="129.75778546712803" fill="#F4EDF2" opacity="0.25" />
<path d="M 760 267 C 764.5 267, 764.5 276, 760 276" fill="#009CA2" opacity="0.9" />
<line x1="448.5813148788927" y1="267" x2="448.5813148788927" y2="276" stroke="#000000" stroke-width="2" />
<path d="M 10 278 C 5.5 278, 5.5 287, 10 287" fill="#009CA2" opacity="0.9" />
<rect x="10" y="278" height="9" width="129.75778546712803" fill="#009CA2" stroke="#009CA2" stroke-width="0" opacity="0.9" />
<rect x="10" y="279.62" height="3" width="129.75778546712803" fill="#F4EDF2" opacity="0.25" />
<rect x="139.75778546712803" y="278" height="9" width="365.916955017301" fill="#D1D1D1" stroke="#D1D1D1" stroke-width="0" opacity="0.9" />
<rect x="139.75778546712803" y="279.62" height="3" width="365.916955017301" fill="#F4EDF2" opacity="0.25" />
<rect x="505.67474048442904" y="278" height="9" width="5.190311418685121" fill="#BABABA" stroke="#BABABA" stroke-width="0" opacity="0.9" />
<rect x="505.67474048442904" y="279.62" height="3" width="5.190311418685121" fill="#F4EDF2" opacity="0.25" />
<rect x="510.86505190311414" y="278" height="9" width="5.190311418685121" fill="#D1D1D1" stroke="#D1D1D1" stroke-width="0" opacity="0.9" />
<rect x="510.86505190311414" y="279.62" height="3" width="5.190311418685121" fill="#F4EDF2" opacity="0.25" />
<line x1="516.0553633217993" y1="282.5" x2="518.6505190311418" y2="282.5" stroke="#D1D1D1" stroke-width="1.5" />
<rect x="518.6505190311418" y="278" height="9" width="111.5916955017301" fill="#D1D1D1" stroke="#D1D1D1" stroke-width="0" opacity="0.9" />
<rect x="518.6505190311418" y="279.62" height="3" width="111.5916955017301" fill="#F4EDF2" opacity="0.25" />
<rect x="630.2422145328719" y="278" height="9" width="129.75778546712803" fill="#009CA2" stroke="#009CA2" stroke-width="0" opacity="0.9" />
<rect x="630.2422145328719" y="279.62" height="3" width="129.75778546712803" fill="#F4EDF2" opacity="0.25" />
<path d="M 760 278 C 764.5 278, 764.5 287, 760 287" fill="#009CA2" opacity="0.9" />
<path d="M 10 289 C 5.5 289, 5.5 298, 10 298" fill="#009CA2" opacity="0.9" />
<rect x="10" y="289" height="9" width="129.75778546712803" fill="#009CA2" stroke="#009CA2" stroke-width="0" opacity="0.9" />
<rect x="10" y="290.62" height="3" width="129.75778546712803" fill="#F4EDF2" opacity="0.25" />
<rect x="139.75778546712803" y="289" height="9" width="490.4844290657439" fill="#D1D1D1" stroke="#D1D1D1" stroke-width="0" opacity="0.9" />
<rect x="139.75778546712803" y="290.62" height="3" width="490.4844290657439" fill="#F4EDF2" opacity="0.25" />
<rect x="630.2422145328719" y="289" height="9" width="129.75778546712803" fill="#009CA2" stroke="#009CA2" stroke-width="0" opacity="0.9" />
<rect x="630.2422145328719" y="290.62" height="3" width="129.75778546712803" fill="#F4EDF2" opacity="0.25" />
<path d="M 760 289 C 764.5 289, 764.5 298, 760 298" fill="#009CA2" opacity="0.9" />
<rect x="10" y="304" height="12" width="12" fill="#1383C6" stroke="#1383C6" stroke-width="0" opacity="0.9" />
<text x="24" y="315" font-family="monospace" font-weight="bold" font-size="14px" >TTTTA</text>
<rect x="79" y="304" height="12" width="12" fill="#814ED1" stroke="#814ED1" stroke-width="0" opacity="0.9" />
<text x="93" y="315" font-family="monospace" font-weight="bold" font-size="14px" >TTTCA</text>
</svg>
