<?xml version="1.0"?>
<svg xmlns="http://www.w3.org/2000/svg" xmlns:xlink="http://www.w3.org/1999/xlink" width="770" height="277">
<rect width="100%" height="100%" fill="white"/>
<path d="M 10 14 C 5.5 14, 5.5 23, 10 23" fill="#009CA2" opacity="0.9" />
<rect x="10" y="14" height="9" width="230.06134969325154" fill="#009CA2" stroke="#009CA2" stroke-width="0" opacity="0.9" />
<rect x="10" y="15.62" height="3" width="230.06134969325154" fill="#F4EDF2" opacity="0.25" />
<rect x="240.06134969325154" y="14" height="9" width="243.86503067484662" fill="#D1D1D1" stroke="#D1D1D1" stroke-width="0" opacity="0.9" />
<rect x="240.06134969325154" y="15.62" height="3" width="243.86503067484662" fill="#F4EDF2" opacity="0.25" />
<line x1="483.9263803680982" y1="18.5" x2="529.9386503067485" y2="18.5" stroke="#BABABA" stroke-width="1.5" />
<rect x="529.9386503067485" y="14" height="9" width="230.06134969325154" fill="#009CA2" stroke="#009CA2" stroke-width="0" opacity="0.9" />
<rect x="529.9386503067485" y="15.62" height="3" width="230.06134969325154" fill="#F4EDF2" opacity="0.25" />
<path d="M 760 14 C 764.5 14, 764.5 23, 760 23" fill="#009CA2" opacity="0.9" />
<rect x="102.02453987730061" y="14" height="9" width="4.601226993865031" fill="#84237B" stroke="#84237B" stroke-width="0" opacity="0.9" />
<rect x="111.22699386503068" y="14" height="9" width="4.601226993865031" fill="#BB1344" stroke="#BB1344" stroke-width="0" opacity="0.9" />
<rect x="138.83435582822085" y="14" height="9" width="4.601226993865031" fill="#C2113D" stroke="#C2113D" stroke-width="0" opacity="0.9" />
<rect x="157.23926380368098" y="14" height="9" width="4.601226993865031" fill="#FA0105" stroke="#FA0105" stroke-width="0" opacity="0.9" />
<rect x="226.25766871165644" y="14" height="9" width="4.601226993865031" fill="#F70208" stroke="#F70208" stroke-width="0" opacity="0.9" />
<rect x="249.2638036809816" y="14" height="9" width="4.601226993865031" fill="#FE0001" stroke="#FE0001" stroke-width="0" opacity="0.9" />
<rect x="263.0674846625767" y="14" height="9" width="4.601226993865031" fill="#FC0103" stroke="#FC0103" stroke-width="0" opacity="0.9" />
<rect x="276.8711656441718" y="14" height="9" width="4.601226993865031" fill="#F90206" stroke="#F90206" stroke-width="0" opacity="0.9" />
<rect x="290.67484662576686" y="14" height="9" width="4.601226993865031" fill="#DC0A23" stroke="#DC0A23" stroke-width="0" opacity="0.9" />
<rect x="318.2822085889571" y="14" height="9" width="4.601226993865031" fill="#CE0E31" stroke="#CE0E31" stroke-width="0" opacity="0.9" />
<rect x="332.0858895705521" y="14" height="9" width="4.601226993865031" fill="#F4030B" stroke="#F4030B" stroke-width="0" opacity="0.9" />
<rect x="345.88957055214723" y="14" height="9" width="4.601226993865031" fill="#0F45F0" stroke="#0F45F0" stroke-width="0" opacity="0.9" />
<rect x="359.69325153374234" y="14" height="9" width="4.601226993865031" fill="#F90206" stroke="#F90206" stroke-width="0" opacity="0.9" />
<rect x="373.49693251533745" y="14" height="9" width="4.601226993865031" fill="#B4154B" stroke="#B4154B" stroke-width="0" opacity="0.9" />
<rect x="428.7116564417178" y="14" height="9" width="4.601226993865031" fill="#E3081C" stroke="#E3081C" stroke-width="0" opacity="0.9" />
<rect x="442.5153374233129" y="14" height="9" width="4.601226993865031" fill="#FD0102" stroke="#FD0102" stroke-width="0" opacity="0.9" />
<rect x="456.319018404908" y="14" height="9" width="4.601226993865031" fill="#F90206" stroke="#F90206" stroke-width="0" opacity="0.9" />
<rect x="470.1226993865031" y="14" height="9" width="4.601226993865031" fill="#FE0001" stroke="#FE0001" stroke-width="0" opacity="0.9" />
<rect x="483.9263803680982" y="14" height="9" width="4.601226993865031" fill="#C4113B" stroke="#C4113B" stroke-width="0" opacity="0.9" />
<rect x="571.3496932515337" y="14" height="9" width="4.601226993865031" fill="#F2040D" stroke="#F2040D" stroke-width="0" opacity="0.9" />
<rect x="750.79754601227" y="14" height="9" width="4.601226993865031" fill="#FF0000" stroke="#FF0000" stroke-width="0" opacity="0.9" />
<path d="M 10 25 C 5.5 25, 5.5 34, 10 34" fill="#009CA2" opacity="0.9" />
<rect x="10" y="25" height="9" width="230.06134969325154" fill="#009CA2" stroke="#009CA2" stroke-width="0" opacity="0.9" />
<rect x="10" y="26.62" height="3" width="230.06134969325154" fill="#F4EDF2" opacity="0.25" />
<rect x="240.06134969325154" y="25" height="9" width="243.86503067484662" fill="#D1D1D1" stroke="#D1D1D1" stroke-width="0" opacity="0.9" />
<rect x="240.06134969325154" y="26.62" height="3" width="243.86503067484662" fill="#F4EDF2" opacity="0.25" />
<line x1="483.9263803680982" y1="29.5" x2="529.9386503067485" y2="29.5" stroke="#BABABA" stroke-width="1.5" />
<rect x="529.9386503067485" y="25" height="9" width="230.06134969325154" fill="#009CA2" stroke="#009CA2" stroke-width="0" opacity="0.9" />
<rect x="529.9386503067485" y="26.62" height="3" width="230.06134969325154" fill="#F4EDF2" opacity="0.25" />
<path d="M 760 25 C 764.5 25, 764.5 34, 760 34" fill="#009CA2" opacity="0.9" />
<rect x="102.02453987730061" y="25" height="9" width="4.601226993865031" fill="#FE0001" stroke="#FE0001" stroke-width="0" opacity="0.9" />
<rect x="111.22699386503068" y="25" height="9" width="4.601226993865031" fill="#FE0001" stroke="#FE0001" stroke-width="0" opacity="0.9" />
<rect x="138.83435582822085" y="25" height="9" width="4.601226993865031" fill="#FD0102" stroke="#FD0102" stroke-width="0" opacity="0.9" />
<rect x="157.23926380368098" y="25" height="9" width="4.601226993865031" fill="#E90616" stroke="#E90616" stroke-width="0" opacity="0.9" />
<rect x="226.25766871165644" y="25" height="9" width="4.601226993865031" fill="#FD0102" stroke="#FD0102" stroke-width="0" opacity="0.9" />
<rect x="249.2638036809816" y="25" height="9" width="4.601226993865031" fill="#FE0001" stroke="#FE0001" stroke-width="0" opacity="0.9" />
<rect x="263.0674846625767" y="25" height="9" width="4.601226993865031" fill="#FE0001" stroke="#FE0001" stroke-width="0" opacity="0.9" />
<rect x="276.8711656441718" y="25" height="9" width="4.601226993865031" fill="#F80207" stroke="#F80207" stroke-width="0" opacity="0.9" />
<rect x="290.67484662576686" y="25" height="9" width="4.601226993865031" fill="#FF0000" stroke="#FF0000" stroke-width="0" opacity="0.9" />
<rect x="318.2822085889571" y="25" height="9" width="4.601226993865031" fill="#D50C2A" stroke="#D50C2A" stroke-width="0" opacity="0.9" />
<rect x="332.0858895705521" y="25" height="9" width="4.601226993865031" fill="#D10D2E" stroke="#D10D2E" stroke-width="0" opacity="0.9" />
<rect x="345.88957055214723" y="25" height="9" width="4.601226993865031" fill="#FC0103" stroke="#FC0103" stroke-width="0" opacity="0.9" />
<rect x="359.69325153374234" y="25" height="9" width="4.601226993865031" fill="#BA1445" stroke="#BA1445" stroke-width="0" opacity="0.9" />
<rect x="373.49693251533745" y="25" height="9" width="4.601226993865031" fill="#D40C2B" stroke="#D40C2B" stroke-width="0" opacity="0.9" />
<rect x="428.7116564417178" y="25" height="9" width="4.601226993865031" fill="#F0040F" stroke="#F0040F" stroke-width="0" opacity="0.9" />
<rect x="442.5153374233129" y="25" height="9" width="4.601226993865031" fill="#FF0000" stroke="#FF0000" stroke-width="0" opacity="0.9" />
<rect x="456.319018404908" y="25" height="9" width="4.601226993865031" fill="#FC0103" stroke="#FC0103" stroke-width="0" opacity="0.9" />
<rect x="470.1226993865031" y="25" height="9" width="4.601226993865031" fill="#FF0000" stroke="#FF0000" stroke-width="0" opacity="0.9" />
<rect x="483.9263803680982" y="25" height="9" width="4.601226993865031" fill="#EA0615" stroke="#EA0615" stroke-width="0" opacity="0.9" />
<rect x="571.3496932515337" y="25" height="9" width="4.601226993865031" fill="#FF0000" stroke="#FF0000" stroke-width="0" opacity="0.9" />
<rect x="750.79754601227" y="25" height="9" width="4.601226993865031" fill="#1F40E0" stroke="#1F40E0" stroke-width="0" opacity="0.9" />
<path d="M 10 36 C 5.5 36, 5.5 45, 10 45" fill="#009CA2" opacity="0.9" />
<rect x="10" y="36" height="9" width="230.06134969325154" fill="#009CA2" stroke="#009CA2" stroke-width="0" opacity="0.9" />
<rect x="10" y="37.62" height="3" width="230.06134969325154" fill="#F4EDF2" opacity="0.25" />
<rect x="240.06134969325154" y="36" height="9" width="243.86503067484662" fill="#D1D1D1" stroke="#D1D1D1" stroke-width="0" opacity="0.9" />
<rect x="240.06134969325154" y="37.62" height="3" width="243.86503067484662" fill="#F4EDF2" opacity="0.25" />
<line x1="483.9263803680982" y1="40.5" x2="529.9386503067485" y2="40.5" stroke="#BABABA" stroke-width="1.5" />
<rect x="529.9386503067485" y="36" height="9" width="230.06134969325154" fill="#009CA2" stroke="#009CA2" stroke-width="0" opacity="0.9" />
<rect x="529.9386503067485" y="37.62" height="3" width="230.06134969325154" fill="#F4EDF2" opacity="0.25" />
<path d="M 760 36 C 764.5 36, 764.5 45, 760 45" fill="#009CA2" opacity="0.9" />
<path d="M 10 47 C 5.5 47, 5.5 56, 10 56" fill="#009CA2" opacity="0.9" />
<rect x="10" y="47" height="9" width="230.06134969325154" fill="#009CA2" stroke="#009CA2" stroke-width="0" opacity="0.9" />
<rect x="10" y="48.62" height="3" width="230.06134969325154" fill="#F4EDF2" opacity="0.25" />
<rect x="240.06134969325154" y="47" height="9" width="243.86503067484662" fill="#D1D1D1" stroke="#D1D1D1" stroke-width="0" opacity="0.9" />
<rect x="240.06134969325154" y="48.62" height="3" width="243.86503067484662" fill="#F4EDF2" opacity="0.25" />
<line x1="483.9263803680982" y1="51.5" x2="529.9386503067485" y2="51.5" stroke="#BABABA" stroke-width="1.5" />
<rect x="529.9386503067485" y="47" height="9" width="230.06134969325154" fill="#009CA2" stroke="#009CA2" stroke-width="0" opacity="0.9" />
<rect x="529.9386503067485" y="48.62" height="3" width="230.06134969325154" fill="#F4EDF2" opacity="0.25" />
<path d="M 760 47 C 764.5 47, 764.5 56, 760 56" fill="#009CA2" opacity="0.9" />
<path d="M 10 58 C 5.5 58, 5.5 67, 10 67" fill="#009CA2" opacity="0.9" />
<rect x="10" y="58" height="9" width="230.06134969325154" fill="#009CA2" stroke="#009CA2" stroke-width="0" opacity="0.9" />
<rect x="10" y="59.62" height="3" width="230.06134969325154" fill="#F4EDF2" opacity="0.25" />
<rect x="240.06134969325154" y="58" height="9" width="243.86503067484662" fill="#D1D1D1" stroke="#D1D1D1" stroke-width="0" opacity="0.9" />
<rect x="240.06134969325154" y="59.62" height="3" width="243.86503067484662" fill="#F4EDF2" opacity="0.25" />
<line x1="483.9263803680982" y1="62.5" x2="529.9386503067485" y2="62.5" stroke="#BABABA" stroke-width="1.5" />
<rect x="529.9386503067485" y="58" height="9" width="230.06134969325154" fill="#009CA2" stroke="#009CA2" stroke-width="0" opacity="0.9" />
<rect x="529.9386503067485" y="59.62" height="3" width="230.06134969325154" fill="#F4EDF2" opacity="0.25" />
<path d="M 760 58 C 764.5 58, 764.5 67, 760 67" fill="#009CA2" opacity="0.9" />
<rect x="102.02453987730061" y="58" height="9" width="4.601226993865031" fill="#FF0000" stroke="#FF0000" stroke-width="0" opacity="0.9" />
<rect x="111.22699386503068" y="58" height="9" width="4.601226993865031" fill="#991D66" stroke="#991D66" stroke-width="0" opacity="0.9" />
<rect x="138.83435582822085" y="58" height="9" width="4.601226993865031" fill="#1E40E1" stroke="#1E40E1" stroke-width="0" opacity="0.9" />
<rect x="157.23926380368098" y="58" height="9" width="4.601226993865031" fill="#D40C2B" stroke="#D40C2B" stroke-width="0" opacity="0.9" />
<rect x="226.25766871165644" y="58" height="9" width="4.601226993865031" fill="#1344EC" stroke="#1344EC" stroke-width="0" opacity="0.9" />
<rect x="249.2638036809816" y="58" height="9" width="4.601226993865031" fill="#E80717" stroke="#E80717" stroke-width="0" opacity="0.9" />
<rect x="263.0674846625767" y="58" height="9" width="4.601226993865031" fill="#991D66" stroke="#991D66" stroke-width="0" opacity="0.9" />
<rect x="276.8711656441718" y="58" height="9" width="4.601226993865031" fill="#5331AC" stroke="#5331AC" stroke-width="0" opacity="0.9" />
<rect x="290.67484662576686" y="58" height="9" width="4.601226993865031" fill="#2A3DD5" stroke="#2A3DD5" stroke-width="0" opacity="0.9" />
<rect x="318.2822085889571" y="58" height="9" width="4.601226993865031" fill="#F5030A" stroke="#F5030A" stroke-width="0" opacity="0.9" />
<rect x="332.0858895705521" y="58" height="9" width="4.601226993865031" fill="#F70208" stroke="#F70208" stroke-width="0" opacity="0.9" />
<rect x="345.88957055214723" y="58" height="9" width="4.601226993865031" fill="#FD0102" stroke="#FD0102" stroke-width="0" opacity="0.9" />
<rect x="359.69325153374234" y="58" height="9" width="4.601226993865031" fill="#1A42E5" stroke="#1A42E5" stroke-width="0" opacity="0.9" />
<rect x="373.49693251533745" y="58" height="9" width="4.601226993865031" fill="#FA0105" stroke="#FA0105" stroke-width="0" opacity="0.9" />
<rect x="428.7116564417178" y="58" height="9" width="4.601226993865031" fill="#FF0000" stroke="#FF0000" stroke-width="0" opacity="0.9" />
<rect x="442.5153374233129" y="58" height="9" width="4.601226993865031" fill="#FF0000" stroke="#FF0000" stroke-width="0" opacity="0.9" />
<rect x="456.319018404908" y="58" height="9" width="4.601226993865031" fill="#84237B" stroke="#84237B" stroke-width="0" opacity="0.9" />
<rect x="470.1226993865031" y="58" height="9" width="4.601226993865031" fill="#BF1240" stroke="#BF1240" stroke-width="0" opacity="0.9" />
<rect x="483.9263803680982" y="58" height="9" width="4.601226993865031" fill="#E60719" stroke="#E60719" stroke-width="0" opacity="0.9" />
<rect x="571.3496932515337" y="58" height="9" width="4.601226993865031" fill="#F3030C" stroke="#F3030C" stroke-width="0" opacity="0.9" />
<rect x="750.79754601227" y="58" height="9" width="4.601226993865031" fill="#D90B26" stroke="#D90B26" stroke-width="0" opacity="0.9" />
<path d="M 10 69 C 5.5 69, 5.5 78, 10 78" fill="#009CA2" opacity="0.9" />
<rect x="10" y="69" height="9" width="230.06134969325154" fill="#009CA2" stroke="#009CA2" stroke-width="0" opacity="0.9" />
<rect x="10" y="70.62" height="3" width="230.06134969325154" fill="#F4EDF2" opacity="0.25" />
<rect x="240.06134969325154" y="69" height="9" width="248.46625766871165" fill="#D1D1D1" stroke="#D1D1D1" stroke-width="0" opacity="0.9" />
<rect x="240.06134969325154" y="70.62" height="3" width="248.46625766871165" fill="#F4EDF2" opacity="0.25" />
<line x1="488.5276073619632" y1="73.5" x2="529.9386503067485" y2="73.5" stroke="#BABABA" stroke-width="1.5" />
<rect x="529.9386503067485" y="69" height="9" width="230.06134969325154" fill="#009CA2" stroke="#009CA2" stroke-width="0" opacity="0.9" />
<rect x="529.9386503067485" y="70.62" height="3" width="230.06134969325154" fill="#F4EDF2" opacity="0.25" />
<path d="M 760 69 C 764.5 69, 764.5 78, 760 78" fill="#009CA2" opacity="0.9" />
<path d="M 10 80 C 5.5 80, 5.5 89, 10 89" fill="#009CA2" opacity="0.9" />
<rect x="10" y="80" height="9" width="230.06134969325154" fill="#009CA2" stroke="#009CA2" stroke-width="0" opacity="0.9" />
<rect x="10" y="81.62" height="3" width="230.06134969325154" fill="#F4EDF2" opacity="0.25" />
<rect x="240.06134969325154" y="80" height="9" width="248.46625766871165" fill="#D1D1D1" stroke="#D1D1D1" stroke-width="0" opacity="0.9" />
<rect x="240.06134969325154" y="81.62" height="3" width="248.46625766871165" fill="#F4EDF2" opacity="0.25" />
<line x1="488.5276073619632" y1="84.5" x2="529.9386503067485" y2="84.5" stroke="#BABABA" stroke-width="1.5" />
<rect x="529.9386503067485" y="80" height="9" width="230.06134969325154" fill="#009CA2" stroke="#009CA2" stroke-width="0" opacity="0.9" />
<rect x="529.9386503067485" y="81.62" height="3" width="230.06134969325154" fill="#F4EDF2" opacity="0.25" />
<path d="M 760 80 C 764.5 80, 764.5 89, 760 89" fill="#009CA2" opacity="0.9" />
<path d="M 10 91 C 5.5 91, 5.5 100, 10 100" fill="#009CA2" opacity="0.9" />
<rect x="10" y="91" height="9" width="230.06134969325154" fill="#009CA2" stroke="#009CA2" stroke-width="0" opacity="0.9" />
<rect x="10" y="92.62" height="3" width="230.06134969325154" fill="#F4EDF2" opacity="0.25" />
<rect x="240.06134969325154" y="91" height="9" width="248.46625766871165" fill="#D1D1D1" stroke="#D1D1D1" stroke-width="0" opacity="0.9" />
<rect x="240.06134969325154" y="92.62" height="3" width="248.46625766871165" fill="#F4EDF2" opacity="0.25" />
<line x1="488.5276073619632" y1="95.5" x2="529.9386503067485" y2="95.5" stroke="#BABABA" stroke-width="1.5" />
<rect x="529.9386503067485" y="91" height="9" width="230.06134969325154" fill="#009CA2" stroke="#009CA2" stroke-width="0" opacity="0.9" />
<rect x="529.9386503067485" y="92.62" height="3" width="230.06134969325154" fill="#F4EDF2" opacity="0.25" />
<path d="M 760 91 C 764.5 91, 764.5 100, 760 100" fill="#009CA2" opacity="0.9" />
<path d="M 10 102 C 5.5 102, 5.5 111, 10 111" fill="#009CA2" opacity="0.9" />
<rect x="10" y="102" height="9" width="230.06134969325154" fill="#009CA2" stroke="#009CA2" stroke-width="0" opacity="0.9" />
<rect x="10" y="103.62" height="3" width="230.06134969325154" fill="#F4EDF2" opacity="0.25" />
<rect x="240.06134969325154" y="102" height="9" width="253.0674846625767" fill="#D1D1D1" stroke="#D1D1D1" stroke-width="0" opacity="0.9" />
<rect x="240.06134969325154" y="103.62" height="3" width="253.0674846625767" fill="#F4EDF2" opacity="0.25" />
<line x1="493.12883435582825" y1="106.5" x2="529.9386503067485" y2="106.5" stroke="#BABABA" stroke-width="1.5" />
<rect x="529.9386503067485" y="102" height="9" width="4.601226993865031" fill="#BABABA" stroke="#BABABA" stroke-width="0" opacity="0.9" />
<rect x="529.9386503067485" y="103.62" height="3" width="4.601226993865031" fill="#F4EDF2" opacity="0.25" />
<rect x="534.5398773006135" y="102" height="9" width="4.601226993865031" fill="#009CA2" stroke="#009CA2" stroke-width="0" opacity="0.9" />
<rect x="534.5398773006135" y="103.62" height="3" width="4.601226993865031" fill="#F4EDF2" opacity="0.25" />
<rect x="539.1411042944785" y="102" height="9" width="9.202453987730062" fill="#BABABA" stroke="#BABABA" stroke-width="0" opacity="0.9" />
<rect x="539.1411042944785" y="103.62" height="3" width="9.202453987730062" fill="#F4EDF2" opacity="0.25" />
<rect x="548.3435582822086" y="102" height="9" width="211.6564417177914" fill="#009CA2" stroke="#009CA2" stroke-width="0" opacity="0.9" />
<rect x="548.3435582822086" y="103.62" height="3" width="211.6564417177914" fill="#F4EDF2" opacity="0.25" />
<path d="M 760 102 C 764.5 102, 764.5 111, 760 111" fill="#009CA2" opacity="0.9" />
<rect x="102.02453987730061" y="102" height="9" width="4.601226993865031" fill="#1543EA" stroke="#1543EA" stroke-width="0" opacity="0.9" />
<rect x="111.22699386503068" y="102" height="9" width="4.601226993865031" fill="#0647F9" stroke="#0647F9" stroke-width="0" opacity="0.9" />
<rect x="138.83435582822085" y="102" height="9" width="4.601226993865031" fill="#303BCF" stroke="#303BCF" stroke-width="0" opacity="0.9" />
<rect x="157.23926380368098" y="102" height="9" width="4.601226993865031" fill="#0149FE" stroke="#0149FE" stroke-width="0" opacity="0.9" />
<rect x="226.25766871165644" y="102" height="9" width="4.601226993865031" fill="#0049FF" stroke="#0049FF" stroke-width="0" opacity="0.9" />
<rect x="249.2638036809816" y="102" height="9" width="4.601226993865031" fill="#0946F6" stroke="#0946F6" stroke-width="0" opacity="0.9" />
<rect x="263.0674846625767" y="102" height="9" width="4.601226993865031" fill="#0647F9" stroke="#0647F9" stroke-width="0" opacity="0.9" />
<rect x="276.8711656441718" y="102" height="9" width="4.601226993865031" fill="#0248FD" stroke="#0248FD" stroke-width="0" opacity="0.9" />
<rect x="290.67484662576686" y="102" height="9" width="4.601226993865031" fill="#293DD6" stroke="#293DD6" stroke-width="0" opacity="0.9" />
<rect x="318.2822085889571" y="102" height="9" width="4.601226993865031" fill="#2E3CD1" stroke="#2E3CD1" stroke-width="0" opacity="0.9" />
<rect x="332.0858895705521" y="102" height="9" width="4.601226993865031" fill="#0248FD" stroke="#0248FD" stroke-width="0" opacity="0.9" />
<rect x="345.88957055214723" y="102" height="9" width="4.601226993865031" fill="#0049FF" stroke="#0049FF" stroke-width="0" opacity="0.9" />
<rect x="359.69325153374234" y="102" height="9" width="4.601226993865031" fill="#0049FF" stroke="#0049FF" stroke-width="0" opacity="0.9" />
<rect x="373.49693251533745" y="102" height="9" width="4.601226993865031" fill="#0049FF" stroke="#0049FF" stroke-width="0" opacity="0.9" />
<rect x="433.3128834355828" y="102" height="9" width="4.601226993865031" fill="#E4081B" stroke="#E4081B" stroke-width="0" opacity="0.9" />
<rect x="447.1165644171779" y="102" height="9" width="4.601226993865031" fill="#B3164C" stroke="#B3164C" stroke-width="0" opacity="0.9" />
<rect x="460.92024539877303" y="102" height="9" width="4.601226993865031" fill="#4037BF" stroke="#4037BF" stroke-width="0" opacity="0.9" />
<rect x="474.7239263803681" y="102" height="9" width="4.601226993865031" fill="#2140DE" stroke="#2140DE" stroke-width="0" opacity="0.9" />
<rect x="488.5276073619632" y="102" height="9" width="4.601226993865031" fill="#1443EB" stroke="#1443EB" stroke-width="0" opacity="0.9" />
<rect x="571.3496932515337" y="102" height="9" width="4.601226993865031" fill="#1C41E3" stroke="#1C41E3" stroke-width="0" opacity="0.9" />
<rect x="750.79754601227" y="102" height="9" width="4.601226993865031" fill="#0946F6" stroke="#0946F6" stroke-width="0" opacity="0.9" />
<path d="M 10 113 C 5.5 113, 5.5 122, 10 122" fill="#009CA2" opacity="0.9" />
<rect x="10" y="113" height="9" width="230.06134969325154" fill="#009CA2" stroke="#009CA2" stroke-width="0" opacity="0.9" />
<rect x="10" y="114.62" height="3" width="230.06134969325154" fill="#F4EDF2" opacity="0.25" />
<rect x="240.06134969325154" y="113" height="9" width="285.2760736196319" fill="#D1D1D1" stroke="#D1D1D1" stroke-width="0" opacity="0.9" />
<rect x="240.06134969325154" y="114.62" height="3" width="285.2760736196319" fill="#F4EDF2" opacity="0.25" />
<line x1="525.3374233128834" y1="117.5" x2="529.9386503067484" y2="117.5" stroke="#BABABA" stroke-width="1.5" />
<rect x="529.9386503067484" y="113" height="9" width="230.06134969325154" fill="#009CA2" stroke="#009CA2" stroke-width="0" opacity="0.9" />
<rect x="529.9386503067484" y="114.62" height="3" width="230.06134969325154" fill="#F4EDF2" opacity="0.25" />
<path d="M 760 113 C 764.5 113, 764.5 122, 760 122" fill="#009CA2" opacity="0.9" />
<path d="M 10 124 C 5.5 124, 5.5 133, 10 133" fill="#009CA2" opacity="0.9" />
<rect x="10" y="124" height="9" width="230.06134969325154" fill="#009CA2" stroke="#009CA2" stroke-width="0" opacity="0.9" />
<rect x="10" y="125.62" height="3" width="230.06134969325154" fill="#F4EDF2" opacity="0.25" />
<rect x="240.06134969325154" y="124" height="9" width="285.2760736196319" fill="#D1D1D1" stroke="#D1D1D1" stroke-width="0" opacity="0.9" />
<rect x="240.06134969325154" y="125.62" height="3" width="285.2760736196319" fill="#F4EDF2" opacity="0.25" />
<line x1="525.3374233128834" y1="128.5" x2="529.9386503067484" y2="128.5" stroke="#BABABA" stroke-width="1.5" />
<rect x="529.9386503067484" y="124" height="9" width="230.06134969325154" fill="#009CA2" stroke="#009CA2" stroke-width="0" opacity="0.9" />
<rect x="529.9386503067484" y="125.62" height="3" width="230.06134969325154" fill="#F4EDF2" opacity="0.25" />
<path d="M 760 124 C 764.5 124, 764.5 133, 760 133" fill="#009CA2" opacity="0.9" />
<path d="M 10 135 C 5.5 135, 5.5 144, 10 144" fill="#009CA2" opacity="0.9" />
<rect x="10" y="135" height="9" width="230.06134969325154" fill="#009CA2" stroke="#009CA2" stroke-width="0" opacity="0.9" />
<rect x="10" y="136.62" height="3" width="230.06134969325154" fill="#F4EDF2" opacity="0.25" />
<rect x="240.06134969325154" y="135" height="9" width="285.2760736196319" fill="#D1D1D1" stroke="#D1D1D1" stroke-width="0" opacity="0.9" />
<rect x="240.06134969325154" y="136.62" height="3" width="285.2760736196319" fill="#F4EDF2" opacity="0.25" />
<line x1="525.3374233128834" y1="139.5" x2="529.9386503067484" y2="139.5" stroke="#BABABA" stroke-width="1.5" />
<rect x="529.9386503067484" y="135" height="9" width="230.06134969325154" fill="#009CA2" stroke="#009CA2" stroke-width="0" opacity="0.9" />
<rect x="529.9386503067484" y="136.62" height="3" width="230.06134969325154" fill="#F4EDF2" opacity="0.25" />
<path d="M 760 135 C 764.5 135, 764.5 144, 760 144" fill="#009CA2" opacity="0.9" />
<path d="M 10 146 C 5.5 146, 5.5 155, 10 155" fill="#009CA2" opacity="0.9" />
<rect x="10" y="146" height="9" width="230.06134969325154" fill="#009CA2" stroke="#009CA2" stroke-width="0" opacity="0.9" />
<rect x="10" y="147.62" height="3" width="230.06134969325154" fill="#F4EDF2" opacity="0.25" />
<rect x="240.06134969325154" y="146" height="9" width="285.2760736196319" fill="#D1D1D1" stroke="#D1D1D1" stroke-width="0" opacity="0.9" />
<rect x="240.06134969325154" y="147.62" height="3" width="285.2760736196319" fill="#F4EDF2" opacity="0.25" />
<line x1="525.3374233128834" y1="150.5" x2="529.9386503067484" y2="150.5" stroke="#BABABA" stroke-width="1.5" />
<rect x="529.9386503067484" y="146" height="9" width="230.06134969325154" fill="#009CA2" stroke="#009CA2" stroke-width="0" opacity="0.9" />
<rect x="529.9386503067484" y="147.62" height="3" width="230.06134969325154" fill="#F4EDF2" opacity="0.25" />
<path d="M 760 146 C 764.5 146, 764.5 155, 760 155" fill="#009CA2" opacity="0.9" />
<rect x="102.02453987730061" y="146" height="9" width="4.601226993865031" fill="#B61549" stroke="#B61549" stroke-width="0" opacity="0.9" />
<rect x="111.22699386503068" y="146" height="9" width="4.601226993865031" fill="#FC0103" stroke="#FC0103" stroke-width="0" opacity="0.9" />
<rect x="138.83435582822085" y="146" height="9" width="4.601226993865031" fill="#9C1C63" stroke="#9C1C63" stroke-width="0" opacity="0.9" />
<rect x="157.23926380368098" y="146" height="9" width="4.601226993865031" fill="#D50C2A" stroke="#D50C2A" stroke-width="0" opacity="0.9" />
<rect x="226.25766871165644" y="146" height="9" width="4.601226993865031" fill="#FE0001" stroke="#FE0001" stroke-width="0" opacity="0.9" />
<rect x="249.2638036809816" y="146" height="9" width="4.601226993865031" fill="#273ED8" stroke="#273ED8" stroke-width="0" opacity="0.9" />
<rect x="263.0674846625767" y="146" height="9" width="4.601226993865031" fill="#F1040E" stroke="#F1040E" stroke-width="0" opacity="0.9" />
<rect x="276.8711656441718" y="146" height="9" width="4.601226993865031" fill="#0747F8" stroke="#0747F8" stroke-width="0" opacity="0.9" />
<rect x="290.67484662576686" y="146" height="9" width="4.601226993865031" fill="#E90616" stroke="#E90616" stroke-width="0" opacity="0.9" />
<rect x="304.47852760736197" y="146" height="9" width="4.601226993865031" fill="#D80B27" stroke="#D80B27" stroke-width="0" opacity="0.9" />
<rect x="318.2822085889571" y="146" height="9" width="4.601226993865031" fill="#F3030C" stroke="#F3030C" stroke-width="0" opacity="0.9" />
<rect x="332.0858895705521" y="146" height="9" width="4.601226993865031" fill="#283ED7" stroke="#283ED7" stroke-width="0" opacity="0.9" />
<rect x="359.69325153374234" y="146" height="9" width="4.601226993865031" fill="#0647F9" stroke="#0647F9" stroke-width="0" opacity="0.9" />
<rect x="373.49693251533745" y="146" height="9" width="4.601226993865031" fill="#3939C6" stroke="#3939C6" stroke-width="0" opacity="0.9" />
<rect x="387.3006134969325" y="146" height="9" width="4.601226993865031" fill="#FA0105" stroke="#FA0105" stroke-width="0" opacity="0.9" />
<rect x="401.1042944785276" y="146" height="9" width="4.601226993865031" fill="#1144EE" stroke="#1144EE" stroke-width="0" opacity="0.9" />
<rect x="414.9079754601227" y="146" height="9" width="4.601226993865031" fill="#1E40E1" stroke="#1E40E1" stroke-width="0" opacity="0.9" />
<rect x="470.1226993865031" y="146" height="9" width="4.601226993865031" fill="#CD0E32" stroke="#CD0E32" stroke-width="0" opacity="0.9" />
<rect x="483.9263803680982" y="146" height="9" width="4.601226993865031" fill="#5F2EA0" stroke="#5F2EA0" stroke-width="0" opacity="0.9" />
<rect x="497.73006134969324" y="146" height="9" width="4.601226993865031" fill="#FF0000" stroke="#FF0000" stroke-width="0" opacity="0.9" />
<rect x="511.53374233128835" y="146" height="9" width="4.601226993865031" fill="#E70718" stroke="#E70718" stroke-width="0" opacity="0.9" />
<rect x="525.3374233128834" y="146" height="9" width="4.601226993865031" fill="#FD0102" stroke="#FD0102" stroke-width="0" opacity="0.9" />
<rect x="571.3496932515337" y="146" height="9" width="4.601226993865031" fill="#682B97" stroke="#682B97" stroke-width="0" opacity="0.9" />
<rect x="750.79754601227" y="146" height="9" width="4.601226993865031" fill="#FA0105" stroke="#FA0105" stroke-width="0" opacity="0.9" />
<path d="M 10 157 C 5.5 157, 5.5 166, 10 166" fill="#009CA2" opacity="0.9" />
<rect x="10" y="157" height="9" width="230.06134969325154" fill="#009CA2" stroke="#009CA2" stroke-width="0" opacity="0.9" />
<rect x="10" y="158.62" height="3" width="230.06134969325154" fill="#F4EDF2" opacity="0.25" />
<rect x="240.06134969325154" y="157" height="9" width="285.2760736196319" fill="#D1D1D1" stroke="#D1D1D1" stroke-width="0" opacity="0.9" />
<rect x="240.06134969325154" y="158.62" height="3" width="285.2760736196319" fill="#F4EDF2" opacity="0.25" />
<line x1="525.3374233128834" y1="161.5" x2="529.9386503067484" y2="161.5" stroke="#BABABA" stroke-width="1.5" />
<rect x="529.9386503067484" y="157" height="9" width="230.06134969325154" fill="#009CA2" stroke="#009CA2" stroke-width="0" opacity="0.9" />
<rect x="529.9386503067484" y="158.62" height="3" width="230.06134969325154" fill="#F4EDF2" opacity="0.25" />
<path d="M 760 157 C 764.5 157, 764.5 166, 760 166" fill="#009CA2" opacity="0.9" />
<path d="M 10 168 C 5.5 168, 5.5 177, 10 177" fill="#009CA2" opacity="0.9" />
<rect x="10" y="168" height="9" width="230.06134969325154" fill="#009CA2" stroke="#009CA2" stroke-width="0" opacity="0.9" />
<rect x="10" y="169.62" height="3" width="230.06134969325154" fill="#F4EDF2" opacity="0.25" />
<rect x="240.06134969325154" y="168" height="9" width="285.2760736196319" fill="#D1D1D1" stroke="#D1D1D1" stroke-width="0" opacity="0.9" />
<rect x="240.06134969325154" y="169.62" height="3" width="285.2760736196319" fill="#F4EDF2" opacity="0.25" />
<line x1="525.3374233128834" y1="172.5" x2="529.9386503067484" y2="172.5" stroke="#BABABA" stroke-width="1.5" />
<rect x="529.9386503067484" y="168" height="9" width="230.06134969325154" fill="#009CA2" stroke="#009CA2" stroke-width="0" opacity="0.9" />
<rect x="529.9386503067484" y="169.62" height="3" width="230.06134969325154" fill="#F4EDF2" opacity="0.25" />
<path d="M 760 168 C 764.5 168, 764.5 177, 760 177" fill="#009CA2" opacity="0.9" />
<rect x="102.02453987730061" y="168" height="9" width="4.601226993865031" fill="#0049FF" stroke="#0049FF" stroke-width="0" opacity="0.9" />
<rect x="111.22699386503068" y="168" height="9" width="4.601226993865031" fill="#0049FF" stroke="#0049FF" stroke-width="0" opacity="0.9" />
<rect x="138.83435582822085" y="168" height="9" width="4.601226993865031" fill="#0049FF" stroke="#0049FF" stroke-width="0" opacity="0.9" />
<rect x="157.23926380368098" y="168" height="9" width="4.601226993865031" fill="#0149FE" stroke="#0149FE" stroke-width="0" opacity="0.9" />
<rect x="226.25766871165644" y="168" height="9" width="4.601226993865031" fill="#0049FF" stroke="#0049FF" stroke-width="0" opacity="0.9" />
<rect x="249.2638036809816" y="168" height="9" width="4.601226993865031" fill="#0049FF" stroke="#0049FF" stroke-width="0" opacity="0.9" />
<rect x="263.0674846625767" y="168" height="9" width="4.601226993865031" fill="#0049FF" stroke="#0049FF" stroke-width="0" opacity="0.9" />
<rect x="276.8711656441718" y="168" height="9" width="4.601226993865031" fill="#0049FF" stroke="#0049FF" stroke-width="0" opacity="0.9" />
<rect x="290.67484662576686" y="168" height="9" width="4.601226993865031" fill="#0049FF" stroke="#0049FF" stroke-width="0" opacity="0.9" />
<rect x="304.47852760736197" y="168" height="9" width="4.601226993865031" fill="#2F3CD0" stroke="#2F3CD0" stroke-width="0" opacity="0.9" />
<rect x="318.2822085889571" y="168" height="9" width="4.601226993865031" fill="#0847F7" stroke="#0847F7" stroke-width="0" opacity="0.9" />
<rect x="332.0858895705521" y="168" height="9" width="4.601226993865031" fill="#FF0000" stroke="#FF0000" stroke-width="0" opacity="0.9" />
<rect x="359.69325153374234" y="168" height="9" width="4.601226993865031" fill="#0248FD" stroke="#0248FD" stroke-width="0" opacity="0.9" />
<rect x="373.49693251533745" y="168" height="9" width="4.601226993865031" fill="#0149FE" stroke="#0149FE" stroke-width="0" opacity="0.9" />
<rect x="387.3006134969325" y="168" height="9" width="4.601226993865031" fill="#0049FF" stroke="#0049FF" stroke-width="0" opacity="0.9" />
<rect x="401.1042944785276" y="168" height="9" width="4.601226993865031" fill="#0049FF" stroke="#0049FF" stroke-width="0" opacity="0.9" />
<rect x="414.9079754601227" y="168" height="9" width="4.601226993865031" fill="#0049FF" stroke="#0049FF" stroke-width="0" opacity="0.9" />
<rect x="470.1226993865031" y="168" height="9" width="4.601226993865031" fill="#0049FF" stroke="#0049FF" stroke-width="0" opacity="0.9" />
<rect x="483.9263803680982" y="168" height="9" width="4.601226993865031" fill="#0049FF" stroke="#0049FF" stroke-width="0" opacity="0.9" />
<rect x="497.73006134969324" y="168" height="9" width="4.601226993865031" fill="#0049FF" stroke="#0049FF" stroke-width="0" opacity="0.9" />
<rect x="511.53374233128835" y="168" height="9" width="4.601226993865031" fill="#0049FF" stroke="#0049FF" stroke-width="0" opacity="0.9" />
<rect x="525.3374233128834" y="168" height="9" width="4.601226993865031" fill="#0548FA" stroke="#0548FA" stroke-width="0" opacity="0.9" />
<rect x="571.3496932515337" y="168" height="9" width="4.601226993865031" fill="#5F2EA0" stroke="#5F2EA0" stroke-width="0" opacity="0.9" />
<rect x="750.79754601227" y="168" height="9" width="4.601226993865031" fill="#0548FA" stroke="#0548FA" stroke-width="0" opacity="0.9" />
<path d="M 10 179 C 5.5 179, 5.5 188, 10 188" fill="#009CA2" opacity="0.9" />
<rect x="10" y="179" height="9" width="230.06134969325154" fill="#009CA2" stroke="#009CA2" stroke-width="0" opacity="0.9" />
<rect x="10" y="180.62" height="3" width="230.06134969325154" fill="#F4EDF2" opacity="0.25" />
<rect x="240.06134969325154" y="179" height="9" width="285.2760736196319" fill="#D1D1D1" stroke="#D1D1D1" stroke-width="0" opacity="0.9" />
<rect x="240.06134969325154" y="180.62" height="3" width="285.2760736196319" fill="#F4EDF2" opacity="0.25" />
<line x1="525.3374233128834" y1="183.5" x2="529.9386503067484" y2="183.5" stroke="#BABABA" stroke-width="1.5" />
<rect x="529.9386503067484" y="179" height="9" width="230.06134969325154" fill="#009CA2" stroke="#009CA2" stroke-width="0" opacity="0.9" />
<rect x="529.9386503067484" y="180.62" height="3" width="230.06134969325154" fill="#F4EDF2" opacity="0.25" />
<path d="M 760 179 C 764.5 179, 764.5 188, 760 188" fill="#009CA2" opacity="0.9" />
<rect x="102.02453987730061" y="179" height="9" width="4.601226993865031" fill="#0049FF" stroke="#0049FF" stroke-width="0" opacity="0.9" />
<rect x="111.22699386503068" y="179" height="9" width="4.601226993865031" fill="#0049FF" stroke="#0049FF" stroke-width="0" opacity="0.9" />
<rect x="138.83435582822085" y="179" height="9" width="4.601226993865031" fill="#0448FB" stroke="#0448FB" stroke-width="0" opacity="0.9" />
<rect x="157.23926380368098" y="179" height="9" width="4.601226993865031" fill="#0647F9" stroke="#0647F9" stroke-width="0" opacity="0.9" />
<rect x="226.25766871165644" y="179" height="9" width="4.601226993865031" fill="#0348FC" stroke="#0348FC" stroke-width="0" opacity="0.9" />
<rect x="249.2638036809816" y="179" height="9" width="4.601226993865031" fill="#D60C29" stroke="#D60C29" stroke-width="0" opacity="0.9" />
<rect x="263.0674846625767" y="179" height="9" width="4.601226993865031" fill="#EE0511" stroke="#EE0511" stroke-width="0" opacity="0.9" />
<rect x="276.8711656441718" y="179" height="9" width="4.601226993865031" fill="#E5071A" stroke="#E5071A" stroke-width="0" opacity="0.9" />
<rect x="290.67484662576686" y="179" height="9" width="4.601226993865031" fill="#5930A6" stroke="#5930A6" stroke-width="0" opacity="0.9" />
<rect x="304.47852760736197" y="179" height="9" width="4.601226993865031" fill="#0448FB" stroke="#0448FB" stroke-width="0" opacity="0.9" />
<rect x="318.2822085889571" y="179" height="9" width="4.601226993865031" fill="#0348FC" stroke="#0348FC" stroke-width="0" opacity="0.9" />
<rect x="332.0858895705521" y="179" height="9" width="4.601226993865031" fill="#0149FE" stroke="#0149FE" stroke-width="0" opacity="0.9" />
<rect x="359.69325153374234" y="179" height="9" width="4.601226993865031" fill="#3839C7" stroke="#3839C7" stroke-width="0" opacity="0.9" />
<rect x="373.49693251533745" y="179" height="9" width="4.601226993865031" fill="#EF0510" stroke="#EF0510" stroke-width="0" opacity="0.9" />
<rect x="387.3006134969325" y="179" height="9" width="4.601226993865031" fill="#0149FE" stroke="#0149FE" stroke-width="0" opacity="0.9" />
<rect x="401.1042944785276" y="179" height="9" width="4.601226993865031" fill="#3D38C2" stroke="#3D38C2" stroke-width="0" opacity="0.9" />
<rect x="414.9079754601227" y="179" height="9" width="4.601226993865031" fill="#0149FE" stroke="#0149FE" stroke-width="0" opacity="0.9" />
<rect x="470.1226993865031" y="179" height="9" width="4.601226993865031" fill="#DA0B25" stroke="#DA0B25" stroke-width="0" opacity="0.9" />
<rect x="483.9263803680982" y="179" height="9" width="4.601226993865031" fill="#75288A" stroke="#75288A" stroke-width="0" opacity="0.9" />
<rect x="497.73006134969324" y="179" height="9" width="4.601226993865031" fill="#0548FA" stroke="#0548FA" stroke-width="0" opacity="0.9" />
<rect x="511.53374233128835" y="179" height="9" width="4.601226993865031" fill="#0149FE" stroke="#0149FE" stroke-width="0" opacity="0.9" />
<rect x="525.3374233128834" y="179" height="9" width="4.601226993865031" fill="#1942E6" stroke="#1942E6" stroke-width="0" opacity="0.9" />
<rect x="571.3496932515337" y="179" height="9" width="4.601226993865031" fill="#5E2EA1" stroke="#5E2EA1" stroke-width="0" opacity="0.9" />
<rect x="750.79754601227" y="179" height="9" width="4.601226993865031" fill="#0149FE" stroke="#0149FE" stroke-width="0" opacity="0.9" />
<path d="M 10 190 C 5.5 190, 5.5 199, 10 199" fill="#009CA2" opacity="0.9" />
<rect x="10" y="190" height="9" width="230.06134969325154" fill="#009CA2" stroke="#009CA2" stroke-width="0" opacity="0.9" />
<rect x="10" y="191.62" height="3" width="230.06134969325154" fill="#F4EDF2" opacity="0.25" />
<rect x="240.06134969325154" y="190" height="9" width="285.2760736196319" fill="#D1D1D1" stroke="#D1D1D1" stroke-width="0" opacity="0.9" />
<rect x="240.06134969325154" y="191.62" height="3" width="285.2760736196319" fill="#F4EDF2" opacity="0.25" />
<line x1="525.3374233128834" y1="194.5" x2="529.9386503067484" y2="194.5" stroke="#BABABA" stroke-width="1.5" />
<rect x="529.9386503067484" y="190" height="9" width="230.06134969325154" fill="#009CA2" stroke="#009CA2" stroke-width="0" opacity="0.9" />
<rect x="529.9386503067484" y="191.62" height="3" width="230.06134969325154" fill="#F4EDF2" opacity="0.25" />
<path d="M 760 190 C 764.5 190, 764.5 199, 760 199" fill="#009CA2" opacity="0.9" />
<path d="M 10 201 C 5.5 201, 5.5 210, 10 210" fill="#009CA2" opacity="0.9" />
<rect x="10" y="201" height="9" width="230.06134969325154" fill="#009CA2" stroke="#009CA2" stroke-width="0" opacity="0.9" />
<rect x="10" y="202.62" height="3" width="230.06134969325154" fill="#F4EDF2" opacity="0.25" />
<rect x="240.06134969325154" y="201" height="9" width="285.2760736196319" fill="#D1D1D1" stroke="#D1D1D1" stroke-width="0" opacity="0.9" />
<rect x="240.06134969325154" y="202.62" height="3" width="285.2760736196319" fill="#F4EDF2" opacity="0.25" />
<line x1="525.3374233128834" y1="205.5" x2="529.9386503067484" y2="205.5" stroke="#BABABA" stroke-width="1.5" />
<rect x="529.9386503067484" y="201" height="9" width="230.06134969325154" fill="#009CA2" stroke="#009CA2" stroke-width="0" opacity="0.9" />
<rect x="529.9386503067484" y="202.62" height="3" width="230.06134969325154" fill="#F4EDF2" opacity="0.25" />
<path d="M 760 201 C 764.5 201, 764.5 210, 760 210" fill="#009CA2" opacity="0.9" />
<path d="M 10 212 C 5.5 212, 5.5 221, 10 221" fill="#009CA2" opacity="0.9" />
<rect x="10" y="212" height="9" width="230.06134969325154" fill="#009CA2" stroke="#009CA2" stroke-width="0" opacity="0.9" />
<rect x="10" y="213.62" height="3" width="230.06134969325154" fill="#F4EDF2" opacity="0.25" />
<rect x="240.06134969325154" y="212" height="9" width="285.2760736196319" fill="#D1D1D1" stroke="#D1D1D1" stroke-width="0" opacity="0.9" />
<rect x="240.06134969325154" y="213.62" height="3" width="285.2760736196319" fill="#F4EDF2" opacity="0.25" />
<line x1="525.3374233128834" y1="216.5" x2="529.9386503067484" y2="216.5" stroke="#BABABA" stroke-width="1.5" />
<rect x="529.9386503067484" y="212" height="9" width="230.06134969325154" fill="#009CA2" stroke="#009CA2" stroke-width="0" opacity="0.9" />
<rect x="529.9386503067484" y="213.62" height="3" width="230.06134969325154" fill="#F4EDF2" opacity="0.25" />
<path d="M 760 212 C 764.5 212, 764.5 221, 760 221" fill="#009CA2" opacity="0.9" />
<path d="M 10 223 C 5.5 223, 5.5 232, 10 232" fill="#009CA2" opacity="0.9" />
<rect x="10" y="223" height="9" width="230.06134969325154" fill="#009CA2" stroke="#009CA2" stroke-width="0" opacity="0.9" />
<rect x="10" y="224.62" height="3" width="230.06134969325154" fill="#F4EDF2" opacity="0.25" />
<rect x="240.06134969325154" y="223" height="9" width="285.2760736196319" fill="#D1D1D1" stroke="#D1D1D1" stroke-width="0" opacity="0.9" />
<rect x="240.06134969325154" y="224.62" height="3" width="285.2760736196319" fill="#F4EDF2" opacity="0.25" />
<line x1="525.3374233128834" y1="227.5" x2="529.9386503067484" y2="227.5" stroke="#BABABA" stroke-width="1.5" />
<rect x="529.9386503067484" y="223" height="9" width="230.06134969325154" fill="#009CA2" stroke="#009CA2" stroke-width="0" opacity="0.9" />
<rect x="529.9386503067484" y="224.62" height="3" width="230.06134969325154" fill="#F4EDF2" opacity="0.25" />
<path d="M 760 223 C 764.5 223, 764.5 232, 760 232" fill="#009CA2" opacity="0.9" />
<path d="M 10 234 C 5.5 234, 5.5 243, 10 243" fill="#009CA2" opacity="0.9" />
<rect x="10" y="234" height="9" width="230.06134969325154" fill="#009CA2" stroke="#009CA2" stroke-width="0" opacity="0.9" />
<rect x="10" y="235.62" height="3" width="230.06134969325154" fill="#F4EDF2" opacity="0.25" />
<rect x="240.06134969325154" y="234" height="9" width="285.2760736196319" fill="#D1D1D1" stroke="#D1D1D1" stroke-width="0" opacity="0.9" />
<rect x="240.06134969325154" y="235.62" height="3" width="285.2760736196319" fill="#F4EDF2" opacity="0.25" />
<line x1="525.3374233128834" y1="238.5" x2="529.9386503067484" y2="238.5" stroke="#BABABA" stroke-width="1.5" />
<rect x="529.9386503067484" y="234" height="9" width="230.06134969325154" fill="#009CA2" stroke="#009CA2" stroke-width="0" opacity="0.9" />
<rect x="529.9386503067484" y="235.62" height="3" width="230.06134969325154" fill="#F4EDF2" opacity="0.25" />
<path d="M 760 234 C 764.5 234, 764.5 243, 760 243" fill="#009CA2" opacity="0.9" />
<path d="M 10 245 C 5.5 245, 5.5 254, 10 254" fill="#009CA2" opacity="0.9" />
<rect x="10" y="245" height="9" width="230.06134969325154" fill="#009CA2" stroke="#009CA2" stroke-width="0" opacity="0.9" />
<rect x="10" y="246.62" height="3" width="230.06134969325154" fill="#F4EDF2" opacity="0.25" />
<rect x="240.06134969325154" y="245" height="9" width="289.8773006134969" fill="#D1D1D1" stroke="#D1D1D1" stroke-width="0" opacity="0.9" />
<rect x="240.06134969325154" y="246.62" height="3" width="289.8773006134969" fill="#F4EDF2" opacity="0.25" />
<rect x="529.9386503067485" y="245" height="9" width="230.06134969325154" fill="#009CA2" stroke="#009CA2" stroke-width="0" opacity="0.9" />
<rect x="529.9386503067485" y="246.62" height="3" width="230.06134969325154" fill="#F4EDF2" opacity="0.25" />
<path d="M 760 245 C 764.5 245, 764.5 254, 760 254" fill="#009CA2" opacity="0.9" />
<rect x="10" y="260" height="12" width="12" fill="#1383C6" stroke="#1383C6" stroke-width="0" opacity="0.9" />
<text x="24" y="271" font-family="monospace" font-weight="bold" font-size="14px" >GCC</text>
</svg>
