<?xml version="1.0"?>
<svg xmlns="http://www.w3.org/2000/svg" xmlns:xlink="http://www.w3.org/1999/xlink" width="770" height="320">
<rect width="100%" height="100%" fill="white"/>
<path d="M 10 14 C 5.5 14, 5.5 23, 10 23" fill="#009CA2" opacity="0.9" />
<rect x="10" y="14" height="9" width="264.0845070422535" fill="#009CA2" stroke="#009CA2" stroke-width="0" opacity="0.9" />
<rect x="10" y="15.62" height="3" width="264.0845070422535" fill="#F4EDF2" opacity="0.25" />
<rect x="274.0845070422535" y="14" height="9" width="126.76056338028168" fill="#1383C6" stroke="#1383C6" stroke-width="0" opacity="0.9" />
<rect x="274.0845070422535" y="15.62" height="3" width="126.76056338028168" fill="#F4EDF2" opacity="0.25" />
<rect x="400.8450704225352" y="14" height="9" width="5.28169014084507" fill="#BABABA" stroke="#BABABA" stroke-width="0" opacity="0.9" />
<rect x="400.8450704225352" y="15.62" height="3" width="5.28169014084507" fill="#F4EDF2" opacity="0.25" />
<rect x="406.12676056338023" y="14" height="9" width="89.78873239436619" fill="#1383C6" stroke="#1383C6" stroke-width="0" opacity="0.9" />
<rect x="406.12676056338023" y="15.62" height="3" width="89.78873239436619" fill="#F4EDF2" opacity="0.25" />
<rect x="495.91549295774644" y="14" height="9" width="264.0845070422535" fill="#009CA2" stroke="#009CA2" stroke-width="0" opacity="0.9" />
<rect x="495.91549295774644" y="15.62" height="3" width="264.0845070422535" fill="#F4EDF2" opacity="0.25" />
<path d="M 760 14 C 764.5 14, 764.5 23, 760 23" fill="#009CA2" opacity="0.9" />
<line x1="274.0845070422535" y1="14" x2="274.0845070422535" y2="23" stroke="#000000" stroke-width="1.5" />
<line x1="495.91549295774644" y1="14" x2="495.91549295774644" y2="23" stroke="#000000" stroke-width="1.5" />
<line x1="10" y1="14" x2="760" y2="14" stroke="#000000" stroke-width="1.5" />
<line x1="10" y1="23" x2="760" y2="23" stroke="#000000" stroke-width="1.5" />
<path d="M 10 14 C 5.5 14, 5.5 23, 10 23" stroke="#000000" stroke-width="1.5" fill="none" opacity="0.9" />
<path d="M 760 14 C 764.5 14, 764.5 23, 760 23" stroke="#000000" stroke-width="1.5" fill="none" opacity="0.9" />
<line x1="274.0845070422535" y1="11.75" x2="274.0845070422535" y2="16.25" stroke="#000000" stroke-width="1.5" />
<text x="274.0845070422535" y="9.75" font-family="monospace" font-weight="bold" text-anchor="middle" font-size="10px" >0</text>
<line x1="289.92957746478874" y1="11.75" x2="289.92957746478874" y2="16.25" stroke="#000000" stroke-width="1.5" />
<line x1="305.7746478873239" y1="11.75" x2="305.7746478873239" y2="16.25" stroke="#000000" stroke-width="1.5" />
<line x1="321.61971830985914" y1="11.75" x2="321.61971830985914" y2="16.25" stroke="#000000" stroke-width="1.5" />
<line x1="337.46478873239437" y1="11.75" x2="337.46478873239437" y2="16.25" stroke="#000000" stroke-width="1.5" />
<line x1="353.30985915492954" y1="11.75" x2="353.30985915492954" y2="16.25" stroke="#000000" stroke-width="1.5" />
<text x="353.30985915492954" y="9.75" font-family="monospace" font-weight="bold" text-anchor="middle" font-size="10px" >5</text>
<line x1="369.15492957746477" y1="11.75" x2="369.15492957746477" y2="16.25" stroke="#000000" stroke-width="1.5" />
<line x1="385" y1="11.75" x2="385" y2="16.25" stroke="#000000" stroke-width="1.5" />
<line x1="400.8450704225352" y1="11.75" x2="400.8450704225352" y2="16.25" stroke="#000000" stroke-width="1.5" />
<line x1="416.6901408450704" y1="11.75" x2="416.6901408450704" y2="16.25" stroke="#000000" stroke-width="1.5" />
<line x1="432.53521126760563" y1="11.75" x2="432.53521126760563" y2="16.25" stroke="#000000" stroke-width="1.5" />
<text x="432.53521126760563" y="9.75" font-family="monospace" font-weight="bold" text-anchor="middle" font-size="10px" >10</text>
<line x1="448.3802816901408" y1="11.75" x2="448.3802816901408" y2="16.25" stroke="#000000" stroke-width="1.5" />
<line x1="464.22535211267603" y1="11.75" x2="464.22535211267603" y2="16.25" stroke="#000000" stroke-width="1.5" />
<line x1="480.0704225352112" y1="11.75" x2="480.0704225352112" y2="16.25" stroke="#000000" stroke-width="1.5" />
<path d="M 10 26 C 5.5 26, 5.5 35, 10 35" fill="#009CA2" opacity="0.9" />
<rect x="10" y="26" height="9" width="264.0845070422535" fill="#009CA2" stroke="#009CA2" stroke-width="0" opacity="0.9" />
<rect x="10" y="27.62" height="3" width="264.0845070422535" fill="#F4EDF2" opacity="0.25" />
<rect x="274.0845070422535" y="26" height="9" width="221.83098591549293" fill="#1383C6" stroke="#1383C6" stroke-width="0" opacity="0.9" />
<rect x="274.0845070422535" y="27.62" height="3" width="221.83098591549293" fill="#F4EDF2" opacity="0.25" />
<rect x="495.91549295774644" y="26" height="9" width="264.0845070422535" fill="#009CA2" stroke="#009CA2" stroke-width="0" opacity="0.9" />
<rect x="495.91549295774644" y="27.62" height="3" width="264.0845070422535" fill="#F4EDF2" opacity="0.25" />
<path d="M 760 26 C 764.5 26, 764.5 35, 760 35" fill="#009CA2" opacity="0.9" />
<path d="M 10 37 C 5.5 37, 5.5 46, 10 46" fill="#009CA2" opacity="0.9" />
<rect x="10" y="37" height="9" width="264.0845070422535" fill="#009CA2" stroke="#009CA2" stroke-width="0" opacity="0.9" />
<rect x="10" y="38.62" height="3" width="264.0845070422535" fill="#F4EDF2" opacity="0.25" />
<rect x="274.0845070422535" y="37" height="9" width="221.83098591549293" fill="#1383C6" stroke="#1383C6" stroke-width="0" opacity="0.9" />
<rect x="274.0845070422535" y="38.62" height="3" width="221.83098591549293" fill="#F4EDF2" opacity="0.25" />
<rect x="495.91549295774644" y="37" height="9" width="264.0845070422535" fill="#009CA2" stroke="#009CA2" stroke-width="0" opacity="0.9" />
<rect x="495.91549295774644" y="38.62" height="3" width="264.0845070422535" fill="#F4EDF2" opacity="0.25" />
<path d="M 760 37 C 764.5 37, 764.5 46, 760 46" fill="#009CA2" opacity="0.9" />
<path d="M 10 48 C 5.5 48, 5.5 57, 10 57" fill="#009CA2" opacity="0.9" />
<rect x="10" y="48" height="9" width="264.0845070422535" fill="#009CA2" stroke="#009CA2" stroke-width="0" opacity="0.9" />
<rect x="10" y="49.62" height="3" width="264.0845070422535" fill="#F4EDF2" opacity="0.25" />
<rect x="274.0845070422535" y="48" height="9" width="221.83098591549293" fill="#1383C6" stroke="#1383C6" stroke-width="0" opacity="0.9" />
<rect x="274.0845070422535" y="49.62" height="3" width="221.83098591549293" fill="#F4EDF2" opacity="0.25" />
<rect x="495.91549295774644" y="48" height="9" width="264.0845070422535" fill="#009CA2" stroke="#009CA2" stroke-width="0" opacity="0.9" />
<rect x="495.91549295774644" y="49.62" height="3" width="264.0845070422535" fill="#F4EDF2" opacity="0.25" />
<path d="M 760 48 C 764.5 48, 764.5 57, 760 57" fill="#009CA2" opacity="0.9" />
<path d="M 10 59 C 5.5 59, 5.5 68, 10 68" fill="#009CA2" opacity="0.9" />
<rect x="10" y="59" height="9" width="264.0845070422535" fill="#009CA2" stroke="#009CA2" stroke-width="0" opacity="0.9" />
<rect x="10" y="60.62" height="3" width="264.0845070422535" fill="#F4EDF2" opacity="0.25" />
<rect x="274.0845070422535" y="59" height="9" width="179.57746478873239" fill="#1383C6" stroke="#1383C6" stroke-width="0" opacity="0.9" />
<rect x="274.0845070422535" y="60.62" height="3" width="179.57746478873239" fill="#F4EDF2" opacity="0.25" />
<rect x="453.66197183098586" y="59" height="9" width="42.25352112676056" fill="#1383C6" stroke="#1383C6" stroke-width="0" opacity="0.9" />
<rect x="453.66197183098586" y="60.62" height="3" width="42.25352112676056" fill="#F4EDF2" opacity="0.25" />
<rect x="495.91549295774644" y="59" height="9" width="264.0845070422535" fill="#009CA2" stroke="#009CA2" stroke-width="0" opacity="0.9" />
<rect x="495.91549295774644" y="60.62" height="3" width="264.0845070422535" fill="#F4EDF2" opacity="0.25" />
<path d="M 760 59 C 764.5 59, 764.5 68, 760 68" fill="#009CA2" opacity="0.9" />
<line x1="453.66197183098586" y1="59" x2="453.66197183098586" y2="68" stroke="#000000" stroke-width="2" />
<path d="M 10 70 C 5.5 70, 5.5 79, 10 79" fill="#009CA2" opacity="0.9" />
<rect x="10" y="70" height="9" width="264.0845070422535" fill="#009CA2" stroke="#009CA2" stroke-width="0" opacity="0.9" />
<rect x="10" y="71.62" height="3" width="264.0845070422535" fill="#F4EDF2" opacity="0.25" />
<rect x="274.0845070422535" y="70" height="9" width="221.83098591549293" fill="#1383C6" stroke="#1383C6" stroke-width="0" opacity="0.9" />
<rect x="274.0845070422535" y="71.62" height="3" width="221.83098591549293" fill="#F4EDF2" opacity="0.25" />
<rect x="495.91549295774644" y="70" height="9" width="264.0845070422535" fill="#009CA2" stroke="#009CA2" stroke-width="0" opacity="0.9" />
<rect x="495.91549295774644" y="71.62" height="3" width="264.0845070422535" fill="#F4EDF2" opacity="0.25" />
<path d="M 760 70 C 764.5 70, 764.5 79, 760 79" fill="#009CA2" opacity="0.9" />
<path d="M 10 81 C 5.5 81, 5.5 90, 10 90" fill="#009CA2" opacity="0.9" />
<rect x="10" y="81" height="9" width="264.0845070422535" fill="#009CA2" stroke="#009CA2" stroke-width="0" opacity="0.9" />
<rect x="10" y="82.62" height="3" width="264.0845070422535" fill="#F4EDF2" opacity="0.25" />
<rect x="274.0845070422535" y="81" height="9" width="221.83098591549293" fill="#1383C6" stroke="#1383C6" stroke-width="0" opacity="0.9" />
<rect x="274.0845070422535" y="82.62" height="3" width="221.83098591549293" fill="#F4EDF2" opacity="0.25" />
<rect x="495.91549295774644" y="81" height="9" width="264.0845070422535" fill="#009CA2" stroke="#009CA2" stroke-width="0" opacity="0.9" />
<rect x="495.91549295774644" y="82.62" height="3" width="264.0845070422535" fill="#F4EDF2" opacity="0.25" />
<path d="M 760 81 C 764.5 81, 764.5 90, 760 90" fill="#009CA2" opacity="0.9" />
<path d="M 10 92 C 5.5 92, 5.5 101, 10 101" fill="#009CA2" opacity="0.9" />
<rect x="10" y="92" height="9" width="264.0845070422535" fill="#009CA2" stroke="#009CA2" stroke-width="0" opacity="0.9" />
<rect x="10" y="93.62" height="3" width="264.0845070422535" fill="#F4EDF2" opacity="0.25" />
<rect x="274.0845070422535" y="92" height="9" width="221.83098591549293" fill="#1383C6" stroke="#1383C6" stroke-width="0" opacity="0.9" />
<rect x="274.0845070422535" y="93.62" height="3" width="221.83098591549293" fill="#F4EDF2" opacity="0.25" />
<rect x="495.91549295774644" y="92" height="9" width="264.0845070422535" fill="#009CA2" stroke="#009CA2" stroke-width="0" opacity="0.9" />
<rect x="495.91549295774644" y="93.62" height="3" width="264.0845070422535" fill="#F4EDF2" opacity="0.25" />
<path d="M 760 92 C 764.5 92, 764.5 101, 760 101" fill="#009CA2" opacity="0.9" />
<path d="M 10 103 C 5.5 103, 5.5 112, 10 112" fill="#009CA2" opacity="0.9" />
<rect x="10" y="103" height="9" width="264.0845070422535" fill="#009CA2" stroke="#009CA2" stroke-width="0" opacity="0.9" />
<rect x="10" y="104.62" height="3" width="264.0845070422535" fill="#F4EDF2" opacity="0.25" />
<rect x="274.0845070422535" y="103" height="9" width="221.83098591549293" fill="#1383C6" stroke="#1383C6" stroke-width="0" opacity="0.9" />
<rect x="274.0845070422535" y="104.62" height="3" width="221.83098591549293" fill="#F4EDF2" opacity="0.25" />
<rect x="495.91549295774644" y="103" height="9" width="264.0845070422535" fill="#009CA2" stroke="#009CA2" stroke-width="0" opacity="0.9" />
<rect x="495.91549295774644" y="104.62" height="3" width="264.0845070422535" fill="#F4EDF2" opacity="0.25" />
<path d="M 760 103 C 764.5 103, 764.5 112, 760 112" fill="#009CA2" opacity="0.9" />
<path d="M 10 114 C 5.5 114, 5.5 123, 10 123" fill="#009CA2" opacity="0.9" />
<rect x="10" y="114" height="9" width="264.0845070422535" fill="#009CA2" stroke="#009CA2" stroke-width="0" opacity="0.9" />
<rect x="10" y="115.62" height="3" width="264.0845070422535" fill="#F4EDF2" opacity="0.25" />
<rect x="274.0845070422535" y="114" height="9" width="221.83098591549293" fill="#1383C6" stroke="#1383C6" stroke-width="0" opacity="0.9" />
<rect x="274.0845070422535" y="115.62" height="3" width="221.83098591549293" fill="#F4EDF2" opacity="0.25" />
<rect x="495.91549295774644" y="114" height="9" width="264.0845070422535" fill="#009CA2" stroke="#009CA2" stroke-width="0" opacity="0.9" />
<rect x="495.91549295774644" y="115.62" height="3" width="264.0845070422535" fill="#F4EDF2" opacity="0.25" />
<path d="M 760 114 C 764.5 114, 764.5 123, 760 123" fill="#009CA2" opacity="0.9" />
<path d="M 10 125 C 5.5 125, 5.5 134, 10 134" fill="#009CA2" opacity="0.9" />
<rect x="10" y="125" height="9" width="264.0845070422535" fill="#009CA2" stroke="#009CA2" stroke-width="0" opacity="0.9" />
<rect x="10" y="126.62" height="3" width="264.0845070422535" fill="#F4EDF2" opacity="0.25" />
<rect x="274.0845070422535" y="125" height="9" width="221.83098591549293" fill="#1383C6" stroke="#1383C6" stroke-width="0" opacity="0.9" />
<rect x="274.0845070422535" y="126.62" height="3" width="221.83098591549293" fill="#F4EDF2" opacity="0.25" />
<rect x="495.91549295774644" y="125" height="9" width="264.0845070422535" fill="#009CA2" stroke="#009CA2" stroke-width="0" opacity="0.9" />
<rect x="495.91549295774644" y="126.62" height="3" width="264.0845070422535" fill="#F4EDF2" opacity="0.25" />
<path d="M 760 125 C 764.5 125, 764.5 134, 760 134" fill="#009CA2" opacity="0.9" />
<path d="M 10 136 C 5.5 136, 5.5 145, 10 145" fill="#009CA2" opacity="0.9" />
<rect x="10" y="136" height="9" width="264.0845070422535" fill="#009CA2" stroke="#009CA2" stroke-width="0" opacity="0.9" />
<rect x="10" y="137.62" height="3" width="264.0845070422535" fill="#F4EDF2" opacity="0.25" />
<rect x="274.0845070422535" y="136" height="9" width="221.83098591549293" fill="#1383C6" stroke="#1383C6" stroke-width="0" opacity="0.9" />
<rect x="274.0845070422535" y="137.62" height="3" width="221.83098591549293" fill="#F4EDF2" opacity="0.25" />
<rect x="495.91549295774644" y="136" height="9" width="264.0845070422535" fill="#009CA2" stroke="#009CA2" stroke-width="0" opacity="0.9" />
<rect x="495.91549295774644" y="137.62" height="3" width="264.0845070422535" fill="#F4EDF2" opacity="0.25" />
<path d="M 760 136 C 764.5 136, 764.5 145, 760 145" fill="#009CA2" opacity="0.9" />
<path d="M 10 147 C 5.5 147, 5.5 156, 10 156" fill="#009CA2" opacity="0.9" />
<rect x="10" y="147" height="9" width="264.0845070422535" fill="#009CA2" stroke="#009CA2" stroke-width="0" opacity="0.9" />
<rect x="10" y="148.62" height="3" width="264.0845070422535" fill="#F4EDF2" opacity="0.25" />
<rect x="274.0845070422535" y="147" height="9" width="221.83098591549293" fill="#1383C6" stroke="#1383C6" stroke-width="0" opacity="0.9" />
<rect x="274.0845070422535" y="148.62" height="3" width="221.83098591549293" fill="#F4EDF2" opacity="0.25" />
<rect x="495.91549295774644" y="147" height="9" width="264.0845070422535" fill="#009CA2" stroke="#009CA2" stroke-width="0" opacity="0.9" />
<rect x="495.91549295774644" y="148.62" height="3" width="264.0845070422535" fill="#F4EDF2" opacity="0.25" />
<path d="M 760 147 C 764.5 147, 764.5 156, 760 156" fill="#009CA2" opacity="0.9" />
<path d="M 10 158 C 5.5 158, 5.5 167, 10 167" fill="#009CA2" opacity="0.9" />
<rect x="10" y="158" height="9" width="264.0845070422535" fill="#009CA2" stroke="#009CA2" stroke-width="0" opacity="0.9" />
<rect x="10" y="159.62" height="3" width="264.0845070422535" fill="#F4EDF2" opacity="0.25" />
<rect x="274.0845070422535" y="158" height="9" width="221.83098591549293" fill="#1383C6" stroke="#1383C6" stroke-width="0" opacity="0.9" />
<rect x="274.0845070422535" y="159.62" height="3" width="221.83098591549293" fill="#F4EDF2" opacity="0.25" />
<rect x="495.91549295774644" y="158" height="9" width="264.0845070422535" fill="#009CA2" stroke="#009CA2" stroke-width="0" opacity="0.9" />
<rect x="495.91549295774644" y="159.62" height="3" width="264.0845070422535" fill="#F4EDF2" opacity="0.25" />
<path d="M 760 158 C 764.5 158, 764.5 167, 760 167" fill="#009CA2" opacity="0.9" />
<path d="M 10 189 C 5.5 189, 5.5 198, 10 198" fill="#009CA2" opacity="0.9" />
<rect x="10" y="189" height="9" width="264.0845070422535" fill="#009CA2" stroke="#009CA2" stroke-width="0" opacity="0.9" />
<rect x="10" y="190.62" height="3" width="264.0845070422535" fill="#F4EDF2" opacity="0.25" />
<rect x="274.0845070422535" y="189" height="9" width="79.22535211267605" fill="#1383C6" stroke="#1383C6" stroke-width="0" opacity="0.9" />
<rect x="274.0845070422535" y="190.62" height="3" width="79.22535211267605" fill="#F4EDF2" opacity="0.25" />
<rect x="353.30985915492954" y="189" height="9" width="5.28169014084507" fill="#BABABA" stroke="#BABABA" stroke-width="0" opacity="0.9" />
<rect x="353.30985915492954" y="190.62" height="3" width="5.28169014084507" fill="#F4EDF2" opacity="0.25" />
<rect x="358.5915492957746" y="189" height="9" width="89.78873239436619" fill="#1383C6" stroke="#1383C6" stroke-width="0" opacity="0.9" />
<rect x="358.5915492957746" y="190.62" height="3" width="89.78873239436619" fill="#F4EDF2" opacity="0.25" />
<rect x="448.3802816901408" y="189" height="9" width="264.0845070422535" fill="#009CA2" stroke="#009CA2" stroke-width="0" opacity="0.9" />
<rect x="448.3802816901408" y="190.62" height="3" width="264.0845070422535" fill="#F4EDF2" opacity="0.25" />
<path d="M 712.4647887323943 189 C 716.9647887323943 189, 716.9647887323943 198, 712.4647887323943 198" fill="#009CA2" opacity="0.9" />
<line x1="274.0845070422535" y1="189" x2="274.0845070422535" y2="198" stroke="#000000" stroke-width="1.5" />
<line x1="448.3802816901408" y1="189" x2="448.3802816901408" y2="198" stroke="#000000" stroke-width="1.5" />
<line x1="10" y1="189" x2="712.4647887323944" y2="189" stroke="#000000" stroke-width="1.5" />
<line x1="10" y1="198" x2="712.4647887323944" y2="198" stroke="#000000" stroke-width="1.5" />
<path d="M 10 189 C 5.5 189, 5.5 198, 10 198" stroke="#000000" stroke-width="1.5" fill="none" opacity="0.9" />
<path d="M 712.4647887323944 189 C 716.9647887323944 189, 716.9647887323944 198, 712.4647887323944 198" stroke="#000000" stroke-width="1.5" fill="none" opacity="0.9" />
<line x1="274.0845070422535" y1="186.75" x2="274.0845070422535" y2="191.25" stroke="#000000" stroke-width="1.5" />
<text x="274.0845070422535" y="184.75" font-family="monospace" font-weight="bold" text-anchor="middle" font-size="10px" >0</text>
<line x1="289.92957746478874" y1="186.75" x2="289.92957746478874" y2="191.25" stroke="#000000" stroke-width="1.5" />
<line x1="305.7746478873239" y1="186.75" x2="305.7746478873239" y2="191.25" stroke="#000000" stroke-width="1.5" />
<line x1="321.61971830985914" y1="186.75" x2="321.61971830985914" y2="191.25" stroke="#000000" stroke-width="1.5" />
<line x1="337.46478873239437" y1="186.75" x2="337.46478873239437" y2="191.25" stroke="#000000" stroke-width="1.5" />
<line x1="353.30985915492954" y1="186.75" x2="353.30985915492954" y2="191.25" stroke="#000000" stroke-width="1.5" />
<text x="353.30985915492954" y="184.75" font-family="monospace" font-weight="bold" text-anchor="middle" font-size="10px" >5</text>
<line x1="369.15492957746477" y1="186.75" x2="369.15492957746477" y2="191.25" stroke="#000000" stroke-width="1.5" />
<line x1="385" y1="186.75" x2="385" y2="191.25" stroke="#000000" stroke-width="1.5" />
<line x1="400.8450704225352" y1="186.75" x2="400.8450704225352" y2="191.25" stroke="#000000" stroke-width="1.5" />
<line x1="416.6901408450704" y1="186.75" x2="416.6901408450704" y2="191.25" stroke="#000000" stroke-width="1.5" />
<line x1="432.53521126760563" y1="186.75" x2="432.53521126760563" y2="191.25" stroke="#000000" stroke-width="1.5" />
<text x="432.53521126760563" y="184.75" font-family="monospace" font-weight="bold" text-anchor="middle" font-size="10px" >10</text>
<path d="M 10 201 C 5.5 201, 5.5 210, 10 210" fill="#009CA2" opacity="0.9" />
<rect x="10" y="201" height="9" width="264.0845070422535" fill="#009CA2" stroke="#009CA2" stroke-width="0" opacity="0.9" />
<rect x="10" y="202.62" height="3" width="264.0845070422535" fill="#F4EDF2" opacity="0.25" />
<rect x="274.0845070422535" y="201" height="9" width="174.2957746478873" fill="#1383C6" stroke="#1383C6" stroke-width="0" opacity="0.9" />
<rect x="274.0845070422535" y="202.62" height="3" width="174.2957746478873" fill="#F4EDF2" opacity="0.25" />
<rect x="448.3802816901408" y="201" height="9" width="264.0845070422535" fill="#009CA2" stroke="#009CA2" stroke-width="0" opacity="0.9" />
<rect x="448.3802816901408" y="202.62" height="3" width="264.0845070422535" fill="#F4EDF2" opacity="0.25" />
<path d="M 712.4647887323943 201 C 716.9647887323943 201, 716.9647887323943 210, 712.4647887323943 210" fill="#009CA2" opacity="0.9" />
<path d="M 10 212 C 5.5 212, 5.5 221, 10 221" fill="#009CA2" opacity="0.9" />
<rect x="10" y="212" height="9" width="264.0845070422535" fill="#009CA2" stroke="#009CA2" stroke-width="0" opacity="0.9" />
<rect x="10" y="213.62" height="3" width="264.0845070422535" fill="#F4EDF2" opacity="0.25" />
<rect x="274.0845070422535" y="212" height="9" width="174.2957746478873" fill="#1383C6" stroke="#1383C6" stroke-width="0" opacity="0.9" />
<rect x="274.0845070422535" y="213.62" height="3" width="174.2957746478873" fill="#F4EDF2" opacity="0.25" />
<rect x="448.3802816901408" y="212" height="9" width="36.97183098591549" fill="#009CA2" stroke="#009CA2" stroke-width="0" opacity="0.9" />
<rect x="448.3802816901408" y="213.62" height="3" width="36.97183098591549" fill="#F4EDF2" opacity="0.25" />
<rect x="485.3521126760563" y="212" height="9" width="221.83098591549293" fill="#009CA2" stroke="#009CA2" stroke-width="0" opacity="0.9" />
<rect x="485.3521126760563" y="213.62" height="3" width="221.83098591549293" fill="#F4EDF2" opacity="0.25" />
<line x1="707.1830985915492" y1="216.5" x2="712.4647887323943" y2="216.5" stroke="#009CA2" stroke-width="1.5" />
<path d="M 712.4647887323943 212 C 716.9647887323943 212, 716.9647887323943 221, 712.4647887323943 221" fill="#009CA2" opacity="0.9" />
<line x1="485.3521126760563" y1="212" x2="485.3521126760563" y2="221" stroke="#000000" stroke-width="2" />
<path d="M 10 223 C 5.5 223, 5.5 232, 10 232" fill="#009CA2" opacity="0.9" />
<rect x="10" y="223" height="9" width="264.0845070422535" fill="#009CA2" stroke="#009CA2" stroke-width="0" opacity="0.9" />
<rect x="10" y="224.62" height="3" width="264.0845070422535" fill="#F4EDF2" opacity="0.25" />
<rect x="274.0845070422535" y="223" height="9" width="174.2957746478873" fill="#1383C6" stroke="#1383C6" stroke-width="0" opacity="0.9" />
<rect x="274.0845070422535" y="224.62" height="3" width="174.2957746478873" fill="#F4EDF2" opacity="0.25" />
<rect x="448.3802816901408" y="223" height="9" width="36.97183098591549" fill="#009CA2" stroke="#009CA2" stroke-width="0" opacity="0.9" />
<rect x="448.3802816901408" y="224.62" height="3" width="36.97183098591549" fill="#F4EDF2" opacity="0.25" />
<rect x="485.3521126760563" y="223" height="9" width="221.83098591549293" fill="#009CA2" stroke="#009CA2" stroke-width="0" opacity="0.9" />
<rect x="485.3521126760563" y="224.62" height="3" width="221.83098591549293" fill="#F4EDF2" opacity="0.25" />
<line x1="707.1830985915492" y1="227.5" x2="712.4647887323943" y2="227.5" stroke="#009CA2" stroke-width="1.5" />
<path d="M 712.4647887323943 223 C 716.9647887323943 223, 716.9647887323943 232, 712.4647887323943 232" fill="#009CA2" opacity="0.9" />
<line x1="485.3521126760563" y1="223" x2="485.3521126760563" y2="232" stroke="#000000" stroke-width="2" />
<path d="M 10 234 C 5.5 234, 5.5 243, 10 243" fill="#009CA2" opacity="0.9" />
<rect x="10" y="234" height="9" width="264.0845070422535" fill="#009CA2" stroke="#009CA2" stroke-width="0" opacity="0.9" />
<rect x="10" y="235.62" height="3" width="264.0845070422535" fill="#F4EDF2" opacity="0.25" />
<rect x="274.0845070422535" y="234" height="9" width="174.2957746478873" fill="#1383C6" stroke="#1383C6" stroke-width="0" opacity="0.9" />
<rect x="274.0845070422535" y="235.62" height="3" width="174.2957746478873" fill="#F4EDF2" opacity="0.25" />
<rect x="448.3802816901408" y="234" height="9" width="36.97183098591549" fill="#009CA2" stroke="#009CA2" stroke-width="0" opacity="0.9" />
<rect x="448.3802816901408" y="235.62" height="3" width="36.97183098591549" fill="#F4EDF2" opacity="0.25" />
<rect x="485.3521126760563" y="234" height="9" width="89.78873239436619" fill="#009CA2" stroke="#009CA2" stroke-width="0" opacity="0.9" />
<rect x="485.3521126760563" y="235.62" height="3" width="89.78873239436619" fill="#F4EDF2" opacity="0.25" />
<rect x="575.1408450704225" y="234" height="9" width="126.76056338028168" fill="#009CA2" stroke="#009CA2" stroke-width="0" opacity="0.9" />
<rect x="575.1408450704225" y="235.62" height="3" width="126.76056338028168" fill="#F4EDF2" opacity="0.25" />
<line x1="701.9014084507043" y1="238.5" x2="712.4647887323944" y2="238.5" stroke="#009CA2" stroke-width="1.5" />
<path d="M 712.4647887323944 234 C 716.9647887323944 234, 716.9647887323944 243, 712.4647887323944 243" fill="#009CA2" opacity="0.9" />
<line x1="485.3521126760563" y1="234" x2="485.3521126760563" y2="243" stroke="#000000" stroke-width="2" />
<line x1="575.1408450704225" y1="234" x2="575.1408450704225" y2="243" stroke="#000000" stroke-width="2" />
<path d="M 10 245 C 5.5 245, 5.5 254, 10 254" fill="#009CA2" opacity="0.9" />
<rect x="10" y="245" height="9" width="264.0845070422535" fill="#009CA2" stroke="#009CA2" stroke-width="0" opacity="0.9" />
<rect x="10" y="246.62" height="3" width="264.0845070422535" fill="#F4EDF2" opacity="0.25" />
<rect x="274.0845070422535" y="245" height="9" width="174.2957746478873" fill="#1383C6" stroke="#1383C6" stroke-width="0" opacity="0.9" />
<rect x="274.0845070422535" y="246.62" height="3" width="174.2957746478873" fill="#F4EDF2" opacity="0.25" />
<rect x="448.3802816901408" y="245" height="9" width="264.0845070422535" fill="#009CA2" stroke="#009CA2" stroke-width="0" opacity="0.9" />
<rect x="448.3802816901408" y="246.62" height="3" width="264.0845070422535" fill="#F4EDF2" opacity="0.25" />
<path d="M 712.4647887323943 245 C 716.9647887323943 245, 716.9647887323943 254, 712.4647887323943 254" fill="#009CA2" opacity="0.9" />
<path d="M 10 256 C 5.5 256, 5.5 265, 10 265" fill="#009CA2" opacity="0.9" />
<rect x="10" y="256" height="9" width="264.0845070422535" fill="#009CA2" stroke="#009CA2" stroke-width="0" opacity="0.9" />
<rect x="10" y="257.62" height="3" width="264.0845070422535" fill="#F4EDF2" opacity="0.25" />
<rect x="274.0845070422535" y="256" height="9" width="174.2957746478873" fill="#1383C6" stroke="#1383C6" stroke-width="0" opacity="0.9" />
<rect x="274.0845070422535" y="257.62" height="3" width="174.2957746478873" fill="#F4EDF2" opacity="0.25" />
<rect x="448.3802816901408" y="256" height="9" width="264.0845070422535" fill="#009CA2" stroke="#009CA2" stroke-width="0" opacity="0.9" />
<rect x="448.3802816901408" y="257.62" height="3" width="264.0845070422535" fill="#F4EDF2" opacity="0.25" />
<path d="M 712.4647887323943 256 C 716.9647887323943 256, 716.9647887323943 265, 712.4647887323943 265" fill="#009CA2" opacity="0.9" />
<path d="M 10 267 C 5.5 267, 5.5 276, 10 276" fill="#009CA2" opacity="0.9" />
<rect x="10" y="267" height="9" width="264.0845070422535" fill="#009CA2" stroke="#009CA2" stroke-width="0" opacity="0.9" />
<rect x="10" y="268.62" height="3" width="264.0845070422535" fill="#F4EDF2" opacity="0.25" />
<rect x="274.0845070422535" y="267" height="9" width="100.35211267605634" fill="#1383C6" stroke="#1383C6" stroke-width="0" opacity="0.9" />
<rect x="274.0845070422535" y="268.62" height="3" width="100.35211267605634" fill="#F4EDF2" opacity="0.25" />
<rect x="374.4366197183098" y="267" height="9" width="73.94366197183098" fill="#1383C6" stroke="#1383C6" stroke-width="0" opacity="0.9" />
<rect x="374.4366197183098" y="268.62" height="3" width="73.94366197183098" fill="#F4EDF2" opacity="0.25" />
<rect x="448.3802816901408" y="267" height="9" width="264.0845070422535" fill="#009CA2" stroke="#009CA2" stroke-width="0" opacity="0.9" />
<rect x="448.3802816901408" y="268.62" height="3" width="264.0845070422535" fill="#F4EDF2" opacity="0.25" />
<path d="M 712.4647887323943 267 C 716.9647887323943 267, 716.9647887323943 276, 712.4647887323943 276" fill="#009CA2" opacity="0.9" />
<line x1="374.4366197183098" y1="267" x2="374.4366197183098" y2="276" stroke="#000000" stroke-width="2" />
<path d="M 10 278 C 5.5 278, 5.5 287, 10 287" fill="#009CA2" opacity="0.9" />
<rect x="10" y="278" height="9" width="264.0845070422535" fill="#009CA2" stroke="#009CA2" stroke-width="0" opacity="0.9" />
<rect x="10" y="279.62" height="3" width="264.0845070422535" fill="#F4EDF2" opacity="0.25" />
<rect x="274.0845070422535" y="278" height="9" width="174.2957746478873" fill="#1383C6" stroke="#1383C6" stroke-width="0" opacity="0.9" />
<rect x="274.0845070422535" y="279.62" height="3" width="174.2957746478873" fill="#F4EDF2" opacity="0.25" />
<rect x="448.3802816901408" y="278" height="9" width="264.0845070422535" fill="#009CA2" stroke="#009CA2" stroke-width="0" opacity="0.9" />
<rect x="448.3802816901408" y="279.62" height="3" width="264.0845070422535" fill="#F4EDF2" opacity="0.25" />
<path d="M 712.4647887323943 278 C 716.9647887323943 278, 716.9647887323943 287, 712.4647887323943 287" fill="#009CA2" opacity="0.9" />
<path d="M 10 289 C 5.5 289, 5.5 298, 10 298" fill="#009CA2" opacity="0.9" />
<rect x="10" y="289" height="9" width="264.0845070422535" fill="#009CA2" stroke="#009CA2" stroke-width="0" opacity="0.9" />
<rect x="10" y="290.62" height="3" width="264.0845070422535" fill="#F4EDF2" opacity="0.25" />
<rect x="274.0845070422535" y="289" height="9" width="174.2957746478873" fill="#1383C6" stroke="#1383C6" stroke-width="0" opacity="0.9" />
<rect x="274.0845070422535" y="290.62" height="3" width="174.2957746478873" fill="#F4EDF2" opacity="0.25" />
<rect x="448.3802816901408" y="289" height="9" width="264.0845070422535" fill="#009CA2" stroke="#009CA2" stroke-width="0" opacity="0.9" />
<rect x="448.3802816901408" y="290.62" height="3" width="264.0845070422535" fill="#F4EDF2" opacity="0.25" />
<path d="M 712.4647887323943 289 C 716.9647887323943 289, 716.9647887323943 298, 712.4647887323943 298" fill="#009CA2" opacity="0.9" />
<rect x="10" y="304" height="12" width="12" fill="#1383C6" stroke="#1383C6" stroke-width="0" opacity="0.9" />
<text x="24" y="315" font-family="monospace" font-weight="bold" font-size="14px" >GCC</text>
</svg>
