<?xml version="1.0"?>
<svg xmlns="http://www.w3.org/2000/svg" xmlns:xlink="http://www.w3.org/1999/xlink" width="770.0000000000001" height="277">
<rect width="100%" height="100%" fill="white"/>
<path d="M 10 14 C 5.5 14, 5.5 23, 10 23" fill="#009CA2" opacity="0.9" />
<rect x="10" y="14" height="9" width="262.23776223776224" fill="#009CA2" stroke="#009CA2" stroke-width="0" opacity="0.9" />
<rect x="10" y="15.62" height="3" width="262.23776223776224" fill="#F4EDF2" opacity="0.25" />
<rect x="272.23776223776224" y="14" height="9" width="78.67132867132868" fill="#1383C6" stroke="#1383C6" stroke-width="0" opacity="0.9" />
<rect x="272.23776223776224" y="15.62" height="3" width="78.67132867132868" fill="#F4EDF2" opacity="0.25" />
<rect x="350.90909090909093" y="14" height="9" width="15.734265734265735" fill="#D1D1D1" stroke="#D1D1D1" stroke-width="0" opacity="0.9" />
<rect x="350.90909090909093" y="15.62" height="3" width="15.734265734265735" fill="#F4EDF2" opacity="0.25" />
<rect x="366.6433566433567" y="14" height="9" width="78.67132867132868" fill="#1383C6" stroke="#1383C6" stroke-width="0" opacity="0.9" />
<rect x="366.6433566433567" y="15.62" height="3" width="78.67132867132868" fill="#F4EDF2" opacity="0.25" />
<line x1="445.3146853146854" y1="18.5" x2="497.7622377622379" y2="18.5" stroke="#BABABA" stroke-width="1.5" />
<rect x="497.7622377622379" y="14" height="9" width="262.23776223776224" fill="#009CA2" stroke="#009CA2" stroke-width="0" opacity="0.9" />
<rect x="497.7622377622379" y="15.62" height="3" width="262.23776223776224" fill="#F4EDF2" opacity="0.25" />
<path d="M 760.0000000000001 14 C 764.5000000000001 14, 764.5000000000001 23, 760.0000000000001 23" fill="#009CA2" opacity="0.9" />
<path d="M 10 25 C 5.5 25, 5.5 34, 10 34" fill="#009CA2" opacity="0.9" />
<rect x="10" y="25" height="9" width="262.23776223776224" fill="#009CA2" stroke="#009CA2" stroke-width="0" opacity="0.9" />
<rect x="10" y="26.62" height="3" width="262.23776223776224" fill="#F4EDF2" opacity="0.25" />
<rect x="272.23776223776224" y="25" height="9" width="78.67132867132868" fill="#1383C6" stroke="#1383C6" stroke-width="0" opacity="0.9" />
<rect x="272.23776223776224" y="26.62" height="3" width="78.67132867132868" fill="#F4EDF2" opacity="0.25" />
<rect x="350.90909090909093" y="25" height="9" width="15.734265734265735" fill="#D1D1D1" stroke="#D1D1D1" stroke-width="0" opacity="0.9" />
<rect x="350.90909090909093" y="26.62" height="3" width="15.734265734265735" fill="#F4EDF2" opacity="0.25" />
<rect x="366.6433566433567" y="25" height="9" width="78.67132867132868" fill="#1383C6" stroke="#1383C6" stroke-width="0" opacity="0.9" />
<rect x="366.6433566433567" y="26.62" height="3" width="78.67132867132868" fill="#F4EDF2" opacity="0.25" />
<line x1="445.3146853146854" y1="29.5" x2="497.7622377622379" y2="29.5" stroke="#BABABA" stroke-width="1.5" />
<rect x="497.7622377622379" y="25" height="9" width="36.71328671328671" fill="#009CA2" stroke="#009CA2" stroke-width="0" opacity="0.9" />
<rect x="497.7622377622379" y="26.62" height="3" width="36.71328671328671" fill="#F4EDF2" opacity="0.25" />
<rect x="534.4755244755246" y="25" height="9" width="220.2797202797203" fill="#009CA2" stroke="#009CA2" stroke-width="0" opacity="0.9" />
<rect x="534.4755244755246" y="26.62" height="3" width="220.2797202797203" fill="#F4EDF2" opacity="0.25" />
<line x1="754.7552447552449" y1="29.5" x2="760.0000000000001" y2="29.5" stroke="#009CA2" stroke-width="1.5" />
<path d="M 760.0000000000001 25 C 764.5000000000001 25, 764.5000000000001 34, 760.0000000000001 34" fill="#009CA2" opacity="0.9" />
<line x1="534.4755244755246" y1="25" x2="534.4755244755246" y2="34" stroke="#000000" stroke-width="2" />
<path d="M 10 36 C 5.5 36, 5.5 45, 10 45" fill="#009CA2" opacity="0.9" />
<rect x="10" y="36" height="9" width="262.23776223776224" fill="#009CA2" stroke="#009CA2" stroke-width="0" opacity="0.9" />
<rect x="10" y="37.62" height="3" width="262.23776223776224" fill="#F4EDF2" opacity="0.25" />
<rect x="272.23776223776224" y="36" height="9" width="78.67132867132868" fill="#1383C6" stroke="#1383C6" stroke-width="0" opacity="0.9" />
<rect x="272.23776223776224" y="37.62" height="3" width="78.67132867132868" fill="#F4EDF2" opacity="0.25" />
<rect x="350.90909090909093" y="36" height="9" width="15.734265734265735" fill="#D1D1D1" stroke="#D1D1D1" stroke-width="0" opacity="0.9" />
<rect x="350.90909090909093" y="37.62" height="3" width="15.734265734265735" fill="#F4EDF2" opacity="0.25" />
<rect x="366.6433566433567" y="36" height="9" width="78.67132867132868" fill="#1383C6" stroke="#1383C6" stroke-width="0" opacity="0.9" />
<rect x="366.6433566433567" y="37.62" height="3" width="78.67132867132868" fill="#F4EDF2" opacity="0.25" />
<line x1="445.3146853146854" y1="40.5" x2="497.7622377622379" y2="40.5" stroke="#BABABA" stroke-width="1.5" />
<rect x="497.7622377622379" y="36" height="9" width="36.71328671328671" fill="#009CA2" stroke="#009CA2" stroke-width="0" opacity="0.9" />
<rect x="497.7622377622379" y="37.62" height="3" width="36.71328671328671" fill="#F4EDF2" opacity="0.25" />
<rect x="534.4755244755246" y="36" height="9" width="220.2797202797203" fill="#009CA2" stroke="#009CA2" stroke-width="0" opacity="0.9" />
<rect x="534.4755244755246" y="37.62" height="3" width="220.2797202797203" fill="#F4EDF2" opacity="0.25" />
<line x1="754.7552447552449" y1="40.5" x2="760.0000000000001" y2="40.5" stroke="#009CA2" stroke-width="1.5" />
<path d="M 760.0000000000001 36 C 764.5000000000001 36, 764.5000000000001 45, 760.0000000000001 45" fill="#009CA2" opacity="0.9" />
<line x1="534.4755244755246" y1="36" x2="534.4755244755246" y2="45" stroke="#000000" stroke-width="2" />
<path d="M 10 47 C 5.5 47, 5.5 56, 10 56" fill="#009CA2" opacity="0.9" />
<rect x="10" y="47" height="9" width="262.23776223776224" fill="#009CA2" stroke="#009CA2" stroke-width="0" opacity="0.9" />
<rect x="10" y="48.62" height="3" width="262.23776223776224" fill="#F4EDF2" opacity="0.25" />
<rect x="272.23776223776224" y="47" height="9" width="78.67132867132868" fill="#1383C6" stroke="#1383C6" stroke-width="0" opacity="0.9" />
<rect x="272.23776223776224" y="48.62" height="3" width="78.67132867132868" fill="#F4EDF2" opacity="0.25" />
<rect x="350.90909090909093" y="47" height="9" width="15.734265734265735" fill="#D1D1D1" stroke="#D1D1D1" stroke-width="0" opacity="0.9" />
<rect x="350.90909090909093" y="48.62" height="3" width="15.734265734265735" fill="#F4EDF2" opacity="0.25" />
<rect x="366.6433566433567" y="47" height="9" width="78.67132867132868" fill="#1383C6" stroke="#1383C6" stroke-width="0" opacity="0.9" />
<rect x="366.6433566433567" y="48.62" height="3" width="78.67132867132868" fill="#F4EDF2" opacity="0.25" />
<line x1="445.3146853146854" y1="51.5" x2="497.7622377622379" y2="51.5" stroke="#BABABA" stroke-width="1.5" />
<rect x="497.7622377622379" y="47" height="9" width="36.71328671328671" fill="#009CA2" stroke="#009CA2" stroke-width="0" opacity="0.9" />
<rect x="497.7622377622379" y="48.62" height="3" width="36.71328671328671" fill="#F4EDF2" opacity="0.25" />
<rect x="534.4755244755246" y="47" height="9" width="89.16083916083916" fill="#009CA2" stroke="#009CA2" stroke-width="0" opacity="0.9" />
<rect x="534.4755244755246" y="48.62" height="3" width="89.16083916083916" fill="#F4EDF2" opacity="0.25" />
<rect x="623.6363636363637" y="47" height="9" width="125.87412587412588" fill="#009CA2" stroke="#009CA2" stroke-width="0" opacity="0.9" />
<rect x="623.6363636363637" y="48.62" height="3" width="125.87412587412588" fill="#F4EDF2" opacity="0.25" />
<line x1="749.5104895104896" y1="51.5" x2="760.0000000000001" y2="51.5" stroke="#009CA2" stroke-width="1.5" />
<path d="M 760.0000000000001 47 C 764.5000000000001 47, 764.5000000000001 56, 760.0000000000001 56" fill="#009CA2" opacity="0.9" />
<line x1="534.4755244755246" y1="47" x2="534.4755244755246" y2="56" stroke="#000000" stroke-width="2" />
<line x1="623.6363636363637" y1="47" x2="623.6363636363637" y2="56" stroke="#000000" stroke-width="2" />
<path d="M 10 58 C 5.5 58, 5.5 67, 10 67" fill="#009CA2" opacity="0.9" />
<rect x="10" y="58" height="9" width="262.23776223776224" fill="#009CA2" stroke="#009CA2" stroke-width="0" opacity="0.9" />
<rect x="10" y="59.62" height="3" width="262.23776223776224" fill="#F4EDF2" opacity="0.25" />
<rect x="272.23776223776224" y="58" height="9" width="78.67132867132868" fill="#1383C6" stroke="#1383C6" stroke-width="0" opacity="0.9" />
<rect x="272.23776223776224" y="59.62" height="3" width="78.67132867132868" fill="#F4EDF2" opacity="0.25" />
<rect x="350.90909090909093" y="58" height="9" width="15.734265734265735" fill="#D1D1D1" stroke="#D1D1D1" stroke-width="0" opacity="0.9" />
<rect x="350.90909090909093" y="59.62" height="3" width="15.734265734265735" fill="#F4EDF2" opacity="0.25" />
<rect x="366.6433566433567" y="58" height="9" width="78.67132867132868" fill="#1383C6" stroke="#1383C6" stroke-width="0" opacity="0.9" />
<rect x="366.6433566433567" y="59.62" height="3" width="78.67132867132868" fill="#F4EDF2" opacity="0.25" />
<line x1="445.3146853146854" y1="62.5" x2="497.7622377622379" y2="62.5" stroke="#BABABA" stroke-width="1.5" />
<rect x="497.7622377622379" y="58" height="9" width="262.23776223776224" fill="#009CA2" stroke="#009CA2" stroke-width="0" opacity="0.9" />
<rect x="497.7622377622379" y="59.62" height="3" width="262.23776223776224" fill="#F4EDF2" opacity="0.25" />
<path d="M 760.0000000000001 58 C 764.5000000000001 58, 764.5000000000001 67, 760.0000000000001 67" fill="#009CA2" opacity="0.9" />
<path d="M 10 69 C 5.5 69, 5.5 78, 10 78" fill="#009CA2" opacity="0.9" />
<rect x="10" y="69" height="9" width="262.23776223776224" fill="#009CA2" stroke="#009CA2" stroke-width="0" opacity="0.9" />
<rect x="10" y="70.62" height="3" width="262.23776223776224" fill="#F4EDF2" opacity="0.25" />
<rect x="272.23776223776224" y="69" height="9" width="78.67132867132868" fill="#1383C6" stroke="#1383C6" stroke-width="0" opacity="0.9" />
<rect x="272.23776223776224" y="70.62" height="3" width="78.67132867132868" fill="#F4EDF2" opacity="0.25" />
<rect x="350.90909090909093" y="69" height="9" width="15.734265734265735" fill="#D1D1D1" stroke="#D1D1D1" stroke-width="0" opacity="0.9" />
<rect x="350.90909090909093" y="70.62" height="3" width="15.734265734265735" fill="#F4EDF2" opacity="0.25" />
<rect x="366.6433566433567" y="69" height="9" width="78.67132867132868" fill="#1383C6" stroke="#1383C6" stroke-width="0" opacity="0.9" />
<rect x="366.6433566433567" y="70.62" height="3" width="78.67132867132868" fill="#F4EDF2" opacity="0.25" />
<line x1="445.3146853146854" y1="73.5" x2="497.7622377622379" y2="73.5" stroke="#BABABA" stroke-width="1.5" />
<rect x="497.7622377622379" y="69" height="9" width="262.23776223776224" fill="#009CA2" stroke="#009CA2" stroke-width="0" opacity="0.9" />
<rect x="497.7622377622379" y="70.62" height="3" width="262.23776223776224" fill="#F4EDF2" opacity="0.25" />
<path d="M 760.0000000000001 69 C 764.5000000000001 69, 764.5000000000001 78, 760.0000000000001 78" fill="#009CA2" opacity="0.9" />
<path d="M 10 80 C 5.5 80, 5.5 89, 10 89" fill="#009CA2" opacity="0.9" />
<rect x="10" y="80" height="9" width="262.23776223776224" fill="#009CA2" stroke="#009CA2" stroke-width="0" opacity="0.9" />
<rect x="10" y="81.62" height="3" width="262.23776223776224" fill="#F4EDF2" opacity="0.25" />
<rect x="272.23776223776224" y="80" height="9" width="78.67132867132868" fill="#1383C6" stroke="#1383C6" stroke-width="0" opacity="0.9" />
<rect x="272.23776223776224" y="81.62" height="3" width="78.67132867132868" fill="#F4EDF2" opacity="0.25" />
<rect x="350.90909090909093" y="80" height="9" width="15.734265734265735" fill="#D1D1D1" stroke="#D1D1D1" stroke-width="0" opacity="0.9" />
<rect x="350.90909090909093" y="81.62" height="3" width="15.734265734265735" fill="#F4EDF2" opacity="0.25" />
<rect x="366.6433566433567" y="80" height="9" width="78.67132867132868" fill="#1383C6" stroke="#1383C6" stroke-width="0" opacity="0.9" />
<rect x="366.6433566433567" y="81.62" height="3" width="78.67132867132868" fill="#F4EDF2" opacity="0.25" />
<line x1="445.3146853146854" y1="84.5" x2="497.7622377622379" y2="84.5" stroke="#BABABA" stroke-width="1.5" />
<rect x="497.7622377622379" y="80" height="9" width="262.23776223776224" fill="#009CA2" stroke="#009CA2" stroke-width="0" opacity="0.9" />
<rect x="497.7622377622379" y="81.62" height="3" width="262.23776223776224" fill="#F4EDF2" opacity="0.25" />
<path d="M 760.0000000000001 80 C 764.5000000000001 80, 764.5000000000001 89, 760.0000000000001 89" fill="#009CA2" opacity="0.9" />
<path d="M 10 91 C 5.5 91, 5.5 100, 10 100" fill="#009CA2" opacity="0.9" />
<rect x="10" y="91" height="9" width="262.23776223776224" fill="#009CA2" stroke="#009CA2" stroke-width="0" opacity="0.9" />
<rect x="10" y="92.62" height="3" width="262.23776223776224" fill="#F4EDF2" opacity="0.25" />
<rect x="272.23776223776224" y="91" height="9" width="78.67132867132868" fill="#1383C6" stroke="#1383C6" stroke-width="0" opacity="0.9" />
<rect x="272.23776223776224" y="92.62" height="3" width="78.67132867132868" fill="#F4EDF2" opacity="0.25" />
<rect x="350.90909090909093" y="91" height="9" width="15.734265734265735" fill="#D1D1D1" stroke="#D1D1D1" stroke-width="0" opacity="0.9" />
<rect x="350.90909090909093" y="92.62" height="3" width="15.734265734265735" fill="#F4EDF2" opacity="0.25" />
<rect x="366.6433566433567" y="91" height="9" width="78.67132867132868" fill="#1383C6" stroke="#1383C6" stroke-width="0" opacity="0.9" />
<rect x="366.6433566433567" y="92.62" height="3" width="78.67132867132868" fill="#F4EDF2" opacity="0.25" />
<line x1="445.3146853146854" y1="95.5" x2="497.7622377622379" y2="95.5" stroke="#BABABA" stroke-width="1.5" />
<rect x="497.7622377622379" y="91" height="9" width="262.23776223776224" fill="#009CA2" stroke="#009CA2" stroke-width="0" opacity="0.9" />
<rect x="497.7622377622379" y="92.62" height="3" width="262.23776223776224" fill="#F4EDF2" opacity="0.25" />
<path d="M 760.0000000000001 91 C 764.5000000000001 91, 764.5000000000001 100, 760.0000000000001 100" fill="#009CA2" opacity="0.9" />
<path d="M 10 102 C 5.5 102, 5.5 111, 10 111" fill="#009CA2" opacity="0.9" />
<rect x="10" y="102" height="9" width="262.23776223776224" fill="#009CA2" stroke="#009CA2" stroke-width="0" opacity="0.9" />
<rect x="10" y="103.62" height="3" width="262.23776223776224" fill="#F4EDF2" opacity="0.25" />
<rect x="272.23776223776224" y="102" height="9" width="78.67132867132868" fill="#1383C6" stroke="#1383C6" stroke-width="0" opacity="0.9" />
<rect x="272.23776223776224" y="103.62" height="3" width="78.67132867132868" fill="#F4EDF2" opacity="0.25" />
<rect x="350.90909090909093" y="102" height="9" width="15.734265734265735" fill="#D1D1D1" stroke="#D1D1D1" stroke-width="0" opacity="0.9" />
<rect x="350.90909090909093" y="103.62" height="3" width="15.734265734265735" fill="#F4EDF2" opacity="0.25" />
<rect x="366.6433566433567" y="102" height="9" width="15.734265734265735" fill="#1383C6" stroke="#1383C6" stroke-width="0" opacity="0.9" />
<rect x="366.6433566433567" y="103.62" height="3" width="15.734265734265735" fill="#F4EDF2" opacity="0.25" />
<rect x="382.37762237762246" y="102" height="9" width="5.244755244755245" fill="#D1D1D1" stroke="#D1D1D1" stroke-width="0" opacity="0.9" />
<rect x="382.37762237762246" y="103.62" height="3" width="5.244755244755245" fill="#F4EDF2" opacity="0.25" />
<rect x="387.6223776223777" y="102" height="9" width="62.93706293706294" fill="#1383C6" stroke="#1383C6" stroke-width="0" opacity="0.9" />
<rect x="387.6223776223777" y="103.62" height="3" width="62.93706293706294" fill="#F4EDF2" opacity="0.25" />
<line x1="450.55944055944065" y1="106.5" x2="497.7622377622379" y2="106.5" stroke="#BABABA" stroke-width="1.5" />
<rect x="497.7622377622379" y="102" height="9" width="262.23776223776224" fill="#009CA2" stroke="#009CA2" stroke-width="0" opacity="0.9" />
<rect x="497.7622377622379" y="103.62" height="3" width="262.23776223776224" fill="#F4EDF2" opacity="0.25" />
<path d="M 760.0000000000001 102 C 764.5000000000001 102, 764.5000000000001 111, 760.0000000000001 111" fill="#009CA2" opacity="0.9" />
<path d="M 10 113 C 5.5 113, 5.5 122, 10 122" fill="#009CA2" opacity="0.9" />
<rect x="10" y="113" height="9" width="262.23776223776224" fill="#009CA2" stroke="#009CA2" stroke-width="0" opacity="0.9" />
<rect x="10" y="114.62" height="3" width="262.23776223776224" fill="#F4EDF2" opacity="0.25" />
<rect x="272.23776223776224" y="113" height="9" width="125.87412587412588" fill="#1383C6" stroke="#1383C6" stroke-width="0" opacity="0.9" />
<rect x="272.23776223776224" y="114.62" height="3" width="125.87412587412588" fill="#F4EDF2" opacity="0.25" />
<rect x="398.1118881118881" y="113" height="9" width="15.734265734265735" fill="#D1D1D1" stroke="#D1D1D1" stroke-width="0" opacity="0.9" />
<rect x="398.1118881118881" y="114.62" height="3" width="15.734265734265735" fill="#F4EDF2" opacity="0.25" />
<rect x="413.84615384615387" y="113" height="9" width="78.67132867132868" fill="#1383C6" stroke="#1383C6" stroke-width="0" opacity="0.9" />
<rect x="413.84615384615387" y="114.62" height="3" width="78.67132867132868" fill="#F4EDF2" opacity="0.25" />
<line x1="492.51748251748256" y1="117.5" x2="497.7622377622378" y2="117.5" stroke="#BABABA" stroke-width="1.5" />
<rect x="497.7622377622378" y="113" height="9" width="262.23776223776224" fill="#009CA2" stroke="#009CA2" stroke-width="0" opacity="0.9" />
<rect x="497.7622377622378" y="114.62" height="3" width="262.23776223776224" fill="#F4EDF2" opacity="0.25" />
<path d="M 760 113 C 764.5 113, 764.5 122, 760 122" fill="#009CA2" opacity="0.9" />
<path d="M 10 124 C 5.5 124, 5.5 133, 10 133" fill="#009CA2" opacity="0.9" />
<rect x="10" y="124" height="9" width="262.23776223776224" fill="#009CA2" stroke="#009CA2" stroke-width="0" opacity="0.9" />
<rect x="10" y="125.62" height="3" width="262.23776223776224" fill="#F4EDF2" opacity="0.25" />
<rect x="272.23776223776224" y="124" height="9" width="125.87412587412588" fill="#1383C6" stroke="#1383C6" stroke-width="0" opacity="0.9" />
<rect x="272.23776223776224" y="125.62" height="3" width="125.87412587412588" fill="#F4EDF2" opacity="0.25" />
<rect x="398.1118881118881" y="124" height="9" width="15.734265734265735" fill="#D1D1D1" stroke="#D1D1D1" stroke-width="0" opacity="0.9" />
<rect x="398.1118881118881" y="125.62" height="3" width="15.734265734265735" fill="#F4EDF2" opacity="0.25" />
<rect x="413.84615384615387" y="124" height="9" width="78.67132867132868" fill="#1383C6" stroke="#1383C6" stroke-width="0" opacity="0.9" />
<rect x="413.84615384615387" y="125.62" height="3" width="78.67132867132868" fill="#F4EDF2" opacity="0.25" />
<line x1="492.51748251748256" y1="128.5" x2="497.7622377622378" y2="128.5" stroke="#BABABA" stroke-width="1.5" />
<rect x="497.7622377622378" y="124" height="9" width="262.23776223776224" fill="#009CA2" stroke="#009CA2" stroke-width="0" opacity="0.9" />
<rect x="497.7622377622378" y="125.62" height="3" width="262.23776223776224" fill="#F4EDF2" opacity="0.25" />
<path d="M 760 124 C 764.5 124, 764.5 133, 760 133" fill="#009CA2" opacity="0.9" />
<path d="M 10 135 C 5.5 135, 5.5 144, 10 144" fill="#009CA2" opacity="0.9" />
<rect x="10" y="135" height="9" width="262.23776223776224" fill="#009CA2" stroke="#009CA2" stroke-width="0" opacity="0.9" />
<rect x="10" y="136.62" height="3" width="262.23776223776224" fill="#F4EDF2" opacity="0.25" />
<rect x="272.23776223776224" y="135" height="9" width="125.87412587412588" fill="#1383C6" stroke="#1383C6" stroke-width="0" opacity="0.9" />
<rect x="272.23776223776224" y="136.62" height="3" width="125.87412587412588" fill="#F4EDF2" opacity="0.25" />
<rect x="398.1118881118881" y="135" height="9" width="15.734265734265735" fill="#D1D1D1" stroke="#D1D1D1" stroke-width="0" opacity="0.9" />
<rect x="398.1118881118881" y="136.62" height="3" width="15.734265734265735" fill="#F4EDF2" opacity="0.25" />
<rect x="413.84615384615387" y="135" height="9" width="78.67132867132868" fill="#1383C6" stroke="#1383C6" stroke-width="0" opacity="0.9" />
<rect x="413.84615384615387" y="136.62" height="3" width="78.67132867132868" fill="#F4EDF2" opacity="0.25" />
<line x1="492.51748251748256" y1="139.5" x2="497.7622377622378" y2="139.5" stroke="#BABABA" stroke-width="1.5" />
<rect x="497.7622377622378" y="135" height="9" width="262.23776223776224" fill="#009CA2" stroke="#009CA2" stroke-width="0" opacity="0.9" />
<rect x="497.7622377622378" y="136.62" height="3" width="262.23776223776224" fill="#F4EDF2" opacity="0.25" />
<path d="M 760 135 C 764.5 135, 764.5 144, 760 144" fill="#009CA2" opacity="0.9" />
<path d="M 10 146 C 5.5 146, 5.5 155, 10 155" fill="#009CA2" opacity="0.9" />
<rect x="10" y="146" height="9" width="262.23776223776224" fill="#009CA2" stroke="#009CA2" stroke-width="0" opacity="0.9" />
<rect x="10" y="147.62" height="3" width="262.23776223776224" fill="#F4EDF2" opacity="0.25" />
<rect x="272.23776223776224" y="146" height="9" width="125.87412587412588" fill="#1383C6" stroke="#1383C6" stroke-width="0" opacity="0.9" />
<rect x="272.23776223776224" y="147.62" height="3" width="125.87412587412588" fill="#F4EDF2" opacity="0.25" />
<rect x="398.1118881118881" y="146" height="9" width="15.734265734265735" fill="#D1D1D1" stroke="#D1D1D1" stroke-width="0" opacity="0.9" />
<rect x="398.1118881118881" y="147.62" height="3" width="15.734265734265735" fill="#F4EDF2" opacity="0.25" />
<rect x="413.84615384615387" y="146" height="9" width="78.67132867132868" fill="#1383C6" stroke="#1383C6" stroke-width="0" opacity="0.9" />
<rect x="413.84615384615387" y="147.62" height="3" width="78.67132867132868" fill="#F4EDF2" opacity="0.25" />
<line x1="492.51748251748256" y1="150.5" x2="497.7622377622378" y2="150.5" stroke="#BABABA" stroke-width="1.5" />
<rect x="497.7622377622378" y="146" height="9" width="262.23776223776224" fill="#009CA2" stroke="#009CA2" stroke-width="0" opacity="0.9" />
<rect x="497.7622377622378" y="147.62" height="3" width="262.23776223776224" fill="#F4EDF2" opacity="0.25" />
<path d="M 760 146 C 764.5 146, 764.5 155, 760 155" fill="#009CA2" opacity="0.9" />
<path d="M 10 157 C 5.5 157, 5.5 166, 10 166" fill="#009CA2" opacity="0.9" />
<rect x="10" y="157" height="9" width="262.23776223776224" fill="#009CA2" stroke="#009CA2" stroke-width="0" opacity="0.9" />
<rect x="10" y="158.62" height="3" width="262.23776223776224" fill="#F4EDF2" opacity="0.25" />
<rect x="272.23776223776224" y="157" height="9" width="125.87412587412588" fill="#1383C6" stroke="#1383C6" stroke-width="0" opacity="0.9" />
<rect x="272.23776223776224" y="158.62" height="3" width="125.87412587412588" fill="#F4EDF2" opacity="0.25" />
<rect x="398.1118881118881" y="157" height="9" width="15.734265734265735" fill="#D1D1D1" stroke="#D1D1D1" stroke-width="0" opacity="0.9" />
<rect x="398.1118881118881" y="158.62" height="3" width="15.734265734265735" fill="#F4EDF2" opacity="0.25" />
<rect x="413.84615384615387" y="157" height="9" width="78.67132867132868" fill="#1383C6" stroke="#1383C6" stroke-width="0" opacity="0.9" />
<rect x="413.84615384615387" y="158.62" height="3" width="78.67132867132868" fill="#F4EDF2" opacity="0.25" />
<line x1="492.51748251748256" y1="161.5" x2="497.7622377622378" y2="161.5" stroke="#BABABA" stroke-width="1.5" />
<rect x="497.7622377622378" y="157" height="9" width="262.23776223776224" fill="#009CA2" stroke="#009CA2" stroke-width="0" opacity="0.9" />
<rect x="497.7622377622378" y="158.62" height="3" width="262.23776223776224" fill="#F4EDF2" opacity="0.25" />
<path d="M 760 157 C 764.5 157, 764.5 166, 760 166" fill="#009CA2" opacity="0.9" />
<path d="M 10 168 C 5.5 168, 5.5 177, 10 177" fill="#009CA2" opacity="0.9" />
<rect x="10" y="168" height="9" width="262.23776223776224" fill="#009CA2" stroke="#009CA2" stroke-width="0" opacity="0.9" />
<rect x="10" y="169.62" height="3" width="262.23776223776224" fill="#F4EDF2" opacity="0.25" />
<rect x="272.23776223776224" y="168" height="9" width="125.87412587412588" fill="#1383C6" stroke="#1383C6" stroke-width="0" opacity="0.9" />
<rect x="272.23776223776224" y="169.62" height="3" width="125.87412587412588" fill="#F4EDF2" opacity="0.25" />
<rect x="398.1118881118881" y="168" height="9" width="15.734265734265735" fill="#D1D1D1" stroke="#D1D1D1" stroke-width="0" opacity="0.9" />
<rect x="398.1118881118881" y="169.62" height="3" width="15.734265734265735" fill="#F4EDF2" opacity="0.25" />
<rect x="413.84615384615387" y="168" height="9" width="78.67132867132868" fill="#1383C6" stroke="#1383C6" stroke-width="0" opacity="0.9" />
<rect x="413.84615384615387" y="169.62" height="3" width="78.67132867132868" fill="#F4EDF2" opacity="0.25" />
<line x1="492.51748251748256" y1="172.5" x2="497.7622377622378" y2="172.5" stroke="#BABABA" stroke-width="1.5" />
<rect x="497.7622377622378" y="168" height="9" width="262.23776223776224" fill="#009CA2" stroke="#009CA2" stroke-width="0" opacity="0.9" />
<rect x="497.7622377622378" y="169.62" height="3" width="262.23776223776224" fill="#F4EDF2" opacity="0.25" />
<path d="M 760 168 C 764.5 168, 764.5 177, 760 177" fill="#009CA2" opacity="0.9" />
<path d="M 10 179 C 5.5 179, 5.5 188, 10 188" fill="#009CA2" opacity="0.9" />
<rect x="10" y="179" height="9" width="262.23776223776224" fill="#009CA2" stroke="#009CA2" stroke-width="0" opacity="0.9" />
<rect x="10" y="180.62" height="3" width="262.23776223776224" fill="#F4EDF2" opacity="0.25" />
<rect x="272.23776223776224" y="179" height="9" width="125.87412587412588" fill="#1383C6" stroke="#1383C6" stroke-width="0" opacity="0.9" />
<rect x="272.23776223776224" y="180.62" height="3" width="125.87412587412588" fill="#F4EDF2" opacity="0.25" />
<rect x="398.1118881118881" y="179" height="9" width="15.734265734265735" fill="#D1D1D1" stroke="#D1D1D1" stroke-width="0" opacity="0.9" />
<rect x="398.1118881118881" y="180.62" height="3" width="15.734265734265735" fill="#F4EDF2" opacity="0.25" />
<rect x="413.84615384615387" y="179" height="9" width="78.67132867132868" fill="#1383C6" stroke="#1383C6" stroke-width="0" opacity="0.9" />
<rect x="413.84615384615387" y="180.62" height="3" width="78.67132867132868" fill="#F4EDF2" opacity="0.25" />
<line x1="492.51748251748256" y1="183.5" x2="497.7622377622378" y2="183.5" stroke="#BABABA" stroke-width="1.5" />
<rect x="497.7622377622378" y="179" height="9" width="262.23776223776224" fill="#009CA2" stroke="#009CA2" stroke-width="0" opacity="0.9" />
<rect x="497.7622377622378" y="180.62" height="3" width="262.23776223776224" fill="#F4EDF2" opacity="0.25" />
<path d="M 760 179 C 764.5 179, 764.5 188, 760 188" fill="#009CA2" opacity="0.9" />
<path d="M 10 190 C 5.5 190, 5.5 199, 10 199" fill="#009CA2" opacity="0.9" />
<rect x="10" y="190" height="9" width="262.23776223776224" fill="#009CA2" stroke="#009CA2" stroke-width="0" opacity="0.9" />
<rect x="10" y="191.62" height="3" width="262.23776223776224" fill="#F4EDF2" opacity="0.25" />
<rect x="272.23776223776224" y="190" height="9" width="125.87412587412588" fill="#1383C6" stroke="#1383C6" stroke-width="0" opacity="0.9" />
<rect x="272.23776223776224" y="191.62" height="3" width="125.87412587412588" fill="#F4EDF2" opacity="0.25" />
<rect x="398.1118881118881" y="190" height="9" width="15.734265734265735" fill="#D1D1D1" stroke="#D1D1D1" stroke-width="0" opacity="0.9" />
<rect x="398.1118881118881" y="191.62" height="3" width="15.734265734265735" fill="#F4EDF2" opacity="0.25" />
<rect x="413.84615384615387" y="190" height="9" width="78.67132867132868" fill="#1383C6" stroke="#1383C6" stroke-width="0" opacity="0.9" />
<rect x="413.84615384615387" y="191.62" height="3" width="78.67132867132868" fill="#F4EDF2" opacity="0.25" />
<line x1="492.51748251748256" y1="194.5" x2="497.7622377622378" y2="194.5" stroke="#BABABA" stroke-width="1.5" />
<rect x="497.7622377622378" y="190" height="9" width="262.23776223776224" fill="#009CA2" stroke="#009CA2" stroke-width="0" opacity="0.9" />
<rect x="497.7622377622378" y="191.62" height="3" width="262.23776223776224" fill="#F4EDF2" opacity="0.25" />
<path d="M 760 190 C 764.5 190, 764.5 199, 760 199" fill="#009CA2" opacity="0.9" />
<path d="M 10 201 C 5.5 201, 5.5 210, 10 210" fill="#009CA2" opacity="0.9" />
<rect x="10" y="201" height="9" width="262.23776223776224" fill="#009CA2" stroke="#009CA2" stroke-width="0" opacity="0.9" />
<rect x="10" y="202.62" height="3" width="262.23776223776224" fill="#F4EDF2" opacity="0.25" />
<rect x="272.23776223776224" y="201" height="9" width="125.87412587412588" fill="#1383C6" stroke="#1383C6" stroke-width="0" opacity="0.9" />
<rect x="272.23776223776224" y="202.62" height="3" width="125.87412587412588" fill="#F4EDF2" opacity="0.25" />
<rect x="398.1118881118881" y="201" height="9" width="15.734265734265735" fill="#D1D1D1" stroke="#D1D1D1" stroke-width="0" opacity="0.9" />
<rect x="398.1118881118881" y="202.62" height="3" width="15.734265734265735" fill="#F4EDF2" opacity="0.25" />
<rect x="413.84615384615387" y="201" height="9" width="78.67132867132868" fill="#1383C6" stroke="#1383C6" stroke-width="0" opacity="0.9" />
<rect x="413.84615384615387" y="202.62" height="3" width="78.67132867132868" fill="#F4EDF2" opacity="0.25" />
<line x1="492.51748251748256" y1="205.5" x2="497.7622377622378" y2="205.5" stroke="#BABABA" stroke-width="1.5" />
<rect x="497.7622377622378" y="201" height="9" width="262.23776223776224" fill="#009CA2" stroke="#009CA2" stroke-width="0" opacity="0.9" />
<rect x="497.7622377622378" y="202.62" height="3" width="262.23776223776224" fill="#F4EDF2" opacity="0.25" />
<path d="M 760 201 C 764.5 201, 764.5 210, 760 210" fill="#009CA2" opacity="0.9" />
<path d="M 10 212 C 5.5 212, 5.5 221, 10 221" fill="#009CA2" opacity="0.9" />
<rect x="10" y="212" height="9" width="262.23776223776224" fill="#009CA2" stroke="#009CA2" stroke-width="0" opacity="0.9" />
<rect x="10" y="213.62" height="3" width="262.23776223776224" fill="#F4EDF2" opacity="0.25" />
<rect x="272.23776223776224" y="212" height="9" width="125.87412587412588" fill="#1383C6" stroke="#1383C6" stroke-width="0" opacity="0.9" />
<rect x="272.23776223776224" y="213.62" height="3" width="125.87412587412588" fill="#F4EDF2" opacity="0.25" />
<rect x="398.1118881118881" y="212" height="9" width="15.734265734265735" fill="#D1D1D1" stroke="#D1D1D1" stroke-width="0" opacity="0.9" />
<rect x="398.1118881118881" y="213.62" height="3" width="15.734265734265735" fill="#F4EDF2" opacity="0.25" />
<rect x="413.84615384615387" y="212" height="9" width="78.67132867132868" fill="#1383C6" stroke="#1383C6" stroke-width="0" opacity="0.9" />
<rect x="413.84615384615387" y="213.62" height="3" width="78.67132867132868" fill="#F4EDF2" opacity="0.25" />
<line x1="492.51748251748256" y1="216.5" x2="497.7622377622378" y2="216.5" stroke="#BABABA" stroke-width="1.5" />
<rect x="497.7622377622378" y="212" height="9" width="262.23776223776224" fill="#009CA2" stroke="#009CA2" stroke-width="0" opacity="0.9" />
<rect x="497.7622377622378" y="213.62" height="3" width="262.23776223776224" fill="#F4EDF2" opacity="0.25" />
<path d="M 760 212 C 764.5 212, 764.5 221, 760 221" fill="#009CA2" opacity="0.9" />
<path d="M 10 223 C 5.5 223, 5.5 232, 10 232" fill="#009CA2" opacity="0.9" />
<rect x="10" y="223" height="9" width="262.23776223776224" fill="#009CA2" stroke="#009CA2" stroke-width="0" opacity="0.9" />
<rect x="10" y="224.62" height="3" width="262.23776223776224" fill="#F4EDF2" opacity="0.25" />
<rect x="272.23776223776224" y="223" height="9" width="125.87412587412588" fill="#1383C6" stroke="#1383C6" stroke-width="0" opacity="0.9" />
<rect x="272.23776223776224" y="224.62" height="3" width="125.87412587412588" fill="#F4EDF2" opacity="0.25" />
<rect x="398.1118881118881" y="223" height="9" width="15.734265734265735" fill="#D1D1D1" stroke="#D1D1D1" stroke-width="0" opacity="0.9" />
<rect x="398.1118881118881" y="224.62" height="3" width="15.734265734265735" fill="#F4EDF2" opacity="0.25" />
<rect x="413.84615384615387" y="223" height="9" width="78.67132867132868" fill="#1383C6" stroke="#1383C6" stroke-width="0" opacity="0.9" />
<rect x="413.84615384615387" y="224.62" height="3" width="78.67132867132868" fill="#F4EDF2" opacity="0.25" />
<line x1="492.51748251748256" y1="227.5" x2="497.7622377622378" y2="227.5" stroke="#BABABA" stroke-width="1.5" />
<rect x="497.7622377622378" y="223" height="9" width="262.23776223776224" fill="#009CA2" stroke="#009CA2" stroke-width="0" opacity="0.9" />
<rect x="497.7622377622378" y="224.62" height="3" width="262.23776223776224" fill="#F4EDF2" opacity="0.25" />
<path d="M 760 223 C 764.5 223, 764.5 232, 760 232" fill="#009CA2" opacity="0.9" />
<path d="M 10 234 C 5.5 234, 5.5 243, 10 243" fill="#009CA2" opacity="0.9" />
<rect x="10" y="234" height="9" width="262.23776223776224" fill="#009CA2" stroke="#009CA2" stroke-width="0" opacity="0.9" />
<rect x="10" y="235.62" height="3" width="262.23776223776224" fill="#F4EDF2" opacity="0.25" />
<rect x="272.23776223776224" y="234" height="9" width="125.87412587412588" fill="#1383C6" stroke="#1383C6" stroke-width="0" opacity="0.9" />
<rect x="272.23776223776224" y="235.62" height="3" width="125.87412587412588" fill="#F4EDF2" opacity="0.25" />
<rect x="398.1118881118881" y="234" height="9" width="15.734265734265735" fill="#D1D1D1" stroke="#D1D1D1" stroke-width="0" opacity="0.9" />
<rect x="398.1118881118881" y="235.62" height="3" width="15.734265734265735" fill="#F4EDF2" opacity="0.25" />
<rect x="413.84615384615387" y="234" height="9" width="78.67132867132868" fill="#1383C6" stroke="#1383C6" stroke-width="0" opacity="0.9" />
<rect x="413.84615384615387" y="235.62" height="3" width="78.67132867132868" fill="#F4EDF2" opacity="0.25" />
<line x1="492.51748251748256" y1="238.5" x2="497.7622377622378" y2="238.5" stroke="#BABABA" stroke-width="1.5" />
<rect x="497.7622377622378" y="234" height="9" width="262.23776223776224" fill="#009CA2" stroke="#009CA2" stroke-width="0" opacity="0.9" />
<rect x="497.7622377622378" y="235.62" height="3" width="262.23776223776224" fill="#F4EDF2" opacity="0.25" />
<path d="M 760 234 C 764.5 234, 764.5 243, 760 243" fill="#009CA2" opacity="0.9" />
<path d="M 10 245 C 5.5 245, 5.5 254, 10 254" fill="#009CA2" opacity="0.9" />
<rect x="10" y="245" height="9" width="262.23776223776224" fill="#009CA2" stroke="#009CA2" stroke-width="0" opacity="0.9" />
<rect x="10" y="246.62" height="3" width="262.23776223776224" fill="#F4EDF2" opacity="0.25" />
<rect x="272.23776223776224" y="245" height="9" width="125.87412587412588" fill="#1383C6" stroke="#1383C6" stroke-width="0" opacity="0.9" />
<rect x="272.23776223776224" y="246.62" height="3" width="125.87412587412588" fill="#F4EDF2" opacity="0.25" />
<rect x="398.1118881118881" y="245" height="9" width="15.734265734265735" fill="#D1D1D1" stroke="#D1D1D1" stroke-width="0" opacity="0.9" />
<rect x="398.1118881118881" y="246.62" height="3" width="15.734265734265735" fill="#F4EDF2" opacity="0.25" />
<rect x="413.84615384615387" y="245" height="9" width="47.20279720279721" fill="#1383C6" stroke="#1383C6" stroke-width="0" opacity="0.9" />
<rect x="413.84615384615387" y="246.62" height="3" width="47.20279720279721" fill="#F4EDF2" opacity="0.25" />
<rect x="461.0489510489511" y="245" height="9" width="5.244755244755245" fill="#D1D1D1" stroke="#D1D1D1" stroke-width="0" opacity="0.9" />
<rect x="461.0489510489511" y="246.62" height="3" width="5.244755244755245" fill="#F4EDF2" opacity="0.25" />
<rect x="466.29370629370635" y="245" height="9" width="31.46853146853147" fill="#1383C6" stroke="#1383C6" stroke-width="0" opacity="0.9" />
<rect x="466.29370629370635" y="246.62" height="3" width="31.46853146853147" fill="#F4EDF2" opacity="0.25" />
<rect x="497.7622377622378" y="245" height="9" width="262.23776223776224" fill="#009CA2" stroke="#009CA2" stroke-width="0" opacity="0.9" />
<rect x="497.7622377622378" y="246.62" height="3" width="262.23776223776224" fill="#F4EDF2" opacity="0.25" />
<path d="M 760 245 C 764.5 245, 764.5 254, 760 254" fill="#009CA2" opacity="0.9" />
<rect x="10" y="260" height="12" width="12" fill="#1383C6" stroke="#1383C6" stroke-width="0" opacity="0.9" />
<text x="24" y="271" font-family="monospace" font-weight="bold" font-size="14px" >GCC</text>
</svg>
