<?xml version="1.0"?>
<svg xmlns="http://www.w3.org/2000/svg" xmlns:xlink="http://www.w3.org/1999/xlink" width="770" height="398">
<rect width="100%" height="100%" fill="white"/>
<path d="M 10 14 C 5.5 14, 5.5 23, 10 23" fill="#009CA2" opacity="0.9" />
<rect x="10" y="14" height="9" width="75.41899441340782" fill="#009CA2" stroke="#009CA2" stroke-width="0" opacity="0.9" />
<rect x="10" y="15.62" height="3" width="75.41899441340782" fill="#F4EDF2" opacity="0.25" />
<rect x="85.41899441340782" y="14" height="9" width="4.189944134078212" fill="#BABABA" stroke="#BABABA" stroke-width="0" opacity="0.9" />
<rect x="85.41899441340782" y="15.62" height="3" width="4.189944134078212" fill="#F4EDF2" opacity="0.25" />
<rect x="89.60893854748603" y="14" height="9" width="8.379888268156424" fill="#009CA2" stroke="#009CA2" stroke-width="0" opacity="0.9" />
<rect x="89.60893854748603" y="15.62" height="3" width="8.379888268156424" fill="#F4EDF2" opacity="0.25" />
<rect x="97.98882681564245" y="14" height="9" width="8.379888268156424" fill="#BABABA" stroke="#BABABA" stroke-width="0" opacity="0.9" />
<rect x="97.98882681564245" y="15.62" height="3" width="8.379888268156424" fill="#F4EDF2" opacity="0.25" />
<rect x="106.36871508379888" y="14" height="9" width="16.75977653631285" fill="#009CA2" stroke="#009CA2" stroke-width="0" opacity="0.9" />
<rect x="106.36871508379888" y="15.62" height="3" width="16.75977653631285" fill="#F4EDF2" opacity="0.25" />
<rect x="123.12849162011173" y="14" height="9" width="4.189944134078212" fill="#BABABA" stroke="#BABABA" stroke-width="0" opacity="0.9" />
<rect x="123.12849162011173" y="15.62" height="3" width="4.189944134078212" fill="#F4EDF2" opacity="0.25" />
<rect x="127.31843575418995" y="14" height="9" width="4.189944134078212" fill="#009CA2" stroke="#009CA2" stroke-width="0" opacity="0.9" />
<rect x="127.31843575418995" y="15.62" height="3" width="4.189944134078212" fill="#F4EDF2" opacity="0.25" />
<rect x="131.50837988826817" y="14" height="9" width="4.189944134078212" fill="#BABABA" stroke="#BABABA" stroke-width="0" opacity="0.9" />
<rect x="131.50837988826817" y="15.62" height="3" width="4.189944134078212" fill="#F4EDF2" opacity="0.25" />
<rect x="135.69832402234638" y="14" height="9" width="83.79888268156424" fill="#009CA2" stroke="#009CA2" stroke-width="0" opacity="0.9" />
<rect x="135.69832402234638" y="15.62" height="3" width="83.79888268156424" fill="#F4EDF2" opacity="0.25" />
<rect x="219.49720670391062" y="14" height="9" width="50.279329608938546" fill="#1383C6" stroke="#1383C6" stroke-width="0" opacity="0.9" />
<rect x="219.49720670391062" y="15.62" height="3" width="50.279329608938546" fill="#F4EDF2" opacity="0.25" />
<rect x="269.77653631284915" y="14" height="9" width="20.94972067039106" fill="#D1D1D1" stroke="#D1D1D1" stroke-width="0" opacity="0.9" />
<rect x="269.77653631284915" y="15.62" height="3" width="20.94972067039106" fill="#F4EDF2" opacity="0.25" />
<rect x="290.7262569832402" y="14" height="9" width="175.9776536312849" fill="#1383C6" stroke="#1383C6" stroke-width="0" opacity="0.9" />
<rect x="290.7262569832402" y="15.62" height="3" width="175.9776536312849" fill="#F4EDF2" opacity="0.25" />
<line x1="466.7039106145251" y1="18.5" x2="550.5027932960893" y2="18.5" stroke="#BABABA" stroke-width="1.5" />
<rect x="550.5027932960893" y="14" height="9" width="209.49720670391062" fill="#009CA2" stroke="#009CA2" stroke-width="0" opacity="0.9" />
<rect x="550.5027932960893" y="15.62" height="3" width="209.49720670391062" fill="#F4EDF2" opacity="0.25" />
<path d="M 759.9999999999999 14 C 764.4999999999999 14, 764.4999999999999 23, 759.9999999999999 23" fill="#009CA2" opacity="0.9" />
<path d="M 10 25 C 5.5 25, 5.5 34, 10 34" fill="#009CA2" opacity="0.9" />
<line x1="10" y1="29.5" x2="18.379888268156424" y2="29.5" stroke="#009CA2" stroke-width="1.5" />
<rect x="18.379888268156424" y="25" height="9" width="29.329608938547487" fill="#009CA2" stroke="#009CA2" stroke-width="0" opacity="0.9" />
<rect x="18.379888268156424" y="26.62" height="3" width="29.329608938547487" fill="#F4EDF2" opacity="0.25" />
<rect x="47.709497206703915" y="25" height="9" width="108.93854748603351" fill="#009CA2" stroke="#009CA2" stroke-width="0" opacity="0.9" />
<rect x="47.709497206703915" y="26.62" height="3" width="108.93854748603351" fill="#F4EDF2" opacity="0.25" />
<line x1="156.64804469273741" y1="29.5" x2="160.83798882681563" y2="29.5" stroke="#009CA2" stroke-width="1.5" />
<rect x="160.83798882681563" y="25" height="9" width="58.659217877094974" fill="#009CA2" stroke="#009CA2" stroke-width="0" opacity="0.9" />
<rect x="160.83798882681563" y="26.62" height="3" width="58.659217877094974" fill="#F4EDF2" opacity="0.25" />
<rect x="219.4972067039106" y="25" height="9" width="175.9776536312849" fill="#1383C6" stroke="#1383C6" stroke-width="0" opacity="0.9" />
<rect x="219.4972067039106" y="26.62" height="3" width="175.9776536312849" fill="#F4EDF2" opacity="0.25" />
<rect x="395.4748603351955" y="25" height="9" width="46.089385474860336" fill="#D1D1D1" stroke="#D1D1D1" stroke-width="0" opacity="0.9" />
<rect x="395.4748603351955" y="26.62" height="3" width="46.089385474860336" fill="#F4EDF2" opacity="0.25" />
<rect x="441.5642458100558" y="25" height="9" width="25.139664804469273" fill="#1383C6" stroke="#1383C6" stroke-width="0" opacity="0.9" />
<rect x="441.5642458100558" y="26.62" height="3" width="25.139664804469273" fill="#F4EDF2" opacity="0.25" />
<line x1="466.70391061452506" y1="29.5" x2="550.5027932960893" y2="29.5" stroke="#BABABA" stroke-width="1.5" />
<rect x="550.5027932960893" y="25" height="9" width="209.49720670391062" fill="#009CA2" stroke="#009CA2" stroke-width="0" opacity="0.9" />
<rect x="550.5027932960893" y="26.62" height="3" width="209.49720670391062" fill="#F4EDF2" opacity="0.25" />
<path d="M 759.9999999999999 25 C 764.4999999999999 25, 764.4999999999999 34, 759.9999999999999 34" fill="#009CA2" opacity="0.9" />
<line x1="47.709497206703915" y1="25" x2="47.709497206703915" y2="34" stroke="#000000" stroke-width="2" />
<path d="M 10 36 C 5.5 36, 5.5 45, 10 45" fill="#009CA2" opacity="0.9" />
<line x1="10" y1="40.5" x2="18.379888268156424" y2="40.5" stroke="#009CA2" stroke-width="1.5" />
<rect x="18.379888268156424" y="36" height="9" width="108.93854748603351" fill="#009CA2" stroke="#009CA2" stroke-width="0" opacity="0.9" />
<rect x="18.379888268156424" y="37.62" height="3" width="108.93854748603351" fill="#F4EDF2" opacity="0.25" />
<rect x="127.31843575418993" y="36" height="9" width="62.849162011173185" fill="#009CA2" stroke="#009CA2" stroke-width="0" opacity="0.9" />
<rect x="127.31843575418993" y="37.62" height="3" width="62.849162011173185" fill="#F4EDF2" opacity="0.25" />
<rect x="190.16759776536313" y="36" height="9" width="29.329608938547487" fill="#009CA2" stroke="#009CA2" stroke-width="0" opacity="0.9" />
<rect x="190.16759776536313" y="37.62" height="3" width="29.329608938547487" fill="#F4EDF2" opacity="0.25" />
<rect x="219.49720670391062" y="36" height="9" width="75.41899441340782" fill="#1383C6" stroke="#1383C6" stroke-width="0" opacity="0.9" />
<rect x="219.49720670391062" y="37.62" height="3" width="75.41899441340782" fill="#F4EDF2" opacity="0.25" />
<rect x="294.91620111731845" y="36" height="9" width="20.94972067039106" fill="#D1D1D1" stroke="#D1D1D1" stroke-width="0" opacity="0.9" />
<rect x="294.91620111731845" y="37.62" height="3" width="20.94972067039106" fill="#F4EDF2" opacity="0.25" />
<rect x="315.8659217877095" y="36" height="9" width="100.55865921787709" fill="#1383C6" stroke="#1383C6" stroke-width="0" opacity="0.9" />
<rect x="315.8659217877095" y="37.62" height="3" width="100.55865921787709" fill="#F4EDF2" opacity="0.25" />
<rect x="416.4245810055866" y="36" height="9" width="20.94972067039106" fill="#D1D1D1" stroke="#D1D1D1" stroke-width="0" opacity="0.9" />
<rect x="416.4245810055866" y="37.62" height="3" width="20.94972067039106" fill="#F4EDF2" opacity="0.25" />
<rect x="437.3743016759777" y="36" height="9" width="25.139664804469273" fill="#1383C6" stroke="#1383C6" stroke-width="0" opacity="0.9" />
<rect x="437.3743016759777" y="37.62" height="3" width="25.139664804469273" fill="#F4EDF2" opacity="0.25" />
<rect x="462.5139664804469" y="36" height="9" width="4.189944134078212" fill="#D1D1D1" stroke="#D1D1D1" stroke-width="0" opacity="0.9" />
<rect x="462.5139664804469" y="37.62" height="3" width="4.189944134078212" fill="#F4EDF2" opacity="0.25" />
<line x1="466.7039106145251" y1="40.5" x2="550.5027932960893" y2="40.5" stroke="#BABABA" stroke-width="1.5" />
<rect x="550.5027932960893" y="36" height="9" width="12.569832402234637" fill="#BABABA" stroke="#BABABA" stroke-width="0" opacity="0.9" />
<rect x="550.5027932960893" y="37.62" height="3" width="12.569832402234637" fill="#F4EDF2" opacity="0.25" />
<rect x="563.0726256983239" y="36" height="9" width="16.75977653631285" fill="#009CA2" stroke="#009CA2" stroke-width="0" opacity="0.9" />
<rect x="563.0726256983239" y="37.62" height="3" width="16.75977653631285" fill="#F4EDF2" opacity="0.25" />
<rect x="579.8324022346368" y="36" height="9" width="175.9776536312849" fill="#009CA2" stroke="#009CA2" stroke-width="0" opacity="0.9" />
<rect x="579.8324022346368" y="37.62" height="3" width="175.9776536312849" fill="#F4EDF2" opacity="0.25" />
<line x1="755.8100558659216" y1="40.5" x2="759.9999999999999" y2="40.5" stroke="#009CA2" stroke-width="1.5" />
<path d="M 759.9999999999999 36 C 764.4999999999999 36, 764.4999999999999 45, 759.9999999999999 45" fill="#009CA2" opacity="0.9" />
<line x1="127.31843575418993" y1="36" x2="127.31843575418993" y2="45" stroke="#000000" stroke-width="2" />
<line x1="190.16759776536313" y1="36" x2="190.16759776536313" y2="45" stroke="#000000" stroke-width="2" />
<line x1="579.8324022346368" y1="36" x2="579.8324022346368" y2="45" stroke="#000000" stroke-width="2" />
<path d="M 10 47 C 5.5 47, 5.5 56, 10 56" fill="#009CA2" opacity="0.9" />
<rect x="10" y="47" height="9" width="209.49720670391062" fill="#009CA2" stroke="#009CA2" stroke-width="0" opacity="0.9" />
<rect x="10" y="48.62" height="3" width="209.49720670391062" fill="#F4EDF2" opacity="0.25" />
<rect x="219.49720670391062" y="47" height="9" width="50.279329608938546" fill="#1383C6" stroke="#1383C6" stroke-width="0" opacity="0.9" />
<rect x="219.49720670391062" y="48.62" height="3" width="50.279329608938546" fill="#F4EDF2" opacity="0.25" />
<rect x="269.77653631284915" y="47" height="9" width="20.94972067039106" fill="#D1D1D1" stroke="#D1D1D1" stroke-width="0" opacity="0.9" />
<rect x="269.77653631284915" y="48.62" height="3" width="20.94972067039106" fill="#F4EDF2" opacity="0.25" />
<rect x="290.7262569832402" y="47" height="9" width="175.9776536312849" fill="#1383C6" stroke="#1383C6" stroke-width="0" opacity="0.9" />
<rect x="290.7262569832402" y="48.62" height="3" width="175.9776536312849" fill="#F4EDF2" opacity="0.25" />
<line x1="466.7039106145251" y1="51.5" x2="550.5027932960893" y2="51.5" stroke="#BABABA" stroke-width="1.5" />
<rect x="550.5027932960893" y="47" height="9" width="209.49720670391062" fill="#009CA2" stroke="#009CA2" stroke-width="0" opacity="0.9" />
<rect x="550.5027932960893" y="48.62" height="3" width="209.49720670391062" fill="#F4EDF2" opacity="0.25" />
<path d="M 759.9999999999999 47 C 764.4999999999999 47, 764.4999999999999 56, 759.9999999999999 56" fill="#009CA2" opacity="0.9" />
<path d="M 10 58 C 5.5 58, 5.5 67, 10 67" fill="#009CA2" opacity="0.9" />
<rect x="10" y="58" height="9" width="209.49720670391062" fill="#009CA2" stroke="#009CA2" stroke-width="0" opacity="0.9" />
<rect x="10" y="59.62" height="3" width="209.49720670391062" fill="#F4EDF2" opacity="0.25" />
<rect x="219.49720670391062" y="58" height="9" width="251.39664804469274" fill="#1383C6" stroke="#1383C6" stroke-width="0" opacity="0.9" />
<rect x="219.49720670391062" y="59.62" height="3" width="251.39664804469274" fill="#F4EDF2" opacity="0.25" />
<line x1="470.89385474860336" y1="62.5" x2="550.5027932960894" y2="62.5" stroke="#BABABA" stroke-width="1.5" />
<rect x="550.5027932960894" y="58" height="9" width="209.49720670391062" fill="#009CA2" stroke="#009CA2" stroke-width="0" opacity="0.9" />
<rect x="550.5027932960894" y="59.62" height="3" width="209.49720670391062" fill="#F4EDF2" opacity="0.25" />
<path d="M 760 58 C 764.5 58, 764.5 67, 760 67" fill="#009CA2" opacity="0.9" />
<path d="M 10 69 C 5.5 69, 5.5 78, 10 78" fill="#009CA2" opacity="0.9" />
<rect x="10" y="69" height="9" width="209.49720670391062" fill="#009CA2" stroke="#009CA2" stroke-width="0" opacity="0.9" />
<rect x="10" y="70.62" height="3" width="209.49720670391062" fill="#F4EDF2" opacity="0.25" />
<rect x="219.49720670391062" y="69" height="9" width="251.39664804469274" fill="#1383C6" stroke="#1383C6" stroke-width="0" opacity="0.9" />
<rect x="219.49720670391062" y="70.62" height="3" width="251.39664804469274" fill="#F4EDF2" opacity="0.25" />
<line x1="470.89385474860336" y1="73.5" x2="550.5027932960894" y2="73.5" stroke="#BABABA" stroke-width="1.5" />
<rect x="550.5027932960894" y="69" height="9" width="209.49720670391062" fill="#009CA2" stroke="#009CA2" stroke-width="0" opacity="0.9" />
<rect x="550.5027932960894" y="70.62" height="3" width="209.49720670391062" fill="#F4EDF2" opacity="0.25" />
<path d="M 760 69 C 764.5 69, 764.5 78, 760 78" fill="#009CA2" opacity="0.9" />
<path d="M 10 80 C 5.5 80, 5.5 89, 10 89" fill="#009CA2" opacity="0.9" />
<rect x="10" y="80" height="9" width="209.49720670391062" fill="#009CA2" stroke="#009CA2" stroke-width="0" opacity="0.9" />
<rect x="10" y="81.62" height="3" width="209.49720670391062" fill="#F4EDF2" opacity="0.25" />
<rect x="219.49720670391062" y="80" height="9" width="251.39664804469274" fill="#1383C6" stroke="#1383C6" stroke-width="0" opacity="0.9" />
<rect x="219.49720670391062" y="81.62" height="3" width="251.39664804469274" fill="#F4EDF2" opacity="0.25" />
<line x1="470.89385474860336" y1="84.5" x2="550.5027932960894" y2="84.5" stroke="#BABABA" stroke-width="1.5" />
<rect x="550.5027932960894" y="80" height="9" width="209.49720670391062" fill="#009CA2" stroke="#009CA2" stroke-width="0" opacity="0.9" />
<rect x="550.5027932960894" y="81.62" height="3" width="209.49720670391062" fill="#F4EDF2" opacity="0.25" />
<path d="M 760 80 C 764.5 80, 764.5 89, 760 89" fill="#009CA2" opacity="0.9" />
<path d="M 10 91 C 5.5 91, 5.5 100, 10 100" fill="#009CA2" opacity="0.9" />
<rect x="10" y="91" height="9" width="209.49720670391062" fill="#009CA2" stroke="#009CA2" stroke-width="0" opacity="0.9" />
<rect x="10" y="92.62" height="3" width="209.49720670391062" fill="#F4EDF2" opacity="0.25" />
<rect x="219.49720670391062" y="91" height="9" width="251.39664804469274" fill="#1383C6" stroke="#1383C6" stroke-width="0" opacity="0.9" />
<rect x="219.49720670391062" y="92.62" height="3" width="251.39664804469274" fill="#F4EDF2" opacity="0.25" />
<line x1="470.89385474860336" y1="95.5" x2="550.5027932960894" y2="95.5" stroke="#BABABA" stroke-width="1.5" />
<rect x="550.5027932960894" y="91" height="9" width="209.49720670391062" fill="#009CA2" stroke="#009CA2" stroke-width="0" opacity="0.9" />
<rect x="550.5027932960894" y="92.62" height="3" width="209.49720670391062" fill="#F4EDF2" opacity="0.25" />
<path d="M 760 91 C 764.5 91, 764.5 100, 760 100" fill="#009CA2" opacity="0.9" />
<path d="M 10 102 C 5.5 102, 5.5 111, 10 111" fill="#009CA2" opacity="0.9" />
<rect x="10" y="102" height="9" width="209.49720670391062" fill="#009CA2" stroke="#009CA2" stroke-width="0" opacity="0.9" />
<rect x="10" y="103.62" height="3" width="209.49720670391062" fill="#F4EDF2" opacity="0.25" />
<rect x="219.49720670391062" y="102" height="9" width="251.39664804469274" fill="#1383C6" stroke="#1383C6" stroke-width="0" opacity="0.9" />
<rect x="219.49720670391062" y="103.62" height="3" width="251.39664804469274" fill="#F4EDF2" opacity="0.25" />
<line x1="470.89385474860336" y1="106.5" x2="550.5027932960894" y2="106.5" stroke="#BABABA" stroke-width="1.5" />
<rect x="550.5027932960894" y="102" height="9" width="209.49720670391062" fill="#009CA2" stroke="#009CA2" stroke-width="0" opacity="0.9" />
<rect x="550.5027932960894" y="103.62" height="3" width="209.49720670391062" fill="#F4EDF2" opacity="0.25" />
<path d="M 760 102 C 764.5 102, 764.5 111, 760 111" fill="#009CA2" opacity="0.9" />
<path d="M 10 113 C 5.5 113, 5.5 122, 10 122" fill="#009CA2" opacity="0.9" />
<rect x="10" y="113" height="9" width="209.49720670391062" fill="#009CA2" stroke="#009CA2" stroke-width="0" opacity="0.9" />
<rect x="10" y="114.62" height="3" width="209.49720670391062" fill="#F4EDF2" opacity="0.25" />
<rect x="219.49720670391062" y="113" height="9" width="251.39664804469274" fill="#1383C6" stroke="#1383C6" stroke-width="0" opacity="0.9" />
<rect x="219.49720670391062" y="114.62" height="3" width="251.39664804469274" fill="#F4EDF2" opacity="0.25" />
<line x1="470.89385474860336" y1="117.5" x2="550.5027932960894" y2="117.5" stroke="#BABABA" stroke-width="1.5" />
<rect x="550.5027932960894" y="113" height="9" width="209.49720670391062" fill="#009CA2" stroke="#009CA2" stroke-width="0" opacity="0.9" />
<rect x="550.5027932960894" y="114.62" height="3" width="209.49720670391062" fill="#F4EDF2" opacity="0.25" />
<path d="M 760 113 C 764.5 113, 764.5 122, 760 122" fill="#009CA2" opacity="0.9" />
<path d="M 10 124 C 5.5 124, 5.5 133, 10 133" fill="#009CA2" opacity="0.9" />
<rect x="10" y="124" height="9" width="209.49720670391062" fill="#009CA2" stroke="#009CA2" stroke-width="0" opacity="0.9" />
<rect x="10" y="125.62" height="3" width="209.49720670391062" fill="#F4EDF2" opacity="0.25" />
<rect x="219.49720670391062" y="124" height="9" width="251.39664804469274" fill="#1383C6" stroke="#1383C6" stroke-width="0" opacity="0.9" />
<rect x="219.49720670391062" y="125.62" height="3" width="251.39664804469274" fill="#F4EDF2" opacity="0.25" />
<line x1="470.89385474860336" y1="128.5" x2="550.5027932960894" y2="128.5" stroke="#BABABA" stroke-width="1.5" />
<rect x="550.5027932960894" y="124" height="9" width="209.49720670391062" fill="#009CA2" stroke="#009CA2" stroke-width="0" opacity="0.9" />
<rect x="550.5027932960894" y="125.62" height="3" width="209.49720670391062" fill="#F4EDF2" opacity="0.25" />
<path d="M 760 124 C 764.5 124, 764.5 133, 760 133" fill="#009CA2" opacity="0.9" />
<path d="M 10 135 C 5.5 135, 5.5 144, 10 144" fill="#009CA2" opacity="0.9" />
<rect x="10" y="135" height="9" width="209.49720670391062" fill="#009CA2" stroke="#009CA2" stroke-width="0" opacity="0.9" />
<rect x="10" y="136.62" height="3" width="209.49720670391062" fill="#F4EDF2" opacity="0.25" />
<rect x="219.49720670391062" y="135" height="9" width="251.39664804469274" fill="#1383C6" stroke="#1383C6" stroke-width="0" opacity="0.9" />
<rect x="219.49720670391062" y="136.62" height="3" width="251.39664804469274" fill="#F4EDF2" opacity="0.25" />
<line x1="470.89385474860336" y1="139.5" x2="550.5027932960894" y2="139.5" stroke="#BABABA" stroke-width="1.5" />
<rect x="550.5027932960894" y="135" height="9" width="209.49720670391062" fill="#009CA2" stroke="#009CA2" stroke-width="0" opacity="0.9" />
<rect x="550.5027932960894" y="136.62" height="3" width="209.49720670391062" fill="#F4EDF2" opacity="0.25" />
<path d="M 760 135 C 764.5 135, 764.5 144, 760 144" fill="#009CA2" opacity="0.9" />
<path d="M 10 146 C 5.5 146, 5.5 155, 10 155" fill="#009CA2" opacity="0.9" />
<rect x="10" y="146" height="9" width="209.49720670391062" fill="#009CA2" stroke="#009CA2" stroke-width="0" opacity="0.9" />
<rect x="10" y="147.62" height="3" width="209.49720670391062" fill="#F4EDF2" opacity="0.25" />
<rect x="219.49720670391062" y="146" height="9" width="251.39664804469274" fill="#1383C6" stroke="#1383C6" stroke-width="0" opacity="0.9" />
<rect x="219.49720670391062" y="147.62" height="3" width="251.39664804469274" fill="#F4EDF2" opacity="0.25" />
<line x1="470.89385474860336" y1="150.5" x2="550.5027932960894" y2="150.5" stroke="#BABABA" stroke-width="1.5" />
<rect x="550.5027932960894" y="146" height="9" width="209.49720670391062" fill="#009CA2" stroke="#009CA2" stroke-width="0" opacity="0.9" />
<rect x="550.5027932960894" y="147.62" height="3" width="209.49720670391062" fill="#F4EDF2" opacity="0.25" />
<path d="M 760 146 C 764.5 146, 764.5 155, 760 155" fill="#009CA2" opacity="0.9" />
<path d="M 10 157 C 5.5 157, 5.5 166, 10 166" fill="#009CA2" opacity="0.9" />
<rect x="10" y="157" height="9" width="209.49720670391062" fill="#009CA2" stroke="#009CA2" stroke-width="0" opacity="0.9" />
<rect x="10" y="158.62" height="3" width="209.49720670391062" fill="#F4EDF2" opacity="0.25" />
<rect x="219.49720670391062" y="157" height="9" width="251.39664804469274" fill="#1383C6" stroke="#1383C6" stroke-width="0" opacity="0.9" />
<rect x="219.49720670391062" y="158.62" height="3" width="251.39664804469274" fill="#F4EDF2" opacity="0.25" />
<line x1="470.89385474860336" y1="161.5" x2="550.5027932960894" y2="161.5" stroke="#BABABA" stroke-width="1.5" />
<rect x="550.5027932960894" y="157" height="9" width="209.49720670391062" fill="#009CA2" stroke="#009CA2" stroke-width="0" opacity="0.9" />
<rect x="550.5027932960894" y="158.62" height="3" width="209.49720670391062" fill="#F4EDF2" opacity="0.25" />
<path d="M 760 157 C 764.5 157, 764.5 166, 760 166" fill="#009CA2" opacity="0.9" />
<path d="M 10 168 C 5.5 168, 5.5 177, 10 177" fill="#009CA2" opacity="0.9" />
<rect x="10" y="168" height="9" width="209.49720670391062" fill="#009CA2" stroke="#009CA2" stroke-width="0" opacity="0.9" />
<rect x="10" y="169.62" height="3" width="209.49720670391062" fill="#F4EDF2" opacity="0.25" />
<rect x="219.49720670391062" y="168" height="9" width="251.39664804469274" fill="#1383C6" stroke="#1383C6" stroke-width="0" opacity="0.9" />
<rect x="219.49720670391062" y="169.62" height="3" width="251.39664804469274" fill="#F4EDF2" opacity="0.25" />
<line x1="470.89385474860336" y1="172.5" x2="550.5027932960894" y2="172.5" stroke="#BABABA" stroke-width="1.5" />
<rect x="550.5027932960894" y="168" height="9" width="209.49720670391062" fill="#009CA2" stroke="#009CA2" stroke-width="0" opacity="0.9" />
<rect x="550.5027932960894" y="169.62" height="3" width="209.49720670391062" fill="#F4EDF2" opacity="0.25" />
<path d="M 760 168 C 764.5 168, 764.5 177, 760 177" fill="#009CA2" opacity="0.9" />
<path d="M 10 179 C 5.5 179, 5.5 188, 10 188" fill="#009CA2" opacity="0.9" />
<rect x="10" y="179" height="9" width="79.60893854748603" fill="#009CA2" stroke="#009CA2" stroke-width="0" opacity="0.9" />
<rect x="10" y="180.62" height="3" width="79.60893854748603" fill="#F4EDF2" opacity="0.25" />
<rect x="89.60893854748603" y="179" height="9" width="4.189944134078212" fill="#BABABA" stroke="#BABABA" stroke-width="0" opacity="0.9" />
<rect x="89.60893854748603" y="180.62" height="3" width="4.189944134078212" fill="#F4EDF2" opacity="0.25" />
<rect x="93.79888268156425" y="179" height="9" width="125.69832402234637" fill="#009CA2" stroke="#009CA2" stroke-width="0" opacity="0.9" />
<rect x="93.79888268156425" y="180.62" height="3" width="125.69832402234637" fill="#F4EDF2" opacity="0.25" />
<rect x="219.49720670391062" y="179" height="9" width="4.189944134078212" fill="#D1D1D1" stroke="#D1D1D1" stroke-width="0" opacity="0.9" />
<rect x="219.49720670391062" y="180.62" height="3" width="4.189944134078212" fill="#F4EDF2" opacity="0.25" />
<rect x="223.68715083798884" y="179" height="9" width="251.39664804469274" fill="#1383C6" stroke="#1383C6" stroke-width="0" opacity="0.9" />
<rect x="223.68715083798884" y="180.62" height="3" width="251.39664804469274" fill="#F4EDF2" opacity="0.25" />
<line x1="475.08379888268155" y1="183.5" x2="550.5027932960894" y2="183.5" stroke="#BABABA" stroke-width="1.5" />
<rect x="550.5027932960894" y="179" height="9" width="209.49720670391062" fill="#009CA2" stroke="#009CA2" stroke-width="0" opacity="0.9" />
<rect x="550.5027932960894" y="180.62" height="3" width="209.49720670391062" fill="#F4EDF2" opacity="0.25" />
<path d="M 760 179 C 764.5 179, 764.5 188, 760 188" fill="#009CA2" opacity="0.9" />
<path d="M 10 190 C 5.5 190, 5.5 199, 10 199" fill="#009CA2" opacity="0.9" />
<rect x="10" y="190" height="9" width="209.49720670391062" fill="#009CA2" stroke="#009CA2" stroke-width="0" opacity="0.9" />
<rect x="10" y="191.62" height="3" width="209.49720670391062" fill="#F4EDF2" opacity="0.25" />
<rect x="219.49720670391062" y="190" height="9" width="125.69832402234637" fill="#1383C6" stroke="#1383C6" stroke-width="0" opacity="0.9" />
<rect x="219.49720670391062" y="191.62" height="3" width="125.69832402234637" fill="#F4EDF2" opacity="0.25" />
<rect x="345.195530726257" y="190" height="9" width="4.189944134078212" fill="#D1D1D1" stroke="#D1D1D1" stroke-width="0" opacity="0.9" />
<rect x="345.195530726257" y="191.62" height="3" width="4.189944134078212" fill="#F4EDF2" opacity="0.25" />
<rect x="349.3854748603352" y="190" height="9" width="125.69832402234637" fill="#1383C6" stroke="#1383C6" stroke-width="0" opacity="0.9" />
<rect x="349.3854748603352" y="191.62" height="3" width="125.69832402234637" fill="#F4EDF2" opacity="0.25" />
<line x1="475.08379888268155" y1="194.5" x2="550.5027932960894" y2="194.5" stroke="#BABABA" stroke-width="1.5" />
<rect x="550.5027932960894" y="190" height="9" width="209.49720670391062" fill="#009CA2" stroke="#009CA2" stroke-width="0" opacity="0.9" />
<rect x="550.5027932960894" y="191.62" height="3" width="209.49720670391062" fill="#F4EDF2" opacity="0.25" />
<path d="M 760 190 C 764.5 190, 764.5 199, 760 199" fill="#009CA2" opacity="0.9" />
<path d="M 10 201 C 5.5 201, 5.5 210, 10 210" fill="#009CA2" opacity="0.9" />
<rect x="10" y="201" height="9" width="209.49720670391062" fill="#009CA2" stroke="#009CA2" stroke-width="0" opacity="0.9" />
<rect x="10" y="202.62" height="3" width="209.49720670391062" fill="#F4EDF2" opacity="0.25" />
<rect x="219.49720670391062" y="201" height="9" width="150.83798882681563" fill="#1383C6" stroke="#1383C6" stroke-width="0" opacity="0.9" />
<rect x="219.49720670391062" y="202.62" height="3" width="150.83798882681563" fill="#F4EDF2" opacity="0.25" />
<rect x="370.33519553072625" y="201" height="9" width="20.94972067039106" fill="#D1D1D1" stroke="#D1D1D1" stroke-width="0" opacity="0.9" />
<rect x="370.33519553072625" y="202.62" height="3" width="20.94972067039106" fill="#F4EDF2" opacity="0.25" />
<rect x="391.2849162011173" y="201" height="9" width="50.279329608938546" fill="#1383C6" stroke="#1383C6" stroke-width="0" opacity="0.9" />
<rect x="391.2849162011173" y="202.62" height="3" width="50.279329608938546" fill="#F4EDF2" opacity="0.25" />
<rect x="441.56424581005587" y="201" height="9" width="54.46927374301676" fill="#D1D1D1" stroke="#D1D1D1" stroke-width="0" opacity="0.9" />
<rect x="441.56424581005587" y="202.62" height="3" width="54.46927374301676" fill="#F4EDF2" opacity="0.25" />
<rect x="496.0335195530726" y="201" height="9" width="25.139664804469273" fill="#1383C6" stroke="#1383C6" stroke-width="0" opacity="0.9" />
<rect x="496.0335195530726" y="202.62" height="3" width="25.139664804469273" fill="#F4EDF2" opacity="0.25" />
<line x1="521.1731843575419" y1="205.5" x2="550.5027932960894" y2="205.5" stroke="#BABABA" stroke-width="1.5" />
<rect x="550.5027932960894" y="201" height="9" width="209.49720670391062" fill="#009CA2" stroke="#009CA2" stroke-width="0" opacity="0.9" />
<rect x="550.5027932960894" y="202.62" height="3" width="209.49720670391062" fill="#F4EDF2" opacity="0.25" />
<path d="M 760 201 C 764.5 201, 764.5 210, 760 210" fill="#009CA2" opacity="0.9" />
<path d="M 10 212 C 5.5 212, 5.5 221, 10 221" fill="#009CA2" opacity="0.9" />
<rect x="10" y="212" height="9" width="209.49720670391062" fill="#009CA2" stroke="#009CA2" stroke-width="0" opacity="0.9" />
<rect x="10" y="213.62" height="3" width="209.49720670391062" fill="#F4EDF2" opacity="0.25" />
<rect x="219.49720670391062" y="212" height="9" width="326.81564245810057" fill="#1383C6" stroke="#1383C6" stroke-width="0" opacity="0.9" />
<rect x="219.49720670391062" y="213.62" height="3" width="326.81564245810057" fill="#F4EDF2" opacity="0.25" />
<line x1="546.3128491620112" y1="216.5" x2="550.5027932960894" y2="216.5" stroke="#BABABA" stroke-width="1.5" />
<rect x="550.5027932960894" y="212" height="9" width="209.49720670391062" fill="#009CA2" stroke="#009CA2" stroke-width="0" opacity="0.9" />
<rect x="550.5027932960894" y="213.62" height="3" width="209.49720670391062" fill="#F4EDF2" opacity="0.25" />
<path d="M 760 212 C 764.5 212, 764.5 221, 760 221" fill="#009CA2" opacity="0.9" />
<path d="M 10 223 C 5.5 223, 5.5 232, 10 232" fill="#009CA2" opacity="0.9" />
<line x1="10" y1="227.5" x2="14.189944134078212" y2="227.5" stroke="#009CA2" stroke-width="1.5" />
<rect x="14.189944134078212" y="223" height="9" width="75.41899441340782" fill="#009CA2" stroke="#009CA2" stroke-width="0" opacity="0.9" />
<rect x="14.189944134078212" y="224.62" height="3" width="75.41899441340782" fill="#F4EDF2" opacity="0.25" />
<rect x="89.60893854748603" y="223" height="9" width="129.88826815642457" fill="#009CA2" stroke="#009CA2" stroke-width="0" opacity="0.9" />
<rect x="89.60893854748603" y="224.62" height="3" width="129.88826815642457" fill="#F4EDF2" opacity="0.25" />
<rect x="219.4972067039106" y="223" height="9" width="326.81564245810057" fill="#1383C6" stroke="#1383C6" stroke-width="0" opacity="0.9" />
<rect x="219.4972067039106" y="224.62" height="3" width="326.81564245810057" fill="#F4EDF2" opacity="0.25" />
<line x1="546.3128491620112" y1="227.5" x2="550.5027932960894" y2="227.5" stroke="#BABABA" stroke-width="1.5" />
<rect x="550.5027932960894" y="223" height="9" width="209.49720670391062" fill="#009CA2" stroke="#009CA2" stroke-width="0" opacity="0.9" />
<rect x="550.5027932960894" y="224.62" height="3" width="209.49720670391062" fill="#F4EDF2" opacity="0.25" />
<path d="M 760 223 C 764.5 223, 764.5 232, 760 232" fill="#009CA2" opacity="0.9" />
<line x1="89.60893854748603" y1="223" x2="89.60893854748603" y2="232" stroke="#000000" stroke-width="2" />
<path d="M 10 234 C 5.5 234, 5.5 243, 10 243" fill="#009CA2" opacity="0.9" />
<rect x="10" y="234" height="9" width="209.49720670391062" fill="#009CA2" stroke="#009CA2" stroke-width="0" opacity="0.9" />
<rect x="10" y="235.62" height="3" width="209.49720670391062" fill="#F4EDF2" opacity="0.25" />
<rect x="219.49720670391062" y="234" height="9" width="326.81564245810057" fill="#1383C6" stroke="#1383C6" stroke-width="0" opacity="0.9" />
<rect x="219.49720670391062" y="235.62" height="3" width="326.81564245810057" fill="#F4EDF2" opacity="0.25" />
<line x1="546.3128491620112" y1="238.5" x2="550.5027932960894" y2="238.5" stroke="#BABABA" stroke-width="1.5" />
<rect x="550.5027932960894" y="234" height="9" width="209.49720670391062" fill="#009CA2" stroke="#009CA2" stroke-width="0" opacity="0.9" />
<rect x="550.5027932960894" y="235.62" height="3" width="209.49720670391062" fill="#F4EDF2" opacity="0.25" />
<path d="M 760 234 C 764.5 234, 764.5 243, 760 243" fill="#009CA2" opacity="0.9" />
<path d="M 10 245 C 5.5 245, 5.5 254, 10 254" fill="#009CA2" opacity="0.9" />
<rect x="10" y="245" height="9" width="96.36871508379888" fill="#009CA2" stroke="#009CA2" stroke-width="0" opacity="0.9" />
<rect x="10" y="246.62" height="3" width="96.36871508379888" fill="#F4EDF2" opacity="0.25" />
<line x1="106.36871508379888" y1="249.5" x2="110.55865921787709" y2="249.5" stroke="#009CA2" stroke-width="1.5" />
<rect x="110.55865921787709" y="245" height="9" width="108.93854748603351" fill="#009CA2" stroke="#009CA2" stroke-width="0" opacity="0.9" />
<rect x="110.55865921787709" y="246.62" height="3" width="108.93854748603351" fill="#F4EDF2" opacity="0.25" />
<rect x="219.4972067039106" y="245" height="9" width="100.55865921787709" fill="#1383C6" stroke="#1383C6" stroke-width="0" opacity="0.9" />
<rect x="219.4972067039106" y="246.62" height="3" width="100.55865921787709" fill="#F4EDF2" opacity="0.25" />
<rect x="320.0558659217877" y="245" height="9" width="20.94972067039106" fill="#D1D1D1" stroke="#D1D1D1" stroke-width="0" opacity="0.9" />
<rect x="320.0558659217877" y="246.62" height="3" width="20.94972067039106" fill="#F4EDF2" opacity="0.25" />
<rect x="341.00558659217876" y="245" height="9" width="125.69832402234637" fill="#1383C6" stroke="#1383C6" stroke-width="0" opacity="0.9" />
<rect x="341.00558659217876" y="246.62" height="3" width="125.69832402234637" fill="#F4EDF2" opacity="0.25" />
<rect x="466.7039106145251" y="245" height="9" width="4.189944134078212" fill="#D1D1D1" stroke="#D1D1D1" stroke-width="0" opacity="0.9" />
<rect x="466.7039106145251" y="246.62" height="3" width="4.189944134078212" fill="#F4EDF2" opacity="0.25" />
<rect x="470.8938547486033" y="245" height="9" width="75.41899441340782" fill="#1383C6" stroke="#1383C6" stroke-width="0" opacity="0.9" />
<rect x="470.8938547486033" y="246.62" height="3" width="75.41899441340782" fill="#F4EDF2" opacity="0.25" />
<line x1="546.3128491620112" y1="249.5" x2="550.5027932960894" y2="249.5" stroke="#BABABA" stroke-width="1.5" />
<rect x="550.5027932960894" y="245" height="9" width="209.49720670391062" fill="#009CA2" stroke="#009CA2" stroke-width="0" opacity="0.9" />
<rect x="550.5027932960894" y="246.62" height="3" width="209.49720670391062" fill="#F4EDF2" opacity="0.25" />
<path d="M 760 245 C 764.5 245, 764.5 254, 760 254" fill="#009CA2" opacity="0.9" />
<line x1="10" y1="245" x2="10" y2="254" stroke="#000000" stroke-width="2" />
<path d="M 10 256 C 5.5 256, 5.5 265, 10 265" fill="#009CA2" opacity="0.9" />
<line x1="10" y1="260.5" x2="14.189944134078212" y2="260.5" stroke="#009CA2" stroke-width="1.5" />
<rect x="14.189944134078212" y="256" height="9" width="75.41899441340782" fill="#009CA2" stroke="#009CA2" stroke-width="0" opacity="0.9" />
<rect x="14.189944134078212" y="257.62" height="3" width="75.41899441340782" fill="#F4EDF2" opacity="0.25" />
<rect x="89.60893854748603" y="256" height="9" width="129.88826815642457" fill="#009CA2" stroke="#009CA2" stroke-width="0" opacity="0.9" />
<rect x="89.60893854748603" y="257.62" height="3" width="129.88826815642457" fill="#F4EDF2" opacity="0.25" />
<rect x="219.4972067039106" y="256" height="9" width="326.81564245810057" fill="#1383C6" stroke="#1383C6" stroke-width="0" opacity="0.9" />
<rect x="219.4972067039106" y="257.62" height="3" width="326.81564245810057" fill="#F4EDF2" opacity="0.25" />
<line x1="546.3128491620112" y1="260.5" x2="550.5027932960894" y2="260.5" stroke="#BABABA" stroke-width="1.5" />
<rect x="550.5027932960894" y="256" height="9" width="209.49720670391062" fill="#009CA2" stroke="#009CA2" stroke-width="0" opacity="0.9" />
<rect x="550.5027932960894" y="257.62" height="3" width="209.49720670391062" fill="#F4EDF2" opacity="0.25" />
<path d="M 760 256 C 764.5 256, 764.5 265, 760 265" fill="#009CA2" opacity="0.9" />
<line x1="89.60893854748603" y1="256" x2="89.60893854748603" y2="265" stroke="#000000" stroke-width="2" />
<path d="M 10 267 C 5.5 267, 5.5 276, 10 276" fill="#009CA2" opacity="0.9" />
<rect x="10" y="267" height="9" width="4.189944134078212" fill="#009CA2" stroke="#009CA2" stroke-width="0" opacity="0.9" />
<rect x="10" y="268.62" height="3" width="4.189944134078212" fill="#F4EDF2" opacity="0.25" />
<rect x="14.189944134078212" y="267" height="9" width="4.189944134078212" fill="#BABABA" stroke="#BABABA" stroke-width="0" opacity="0.9" />
<rect x="14.189944134078212" y="268.62" height="3" width="4.189944134078212" fill="#F4EDF2" opacity="0.25" />
<rect x="18.379888268156424" y="267" height="9" width="4.189944134078212" fill="#009CA2" stroke="#009CA2" stroke-width="0" opacity="0.9" />
<rect x="18.379888268156424" y="268.62" height="3" width="4.189944134078212" fill="#F4EDF2" opacity="0.25" />
<rect x="22.56983240223464" y="267" height="9" width="20.94972067039106" fill="#BABABA" stroke="#BABABA" stroke-width="0" opacity="0.9" />
<rect x="22.56983240223464" y="268.62" height="3" width="20.94972067039106" fill="#F4EDF2" opacity="0.25" />
<rect x="43.5195530726257" y="267" height="9" width="175.9776536312849" fill="#009CA2" stroke="#009CA2" stroke-width="0" opacity="0.9" />
<rect x="43.5195530726257" y="268.62" height="3" width="175.9776536312849" fill="#F4EDF2" opacity="0.25" />
<rect x="219.4972067039106" y="267" height="9" width="326.81564245810057" fill="#1383C6" stroke="#1383C6" stroke-width="0" opacity="0.9" />
<rect x="219.4972067039106" y="268.62" height="3" width="326.81564245810057" fill="#F4EDF2" opacity="0.25" />
<line x1="546.3128491620112" y1="271.5" x2="550.5027932960894" y2="271.5" stroke="#BABABA" stroke-width="1.5" />
<rect x="550.5027932960894" y="267" height="9" width="209.49720670391062" fill="#009CA2" stroke="#009CA2" stroke-width="0" opacity="0.9" />
<rect x="550.5027932960894" y="268.62" height="3" width="209.49720670391062" fill="#F4EDF2" opacity="0.25" />
<path d="M 760 267 C 764.5 267, 764.5 276, 760 276" fill="#009CA2" opacity="0.9" />
<path d="M 10 278 C 5.5 278, 5.5 287, 10 287" fill="#009CA2" opacity="0.9" />
<rect x="10" y="278" height="9" width="209.49720670391062" fill="#009CA2" stroke="#009CA2" stroke-width="0" opacity="0.9" />
<rect x="10" y="279.62" height="3" width="209.49720670391062" fill="#F4EDF2" opacity="0.25" />
<rect x="219.49720670391062" y="278" height="9" width="326.81564245810057" fill="#1383C6" stroke="#1383C6" stroke-width="0" opacity="0.9" />
<rect x="219.49720670391062" y="279.62" height="3" width="326.81564245810057" fill="#F4EDF2" opacity="0.25" />
<line x1="546.3128491620112" y1="282.5" x2="550.5027932960894" y2="282.5" stroke="#BABABA" stroke-width="1.5" />
<rect x="550.5027932960894" y="278" height="9" width="209.49720670391062" fill="#009CA2" stroke="#009CA2" stroke-width="0" opacity="0.9" />
<rect x="550.5027932960894" y="279.62" height="3" width="209.49720670391062" fill="#F4EDF2" opacity="0.25" />
<path d="M 760 278 C 764.5 278, 764.5 287, 760 287" fill="#009CA2" opacity="0.9" />
<path d="M 10 289 C 5.5 289, 5.5 298, 10 298" fill="#009CA2" opacity="0.9" />
<rect x="10" y="289" height="9" width="67.0391061452514" fill="#009CA2" stroke="#009CA2" stroke-width="0" opacity="0.9" />
<rect x="10" y="290.62" height="3" width="67.0391061452514" fill="#F4EDF2" opacity="0.25" />
<line x1="77.0391061452514" y1="293.5" x2="81.22905027932961" y2="293.5" stroke="#009CA2" stroke-width="1.5" />
<rect x="81.22905027932961" y="289" height="9" width="138.268156424581" fill="#009CA2" stroke="#009CA2" stroke-width="0" opacity="0.9" />
<rect x="81.22905027932961" y="290.62" height="3" width="138.268156424581" fill="#F4EDF2" opacity="0.25" />
<rect x="219.49720670391062" y="289" height="9" width="326.81564245810057" fill="#1383C6" stroke="#1383C6" stroke-width="0" opacity="0.9" />
<rect x="219.49720670391062" y="290.62" height="3" width="326.81564245810057" fill="#F4EDF2" opacity="0.25" />
<line x1="546.3128491620112" y1="293.5" x2="550.5027932960894" y2="293.5" stroke="#BABABA" stroke-width="1.5" />
<rect x="550.5027932960894" y="289" height="9" width="209.49720670391062" fill="#009CA2" stroke="#009CA2" stroke-width="0" opacity="0.9" />
<rect x="550.5027932960894" y="290.62" height="3" width="209.49720670391062" fill="#F4EDF2" opacity="0.25" />
<path d="M 760 289 C 764.5 289, 764.5 298, 760 298" fill="#009CA2" opacity="0.9" />
<line x1="10" y1="289" x2="10" y2="298" stroke="#000000" stroke-width="2" />
<path d="M 10 300 C 5.5 300, 5.5 309, 10 309" fill="#009CA2" opacity="0.9" />
<rect x="10" y="300" height="9" width="209.49720670391062" fill="#009CA2" stroke="#009CA2" stroke-width="0" opacity="0.9" />
<rect x="10" y="301.62" height="3" width="209.49720670391062" fill="#F4EDF2" opacity="0.25" />
<rect x="219.49720670391062" y="300" height="9" width="326.81564245810057" fill="#1383C6" stroke="#1383C6" stroke-width="0" opacity="0.9" />
<rect x="219.49720670391062" y="301.62" height="3" width="326.81564245810057" fill="#F4EDF2" opacity="0.25" />
<line x1="546.3128491620112" y1="304.5" x2="550.5027932960894" y2="304.5" stroke="#BABABA" stroke-width="1.5" />
<rect x="550.5027932960894" y="300" height="9" width="209.49720670391062" fill="#009CA2" stroke="#009CA2" stroke-width="0" opacity="0.9" />
<rect x="550.5027932960894" y="301.62" height="3" width="209.49720670391062" fill="#F4EDF2" opacity="0.25" />
<path d="M 760 300 C 764.5 300, 764.5 309, 760 309" fill="#009CA2" opacity="0.9" />
<path d="M 10 311 C 5.5 311, 5.5 320, 10 320" fill="#009CA2" opacity="0.9" />
<rect x="10" y="311" height="9" width="209.49720670391062" fill="#009CA2" stroke="#009CA2" stroke-width="0" opacity="0.9" />
<rect x="10" y="312.62" height="3" width="209.49720670391062" fill="#F4EDF2" opacity="0.25" />
<rect x="219.49720670391062" y="311" height="9" width="326.81564245810057" fill="#1383C6" stroke="#1383C6" stroke-width="0" opacity="0.9" />
<rect x="219.49720670391062" y="312.62" height="3" width="326.81564245810057" fill="#F4EDF2" opacity="0.25" />
<line x1="546.3128491620112" y1="315.5" x2="550.5027932960894" y2="315.5" stroke="#BABABA" stroke-width="1.5" />
<rect x="550.5027932960894" y="311" height="9" width="209.49720670391062" fill="#009CA2" stroke="#009CA2" stroke-width="0" opacity="0.9" />
<rect x="550.5027932960894" y="312.62" height="3" width="209.49720670391062" fill="#F4EDF2" opacity="0.25" />
<path d="M 760 311 C 764.5 311, 764.5 320, 760 320" fill="#009CA2" opacity="0.9" />
<path d="M 10 322 C 5.5 322, 5.5 331, 10 331" fill="#009CA2" opacity="0.9" />
<rect x="10" y="322" height="9" width="209.49720670391062" fill="#009CA2" stroke="#009CA2" stroke-width="0" opacity="0.9" />
<rect x="10" y="323.62" height="3" width="209.49720670391062" fill="#F4EDF2" opacity="0.25" />
<rect x="219.49720670391062" y="322" height="9" width="326.81564245810057" fill="#1383C6" stroke="#1383C6" stroke-width="0" opacity="0.9" />
<rect x="219.49720670391062" y="323.62" height="3" width="326.81564245810057" fill="#F4EDF2" opacity="0.25" />
<line x1="546.3128491620112" y1="326.5" x2="550.5027932960894" y2="326.5" stroke="#BABABA" stroke-width="1.5" />
<rect x="550.5027932960894" y="322" height="9" width="209.49720670391062" fill="#009CA2" stroke="#009CA2" stroke-width="0" opacity="0.9" />
<rect x="550.5027932960894" y="323.62" height="3" width="209.49720670391062" fill="#F4EDF2" opacity="0.25" />
<path d="M 760 322 C 764.5 322, 764.5 331, 760 331" fill="#009CA2" opacity="0.9" />
<path d="M 10 333 C 5.5 333, 5.5 342, 10 342" fill="#009CA2" opacity="0.9" />
<rect x="10" y="333" height="9" width="209.49720670391062" fill="#009CA2" stroke="#009CA2" stroke-width="0" opacity="0.9" />
<rect x="10" y="334.62" height="3" width="209.49720670391062" fill="#F4EDF2" opacity="0.25" />
<rect x="219.49720670391062" y="333" height="9" width="150.83798882681563" fill="#1383C6" stroke="#1383C6" stroke-width="0" opacity="0.9" />
<rect x="219.49720670391062" y="334.62" height="3" width="150.83798882681563" fill="#F4EDF2" opacity="0.25" />
<rect x="370.33519553072625" y="333" height="9" width="4.189944134078212" fill="#D1D1D1" stroke="#D1D1D1" stroke-width="0" opacity="0.9" />
<rect x="370.33519553072625" y="334.62" height="3" width="4.189944134078212" fill="#F4EDF2" opacity="0.25" />
<rect x="374.52513966480444" y="333" height="9" width="175.9776536312849" fill="#1383C6" stroke="#1383C6" stroke-width="0" opacity="0.9" />
<rect x="374.52513966480444" y="334.62" height="3" width="175.9776536312849" fill="#F4EDF2" opacity="0.25" />
<rect x="550.5027932960893" y="333" height="9" width="209.49720670391062" fill="#009CA2" stroke="#009CA2" stroke-width="0" opacity="0.9" />
<rect x="550.5027932960893" y="334.62" height="3" width="209.49720670391062" fill="#F4EDF2" opacity="0.25" />
<path d="M 759.9999999999999 333 C 764.4999999999999 333, 764.4999999999999 342, 759.9999999999999 342" fill="#009CA2" opacity="0.9" />
<path d="M 10 344 C 5.5 344, 5.5 353, 10 353" fill="#009CA2" opacity="0.9" />
<rect x="10" y="344" height="9" width="209.49720670391062" fill="#009CA2" stroke="#009CA2" stroke-width="0" opacity="0.9" />
<rect x="10" y="345.62" height="3" width="209.49720670391062" fill="#F4EDF2" opacity="0.25" />
<rect x="219.49720670391062" y="344" height="9" width="75.41899441340782" fill="#1383C6" stroke="#1383C6" stroke-width="0" opacity="0.9" />
<rect x="219.49720670391062" y="345.62" height="3" width="75.41899441340782" fill="#F4EDF2" opacity="0.25" />
<rect x="294.91620111731845" y="344" height="9" width="4.189944134078212" fill="#D1D1D1" stroke="#D1D1D1" stroke-width="0" opacity="0.9" />
<rect x="294.91620111731845" y="345.62" height="3" width="4.189944134078212" fill="#F4EDF2" opacity="0.25" />
<rect x="299.10614525139664" y="344" height="9" width="251.39664804469274" fill="#1383C6" stroke="#1383C6" stroke-width="0" opacity="0.9" />
<rect x="299.10614525139664" y="345.62" height="3" width="251.39664804469274" fill="#F4EDF2" opacity="0.25" />
<rect x="550.5027932960894" y="344" height="9" width="209.49720670391062" fill="#009CA2" stroke="#009CA2" stroke-width="0" opacity="0.9" />
<rect x="550.5027932960894" y="345.62" height="3" width="209.49720670391062" fill="#F4EDF2" opacity="0.25" />
<path d="M 760 344 C 764.5 344, 764.5 353, 760 353" fill="#009CA2" opacity="0.9" />
<path d="M 10 355 C 5.5 355, 5.5 364, 10 364" fill="#009CA2" opacity="0.9" />
<rect x="10" y="355" height="9" width="209.49720670391062" fill="#009CA2" stroke="#009CA2" stroke-width="0" opacity="0.9" />
<rect x="10" y="356.62" height="3" width="209.49720670391062" fill="#F4EDF2" opacity="0.25" />
<rect x="219.49720670391062" y="355" height="9" width="326.81564245810057" fill="#1383C6" stroke="#1383C6" stroke-width="0" opacity="0.9" />
<rect x="219.49720670391062" y="356.62" height="3" width="326.81564245810057" fill="#F4EDF2" opacity="0.25" />
<rect x="546.3128491620112" y="355" height="9" width="4.189944134078212" fill="#D1D1D1" stroke="#D1D1D1" stroke-width="0" opacity="0.9" />
<rect x="546.3128491620112" y="356.62" height="3" width="4.189944134078212" fill="#F4EDF2" opacity="0.25" />
<rect x="550.5027932960894" y="355" height="9" width="209.49720670391062" fill="#009CA2" stroke="#009CA2" stroke-width="0" opacity="0.9" />
<rect x="550.5027932960894" y="356.62" height="3" width="209.49720670391062" fill="#F4EDF2" opacity="0.25" />
<path d="M 760 355 C 764.5 355, 764.5 364, 760 364" fill="#009CA2" opacity="0.9" />
<path d="M 10 366 C 5.5 366, 5.5 375, 10 375" fill="#009CA2" opacity="0.9" />
<rect x="10" y="366" height="9" width="209.49720670391062" fill="#009CA2" stroke="#009CA2" stroke-width="0" opacity="0.9" />
<rect x="10" y="367.62" height="3" width="209.49720670391062" fill="#F4EDF2" opacity="0.25" />
<rect x="219.49720670391062" y="366" height="9" width="50.279329608938546" fill="#1383C6" stroke="#1383C6" stroke-width="0" opacity="0.9" />
<rect x="219.49720670391062" y="367.62" height="3" width="50.279329608938546" fill="#F4EDF2" opacity="0.25" />
<rect x="269.77653631284915" y="366" height="9" width="4.189944134078212" fill="#D1D1D1" stroke="#D1D1D1" stroke-width="0" opacity="0.9" />
<rect x="269.77653631284915" y="367.62" height="3" width="4.189944134078212" fill="#F4EDF2" opacity="0.25" />
<rect x="273.96648044692733" y="366" height="9" width="276.536312849162" fill="#1383C6" stroke="#1383C6" stroke-width="0" opacity="0.9" />
<rect x="273.96648044692733" y="367.62" height="3" width="276.536312849162" fill="#F4EDF2" opacity="0.25" />
<rect x="550.5027932960893" y="366" height="9" width="209.49720670391062" fill="#009CA2" stroke="#009CA2" stroke-width="0" opacity="0.9" />
<rect x="550.5027932960893" y="367.62" height="3" width="209.49720670391062" fill="#F4EDF2" opacity="0.25" />
<path d="M 759.9999999999999 366 C 764.4999999999999 366, 764.4999999999999 375, 759.9999999999999 375" fill="#009CA2" opacity="0.9" />
<rect x="10" y="381" height="12" width="12" fill="#1383C6" stroke="#1383C6" stroke-width="0" opacity="0.9" />
<text x="24" y="392" font-family="monospace" font-weight="bold" font-size="14px" >GGCCCC</text>
</svg>
