<?xml version="1.0"?>
<svg xmlns="http://www.w3.org/2000/svg" xmlns:xlink="http://www.w3.org/1999/xlink" width="770" height="134">
<rect width="100%" height="100%" fill="white"/>
<path d="M 10 14 C 5.5 14, 5.5 23, 10 23" fill="#009CA2" opacity="0.9" />
<rect x="10" y="14" height="9" width="46.699875466998755" fill="#009CA2" stroke="#009CA2" stroke-width="0" opacity="0.9" />
<rect x="10" y="15.62" height="3" width="46.699875466998755" fill="#F4EDF2" opacity="0.25" />
<rect x="56.699875466998755" y="14" height="9" width="46.699875466998755" fill="#D1D1D1" stroke="#D1D1D1" stroke-width="0" opacity="0.9" />
<rect x="56.699875466998755" y="15.62" height="3" width="46.699875466998755" fill="#F4EDF2" opacity="0.25" />
<line x1="103.39975093399751" y1="18.5" x2="713.3001245330013" y2="18.5" stroke="#BABABA" stroke-width="1.5" />
<rect x="713.3001245330013" y="14" height="9" width="46.699875466998755" fill="#009CA2" stroke="#009CA2" stroke-width="0" opacity="0.9" />
<rect x="713.3001245330013" y="15.62" height="3" width="46.699875466998755" fill="#F4EDF2" opacity="0.25" />
<path d="M 760 14 C 764.5 14, 764.5 23, 760 23" fill="#009CA2" opacity="0.9" />
<rect x="13.735990037359901" y="14" height="9" width="0.933997509339975" fill="#FB0104" stroke="#FB0104" stroke-width="0" opacity="0.9" />
<rect x="739.4520547945206" y="14" height="9" width="0.933997509339975" fill="#4E33B1" stroke="#4E33B1" stroke-width="0" opacity="0.9" />
<path d="M 10 25 C 5.5 25, 5.5 34, 10 34" fill="#009CA2" opacity="0.9" />
<rect x="10" y="25" height="9" width="46.699875466998755" fill="#009CA2" stroke="#009CA2" stroke-width="0" opacity="0.9" />
<rect x="10" y="26.62" height="3" width="46.699875466998755" fill="#F4EDF2" opacity="0.25" />
<rect x="56.699875466998755" y="25" height="9" width="46.699875466998755" fill="#D1D1D1" stroke="#D1D1D1" stroke-width="0" opacity="0.9" />
<rect x="56.699875466998755" y="26.62" height="3" width="46.699875466998755" fill="#F4EDF2" opacity="0.25" />
<line x1="103.39975093399751" y1="29.5" x2="713.3001245330013" y2="29.5" stroke="#BABABA" stroke-width="1.5" />
<rect x="713.3001245330013" y="25" height="9" width="46.699875466998755" fill="#009CA2" stroke="#009CA2" stroke-width="0" opacity="0.9" />
<rect x="713.3001245330013" y="26.62" height="3" width="46.699875466998755" fill="#F4EDF2" opacity="0.25" />
<path d="M 760 25 C 764.5 25, 764.5 34, 760 34" fill="#009CA2" opacity="0.9" />
<rect x="13.735990037359901" y="25" height="9" width="0.933997509339975" fill="#652C9A" stroke="#652C9A" stroke-width="0" opacity="0.9" />
<rect x="739.4520547945206" y="25" height="9" width="0.933997509339975" fill="#223FDD" stroke="#223FDD" stroke-width="0" opacity="0.9" />
<path d="M 10 36 C 5.5 36, 5.5 45, 10 45" fill="#009CA2" opacity="0.9" />
<rect x="10" y="36" height="9" width="46.699875466998755" fill="#009CA2" stroke="#009CA2" stroke-width="0" opacity="0.9" />
<rect x="10" y="37.62" height="3" width="46.699875466998755" fill="#F4EDF2" opacity="0.25" />
<rect x="56.699875466998755" y="36" height="9" width="46.699875466998755" fill="#D1D1D1" stroke="#D1D1D1" stroke-width="0" opacity="0.9" />
<rect x="56.699875466998755" y="37.62" height="3" width="46.699875466998755" fill="#F4EDF2" opacity="0.25" />
<line x1="103.39975093399751" y1="40.5" x2="713.3001245330013" y2="40.5" stroke="#BABABA" stroke-width="1.5" />
<rect x="713.3001245330013" y="36" height="9" width="46.699875466998755" fill="#009CA2" stroke="#009CA2" stroke-width="0" opacity="0.9" />
<rect x="713.3001245330013" y="37.62" height="3" width="46.699875466998755" fill="#F4EDF2" opacity="0.25" />
<path d="M 760 36 C 764.5 36, 764.5 45, 760 45" fill="#009CA2" opacity="0.9" />
<rect x="13.735990037359901" y="36" height="9" width="0.933997509339975" fill="#F3030C" stroke="#F3030C" stroke-width="0" opacity="0.9" />
<rect x="739.4520547945206" y="36" height="9" width="0.933997509339975" fill="#ED0512" stroke="#ED0512" stroke-width="0" opacity="0.9" />
<path d="M 10 47 C 5.5 47, 5.5 56, 10 56" fill="#009CA2" opacity="0.9" />
<rect x="10" y="47" height="9" width="46.699875466998755" fill="#009CA2" stroke="#009CA2" stroke-width="0" opacity="0.9" />
<rect x="10" y="48.62" height="3" width="46.699875466998755" fill="#F4EDF2" opacity="0.25" />
<rect x="56.699875466998755" y="47" height="9" width="46.699875466998755" fill="#D1D1D1" stroke="#D1D1D1" stroke-width="0" opacity="0.9" />
<rect x="56.699875466998755" y="48.62" height="3" width="46.699875466998755" fill="#F4EDF2" opacity="0.25" />
<line x1="103.39975093399751" y1="51.5" x2="713.3001245330013" y2="51.5" stroke="#BABABA" stroke-width="1.5" />
<rect x="713.3001245330013" y="47" height="9" width="46.699875466998755" fill="#009CA2" stroke="#009CA2" stroke-width="0" opacity="0.9" />
<rect x="713.3001245330013" y="48.62" height="3" width="46.699875466998755" fill="#F4EDF2" opacity="0.25" />
<path d="M 760 47 C 764.5 47, 764.5 56, 760 56" fill="#009CA2" opacity="0.9" />
<rect x="13.735990037359901" y="47" height="9" width="0.933997509339975" fill="#0A46F5" stroke="#0A46F5" stroke-width="0" opacity="0.9" />
<rect x="739.4520547945206" y="47" height="9" width="0.933997509339975" fill="#FE0001" stroke="#FE0001" stroke-width="0" opacity="0.9" />
<path d="M 10 58 C 5.5 58, 5.5 67, 10 67" fill="#009CA2" opacity="0.9" />
<rect x="10" y="58" height="9" width="46.699875466998755" fill="#009CA2" stroke="#009CA2" stroke-width="0" opacity="0.9" />
<rect x="10" y="59.62" height="3" width="46.699875466998755" fill="#F4EDF2" opacity="0.25" />
<rect x="56.699875466998755" y="58" height="9" width="46.699875466998755" fill="#D1D1D1" stroke="#D1D1D1" stroke-width="0" opacity="0.9" />
<rect x="56.699875466998755" y="59.62" height="3" width="46.699875466998755" fill="#F4EDF2" opacity="0.25" />
<line x1="103.39975093399751" y1="62.5" x2="713.3001245330013" y2="62.5" stroke="#BABABA" stroke-width="1.5" />
<rect x="713.3001245330013" y="58" height="9" width="46.699875466998755" fill="#009CA2" stroke="#009CA2" stroke-width="0" opacity="0.9" />
<rect x="713.3001245330013" y="59.62" height="3" width="46.699875466998755" fill="#F4EDF2" opacity="0.25" />
<path d="M 760 58 C 764.5 58, 764.5 67, 760 67" fill="#009CA2" opacity="0.9" />
<rect x="13.735990037359901" y="58" height="9" width="0.933997509339975" fill="#4136BE" stroke="#4136BE" stroke-width="0" opacity="0.9" />
<rect x="739.4520547945206" y="58" height="9" width="0.933997509339975" fill="#F0040F" stroke="#F0040F" stroke-width="0" opacity="0.9" />
<path d="M 10 69 C 5.5 69, 5.5 78, 10 78" fill="#009CA2" opacity="0.9" />
<rect x="10" y="69" height="9" width="46.699875466998755" fill="#009CA2" stroke="#009CA2" stroke-width="0" opacity="0.9" />
<rect x="10" y="70.62" height="3" width="46.699875466998755" fill="#F4EDF2" opacity="0.25" />
<rect x="56.699875466998755" y="69" height="9" width="47.63387297633873" fill="#D1D1D1" stroke="#D1D1D1" stroke-width="0" opacity="0.9" />
<rect x="56.699875466998755" y="70.62" height="3" width="47.63387297633873" fill="#F4EDF2" opacity="0.25" />
<line x1="104.33374844333748" y1="73.5" x2="713.3001245330013" y2="73.5" stroke="#BABABA" stroke-width="1.5" />
<rect x="713.3001245330013" y="69" height="9" width="46.699875466998755" fill="#009CA2" stroke="#009CA2" stroke-width="0" opacity="0.9" />
<rect x="713.3001245330013" y="70.62" height="3" width="46.699875466998755" fill="#F4EDF2" opacity="0.25" />
<path d="M 760 69 C 764.5 69, 764.5 78, 760 78" fill="#009CA2" opacity="0.9" />
<rect x="13.735990037359901" y="69" height="9" width="0.933997509339975" fill="#FB0104" stroke="#FB0104" stroke-width="0" opacity="0.9" />
<rect x="739.4520547945206" y="69" height="9" width="0.933997509339975" fill="#CD0E32" stroke="#CD0E32" stroke-width="0" opacity="0.9" />
<path d="M 10 80 C 5.5 80, 5.5 89, 10 89" fill="#009CA2" opacity="0.9" />
<rect x="10" y="80" height="9" width="46.699875466998755" fill="#009CA2" stroke="#009CA2" stroke-width="0" opacity="0.9" />
<rect x="10" y="81.62" height="3" width="46.699875466998755" fill="#F4EDF2" opacity="0.25" />
<rect x="56.699875466998755" y="80" height="9" width="49.50186799501868" fill="#D1D1D1" stroke="#D1D1D1" stroke-width="0" opacity="0.9" />
<rect x="56.699875466998755" y="81.62" height="3" width="49.50186799501868" fill="#F4EDF2" opacity="0.25" />
<line x1="106.20174346201743" y1="84.5" x2="713.3001245330013" y2="84.5" stroke="#BABABA" stroke-width="1.5" />
<rect x="713.3001245330013" y="80" height="9" width="46.699875466998755" fill="#009CA2" stroke="#009CA2" stroke-width="0" opacity="0.9" />
<rect x="713.3001245330013" y="81.62" height="3" width="46.699875466998755" fill="#F4EDF2" opacity="0.25" />
<path d="M 760 80 C 764.5 80, 764.5 89, 760 89" fill="#009CA2" opacity="0.9" />
<rect x="13.735990037359901" y="80" height="9" width="0.933997509339975" fill="#FE0001" stroke="#FE0001" stroke-width="0" opacity="0.9" />
<rect x="739.4520547945206" y="80" height="9" width="0.933997509339975" fill="#A21B5D" stroke="#A21B5D" stroke-width="0" opacity="0.9" />
<path d="M 10 91 C 5.5 91, 5.5 100, 10 100" fill="#009CA2" opacity="0.9" />
<rect x="10" y="91" height="9" width="46.699875466998755" fill="#009CA2" stroke="#009CA2" stroke-width="0" opacity="0.9" />
<rect x="10" y="92.62" height="3" width="46.699875466998755" fill="#F4EDF2" opacity="0.25" />
<rect x="56.699875466998755" y="91" height="9" width="651.9302615193026" fill="#D1D1D1" stroke="#D1D1D1" stroke-width="0" opacity="0.9" />
<rect x="56.699875466998755" y="92.62" height="3" width="651.9302615193026" fill="#F4EDF2" opacity="0.25" />
<line x1="708.6301369863013" y1="95.5" x2="713.3001245330012" y2="95.5" stroke="#BABABA" stroke-width="1.5" />
<rect x="713.3001245330012" y="91" height="9" width="26.1519302615193" fill="#009CA2" stroke="#009CA2" stroke-width="0" opacity="0.9" />
<rect x="713.3001245330012" y="92.62" height="3" width="26.1519302615193" fill="#F4EDF2" opacity="0.25" />
<rect x="739.4520547945204" y="91" height="9" width="18.679950186799502" fill="#009CA2" stroke="#009CA2" stroke-width="0" opacity="0.9" />
<rect x="739.4520547945204" y="92.62" height="3" width="18.679950186799502" fill="#F4EDF2" opacity="0.25" />
<line x1="758.1320049813199" y1="95.5" x2="759.9999999999999" y2="95.5" stroke="#009CA2" stroke-width="1.5" />
<path d="M 759.9999999999999 91 C 764.4999999999999 91, 764.4999999999999 100, 759.9999999999999 100" fill="#009CA2" opacity="0.9" />
<line x1="739.4520547945204" y1="91" x2="739.4520547945204" y2="100" stroke="#000000" stroke-width="0.933997509339975" />
<rect x="13.735990037359901" y="91" height="9" width="0.933997509339975" fill="#9F1B60" stroke="#9F1B60" stroke-width="0" opacity="0.9" />
<rect x="739.4520547945206" y="91" height="9" width="0.933997509339975" fill="#0D45F2" stroke="#0D45F2" stroke-width="0" opacity="0.9" />
<path d="M 10 102 C 5.5 102, 5.5 111, 10 111" fill="#009CA2" opacity="0.9" />
<rect x="10" y="102" height="9" width="46.699875466998755" fill="#009CA2" stroke="#009CA2" stroke-width="0" opacity="0.9" />
<rect x="10" y="103.62" height="3" width="46.699875466998755" fill="#F4EDF2" opacity="0.25" />
<rect x="56.699875466998755" y="102" height="9" width="656.6002490660024" fill="#D1D1D1" stroke="#D1D1D1" stroke-width="0" opacity="0.9" />
<rect x="56.699875466998755" y="103.62" height="3" width="656.6002490660024" fill="#F4EDF2" opacity="0.25" />
<rect x="713.3001245330012" y="102" height="9" width="46.699875466998755" fill="#009CA2" stroke="#009CA2" stroke-width="0" opacity="0.9" />
<rect x="713.3001245330012" y="103.62" height="3" width="46.699875466998755" fill="#F4EDF2" opacity="0.25" />
<path d="M 759.9999999999999 102 C 764.4999999999999 102, 764.4999999999999 111, 759.9999999999999 111" fill="#009CA2" opacity="0.9" />
<rect x="13.735990037359901" y="102" height="9" width="0.933997509339975" fill="#F90206" stroke="#F90206" stroke-width="0" opacity="0.9" />
<rect x="519.0286425902864" y="102" height="9" width="0.933997509339975" fill="#AB1854" stroke="#AB1854" stroke-width="0" opacity="0.9" />
<rect x="739.4520547945206" y="102" height="9" width="0.933997509339975" fill="#FC0103" stroke="#FC0103" stroke-width="0" opacity="0.9" />
<rect x="10" y="117" height="12" width="12" fill="#1383C6" stroke="#1383C6" stroke-width="0" opacity="0.9" />
<text x="24" y="128" font-family="monospace" font-weight="bold" font-size="14px" >AAAAG</text>
<rect x="79" y="117" height="12" width="12" fill="#814ED1" stroke="#814ED1" stroke-width="0" opacity="0.9" />
<text x="93" y="128" font-family="monospace" font-weight="bold" font-size="14px" >AAAGG</text>
<rect x="148" y="117" height="12" width="12" fill="#E16A2C" stroke="#E16A2C" stroke-width="0" opacity="0.9" />
<text x="162" y="128" font-family="monospace" font-weight="bold" font-size="14px" >AAGGG</text>
<rect x="217" y="117" height="12" width="12" fill="#ED3981" stroke="#ED3981" stroke-width="0" opacity="0.9" />
<text x="231" y="128" font-family="monospace" font-weight="bold" font-size="14px" >AAGAG</text>
<rect x="286" y="117" height="12" width="12" fill="#EFCD17" stroke="#EFCD17" stroke-width="0" opacity="0.9" />
<text x="300" y="128" font-family="monospace" font-weight="bold" font-size="14px" >AGAGG</text>
<rect x="355" y="117" height="12" width="12" fill="#009D4E" stroke="#009D4E" stroke-width="0" opacity="0.9" />
<text x="369" y="128" font-family="monospace" font-weight="bold" font-size="14px" >AACGG</text>
<rect x="424" y="117" height="12" width="12" fill="#E3371E" stroke="#E3371E" stroke-width="0" opacity="0.9" />
<text x="438" y="128" font-family="monospace" font-weight="bold" font-size="14px" >GGGAC</text>
<rect x="493" y="117" height="12" width="12" fill="#F0E68C" stroke="#F0E68C" stroke-width="0" opacity="0.9" />
<text x="507" y="128" font-family="monospace" font-weight="bold" font-size="14px" >AAAGGG</text>
</svg>
