<?xml version="1.0"?>
<svg xmlns="http://www.w3.org/2000/svg" xmlns:xlink="http://www.w3.org/1999/xlink" width="770" height="145">
<rect width="100%" height="100%" fill="white"/>
<path d="M 10 14 C 5.5 14, 5.5 23, 10 23" fill="#009CA2" opacity="0.9" />
<rect x="10" y="14" height="9" width="146.484375" fill="#009CA2" stroke="#009CA2" stroke-width="0" opacity="0.9" />
<rect x="10" y="15.62" height="3" width="146.484375" fill="#F4EDF2" opacity="0.25" />
<rect x="156.484375" y="14" height="9" width="70.3125" fill="#1383C6" stroke="#1383C6" stroke-width="0" opacity="0.9" />
<rect x="156.484375" y="15.62" height="3" width="70.3125" fill="#F4EDF2" opacity="0.25" />
<rect x="226.796875" y="14" height="9" width="8.7890625" fill="#D1D1D1" stroke="#D1D1D1" stroke-width="0" opacity="0.9" />
<rect x="226.796875" y="15.62" height="3" width="8.7890625" fill="#F4EDF2" opacity="0.25" />
<rect x="235.5859375" y="14" height="9" width="43.9453125" fill="#1383C6" stroke="#1383C6" stroke-width="0" opacity="0.9" />
<rect x="235.5859375" y="15.62" height="3" width="43.9453125" fill="#F4EDF2" opacity="0.25" />
<line x1="279.53125" y1="18.5" x2="613.515625" y2="18.5" stroke="#BABABA" stroke-width="1.5" />
<rect x="613.515625" y="14" height="9" width="20.5078125" fill="#009CA2" stroke="#009CA2" stroke-width="0" opacity="0.9" />
<rect x="613.515625" y="15.62" height="3" width="20.5078125" fill="#F4EDF2" opacity="0.25" />
<rect x="634.0234375" y="14" height="9" width="123.046875" fill="#009CA2" stroke="#009CA2" stroke-width="0" opacity="0.9" />
<rect x="634.0234375" y="15.62" height="3" width="123.046875" fill="#F4EDF2" opacity="0.25" />
<line x1="757.0703125" y1="18.5" x2="760" y2="18.5" stroke="#009CA2" stroke-width="1.5" />
<path d="M 760 14 C 764.5 14, 764.5 23, 760 23" fill="#009CA2" opacity="0.9" />
<line x1="634.0234375" y1="14" x2="634.0234375" y2="23" stroke="#000000" stroke-width="2" />
<path d="M 10 25 C 5.5 25, 5.5 34, 10 34" fill="#009CA2" opacity="0.9" />
<rect x="10" y="25" height="9" width="146.484375" fill="#009CA2" stroke="#009CA2" stroke-width="0" opacity="0.9" />
<rect x="10" y="26.62" height="3" width="146.484375" fill="#F4EDF2" opacity="0.25" />
<rect x="156.484375" y="25" height="9" width="70.3125" fill="#1383C6" stroke="#1383C6" stroke-width="0" opacity="0.9" />
<rect x="156.484375" y="26.62" height="3" width="70.3125" fill="#F4EDF2" opacity="0.25" />
<rect x="226.796875" y="25" height="9" width="8.7890625" fill="#D1D1D1" stroke="#D1D1D1" stroke-width="0" opacity="0.9" />
<rect x="226.796875" y="26.62" height="3" width="8.7890625" fill="#F4EDF2" opacity="0.25" />
<rect x="235.5859375" y="25" height="9" width="43.9453125" fill="#1383C6" stroke="#1383C6" stroke-width="0" opacity="0.9" />
<rect x="235.5859375" y="26.62" height="3" width="43.9453125" fill="#F4EDF2" opacity="0.25" />
<line x1="279.53125" y1="29.5" x2="613.515625" y2="29.5" stroke="#BABABA" stroke-width="1.5" />
<rect x="613.515625" y="25" height="9" width="146.484375" fill="#009CA2" stroke="#009CA2" stroke-width="0" opacity="0.9" />
<rect x="613.515625" y="26.62" height="3" width="146.484375" fill="#F4EDF2" opacity="0.25" />
<path d="M 760 25 C 764.5 25, 764.5 34, 760 34" fill="#009CA2" opacity="0.9" />
<path d="M 10 36 C 5.5 36, 5.5 45, 10 45" fill="#009CA2" opacity="0.9" />
<rect x="10" y="36" height="9" width="146.484375" fill="#009CA2" stroke="#009CA2" stroke-width="0" opacity="0.9" />
<rect x="10" y="37.62" height="3" width="146.484375" fill="#F4EDF2" opacity="0.25" />
<rect x="156.484375" y="36" height="9" width="70.3125" fill="#1383C6" stroke="#1383C6" stroke-width="0" opacity="0.9" />
<rect x="156.484375" y="37.62" height="3" width="70.3125" fill="#F4EDF2" opacity="0.25" />
<rect x="226.796875" y="36" height="9" width="8.7890625" fill="#D1D1D1" stroke="#D1D1D1" stroke-width="0" opacity="0.9" />
<rect x="226.796875" y="37.62" height="3" width="8.7890625" fill="#F4EDF2" opacity="0.25" />
<rect x="235.5859375" y="36" height="9" width="43.9453125" fill="#1383C6" stroke="#1383C6" stroke-width="0" opacity="0.9" />
<rect x="235.5859375" y="37.62" height="3" width="43.9453125" fill="#F4EDF2" opacity="0.25" />
<line x1="279.53125" y1="40.5" x2="613.515625" y2="40.5" stroke="#BABABA" stroke-width="1.5" />
<rect x="613.515625" y="36" height="9" width="146.484375" fill="#009CA2" stroke="#009CA2" stroke-width="0" opacity="0.9" />
<rect x="613.515625" y="37.62" height="3" width="146.484375" fill="#F4EDF2" opacity="0.25" />
<path d="M 760 36 C 764.5 36, 764.5 45, 760 45" fill="#009CA2" opacity="0.9" />
<path d="M 10 47 C 5.5 47, 5.5 56, 10 56" fill="#009CA2" opacity="0.9" />
<rect x="10" y="47" height="9" width="146.484375" fill="#009CA2" stroke="#009CA2" stroke-width="0" opacity="0.9" />
<rect x="10" y="48.62" height="3" width="146.484375" fill="#F4EDF2" opacity="0.25" />
<rect x="156.484375" y="47" height="9" width="70.3125" fill="#1383C6" stroke="#1383C6" stroke-width="0" opacity="0.9" />
<rect x="156.484375" y="48.62" height="3" width="70.3125" fill="#F4EDF2" opacity="0.25" />
<rect x="226.796875" y="47" height="9" width="8.7890625" fill="#D1D1D1" stroke="#D1D1D1" stroke-width="0" opacity="0.9" />
<rect x="226.796875" y="48.62" height="3" width="8.7890625" fill="#F4EDF2" opacity="0.25" />
<rect x="235.5859375" y="47" height="9" width="43.9453125" fill="#1383C6" stroke="#1383C6" stroke-width="0" opacity="0.9" />
<rect x="235.5859375" y="48.62" height="3" width="43.9453125" fill="#F4EDF2" opacity="0.25" />
<line x1="279.53125" y1="51.5" x2="613.515625" y2="51.5" stroke="#BABABA" stroke-width="1.5" />
<rect x="613.515625" y="47" height="9" width="146.484375" fill="#009CA2" stroke="#009CA2" stroke-width="0" opacity="0.9" />
<rect x="613.515625" y="48.62" height="3" width="146.484375" fill="#F4EDF2" opacity="0.25" />
<path d="M 760 47 C 764.5 47, 764.5 56, 760 56" fill="#009CA2" opacity="0.9" />
<path d="M 10 58 C 5.5 58, 5.5 67, 10 67" fill="#009CA2" opacity="0.9" />
<rect x="10" y="58" height="9" width="146.484375" fill="#009CA2" stroke="#009CA2" stroke-width="0" opacity="0.9" />
<rect x="10" y="59.62" height="3" width="146.484375" fill="#F4EDF2" opacity="0.25" />
<rect x="156.484375" y="58" height="9" width="70.3125" fill="#1383C6" stroke="#1383C6" stroke-width="0" opacity="0.9" />
<rect x="156.484375" y="59.62" height="3" width="70.3125" fill="#F4EDF2" opacity="0.25" />
<rect x="226.796875" y="58" height="9" width="8.7890625" fill="#D1D1D1" stroke="#D1D1D1" stroke-width="0" opacity="0.9" />
<rect x="226.796875" y="59.62" height="3" width="8.7890625" fill="#F4EDF2" opacity="0.25" />
<rect x="235.5859375" y="58" height="9" width="43.9453125" fill="#1383C6" stroke="#1383C6" stroke-width="0" opacity="0.9" />
<rect x="235.5859375" y="59.62" height="3" width="43.9453125" fill="#F4EDF2" opacity="0.25" />
<line x1="279.53125" y1="62.5" x2="613.515625" y2="62.5" stroke="#BABABA" stroke-width="1.5" />
<rect x="613.515625" y="58" height="9" width="146.484375" fill="#009CA2" stroke="#009CA2" stroke-width="0" opacity="0.9" />
<rect x="613.515625" y="59.62" height="3" width="146.484375" fill="#F4EDF2" opacity="0.25" />
<path d="M 760 58 C 764.5 58, 764.5 67, 760 67" fill="#009CA2" opacity="0.9" />
<path d="M 10 69 C 5.5 69, 5.5 78, 10 78" fill="#009CA2" opacity="0.9" />
<rect x="10" y="69" height="9" width="146.484375" fill="#009CA2" stroke="#009CA2" stroke-width="0" opacity="0.9" />
<rect x="10" y="70.62" height="3" width="146.484375" fill="#F4EDF2" opacity="0.25" />
<rect x="156.484375" y="69" height="9" width="70.3125" fill="#1383C6" stroke="#1383C6" stroke-width="0" opacity="0.9" />
<rect x="156.484375" y="70.62" height="3" width="70.3125" fill="#F4EDF2" opacity="0.25" />
<rect x="226.796875" y="69" height="9" width="8.7890625" fill="#D1D1D1" stroke="#D1D1D1" stroke-width="0" opacity="0.9" />
<rect x="226.796875" y="70.62" height="3" width="8.7890625" fill="#F4EDF2" opacity="0.25" />
<rect x="235.5859375" y="69" height="9" width="43.9453125" fill="#1383C6" stroke="#1383C6" stroke-width="0" opacity="0.9" />
<rect x="235.5859375" y="70.62" height="3" width="43.9453125" fill="#F4EDF2" opacity="0.25" />
<line x1="279.53125" y1="73.5" x2="613.515625" y2="73.5" stroke="#BABABA" stroke-width="1.5" />
<rect x="613.515625" y="69" height="9" width="146.484375" fill="#009CA2" stroke="#009CA2" stroke-width="0" opacity="0.9" />
<rect x="613.515625" y="70.62" height="3" width="146.484375" fill="#F4EDF2" opacity="0.25" />
<path d="M 760 69 C 764.5 69, 764.5 78, 760 78" fill="#009CA2" opacity="0.9" />
<path d="M 10 80 C 5.5 80, 5.5 89, 10 89" fill="#009CA2" opacity="0.9" />
<rect x="10" y="80" height="9" width="146.484375" fill="#009CA2" stroke="#009CA2" stroke-width="0" opacity="0.9" />
<rect x="10" y="81.62" height="3" width="146.484375" fill="#F4EDF2" opacity="0.25" />
<rect x="156.484375" y="80" height="9" width="70.3125" fill="#1383C6" stroke="#1383C6" stroke-width="0" opacity="0.9" />
<rect x="156.484375" y="81.62" height="3" width="70.3125" fill="#F4EDF2" opacity="0.25" />
<rect x="226.796875" y="80" height="9" width="8.7890625" fill="#D1D1D1" stroke="#D1D1D1" stroke-width="0" opacity="0.9" />
<rect x="226.796875" y="81.62" height="3" width="8.7890625" fill="#F4EDF2" opacity="0.25" />
<rect x="235.5859375" y="80" height="9" width="43.9453125" fill="#1383C6" stroke="#1383C6" stroke-width="0" opacity="0.9" />
<rect x="235.5859375" y="81.62" height="3" width="43.9453125" fill="#F4EDF2" opacity="0.25" />
<line x1="279.53125" y1="84.5" x2="613.515625" y2="84.5" stroke="#BABABA" stroke-width="1.5" />
<rect x="613.515625" y="80" height="9" width="146.484375" fill="#009CA2" stroke="#009CA2" stroke-width="0" opacity="0.9" />
<rect x="613.515625" y="81.62" height="3" width="146.484375" fill="#F4EDF2" opacity="0.25" />
<path d="M 760 80 C 764.5 80, 764.5 89, 760 89" fill="#009CA2" opacity="0.9" />
<path d="M 10 91 C 5.5 91, 5.5 100, 10 100" fill="#009CA2" opacity="0.9" />
<rect x="10" y="91" height="9" width="146.484375" fill="#009CA2" stroke="#009CA2" stroke-width="0" opacity="0.9" />
<rect x="10" y="92.62" height="3" width="146.484375" fill="#F4EDF2" opacity="0.25" />
<rect x="156.484375" y="91" height="9" width="439.453125" fill="#1383C6" stroke="#1383C6" stroke-width="0" opacity="0.9" />
<rect x="156.484375" y="92.62" height="3" width="439.453125" fill="#F4EDF2" opacity="0.25" />
<line x1="595.9375" y1="95.5" x2="613.515625" y2="95.5" stroke="#BABABA" stroke-width="1.5" />
<rect x="613.515625" y="91" height="9" width="2.9296875" fill="#BABABA" stroke="#BABABA" stroke-width="0" opacity="0.9" />
<rect x="613.515625" y="92.62" height="3" width="2.9296875" fill="#F4EDF2" opacity="0.25" />
<rect x="616.4453125" y="91" height="9" width="2.9296875" fill="#009CA2" stroke="#009CA2" stroke-width="0" opacity="0.9" />
<rect x="616.4453125" y="92.62" height="3" width="2.9296875" fill="#F4EDF2" opacity="0.25" />
<rect x="619.375" y="91" height="9" width="2.9296875" fill="#BABABA" stroke="#BABABA" stroke-width="0" opacity="0.9" />
<rect x="619.375" y="92.62" height="3" width="2.9296875" fill="#F4EDF2" opacity="0.25" />
<rect x="622.3046875" y="91" height="9" width="8.7890625" fill="#009CA2" stroke="#009CA2" stroke-width="0" opacity="0.9" />
<rect x="622.3046875" y="92.62" height="3" width="8.7890625" fill="#F4EDF2" opacity="0.25" />
<rect x="631.09375" y="91" height="9" width="2.9296875" fill="#BABABA" stroke="#BABABA" stroke-width="0" opacity="0.9" />
<rect x="631.09375" y="92.62" height="3" width="2.9296875" fill="#F4EDF2" opacity="0.25" />
<rect x="634.0234375" y="91" height="9" width="125.9765625" fill="#009CA2" stroke="#009CA2" stroke-width="0" opacity="0.9" />
<rect x="634.0234375" y="92.62" height="3" width="125.9765625" fill="#F4EDF2" opacity="0.25" />
<path d="M 760 91 C 764.5 91, 764.5 100, 760 100" fill="#009CA2" opacity="0.9" />
<path d="M 10 102 C 5.5 102, 5.5 111, 10 111" fill="#009CA2" opacity="0.9" />
<rect x="10" y="102" height="9" width="146.484375" fill="#009CA2" stroke="#009CA2" stroke-width="0" opacity="0.9" />
<rect x="10" y="103.62" height="3" width="146.484375" fill="#F4EDF2" opacity="0.25" />
<rect x="156.484375" y="102" height="9" width="43.9453125" fill="#1383C6" stroke="#1383C6" stroke-width="0" opacity="0.9" />
<rect x="156.484375" y="103.62" height="3" width="43.9453125" fill="#F4EDF2" opacity="0.25" />
<rect x="200.4296875" y="102" height="9" width="2.9296875" fill="#D1D1D1" stroke="#D1D1D1" stroke-width="0" opacity="0.9" />
<rect x="200.4296875" y="103.62" height="3" width="2.9296875" fill="#F4EDF2" opacity="0.25" />
<rect x="203.359375" y="102" height="9" width="43.9453125" fill="#1383C6" stroke="#1383C6" stroke-width="0" opacity="0.9" />
<rect x="203.359375" y="103.62" height="3" width="43.9453125" fill="#F4EDF2" opacity="0.25" />
<rect x="247.3046875" y="102" height="9" width="2.9296875" fill="#D1D1D1" stroke="#D1D1D1" stroke-width="0" opacity="0.9" />
<rect x="247.3046875" y="103.62" height="3" width="2.9296875" fill="#F4EDF2" opacity="0.25" />
<rect x="250.234375" y="102" height="9" width="52.734375" fill="#1383C6" stroke="#1383C6" stroke-width="0" opacity="0.9" />
<rect x="250.234375" y="103.62" height="3" width="52.734375" fill="#F4EDF2" opacity="0.25" />
<rect x="302.96875" y="102" height="9" width="2.9296875" fill="#D1D1D1" stroke="#D1D1D1" stroke-width="0" opacity="0.9" />
<rect x="302.96875" y="103.62" height="3" width="2.9296875" fill="#F4EDF2" opacity="0.25" />
<rect x="305.8984375" y="102" height="9" width="61.5234375" fill="#1383C6" stroke="#1383C6" stroke-width="0" opacity="0.9" />
<rect x="305.8984375" y="103.62" height="3" width="61.5234375" fill="#F4EDF2" opacity="0.25" />
<rect x="367.421875" y="102" height="9" width="2.9296875" fill="#D1D1D1" stroke="#D1D1D1" stroke-width="0" opacity="0.9" />
<rect x="367.421875" y="103.62" height="3" width="2.9296875" fill="#F4EDF2" opacity="0.25" />
<rect x="370.3515625" y="102" height="9" width="237.3046875" fill="#1383C6" stroke="#1383C6" stroke-width="0" opacity="0.9" />
<rect x="370.3515625" y="103.62" height="3" width="237.3046875" fill="#F4EDF2" opacity="0.25" />
<line x1="607.65625" y1="106.5" x2="613.515625" y2="106.5" stroke="#BABABA" stroke-width="1.5" />
<rect x="613.515625" y="102" height="9" width="2.9296875" fill="#BABABA" stroke="#BABABA" stroke-width="0" opacity="0.9" />
<rect x="613.515625" y="103.62" height="3" width="2.9296875" fill="#F4EDF2" opacity="0.25" />
<rect x="616.4453125" y="102" height="9" width="2.9296875" fill="#009CA2" stroke="#009CA2" stroke-width="0" opacity="0.9" />
<rect x="616.4453125" y="103.62" height="3" width="2.9296875" fill="#F4EDF2" opacity="0.25" />
<rect x="619.375" y="102" height="9" width="2.9296875" fill="#BABABA" stroke="#BABABA" stroke-width="0" opacity="0.9" />
<rect x="619.375" y="103.62" height="3" width="2.9296875" fill="#F4EDF2" opacity="0.25" />
<rect x="622.3046875" y="102" height="9" width="8.7890625" fill="#009CA2" stroke="#009CA2" stroke-width="0" opacity="0.9" />
<rect x="622.3046875" y="103.62" height="3" width="8.7890625" fill="#F4EDF2" opacity="0.25" />
<rect x="631.09375" y="102" height="9" width="2.9296875" fill="#BABABA" stroke="#BABABA" stroke-width="0" opacity="0.9" />
<rect x="631.09375" y="103.62" height="3" width="2.9296875" fill="#F4EDF2" opacity="0.25" />
<rect x="634.0234375" y="102" height="9" width="125.9765625" fill="#009CA2" stroke="#009CA2" stroke-width="0" opacity="0.9" />
<rect x="634.0234375" y="103.62" height="3" width="125.9765625" fill="#F4EDF2" opacity="0.25" />
<path d="M 760 102 C 764.5 102, 764.5 111, 760 111" fill="#009CA2" opacity="0.9" />
<path d="M 10 113 C 5.5 113, 5.5 122, 10 122" fill="#009CA2" opacity="0.9" />
<rect x="10" y="113" height="9" width="146.484375" fill="#009CA2" stroke="#009CA2" stroke-width="0" opacity="0.9" />
<rect x="10" y="114.62" height="3" width="146.484375" fill="#F4EDF2" opacity="0.25" />
<rect x="156.484375" y="113" height="9" width="8.7890625" fill="#1383C6" stroke="#1383C6" stroke-width="0" opacity="0.9" />
<rect x="156.484375" y="114.62" height="3" width="8.7890625" fill="#F4EDF2" opacity="0.25" />
<rect x="165.2734375" y="113" height="9" width="2.9296875" fill="#D1D1D1" stroke="#D1D1D1" stroke-width="0" opacity="0.9" />
<rect x="165.2734375" y="114.62" height="3" width="2.9296875" fill="#F4EDF2" opacity="0.25" />
<rect x="168.203125" y="113" height="9" width="149.4140625" fill="#1383C6" stroke="#1383C6" stroke-width="0" opacity="0.9" />
<rect x="168.203125" y="114.62" height="3" width="149.4140625" fill="#F4EDF2" opacity="0.25" />
<rect x="317.6171875" y="113" height="9" width="2.9296875" fill="#D1D1D1" stroke="#D1D1D1" stroke-width="0" opacity="0.9" />
<rect x="317.6171875" y="114.62" height="3" width="2.9296875" fill="#F4EDF2" opacity="0.25" />
<rect x="320.546875" y="113" height="9" width="193.359375" fill="#1383C6" stroke="#1383C6" stroke-width="0" opacity="0.9" />
<rect x="320.546875" y="114.62" height="3" width="193.359375" fill="#F4EDF2" opacity="0.25" />
<rect x="513.90625" y="113" height="9" width="8.7890625" fill="#D1D1D1" stroke="#D1D1D1" stroke-width="0" opacity="0.9" />
<rect x="513.90625" y="114.62" height="3" width="8.7890625" fill="#F4EDF2" opacity="0.25" />
<rect x="522.6953125" y="113" height="9" width="87.890625" fill="#1383C6" stroke="#1383C6" stroke-width="0" opacity="0.9" />
<rect x="522.6953125" y="114.62" height="3" width="87.890625" fill="#F4EDF2" opacity="0.25" />
<rect x="610.5859375" y="113" height="9" width="2.9296875" fill="#D1D1D1" stroke="#D1D1D1" stroke-width="0" opacity="0.9" />
<rect x="610.5859375" y="114.62" height="3" width="2.9296875" fill="#F4EDF2" opacity="0.25" />
<rect x="613.515625" y="113" height="9" width="2.9296875" fill="#BABABA" stroke="#BABABA" stroke-width="0" opacity="0.9" />
<rect x="613.515625" y="114.62" height="3" width="2.9296875" fill="#F4EDF2" opacity="0.25" />
<rect x="616.4453125" y="113" height="9" width="2.9296875" fill="#009CA2" stroke="#009CA2" stroke-width="0" opacity="0.9" />
<rect x="616.4453125" y="114.62" height="3" width="2.9296875" fill="#F4EDF2" opacity="0.25" />
<rect x="619.375" y="113" height="9" width="2.9296875" fill="#BABABA" stroke="#BABABA" stroke-width="0" opacity="0.9" />
<rect x="619.375" y="114.62" height="3" width="2.9296875" fill="#F4EDF2" opacity="0.25" />
<rect x="622.3046875" y="113" height="9" width="8.7890625" fill="#009CA2" stroke="#009CA2" stroke-width="0" opacity="0.9" />
<rect x="622.3046875" y="114.62" height="3" width="8.7890625" fill="#F4EDF2" opacity="0.25" />
<rect x="631.09375" y="113" height="9" width="2.9296875" fill="#BABABA" stroke="#BABABA" stroke-width="0" opacity="0.9" />
<rect x="631.09375" y="114.62" height="3" width="2.9296875" fill="#F4EDF2" opacity="0.25" />
<rect x="634.0234375" y="113" height="9" width="49.8046875" fill="#009CA2" stroke="#009CA2" stroke-width="0" opacity="0.9" />
<rect x="634.0234375" y="114.62" height="3" width="49.8046875" fill="#F4EDF2" opacity="0.25" />
<rect x="683.828125" y="113" height="9" width="73.2421875" fill="#009CA2" stroke="#009CA2" stroke-width="0" opacity="0.9" />
<rect x="683.828125" y="114.62" height="3" width="73.2421875" fill="#F4EDF2" opacity="0.25" />
<line x1="757.0703125" y1="117.5" x2="760" y2="117.5" stroke="#009CA2" stroke-width="1.5" />
<path d="M 760 113 C 764.5 113, 764.5 122, 760 122" fill="#009CA2" opacity="0.9" />
<line x1="683.828125" y1="113" x2="683.828125" y2="122" stroke="#000000" stroke-width="2" />
<rect x="10" y="128" height="12" width="12" fill="#1383C6" stroke="#1383C6" stroke-width="0" opacity="0.9" />
<text x="24" y="139" font-family="monospace" font-weight="bold" font-size="14px" >GCC</text>
</svg>
