<?xml version="1.0"?>
<svg xmlns="http://www.w3.org/2000/svg" xmlns:xlink="http://www.w3.org/1999/xlink" width="770.0000000000001" height="178">
<rect width="100%" height="100%" fill="white"/>
<path d="M 10 14 C 5.5 14, 5.5 23, 10 23" fill="#009CA2" opacity="0.9" />
<line x1="10" y1="18.5" x2="13.968253968253968" y2="18.5" stroke="#009CA2" stroke-width="1.5" />
<rect x="13.968253968253968" y="14" height="9" width="15.873015873015873" fill="#009CA2" stroke="#009CA2" stroke-width="0" opacity="0.9" />
<rect x="13.968253968253968" y="15.62" height="3" width="15.873015873015873" fill="#F4EDF2" opacity="0.25" />
<rect x="29.841269841269842" y="14" height="9" width="3.9682539682539684" fill="#BABABA" stroke="#BABABA" stroke-width="0" opacity="0.9" />
<rect x="29.841269841269842" y="15.62" height="3" width="3.9682539682539684" fill="#F4EDF2" opacity="0.25" />
<rect x="33.80952380952381" y="14" height="9" width="23.80952380952381" fill="#009CA2" stroke="#009CA2" stroke-width="0" opacity="0.9" />
<rect x="33.80952380952381" y="15.62" height="3" width="23.80952380952381" fill="#F4EDF2" opacity="0.25" />
<rect x="57.61904761904762" y="14" height="9" width="150.79365079365078" fill="#009CA2" stroke="#009CA2" stroke-width="0" opacity="0.9" />
<rect x="57.61904761904762" y="15.62" height="3" width="150.79365079365078" fill="#F4EDF2" opacity="0.25" />
<rect x="208.4126984126984" y="14" height="9" width="11.904761904761905" fill="#D1D1D1" stroke="#D1D1D1" stroke-width="0" opacity="0.9" />
<rect x="208.4126984126984" y="15.62" height="3" width="11.904761904761905" fill="#F4EDF2" opacity="0.25" />
<rect x="220.3174603174603" y="14" height="9" width="59.523809523809526" fill="#1383C6" stroke="#1383C6" stroke-width="0" opacity="0.9" />
<rect x="220.3174603174603" y="15.62" height="3" width="59.523809523809526" fill="#F4EDF2" opacity="0.25" />
<rect x="279.8412698412698" y="14" height="9" width="3.9682539682539684" fill="#D1D1D1" stroke="#D1D1D1" stroke-width="0" opacity="0.9" />
<rect x="279.8412698412698" y="15.62" height="3" width="3.9682539682539684" fill="#F4EDF2" opacity="0.25" />
<line x1="283.8095238095238" y1="18.5" x2="561.5873015873016" y2="18.5" stroke="#BABABA" stroke-width="1.5" />
<rect x="561.5873015873016" y="14" height="9" width="23.80952380952381" fill="#009CA2" stroke="#009CA2" stroke-width="0" opacity="0.9" />
<rect x="561.5873015873016" y="15.62" height="3" width="23.80952380952381" fill="#F4EDF2" opacity="0.25" />
<rect x="585.3968253968254" y="14" height="9" width="166.66666666666669" fill="#009CA2" stroke="#009CA2" stroke-width="0" opacity="0.9" />
<rect x="585.3968253968254" y="15.62" height="3" width="166.66666666666669" fill="#F4EDF2" opacity="0.25" />
<line x1="752.063492063492" y1="18.5" x2="756.031746031746" y2="18.5" stroke="#009CA2" stroke-width="1.5" />
<rect x="756.031746031746" y="14" height="9" width="3.9682539682539684" fill="#009CA2" stroke="#009CA2" stroke-width="0" opacity="0.9" />
<rect x="756.031746031746" y="15.62" height="3" width="3.9682539682539684" fill="#F4EDF2" opacity="0.25" />
<path d="M 760 14 C 764.5 14, 764.5 23, 760 23" fill="#009CA2" opacity="0.9" />
<line x1="57.61904761904762" y1="14" x2="57.61904761904762" y2="23" stroke="#000000" stroke-width="2" />
<line x1="585.3968253968254" y1="14" x2="585.3968253968254" y2="23" stroke="#000000" stroke-width="2" />
<path d="M 10 25 C 5.5 25, 5.5 34, 10 34" fill="#009CA2" opacity="0.9" />
<rect x="10" y="25" height="9" width="19.841269841269842" fill="#009CA2" stroke="#009CA2" stroke-width="0" opacity="0.9" />
<rect x="10" y="26.62" height="3" width="19.841269841269842" fill="#F4EDF2" opacity="0.25" />
<rect x="29.841269841269842" y="25" height="9" width="3.9682539682539684" fill="#BABABA" stroke="#BABABA" stroke-width="0" opacity="0.9" />
<rect x="29.841269841269842" y="26.62" height="3" width="3.9682539682539684" fill="#F4EDF2" opacity="0.25" />
<rect x="33.80952380952381" y="25" height="9" width="174.6031746031746" fill="#009CA2" stroke="#009CA2" stroke-width="0" opacity="0.9" />
<rect x="33.80952380952381" y="26.62" height="3" width="174.6031746031746" fill="#F4EDF2" opacity="0.25" />
<rect x="208.41269841269843" y="25" height="9" width="11.904761904761905" fill="#D1D1D1" stroke="#D1D1D1" stroke-width="0" opacity="0.9" />
<rect x="208.41269841269843" y="26.62" height="3" width="11.904761904761905" fill="#F4EDF2" opacity="0.25" />
<rect x="220.31746031746033" y="25" height="9" width="59.523809523809526" fill="#1383C6" stroke="#1383C6" stroke-width="0" opacity="0.9" />
<rect x="220.31746031746033" y="26.62" height="3" width="59.523809523809526" fill="#F4EDF2" opacity="0.25" />
<rect x="279.8412698412699" y="25" height="9" width="3.9682539682539684" fill="#D1D1D1" stroke="#D1D1D1" stroke-width="0" opacity="0.9" />
<rect x="279.8412698412699" y="26.62" height="3" width="3.9682539682539684" fill="#F4EDF2" opacity="0.25" />
<line x1="283.80952380952385" y1="29.5" x2="561.5873015873017" y2="29.5" stroke="#BABABA" stroke-width="1.5" />
<rect x="561.5873015873017" y="25" height="9" width="198.41269841269843" fill="#009CA2" stroke="#009CA2" stroke-width="0" opacity="0.9" />
<rect x="561.5873015873017" y="26.62" height="3" width="198.41269841269843" fill="#F4EDF2" opacity="0.25" />
<path d="M 760.0000000000001 25 C 764.5000000000001 25, 764.5000000000001 34, 760.0000000000001 34" fill="#009CA2" opacity="0.9" />
<path d="M 10 36 C 5.5 36, 5.5 45, 10 45" fill="#009CA2" opacity="0.9" />
<rect x="10" y="36" height="9" width="19.841269841269842" fill="#009CA2" stroke="#009CA2" stroke-width="0" opacity="0.9" />
<rect x="10" y="37.62" height="3" width="19.841269841269842" fill="#F4EDF2" opacity="0.25" />
<rect x="29.841269841269842" y="36" height="9" width="3.9682539682539684" fill="#BABABA" stroke="#BABABA" stroke-width="0" opacity="0.9" />
<rect x="29.841269841269842" y="37.62" height="3" width="3.9682539682539684" fill="#F4EDF2" opacity="0.25" />
<rect x="33.80952380952381" y="36" height="9" width="150.79365079365078" fill="#009CA2" stroke="#009CA2" stroke-width="0" opacity="0.9" />
<rect x="33.80952380952381" y="37.62" height="3" width="150.79365079365078" fill="#F4EDF2" opacity="0.25" />
<line x1="184.60317460317458" y1="40.5" x2="188.57142857142856" y2="40.5" stroke="#009CA2" stroke-width="1.5" />
<rect x="188.57142857142856" y="36" height="9" width="19.841269841269842" fill="#009CA2" stroke="#009CA2" stroke-width="0" opacity="0.9" />
<rect x="188.57142857142856" y="37.62" height="3" width="19.841269841269842" fill="#F4EDF2" opacity="0.25" />
<rect x="208.4126984126984" y="36" height="9" width="11.904761904761905" fill="#D1D1D1" stroke="#D1D1D1" stroke-width="0" opacity="0.9" />
<rect x="208.4126984126984" y="37.62" height="3" width="11.904761904761905" fill="#F4EDF2" opacity="0.25" />
<rect x="220.3174603174603" y="36" height="9" width="59.523809523809526" fill="#1383C6" stroke="#1383C6" stroke-width="0" opacity="0.9" />
<rect x="220.3174603174603" y="37.62" height="3" width="59.523809523809526" fill="#F4EDF2" opacity="0.25" />
<rect x="279.8412698412698" y="36" height="9" width="3.9682539682539684" fill="#D1D1D1" stroke="#D1D1D1" stroke-width="0" opacity="0.9" />
<rect x="279.8412698412698" y="37.62" height="3" width="3.9682539682539684" fill="#F4EDF2" opacity="0.25" />
<line x1="283.8095238095238" y1="40.5" x2="561.5873015873016" y2="40.5" stroke="#BABABA" stroke-width="1.5" />
<rect x="561.5873015873016" y="36" height="9" width="178.57142857142858" fill="#009CA2" stroke="#009CA2" stroke-width="0" opacity="0.9" />
<rect x="561.5873015873016" y="37.62" height="3" width="178.57142857142858" fill="#F4EDF2" opacity="0.25" />
<rect x="740.1587301587301" y="36" height="9" width="3.9682539682539684" fill="#BABABA" stroke="#BABABA" stroke-width="0" opacity="0.9" />
<rect x="740.1587301587301" y="37.62" height="3" width="3.9682539682539684" fill="#F4EDF2" opacity="0.25" />
<rect x="744.1269841269841" y="36" height="9" width="15.873015873015873" fill="#009CA2" stroke="#009CA2" stroke-width="0" opacity="0.9" />
<rect x="744.1269841269841" y="37.62" height="3" width="15.873015873015873" fill="#F4EDF2" opacity="0.25" />
<path d="M 760 36 C 764.5 36, 764.5 45, 760 45" fill="#009CA2" opacity="0.9" />
<line x1="10" y1="36" x2="10" y2="45" stroke="#000000" stroke-width="2" />
<path d="M 10 47 C 5.5 47, 5.5 56, 10 56" fill="#009CA2" opacity="0.9" />
<rect x="10" y="47" height="9" width="19.841269841269842" fill="#009CA2" stroke="#009CA2" stroke-width="0" opacity="0.9" />
<rect x="10" y="48.62" height="3" width="19.841269841269842" fill="#F4EDF2" opacity="0.25" />
<rect x="29.841269841269842" y="47" height="9" width="3.9682539682539684" fill="#BABABA" stroke="#BABABA" stroke-width="0" opacity="0.9" />
<rect x="29.841269841269842" y="48.62" height="3" width="3.9682539682539684" fill="#F4EDF2" opacity="0.25" />
<rect x="33.80952380952381" y="47" height="9" width="174.6031746031746" fill="#009CA2" stroke="#009CA2" stroke-width="0" opacity="0.9" />
<rect x="33.80952380952381" y="48.62" height="3" width="174.6031746031746" fill="#F4EDF2" opacity="0.25" />
<rect x="208.41269841269843" y="47" height="9" width="11.904761904761905" fill="#D1D1D1" stroke="#D1D1D1" stroke-width="0" opacity="0.9" />
<rect x="208.41269841269843" y="48.62" height="3" width="11.904761904761905" fill="#F4EDF2" opacity="0.25" />
<rect x="220.31746031746033" y="47" height="9" width="59.523809523809526" fill="#1383C6" stroke="#1383C6" stroke-width="0" opacity="0.9" />
<rect x="220.31746031746033" y="48.62" height="3" width="59.523809523809526" fill="#F4EDF2" opacity="0.25" />
<rect x="279.8412698412699" y="47" height="9" width="3.9682539682539684" fill="#D1D1D1" stroke="#D1D1D1" stroke-width="0" opacity="0.9" />
<rect x="279.8412698412699" y="48.62" height="3" width="3.9682539682539684" fill="#F4EDF2" opacity="0.25" />
<line x1="283.80952380952385" y1="51.5" x2="561.5873015873017" y2="51.5" stroke="#BABABA" stroke-width="1.5" />
<rect x="561.5873015873017" y="47" height="9" width="198.41269841269843" fill="#009CA2" stroke="#009CA2" stroke-width="0" opacity="0.9" />
<rect x="561.5873015873017" y="48.62" height="3" width="198.41269841269843" fill="#F4EDF2" opacity="0.25" />
<path d="M 760.0000000000001 47 C 764.5000000000001 47, 764.5000000000001 56, 760.0000000000001 56" fill="#009CA2" opacity="0.9" />
<path d="M 10 58 C 5.5 58, 5.5 67, 10 67" fill="#009CA2" opacity="0.9" />
<line x1="10" y1="62.5" x2="13.968253968253968" y2="62.5" stroke="#009CA2" stroke-width="1.5" />
<rect x="13.968253968253968" y="58" height="9" width="15.873015873015873" fill="#009CA2" stroke="#009CA2" stroke-width="0" opacity="0.9" />
<rect x="13.968253968253968" y="59.62" height="3" width="15.873015873015873" fill="#F4EDF2" opacity="0.25" />
<rect x="29.841269841269842" y="58" height="9" width="3.9682539682539684" fill="#BABABA" stroke="#BABABA" stroke-width="0" opacity="0.9" />
<rect x="29.841269841269842" y="59.62" height="3" width="3.9682539682539684" fill="#F4EDF2" opacity="0.25" />
<rect x="33.80952380952381" y="58" height="9" width="23.80952380952381" fill="#009CA2" stroke="#009CA2" stroke-width="0" opacity="0.9" />
<rect x="33.80952380952381" y="59.62" height="3" width="23.80952380952381" fill="#F4EDF2" opacity="0.25" />
<rect x="57.61904761904762" y="58" height="9" width="150.79365079365078" fill="#009CA2" stroke="#009CA2" stroke-width="0" opacity="0.9" />
<rect x="57.61904761904762" y="59.62" height="3" width="150.79365079365078" fill="#F4EDF2" opacity="0.25" />
<rect x="208.4126984126984" y="58" height="9" width="11.904761904761905" fill="#D1D1D1" stroke="#D1D1D1" stroke-width="0" opacity="0.9" />
<rect x="208.4126984126984" y="59.62" height="3" width="11.904761904761905" fill="#F4EDF2" opacity="0.25" />
<rect x="220.3174603174603" y="58" height="9" width="59.523809523809526" fill="#1383C6" stroke="#1383C6" stroke-width="0" opacity="0.9" />
<rect x="220.3174603174603" y="59.62" height="3" width="59.523809523809526" fill="#F4EDF2" opacity="0.25" />
<rect x="279.8412698412698" y="58" height="9" width="3.9682539682539684" fill="#D1D1D1" stroke="#D1D1D1" stroke-width="0" opacity="0.9" />
<rect x="279.8412698412698" y="59.62" height="3" width="3.9682539682539684" fill="#F4EDF2" opacity="0.25" />
<line x1="283.8095238095238" y1="62.5" x2="561.5873015873016" y2="62.5" stroke="#BABABA" stroke-width="1.5" />
<rect x="561.5873015873016" y="58" height="9" width="198.41269841269843" fill="#009CA2" stroke="#009CA2" stroke-width="0" opacity="0.9" />
<rect x="561.5873015873016" y="59.62" height="3" width="198.41269841269843" fill="#F4EDF2" opacity="0.25" />
<path d="M 760 58 C 764.5 58, 764.5 67, 760 67" fill="#009CA2" opacity="0.9" />
<line x1="57.61904761904762" y1="58" x2="57.61904761904762" y2="67" stroke="#000000" stroke-width="2" />
<path d="M 10 69 C 5.5 69, 5.5 78, 10 78" fill="#009CA2" opacity="0.9" />
<rect x="10" y="69" height="9" width="19.841269841269842" fill="#009CA2" stroke="#009CA2" stroke-width="0" opacity="0.9" />
<rect x="10" y="70.62" height="3" width="19.841269841269842" fill="#F4EDF2" opacity="0.25" />
<rect x="29.841269841269842" y="69" height="9" width="3.9682539682539684" fill="#BABABA" stroke="#BABABA" stroke-width="0" opacity="0.9" />
<rect x="29.841269841269842" y="70.62" height="3" width="3.9682539682539684" fill="#F4EDF2" opacity="0.25" />
<rect x="33.80952380952381" y="69" height="9" width="174.6031746031746" fill="#009CA2" stroke="#009CA2" stroke-width="0" opacity="0.9" />
<rect x="33.80952380952381" y="70.62" height="3" width="174.6031746031746" fill="#F4EDF2" opacity="0.25" />
<rect x="208.41269841269843" y="69" height="9" width="11.904761904761905" fill="#D1D1D1" stroke="#D1D1D1" stroke-width="0" opacity="0.9" />
<rect x="208.41269841269843" y="70.62" height="3" width="11.904761904761905" fill="#F4EDF2" opacity="0.25" />
<rect x="220.31746031746033" y="69" height="9" width="59.523809523809526" fill="#1383C6" stroke="#1383C6" stroke-width="0" opacity="0.9" />
<rect x="220.31746031746033" y="70.62" height="3" width="59.523809523809526" fill="#F4EDF2" opacity="0.25" />
<rect x="279.8412698412699" y="69" height="9" width="3.9682539682539684" fill="#D1D1D1" stroke="#D1D1D1" stroke-width="0" opacity="0.9" />
<rect x="279.8412698412699" y="70.62" height="3" width="3.9682539682539684" fill="#F4EDF2" opacity="0.25" />
<line x1="283.80952380952385" y1="73.5" x2="561.5873015873017" y2="73.5" stroke="#BABABA" stroke-width="1.5" />
<rect x="561.5873015873017" y="69" height="9" width="198.41269841269843" fill="#009CA2" stroke="#009CA2" stroke-width="0" opacity="0.9" />
<rect x="561.5873015873017" y="70.62" height="3" width="198.41269841269843" fill="#F4EDF2" opacity="0.25" />
<path d="M 760.0000000000001 69 C 764.5000000000001 69, 764.5000000000001 78, 760.0000000000001 78" fill="#009CA2" opacity="0.9" />
<path d="M 10 80 C 5.5 80, 5.5 89, 10 89" fill="#009CA2" opacity="0.9" />
<rect x="10" y="80" height="9" width="19.841269841269842" fill="#009CA2" stroke="#009CA2" stroke-width="0" opacity="0.9" />
<rect x="10" y="81.62" height="3" width="19.841269841269842" fill="#F4EDF2" opacity="0.25" />
<rect x="29.841269841269842" y="80" height="9" width="3.9682539682539684" fill="#BABABA" stroke="#BABABA" stroke-width="0" opacity="0.9" />
<rect x="29.841269841269842" y="81.62" height="3" width="3.9682539682539684" fill="#F4EDF2" opacity="0.25" />
<rect x="33.80952380952381" y="80" height="9" width="174.6031746031746" fill="#009CA2" stroke="#009CA2" stroke-width="0" opacity="0.9" />
<rect x="33.80952380952381" y="81.62" height="3" width="174.6031746031746" fill="#F4EDF2" opacity="0.25" />
<rect x="208.41269841269843" y="80" height="9" width="15.873015873015873" fill="#D1D1D1" stroke="#D1D1D1" stroke-width="0" opacity="0.9" />
<rect x="208.41269841269843" y="81.62" height="3" width="15.873015873015873" fill="#F4EDF2" opacity="0.25" />
<rect x="224.2857142857143" y="80" height="9" width="59.523809523809526" fill="#1383C6" stroke="#1383C6" stroke-width="0" opacity="0.9" />
<rect x="224.2857142857143" y="81.62" height="3" width="59.523809523809526" fill="#F4EDF2" opacity="0.25" />
<rect x="283.80952380952385" y="80" height="9" width="3.9682539682539684" fill="#D1D1D1" stroke="#D1D1D1" stroke-width="0" opacity="0.9" />
<rect x="283.80952380952385" y="81.62" height="3" width="3.9682539682539684" fill="#F4EDF2" opacity="0.25" />
<line x1="287.7777777777778" y1="84.5" x2="561.5873015873017" y2="84.5" stroke="#BABABA" stroke-width="1.5" />
<rect x="561.5873015873017" y="80" height="9" width="198.41269841269843" fill="#009CA2" stroke="#009CA2" stroke-width="0" opacity="0.9" />
<rect x="561.5873015873017" y="81.62" height="3" width="198.41269841269843" fill="#F4EDF2" opacity="0.25" />
<path d="M 760.0000000000001 80 C 764.5000000000001 80, 764.5000000000001 89, 760.0000000000001 89" fill="#009CA2" opacity="0.9" />
<path d="M 10 91 C 5.5 91, 5.5 100, 10 100" fill="#009CA2" opacity="0.9" />
<rect x="10" y="91" height="9" width="19.841269841269842" fill="#009CA2" stroke="#009CA2" stroke-width="0" opacity="0.9" />
<rect x="10" y="92.62" height="3" width="19.841269841269842" fill="#F4EDF2" opacity="0.25" />
<rect x="29.841269841269842" y="91" height="9" width="3.9682539682539684" fill="#BABABA" stroke="#BABABA" stroke-width="0" opacity="0.9" />
<rect x="29.841269841269842" y="92.62" height="3" width="3.9682539682539684" fill="#F4EDF2" opacity="0.25" />
<rect x="33.80952380952381" y="91" height="9" width="174.6031746031746" fill="#009CA2" stroke="#009CA2" stroke-width="0" opacity="0.9" />
<rect x="33.80952380952381" y="92.62" height="3" width="174.6031746031746" fill="#F4EDF2" opacity="0.25" />
<rect x="208.41269841269843" y="91" height="9" width="11.904761904761905" fill="#D1D1D1" stroke="#D1D1D1" stroke-width="0" opacity="0.9" />
<rect x="208.41269841269843" y="92.62" height="3" width="11.904761904761905" fill="#F4EDF2" opacity="0.25" />
<rect x="220.31746031746033" y="91" height="9" width="309.5238095238095" fill="#1383C6" stroke="#1383C6" stroke-width="0" opacity="0.9" />
<rect x="220.31746031746033" y="92.62" height="3" width="309.5238095238095" fill="#F4EDF2" opacity="0.25" />
<rect x="529.8412698412699" y="91" height="9" width="3.9682539682539684" fill="#D1D1D1" stroke="#D1D1D1" stroke-width="0" opacity="0.9" />
<rect x="529.8412698412699" y="92.62" height="3" width="3.9682539682539684" fill="#F4EDF2" opacity="0.25" />
<line x1="533.8095238095239" y1="95.5" x2="561.5873015873017" y2="95.5" stroke="#BABABA" stroke-width="1.5" />
<rect x="561.5873015873017" y="91" height="9" width="198.41269841269843" fill="#009CA2" stroke="#009CA2" stroke-width="0" opacity="0.9" />
<rect x="561.5873015873017" y="92.62" height="3" width="198.41269841269843" fill="#F4EDF2" opacity="0.25" />
<path d="M 760.0000000000001 91 C 764.5000000000001 91, 764.5000000000001 100, 760.0000000000001 100" fill="#009CA2" opacity="0.9" />
<path d="M 10 102 C 5.5 102, 5.5 111, 10 111" fill="#009CA2" opacity="0.9" />
<rect x="10" y="102" height="9" width="19.841269841269842" fill="#009CA2" stroke="#009CA2" stroke-width="0" opacity="0.9" />
<rect x="10" y="103.62" height="3" width="19.841269841269842" fill="#F4EDF2" opacity="0.25" />
<rect x="29.841269841269842" y="102" height="9" width="3.9682539682539684" fill="#BABABA" stroke="#BABABA" stroke-width="0" opacity="0.9" />
<rect x="29.841269841269842" y="103.62" height="3" width="3.9682539682539684" fill="#F4EDF2" opacity="0.25" />
<rect x="33.80952380952381" y="102" height="9" width="174.6031746031746" fill="#009CA2" stroke="#009CA2" stroke-width="0" opacity="0.9" />
<rect x="33.80952380952381" y="103.62" height="3" width="174.6031746031746" fill="#F4EDF2" opacity="0.25" />
<rect x="208.41269841269843" y="102" height="9" width="11.904761904761905" fill="#D1D1D1" stroke="#D1D1D1" stroke-width="0" opacity="0.9" />
<rect x="208.41269841269843" y="103.62" height="3" width="11.904761904761905" fill="#F4EDF2" opacity="0.25" />
<rect x="220.31746031746033" y="102" height="9" width="309.5238095238095" fill="#1383C6" stroke="#1383C6" stroke-width="0" opacity="0.9" />
<rect x="220.31746031746033" y="103.62" height="3" width="309.5238095238095" fill="#F4EDF2" opacity="0.25" />
<rect x="529.8412698412699" y="102" height="9" width="3.9682539682539684" fill="#D1D1D1" stroke="#D1D1D1" stroke-width="0" opacity="0.9" />
<rect x="529.8412698412699" y="103.62" height="3" width="3.9682539682539684" fill="#F4EDF2" opacity="0.25" />
<line x1="533.8095238095239" y1="106.5" x2="561.5873015873017" y2="106.5" stroke="#BABABA" stroke-width="1.5" />
<rect x="561.5873015873017" y="102" height="9" width="198.41269841269843" fill="#009CA2" stroke="#009CA2" stroke-width="0" opacity="0.9" />
<rect x="561.5873015873017" y="103.62" height="3" width="198.41269841269843" fill="#F4EDF2" opacity="0.25" />
<path d="M 760.0000000000001 102 C 764.5000000000001 102, 764.5000000000001 111, 760.0000000000001 111" fill="#009CA2" opacity="0.9" />
<path d="M 10 113 C 5.5 113, 5.5 122, 10 122" fill="#009CA2" opacity="0.9" />
<rect x="10" y="113" height="9" width="19.841269841269842" fill="#009CA2" stroke="#009CA2" stroke-width="0" opacity="0.9" />
<rect x="10" y="114.62" height="3" width="19.841269841269842" fill="#F4EDF2" opacity="0.25" />
<rect x="29.841269841269842" y="113" height="9" width="3.9682539682539684" fill="#BABABA" stroke="#BABABA" stroke-width="0" opacity="0.9" />
<rect x="29.841269841269842" y="114.62" height="3" width="3.9682539682539684" fill="#F4EDF2" opacity="0.25" />
<rect x="33.80952380952381" y="113" height="9" width="174.6031746031746" fill="#009CA2" stroke="#009CA2" stroke-width="0" opacity="0.9" />
<rect x="33.80952380952381" y="114.62" height="3" width="174.6031746031746" fill="#F4EDF2" opacity="0.25" />
<rect x="208.41269841269843" y="113" height="9" width="11.904761904761905" fill="#D1D1D1" stroke="#D1D1D1" stroke-width="0" opacity="0.9" />
<rect x="208.41269841269843" y="114.62" height="3" width="11.904761904761905" fill="#F4EDF2" opacity="0.25" />
<rect x="220.31746031746033" y="113" height="9" width="309.5238095238095" fill="#1383C6" stroke="#1383C6" stroke-width="0" opacity="0.9" />
<rect x="220.31746031746033" y="114.62" height="3" width="309.5238095238095" fill="#F4EDF2" opacity="0.25" />
<rect x="529.8412698412699" y="113" height="9" width="3.9682539682539684" fill="#D1D1D1" stroke="#D1D1D1" stroke-width="0" opacity="0.9" />
<rect x="529.8412698412699" y="114.62" height="3" width="3.9682539682539684" fill="#F4EDF2" opacity="0.25" />
<line x1="533.8095238095239" y1="117.5" x2="561.5873015873017" y2="117.5" stroke="#BABABA" stroke-width="1.5" />
<rect x="561.5873015873017" y="113" height="9" width="198.41269841269843" fill="#009CA2" stroke="#009CA2" stroke-width="0" opacity="0.9" />
<rect x="561.5873015873017" y="114.62" height="3" width="198.41269841269843" fill="#F4EDF2" opacity="0.25" />
<path d="M 760.0000000000001 113 C 764.5000000000001 113, 764.5000000000001 122, 760.0000000000001 122" fill="#009CA2" opacity="0.9" />
<path d="M 10 124 C 5.5 124, 5.5 133, 10 133" fill="#009CA2" opacity="0.9" />
<rect x="10" y="124" height="9" width="19.841269841269842" fill="#009CA2" stroke="#009CA2" stroke-width="0" opacity="0.9" />
<rect x="10" y="125.62" height="3" width="19.841269841269842" fill="#F4EDF2" opacity="0.25" />
<rect x="29.841269841269842" y="124" height="9" width="3.9682539682539684" fill="#BABABA" stroke="#BABABA" stroke-width="0" opacity="0.9" />
<rect x="29.841269841269842" y="125.62" height="3" width="3.9682539682539684" fill="#F4EDF2" opacity="0.25" />
<rect x="33.80952380952381" y="124" height="9" width="174.6031746031746" fill="#009CA2" stroke="#009CA2" stroke-width="0" opacity="0.9" />
<rect x="33.80952380952381" y="125.62" height="3" width="174.6031746031746" fill="#F4EDF2" opacity="0.25" />
<rect x="208.41269841269843" y="124" height="9" width="11.904761904761905" fill="#D1D1D1" stroke="#D1D1D1" stroke-width="0" opacity="0.9" />
<rect x="208.41269841269843" y="125.62" height="3" width="11.904761904761905" fill="#F4EDF2" opacity="0.25" />
<rect x="220.31746031746033" y="124" height="9" width="309.5238095238095" fill="#1383C6" stroke="#1383C6" stroke-width="0" opacity="0.9" />
<rect x="220.31746031746033" y="125.62" height="3" width="309.5238095238095" fill="#F4EDF2" opacity="0.25" />
<rect x="529.8412698412699" y="124" height="9" width="3.9682539682539684" fill="#D1D1D1" stroke="#D1D1D1" stroke-width="0" opacity="0.9" />
<rect x="529.8412698412699" y="125.62" height="3" width="3.9682539682539684" fill="#F4EDF2" opacity="0.25" />
<line x1="533.8095238095239" y1="128.5" x2="561.5873015873017" y2="128.5" stroke="#BABABA" stroke-width="1.5" />
<rect x="561.5873015873017" y="124" height="9" width="198.41269841269843" fill="#009CA2" stroke="#009CA2" stroke-width="0" opacity="0.9" />
<rect x="561.5873015873017" y="125.62" height="3" width="198.41269841269843" fill="#F4EDF2" opacity="0.25" />
<path d="M 760.0000000000001 124 C 764.5000000000001 124, 764.5000000000001 133, 760.0000000000001 133" fill="#009CA2" opacity="0.9" />
<path d="M 10 135 C 5.5 135, 5.5 144, 10 144" fill="#009CA2" opacity="0.9" />
<rect x="10" y="135" height="9" width="19.841269841269842" fill="#009CA2" stroke="#009CA2" stroke-width="0" opacity="0.9" />
<rect x="10" y="136.62" height="3" width="19.841269841269842" fill="#F4EDF2" opacity="0.25" />
<rect x="29.841269841269842" y="135" height="9" width="3.9682539682539684" fill="#BABABA" stroke="#BABABA" stroke-width="0" opacity="0.9" />
<rect x="29.841269841269842" y="136.62" height="3" width="3.9682539682539684" fill="#F4EDF2" opacity="0.25" />
<rect x="33.80952380952381" y="135" height="9" width="174.6031746031746" fill="#009CA2" stroke="#009CA2" stroke-width="0" opacity="0.9" />
<rect x="33.80952380952381" y="136.62" height="3" width="174.6031746031746" fill="#F4EDF2" opacity="0.25" />
<rect x="208.41269841269843" y="135" height="9" width="11.904761904761905" fill="#D1D1D1" stroke="#D1D1D1" stroke-width="0" opacity="0.9" />
<rect x="208.41269841269843" y="136.62" height="3" width="11.904761904761905" fill="#F4EDF2" opacity="0.25" />
<rect x="220.31746031746033" y="135" height="9" width="309.5238095238095" fill="#1383C6" stroke="#1383C6" stroke-width="0" opacity="0.9" />
<rect x="220.31746031746033" y="136.62" height="3" width="309.5238095238095" fill="#F4EDF2" opacity="0.25" />
<rect x="529.8412698412699" y="135" height="9" width="3.9682539682539684" fill="#D1D1D1" stroke="#D1D1D1" stroke-width="0" opacity="0.9" />
<rect x="529.8412698412699" y="136.62" height="3" width="3.9682539682539684" fill="#F4EDF2" opacity="0.25" />
<line x1="533.8095238095239" y1="139.5" x2="561.5873015873017" y2="139.5" stroke="#BABABA" stroke-width="1.5" />
<rect x="561.5873015873017" y="135" height="9" width="198.41269841269843" fill="#009CA2" stroke="#009CA2" stroke-width="0" opacity="0.9" />
<rect x="561.5873015873017" y="136.62" height="3" width="198.41269841269843" fill="#F4EDF2" opacity="0.25" />
<path d="M 760.0000000000001 135 C 764.5000000000001 135, 764.5000000000001 144, 760.0000000000001 144" fill="#009CA2" opacity="0.9" />
<path d="M 10 146 C 5.5 146, 5.5 155, 10 155" fill="#009CA2" opacity="0.9" />
<line x1="10" y1="150.5" x2="13.968253968253968" y2="150.5" stroke="#009CA2" stroke-width="1.5" />
<rect x="13.968253968253968" y="146" height="9" width="15.873015873015873" fill="#009CA2" stroke="#009CA2" stroke-width="0" opacity="0.9" />
<rect x="13.968253968253968" y="147.62" height="3" width="15.873015873015873" fill="#F4EDF2" opacity="0.25" />
<rect x="29.841269841269842" y="146" height="9" width="3.9682539682539684" fill="#BABABA" stroke="#BABABA" stroke-width="0" opacity="0.9" />
<rect x="29.841269841269842" y="147.62" height="3" width="3.9682539682539684" fill="#F4EDF2" opacity="0.25" />
<rect x="33.80952380952381" y="146" height="9" width="11.904761904761905" fill="#009CA2" stroke="#009CA2" stroke-width="0" opacity="0.9" />
<rect x="33.80952380952381" y="147.62" height="3" width="11.904761904761905" fill="#F4EDF2" opacity="0.25" />
<rect x="45.714285714285715" y="146" height="9" width="162.6984126984127" fill="#009CA2" stroke="#009CA2" stroke-width="0" opacity="0.9" />
<rect x="45.714285714285715" y="147.62" height="3" width="162.6984126984127" fill="#F4EDF2" opacity="0.25" />
<rect x="208.41269841269843" y="146" height="9" width="11.904761904761905" fill="#D1D1D1" stroke="#D1D1D1" stroke-width="0" opacity="0.9" />
<rect x="208.41269841269843" y="147.62" height="3" width="11.904761904761905" fill="#F4EDF2" opacity="0.25" />
<rect x="220.31746031746033" y="146" height="9" width="261.9047619047619" fill="#1383C6" stroke="#1383C6" stroke-width="0" opacity="0.9" />
<rect x="220.31746031746033" y="147.62" height="3" width="261.9047619047619" fill="#F4EDF2" opacity="0.25" />
<rect x="482.2222222222223" y="146" height="9" width="3.9682539682539684" fill="#D1D1D1" stroke="#D1D1D1" stroke-width="0" opacity="0.9" />
<rect x="482.2222222222223" y="147.62" height="3" width="3.9682539682539684" fill="#F4EDF2" opacity="0.25" />
<rect x="486.19047619047626" y="146" height="9" width="71.42857142857143" fill="#1383C6" stroke="#1383C6" stroke-width="0" opacity="0.9" />
<rect x="486.19047619047626" y="147.62" height="3" width="71.42857142857143" fill="#F4EDF2" opacity="0.25" />
<rect x="557.6190476190477" y="146" height="9" width="3.9682539682539684" fill="#D1D1D1" stroke="#D1D1D1" stroke-width="0" opacity="0.9" />
<rect x="557.6190476190477" y="147.62" height="3" width="3.9682539682539684" fill="#F4EDF2" opacity="0.25" />
<rect x="561.5873015873017" y="146" height="9" width="99.20634920634922" fill="#009CA2" stroke="#009CA2" stroke-width="0" opacity="0.9" />
<rect x="561.5873015873017" y="147.62" height="3" width="99.20634920634922" fill="#F4EDF2" opacity="0.25" />
<rect x="660.7936507936508" y="146" height="9" width="91.26984126984127" fill="#009CA2" stroke="#009CA2" stroke-width="0" opacity="0.9" />
<rect x="660.7936507936508" y="147.62" height="3" width="91.26984126984127" fill="#F4EDF2" opacity="0.25" />
<line x1="752.063492063492" y1="150.5" x2="756.031746031746" y2="150.5" stroke="#009CA2" stroke-width="1.5" />
<rect x="756.031746031746" y="146" height="9" width="3.9682539682539684" fill="#009CA2" stroke="#009CA2" stroke-width="0" opacity="0.9" />
<rect x="756.031746031746" y="147.62" height="3" width="3.9682539682539684" fill="#F4EDF2" opacity="0.25" />
<path d="M 760 146 C 764.5 146, 764.5 155, 760 155" fill="#009CA2" opacity="0.9" />
<line x1="45.714285714285715" y1="146" x2="45.714285714285715" y2="155" stroke="#000000" stroke-width="2" />
<line x1="660.7936507936508" y1="146" x2="660.7936507936508" y2="155" stroke="#000000" stroke-width="2" />
<rect x="10" y="161" height="12" width="12" fill="#1383C6" stroke="#1383C6" stroke-width="0" opacity="0.9" />
<text x="24" y="172" font-family="monospace" font-weight="bold" font-size="14px" >CCG</text>
</svg>
