<?xml version="1.0"?>
<svg xmlns="http://www.w3.org/2000/svg" xmlns:xlink="http://www.w3.org/1999/xlink" width="770.0000000000002" height="266">
<rect width="100%" height="100%" fill="white"/>
<path d="M 10 14 C 5.5 14, 5.5 23, 10 23" fill="#009CA2" opacity="0.9" />
<rect x="10" y="14" height="9" width="210.6741573033708" fill="#009CA2" stroke="#009CA2" stroke-width="0" opacity="0.9" />
<rect x="10" y="15.62" height="3" width="210.6741573033708" fill="#F4EDF2" opacity="0.25" />
<rect x="220.6741573033708" y="14" height="9" width="88.48314606741573" fill="#1383C6" stroke="#1383C6" stroke-width="0" opacity="0.9" />
<rect x="220.6741573033708" y="15.62" height="3" width="88.48314606741573" fill="#F4EDF2" opacity="0.25" />
<line x1="309.1573033707865" y1="18.5" x2="549.3258426966293" y2="18.5" stroke="#BABABA" stroke-width="1.5" />
<rect x="549.3258426966293" y="14" height="9" width="210.6741573033708" fill="#009CA2" stroke="#009CA2" stroke-width="0" opacity="0.9" />
<rect x="549.3258426966293" y="15.62" height="3" width="210.6741573033708" fill="#F4EDF2" opacity="0.25" />
<path d="M 760 14 C 764.5 14, 764.5 23, 760 23" fill="#009CA2" opacity="0.9" />
<path d="M 10 25 C 5.5 25, 5.5 34, 10 34" fill="#009CA2" opacity="0.9" />
<rect x="10" y="25" height="9" width="210.6741573033708" fill="#009CA2" stroke="#009CA2" stroke-width="0" opacity="0.9" />
<rect x="10" y="26.62" height="3" width="210.6741573033708" fill="#F4EDF2" opacity="0.25" />
<rect x="220.6741573033708" y="25" height="9" width="88.48314606741573" fill="#1383C6" stroke="#1383C6" stroke-width="0" opacity="0.9" />
<rect x="220.6741573033708" y="26.62" height="3" width="88.48314606741573" fill="#F4EDF2" opacity="0.25" />
<line x1="309.1573033707865" y1="29.5" x2="549.3258426966293" y2="29.5" stroke="#BABABA" stroke-width="1.5" />
<rect x="549.3258426966293" y="25" height="9" width="210.6741573033708" fill="#009CA2" stroke="#009CA2" stroke-width="0" opacity="0.9" />
<rect x="549.3258426966293" y="26.62" height="3" width="210.6741573033708" fill="#F4EDF2" opacity="0.25" />
<path d="M 760 25 C 764.5 25, 764.5 34, 760 34" fill="#009CA2" opacity="0.9" />
<path d="M 10 36 C 5.5 36, 5.5 45, 10 45" fill="#009CA2" opacity="0.9" />
<rect x="10" y="36" height="9" width="210.6741573033708" fill="#009CA2" stroke="#009CA2" stroke-width="0" opacity="0.9" />
<rect x="10" y="37.62" height="3" width="210.6741573033708" fill="#F4EDF2" opacity="0.25" />
<rect x="220.6741573033708" y="36" height="9" width="88.48314606741573" fill="#1383C6" stroke="#1383C6" stroke-width="0" opacity="0.9" />
<rect x="220.6741573033708" y="37.62" height="3" width="88.48314606741573" fill="#F4EDF2" opacity="0.25" />
<line x1="309.1573033707865" y1="40.5" x2="549.3258426966293" y2="40.5" stroke="#BABABA" stroke-width="1.5" />
<rect x="549.3258426966293" y="36" height="9" width="210.6741573033708" fill="#009CA2" stroke="#009CA2" stroke-width="0" opacity="0.9" />
<rect x="549.3258426966293" y="37.62" height="3" width="210.6741573033708" fill="#F4EDF2" opacity="0.25" />
<path d="M 760 36 C 764.5 36, 764.5 45, 760 45" fill="#009CA2" opacity="0.9" />
<path d="M 10 47 C 5.5 47, 5.5 56, 10 56" fill="#009CA2" opacity="0.9" />
<rect x="10" y="47" height="9" width="210.6741573033708" fill="#009CA2" stroke="#009CA2" stroke-width="0" opacity="0.9" />
<rect x="10" y="48.62" height="3" width="210.6741573033708" fill="#F4EDF2" opacity="0.25" />
<rect x="220.6741573033708" y="47" height="9" width="88.48314606741573" fill="#1383C6" stroke="#1383C6" stroke-width="0" opacity="0.9" />
<rect x="220.6741573033708" y="48.62" height="3" width="88.48314606741573" fill="#F4EDF2" opacity="0.25" />
<line x1="309.1573033707865" y1="51.5" x2="549.3258426966293" y2="51.5" stroke="#BABABA" stroke-width="1.5" />
<rect x="549.3258426966293" y="47" height="9" width="210.6741573033708" fill="#009CA2" stroke="#009CA2" stroke-width="0" opacity="0.9" />
<rect x="549.3258426966293" y="48.62" height="3" width="210.6741573033708" fill="#F4EDF2" opacity="0.25" />
<path d="M 760 47 C 764.5 47, 764.5 56, 760 56" fill="#009CA2" opacity="0.9" />
<path d="M 10 58 C 5.5 58, 5.5 67, 10 67" fill="#009CA2" opacity="0.9" />
<rect x="10" y="58" height="9" width="210.6741573033708" fill="#009CA2" stroke="#009CA2" stroke-width="0" opacity="0.9" />
<rect x="10" y="59.62" height="3" width="210.6741573033708" fill="#F4EDF2" opacity="0.25" />
<rect x="220.6741573033708" y="58" height="9" width="88.48314606741573" fill="#1383C6" stroke="#1383C6" stroke-width="0" opacity="0.9" />
<rect x="220.6741573033708" y="59.62" height="3" width="88.48314606741573" fill="#F4EDF2" opacity="0.25" />
<line x1="309.1573033707865" y1="62.5" x2="549.3258426966293" y2="62.5" stroke="#BABABA" stroke-width="1.5" />
<rect x="549.3258426966293" y="58" height="9" width="210.6741573033708" fill="#009CA2" stroke="#009CA2" stroke-width="0" opacity="0.9" />
<rect x="549.3258426966293" y="59.62" height="3" width="210.6741573033708" fill="#F4EDF2" opacity="0.25" />
<path d="M 760 58 C 764.5 58, 764.5 67, 760 67" fill="#009CA2" opacity="0.9" />
<path d="M 10 69 C 5.5 69, 5.5 78, 10 78" fill="#009CA2" opacity="0.9" />
<rect x="10" y="69" height="9" width="210.6741573033708" fill="#009CA2" stroke="#009CA2" stroke-width="0" opacity="0.9" />
<rect x="10" y="70.62" height="3" width="210.6741573033708" fill="#F4EDF2" opacity="0.25" />
<rect x="220.6741573033708" y="69" height="9" width="88.48314606741573" fill="#1383C6" stroke="#1383C6" stroke-width="0" opacity="0.9" />
<rect x="220.6741573033708" y="70.62" height="3" width="88.48314606741573" fill="#F4EDF2" opacity="0.25" />
<line x1="309.1573033707865" y1="73.5" x2="549.3258426966293" y2="73.5" stroke="#BABABA" stroke-width="1.5" />
<rect x="549.3258426966293" y="69" height="9" width="210.6741573033708" fill="#009CA2" stroke="#009CA2" stroke-width="0" opacity="0.9" />
<rect x="549.3258426966293" y="70.62" height="3" width="210.6741573033708" fill="#F4EDF2" opacity="0.25" />
<path d="M 760 69 C 764.5 69, 764.5 78, 760 78" fill="#009CA2" opacity="0.9" />
<path d="M 10 80 C 5.5 80, 5.5 89, 10 89" fill="#009CA2" opacity="0.9" />
<line x1="10" y1="84.5" x2="14.213483146067416" y2="84.5" stroke="#009CA2" stroke-width="1.5" />
<rect x="14.213483146067416" y="80" height="9" width="67.41573033707866" fill="#009CA2" stroke="#009CA2" stroke-width="0" opacity="0.9" />
<rect x="14.213483146067416" y="81.62" height="3" width="67.41573033707866" fill="#F4EDF2" opacity="0.25" />
<rect x="81.62921348314607" y="80" height="9" width="139.04494382022472" fill="#009CA2" stroke="#009CA2" stroke-width="0" opacity="0.9" />
<rect x="81.62921348314607" y="81.62" height="3" width="139.04494382022472" fill="#F4EDF2" opacity="0.25" />
<rect x="220.6741573033708" y="80" height="9" width="88.48314606741573" fill="#1383C6" stroke="#1383C6" stroke-width="0" opacity="0.9" />
<rect x="220.6741573033708" y="81.62" height="3" width="88.48314606741573" fill="#F4EDF2" opacity="0.25" />
<line x1="309.1573033707865" y1="84.5" x2="549.3258426966293" y2="84.5" stroke="#BABABA" stroke-width="1.5" />
<rect x="549.3258426966293" y="80" height="9" width="210.6741573033708" fill="#009CA2" stroke="#009CA2" stroke-width="0" opacity="0.9" />
<rect x="549.3258426966293" y="81.62" height="3" width="210.6741573033708" fill="#F4EDF2" opacity="0.25" />
<path d="M 760 80 C 764.5 80, 764.5 89, 760 89" fill="#009CA2" opacity="0.9" />
<line x1="81.62921348314607" y1="80" x2="81.62921348314607" y2="89" stroke="#000000" stroke-width="2" />
<path d="M 10 91 C 5.5 91, 5.5 100, 10 100" fill="#009CA2" opacity="0.9" />
<rect x="10" y="91" height="9" width="210.6741573033708" fill="#009CA2" stroke="#009CA2" stroke-width="0" opacity="0.9" />
<rect x="10" y="92.62" height="3" width="210.6741573033708" fill="#F4EDF2" opacity="0.25" />
<rect x="220.6741573033708" y="91" height="9" width="88.48314606741573" fill="#1383C6" stroke="#1383C6" stroke-width="0" opacity="0.9" />
<rect x="220.6741573033708" y="92.62" height="3" width="88.48314606741573" fill="#F4EDF2" opacity="0.25" />
<line x1="309.1573033707865" y1="95.5" x2="549.3258426966293" y2="95.5" stroke="#BABABA" stroke-width="1.5" />
<rect x="549.3258426966293" y="91" height="9" width="210.6741573033708" fill="#009CA2" stroke="#009CA2" stroke-width="0" opacity="0.9" />
<rect x="549.3258426966293" y="92.62" height="3" width="210.6741573033708" fill="#F4EDF2" opacity="0.25" />
<path d="M 760 91 C 764.5 91, 764.5 100, 760 100" fill="#009CA2" opacity="0.9" />
<path d="M 10 102 C 5.5 102, 5.5 111, 10 111" fill="#009CA2" opacity="0.9" />
<rect x="10" y="102" height="9" width="210.6741573033708" fill="#009CA2" stroke="#009CA2" stroke-width="0" opacity="0.9" />
<rect x="10" y="103.62" height="3" width="210.6741573033708" fill="#F4EDF2" opacity="0.25" />
<rect x="220.6741573033708" y="102" height="9" width="88.48314606741573" fill="#1383C6" stroke="#1383C6" stroke-width="0" opacity="0.9" />
<rect x="220.6741573033708" y="103.62" height="3" width="88.48314606741573" fill="#F4EDF2" opacity="0.25" />
<line x1="309.1573033707865" y1="106.5" x2="549.3258426966293" y2="106.5" stroke="#BABABA" stroke-width="1.5" />
<rect x="549.3258426966293" y="102" height="9" width="210.6741573033708" fill="#009CA2" stroke="#009CA2" stroke-width="0" opacity="0.9" />
<rect x="549.3258426966293" y="103.62" height="3" width="210.6741573033708" fill="#F4EDF2" opacity="0.25" />
<path d="M 760 102 C 764.5 102, 764.5 111, 760 111" fill="#009CA2" opacity="0.9" />
<path d="M 10 113 C 5.5 113, 5.5 122, 10 122" fill="#009CA2" opacity="0.9" />
<rect x="10" y="113" height="9" width="210.6741573033708" fill="#009CA2" stroke="#009CA2" stroke-width="0" opacity="0.9" />
<rect x="10" y="114.62" height="3" width="210.6741573033708" fill="#F4EDF2" opacity="0.25" />
<rect x="220.6741573033708" y="113" height="9" width="88.48314606741573" fill="#1383C6" stroke="#1383C6" stroke-width="0" opacity="0.9" />
<rect x="220.6741573033708" y="114.62" height="3" width="88.48314606741573" fill="#F4EDF2" opacity="0.25" />
<line x1="309.1573033707865" y1="117.5" x2="549.3258426966293" y2="117.5" stroke="#BABABA" stroke-width="1.5" />
<rect x="549.3258426966293" y="113" height="9" width="210.6741573033708" fill="#009CA2" stroke="#009CA2" stroke-width="0" opacity="0.9" />
<rect x="549.3258426966293" y="114.62" height="3" width="210.6741573033708" fill="#F4EDF2" opacity="0.25" />
<path d="M 760 113 C 764.5 113, 764.5 122, 760 122" fill="#009CA2" opacity="0.9" />
<path d="M 10 124 C 5.5 124, 5.5 133, 10 133" fill="#009CA2" opacity="0.9" />
<rect x="10" y="124" height="9" width="210.6741573033708" fill="#009CA2" stroke="#009CA2" stroke-width="0" opacity="0.9" />
<rect x="10" y="125.62" height="3" width="210.6741573033708" fill="#F4EDF2" opacity="0.25" />
<rect x="220.6741573033708" y="124" height="9" width="88.48314606741573" fill="#1383C6" stroke="#1383C6" stroke-width="0" opacity="0.9" />
<rect x="220.6741573033708" y="125.62" height="3" width="88.48314606741573" fill="#F4EDF2" opacity="0.25" />
<line x1="309.1573033707865" y1="128.5" x2="549.3258426966293" y2="128.5" stroke="#BABABA" stroke-width="1.5" />
<rect x="549.3258426966293" y="124" height="9" width="210.6741573033708" fill="#009CA2" stroke="#009CA2" stroke-width="0" opacity="0.9" />
<rect x="549.3258426966293" y="125.62" height="3" width="210.6741573033708" fill="#F4EDF2" opacity="0.25" />
<path d="M 760 124 C 764.5 124, 764.5 133, 760 133" fill="#009CA2" opacity="0.9" />
<path d="M 10 135 C 5.5 135, 5.5 144, 10 144" fill="#009CA2" opacity="0.9" />
<rect x="10" y="135" height="9" width="210.6741573033708" fill="#009CA2" stroke="#009CA2" stroke-width="0" opacity="0.9" />
<rect x="10" y="136.62" height="3" width="210.6741573033708" fill="#F4EDF2" opacity="0.25" />
<rect x="220.6741573033708" y="135" height="9" width="88.48314606741573" fill="#1383C6" stroke="#1383C6" stroke-width="0" opacity="0.9" />
<rect x="220.6741573033708" y="136.62" height="3" width="88.48314606741573" fill="#F4EDF2" opacity="0.25" />
<line x1="309.1573033707865" y1="139.5" x2="549.3258426966293" y2="139.5" stroke="#BABABA" stroke-width="1.5" />
<rect x="549.3258426966293" y="135" height="9" width="210.6741573033708" fill="#009CA2" stroke="#009CA2" stroke-width="0" opacity="0.9" />
<rect x="549.3258426966293" y="136.62" height="3" width="210.6741573033708" fill="#F4EDF2" opacity="0.25" />
<path d="M 760 135 C 764.5 135, 764.5 144, 760 144" fill="#009CA2" opacity="0.9" />
<path d="M 10 146 C 5.5 146, 5.5 155, 10 155" fill="#009CA2" opacity="0.9" />
<rect x="10" y="146" height="9" width="210.6741573033708" fill="#009CA2" stroke="#009CA2" stroke-width="0" opacity="0.9" />
<rect x="10" y="147.62" height="3" width="210.6741573033708" fill="#F4EDF2" opacity="0.25" />
<rect x="220.6741573033708" y="146" height="9" width="88.48314606741573" fill="#1383C6" stroke="#1383C6" stroke-width="0" opacity="0.9" />
<rect x="220.6741573033708" y="147.62" height="3" width="88.48314606741573" fill="#F4EDF2" opacity="0.25" />
<line x1="309.1573033707865" y1="150.5" x2="549.3258426966293" y2="150.5" stroke="#BABABA" stroke-width="1.5" />
<rect x="549.3258426966293" y="146" height="9" width="210.6741573033708" fill="#009CA2" stroke="#009CA2" stroke-width="0" opacity="0.9" />
<rect x="549.3258426966293" y="147.62" height="3" width="210.6741573033708" fill="#F4EDF2" opacity="0.25" />
<path d="M 760 146 C 764.5 146, 764.5 155, 760 155" fill="#009CA2" opacity="0.9" />
<path d="M 10 157 C 5.5 157, 5.5 166, 10 166" fill="#009CA2" opacity="0.9" />
<rect x="10" y="157" height="9" width="210.6741573033708" fill="#009CA2" stroke="#009CA2" stroke-width="0" opacity="0.9" />
<rect x="10" y="158.62" height="3" width="210.6741573033708" fill="#F4EDF2" opacity="0.25" />
<rect x="220.6741573033708" y="157" height="9" width="88.48314606741573" fill="#1383C6" stroke="#1383C6" stroke-width="0" opacity="0.9" />
<rect x="220.6741573033708" y="158.62" height="3" width="88.48314606741573" fill="#F4EDF2" opacity="0.25" />
<line x1="309.1573033707865" y1="161.5" x2="549.3258426966293" y2="161.5" stroke="#BABABA" stroke-width="1.5" />
<rect x="549.3258426966293" y="157" height="9" width="210.6741573033708" fill="#009CA2" stroke="#009CA2" stroke-width="0" opacity="0.9" />
<rect x="549.3258426966293" y="158.62" height="3" width="210.6741573033708" fill="#F4EDF2" opacity="0.25" />
<path d="M 760 157 C 764.5 157, 764.5 166, 760 166" fill="#009CA2" opacity="0.9" />
<path d="M 10 168 C 5.5 168, 5.5 177, 10 177" fill="#009CA2" opacity="0.9" />
<rect x="10" y="168" height="9" width="210.6741573033708" fill="#009CA2" stroke="#009CA2" stroke-width="0" opacity="0.9" />
<rect x="10" y="169.62" height="3" width="210.6741573033708" fill="#F4EDF2" opacity="0.25" />
<rect x="220.6741573033708" y="168" height="9" width="88.48314606741573" fill="#1383C6" stroke="#1383C6" stroke-width="0" opacity="0.9" />
<rect x="220.6741573033708" y="169.62" height="3" width="88.48314606741573" fill="#F4EDF2" opacity="0.25" />
<line x1="309.1573033707865" y1="172.5" x2="549.3258426966293" y2="172.5" stroke="#BABABA" stroke-width="1.5" />
<rect x="549.3258426966293" y="168" height="9" width="210.6741573033708" fill="#009CA2" stroke="#009CA2" stroke-width="0" opacity="0.9" />
<rect x="549.3258426966293" y="169.62" height="3" width="210.6741573033708" fill="#F4EDF2" opacity="0.25" />
<path d="M 760 168 C 764.5 168, 764.5 177, 760 177" fill="#009CA2" opacity="0.9" />
<path d="M 10 179 C 5.5 179, 5.5 188, 10 188" fill="#009CA2" opacity="0.9" />
<rect x="10" y="179" height="9" width="210.6741573033708" fill="#009CA2" stroke="#009CA2" stroke-width="0" opacity="0.9" />
<rect x="10" y="180.62" height="3" width="210.6741573033708" fill="#F4EDF2" opacity="0.25" />
<rect x="220.6741573033708" y="179" height="9" width="88.48314606741573" fill="#1383C6" stroke="#1383C6" stroke-width="0" opacity="0.9" />
<rect x="220.6741573033708" y="180.62" height="3" width="88.48314606741573" fill="#F4EDF2" opacity="0.25" />
<rect x="309.1573033707865" y="179" height="9" width="4.213483146067416" fill="#D1D1D1" stroke="#D1D1D1" stroke-width="0" opacity="0.9" />
<rect x="309.1573033707865" y="180.62" height="3" width="4.213483146067416" fill="#F4EDF2" opacity="0.25" />
<line x1="313.3707865168539" y1="183.5" x2="549.3258426966293" y2="183.5" stroke="#BABABA" stroke-width="1.5" />
<rect x="549.3258426966293" y="179" height="9" width="25.280898876404496" fill="#009CA2" stroke="#009CA2" stroke-width="0" opacity="0.9" />
<rect x="549.3258426966293" y="180.62" height="3" width="25.280898876404496" fill="#F4EDF2" opacity="0.25" />
<rect x="574.6067415730338" y="179" height="9" width="176.96629213483146" fill="#009CA2" stroke="#009CA2" stroke-width="0" opacity="0.9" />
<rect x="574.6067415730338" y="180.62" height="3" width="176.96629213483146" fill="#F4EDF2" opacity="0.25" />
<line x1="751.5730337078653" y1="183.5" x2="755.7865168539328" y2="183.5" stroke="#009CA2" stroke-width="1.5" />
<rect x="755.7865168539328" y="179" height="9" width="4.213483146067416" fill="#009CA2" stroke="#009CA2" stroke-width="0" opacity="0.9" />
<rect x="755.7865168539328" y="180.62" height="3" width="4.213483146067416" fill="#F4EDF2" opacity="0.25" />
<path d="M 760.0000000000002 179 C 764.5000000000002 179, 764.5000000000002 188, 760.0000000000002 188" fill="#009CA2" opacity="0.9" />
<line x1="574.6067415730338" y1="179" x2="574.6067415730338" y2="188" stroke="#000000" stroke-width="2" />
<path d="M 10 190 C 5.5 190, 5.5 199, 10 199" fill="#009CA2" opacity="0.9" />
<rect x="10" y="190" height="9" width="210.6741573033708" fill="#009CA2" stroke="#009CA2" stroke-width="0" opacity="0.9" />
<rect x="10" y="191.62" height="3" width="210.6741573033708" fill="#F4EDF2" opacity="0.25" />
<rect x="220.6741573033708" y="190" height="9" width="303.37078651685397" fill="#1383C6" stroke="#1383C6" stroke-width="0" opacity="0.9" />
<rect x="220.6741573033708" y="191.62" height="3" width="303.37078651685397" fill="#F4EDF2" opacity="0.25" />
<line x1="524.0449438202247" y1="194.5" x2="549.3258426966293" y2="194.5" stroke="#BABABA" stroke-width="1.5" />
<rect x="549.3258426966293" y="190" height="9" width="210.6741573033708" fill="#009CA2" stroke="#009CA2" stroke-width="0" opacity="0.9" />
<rect x="549.3258426966293" y="191.62" height="3" width="210.6741573033708" fill="#F4EDF2" opacity="0.25" />
<path d="M 760 190 C 764.5 190, 764.5 199, 760 199" fill="#009CA2" opacity="0.9" />
<path d="M 10 201 C 5.5 201, 5.5 210, 10 210" fill="#009CA2" opacity="0.9" />
<rect x="10" y="201" height="9" width="210.6741573033708" fill="#009CA2" stroke="#009CA2" stroke-width="0" opacity="0.9" />
<rect x="10" y="202.62" height="3" width="210.6741573033708" fill="#F4EDF2" opacity="0.25" />
<rect x="220.6741573033708" y="201" height="9" width="303.37078651685397" fill="#1383C6" stroke="#1383C6" stroke-width="0" opacity="0.9" />
<rect x="220.6741573033708" y="202.62" height="3" width="303.37078651685397" fill="#F4EDF2" opacity="0.25" />
<line x1="524.0449438202247" y1="205.5" x2="549.3258426966293" y2="205.5" stroke="#BABABA" stroke-width="1.5" />
<rect x="549.3258426966293" y="201" height="9" width="210.6741573033708" fill="#009CA2" stroke="#009CA2" stroke-width="0" opacity="0.9" />
<rect x="549.3258426966293" y="202.62" height="3" width="210.6741573033708" fill="#F4EDF2" opacity="0.25" />
<path d="M 760 201 C 764.5 201, 764.5 210, 760 210" fill="#009CA2" opacity="0.9" />
<path d="M 10 212 C 5.5 212, 5.5 221, 10 221" fill="#009CA2" opacity="0.9" />
<rect x="10" y="212" height="9" width="210.6741573033708" fill="#009CA2" stroke="#009CA2" stroke-width="0" opacity="0.9" />
<rect x="10" y="213.62" height="3" width="210.6741573033708" fill="#F4EDF2" opacity="0.25" />
<rect x="220.6741573033708" y="212" height="9" width="303.37078651685397" fill="#1383C6" stroke="#1383C6" stroke-width="0" opacity="0.9" />
<rect x="220.6741573033708" y="213.62" height="3" width="303.37078651685397" fill="#F4EDF2" opacity="0.25" />
<line x1="524.0449438202247" y1="216.5" x2="549.3258426966293" y2="216.5" stroke="#BABABA" stroke-width="1.5" />
<rect x="549.3258426966293" y="212" height="9" width="210.6741573033708" fill="#009CA2" stroke="#009CA2" stroke-width="0" opacity="0.9" />
<rect x="549.3258426966293" y="213.62" height="3" width="210.6741573033708" fill="#F4EDF2" opacity="0.25" />
<path d="M 760 212 C 764.5 212, 764.5 221, 760 221" fill="#009CA2" opacity="0.9" />
<path d="M 10 223 C 5.5 223, 5.5 232, 10 232" fill="#009CA2" opacity="0.9" />
<rect x="10" y="223" height="9" width="210.6741573033708" fill="#009CA2" stroke="#009CA2" stroke-width="0" opacity="0.9" />
<rect x="10" y="224.62" height="3" width="210.6741573033708" fill="#F4EDF2" opacity="0.25" />
<rect x="220.6741573033708" y="223" height="9" width="303.37078651685397" fill="#1383C6" stroke="#1383C6" stroke-width="0" opacity="0.9" />
<rect x="220.6741573033708" y="224.62" height="3" width="303.37078651685397" fill="#F4EDF2" opacity="0.25" />
<line x1="524.0449438202247" y1="227.5" x2="549.3258426966293" y2="227.5" stroke="#BABABA" stroke-width="1.5" />
<rect x="549.3258426966293" y="223" height="9" width="210.6741573033708" fill="#009CA2" stroke="#009CA2" stroke-width="0" opacity="0.9" />
<rect x="549.3258426966293" y="224.62" height="3" width="210.6741573033708" fill="#F4EDF2" opacity="0.25" />
<path d="M 760 223 C 764.5 223, 764.5 232, 760 232" fill="#009CA2" opacity="0.9" />
<path d="M 10 234 C 5.5 234, 5.5 243, 10 243" fill="#009CA2" opacity="0.9" />
<rect x="10" y="234" height="9" width="4.213483146067416" fill="#009CA2" stroke="#009CA2" stroke-width="0" opacity="0.9" />
<rect x="10" y="235.62" height="3" width="4.213483146067416" fill="#F4EDF2" opacity="0.25" />
<rect x="14.213483146067416" y="234" height="9" width="8.426966292134832" fill="#BABABA" stroke="#BABABA" stroke-width="0" opacity="0.9" />
<rect x="14.213483146067416" y="235.62" height="3" width="8.426966292134832" fill="#F4EDF2" opacity="0.25" />
<rect x="22.640449438202246" y="234" height="9" width="4.213483146067416" fill="#009CA2" stroke="#009CA2" stroke-width="0" opacity="0.9" />
<rect x="22.640449438202246" y="235.62" height="3" width="4.213483146067416" fill="#F4EDF2" opacity="0.25" />
<rect x="26.853932584269664" y="234" height="9" width="8.426966292134832" fill="#BABABA" stroke="#BABABA" stroke-width="0" opacity="0.9" />
<rect x="26.853932584269664" y="235.62" height="3" width="8.426966292134832" fill="#F4EDF2" opacity="0.25" />
<rect x="35.28089887640449" y="234" height="9" width="185.3932584269663" fill="#009CA2" stroke="#009CA2" stroke-width="0" opacity="0.9" />
<rect x="35.28089887640449" y="235.62" height="3" width="185.3932584269663" fill="#F4EDF2" opacity="0.25" />
<rect x="220.6741573033708" y="234" height="9" width="75.84269662921349" fill="#1383C6" stroke="#1383C6" stroke-width="0" opacity="0.9" />
<rect x="220.6741573033708" y="235.62" height="3" width="75.84269662921349" fill="#F4EDF2" opacity="0.25" />
<rect x="296.5168539325843" y="234" height="9" width="8.426966292134832" fill="#D1D1D1" stroke="#D1D1D1" stroke-width="0" opacity="0.9" />
<rect x="296.5168539325843" y="235.62" height="3" width="8.426966292134832" fill="#F4EDF2" opacity="0.25" />
<rect x="304.9438202247191" y="234" height="9" width="189.60674157303373" fill="#1383C6" stroke="#1383C6" stroke-width="0" opacity="0.9" />
<rect x="304.9438202247191" y="235.62" height="3" width="189.60674157303373" fill="#F4EDF2" opacity="0.25" />
<rect x="494.55056179775283" y="234" height="9" width="4.213483146067416" fill="#D1D1D1" stroke="#D1D1D1" stroke-width="0" opacity="0.9" />
<rect x="494.55056179775283" y="235.62" height="3" width="4.213483146067416" fill="#F4EDF2" opacity="0.25" />
<rect x="498.76404494382024" y="234" height="9" width="50.56179775280899" fill="#1383C6" stroke="#1383C6" stroke-width="0" opacity="0.9" />
<rect x="498.76404494382024" y="235.62" height="3" width="50.56179775280899" fill="#F4EDF2" opacity="0.25" />
<rect x="549.3258426966293" y="234" height="9" width="210.6741573033708" fill="#009CA2" stroke="#009CA2" stroke-width="0" opacity="0.9" />
<rect x="549.3258426966293" y="235.62" height="3" width="210.6741573033708" fill="#F4EDF2" opacity="0.25" />
<path d="M 760 234 C 764.5 234, 764.5 243, 760 243" fill="#009CA2" opacity="0.9" />
<rect x="10" y="249" height="12" width="12" fill="#1383C6" stroke="#1383C6" stroke-width="0" opacity="0.9" />
<text x="24" y="260" font-family="monospace" font-weight="bold" font-size="14px" >GGC</text>
</svg>
