<?xml version="1.0"?>
<svg xmlns="http://www.w3.org/2000/svg" xmlns:xlink="http://www.w3.org/1999/xlink" width="770" height="354">
<rect width="100%" height="100%" fill="white"/>
<path d="M 10 14 C 5.5 14, 5.5 23, 10 23" fill="#009CA2" opacity="0.9" />
<rect x="10" y="14" height="9" width="127.55102040816327" fill="#009CA2" stroke="#009CA2" stroke-width="0" opacity="0.9" />
<rect x="10" y="15.62" height="3" width="127.55102040816327" fill="#F4EDF2" opacity="0.25" />
<rect x="137.55102040816325" y="14" height="9" width="104.59183673469387" fill="#D1D1D1" stroke="#D1D1D1" stroke-width="0" opacity="0.9" />
<rect x="137.55102040816325" y="15.62" height="3" width="104.59183673469387" fill="#F4EDF2" opacity="0.25" />
<line x1="242.1428571428571" y1="18.5" x2="632.4489795918366" y2="18.5" stroke="#BABABA" stroke-width="1.5" />
<rect x="632.4489795918366" y="14" height="9" width="127.55102040816327" fill="#009CA2" stroke="#009CA2" stroke-width="0" opacity="0.9" />
<rect x="632.4489795918366" y="15.62" height="3" width="127.55102040816327" fill="#F4EDF2" opacity="0.25" />
<path d="M 759.9999999999999 14 C 764.4999999999999 14, 764.4999999999999 23, 759.9999999999999 23" fill="#009CA2" opacity="0.9" />
<path d="M 10 25 C 5.5 25, 5.5 34, 10 34" fill="#009CA2" opacity="0.9" />
<rect x="10" y="25" height="9" width="127.55102040816327" fill="#009CA2" stroke="#009CA2" stroke-width="0" opacity="0.9" />
<rect x="10" y="26.62" height="3" width="127.55102040816327" fill="#F4EDF2" opacity="0.25" />
<rect x="137.55102040816325" y="25" height="9" width="104.59183673469387" fill="#D1D1D1" stroke="#D1D1D1" stroke-width="0" opacity="0.9" />
<rect x="137.55102040816325" y="26.62" height="3" width="104.59183673469387" fill="#F4EDF2" opacity="0.25" />
<line x1="242.1428571428571" y1="29.5" x2="632.4489795918366" y2="29.5" stroke="#BABABA" stroke-width="1.5" />
<rect x="632.4489795918366" y="25" height="9" width="127.55102040816327" fill="#009CA2" stroke="#009CA2" stroke-width="0" opacity="0.9" />
<rect x="632.4489795918366" y="26.62" height="3" width="127.55102040816327" fill="#F4EDF2" opacity="0.25" />
<path d="M 759.9999999999999 25 C 764.4999999999999 25, 764.4999999999999 34, 759.9999999999999 34" fill="#009CA2" opacity="0.9" />
<path d="M 10 36 C 5.5 36, 5.5 45, 10 45" fill="#009CA2" opacity="0.9" />
<rect x="10" y="36" height="9" width="127.55102040816327" fill="#009CA2" stroke="#009CA2" stroke-width="0" opacity="0.9" />
<rect x="10" y="37.62" height="3" width="127.55102040816327" fill="#F4EDF2" opacity="0.25" />
<rect x="137.55102040816325" y="36" height="9" width="104.59183673469387" fill="#D1D1D1" stroke="#D1D1D1" stroke-width="0" opacity="0.9" />
<rect x="137.55102040816325" y="37.62" height="3" width="104.59183673469387" fill="#F4EDF2" opacity="0.25" />
<line x1="242.1428571428571" y1="40.5" x2="632.4489795918366" y2="40.5" stroke="#BABABA" stroke-width="1.5" />
<rect x="632.4489795918366" y="36" height="9" width="127.55102040816327" fill="#009CA2" stroke="#009CA2" stroke-width="0" opacity="0.9" />
<rect x="632.4489795918366" y="37.62" height="3" width="127.55102040816327" fill="#F4EDF2" opacity="0.25" />
<path d="M 759.9999999999999 36 C 764.4999999999999 36, 764.4999999999999 45, 759.9999999999999 45" fill="#009CA2" opacity="0.9" />
<path d="M 10 47 C 5.5 47, 5.5 56, 10 56" fill="#009CA2" opacity="0.9" />
<rect x="10" y="47" height="9" width="127.55102040816327" fill="#009CA2" stroke="#009CA2" stroke-width="0" opacity="0.9" />
<rect x="10" y="48.62" height="3" width="127.55102040816327" fill="#F4EDF2" opacity="0.25" />
<rect x="137.55102040816325" y="47" height="9" width="104.59183673469387" fill="#D1D1D1" stroke="#D1D1D1" stroke-width="0" opacity="0.9" />
<rect x="137.55102040816325" y="48.62" height="3" width="104.59183673469387" fill="#F4EDF2" opacity="0.25" />
<line x1="242.1428571428571" y1="51.5" x2="632.4489795918366" y2="51.5" stroke="#BABABA" stroke-width="1.5" />
<rect x="632.4489795918366" y="47" height="9" width="112.24489795918367" fill="#009CA2" stroke="#009CA2" stroke-width="0" opacity="0.9" />
<rect x="632.4489795918366" y="48.62" height="3" width="112.24489795918367" fill="#F4EDF2" opacity="0.25" />
<rect x="744.6938775510203" y="47" height="9" width="5.1020408163265305" fill="#BABABA" stroke="#BABABA" stroke-width="0" opacity="0.9" />
<rect x="744.6938775510203" y="48.62" height="3" width="5.1020408163265305" fill="#F4EDF2" opacity="0.25" />
<rect x="749.7959183673468" y="47" height="9" width="2.5510204081632653" fill="#009CA2" stroke="#009CA2" stroke-width="0" opacity="0.9" />
<rect x="749.7959183673468" y="48.62" height="3" width="2.5510204081632653" fill="#F4EDF2" opacity="0.25" />
<rect x="752.34693877551" y="47" height="9" width="7.653061224489796" fill="#BABABA" stroke="#BABABA" stroke-width="0" opacity="0.9" />
<rect x="752.34693877551" y="48.62" height="3" width="7.653061224489796" fill="#F4EDF2" opacity="0.25" />
<path d="M 759.9999999999998 47 C 764.4999999999998 47, 764.4999999999998 56, 759.9999999999998 56" fill="#009CA2" opacity="0.9" />
<path d="M 10 58 C 5.5 58, 5.5 67, 10 67" fill="#009CA2" opacity="0.9" />
<rect x="10" y="58" height="9" width="127.55102040816327" fill="#009CA2" stroke="#009CA2" stroke-width="0" opacity="0.9" />
<rect x="10" y="59.62" height="3" width="127.55102040816327" fill="#F4EDF2" opacity="0.25" />
<rect x="137.55102040816325" y="58" height="9" width="104.59183673469387" fill="#D1D1D1" stroke="#D1D1D1" stroke-width="0" opacity="0.9" />
<rect x="137.55102040816325" y="59.62" height="3" width="104.59183673469387" fill="#F4EDF2" opacity="0.25" />
<line x1="242.1428571428571" y1="62.5" x2="632.4489795918366" y2="62.5" stroke="#BABABA" stroke-width="1.5" />
<rect x="632.4489795918366" y="58" height="9" width="127.55102040816327" fill="#009CA2" stroke="#009CA2" stroke-width="0" opacity="0.9" />
<rect x="632.4489795918366" y="59.62" height="3" width="127.55102040816327" fill="#F4EDF2" opacity="0.25" />
<path d="M 759.9999999999999 58 C 764.4999999999999 58, 764.4999999999999 67, 759.9999999999999 67" fill="#009CA2" opacity="0.9" />
<path d="M 10 69 C 5.5 69, 5.5 78, 10 78" fill="#009CA2" opacity="0.9" />
<rect x="10" y="69" height="9" width="127.55102040816327" fill="#009CA2" stroke="#009CA2" stroke-width="0" opacity="0.9" />
<rect x="10" y="70.62" height="3" width="127.55102040816327" fill="#F4EDF2" opacity="0.25" />
<rect x="137.55102040816325" y="69" height="9" width="104.59183673469387" fill="#D1D1D1" stroke="#D1D1D1" stroke-width="0" opacity="0.9" />
<rect x="137.55102040816325" y="70.62" height="3" width="104.59183673469387" fill="#F4EDF2" opacity="0.25" />
<line x1="242.1428571428571" y1="73.5" x2="632.4489795918366" y2="73.5" stroke="#BABABA" stroke-width="1.5" />
<rect x="632.4489795918366" y="69" height="9" width="127.55102040816327" fill="#009CA2" stroke="#009CA2" stroke-width="0" opacity="0.9" />
<rect x="632.4489795918366" y="70.62" height="3" width="127.55102040816327" fill="#F4EDF2" opacity="0.25" />
<path d="M 759.9999999999999 69 C 764.4999999999999 69, 764.4999999999999 78, 759.9999999999999 78" fill="#009CA2" opacity="0.9" />
<path d="M 10 80 C 5.5 80, 5.5 89, 10 89" fill="#009CA2" opacity="0.9" />
<rect x="10" y="80" height="9" width="127.55102040816327" fill="#009CA2" stroke="#009CA2" stroke-width="0" opacity="0.9" />
<rect x="10" y="81.62" height="3" width="127.55102040816327" fill="#F4EDF2" opacity="0.25" />
<rect x="137.55102040816325" y="80" height="9" width="104.59183673469387" fill="#D1D1D1" stroke="#D1D1D1" stroke-width="0" opacity="0.9" />
<rect x="137.55102040816325" y="81.62" height="3" width="104.59183673469387" fill="#F4EDF2" opacity="0.25" />
<line x1="242.1428571428571" y1="84.5" x2="632.4489795918366" y2="84.5" stroke="#BABABA" stroke-width="1.5" />
<rect x="632.4489795918366" y="80" height="9" width="127.55102040816327" fill="#009CA2" stroke="#009CA2" stroke-width="0" opacity="0.9" />
<rect x="632.4489795918366" y="81.62" height="3" width="127.55102040816327" fill="#F4EDF2" opacity="0.25" />
<path d="M 759.9999999999999 80 C 764.4999999999999 80, 764.4999999999999 89, 759.9999999999999 89" fill="#009CA2" opacity="0.9" />
<path d="M 10 91 C 5.5 91, 5.5 100, 10 100" fill="#009CA2" opacity="0.9" />
<rect x="10" y="91" height="9" width="127.55102040816327" fill="#009CA2" stroke="#009CA2" stroke-width="0" opacity="0.9" />
<rect x="10" y="92.62" height="3" width="127.55102040816327" fill="#F4EDF2" opacity="0.25" />
<rect x="137.55102040816325" y="91" height="9" width="104.59183673469387" fill="#D1D1D1" stroke="#D1D1D1" stroke-width="0" opacity="0.9" />
<rect x="137.55102040816325" y="92.62" height="3" width="104.59183673469387" fill="#F4EDF2" opacity="0.25" />
<line x1="242.1428571428571" y1="95.5" x2="632.4489795918366" y2="95.5" stroke="#BABABA" stroke-width="1.5" />
<rect x="632.4489795918366" y="91" height="9" width="63.775510204081634" fill="#009CA2" stroke="#009CA2" stroke-width="0" opacity="0.9" />
<rect x="632.4489795918366" y="92.62" height="3" width="63.775510204081634" fill="#F4EDF2" opacity="0.25" />
<rect x="696.2244897959183" y="91" height="9" width="61.224489795918366" fill="#009CA2" stroke="#009CA2" stroke-width="0" opacity="0.9" />
<rect x="696.2244897959183" y="92.62" height="3" width="61.224489795918366" fill="#F4EDF2" opacity="0.25" />
<line x1="757.4489795918366" y1="95.5" x2="759.9999999999999" y2="95.5" stroke="#009CA2" stroke-width="1.5" />
<path d="M 759.9999999999999 91 C 764.4999999999999 91, 764.4999999999999 100, 759.9999999999999 100" fill="#009CA2" opacity="0.9" />
<line x1="696.2244897959183" y1="91" x2="696.2244897959183" y2="100" stroke="#000000" stroke-width="2" />
<path d="M 10 102 C 5.5 102, 5.5 111, 10 111" fill="#009CA2" opacity="0.9" />
<rect x="10" y="102" height="9" width="127.55102040816327" fill="#009CA2" stroke="#009CA2" stroke-width="0" opacity="0.9" />
<rect x="10" y="103.62" height="3" width="127.55102040816327" fill="#F4EDF2" opacity="0.25" />
<rect x="137.55102040816325" y="102" height="9" width="104.59183673469387" fill="#D1D1D1" stroke="#D1D1D1" stroke-width="0" opacity="0.9" />
<rect x="137.55102040816325" y="103.62" height="3" width="104.59183673469387" fill="#F4EDF2" opacity="0.25" />
<line x1="242.1428571428571" y1="106.5" x2="632.4489795918366" y2="106.5" stroke="#BABABA" stroke-width="1.5" />
<rect x="632.4489795918366" y="102" height="9" width="127.55102040816327" fill="#009CA2" stroke="#009CA2" stroke-width="0" opacity="0.9" />
<rect x="632.4489795918366" y="103.62" height="3" width="127.55102040816327" fill="#F4EDF2" opacity="0.25" />
<path d="M 759.9999999999999 102 C 764.4999999999999 102, 764.4999999999999 111, 759.9999999999999 111" fill="#009CA2" opacity="0.9" />
<path d="M 10 113 C 5.5 113, 5.5 122, 10 122" fill="#009CA2" opacity="0.9" />
<rect x="10" y="113" height="9" width="66.3265306122449" fill="#009CA2" stroke="#009CA2" stroke-width="0" opacity="0.9" />
<rect x="10" y="114.62" height="3" width="66.3265306122449" fill="#F4EDF2" opacity="0.25" />
<line x1="76.3265306122449" y1="117.5" x2="78.87755102040816" y2="117.5" stroke="#009CA2" stroke-width="1.5" />
<rect x="78.87755102040816" y="113" height="9" width="58.6734693877551" fill="#009CA2" stroke="#009CA2" stroke-width="0" opacity="0.9" />
<rect x="78.87755102040816" y="114.62" height="3" width="58.6734693877551" fill="#F4EDF2" opacity="0.25" />
<rect x="137.55102040816325" y="113" height="9" width="104.59183673469387" fill="#D1D1D1" stroke="#D1D1D1" stroke-width="0" opacity="0.9" />
<rect x="137.55102040816325" y="114.62" height="3" width="104.59183673469387" fill="#F4EDF2" opacity="0.25" />
<line x1="242.1428571428571" y1="117.5" x2="632.4489795918366" y2="117.5" stroke="#BABABA" stroke-width="1.5" />
<rect x="632.4489795918366" y="113" height="9" width="127.55102040816327" fill="#009CA2" stroke="#009CA2" stroke-width="0" opacity="0.9" />
<rect x="632.4489795918366" y="114.62" height="3" width="127.55102040816327" fill="#F4EDF2" opacity="0.25" />
<path d="M 759.9999999999999 113 C 764.4999999999999 113, 764.4999999999999 122, 759.9999999999999 122" fill="#009CA2" opacity="0.9" />
<line x1="10" y1="113" x2="10" y2="122" stroke="#000000" stroke-width="2" />
<path d="M 10 124 C 5.5 124, 5.5 133, 10 133" fill="#009CA2" opacity="0.9" />
<rect x="10" y="124" height="9" width="127.55102040816327" fill="#009CA2" stroke="#009CA2" stroke-width="0" opacity="0.9" />
<rect x="10" y="125.62" height="3" width="127.55102040816327" fill="#F4EDF2" opacity="0.25" />
<rect x="137.55102040816325" y="124" height="9" width="104.59183673469387" fill="#D1D1D1" stroke="#D1D1D1" stroke-width="0" opacity="0.9" />
<rect x="137.55102040816325" y="125.62" height="3" width="104.59183673469387" fill="#F4EDF2" opacity="0.25" />
<line x1="242.1428571428571" y1="128.5" x2="632.4489795918366" y2="128.5" stroke="#BABABA" stroke-width="1.5" />
<rect x="632.4489795918366" y="124" height="9" width="127.55102040816327" fill="#009CA2" stroke="#009CA2" stroke-width="0" opacity="0.9" />
<rect x="632.4489795918366" y="125.62" height="3" width="127.55102040816327" fill="#F4EDF2" opacity="0.25" />
<path d="M 759.9999999999999 124 C 764.4999999999999 124, 764.4999999999999 133, 759.9999999999999 133" fill="#009CA2" opacity="0.9" />
<path d="M 10 135 C 5.5 135, 5.5 144, 10 144" fill="#009CA2" opacity="0.9" />
<rect x="10" y="135" height="9" width="2.5510204081632653" fill="#009CA2" stroke="#009CA2" stroke-width="0" opacity="0.9" />
<rect x="10" y="136.62" height="3" width="2.5510204081632653" fill="#F4EDF2" opacity="0.25" />
<rect x="12.551020408163264" y="135" height="9" width="2.5510204081632653" fill="#BABABA" stroke="#BABABA" stroke-width="0" opacity="0.9" />
<rect x="12.551020408163264" y="136.62" height="3" width="2.5510204081632653" fill="#F4EDF2" opacity="0.25" />
<rect x="15.102040816326529" y="135" height="9" width="43.36734693877551" fill="#009CA2" stroke="#009CA2" stroke-width="0" opacity="0.9" />
<rect x="15.102040816326529" y="136.62" height="3" width="43.36734693877551" fill="#F4EDF2" opacity="0.25" />
<rect x="58.46938775510204" y="135" height="9" width="15.306122448979592" fill="#BABABA" stroke="#BABABA" stroke-width="0" opacity="0.9" />
<rect x="58.46938775510204" y="136.62" height="3" width="15.306122448979592" fill="#F4EDF2" opacity="0.25" />
<rect x="73.77551020408163" y="135" height="9" width="63.775510204081634" fill="#009CA2" stroke="#009CA2" stroke-width="0" opacity="0.9" />
<rect x="73.77551020408163" y="136.62" height="3" width="63.775510204081634" fill="#F4EDF2" opacity="0.25" />
<rect x="137.55102040816325" y="135" height="9" width="104.59183673469387" fill="#D1D1D1" stroke="#D1D1D1" stroke-width="0" opacity="0.9" />
<rect x="137.55102040816325" y="136.62" height="3" width="104.59183673469387" fill="#F4EDF2" opacity="0.25" />
<line x1="242.1428571428571" y1="139.5" x2="632.4489795918366" y2="139.5" stroke="#BABABA" stroke-width="1.5" />
<rect x="632.4489795918366" y="135" height="9" width="51.0204081632653" fill="#009CA2" stroke="#009CA2" stroke-width="0" opacity="0.9" />
<rect x="632.4489795918366" y="136.62" height="3" width="51.0204081632653" fill="#F4EDF2" opacity="0.25" />
<rect x="683.4693877551019" y="135" height="9" width="71.42857142857143" fill="#009CA2" stroke="#009CA2" stroke-width="0" opacity="0.9" />
<rect x="683.4693877551019" y="136.62" height="3" width="71.42857142857143" fill="#F4EDF2" opacity="0.25" />
<line x1="754.8979591836734" y1="139.5" x2="759.9999999999999" y2="139.5" stroke="#009CA2" stroke-width="1.5" />
<path d="M 759.9999999999999 135 C 764.4999999999999 135, 764.4999999999999 144, 759.9999999999999 144" fill="#009CA2" opacity="0.9" />
<line x1="683.4693877551019" y1="135" x2="683.4693877551019" y2="144" stroke="#000000" stroke-width="2" />
<path d="M 10 146 C 5.5 146, 5.5 155, 10 155" fill="#009CA2" opacity="0.9" />
<rect x="10" y="146" height="9" width="127.55102040816327" fill="#009CA2" stroke="#009CA2" stroke-width="0" opacity="0.9" />
<rect x="10" y="147.62" height="3" width="127.55102040816327" fill="#F4EDF2" opacity="0.25" />
<rect x="137.55102040816325" y="146" height="9" width="104.59183673469387" fill="#D1D1D1" stroke="#D1D1D1" stroke-width="0" opacity="0.9" />
<rect x="137.55102040816325" y="147.62" height="3" width="104.59183673469387" fill="#F4EDF2" opacity="0.25" />
<line x1="242.1428571428571" y1="150.5" x2="632.4489795918366" y2="150.5" stroke="#BABABA" stroke-width="1.5" />
<rect x="632.4489795918366" y="146" height="9" width="127.55102040816327" fill="#009CA2" stroke="#009CA2" stroke-width="0" opacity="0.9" />
<rect x="632.4489795918366" y="147.62" height="3" width="127.55102040816327" fill="#F4EDF2" opacity="0.25" />
<path d="M 759.9999999999999 146 C 764.4999999999999 146, 764.4999999999999 155, 759.9999999999999 155" fill="#009CA2" opacity="0.9" />
<path d="M 10 157 C 5.5 157, 5.5 166, 10 166" fill="#009CA2" opacity="0.9" />
<rect x="10" y="157" height="9" width="127.55102040816327" fill="#009CA2" stroke="#009CA2" stroke-width="0" opacity="0.9" />
<rect x="10" y="158.62" height="3" width="127.55102040816327" fill="#F4EDF2" opacity="0.25" />
<rect x="137.55102040816325" y="157" height="9" width="104.59183673469387" fill="#D1D1D1" stroke="#D1D1D1" stroke-width="0" opacity="0.9" />
<rect x="137.55102040816325" y="158.62" height="3" width="104.59183673469387" fill="#F4EDF2" opacity="0.25" />
<line x1="242.1428571428571" y1="161.5" x2="632.4489795918366" y2="161.5" stroke="#BABABA" stroke-width="1.5" />
<rect x="632.4489795918366" y="157" height="9" width="68.87755102040816" fill="#009CA2" stroke="#009CA2" stroke-width="0" opacity="0.9" />
<rect x="632.4489795918366" y="158.62" height="3" width="68.87755102040816" fill="#F4EDF2" opacity="0.25" />
<line x1="701.3265306122448" y1="161.5" x2="703.8775510204081" y2="161.5" stroke="#009CA2" stroke-width="1.5" />
<rect x="703.8775510204081" y="157" height="9" width="56.12244897959184" fill="#009CA2" stroke="#009CA2" stroke-width="0" opacity="0.9" />
<rect x="703.8775510204081" y="158.62" height="3" width="56.12244897959184" fill="#F4EDF2" opacity="0.25" />
<path d="M 759.9999999999999 157 C 764.4999999999999 157, 764.4999999999999 166, 759.9999999999999 166" fill="#009CA2" opacity="0.9" />
<line x1="759.9999999999999" y1="157" x2="759.9999999999999" y2="166" stroke="#000000" stroke-width="2" />
<path d="M 10 168 C 5.5 168, 5.5 177, 10 177" fill="#009CA2" opacity="0.9" />
<rect x="10" y="168" height="9" width="127.55102040816327" fill="#009CA2" stroke="#009CA2" stroke-width="0" opacity="0.9" />
<rect x="10" y="169.62" height="3" width="127.55102040816327" fill="#F4EDF2" opacity="0.25" />
<rect x="137.55102040816325" y="168" height="9" width="107.14285714285714" fill="#D1D1D1" stroke="#D1D1D1" stroke-width="0" opacity="0.9" />
<rect x="137.55102040816325" y="169.62" height="3" width="107.14285714285714" fill="#F4EDF2" opacity="0.25" />
<line x1="244.6938775510204" y1="172.5" x2="632.4489795918367" y2="172.5" stroke="#BABABA" stroke-width="1.5" />
<rect x="632.4489795918367" y="168" height="9" width="53.57142857142857" fill="#009CA2" stroke="#009CA2" stroke-width="0" opacity="0.9" />
<rect x="632.4489795918367" y="169.62" height="3" width="53.57142857142857" fill="#F4EDF2" opacity="0.25" />
<rect x="686.0204081632653" y="168" height="9" width="68.87755102040816" fill="#009CA2" stroke="#009CA2" stroke-width="0" opacity="0.9" />
<rect x="686.0204081632653" y="169.62" height="3" width="68.87755102040816" fill="#F4EDF2" opacity="0.25" />
<line x1="754.8979591836735" y1="172.5" x2="760" y2="172.5" stroke="#009CA2" stroke-width="1.5" />
<path d="M 760 168 C 764.5 168, 764.5 177, 760 177" fill="#009CA2" opacity="0.9" />
<line x1="686.0204081632653" y1="168" x2="686.0204081632653" y2="177" stroke="#000000" stroke-width="2" />
<path d="M 10 179 C 5.5 179, 5.5 188, 10 188" fill="#009CA2" opacity="0.9" />
<rect x="10" y="179" height="9" width="127.55102040816327" fill="#009CA2" stroke="#009CA2" stroke-width="0" opacity="0.9" />
<rect x="10" y="180.62" height="3" width="127.55102040816327" fill="#F4EDF2" opacity="0.25" />
<rect x="137.55102040816325" y="179" height="9" width="477.0408163265306" fill="#D1D1D1" stroke="#D1D1D1" stroke-width="0" opacity="0.9" />
<rect x="137.55102040816325" y="180.62" height="3" width="477.0408163265306" fill="#F4EDF2" opacity="0.25" />
<line x1="614.5918367346939" y1="183.5" x2="632.4489795918367" y2="183.5" stroke="#BABABA" stroke-width="1.5" />
<rect x="632.4489795918367" y="179" height="9" width="127.55102040816327" fill="#009CA2" stroke="#009CA2" stroke-width="0" opacity="0.9" />
<rect x="632.4489795918367" y="180.62" height="3" width="127.55102040816327" fill="#F4EDF2" opacity="0.25" />
<path d="M 760 179 C 764.5 179, 764.5 188, 760 188" fill="#009CA2" opacity="0.9" />
<path d="M 10 190 C 5.5 190, 5.5 199, 10 199" fill="#009CA2" opacity="0.9" />
<rect x="10" y="190" height="9" width="127.55102040816327" fill="#009CA2" stroke="#009CA2" stroke-width="0" opacity="0.9" />
<rect x="10" y="191.62" height="3" width="127.55102040816327" fill="#F4EDF2" opacity="0.25" />
<rect x="137.55102040816325" y="190" height="9" width="479.59183673469386" fill="#D1D1D1" stroke="#D1D1D1" stroke-width="0" opacity="0.9" />
<rect x="137.55102040816325" y="191.62" height="3" width="479.59183673469386" fill="#F4EDF2" opacity="0.25" />
<line x1="617.1428571428571" y1="194.5" x2="632.4489795918367" y2="194.5" stroke="#BABABA" stroke-width="1.5" />
<rect x="632.4489795918367" y="190" height="9" width="127.55102040816327" fill="#009CA2" stroke="#009CA2" stroke-width="0" opacity="0.9" />
<rect x="632.4489795918367" y="191.62" height="3" width="127.55102040816327" fill="#F4EDF2" opacity="0.25" />
<path d="M 760 190 C 764.5 190, 764.5 199, 760 199" fill="#009CA2" opacity="0.9" />
<path d="M 10 201 C 5.5 201, 5.5 210, 10 210" fill="#009CA2" opacity="0.9" />
<rect x="10" y="201" height="9" width="127.55102040816327" fill="#009CA2" stroke="#009CA2" stroke-width="0" opacity="0.9" />
<rect x="10" y="202.62" height="3" width="127.55102040816327" fill="#F4EDF2" opacity="0.25" />
<rect x="137.55102040816325" y="201" height="9" width="482.1428571428571" fill="#D1D1D1" stroke="#D1D1D1" stroke-width="0" opacity="0.9" />
<rect x="137.55102040816325" y="202.62" height="3" width="482.1428571428571" fill="#F4EDF2" opacity="0.25" />
<line x1="619.6938775510204" y1="205.5" x2="632.4489795918366" y2="205.5" stroke="#BABABA" stroke-width="1.5" />
<rect x="632.4489795918366" y="201" height="9" width="127.55102040816327" fill="#009CA2" stroke="#009CA2" stroke-width="0" opacity="0.9" />
<rect x="632.4489795918366" y="202.62" height="3" width="127.55102040816327" fill="#F4EDF2" opacity="0.25" />
<path d="M 759.9999999999999 201 C 764.4999999999999 201, 764.4999999999999 210, 759.9999999999999 210" fill="#009CA2" opacity="0.9" />
<path d="M 10 212 C 5.5 212, 5.5 221, 10 221" fill="#009CA2" opacity="0.9" />
<rect x="10" y="212" height="9" width="127.55102040816327" fill="#009CA2" stroke="#009CA2" stroke-width="0" opacity="0.9" />
<rect x="10" y="213.62" height="3" width="127.55102040816327" fill="#F4EDF2" opacity="0.25" />
<rect x="137.55102040816325" y="212" height="9" width="482.1428571428571" fill="#D1D1D1" stroke="#D1D1D1" stroke-width="0" opacity="0.9" />
<rect x="137.55102040816325" y="213.62" height="3" width="482.1428571428571" fill="#F4EDF2" opacity="0.25" />
<line x1="619.6938775510204" y1="216.5" x2="632.4489795918366" y2="216.5" stroke="#BABABA" stroke-width="1.5" />
<rect x="632.4489795918366" y="212" height="9" width="127.55102040816327" fill="#009CA2" stroke="#009CA2" stroke-width="0" opacity="0.9" />
<rect x="632.4489795918366" y="213.62" height="3" width="127.55102040816327" fill="#F4EDF2" opacity="0.25" />
<path d="M 759.9999999999999 212 C 764.4999999999999 212, 764.4999999999999 221, 759.9999999999999 221" fill="#009CA2" opacity="0.9" />
<path d="M 10 223 C 5.5 223, 5.5 232, 10 232" fill="#009CA2" opacity="0.9" />
<rect x="10" y="223" height="9" width="127.55102040816327" fill="#009CA2" stroke="#009CA2" stroke-width="0" opacity="0.9" />
<rect x="10" y="224.62" height="3" width="127.55102040816327" fill="#F4EDF2" opacity="0.25" />
<rect x="137.55102040816325" y="223" height="9" width="482.1428571428571" fill="#D1D1D1" stroke="#D1D1D1" stroke-width="0" opacity="0.9" />
<rect x="137.55102040816325" y="224.62" height="3" width="482.1428571428571" fill="#F4EDF2" opacity="0.25" />
<line x1="619.6938775510204" y1="227.5" x2="632.4489795918366" y2="227.5" stroke="#BABABA" stroke-width="1.5" />
<rect x="632.4489795918366" y="223" height="9" width="127.55102040816327" fill="#009CA2" stroke="#009CA2" stroke-width="0" opacity="0.9" />
<rect x="632.4489795918366" y="224.62" height="3" width="127.55102040816327" fill="#F4EDF2" opacity="0.25" />
<path d="M 759.9999999999999 223 C 764.4999999999999 223, 764.4999999999999 232, 759.9999999999999 232" fill="#009CA2" opacity="0.9" />
<path d="M 10 234 C 5.5 234, 5.5 243, 10 243" fill="#009CA2" opacity="0.9" />
<rect x="10" y="234" height="9" width="127.55102040816327" fill="#009CA2" stroke="#009CA2" stroke-width="0" opacity="0.9" />
<rect x="10" y="235.62" height="3" width="127.55102040816327" fill="#F4EDF2" opacity="0.25" />
<rect x="137.55102040816325" y="234" height="9" width="482.1428571428571" fill="#D1D1D1" stroke="#D1D1D1" stroke-width="0" opacity="0.9" />
<rect x="137.55102040816325" y="235.62" height="3" width="482.1428571428571" fill="#F4EDF2" opacity="0.25" />
<line x1="619.6938775510204" y1="238.5" x2="632.4489795918366" y2="238.5" stroke="#BABABA" stroke-width="1.5" />
<rect x="632.4489795918366" y="234" height="9" width="127.55102040816327" fill="#009CA2" stroke="#009CA2" stroke-width="0" opacity="0.9" />
<rect x="632.4489795918366" y="235.62" height="3" width="127.55102040816327" fill="#F4EDF2" opacity="0.25" />
<path d="M 759.9999999999999 234 C 764.4999999999999 234, 764.4999999999999 243, 759.9999999999999 243" fill="#009CA2" opacity="0.9" />
<path d="M 10 245 C 5.5 245, 5.5 254, 10 254" fill="#009CA2" opacity="0.9" />
<rect x="10" y="245" height="9" width="127.55102040816327" fill="#009CA2" stroke="#009CA2" stroke-width="0" opacity="0.9" />
<rect x="10" y="246.62" height="3" width="127.55102040816327" fill="#F4EDF2" opacity="0.25" />
<rect x="137.55102040816325" y="245" height="9" width="482.1428571428571" fill="#D1D1D1" stroke="#D1D1D1" stroke-width="0" opacity="0.9" />
<rect x="137.55102040816325" y="246.62" height="3" width="482.1428571428571" fill="#F4EDF2" opacity="0.25" />
<line x1="619.6938775510204" y1="249.5" x2="632.4489795918366" y2="249.5" stroke="#BABABA" stroke-width="1.5" />
<rect x="632.4489795918366" y="245" height="9" width="127.55102040816327" fill="#009CA2" stroke="#009CA2" stroke-width="0" opacity="0.9" />
<rect x="632.4489795918366" y="246.62" height="3" width="127.55102040816327" fill="#F4EDF2" opacity="0.25" />
<path d="M 759.9999999999999 245 C 764.4999999999999 245, 764.4999999999999 254, 759.9999999999999 254" fill="#009CA2" opacity="0.9" />
<path d="M 10 256 C 5.5 256, 5.5 265, 10 265" fill="#009CA2" opacity="0.9" />
<rect x="10" y="256" height="9" width="127.55102040816327" fill="#009CA2" stroke="#009CA2" stroke-width="0" opacity="0.9" />
<rect x="10" y="257.62" height="3" width="127.55102040816327" fill="#F4EDF2" opacity="0.25" />
<rect x="137.55102040816325" y="256" height="9" width="482.1428571428571" fill="#D1D1D1" stroke="#D1D1D1" stroke-width="0" opacity="0.9" />
<rect x="137.55102040816325" y="257.62" height="3" width="482.1428571428571" fill="#F4EDF2" opacity="0.25" />
<line x1="619.6938775510204" y1="260.5" x2="632.4489795918366" y2="260.5" stroke="#BABABA" stroke-width="1.5" />
<rect x="632.4489795918366" y="256" height="9" width="127.55102040816327" fill="#009CA2" stroke="#009CA2" stroke-width="0" opacity="0.9" />
<rect x="632.4489795918366" y="257.62" height="3" width="127.55102040816327" fill="#F4EDF2" opacity="0.25" />
<path d="M 759.9999999999999 256 C 764.4999999999999 256, 764.4999999999999 265, 759.9999999999999 265" fill="#009CA2" opacity="0.9" />
<path d="M 10 267 C 5.5 267, 5.5 276, 10 276" fill="#009CA2" opacity="0.9" />
<rect x="10" y="267" height="9" width="127.55102040816327" fill="#009CA2" stroke="#009CA2" stroke-width="0" opacity="0.9" />
<rect x="10" y="268.62" height="3" width="127.55102040816327" fill="#F4EDF2" opacity="0.25" />
<rect x="137.55102040816325" y="267" height="9" width="482.1428571428571" fill="#D1D1D1" stroke="#D1D1D1" stroke-width="0" opacity="0.9" />
<rect x="137.55102040816325" y="268.62" height="3" width="482.1428571428571" fill="#F4EDF2" opacity="0.25" />
<line x1="619.6938775510204" y1="271.5" x2="632.4489795918366" y2="271.5" stroke="#BABABA" stroke-width="1.5" />
<rect x="632.4489795918366" y="267" height="9" width="127.55102040816327" fill="#009CA2" stroke="#009CA2" stroke-width="0" opacity="0.9" />
<rect x="632.4489795918366" y="268.62" height="3" width="127.55102040816327" fill="#F4EDF2" opacity="0.25" />
<path d="M 759.9999999999999 267 C 764.4999999999999 267, 764.4999999999999 276, 759.9999999999999 276" fill="#009CA2" opacity="0.9" />
<path d="M 10 278 C 5.5 278, 5.5 287, 10 287" fill="#009CA2" opacity="0.9" />
<rect x="10" y="278" height="9" width="127.55102040816327" fill="#009CA2" stroke="#009CA2" stroke-width="0" opacity="0.9" />
<rect x="10" y="279.62" height="3" width="127.55102040816327" fill="#F4EDF2" opacity="0.25" />
<rect x="137.55102040816325" y="278" height="9" width="482.1428571428571" fill="#D1D1D1" stroke="#D1D1D1" stroke-width="0" opacity="0.9" />
<rect x="137.55102040816325" y="279.62" height="3" width="482.1428571428571" fill="#F4EDF2" opacity="0.25" />
<line x1="619.6938775510204" y1="282.5" x2="632.4489795918366" y2="282.5" stroke="#BABABA" stroke-width="1.5" />
<rect x="632.4489795918366" y="278" height="9" width="127.55102040816327" fill="#009CA2" stroke="#009CA2" stroke-width="0" opacity="0.9" />
<rect x="632.4489795918366" y="279.62" height="3" width="127.55102040816327" fill="#F4EDF2" opacity="0.25" />
<path d="M 759.9999999999999 278 C 764.4999999999999 278, 764.4999999999999 287, 759.9999999999999 287" fill="#009CA2" opacity="0.9" />
<path d="M 10 289 C 5.5 289, 5.5 298, 10 298" fill="#009CA2" opacity="0.9" />
<rect x="10" y="289" height="9" width="127.55102040816327" fill="#009CA2" stroke="#009CA2" stroke-width="0" opacity="0.9" />
<rect x="10" y="290.62" height="3" width="127.55102040816327" fill="#F4EDF2" opacity="0.25" />
<rect x="137.55102040816325" y="289" height="9" width="482.1428571428571" fill="#D1D1D1" stroke="#D1D1D1" stroke-width="0" opacity="0.9" />
<rect x="137.55102040816325" y="290.62" height="3" width="482.1428571428571" fill="#F4EDF2" opacity="0.25" />
<line x1="619.6938775510204" y1="293.5" x2="632.4489795918366" y2="293.5" stroke="#BABABA" stroke-width="1.5" />
<rect x="632.4489795918366" y="289" height="9" width="127.55102040816327" fill="#009CA2" stroke="#009CA2" stroke-width="0" opacity="0.9" />
<rect x="632.4489795918366" y="290.62" height="3" width="127.55102040816327" fill="#F4EDF2" opacity="0.25" />
<path d="M 759.9999999999999 289 C 764.4999999999999 289, 764.4999999999999 298, 759.9999999999999 298" fill="#009CA2" opacity="0.9" />
<path d="M 10 300 C 5.5 300, 5.5 309, 10 309" fill="#009CA2" opacity="0.9" />
<rect x="10" y="300" height="9" width="127.55102040816327" fill="#009CA2" stroke="#009CA2" stroke-width="0" opacity="0.9" />
<rect x="10" y="301.62" height="3" width="127.55102040816327" fill="#F4EDF2" opacity="0.25" />
<rect x="137.55102040816325" y="300" height="9" width="482.1428571428571" fill="#D1D1D1" stroke="#D1D1D1" stroke-width="0" opacity="0.9" />
<rect x="137.55102040816325" y="301.62" height="3" width="482.1428571428571" fill="#F4EDF2" opacity="0.25" />
<line x1="619.6938775510204" y1="304.5" x2="632.4489795918366" y2="304.5" stroke="#BABABA" stroke-width="1.5" />
<rect x="632.4489795918366" y="300" height="9" width="127.55102040816327" fill="#009CA2" stroke="#009CA2" stroke-width="0" opacity="0.9" />
<rect x="632.4489795918366" y="301.62" height="3" width="127.55102040816327" fill="#F4EDF2" opacity="0.25" />
<path d="M 759.9999999999999 300 C 764.4999999999999 300, 764.4999999999999 309, 759.9999999999999 309" fill="#009CA2" opacity="0.9" />
<path d="M 10 311 C 5.5 311, 5.5 320, 10 320" fill="#009CA2" opacity="0.9" />
<rect x="10" y="311" height="9" width="127.55102040816327" fill="#009CA2" stroke="#009CA2" stroke-width="0" opacity="0.9" />
<rect x="10" y="312.62" height="3" width="127.55102040816327" fill="#F4EDF2" opacity="0.25" />
<rect x="137.55102040816325" y="311" height="9" width="482.1428571428571" fill="#D1D1D1" stroke="#D1D1D1" stroke-width="0" opacity="0.9" />
<rect x="137.55102040816325" y="312.62" height="3" width="482.1428571428571" fill="#F4EDF2" opacity="0.25" />
<line x1="619.6938775510204" y1="315.5" x2="632.4489795918366" y2="315.5" stroke="#BABABA" stroke-width="1.5" />
<rect x="632.4489795918366" y="311" height="9" width="127.55102040816327" fill="#009CA2" stroke="#009CA2" stroke-width="0" opacity="0.9" />
<rect x="632.4489795918366" y="312.62" height="3" width="127.55102040816327" fill="#F4EDF2" opacity="0.25" />
<path d="M 759.9999999999999 311 C 764.4999999999999 311, 764.4999999999999 320, 759.9999999999999 320" fill="#009CA2" opacity="0.9" />
<path d="M 10 322 C 5.5 322, 5.5 331, 10 331" fill="#009CA2" opacity="0.9" />
<rect x="10" y="322" height="9" width="127.55102040816327" fill="#009CA2" stroke="#009CA2" stroke-width="0" opacity="0.9" />
<rect x="10" y="323.62" height="3" width="127.55102040816327" fill="#F4EDF2" opacity="0.25" />
<rect x="137.55102040816325" y="322" height="9" width="494.89795918367344" fill="#D1D1D1" stroke="#D1D1D1" stroke-width="0" opacity="0.9" />
<rect x="137.55102040816325" y="323.62" height="3" width="494.89795918367344" fill="#F4EDF2" opacity="0.25" />
<rect x="632.4489795918366" y="322" height="9" width="127.55102040816327" fill="#009CA2" stroke="#009CA2" stroke-width="0" opacity="0.9" />
<rect x="632.4489795918366" y="323.62" height="3" width="127.55102040816327" fill="#F4EDF2" opacity="0.25" />
<path d="M 759.9999999999999 322 C 764.4999999999999 322, 764.4999999999999 331, 759.9999999999999 331" fill="#009CA2" opacity="0.9" />
<rect x="10" y="337" height="12" width="12" fill="#1383C6" stroke="#1383C6" stroke-width="0" opacity="0.9" />
<text x="24" y="348" font-family="monospace" font-weight="bold" font-size="14px" >TTTTA</text>
<rect x="79" y="337" height="12" width="12" fill="#814ED1" stroke="#814ED1" stroke-width="0" opacity="0.9" />
<text x="93" y="348" font-family="monospace" font-weight="bold" font-size="14px" >TTTCA</text>
</svg>
